<?xml version="1.0" encoding="UTF-8" standalone="no"?>
<!-- Created with Inkscape (http://www.inkscape.org/) -->

<svg
   xmlns:dc="http://purl.org/dc/elements/1.1/"
   xmlns:cc="http://creativecommons.org/ns#"
   xmlns:rdf="http://www.w3.org/1999/02/22-rdf-syntax-ns#"
   xmlns:svg="http://www.w3.org/2000/svg"
   xmlns="http://www.w3.org/2000/svg"
   xmlns:xlink="http://www.w3.org/1999/xlink"
   xmlns:sodipodi="http://sodipodi.sourceforge.net/DTD/sodipodi-0.dtd"
   xmlns:inkscape="http://www.inkscape.org/namespaces/inkscape"
   version="1.0"
   width="96"
   height="96"
   id="svg2408"
   inkscape:version="0.47 r22583"
   sodipodi:docname="day.svg"
   inkscape:export-filename="/home/francesco/neo_freerunner/qtmoko/faenqomod/svg/faenqomod_pics/icons/day.png"
   inkscape:export-xdpi="90"
   inkscape:export-ydpi="90">
  <sodipodi:namedview
     pagecolor="#ffffff"
     bordercolor="#666666"
     borderopacity="1"
     objecttolerance="10"
     gridtolerance="10"
     guidetolerance="10"
     inkscape:pageopacity="0"
     inkscape:pageshadow="2"
     inkscape:window-width="1366"
     inkscape:window-height="709"
     id="namedview96"
     showgrid="false"
     inkscape:zoom="2"
     inkscape:cx="71.644944"
     inkscape:cy="36.385255"
     inkscape:window-x="0"
     inkscape:window-y="25"
     inkscape:window-maximized="1"
     inkscape:current-layer="svg2408" />
  <defs
     id="defs2410">
    <inkscape:perspective
       sodipodi:type="inkscape:persp3d"
       inkscape:vp_x="0 : 48 : 1"
       inkscape:vp_y="0 : 1000 : 0"
       inkscape:vp_z="96 : 48 : 1"
       inkscape:persp3d-origin="48 : 32 : 1"
       id="perspective98" />
    <linearGradient
       id="linearGradient3757">
      <stop
         id="stop3759"
         style="stop-color:#363ac5;stop-opacity:1;"
         offset="0" />
      <stop
         id="stop3761"
         style="stop-color:#332bd4;stop-opacity:1;"
         offset="1" />
    </linearGradient>
    <linearGradient
       id="linearGradient3777">
      <stop
         id="stop3779"
         style="stop-color:#ffffff;stop-opacity:0"
         offset="0" />
      <stop
         id="stop3785"
         style="stop-color:#d7d7d7;stop-opacity:1"
         offset="0.50290233" />
      <stop
         id="stop3781"
         style="stop-color:#cccccc;stop-opacity:1"
         offset="0.76460928" />
      <stop
         id="stop3787"
         style="stop-color:#d7d7d7;stop-opacity:1"
         offset="0.9122979" />
      <stop
         id="stop3783"
         style="stop-color:#ffffff;stop-opacity:1"
         offset="1" />
    </linearGradient>
    <linearGradient
       x1="45.447727"
       y1="92.539597"
       x2="45.447727"
       y2="7.0165396"
       id="ButtonShadow"
       gradientUnits="userSpaceOnUse"
       gradientTransform="scale(1.0058652,0.994169)">
      <stop
         id="stop3750"
         style="stop-color:#000000;stop-opacity:1"
         offset="0" />
      <stop
         id="stop3752"
         style="stop-color:#000000;stop-opacity:0.58823532"
         offset="1" />
    </linearGradient>
    <linearGradient
       id="linearGradient3737">
      <stop
         id="stop3739"
         style="stop-color:#ffffff;stop-opacity:1"
         offset="0" />
      <stop
         id="stop3741"
         style="stop-color:#ffffff;stop-opacity:0"
         offset="1" />
    </linearGradient>
    <filter
       color-interpolation-filters="sRGB"
       id="filter3174">
      <feGaussianBlur
         id="feGaussianBlur3176"
         stdDeviation="1.71" />
    </filter>
    <linearGradient
       x1="36.357143"
       y1="6"
       x2="36.357143"
       y2="63.893143"
       id="linearGradient3188"
       xlink:href="#linearGradient3737"
       gradientUnits="userSpaceOnUse" />
    <filter
       x="-0.192"
       y="-0.192"
       width="1.3839999"
       height="1.3839999"
       color-interpolation-filters="sRGB"
       id="filter3794">
      <feGaussianBlur
         id="feGaussianBlur3796"
         stdDeviation="5.28" />
    </filter>
    <linearGradient
       x1="48"
       y1="20.220806"
       x2="48"
       y2="138.66119"
       id="linearGradient3613"
       xlink:href="#linearGradient3737"
       gradientUnits="userSpaceOnUse" />
    <radialGradient
       cx="48"
       cy="90.171875"
       r="42"
       fx="48"
       fy="90.171875"
       id="radialGradient3619"
       xlink:href="#linearGradient3737"
       gradientUnits="userSpaceOnUse"
       gradientTransform="matrix(1.1573129,0,0,0.99590774,-17.551021,0.19713193)" />
    <clipPath
       id="clipPath3613">
      <rect
         width="84"
         height="84"
         rx="6"
         ry="6"
         x="6"
         y="6"
         id="rect3615"
         style="fill:#ffffff;fill-opacity:1;fill-rule:nonzero;stroke:none" />
    </clipPath>
    <linearGradient
       x1="48"
       y1="90"
       x2="48"
       y2="5.9877172"
       id="linearGradient3617"
       xlink:href="#ButtonColor-0"
       gradientUnits="userSpaceOnUse" />
    <linearGradient
       x1="38.410439"
       y1="39.834473"
       x2="110.98586"
       y2="112.4099"
       id="linearGradient3185"
       xlink:href="#linearGradient3777"
       gradientUnits="userSpaceOnUse"
       gradientTransform="matrix(0.71186441,0,0,0.71186441,2.44068,2.440678)" />
    <linearGradient
       x1="58.650177"
       y1="122"
       x2="58.650177"
       y2="5.4252338"
       id="ButtonColor"
       gradientUnits="userSpaceOnUse"
       gradientTransform="matrix(1.0172414,0,0,1.0172414,-1.1034483,-1.1034483)">
      <stop
         id="stop3189"
         style="stop-color:#e4b31e;stop-opacity:1"
         offset="0" />
      <stop
         id="stop3191"
         style="stop-color:#ffef64;stop-opacity:1"
         offset="1" />
    </linearGradient>
    <linearGradient
       x1="48"
       y1="90"
       x2="48"
       y2="5.9877172"
       id="linearGradient3804"
       xlink:href="#ButtonColor"
       gradientUnits="userSpaceOnUse"
       gradientTransform="translate(50,0)" />
    <filter
       color-interpolation-filters="sRGB"
       id="filter3810">
      <feGaussianBlur
         id="feGaussianBlur3812"
         stdDeviation="1.2600071" />
    </filter>
    <linearGradient
       x1="82.08036"
       y1="82.290176"
       x2="59.611588"
       y2="59.821404"
       id="linearGradient3825"
       xlink:href="#linearGradient3737"
       gradientUnits="userSpaceOnUse" />
    <linearGradient
       x1="58.650177"
       y1="122"
       x2="58.650177"
       y2="5.4252338"
       id="ButtonColor-0"
       gradientUnits="userSpaceOnUse"
       gradientTransform="matrix(1.0172414,0,0,1.0172414,-1.1034483,-1.1034483)">
      <stop
         id="stop3189-4"
         style="stop-color:#f0f0f0;stop-opacity:1"
         offset="0" />
      <stop
         id="stop3191-8"
         style="stop-color:#ffffff;stop-opacity:1"
         offset="1" />
    </linearGradient>
    <linearGradient
       x1="49.057751"
       y1="36.02602"
       x2="49.057751"
       y2="6.0722966"
       id="linearGradient3763"
       xlink:href="#linearGradient3757"
       gradientUnits="userSpaceOnUse" />
    <linearGradient
       x1="46.784908"
       y1="32.026962"
       x2="46.784908"
       y2="68.028786"
       id="linearGradient3699"
       xlink:href="#linearGradient3737"
       gradientUnits="userSpaceOnUse" />
    <linearGradient
       x1="47.868935"
       y1="91.174545"
       x2="47.868935"
       y2="5.8992176"
       id="linearGradient3707"
       xlink:href="#ButtonShadow"
       gradientUnits="userSpaceOnUse" />
    <linearGradient
       x1="46.965103"
       y1="93.415817"
       x2="46.965103"
       y2="8.3638449"
       id="linearGradient3722"
       xlink:href="#ButtonShadow"
       gradientUnits="userSpaceOnUse"
       gradientTransform="translate(-1,-1)" />
    <linearGradient
       x1="46.965103"
       y1="93.415817"
       x2="46.965103"
       y2="8.3638449"
       id="linearGradient3736"
       xlink:href="#ButtonShadow"
       gradientUnits="userSpaceOnUse"
       gradientTransform="translate(-1,-1)" />
    <linearGradient
       x1="46.965103"
       y1="93.415817"
       x2="46.965103"
       y2="8.3638449"
       id="linearGradient3752"
       xlink:href="#ButtonShadow"
       gradientUnits="userSpaceOnUse"
       gradientTransform="translate(-1,-1)" />
    <linearGradient
       x1="46.965103"
       y1="93.415817"
       x2="46.965103"
       y2="8.3638449"
       id="linearGradient3760"
       xlink:href="#ButtonShadow"
       gradientUnits="userSpaceOnUse"
       gradientTransform="translate(-1,-1)" />
    <linearGradient
       inkscape:collect="always"
       xlink:href="#linearGradient3737"
       id="linearGradient2929"
       gradientUnits="userSpaceOnUse"
       x1="36.357143"
       y1="6"
       x2="36.357143"
       y2="63.893143"
       gradientTransform="translate(0,0.171875)" />
    <linearGradient
       inkscape:collect="always"
       xlink:href="#linearGradient3737"
       id="linearGradient2933"
       gradientUnits="userSpaceOnUse"
       x1="82.08036"
       y1="82.290176"
       x2="59.611588"
       y2="59.821404" />
    <linearGradient
       inkscape:collect="always"
       xlink:href="#linearGradient3757"
       id="linearGradient2937"
       gradientUnits="userSpaceOnUse"
       x1="49.057751"
       y1="36.02602"
       x2="49.057751"
       y2="6.0722966" />
    <linearGradient
       inkscape:collect="always"
       xlink:href="#linearGradient3737"
       id="linearGradient2940"
       gradientUnits="userSpaceOnUse"
       x1="46.784908"
       y1="32.026962"
       x2="46.784908"
       y2="68.028786"
       gradientTransform="translate(0,1.9368655)" />
    <linearGradient
       inkscape:collect="always"
       xlink:href="#linearGradient3777"
       id="linearGradient2943"
       gradientUnits="userSpaceOnUse"
       gradientTransform="matrix(0.71186441,0,0,0.71186441,2.44068,2.4406782)"
       x1="38.410439"
       y1="39.834473"
       x2="112.22751"
       y2="112.16157" />
    <radialGradient
       inkscape:collect="always"
       xlink:href="#linearGradient3737"
       id="radialGradient2947"
       gradientUnits="userSpaceOnUse"
       gradientTransform="matrix(1.1573129,0,0,0.99590774,-7.551021,0.19713193)"
       cx="48"
       cy="90.171875"
       fx="48"
       fy="90.171875"
       r="42" />
    <linearGradient
       inkscape:collect="always"
       xlink:href="#ButtonColor-0"
       id="linearGradient2950"
       gradientUnits="userSpaceOnUse"
       x1="48"
       y1="90"
       x2="48"
       y2="5.9877172" />
    <linearGradient
       inkscape:collect="always"
       xlink:href="#linearGradient3737"
       id="linearGradient2954"
       gradientUnits="userSpaceOnUse"
       x1="48"
       y1="20.220806"
       x2="48"
       y2="138.66119" />
    <clipPath
       clipPathUnits="userSpaceOnUse"
       id="clipPath3780">
      <path
         style="fill:url(#linearGradient3784);fill-opacity:1;fill-rule:nonzero;stroke:none"
         id="path3782"
         inkscape:connector-curvature="0"
         d="m 62,6 c -3.324,0 -6,2.676 -6,6 l 0,0.53125 C 56,8.9207 58.9207,6 62.53125,6 L 62,6 z m 71.46875,0 C 137.0793,6 140,8.9207 140,12.53125 L 140,12 c 0,-3.324 -2.676,-6 -6,-6 l -0.53125,0 z M 140,12.53125 c 0,36.73465 -0.7142,63.286686 -5.01532,73.119476 -10.81631,5.03085 -38.505168,4.34927 -72.45343,4.34927 l 71.46875,0 c 3.324,0 6,-2.676 6,-6 L 140,12.53125 z M 62.53125,89.999996 C 58.9207,89.993996 56,87.079296 56,83.468746 l 0,0.53125 c 0,3.324 2.676,6 6,6 l 0.53125,0 z"
         sodipodi:nodetypes="ccccccccccccccccccccc" />
    </clipPath>
    <linearGradient
       inkscape:collect="always"
       xlink:href="#ButtonColor"
       id="linearGradient3784"
       gradientUnits="userSpaceOnUse"
       gradientTransform="translate(50,0)"
       x1="48"
       y1="90"
       x2="48"
       y2="5.9877172" />
    <linearGradient
       inkscape:collect="always"
       xlink:href="#ButtonShadow"
       id="linearGradient3837"
       gradientUnits="userSpaceOnUse"
       gradientTransform="translate(-1,-1)"
       x1="46.965103"
       y1="93.415817"
       x2="46.965103"
       y2="8.3638449" />
    <linearGradient
       inkscape:collect="always"
       xlink:href="#ButtonShadow"
       id="linearGradient3839"
       gradientUnits="userSpaceOnUse"
       gradientTransform="translate(-1,-1)"
       x1="46.965103"
       y1="93.415817"
       x2="46.965103"
       y2="8.3638449" />
    <linearGradient
       inkscape:collect="always"
       xlink:href="#ButtonShadow"
       id="linearGradient3841"
       gradientUnits="userSpaceOnUse"
       gradientTransform="translate(-1,-1)"
       x1="46.965103"
       y1="93.415817"
       x2="46.965103"
       y2="8.3638449" />
    <linearGradient
       inkscape:collect="always"
       xlink:href="#ButtonShadow"
       id="linearGradient3843"
       gradientUnits="userSpaceOnUse"
       gradientTransform="translate(-1,-1)"
       x1="46.965103"
       y1="93.415817"
       x2="46.965103"
       y2="8.3638449" />
    <linearGradient
       inkscape:collect="always"
       xlink:href="#ButtonShadow"
       id="linearGradient3845"
       gradientUnits="userSpaceOnUse"
       x1="47.868935"
       y1="91.174545"
       x2="47.868935"
       y2="5.8992176" />
    <linearGradient
       inkscape:collect="always"
       xlink:href="#ButtonColor-0"
       id="linearGradient3847"
       gradientUnits="userSpaceOnUse"
       x1="48"
       y1="90"
       x2="48"
       y2="5.9877172" />
    <radialGradient
       inkscape:collect="always"
       xlink:href="#linearGradient3737"
       id="radialGradient3849"
       gradientUnits="userSpaceOnUse"
       gradientTransform="matrix(1.1573129,0,0,0.99590774,-7.551021,0.19713193)"
       cx="48"
       cy="90.171875"
       fx="48"
       fy="90.171875"
       r="42" />
    <linearGradient
       inkscape:collect="always"
       xlink:href="#linearGradient3777"
       id="linearGradient3851"
       gradientUnits="userSpaceOnUse"
       gradientTransform="matrix(0.71186441,0,0,0.71186441,2.44068,2.4406782)"
       x1="38.410439"
       y1="39.834473"
       x2="112.22751"
       y2="112.16157" />
    <linearGradient
       inkscape:collect="always"
       xlink:href="#linearGradient3737"
       id="linearGradient3853"
       gradientUnits="userSpaceOnUse"
       gradientTransform="translate(0,1.9368655)"
       x1="46.784908"
       y1="32.026962"
       x2="46.784908"
       y2="68.028786" />
    <linearGradient
       inkscape:collect="always"
       xlink:href="#linearGradient3757"
       id="linearGradient3855"
       gradientUnits="userSpaceOnUse"
       x1="49.057751"
       y1="36.02602"
       x2="49.057751"
       y2="6.0722966" />
    <linearGradient
       inkscape:collect="always"
       xlink:href="#linearGradient3737"
       id="linearGradient3857"
       gradientUnits="userSpaceOnUse"
       x1="82.08036"
       y1="82.290176"
       x2="59.611588"
       y2="59.821404" />
    <linearGradient
       inkscape:collect="always"
       xlink:href="#linearGradient3737"
       id="linearGradient3859"
       gradientUnits="userSpaceOnUse"
       gradientTransform="translate(0,0.171875)"
       x1="36.357143"
       y1="6"
       x2="36.357143"
       y2="63.893143" />
    <linearGradient
       inkscape:collect="always"
       xlink:href="#linearGradient3737"
       id="linearGradient3861"
       gradientUnits="userSpaceOnUse"
       x1="48"
       y1="20.220806"
       x2="48"
       y2="138.66119" />
    <linearGradient
       inkscape:collect="always"
       xlink:href="#linearGradient3737"
       id="linearGradient3875"
       gradientUnits="userSpaceOnUse"
       gradientTransform="matrix(1.0442296,0,0,1.0442296,-2.1399961,-3.5098882)"
       x1="36.357143"
       y1="6"
       x2="36.357143"
       y2="63.893143" />
    <linearGradient
       inkscape:collect="always"
       xlink:href="#linearGradient3737"
       id="linearGradient3879"
       gradientUnits="userSpaceOnUse"
       x1="82.08036"
       y1="82.290176"
       x2="59.611588"
       y2="59.821404"
       gradientTransform="matrix(1.0442296,0,0,1.0442296,-2.1399961,-3.6893652)" />
    <linearGradient
       inkscape:collect="always"
       xlink:href="#linearGradient3757"
       id="linearGradient3882"
       gradientUnits="userSpaceOnUse"
       x1="49.057751"
       y1="36.02602"
       x2="49.057751"
       y2="6.0722966"
       gradientTransform="matrix(1.0442296,0,0,1.0442296,-2.1399961,-3.6893652)" />
    <linearGradient
       inkscape:collect="always"
       xlink:href="#linearGradient3737"
       id="linearGradient3885"
       gradientUnits="userSpaceOnUse"
       gradientTransform="matrix(1.0442296,0,0,1.0442296,-2.1399961,-1.6668329)"
       x1="46.784908"
       y1="32.026962"
       x2="46.784908"
       y2="68.028786" />
    <linearGradient
       inkscape:collect="always"
       xlink:href="#linearGradient3777"
       id="linearGradient3888"
       gradientUnits="userSpaceOnUse"
       gradientTransform="matrix(0.74334989,0,0,0.74334989,0.4086342,-1.1407368)"
       x1="38.410439"
       y1="39.834473"
       x2="112.22751"
       y2="112.16157" />
    <radialGradient
       inkscape:collect="always"
       xlink:href="#linearGradient3737"
       id="radialGradient3892"
       gradientUnits="userSpaceOnUse"
       gradientTransform="matrix(1.2085004,0,0,1.0399563,-10.024996,-3.4835142)"
       cx="48"
       cy="90.171875"
       fx="48"
       fy="90.171875"
       r="42" />
    <linearGradient
       inkscape:collect="always"
       xlink:href="#ButtonColor-0"
       id="linearGradient3895"
       gradientUnits="userSpaceOnUse"
       x1="48"
       y1="90"
       x2="48"
       y2="5.9877172"
       gradientTransform="matrix(1.0442296,0,0,1.0442296,-2.1399961,-3.6893652)" />
  </defs>
  <metadata
     id="metadata2413">
    <rdf:RDF>
      <cc:Work
         rdf:about="">
        <dc:format>image/svg+xml</dc:format>
        <dc:type
           rdf:resource="http://purl.org/dc/dcmitype/StillImage" />
        <dc:title></dc:title>
      </cc:Work>
    </rdf:RDF>
  </metadata>
  <g
     id="layer2"
     style="display:none">
    <path
       d="M 11,7 C 7.676,7 5,9.676 5,13 l 0,73 c 0,3.324 2.676,6 6,6 l 74,0 c 3.324,0 6,-2.676 6,-6 L 91,13 C 91,9.676 88.324,7 85,7 l -15,0 0,2.5625 c 1.19379,0.692085 2,1.958291 2,3.4375 0,2.209139 -1.79086,4 -4,4 -2.20914,0 -4,-1.790861 -4,-4 0,-1.479209 0.80621,-2.745415 2,-3.4375 L 66,7 30,7 30,9.5625 c 1.19379,0.692085 2,1.958291 2,3.4375 0,2.209139 -1.79086,4 -4,4 -2.20914,0 -4,-1.790861 -4,-4 0,-1.479209 0.80621,-2.745415 2,-3.4375 L 26,7 11,7 z"
       inkscape:connector-curvature="0"
       id="rect3745"
       style="opacity:0.9;fill:url(#ButtonShadow);fill-opacity:1;fill-rule:nonzero;stroke:none;filter:url(#filter3174)" />
  </g>
  <g
     id="g3683"
     transform="translate(0,4)" />
  <g
     id="layer3"
     style="display:inline"
     transform="matrix(1.0442296,0,0,1.0442296,-2.1399961,-3.6893652)">
    <path
       d="M 12,4.09375 C 5.958559,3.9197191 1.4013336,9.7548505 2.125,15.53125 l -0.03125,0 c 0.0309,23.462972 -0.077155,46.904914 0.03125,70.375 a 0.89898646,0.89898646 0 0 0 0,0.0625 c 0.4135931,5.805998 6.1890583,9.610267 11.65625,8.9375 0.04186,-0.0052 0.08318,0.0057 0.125,0 23.670234,-0.03037 47.322706,0.07697 71,-0.03125 a 0.89898646,0.89898646 0 0 0 0.0625,0 c 5.805997,-0.413599 9.610267,-6.189058 8.9375,-11.65625 -0.0052,-0.04186 0.0057,-0.08318 0,-0.125 -0.03035,-23.336851 0.07696,-46.655962 -0.03125,-70 a 0.89898646,0.89898646 0 0 0 0,-0.0625 C 93.461407,7.2252516 87.685942,3.4209829 82.21875,4.09375 c -0.04121,6.156e-4 -0.08378,-5.689e-4 -0.125,0 C 77.816605,4.1527751 73.471998,3.9644816 69.125,4.1875 A 0.89898646,0.89898646 0 0 0 68.5,4.5 C 68.258195,4.7716239 68.114165,4.8160828 68.125,4.8125 67.945266,4.7390723 67.326189,4.2742446 66.375,4.125 A 0.89898646,0.89898646 0 0 0 66.25,4.09375 C 53.952869,4.1146989 41.647271,4.0518794 29.34375,4.125 a 0.89898646,0.89898646 0 0 0 -0.5625,0.21875 C 28.488372,4.5801621 28.293078,4.7029151 28.1875,4.75 28.081922,4.7970849 28.092979,4.7854347 28.0625,4.78125 28.001543,4.7728806 27.606489,4.5517268 26.875,4.1875 A 0.89898646,0.89898646 0 0 0 26.46875,4.09375 l -14.4375,0 -0.03125,0 z m 16.09375,8.6875 c 0.226923,0.244044 0.358574,0.498158 0.375,0.75 0.02604,0.39918 -0.161138,0.861966 -0.40625,1.125 -0.114331,0.12269 -0.223886,0.196155 -0.28125,0.21875 0.02231,0.0073 -0.27871,-0.3392 -0.3125,-1.40625 0.01928,-0.126056 0.06772,-0.162919 0.3125,-0.375 0.07441,-0.06447 0.212783,-0.230306 0.3125,-0.3125 z m 40,0 c 0.226923,0.244044 0.358574,0.498158 0.375,0.75 0.02604,0.39918 -0.161138,0.861966 -0.40625,1.125 -0.114331,0.12269 -0.223886,0.196155 -0.28125,0.21875 0.02232,0.0073 -0.27871,-0.3392 -0.3125,-1.40625 0.01928,-0.126056 0.06772,-0.162919 0.3125,-0.375 0.07441,-0.06447 0.212783,-0.230306 0.3125,-0.3125 z"
       id="path3758"
       style="opacity:0.07999998;fill:url(#linearGradient3837);fill-opacity:1;fill-rule:nonzero;stroke:none" />
    <path
       d="M 12,5 C 6.5057413,4.8226625 2.2688151,10.242553 3,15.51889 3.0309044,38.985409 2.9381256,62.455054 3.0465048,85.919616 3.4221938,91.193519 8.7597,94.680368 13.772038,94 37.487508,93.96909 61.206104,94.06189 84.919616,93.9535 90.193519,93.577806 93.680368,88.2403 93,83.227962 92.969096,59.845825 93.061873,36.460563 92.953495,13.080384 92.577806,7.806481 87.2403,4.3196317 82.227962,5 77.875336,5.0650149 73.487523,4.8715384 69.15625,5.09375 67.963875,6.4331658 67.682915,5.2248289 66.25,5 53.948789,5.0209559 41.640647,4.9581688 29.34375,5.03125 28.049941,6.0756153 27.841446,5.6834995 26.46875,5 21.645833,5 16.822917,5 12,5 z m 16,6.5625 c 3.752455,2.026235 -1.381779,7.249395 -1.430983,1.851426 C 26.677832,12.5193 27.639226,12.271287 28,11.5625 z m 40,0 c 3.752455,2.026235 -1.381779,7.249395 -1.430983,1.851426 C 66.677832,12.5193 67.639226,12.271287 68,11.5625 z"
       inkscape:connector-curvature="0"
       id="path3744"
       style="opacity:0.1;fill:url(#linearGradient3839);fill-opacity:1;fill-rule:nonzero;stroke:none" />
    <path
       d="M 12,5.96875 C 7.5628051,5.96875 3.96875,9.5628051 3.96875,14 l 0,71 c 0,4.437195 3.5940551,8.03125 8.03125,8.03125 l 72,0 c 4.437195,0 8.03125,-3.594055 8.03125,-8.03125 l 0,-71 C 92.03125,9.5628051 88.437195,5.96875 84,5.96875 l -14.25,0 A 1.0420122,1.0420122 0 0 0 68.71875,7 l 0,3.5625 a 1.0420122,1.0420122 0 0 0 0.46875,0.875 c 0.737994,0.488062 1.28125,1.413642 1.28125,2.5625 0,1.717559 -1.174525,2.96875 -2.46875,2.96875 -1.294225,0 -2.46875,-1.251191 -2.46875,-2.96875 0,-1.148858 0.543256,-2.074438 1.28125,-2.5625 a 1.0420122,1.0420122 0 0 0 0.46875,-0.875 l 0,-3.5625 A 1.0420122,1.0420122 0 0 0 66.25,5.96875 l -36.5,0 A 1.0420122,1.0420122 0 0 0 28.71875,7 l 0,3.5625 a 1.0420122,1.0420122 0 0 0 0.46875,0.875 c 0.737994,0.488062 1.28125,1.413642 1.28125,2.5625 0,1.717559 -1.174525,2.96875 -2.46875,2.96875 -1.294225,0 -2.46875,-1.251191 -2.46875,-2.96875 0,-1.148858 0.543256,-2.074438 1.28125,-2.5625 a 1.0420122,1.0420122 0 0 0 0.46875,-0.875 l 0,-3.5625 A 1.0420122,1.0420122 0 0 0 26.25,5.96875 l -14.25,0 z"
       inkscape:connector-curvature="0"
       id="path3734"
       style="opacity:0.2;fill:url(#linearGradient3841);fill-opacity:1;fill-rule:nonzero;stroke:none" />
    <path
       d="M 12,7 C 8.122,7 5,10.122 5,14 l 0,71 c 0,3.878 3.122,7 7,7 l 72,0 c 3.878,0 7,-3.122 7,-7 L 91,14 C 91,10.122 87.878,7 84,7 l -14.25,0 0,3.5625 c 1.046496,0.692085 1.75,1.958291 1.75,3.4375 0,2.209139 -1.563432,4 -3.5,4 -1.936568,0 -3.5,-1.790861 -3.5,-4 0,-1.479209 0.703504,-2.745415 1.75,-3.4375 l 0,-3.5625 -36.5,0 0,3.5625 c 1.046496,0.692085 1.75,1.958291 1.75,3.4375 0,2.209139 -1.563432,4 -3.5,4 -1.936568,0 -3.5,-1.790861 -3.5,-4 0,-1.479209 0.703504,-2.745415 1.75,-3.4375 L 26.25,7 12,7 z"
       inkscape:connector-curvature="0"
       id="rect3713"
       style="opacity:0.3;fill:url(#linearGradient3843);fill-opacity:1;fill-rule:nonzero;stroke:none" />
    <path
       d="M 12,7 C 8.676,7 6,9.676 6,13 l 0,72 c 0,3.324 2.676,6 6,6 l 72,0 c 3.324,0 6,-2.676 6,-6 L 90,13 C 90,9.676 87.324,7 84,7 l -14,0 0,2.5625 c 1.193791,0.692085 2,1.958291 2,3.4375 0,2.209139 -1.790861,4 -4,4 -2.209139,0 -4,-1.790861 -4,-4 0,-1.479209 0.806209,-2.745415 2,-3.4375 L 66,7 30,7 30,9.5625 c 1.193791,0.692085 2,1.958291 2,3.4375 0,2.209139 -1.790861,4 -4,4 -2.209139,0 -4,-1.790861 -4,-4 0,-1.479209 0.806209,-2.745415 2,-3.4375 L 26,7 12,7 z"
       inkscape:connector-curvature="0"
       id="path3693"
       style="opacity:0.45;fill:url(#linearGradient3845);fill-opacity:1;fill-rule:nonzero;stroke:none" />
  </g>
  <path
     style="fill:url(#linearGradient3895);fill-opacity:1;fill-rule:nonzero;stroke:none"
     id="rect2419"
     inkscape:connector-curvature="0"
     d="m 10.390759,2.5760124 c -3.4710191,0 -6.2653775,2.7943584 -6.2653775,6.2653776 l 0,75.184531 c 0,3.471019 2.7943584,6.265378 6.2653775,6.265378 l 75.184531,0 c 3.471019,0 6.265378,-2.794359 6.265378,-6.265378 l 0,-75.184531 c 0,-3.4710192 -2.794359,-6.2653776 -6.265378,-6.2653776 l -14.619214,0 0,2.6758383 c 1.246592,0.7226958 2.088459,2.0449055 2.088459,3.5895393 0,2.306848 -1.87007,4.176918 -4.176918,4.176918 -2.306849,0 -4.176919,-1.87007 -4.176919,-4.176918 0,-1.5446338 0.841868,-2.8668435 2.088459,-3.5895393 l 0,-2.6758383 -37.592265,0 0,2.6758383 c 1.246592,0.7226958 2.088459,2.0449055 2.088459,3.5895393 0,2.306848 -1.87007,4.176918 -4.176918,4.176918 -2.306849,0 -4.176919,-1.87007 -4.176919,-4.176918 0,-1.5446338 0.841868,-2.8668435 2.088459,-3.5895393 l 0,-2.6758383 -14.619214,0 z" />
  <path
     style="opacity:0.2;fill:url(#radialGradient3892);fill-opacity:1;fill-rule:nonzero;stroke:none"
     id="path3615"
     inkscape:connector-curvature="0"
     d="m 10.390759,90.291299 c -3.4710191,0 -6.2653775,-2.794359 -6.2653775,-6.265378 l 0,-2.088459 0,-71.007613 0,-2.088459 c 0,-0.3495256 0.043179,-0.6794802 0.097897,-1.0115974 C 4.274132,7.5211225 4.3246101,7.2064763 4.4190711,6.9160917 4.4293881,6.884368 4.4408871,6.8496787 4.4517032,6.8181951 4.554941,6.5176962 4.6969721,6.2465296 4.8432893,5.9697586 4.9942764,5.6841545 5.172865,5.4104536 5.3654041,5.1539542 5.5579433,4.8974549 5.7557126,4.6595407 5.9854155,4.4360464 6.4448212,3.9890576 6.97003,3.5854942 7.5517599,3.2939202 7.8426248,3.1481333 8.1505975,3.0360509 8.4654608,2.9349663 c -0.2675335,0.1046548 -0.508238,0.2467222 -0.75054,0.3915861 -0.00774,0.00459 -0.024922,-0.0047 -0.032632,0 -0.033345,0.020154 -0.065048,0.04439 -0.097897,0.065264 C 7.458672,3.4719092 7.3431514,3.5625619 7.2254381,3.6528742 7.1145693,3.7372479 7.0027239,3.8211121 6.8991164,3.9139316 6.7133167,4.0825047 6.5362888,4.2745959 6.3770016,4.4686785 6.2646645,4.6046947 6.1489482,4.745697 6.0506798,4.8928968 6.0244811,4.9329744 6.0105334,4.9825648 5.9854155,5.0234255 5.917788,5.1310146 5.8494281,5.2369882 5.7896224,5.3497473 5.6841466,5.553065 5.5748507,5.7838346 5.4959329,6.0023908 c -0.00831,0.022775 -0.024632,0.042344 -0.032632,0.065264 -0.033233,0.096017 -0.037388,0.1950945 -0.065264,0.2936896 -0.031674,0.1113337 -0.073503,0.212011 -0.097897,0.3263217 -0.076102,0.356617 -0.1305287,0.7290864 -0.1305287,1.109494 l 0,2.0884592 0,71.0076124 0,2.08846 c 0,2.904888 2.3162597,5.221148 5.2211479,5.221148 l 2.088459,0 71.007613,0 2.088459,0 c 2.904888,0 5.221148,-2.31626 5.221148,-5.221148 l 0,-2.08846 0,-71.0076124 0,-2.0884592 c 0,-0.3804076 -0.05442,-0.752877 -0.130528,-1.109494 -0.0461,-0.2160437 -0.09229,-0.4152462 -0.163161,-0.6200113 -0.008,-0.022921 -0.02433,-0.04249 -0.03263,-0.065264 C 90.404602,5.8209674 90.325613,5.6186897 90.241691,5.4476438 90.198272,5.3611816 90.159155,5.2701728 90.111163,5.1865864 90.054148,5.0850768 89.978781,4.9899058 89.91537,4.8928968 89.817097,4.745697 89.701385,4.6046947 89.589048,4.4686785 89.439541,4.2865127 89.272499,4.106333 89.099565,3.9465638 c -0.01166,-0.010651 -0.02086,-0.022085 -0.03263,-0.032632 -0.144507,-0.1311093 -0.2977,-0.244805 -0.45685,-0.358954 -0.107108,-0.076385 -0.213355,-0.1601472 -0.326322,-0.2284252 -0.0077,-0.0047 -0.0249,0.00459 -0.03263,0 -0.242302,-0.1448639 -0.483007,-0.2869313 -0.75054,-0.3915861 0.314863,0.1010815 0.622836,0.213167 0.913701,0.3589539 0.581729,0.291574 1.106938,0.6951374 1.566344,1.1421262 0.229702,0.2234943 0.427472,0.4614085 0.620011,0.7179078 0.192539,0.2564994 0.371128,0.5302003 0.522115,0.8158044 0.146318,0.276771 0.288348,0.5479376 0.391586,0.8484365 0.01087,0.032141 0.02227,0.065515 0.03263,0.097897 0.09446,0.2903846 0.144939,0.6050308 0.195793,0.9137009 0.05472,0.3321172 0.0979,0.6620718 0.0979,1.0115974 l 0,2.088459 0,71.007613 0,2.088459 c 0,3.471019 -2.794359,6.265378 -6.265378,6.265378 l -75.184531,0 z" />
  <path
     style="opacity:0.5;fill:#4d4d4d;fill-opacity:1;stroke:none;display:inline;filter:url(#filter3810)"
     id="path3785"
     clip-path="url(#clipPath3780)"
     transform="matrix(1.0442296,0,0,1.0442296,-54.351476,-3.7055376)"
     inkscape:connector-curvature="0"
     d="M 62.51724,6 C 58.90669,6 56,8.90669 56,12.517241 l 0,70.965519 c 0,3.610548 2.90669,6.511737 6.51724,6.51724 33.948262,0 61.6877,0.339925 73.93258,-3.619491 C 139.67951,76.36915 140,49.251888 140,12.517241 140,8.90669 137.09331,6 133.48276,6 L 62.51724,6 z"
     sodipodi:nodetypes="cccccscc" />
  <path
     style="opacity:0.8;fill:url(#linearGradient3888);fill-opacity:1;stroke:none;display:inline"
     id="path3177"
     inkscape:connector-curvature="0"
     d="m 10.945505,2.5760123 c -3.7702432,0 -6.8201235,3.0498803 -6.8201235,6.8201236 l 0,74.0750381 c 0,3.770241 3.0498814,6.814378 6.8201245,6.820125 35.44978,0 64.298093,-1.269586 75.592816,-6.522943 4.491346,-10.267689 5.302346,-36.012813 5.302346,-74.3722201 0,-3.7702433 -3.04988,-6.8201236 -6.820125,-6.8201236 l -14.064467,0 0,2.6758383 c 1.246592,0.7226958 2.088459,2.0449056 2.088459,3.5895384 0,2.306848 -1.870068,4.176919 -4.176918,4.176919 -2.306849,0 -4.176919,-1.870071 -4.176919,-4.176919 0,-1.5446328 0.841867,-2.8668426 2.088459,-3.5895384 l 0,-2.6758383 -37.592265,0 0,2.6758383 c 1.246592,0.7226958 2.088459,2.0449056 2.088459,3.5895384 0,2.306848 -1.87007,4.176919 -4.176918,4.176919 -2.306849,0 -4.176919,-1.870071 -4.176919,-4.176919 0,-1.5446328 0.841868,-2.8668426 2.088459,-3.5895384 l 0,-2.6758383 -14.064467,0 z"
     sodipodi:nodetypes="cccccscccsssccccsssccc" />
  <path
     style="opacity:0.8;fill:url(#linearGradient3885);fill-opacity:1;stroke:none"
     id="rect2918"
     inkscape:connector-curvature="0"
     d="m 4.1253815,23.394677 87.7152865,0 c 0,0 -0.527415,24.058356 -4.219325,46.077957 l -83.4959615,-0.131855 0,-45.946102 z"
     sodipodi:nodetypes="ccccc" />
  <path
     style="fill:url(#linearGradient3882);fill-opacity:1;fill-rule:nonzero;stroke:none"
     id="rect3839"
     inkscape:connector-curvature="0"
     d="m 10.390759,2.5760124 c -3.4710191,0 -6.2653775,2.7943584 -6.2653775,6.2653776 l 0,12.530755 87.7152865,0 0,-12.530755 c 0,-3.4710192 -2.794359,-6.2653776 -6.265378,-6.2653776 l -14.619214,0 0,2.6758383 c 1.246592,0.7226958 2.088459,2.0449055 2.088459,3.5895393 0,2.306848 -1.87007,4.176918 -4.176918,4.176918 -2.306849,0 -4.176919,-1.87007 -4.176919,-4.176918 0,-1.5446338 0.841868,-2.8668435 2.088459,-3.5895393 l 0,-2.6758383 -37.592265,0 0,2.6758383 c 1.246592,0.7226958 2.088459,2.0449055 2.088459,3.5895393 0,2.306848 -1.87007,4.176918 -4.176918,4.176918 -2.306849,0 -4.176919,-1.87007 -4.176919,-4.176918 0,-1.5446338 0.841868,-2.8668435 2.088459,-3.5895393 l 0,-2.6758383 -14.619214,0 z"
     sodipodi:nodetypes="ccccccccsssccccsssccc" />
  <path
     style="opacity:0.5;fill:url(#linearGradient3879);fill-opacity:1;stroke:none;display:inline"
     id="path3814"
     inkscape:connector-curvature="0"
     d="m 89.295358,4.0770924 c 0.934623,1.1649736 1.50108,2.6583228 1.50108,4.274815 0,38.3594056 1.637985,67.1749776 -2.853364,77.4426666 -11.294717,5.253357 -42.592017,3.452495 -78.0417975,3.452495 -1.6164918,-0.0025 -3.1098416,-0.566859 -4.274815,-1.50108 1.2452562,1.551161 3.1652928,2.542027 5.3190445,2.54531 35.44978,0 66.747081,1.800861 78.041797,-3.452496 4.49135,-10.267688 2.853365,-39.08326 2.853365,-77.442666 0,-2.1537518 -0.993144,-4.0737883 -2.54531,-5.3190446 z"
     sodipodi:nodetypes="cscccccsc" />
  <path
     style="opacity:0.1;fill:#000000;fill-opacity:1;stroke:none;display:inline"
     id="path3831"
     inkscape:connector-curvature="0"
     d="m 91.808036,16.444687 c -0.423216,34.306596 0.210821,59.06316 -3.998458,68.685988 -10.588791,4.925023 -38.231378,4.820178 -70.337637,5.127992 32.230314,-0.10434 61.258865,1.652906 71.838717,-3.267958 4.210647,-9.625958 2.239923,-36.015426 2.497378,-70.546022 z"
     sodipodi:nodetypes="ccccc" />
  <path
     style="opacity:0.4;fill:url(#linearGradient3875);fill-opacity:1;fill-rule:nonzero;stroke:none"
     id="rect3728"
     inkscape:connector-curvature="0"
     d="m 10.390759,2.7554894 c -3.4710191,0 -6.2653775,2.7943584 -6.2653775,6.2653776 l 0,2.088459 0,71.007613 0,2.088459 c 0,0.349526 0.043179,0.67948 0.097897,1.011598 0.050854,0.30867 0.1013321,0.623316 0.1957931,0.9137 0.010338,0.03172 0.021814,0.06641 0.032632,0.0979 0.1032326,0.300499 0.2452687,0.571666 0.3915861,0.848437 0.1509873,0.285604 0.3295756,0.559305 0.5221148,0.815804 0.1925393,0.256499 0.390308,0.494413 0.6200114,0.717908 0.4594057,0.446989 0.9846145,0.850552 1.5663444,1.142126 0.2908649,0.145787 0.5988375,0.257869 0.9137009,0.358954 -0.2675337,-0.104655 -0.5082381,-0.246722 -0.75054,-0.391586 -0.00773,-0.0046 -0.024926,0.0047 -0.032632,0 -0.033342,-0.02015 -0.065045,-0.04439 -0.097897,-0.06526 C 7.458672,89.574879 7.343151,89.484226 7.2254381,89.393914 7.1145691,89.30954 7.0027238,89.225676 6.8991164,89.132857 6.7133166,88.964283 6.5362884,88.772192 6.3770016,88.57811 6.2646644,88.442093 6.1489481,88.301091 6.0506798,88.153891 6.0244801,88.113814 6.0105292,88.064223 5.9854155,88.023363 5.9177912,87.915774 5.8494275,87.8098 5.7896224,87.697041 5.6841469,87.493723 5.5748505,87.262954 5.4959329,87.044397 c -0.00835,-0.02277 -0.024633,-0.04234 -0.032632,-0.06526 -0.033238,-0.09602 -0.037383,-0.195094 -0.065264,-0.29369 C 5.3663628,86.57411 5.324534,86.473432 5.3001398,86.359122 5.2240374,86.002505 5.1696111,85.630035 5.1696111,85.249628 l 0,-2.088459 0,-71.007613 0,-2.088459 c 0,-2.9048885 2.31626,-5.2211484 5.2211479,-5.2211484 l 2.088459,0 12.530755,0 0,-2.0884592 -14.619214,0 z m 18.796133,0 0,2.0884592 37.592265,0 0,-2.0884592 -37.592265,0 z m 41.769184,0 0,2.0884592 12.530755,0 2.088459,0 c 2.904888,0 5.221148,2.3162599 5.221148,5.2211484 l 0,2.088459 0,71.007613 0,2.088459 c 0,0.380407 -0.05442,0.752877 -0.130528,1.109494 -0.0461,0.216044 -0.09229,0.415246 -0.163161,0.620011 -0.008,0.02292 -0.02433,0.04249 -0.03263,0.06526 -0.06552,0.181424 -0.144504,0.383702 -0.228426,0.554747 -0.04342,0.08646 -0.08254,0.177471 -0.130528,0.261058 -0.05702,0.101509 -0.132382,0.19668 -0.195793,0.293689 -0.09827,0.1472 -0.213985,0.288202 -0.326322,0.424219 -0.149507,0.182165 -0.316549,0.362345 -0.489483,0.522114 -0.01166,0.01065 -0.02086,0.02209 -0.03263,0.03263 -0.144507,0.131109 -0.2977,0.244805 -0.45685,0.358954 -0.107108,0.07639 -0.213355,0.160147 -0.326322,0.228425 -0.0077,0.0047 -0.0249,-0.0046 -0.03263,0 -0.242302,0.144864 -0.483007,0.286931 -0.75054,0.391586 0.314863,-0.101082 0.622836,-0.213167 0.913701,-0.358954 0.581729,-0.291574 1.106938,-0.695137 1.566344,-1.142126 0.229702,-0.223495 0.427472,-0.461409 0.620011,-0.717908 0.192539,-0.256499 0.371128,-0.5302 0.522115,-0.815804 0.146318,-0.276771 0.288348,-0.547938 0.391586,-0.848437 0.01087,-0.03214 0.02227,-0.06552 0.03263,-0.0979 0.09446,-0.290384 0.144939,-0.60503 0.195793,-0.9137 0.05472,-0.332118 0.0979,-0.662072 0.0979,-1.011598 l 0,-2.088459 0,-71.007613 0,-2.088459 c 0,-3.4710192 -2.794359,-6.2653776 -6.265378,-6.2653776 l -14.619214,0 z" />
  <g
     id="g3767"
     transform="matrix(1.2303903,0,0,1.3322872,-16.073657,-6.9215903)">
    <path
       style="font-size:4px;font-style:normal;font-variant:normal;font-weight:normal;font-stretch:normal;text-align:center;line-height:120.00000477%;writing-mode:lr-tb;text-anchor:middle;fill:#000000;fill-opacity:1;stroke:none;font-family:Sans;-inkscape-font-specification:Sans"
       id="text2434"
       inkscape:connector-curvature="0"
       d="m 23.333489,35.405158 c 0.28962,0.0625 0.51535,0.192583 0.677151,0.390201 0.163784,0.197617 0.245676,0.441616 0.245676,0.731993 0,0.445647 -0.151791,0.790473 -0.455426,1.034468 -0.303626,0.244012 -0.735079,0.365996 -1.294377,0.365996 -0.187769,0 -0.381535,-0.01926 -0.58127,-0.05747 -0.197749,-0.03633 -0.4025,-0.09174 -0.614229,-0.166366 l 0,-0.589828 c 0.167767,0.09879 0.351553,0.173413 0.551311,0.223835 0.199762,0.05042 0.408496,0.07563 0.626212,0.07563 0.379521,0 0.668161,-0.07563 0.865913,-0.226855 0.199762,-0.151265 0.299643,-0.37103 0.299643,-0.659398 0,-0.266159 -0.09288,-0.473878 -0.278633,-0.6231 -0.183787,-0.151222 -0.440453,-0.226855 -0.770033,-0.226855 l -0.521346,0 0,-0.502109 0.545314,0 c 0.297629,4e-6 0.525337,-0.05948 0.683142,-0.178447 0.157788,-0.120977 0.236703,-0.29439 0.236703,-0.52026 -4e-6,-0.231889 -0.08189,-0.409328 -0.245675,-0.532363 -0.161815,-0.125004 -0.394491,-0.187506 -0.698125,-0.18755 -0.165797,4e-6 -0.343587,0.01795 -0.533335,0.05445 -0.189738,0.03633 -0.398517,0.09275 -0.626212,0.169387 l 0,-0.544461 c 0.2297,-0.06452 0.44444,-0.112924 0.644193,-0.145182 0.201731,-0.03239 0.391514,-0.04841 0.569286,-0.04841 0.459417,4e-6 0.822963,0.105877 1.090628,0.317588 0.267648,0.209741 0.401493,0.494047 0.401493,0.852984 -4e-6,0.250052 -0.07091,0.461785 -0.212717,0.635202 -0.141812,0.1714 -0.343587,0.290364 -0.605238,0.356937 m -3.682381,9.354395 0.98876,0 0,-3.445209 -1.07565,0.217795 0,-0.556558 1.069658,-0.217795 0.605243,0 0,4.001767 0.98876,0 0,0.514212 -2.576771,0 0,-0.514212 m 5.096606,-3.599473 c -0.311592,5e-6 -0.546316,0.155293 -0.704117,0.465816 -0.155817,0.308528 -0.233726,0.773334 -0.233726,1.394416 -5e-6,0.619074 0.07791,1.083879 0.233726,1.39442 0.157788,0.308528 0.392521,0.462788 0.704117,0.462788 0.313605,0 0.548308,-0.154243 0.704117,-0.462788 0.157787,-0.310541 0.236703,-0.775346 0.236703,-1.39442 -5e-6,-0.621082 -0.07892,-1.085888 -0.236703,-1.394416 -0.155818,-0.310541 -0.390507,-0.465811 -0.704117,-0.465816 m 0,-0.483963 c 0.501366,5e-6 0.883889,0.200638 1.147558,0.601929 0.265678,0.399262 0.398474,0.980028 0.398517,1.742266 -4e-6,0.760229 -0.132839,1.340982 -0.398517,1.742266 -0.263664,0.399261 -0.646192,0.598904 -1.147558,0.598904 -0.501374,0 -0.884892,-0.19963 -1.150556,-0.598904 -0.263665,-0.401275 -0.395497,-0.982037 -0.395497,-1.742266 0,-0.762238 0.131832,-1.342991 0.395497,-1.742266 0.265678,-0.401274 0.649182,-0.601924 1.150556,-0.601929 m -5.096606,11.517102 0.98876,0 0,-3.445209 -1.07565,0.217795 0,-0.556554 1.069658,-0.217794 0.605243,0 0,4.001767 0.98876,0 0,0.514212 -2.576771,0 0,-0.514212 m 3.649422,-4.001767 2.876392,0 0,0.260119 -1.623963,4.255846 -0.632208,0 1.528082,-4.001767 -2.148303,0 0,-0.514212 m -3.232942,11.435434 2.11235,0 0,0.514212 -2.840439,0 0,-0.514212 c 0.2297,-0.239986 0.54232,-0.561596 0.937826,-0.964901 0.39751,-0.405302 0.647186,-0.666454 0.749059,-0.783414 0.193765,-0.219808 0.328574,-0.405301 0.404469,-0.556558 0.07791,-0.153279 0.116864,-0.303494 0.116864,-0.450689 -5e-6,-0.239942 -0.0839,-0.435546 -0.251672,-0.586803 -0.165797,-0.151222 -0.382542,-0.226855 -0.650185,-0.226855 -0.189782,4e-6 -0.390507,0.03327 -0.602244,0.09979 -0.209741,0.06657 -0.434452,0.167373 -0.674153,0.302488 l 0,-0.617051 c 0.243706,-0.09879 0.471406,-0.173413 0.683143,-0.223835 0.211755,-0.05042 0.405476,-0.07563 0.58127,-0.07563 0.463414,5e-6 0.832951,0.116951 1.108608,0.350853 0.275658,0.233901 0.413486,0.546478 0.413486,0.937677 -4e-6,0.185537 -0.03502,0.36197 -0.10487,0.529338 -0.06793,0.165359 -0.192759,0.360963 -0.374532,0.586803 -0.04994,0.05848 -0.208734,0.227861 -0.476404,0.508158 -0.267647,0.278283 -0.64519,0.668476 -1.132576,1.170585 m 5.048661,-3.469404 -1.528082,2.410736 1.528082,0 0,-2.410736 m -0.158794,-0.532359 0.761043,0 0,2.943095 0.638201,0 0,0.508163 -0.638201,0 0,1.064717 -0.602244,0 0,-1.064717 -2.019464,0 0,-0.589831 1.860665,-2.861427" />
    <path
       style="font-size:4px;font-style:normal;font-variant:normal;font-weight:normal;font-stretch:normal;text-align:center;line-height:120.00000477%;writing-mode:lr-tb;text-anchor:middle;fill:#000000;fill-opacity:1;stroke:none;font-family:Sans;-inkscape-font-specification:Sans"
       id="text2446"
       inkscape:connector-curvature="0"
       d="m 32.94164,33.768761 -1.528082,2.410736 1.528082,0 0,-2.410736 m -0.158794,-0.532359 0.761043,0 0,2.943095 0.6382,0 0,0.508163 -0.6382,0 0,1.064717 -0.602245,0 0,-1.064717 -2.019463,0 0,-0.589831 1.860665,-2.861427 m -3.352795,11.435429 0.98876,0 0,-3.445209 -1.075651,0.217795 0,-0.556558 1.069659,-0.217795 0.605238,0 0,4.001763 0.98876,0 0,0.514212 -2.576766,0 0,-0.514212 m 3.907099,0 0.988756,0 0,-3.445209 -1.075651,0.217795 0,-0.556559 1.069659,-0.217794 0.605242,0 0,4.001763 0.988756,0 0,0.514211 -2.576762,0 0,-0.514211 m -3.907099,7.43367 0.98876,0 0,-3.445213 -1.075651,0.217795 0,-0.556559 1.069659,-0.217794 0.605238,0 0,4.001767 0.98876,0 0,0.514207 -2.576766,0 0,-0.514207 m 5.096606,-1.630353 c -0.287651,5e-6 -0.514357,0.07765 -0.680149,0.232895 -0.163784,0.155293 -0.245676,0.369017 -0.245676,0.641252 -4e-6,0.272243 0.08189,0.48598 0.245676,0.641251 0.165797,0.155249 0.39252,0.232895 0.680149,0.232895 0.28765,4e-6 0.514351,-0.07765 0.680144,-0.232895 0.165797,-0.157306 0.248696,-0.37103 0.248696,-0.641251 0,-0.272244 -0.0829,-0.485981 -0.248696,-0.641252 -0.163784,-0.155248 -0.390507,-0.232895 -0.680144,-0.232895 m -0.605243,-0.260119 c -0.259682,-0.06452 -0.46242,-0.186544 -0.608236,-0.365997 -0.143825,-0.179453 -0.215738,-0.398254 -0.215738,-0.656373 0,-0.360963 0.126843,-0.646289 0.380528,-0.856008 0.255699,-0.209698 0.605238,-0.314568 1.048684,-0.314568 0.445438,4e-6 0.794999,0.10487 1.048684,0.314568 0.253686,0.209741 0.380528,0.495054 0.380528,0.856008 0,0.258106 -0.07292,0.476907 -0.218714,0.656373 -0.143825,0.179453 -0.344593,0.301481 -0.602244,0.365997 0.291633,0.06854 0.518343,0.202651 0.680144,0.402281 0.163784,0.199631 0.245676,0.443634 0.245676,0.731993 -4e-6,0.437603 -0.132839,0.773334 -0.398517,1.007248 -0.263665,0.233902 -0.642197,0.350853 -1.135574,0.350853 -0.493382,0 -0.872908,-0.116951 -1.138573,-0.350853 -0.263664,-0.233901 -0.395497,-0.569667 -0.395497,-1.007248 0,-0.28835 0.08189,-0.532358 0.245676,-0.731993 0.163783,-0.19963 0.391514,-0.333739 0.683142,-0.402281 m -0.221734,-0.964901 c 0,0.233901 0.07191,0.416418 0.215738,0.54748 0.145795,0.131088 0.349539,0.196611 0.611235,0.196611 0.259681,4e-6 0.462415,-0.06552 0.608236,-0.196611 0.147808,-0.131044 0.221734,-0.313561 0.221734,-0.54748 -5e-6,-0.233902 -0.07393,-0.416419 -0.221734,-0.547481 -0.145839,-0.131044 -0.348577,-0.19661 -0.608236,-0.19661 -0.261696,0 -0.465418,0.06552 -0.611235,0.19661 -0.143825,0.131088 -0.215738,0.313561 -0.215738,0.547481 m -3.853162,10.289048 2.112346,0 0,0.514207 -2.840435,0 0,-0.514207 c 0.2297,-0.239986 0.54232,-0.5616 0.937826,-0.964901 0.39751,-0.405302 0.647186,-0.666454 0.749058,-0.783414 0.193766,-0.219808 0.328574,-0.405301 0.404514,-0.556558 0.07791,-0.153235 0.116863,-0.303494 0.116863,-0.450689 -4e-6,-0.239986 -0.0839,-0.435546 -0.251672,-0.586807 -0.165797,-0.151222 -0.382541,-0.226855 -0.650184,-0.226855 -0.189739,4e-6 -0.390508,0.03326 -0.60224,0.09979 -0.209742,0.06653 -0.434452,0.167373 -0.674157,0.302488 l 0,-0.617052 c 0.243706,-0.09879 0.47141,-0.173412 0.683142,-0.223834 0.211755,-0.05042 0.405477,-0.07563 0.581271,-0.07563 0.463417,4e-6 0.832955,0.116951 1.108608,0.350896 0.275657,0.233902 0.413486,0.546474 0.413486,0.937677 -5e-6,0.185537 -0.03502,0.36197 -0.104871,0.529334 -0.06793,0.165359 -0.192759,0.360963 -0.374531,0.586803 -0.04994,0.05848 -0.208735,0.227861 -0.476404,0.508162 -0.267648,0.278284 -0.645191,0.668476 -1.132576,1.170586 m 3.39174,-4.001768 2.37602,0 0,0.514212 -1.821715,0 0,1.107063 c 0.08789,-0.0302 0.175776,-0.05244 0.263664,-0.06653 0.08789,-0.01619 0.175777,-0.02407 0.263665,-0.02407 0.499369,5e-6 0.894875,0.138135 1.186512,0.414405 0.291634,0.276271 0.437428,0.650325 0.437428,1.122186 -4e-6,0.48598 -0.149821,0.864075 -0.449433,1.134287 -0.299643,0.268217 -0.722097,0.402281 -1.267411,0.402281 -0.18777,0 -0.379522,-0.01619 -0.575279,-0.04841 -0.193765,-0.03239 -0.39449,-0.08067 -0.602244,-0.145182 l 0,-0.614027 c 0.179759,0.09879 0.365559,0.172406 0.557302,0.220815 0.191752,0.04841 0.394491,0.07261 0.608237,0.07257 0.345556,0 0.619218,-0.09174 0.820967,-0.275264 0.201731,-0.183479 0.302619,-0.432525 0.302619,-0.747119 0,-0.314568 -0.100888,-0.56361 -0.302619,-0.747116 -0.201732,-0.183523 -0.475402,-0.275263 -0.820967,-0.275263 -0.161814,4e-6 -0.323585,0.01795 -0.485394,0.05445 -0.159801,0.03633 -0.323585,0.09275 -0.491382,0.169387 l 0,-2.268575" />
    <path
       style="font-size:4px;font-style:normal;font-variant:normal;font-weight:normal;font-stretch:normal;text-align:center;line-height:120.00000477%;writing-mode:lr-tb;text-anchor:middle;fill:#000000;fill-opacity:1;stroke:none;font-family:Sans;-inkscape-font-specification:Sans"
       id="text2456"
       inkscape:connector-curvature="0"
       d="m 41.009729,33.236402 2.376019,0 0,0.514208 -1.821715,0 0,1.107067 c 0.08789,-0.0302 0.175777,-0.05244 0.263665,-0.06653 0.08789,-0.01619 0.175776,-0.02407 0.263664,-0.02407 0.499374,5e-6 0.894876,0.138135 1.186513,0.414405 0.291633,0.276271 0.437428,0.650329 0.437428,1.12219 -5e-6,0.485981 -0.149822,0.864075 -0.449438,1.134288 -0.299643,0.268216 -0.722093,0.402325 -1.267407,0.402325 -0.187769,0 -0.379521,-0.01619 -0.575278,-0.04841 -0.193765,-0.03239 -0.39449,-0.08067 -0.602244,-0.145182 l 0,-0.614027 c 0.179759,0.09879 0.365559,0.172406 0.557302,0.220815 0.191752,0.04841 0.39449,0.07257 0.608236,0.07257 0.345557,0 0.619218,-0.09178 0.820967,-0.275263 0.201732,-0.183524 0.302619,-0.432526 0.302619,-0.747116 -4e-6,-0.314568 -0.100887,-0.563614 -0.302619,-0.74712 -0.201731,-0.183479 -0.475406,-0.275263 -0.820967,-0.275263 -0.161814,4e-6 -0.323584,0.01795 -0.485389,0.05445 -0.159801,0.03633 -0.323585,0.09275 -0.491387,0.169386 l 0,-2.268575 m -1.854673,11.435433 0.98876,0 0,-3.445209 -1.07565,0.217795 0,-0.556558 1.069658,-0.217795 0.605243,0 0,4.001767 0.988755,0 0,0.514212 -2.576766,0 0,-0.514212 m 4.323575,0 2.11235,0 0,0.514212 -2.840435,0 0,-0.514212 c 0.2297,-0.239985 0.542316,-0.561596 0.937822,-0.964901 0.39751,-0.405301 0.647186,-0.666454 0.749058,-0.783413 0.193766,-0.219808 0.328575,-0.405301 0.404514,-0.556558 0.07791,-0.153236 0.116863,-0.303495 0.116863,-0.45069 -4e-6,-0.239986 -0.08391,-0.435546 -0.251672,-0.586807 -0.165797,-0.151222 -0.382541,-0.226855 -0.650184,-0.226855 -0.189783,4e-6 -0.390508,0.03326 -0.602245,0.09979 -0.209741,0.06653 -0.434451,0.167373 -0.674152,0.302488 l 0,-0.617056 c 0.243706,-0.09879 0.471405,-0.173412 0.683143,-0.223834 0.211754,-0.05042 0.405476,-0.07563 0.58127,-0.07563 0.463413,4e-6 0.832951,0.116951 1.108608,0.350852 0.275657,0.233902 0.413486,0.546478 0.413486,0.937677 0,0.185537 -0.03502,0.36197 -0.104871,0.529334 -0.06793,0.16536 -0.192758,0.360963 -0.374531,0.586807 -0.04994,0.05848 -0.208735,0.227862 -0.4764,0.508159 -0.267647,0.278283 -0.645195,0.668475 -1.13258,1.170585 m -4.323575,7.433666 0.98876,0 0,-3.445209 -1.07565,0.217795 0,-0.556554 1.069658,-0.217795 0.605242,0 0,4.001767 0.988756,0 0,0.514212 -2.576766,0 0,-0.514212 m 3.820205,0.420446 0,-0.556554 c 0.151791,0.07257 0.305595,0.128024 0.461421,0.166366 0.155818,0.03852 0.308616,0.05747 0.458428,0.05747 0.39948,0 0.704113,-0.135115 0.91385,-0.405302 0.21171,-0.272243 0.3326,-0.6846 0.362539,-1.237127 -0.115857,0.173413 -0.262658,0.306515 -0.440448,0.399261 -0.17779,0.09275 -0.374532,0.139142 -0.590261,0.139142 -0.447437,0 -0.801993,-0.136122 -1.063661,-0.408365 -0.259682,-0.274257 -0.389501,-0.648307 -0.389501,-1.12219 0,-0.463794 0.135815,-0.835839 0.40749,-1.116136 0.271674,-0.280297 0.633202,-0.420446 1.08464,-0.420446 0.517346,5e-6 0.911849,0.200638 1.18351,0.60193 0.273644,0.399261 0.410466,0.980028 0.410466,1.742265 -4e-6,0.711829 -0.16781,1.280485 -0.50337,1.705968 -0.333564,0.423466 -0.783015,0.635216 -1.348301,0.635216 -0.151791,0 -0.305639,-0.01532 -0.461421,-0.04539 -0.155818,-0.0302 -0.317589,-0.07563 -0.485395,-0.136121 m 1.204493,-1.914677 c 0.271675,0 0.486384,-0.0938 0.644189,-0.281303 0.1598,-0.18755 0.239679,-0.444641 0.239723,-0.77132 -5e-6,-0.324635 -0.07992,-0.580749 -0.239723,-0.768286 -0.157788,-0.189564 -0.372519,-0.284324 -0.644189,-0.284324 -0.271674,0 -0.487394,0.09476 -0.64719,0.284324 -0.157788,0.18755 -0.236703,0.443634 -0.236703,0.768286 0,0.326692 0.07892,0.583787 0.236703,0.77132 0.1598,0.18755 0.375538,0.281303 0.64719,0.281303 m -4.608217,8.927902 2.112345,0 0,0.514207 -2.84043,0 0,-0.514207 c 0.2297,-0.239986 0.542316,-0.561601 0.937821,-0.964902 0.397511,-0.405301 0.647187,-0.666457 0.749059,-0.783417 0.193766,-0.219808 0.328574,-0.405301 0.404514,-0.556554 0.07791,-0.153235 0.116863,-0.303494 0.116863,-0.45069 0,-0.239985 -0.0839,-0.435589 -0.251672,-0.586807 -0.165797,-0.151222 -0.382541,-0.226854 -0.650185,-0.226854 -0.189782,4e-6 -0.390507,0.03326 -0.602244,0.09984 -0.209741,0.06653 -0.434451,0.167373 -0.674157,0.302488 l 0,-0.617052 c 0.243706,-0.09879 0.47141,-0.173413 0.683143,-0.223835 0.211754,-0.05042 0.405476,-0.07563 0.58127,-0.07563 0.463418,5e-6 0.832955,0.116951 1.108608,0.350853 0.275658,0.233902 0.413486,0.546474 0.413486,0.937677 0,0.185537 -0.03502,0.36197 -0.10487,0.529334 -0.06793,0.165359 -0.192759,0.360963 -0.374532,0.586802 -0.04994,0.05848 -0.208734,0.227862 -0.476399,0.508163 -0.267648,0.278284 -0.645195,0.668476 -1.132581,1.170585 m 4.755032,-1.987271 c -0.271674,0 -0.48739,0.09375 -0.647186,0.281304 -0.157787,0.18755 -0.236703,0.444645 -0.236703,0.771319 0,0.324679 0.07892,0.581765 0.236703,0.771316 0.159801,0.18755 0.375538,0.281303 0.647186,0.281303 0.271675,0 0.486384,-0.09375 0.644193,-0.281303 0.159801,-0.189564 0.239679,-0.446659 0.239679,-0.771316 -4e-6,-0.326692 -0.07992,-0.583778 -0.239679,-0.771319 -0.157831,-0.187551 -0.372518,-0.281304 -0.644193,-0.281304 m 1.201491,-1.914676 0,0.556554 c -0.151791,-0.07257 -0.305596,-0.128025 -0.461422,-0.166366 -0.153804,-0.03852 -0.306602,-0.05747 -0.458424,-0.05747 -0.39948,4e-6 -0.705114,0.136122 -0.916847,0.408321 -0.209741,0.272243 -0.329581,0.683598 -0.359563,1.234103 0.117827,-0.175426 0.265678,-0.309535 0.443442,-0.402281 0.17779,-0.09476 0.373525,-0.142162 0.587262,-0.142162 0.449434,0 0.803989,0.138135 1.063666,0.414405 0.261651,0.274257 0.392521,0.648311 0.392521,1.122185 -4e-6,0.463803 -0.135815,0.835849 -0.40749,1.116141 -0.271674,0.280297 -0.633206,0.420446 -1.084636,0.420446 -0.517354,0 -0.912855,-0.199631 -1.186512,-0.598905 -0.273644,-0.401275 -0.410466,-0.982041 -0.410466,-1.742266 0,-0.713842 0.16781,-1.282498 0.503365,-1.705972 0.335577,-0.425479 0.786013,-0.638218 1.351303,-0.638222 0.151835,4e-6 0.304633,0.01532 0.458429,0.04539 0.155817,0.0302 0.317588,0.07563 0.485389,0.136122" />
    <path
       style="font-size:4px;font-style:normal;font-variant:normal;font-weight:normal;font-stretch:normal;text-align:center;line-height:120.00000477%;writing-mode:lr-tb;text-anchor:middle;fill:#000000;fill-opacity:1;stroke:none;font-family:Sans;-inkscape-font-specification:Sans"
       id="text2466"
       inkscape:connector-curvature="0"
       d="m 52.124983,35.338616 c -0.271674,0 -0.48739,0.09375 -0.647187,0.281303 -0.157787,0.18755 -0.236702,0.444645 -0.236702,0.771316 -5e-6,0.324678 0.07892,0.581764 0.236702,0.771319 0.159801,0.187551 0.375539,0.281304 0.647187,0.281304 0.271674,0 0.486388,-0.0938 0.644192,-0.281304 0.159801,-0.189563 0.23968,-0.446658 0.239723,-0.771319 -4e-6,-0.326693 -0.07992,-0.583779 -0.239723,-0.771316 -0.157787,-0.18755 -0.372518,-0.281303 -0.644192,-0.281303 m 1.20149,-1.914681 0,0.556558 c -0.151791,-0.07257 -0.305595,-0.128024 -0.461417,-0.166366 -0.153805,-0.03852 -0.306602,-0.05747 -0.458424,-0.05747 -0.399524,5e-6 -0.705119,0.136122 -0.916852,0.408366 -0.209741,0.272243 -0.32958,0.683597 -0.359562,1.234102 0.11787,-0.175426 0.265678,-0.309534 0.443446,-0.402281 0.17779,-0.09476 0.373525,-0.142162 0.587262,-0.142162 0.449434,0 0.803989,0.138135 1.063666,0.414406 0.261651,0.274256 0.392521,0.648311 0.392521,1.122185 0,0.463798 -0.135815,0.835848 -0.40749,1.116141 -0.271674,0.280297 -0.633211,0.420445 -1.08464,0.420445 -0.51735,0 -0.912856,-0.19963 -1.186513,-0.5989 -0.273644,-0.401275 -0.410466,-0.982042 -0.410466,-1.742266 0,-0.713842 0.167811,-1.282498 0.50337,-1.705972 0.335577,-0.425479 0.786013,-0.638218 1.351303,-0.638223 0.151791,5e-6 0.304633,0.01532 0.458424,0.04539 0.155818,0.0302 0.317588,0.07563 0.48539,0.136121 m -4.419451,11.335614 0.98876,0 0,-3.445209 -1.07565,0.217795 0,-0.556558 1.069658,-0.217795 0.605238,0 0,4.001763 0.98876,0 0,0.514212 -2.576766,0 0,-0.514212 m 5.635928,-1.920725 c 0.28962,0.0625 0.51535,0.192584 0.677146,0.390201 0.163784,0.197617 0.245676,0.441616 0.245676,0.731993 -5e-6,0.445648 -0.151835,0.790469 -0.45543,1.034468 -0.303626,0.244012 -0.735079,0.365997 -1.294373,0.365997 -0.187769,0 -0.381535,-0.01926 -0.58127,-0.05747 -0.197749,-0.03633 -0.4025,-0.09174 -0.614228,-0.166366 l 0,-0.589827 c 0.16781,0.09879 0.351552,0.173413 0.551305,0.223835 0.199762,0.05042 0.408497,0.07563 0.626217,0.07563 0.379521,0 0.668156,-0.07563 0.865913,-0.226854 0.199762,-0.151222 0.299599,-0.371031 0.299643,-0.659398 -4e-6,-0.26616 -0.09288,-0.473879 -0.278633,-0.623105 -0.183787,-0.151222 -0.440453,-0.226855 -0.770038,-0.226855 l -0.521346,0 0,-0.502109 0.545319,0 c 0.297629,0 0.525337,-0.05948 0.683142,-0.178447 0.157788,-0.120977 0.236703,-0.29439 0.236703,-0.52026 -4e-6,-0.231889 -0.08189,-0.409328 -0.245675,-0.532359 -0.161815,-0.125048 -0.394491,-0.18755 -0.698125,-0.18755 -0.165797,0 -0.343587,0.01794 -0.53333,0.05445 -0.189783,0.03633 -0.398517,0.09279 -0.626212,0.169386 l 0,-0.544461 c 0.229699,-0.06452 0.444439,-0.112924 0.644188,-0.145181 0.201731,-0.03239 0.391514,-0.04841 0.569286,-0.04841 0.459422,4e-6 0.822967,0.105877 1.090632,0.317588 0.267648,0.209741 0.401494,0.494047 0.401494,0.852984 -5e-6,0.250052 -0.07091,0.461785 -0.212718,0.635202 -0.141812,0.1714 -0.343587,0.290364 -0.605238,0.356937 m -5.219452,9.354391 2.11235,0 0,0.514212 -2.840435,0 0,-0.514212 c 0.2297,-0.239942 0.54232,-0.561596 0.937821,-0.964901 0.397511,-0.405301 0.647187,-0.666454 0.749064,-0.783413 0.193765,-0.219808 0.328574,-0.405302 0.404513,-0.556559 0.07791,-0.153279 0.116863,-0.303494 0.116863,-0.450689 -4e-6,-0.239942 -0.0839,-0.435546 -0.251672,-0.586803 -0.165797,-0.151222 -0.382541,-0.226855 -0.650184,-0.226855 -0.189783,5e-6 -0.390507,0.03327 -0.602244,0.09979 -0.209742,0.06653 -0.434452,0.167372 -0.674153,0.302487 l 0,-0.617051 c 0.243706,-0.09879 0.471406,-0.173413 0.683143,-0.223835 0.211754,-0.05042 0.405476,-0.07563 0.58127,-0.07563 0.463418,5e-6 0.832951,0.116951 1.108608,0.350897 0.275657,0.233901 0.413486,0.546478 0.413486,0.937677 -4e-6,0.185537 -0.03502,0.36197 -0.10487,0.529334 -0.06793,0.165359 -0.192759,0.360963 -0.374532,0.586802 -0.04994,0.05848 -0.208735,0.227862 -0.4764,0.508163 -0.267647,0.278283 -0.645195,0.668471 -1.13258,1.170585 m 4.680126,-3.599473 c -0.311592,4e-6 -0.546312,0.155293 -0.704117,0.465812 -0.155818,0.308528 -0.233683,0.773337 -0.233683,1.39442 0,0.619069 0.07791,1.083874 0.233683,1.394416 0.157787,0.308527 0.392521,0.462791 0.704117,0.462791 0.313605,0 0.548312,-0.154285 0.704117,-0.462791 0.157787,-0.310542 0.236702,-0.775347 0.236702,-1.394416 0,-0.621083 -0.07892,-1.085888 -0.236702,-1.39442 -0.155818,-0.310541 -0.390508,-0.465808 -0.704117,-0.465812 m 0,-0.483963 c 0.50137,5e-6 0.883889,0.200637 1.147562,0.601929 0.265678,0.399261 0.398517,0.980028 0.398517,1.742266 -4e-6,0.760224 -0.132839,1.340978 -0.398517,1.742266 -0.263664,0.399261 -0.646192,0.5989 -1.147562,0.5989 -0.50137,0 -0.884887,-0.199631 -1.150557,-0.5989 -0.263664,-0.401275 -0.395497,-0.982042 -0.395497,-1.742266 0,-0.762238 0.131833,-1.342996 0.395497,-1.742266 0.265678,-0.401274 0.649187,-0.601924 1.150557,-0.601929 m -4.680126,11.517102 2.11235,0 0,0.514208 -2.840435,0 0,-0.514208 c 0.2297,-0.239985 0.54232,-0.5616 0.937822,-0.964901 0.39751,-0.405301 0.647186,-0.666458 0.749063,-0.783417 0.193765,-0.219809 0.328574,-0.405302 0.404513,-0.556554 0.07791,-0.153236 0.116863,-0.303495 0.116863,-0.45069 -4e-6,-0.239986 -0.0839,-0.435546 -0.251671,-0.586807 -0.165798,-0.151222 -0.382542,-0.226855 -0.650185,-0.226855 -0.189783,4e-6 -0.390507,0.03327 -0.602244,0.09979 -0.209742,0.06653 -0.434452,0.167373 -0.674153,0.302488 l 0,-0.617056 c 0.243706,-0.09879 0.471406,-0.173412 0.683143,-0.223834 0.211754,-0.05042 0.405476,-0.07563 0.58127,-0.07563 0.463418,4e-6 0.832951,0.116951 1.108608,0.350896 0.275658,0.233902 0.413486,0.546478 0.413486,0.937677 -4e-6,0.185537 -0.03502,0.36197 -0.10487,0.529334 -0.06793,0.165359 -0.192759,0.360963 -0.374532,0.586803 -0.04994,0.05848 -0.208734,0.227861 -0.4764,0.508162 -0.267647,0.278284 -0.645194,0.668476 -1.13258,1.170586 m 3.232942,-4.001768 2.876392,0 0,0.26012 -1.623963,4.255846 -0.632204,0 1.528082,-4.001767 -2.148307,0 0,-0.514212" />
    <path
       style="font-size:4px;font-style:normal;font-variant:normal;font-weight:normal;font-stretch:normal;text-align:center;line-height:120.00000477%;writing-mode:lr-tb;text-anchor:middle;fill:#000000;fill-opacity:1;stroke:none;font-family:Sans;-inkscape-font-specification:Sans"
       id="text2476"
       inkscape:connector-curvature="0"
       d="m 60.312912,33.236402 2.876386,0 0,0.26012 -1.623958,4.255846 -0.632208,0 1.528082,-4.001767 -2.148302,0 0,-0.514207 m -1.695871,11.435429 0.98876,0 0,-3.445209 -1.07565,0.217794 0,-0.556558 1.069654,-0.217795 0.605242,0 0,4.001763 0.98876,0 0,0.514212 -2.576766,0 0,-0.514212 m 5.465141,-3.469404 -1.528082,2.410737 1.528082,0 0,-2.410737 m -0.158794,-0.532359 0.761047,0 0,2.943096 0.638196,0 0,0.508162 -0.638196,0 0,1.064717 -0.602244,0 0,-1.064717 -2.019468,0 0,-0.589831 1.860665,-2.861427 m -4.889863,11.435434 2.112351,0 0,0.514207 -2.840435,0 0,-0.514207 c 0.2297,-0.239986 0.542315,-0.5616 0.937821,-0.964901 0.39751,-0.405302 0.647186,-0.666454 0.749059,-0.783418 0.193765,-0.219808 0.328574,-0.405301 0.404513,-0.556558 0.07791,-0.153279 0.116864,-0.303495 0.116864,-0.450685 -5e-6,-0.239942 -0.08391,-0.435546 -0.251672,-0.586807 -0.165797,-0.151222 -0.382542,-0.226855 -0.650185,-0.226855 -0.189782,4e-6 -0.390507,0.03326 -0.602244,0.09984 -0.209741,0.06653 -0.434452,0.167373 -0.674153,0.302488 l 0,-0.617052 c 0.243706,-0.09879 0.471406,-0.173413 0.683139,-0.223835 0.211754,-0.05042 0.405476,-0.07563 0.581274,-0.07563 0.463414,4e-6 0.832951,0.11695 1.108608,0.350852 0.275658,0.233902 0.413486,0.546478 0.413486,0.937677 -4e-6,0.185537 -0.03502,0.36197 -0.10487,0.529334 -0.06793,0.165359 -0.192759,0.360963 -0.374532,0.586803 -0.04994,0.05847 -0.208734,0.227861 -0.476404,0.508162 -0.267647,0.278284 -0.64519,0.668472 -1.132576,1.170586 m 3.49062,0 0.988759,0 0,-3.44521 -1.07565,0.217795 0,-0.556558 1.069658,-0.217795 0.605239,0 0,4.001768 0.988759,0 0,0.514207 -2.576765,0 0,-0.514207 m -3.49062,7.433666 2.11235,0 0,0.514207 -2.840435,0 0,-0.514207 c 0.2297,-0.239942 0.542316,-0.561601 0.937822,-0.964902 0.39751,-0.405301 0.647186,-0.666453 0.749059,-0.783413 0.193765,-0.219808 0.328574,-0.405301 0.404513,-0.556558 0.07791,-0.153279 0.116863,-0.303494 0.116863,-0.45069 -4e-6,-0.239941 -0.08391,-0.435545 -0.251672,-0.586807 -0.165797,-0.151222 -0.382541,-0.226854 -0.650184,-0.226854 -0.189783,4e-6 -0.390507,0.03326 -0.602244,0.09979 -0.209742,0.06653 -0.434452,0.167373 -0.674153,0.302488 l 0,-0.617056 c 0.243706,-0.09879 0.471406,-0.173413 0.683138,-0.223835 0.211755,-0.05042 0.405477,-0.07563 0.581275,-0.07563 0.463413,5e-6 0.832951,0.116951 1.108608,0.350897 0.275657,0.233901 0.413486,0.546478 0.413486,0.937677 -4e-6,0.185536 -0.03502,0.361969 -0.10487,0.529333 -0.06793,0.16536 -0.192759,0.360964 -0.374532,0.586803 -0.04994,0.05848 -0.208735,0.227862 -0.476404,0.508163 -0.267648,0.278283 -0.645191,0.668476 -1.132576,1.170585 m 4.680126,-1.630348 c -0.28765,0 -0.514356,0.07765 -0.680145,0.232895 -0.163783,0.155292 -0.245675,0.369017 -0.245675,0.641251 0,0.272244 0.08189,0.485981 0.245675,0.641251 0.165797,0.155293 0.392521,0.232895 0.680145,0.232895 0.28765,0 0.514352,-0.07765 0.680149,-0.232895 0.165797,-0.157305 0.248695,-0.37103 0.248695,-0.641251 -4e-6,-0.272243 -0.0829,-0.485976 -0.248695,-0.641251 -0.163784,-0.155249 -0.390508,-0.232895 -0.680149,-0.232895 M 63.108496,57.64868 c -0.259681,-0.06452 -0.462419,-0.186544 -0.608232,-0.365997 -0.143825,-0.179453 -0.215737,-0.398254 -0.215737,-0.656374 0,-0.360963 0.126842,-0.646289 0.380528,-0.856008 0.255655,-0.209697 0.605238,-0.314568 1.048684,-0.314568 0.445437,4e-6 0.794999,0.104871 1.048684,0.314568 0.253685,0.209697 0.380528,0.495058 0.380528,0.856008 -5e-6,0.258106 -0.07292,0.476908 -0.218714,0.656374 -0.143825,0.179453 -0.344594,0.301481 -0.602244,0.365997 0.291633,0.06859 0.518348,0.20265 0.680144,0.402281 0.163784,0.19963 0.245676,0.443634 0.245676,0.731993 -5e-6,0.437603 -0.132839,0.773333 -0.398517,1.007248 -0.263665,0.233902 -0.642197,0.350852 -1.135575,0.350852 -0.493382,0 -0.872907,-0.11695 -1.138572,-0.350852 -0.263665,-0.233902 -0.395497,-0.569663 -0.395497,-1.007248 0,-0.28835 0.08189,-0.532354 0.245675,-0.731993 0.163784,-0.199631 0.391514,-0.333739 0.683143,-0.402281 m -0.221734,-0.964897 c 0,0.233901 0.07191,0.416418 0.215738,0.54748 0.145838,0.131088 0.349539,0.196611 0.611234,0.196611 0.259682,0 0.462416,-0.06552 0.608237,-0.196611 0.147808,-0.131044 0.221733,-0.313561 0.221733,-0.54748 0,-0.233902 -0.07393,-0.416419 -0.221733,-0.547485 -0.145795,-0.131045 -0.348577,-0.196611 -0.608237,-0.196611 -0.261695,5e-6 -0.465418,0.06552 -0.611234,0.196611 -0.143825,0.131088 -0.215738,0.313561 -0.215738,0.547485" />
    <path
       style="font-size:4px;font-style:normal;font-variant:normal;font-weight:normal;font-stretch:normal;text-align:center;line-height:120.00000477%;writing-mode:lr-tb;text-anchor:middle;fill:#000000;fill-opacity:1;stroke:none;font-family:Sans;-inkscape-font-specification:Sans"
       id="text2486"
       inkscape:connector-curvature="0"
       d="m 70.355496,29.804499 0.988755,0 0,-3.445209 -1.075645,0.217795 0,-0.556559 1.069662,-0.217794 0.605238,0 0,4.001767 0.988756,0 0,0.514212 -2.576766,0 0,-0.514212 m 1.189502,5.803318 c -0.28765,0 -0.514343,0.07765 -0.680144,0.232895 -0.163784,0.155293 -0.245676,0.369017 -0.245676,0.641251 0,0.272244 0.08194,0.485981 0.245676,0.641252 0.165797,0.155292 0.39252,0.232895 0.680144,0.232895 0.28765,0 0.514361,-0.07765 0.680149,-0.232895 0.165797,-0.157262 0.248696,-0.37103 0.248696,-0.641252 0,-0.272243 -0.08286,-0.485976 -0.248696,-0.641251 -0.163784,-0.155249 -0.390507,-0.232895 -0.680149,-0.232895 M 70.93976,35.347698 c -0.259682,-0.06452 -0.462415,-0.186544 -0.608228,-0.365997 -0.143737,-0.179453 -0.215737,-0.398254 -0.215737,-0.656373 0,-0.360964 0.126886,-0.646285 0.380528,-0.856009 0.255698,-0.209697 0.605238,-0.314568 1.048675,-0.314568 0.445451,5e-6 0.795003,0.104871 1.048697,0.314568 0.253686,0.209741 0.380528,0.495059 0.380528,0.856009 0,0.258106 -0.07287,0.476907 -0.218714,0.656373 -0.143912,0.179453 -0.344549,0.301481 -0.602248,0.365997 0.291633,0.06854 0.518352,0.20265 0.680148,0.402281 0.163784,0.19963 0.245676,0.443634 0.245676,0.731993 0,0.437603 -0.132839,0.773333 -0.398473,1.007248 -0.263665,0.233902 -0.642193,0.350896 -1.135583,0.350896 -0.493374,0 -0.872904,-0.116951 -1.13856,-0.350896 -0.263664,-0.233902 -0.395497,-0.569663 -0.395497,-1.007248 0,-0.28835 0.08194,-0.532354 0.245676,-0.731993 0.163784,-0.199631 0.391514,-0.333739 0.683138,-0.402281 m -0.221734,-0.964897 c 0,0.233901 0.07196,0.416418 0.215738,0.54748 0.145882,0.131088 0.349539,0.196611 0.611221,0.196611 0.259682,4e-6 0.46242,-0.06552 0.608245,-0.196611 0.147896,-0.131044 0.221734,-0.313561 0.221734,-0.54748 0,-0.233902 -0.07393,-0.416419 -0.221734,-0.547485 -0.145882,-0.131045 -0.348576,-0.196611 -0.608245,-0.196611 -0.261651,5e-6 -0.465405,0.06552 -0.611221,0.196611 -0.143738,0.131088 -0.215738,0.313561 -0.215738,0.547485 m -2.316086,10.289044 0.988755,0 0,-3.445209 -1.075654,0.217794 0,-0.556554 1.069658,-0.217794 0.605238,0 0,4.001767 0.988756,0 0,0.514212 -2.576753,0 0,-0.514212 m 3.808216,-4.001767 2.376024,0 0,0.514211 -1.821715,0 0,1.107064 c 0.08789,-0.0302 0.175776,-0.05244 0.263664,-0.06653 0.08789,-0.0162 0.175777,-0.02407 0.263665,-0.02407 0.499374,4e-6 0.894871,0.138135 1.1865,0.414405 0.291633,0.27627 0.437471,0.650329 0.437471,1.12219 0,0.48598 -0.149865,0.864075 -0.449438,1.134287 -0.299643,0.268217 -0.722093,0.402281 -1.267406,0.402281 -0.18777,0 -0.379522,-0.01619 -0.575279,-0.04841 -0.193765,-0.03239 -0.39449,-0.08067 -0.602248,-0.145182 l 0,-0.614027 c 0.179759,0.09879 0.365558,0.172406 0.557297,0.220815 0.191753,0.04841 0.394491,0.07257 0.608246,0.07257 0.345556,0 0.619213,-0.09174 0.820962,-0.275264 0.201732,-0.183523 0.302619,-0.432525 0.302619,-0.74712 0,-0.314568 -0.100931,-0.563613 -0.302619,-0.747115 -0.201731,-0.18348 -0.475397,-0.275263 -0.820962,-0.275263 -0.161815,0 -0.323585,0.01795 -0.485395,0.05445 -0.1598,0.03633 -0.323584,0.09275 -0.491381,0.169386 l 0,-2.268575 m -3.391746,11.435434 2.112342,0 0,0.514207 -2.840426,0 0,-0.514207 c 0.2297,-0.239942 0.542324,-0.561601 0.937821,-0.964901 0.397511,-0.405302 0.647182,-0.666454 0.749059,-0.783418 0.193766,-0.219808 0.328574,-0.405301 0.404513,-0.556554 0.07791,-0.153279 0.116907,-0.303494 0.116907,-0.45069 0,-0.239941 -0.08391,-0.435545 -0.251671,-0.586806 -0.165798,-0.151222 -0.382542,-0.226855 -0.650185,-0.226855 -0.189783,4e-6 -0.390507,0.03326 -0.602231,0.09979 -0.209741,0.06653 -0.434452,0.167373 -0.674161,0.302488 l 0,-0.617056 c 0.243706,-0.09879 0.471401,-0.173413 0.683133,-0.223835 0.211711,-0.05042 0.40552,-0.07563 0.581275,-0.07563 0.463413,5e-6 0.83296,0.116951 1.108617,0.350853 0.275657,0.233902 0.413486,0.546478 0.413486,0.937677 0,0.185537 -0.03502,0.36197 -0.104914,0.529334 -0.06797,0.165359 -0.192759,0.360963 -0.374532,0.586802 -0.05003,0.05848 -0.208734,0.227862 -0.476408,0.508163 -0.267648,0.278284 -0.645182,0.668476 -1.132576,1.170585 m 3.907103,0 2.112346,0 0,0.514212 -2.84043,0 0,-0.514212 c 0.229699,-0.239985 0.542311,-0.561596 0.937808,-0.964901 0.39751,-0.405301 0.647195,-0.666454 0.749076,-0.783413 0.193766,-0.219808 0.328574,-0.405301 0.40447,-0.556558 0.07795,-0.153279 0.116907,-0.303495 0.116907,-0.45069 0,-0.239986 -0.08391,-0.435546 -0.251672,-0.586803 -0.165797,-0.151222 -0.382541,-0.226855 -0.650189,-0.226855 -0.189782,5e-6 -0.390507,0.03327 -0.602244,0.09979 -0.209742,0.06653 -0.434452,0.167373 -0.674148,0.302488 l 0,-0.617056 c 0.243662,-0.09879 0.471405,-0.173413 0.683138,-0.223835 0.211754,-0.05042 0.405476,-0.07563 0.581274,-0.07563 0.463414,5e-6 0.832943,0.116951 1.1086,0.350896 0.275657,0.233902 0.413486,0.546479 0.413486,0.937677 0,0.185537 -0.03502,0.36197 -0.104914,0.529334 -0.06797,0.16536 -0.192759,0.360964 -0.374532,0.586807 -0.05003,0.05848 -0.208735,0.227862 -0.476391,0.508159 -0.267647,0.278283 -0.645199,0.668475 -1.132576,1.170585 m -3.907104,7.433666 2.112342,0 0,0.514212 -2.840426,0 0,-0.514212 c 0.2297,-0.239985 0.542324,-0.561596 0.937821,-0.964901 0.39751,-0.405301 0.647182,-0.666454 0.749059,-0.783413 0.193765,-0.219808 0.328574,-0.405301 0.40447,-0.556558 0.07795,-0.153236 0.116907,-0.303495 0.116907,-0.45069 0,-0.239942 -0.08391,-0.435546 -0.251672,-0.586803 -0.165797,-0.151222 -0.382542,-0.226855 -0.650185,-0.226855 -0.189782,5e-6 -0.390507,0.03327 -0.602231,0.09979 -0.209741,0.06653 -0.434451,0.167372 -0.674161,0.302487 l 0,-0.617051 c 0.243706,-0.09879 0.471401,-0.173413 0.683134,-0.223835 0.211754,-0.05042 0.40552,-0.07563 0.581274,-0.07563 0.463414,5e-6 0.83296,0.116951 1.108617,0.350853 0.275657,0.233902 0.413486,0.546478 0.413486,0.937677 0,0.185537 -0.03502,0.36197 -0.104914,0.529334 -0.06797,0.165359 -0.192759,0.360963 -0.374532,0.586807 -0.05003,0.05848 -0.208734,0.227861 -0.476408,0.508158 -0.267648,0.278284 -0.645182,0.668476 -1.132576,1.170585 m 3.403729,0.420446 0,-0.556558 c 0.151878,0.07261 0.305595,0.128024 0.461417,0.166366 0.155818,0.03852 0.308616,0.05747 0.458428,0.05747 0.399524,0 0.704113,-0.135115 0.91385,-0.405301 0.21171,-0.272243 0.3326,-0.684604 0.362538,-1.237127 -0.115812,0.173413 -0.262657,0.306514 -0.440447,0.399261 -0.17779,0.09279 -0.374532,0.139142 -0.590252,0.139142 -0.447442,4e-6 -0.801997,-0.136122 -1.063666,-0.408365 -0.259682,-0.274257 -0.389501,-0.648303 -0.389501,-1.122186 0,-0.463794 0.135772,-0.835839 0.40749,-1.116141 0.271674,-0.280296 0.633189,-0.420445 1.084636,-0.420445 0.517337,5e-6 0.911853,0.200637 1.18351,0.601925 0.273644,0.399261 0.410466,0.980028 0.410466,1.742266 0,0.711833 -0.16781,1.280484 -0.503379,1.705967 -0.333564,0.423466 -0.783006,0.635203 -1.348296,0.635203 -0.151879,0 -0.305595,-0.01532 -0.461417,-0.04539 -0.155818,-0.0302 -0.317632,-0.07563 -0.485399,-0.136121 m 1.204493,-1.914676 c 0.271674,0 0.486379,-0.0938 0.644188,-0.281304 0.159801,-0.18755 0.239723,-0.444636 0.239723,-0.771315 0,-0.324679 -0.07992,-0.580754 -0.239723,-0.768291 -0.157831,-0.189564 -0.372518,-0.284324 -0.644188,-0.284324 -0.271674,5e-6 -0.48739,0.09476 -0.647195,0.284324 -0.157787,0.18755 -0.236703,0.443634 -0.236703,0.768291 0,0.326692 0.07887,0.583782 0.236703,0.771315 0.159801,0.18755 0.375538,0.281304 0.647195,0.281304" />
    <path
       style="font-size:4px;font-style:normal;font-variant:normal;font-weight:normal;font-stretch:normal;text-align:center;line-height:120.00000477%;writing-mode:lr-tb;text-anchor:middle;fill:#000000;fill-opacity:1;stroke:none;font-family:Sans;-inkscape-font-specification:Sans"
       id="text2498"
       inkscape:connector-curvature="0"
       d="m 80.491006,29.804499 2.112342,0 0,0.514212 -2.840431,0 0,-0.514212 c 0.2297,-0.239986 0.542329,-0.561596 0.937826,-0.964901 0.39751,-0.405302 0.647182,-0.666454 0.749059,-0.783413 0.193765,-0.219809 0.328574,-0.405302 0.40447,-0.556559 0.07795,-0.153235 0.116907,-0.303494 0.116907,-0.450689 0,-0.239942 -0.08391,-0.435546 -0.251672,-0.586803 -0.165797,-0.151222 -0.382542,-0.226855 -0.650185,-0.226855 -0.189782,5e-6 -0.390507,0.03327 -0.602231,0.09979 -0.209741,0.06653 -0.434451,0.167372 -0.674166,0.302487 l 0,-0.617051 c 0.243706,-0.09879 0.471406,-0.173413 0.683139,-0.223835 0.21171,-0.05042 0.40552,-0.07563 0.581274,-0.07563 0.463414,9e-6 0.83296,0.116951 1.108617,0.350853 0.275657,0.233901 0.413486,0.546478 0.413486,0.937677 0,0.185537 -0.03502,0.36197 -0.104914,0.529334 -0.06797,0.165359 -0.192759,0.360963 -0.374532,0.586807 -0.05003,0.05848 -0.208734,0.227861 -0.476408,0.508162 -0.267648,0.278284 -0.645186,0.668472 -1.132576,1.170581 m -0.503362,7.854112 0,-0.556558 c 0.151879,0.07257 0.305596,0.128068 0.461422,0.166366 0.155818,0.03852 0.308616,0.05747 0.458411,0.05747 0.399523,0 0.704125,-0.135115 0.913862,-0.405301 0.211711,-0.272243 0.332557,-0.6846 0.362539,-1.237127 -0.115813,0.173413 -0.262658,0.306514 -0.440448,0.399261 -0.17779,0.09275 -0.374531,0.139142 -0.590265,0.139142 -0.447442,0 -0.801997,-0.136122 -1.063666,-0.408365 -0.259681,-0.274257 -0.3895,-0.648307 -0.3895,-1.12219 0,-0.463794 0.135771,-0.83584 0.407489,-1.116137 0.271675,-0.280296 0.633207,-0.420445 1.084636,-0.420445 0.51735,5e-6 0.911854,0.200637 1.183524,0.601929 0.273644,0.399261 0.410466,0.980028 0.410466,1.742266 0,0.711829 -0.167767,1.280485 -0.503362,1.705968 -0.333564,0.423465 -0.783023,0.635202 -1.348314,0.635202 -0.151878,0 -0.305595,-0.01532 -0.461421,-0.04539 -0.155818,-0.0302 -0.317588,-0.07563 -0.485381,-0.136122 m 1.20448,-1.914676 c 0.271674,4e-6 0.486392,-0.0938 0.644188,-0.281304 0.1598,-0.18755 0.239723,-0.444636 0.239723,-0.771315 0,-0.324635 -0.07992,-0.580754 -0.239723,-0.768291 -0.157788,-0.189563 -0.372519,-0.284323 -0.644188,-0.284323 -0.271675,4e-6 -0.487391,0.09476 -0.647178,0.284323 -0.157831,0.18755 -0.236703,0.443639 -0.236703,0.768291 0,0.326692 0.07887,0.583783 0.236703,0.771315 0.159801,0.187551 0.375538,0.281304 0.647178,0.281304 m -3.071142,8.927901 0.98876,0 0,-3.445209 -1.07565,0.217795 0,-0.556558 1.069649,-0.217795 0.605238,0 0,4.001767 0.988773,0 0,0.514212 -2.57677,0 0,-0.514212 m 5.171503,-1.987271 c -0.27163,0 -0.48739,0.09375 -0.647177,0.281304 -0.157788,0.18755 -0.236703,0.44464 -0.236703,0.771315 0,0.324678 0.07887,0.581765 0.236703,0.771315 0.159801,0.18755 0.375538,0.281304 0.647177,0.281304 0.271675,0 0.486397,-0.0938 0.644189,-0.281304 0.1598,-0.189563 0.239679,-0.446658 0.239679,-0.771315 0,-0.326692 -0.07992,-0.583778 -0.239679,-0.771315 -0.157788,-0.187551 -0.372519,-0.281304 -0.644189,-0.281304 m 1.201504,-1.914676 0,0.556554 c -0.151879,-0.07257 -0.305639,-0.128025 -0.461435,-0.166366 -0.153804,-0.03852 -0.306602,-0.05747 -0.458411,-0.05747 -0.399523,9e-6 -0.705123,0.136121 -0.916856,0.408365 -0.209741,0.272243 -0.32958,0.683598 -0.359562,1.234103 0.117826,-0.175427 0.265678,-0.309535 0.443454,-0.402282 0.17779,-0.09476 0.373525,-0.142161 0.587258,-0.142161 0.449438,4e-6 0.803994,0.138135 1.063666,0.414405 0.261652,0.274257 0.392521,0.648307 0.392521,1.122185 0,0.463803 -0.135771,0.835849 -0.40749,1.116141 -0.271674,0.280297 -0.633206,0.420445 -1.08464,0.420445 -0.51735,0 -0.912851,-0.19963 -1.186513,-0.5989 -0.273644,-0.401274 -0.410466,-0.982041 -0.410466,-1.742266 0,-0.713842 0.167767,-1.282498 0.503362,-1.705972 0.335577,-0.425479 0.786013,-0.638218 1.351307,-0.638222 0.151879,4e-6 0.304633,0.01532 0.458428,0.04539 0.155818,0.0302 0.317588,0.07563 0.485395,0.136122 m -5.956536,11.335618 2.112359,0 0,0.514207 -2.840444,0 0,-0.514207 c 0.2297,-0.239986 0.542324,-0.5616 0.937826,-0.964901 0.39751,-0.405302 0.647195,-0.666454 0.749054,-0.783418 0.193766,-0.219808 0.328574,-0.405301 0.404514,-0.556554 0.07791,-0.153279 0.116907,-0.303494 0.116907,-0.450689 -1.8e-5,-0.239986 -0.08391,-0.435546 -0.251716,-0.586807 -0.165797,-0.151222 -0.382541,-0.226855 -0.650171,-0.226855 -0.189783,9e-6 -0.390508,0.03326 -0.602245,0.09979 -0.209741,0.06653 -0.434451,0.167373 -0.674165,0.302488 l 0,-0.617051 c 0.243706,-0.09879 0.471418,-0.173413 0.683151,-0.223835 0.211711,-0.05042 0.405476,-0.07563 0.581261,-0.07563 0.463431,4e-6 0.83296,0.116951 1.108617,0.350896 0.275658,0.233902 0.413486,0.546478 0.413486,0.937677 0,0.185537 -0.03502,0.36197 -0.104914,0.529334 -0.06797,0.165359 -0.192759,0.360963 -0.374531,0.586803 -0.05003,0.05848 -0.208735,0.227861 -0.476409,0.508163 -0.267647,0.278283 -0.645186,0.668475 -1.132576,1.170585 m 5.219461,-1.92073 c 0.28962,0.0625 0.515341,0.192584 0.677138,0.390201 0.163783,0.197617 0.245675,0.441617 0.245675,0.731993 0,0.445652 -0.151878,0.790473 -0.455434,1.034468 -0.303626,0.244013 -0.735066,0.365997 -1.294377,0.365997 -0.187769,-4e-6 -0.381491,-0.01926 -0.581262,-0.05747 -0.197748,-0.03633 -0.4025,-0.09174 -0.614228,-0.166366 l 0,-0.589827 c 0.167767,0.09879 0.351553,0.173413 0.551302,0.223835 0.199761,0.05042 0.408496,0.07563 0.626225,0.07563 0.379521,0 0.668152,-0.07563 0.865909,-0.226855 0.199762,-0.151222 0.299643,-0.37103 0.299643,-0.659398 0,-0.26616 -0.09297,-0.473879 -0.278634,-0.623105 -0.183742,-0.151222 -0.440448,-0.226855 -0.770028,-0.226855 l -0.521355,0 0,-0.502109 0.545318,0 c 0.297629,0 0.525342,-0.05948 0.683138,-0.178446 0.157831,-0.120978 0.236703,-0.294391 0.236703,-0.520261 0,-0.231888 -0.08194,-0.409328 -0.245675,-0.532358 -0.161814,-0.125048 -0.394534,-0.187551 -0.698125,-0.187551 -0.165797,5e-6 -0.343587,0.01795 -0.533334,0.05445 -0.189783,0.03633 -0.398517,0.09275 -0.626213,0.169386 l 0,-0.544456 c 0.2297,-0.06452 0.44444,-0.112924 0.644188,-0.145182 0.201732,-0.03239 0.391514,-0.04841 0.569282,-0.04841 0.459426,4e-6 0.822968,0.105877 1.090637,0.317588 0.267648,0.209697 0.401493,0.494047 0.401493,0.852984 0,0.250052 -0.07086,0.461785 -0.212717,0.635202 -0.141899,0.1714 -0.343587,0.290364 -0.605238,0.356937 m -3.907104,7.433666 c 0.28962,0.06255 0.515354,0.192583 0.677155,0.390201 0.163784,0.197617 0.245676,0.441616 0.245676,0.731993 0,0.445652 -0.151879,0.790473 -0.455421,1.034472 -0.303626,0.244012 -0.735079,0.365997 -1.294373,0.365997 -0.187769,0 -0.381535,-0.01926 -0.581279,-0.05747 -0.197749,-0.03633 -0.4025,-0.09174 -0.614228,-0.166366 l 0,-0.589827 c 0.16781,0.09879 0.351552,0.173413 0.551319,0.223835 0.199718,0.05042 0.408452,0.07563 0.626207,0.07563 0.379522,0 0.668165,-0.07563 0.865909,-0.226855 0.199762,-0.151222 0.299643,-0.37103 0.299643,-0.659398 -1.3e-5,-0.26616 -0.09297,-0.473879 -0.278633,-0.6231 -0.183787,-0.151266 -0.440466,-0.226855 -0.770046,-0.226855 l -0.521342,0 0,-0.50211 0.545318,0 c 0.29763,0 0.525329,-0.05948 0.683138,-0.178446 0.157788,-0.120978 0.236703,-0.294391 0.236703,-0.520261 -1.3e-5,-0.231888 -0.08194,-0.409328 -0.245675,-0.532358 -0.161814,-0.125048 -0.39449,-0.187507 -0.698125,-0.18755 -0.165797,8e-6 -0.343587,0.01794 -0.533321,0.05445 -0.189783,0.03633 -0.398517,0.09279 -0.626226,0.169386 l 0,-0.544456 c 0.2297,-0.06452 0.444453,-0.112924 0.644189,-0.145182 0.201731,-0.03239 0.391514,-0.04841 0.569295,-0.04841 0.459426,4e-6 0.822971,0.105877 1.090636,0.317588 0.267648,0.209697 0.401494,0.494047 0.401494,0.852984 0,0.250052 -0.07086,0.461781 -0.212718,0.635202 -0.141768,0.1714 -0.343587,0.290364 -0.605238,0.356937 m 3.367769,-1.678744 c -0.311592,5e-6 -0.546317,0.155293 -0.704113,0.465812 -0.155818,0.308528 -0.233683,0.773338 -0.233683,1.39442 0,0.619069 0.07795,1.083874 0.233683,1.394416 0.157787,0.308528 0.392521,0.462791 0.704113,0.462791 0.313605,0 0.548307,-0.154242 0.704125,-0.462791 0.157787,-0.310542 0.236703,-0.775347 0.236703,-1.394416 -1.8e-5,-0.621082 -0.07887,-1.085888 -0.236703,-1.39442 -0.155818,-0.310541 -0.390507,-0.465807 -0.704125,-0.465812 m 0,-0.483963 c 0.501378,5e-6 0.883884,0.200638 1.147562,0.601929 0.265678,0.399262 0.398473,0.980028 0.398517,1.742266 -1.7e-5,0.760224 -0.132839,1.340978 -0.398517,1.742266 -0.263664,0.399261 -0.646184,0.598904 -1.147562,0.598904 -0.501366,0 -0.884888,-0.19963 -1.150557,-0.598904 -0.263665,-0.401275 -0.395497,-0.982042 -0.395497,-1.742266 0,-0.762238 0.131789,-1.342991 0.395497,-1.742266 0.265678,-0.401274 0.649191,-0.601924 1.150557,-0.601929" />
  </g>
  <path
     style="opacity:0.3;fill:#ffffff;fill-opacity:1;stroke:none"
     id="path3739"
     inkscape:connector-curvature="0"
     d="m 22.954146,9.2656083 c -0.03133,0.2050052 -0.03263,0.4054085 -0.03263,0.6200113 0,2.3068484 1.870069,4.1769184 4.176919,4.1769184 2.306849,0 4.176918,-1.87007 4.176918,-4.1769184 0,-0.2146028 -0.0013,-0.4150061 -0.03263,-0.6200113 -0.213048,2.1071217 -1.980984,3.7526997 -4.144286,3.7526997 -2.163303,0 -3.931239,-1.645578 -4.144287,-3.7526997 z m 41.769184,0 c -0.03133,0.2050052 -0.03263,0.4054085 -0.03263,0.6200113 0,2.3068484 1.870069,4.1769184 4.176919,4.1769184 2.306849,0 4.176918,-1.87007 4.176918,-4.1769184 0,-0.2146028 -0.0013,-0.4150061 -0.03263,-0.6200113 -0.213048,2.1071217 -1.980984,3.7526997 -4.144286,3.7526997 -2.163303,0 -3.931239,-1.645578 -4.144287,-3.7526997 z" />
  <rect
     style="opacity:0.1;fill:url(#linearGradient3861);fill-opacity:1;fill-rule:nonzero;stroke:#ffffff;stroke-width:0.5;stroke-linecap:round;stroke-linejoin:miter;stroke-miterlimit:4;stroke-opacity:1;stroke-dasharray:none;stroke-dashoffset:0;filter:url(#filter3794)"
     id="rect3171"
     clip-path="url(#clipPath3613)"
     y="15"
     x="15"
     ry="12"
     rx="12"
     height="66"
     width="66"
     transform="matrix(1.0442296,0,0,1.0442296,-2.1399961,-3.6893652)" />
  <rect
     style="opacity:0.7;fill:#ff0000;fill-opacity:1;stroke:none"
     id="rect3786"
     width="10.442296"
     height="10.442296"
     x="18.535749"
     y="44.86731"
     rx="0"
     ry="0" />
  <path
     sodipodi:type="arc"
     style="opacity:0.7;fill:none;stroke:#ff0000;stroke-width:3;stroke-miterlimit:4;stroke-opacity:1;stroke-dasharray:none"
     id="path3905"
     sodipodi:cx="26.75"
     sodipodi:cy="51.75"
     sodipodi:rx="15.25"
     sodipodi:ry="15.25"
     d="m 42,51.75 a 15.25,15.25 0 1 1 -30.5,0 15.25,15.25 0 1 1 30.5,0 z"
     transform="translate(-2.9931026,-1.6615424)" />
</svg>
