<?xml version="1.0" encoding="UTF-8" standalone="no"?>
<!-- Created with Inkscape (http://www.inkscape.org/) -->

<svg
   xmlns:dc="http://purl.org/dc/elements/1.1/"
   xmlns:cc="http://creativecommons.org/ns#"
   xmlns:rdf="http://www.w3.org/1999/02/22-rdf-syntax-ns#"
   xmlns:svg="http://www.w3.org/2000/svg"
   xmlns="http://www.w3.org/2000/svg"
   xmlns:xlink="http://www.w3.org/1999/xlink"
   xmlns:sodipodi="http://sodipodi.sourceforge.net/DTD/sodipodi-0.dtd"
   xmlns:inkscape="http://www.inkscape.org/namespaces/inkscape"
   version="1.0"
   width="96"
   height="96"
   id="svg2408"
   style="display:inline"
   inkscape:version="0.47 r22583"
   sodipodi:docname="logging.svg"
   inkscape:export-filename="/home/francesco/neo_freerunner/qtmoko/faenqomod/svg/faenqomod_pics/logging/logging.png"
   inkscape:export-xdpi="90"
   inkscape:export-ydpi="90">
  <sodipodi:namedview
     pagecolor="#ffffff"
     bordercolor="#666666"
     borderopacity="1"
     objecttolerance="10"
     gridtolerance="10"
     guidetolerance="10"
     inkscape:pageopacity="0"
     inkscape:pageshadow="2"
     inkscape:window-width="1366"
     inkscape:window-height="709"
     id="namedview334"
     showgrid="false"
     inkscape:zoom="4"
     inkscape:cx="26.710355"
     inkscape:cy="65.586715"
     inkscape:window-x="0"
     inkscape:window-y="25"
     inkscape:window-maximized="1"
     inkscape:current-layer="svg2408" />
  <defs
     id="defs2410">
    <inkscape:perspective
       sodipodi:type="inkscape:persp3d"
       inkscape:vp_x="0 : 48 : 1"
       inkscape:vp_y="0 : 1000 : 0"
       inkscape:vp_z="96 : 48 : 1"
       inkscape:persp3d-origin="48 : 32 : 1"
       id="perspective336" />
    <linearGradient
       id="linearGradient3766">
      <stop
         id="stop3768"
         style="stop-color:#000000;stop-opacity:1"
         offset="0" />
      <stop
         id="stop3775"
         style="stop-color:#000000;stop-opacity:1"
         offset="0.80000001" />
      <stop
         id="stop3770"
         style="stop-color:#000000;stop-opacity:0"
         offset="1" />
    </linearGradient>
    <linearGradient
       id="linearGradient3729">
      <stop
         id="stop3731"
         style="stop-color:#2f55cf;stop-opacity:1"
         offset="0" />
      <stop
         id="stop3733"
         style="stop-color:#6480dc;stop-opacity:1"
         offset="1" />
    </linearGradient>
    <linearGradient
       x1="45.447727"
       y1="92.539597"
       x2="45.447727"
       y2="7.0165396"
       id="ButtonShadow"
       gradientUnits="userSpaceOnUse"
       gradientTransform="scale(1.0058652,0.994169)">
      <stop
         id="stop3750"
         style="stop-color:#000000;stop-opacity:1"
         offset="0" />
      <stop
         id="stop3752"
         style="stop-color:#000000;stop-opacity:0.58823532"
         offset="1" />
    </linearGradient>
    <linearGradient
       id="linearGradient3700">
      <stop
         id="stop3702"
         style="stop-color:#ebebeb;stop-opacity:1"
         offset="0" />
      <stop
         id="stop3704"
         style="stop-color:#fafafa;stop-opacity:1"
         offset="1" />
    </linearGradient>
    <linearGradient
       x1="48"
       y1="90"
       x2="48"
       y2="5.9877172"
       id="linearGradient3706"
       xlink:href="#linearGradient3700"
       gradientUnits="userSpaceOnUse"
       gradientTransform="translate(0.38268553,-0.19134276)" />
    <filter
       color-interpolation-filters="sRGB"
       id="filter3174">
      <feGaussianBlur
         id="feGaussianBlur3176"
         stdDeviation="1.71" />
    </filter>
    <linearGradient
       x1="45.447727"
       y1="92.539597"
       x2="45.447727"
       y2="7.0165396"
       id="ButtonShadow-0"
       gradientUnits="userSpaceOnUse"
       gradientTransform="matrix(1.0058652,0,0,0.994169,100,0)">
      <stop
         id="stop3750-8"
         style="stop-color:#000000;stop-opacity:1"
         offset="0" />
      <stop
         id="stop3752-5"
         style="stop-color:#000000;stop-opacity:0.58823532"
         offset="1" />
    </linearGradient>
    <linearGradient
       x1="32.251034"
       y1="6.1317081"
       x2="32.251034"
       y2="90.238609"
       id="linearGradient3780"
       xlink:href="#ButtonShadow-0"
       gradientUnits="userSpaceOnUse"
       gradientTransform="matrix(1.0238095,0,0,1.0119048,-1.1428571,-98.071429)" />
    <linearGradient
       x1="32.251034"
       y1="6.1317081"
       x2="32.251034"
       y2="90.238609"
       id="linearGradient3772"
       xlink:href="#ButtonShadow-0"
       gradientUnits="userSpaceOnUse"
       gradientTransform="matrix(1.0238095,0,0,1.0119048,-1.1428571,-98.071429)" />
    <linearGradient
       x1="32.251034"
       y1="6.1317081"
       x2="32.251034"
       y2="90.238609"
       id="linearGradient3725"
       xlink:href="#ButtonShadow-0"
       gradientUnits="userSpaceOnUse"
       gradientTransform="matrix(1.0238095,0,0,1.0119048,-1.1428571,-98.071429)" />
    <linearGradient
       x1="32.251034"
       y1="6.1317081"
       x2="32.251034"
       y2="90.238609"
       id="linearGradient3721"
       xlink:href="#ButtonShadow-0"
       gradientUnits="userSpaceOnUse"
       gradientTransform="translate(0,-97)" />
    <linearGradient
       x1="32.251034"
       y1="6.1317081"
       x2="32.251034"
       y2="90.238609"
       id="linearGradient3760"
       xlink:href="#ButtonShadow-0"
       gradientUnits="userSpaceOnUse"
       gradientTransform="matrix(1.0238095,0,0,1.0119048,-1.1428571,-98.071429)" />
    <linearGradient
       id="linearGradient3737-1">
      <stop
         id="stop3739-9"
         style="stop-color:#ffffff;stop-opacity:1"
         offset="0" />
      <stop
         id="stop3741-3"
         style="stop-color:#ffffff;stop-opacity:0"
         offset="1" />
    </linearGradient>
    <radialGradient
       cx="48"
       cy="90.171875"
       r="42"
       fx="48"
       fy="90.171875"
       id="radialGradient2886"
       xlink:href="#linearGradient3737-0"
       gradientUnits="userSpaceOnUse"
       gradientTransform="matrix(1.1573129,0,0,0.99590774,-7.551021,0.1971319)" />
    <linearGradient
       id="linearGradient3737-0">
      <stop
         id="stop3739-6"
         style="stop-color:#ffffff;stop-opacity:1"
         offset="0" />
      <stop
         id="stop3741-0"
         style="stop-color:#ffffff;stop-opacity:0"
         offset="1" />
    </linearGradient>
    <linearGradient
       x1="36.357143"
       y1="6"
       x2="36.357143"
       y2="63.893143"
       id="linearGradient3923"
       xlink:href="#linearGradient3737-1"
       gradientUnits="userSpaceOnUse" />
    <linearGradient
       x1="11.875"
       y1="48.351955"
       x2="84.047112"
       y2="48.351955"
       id="linearGradient3773"
       xlink:href="#linearGradient3766"
       gradientUnits="userSpaceOnUse" />
    <linearGradient
       id="linearGradient3729-6">
      <stop
         id="stop3731-1"
         style="stop-color:#2727d8;stop-opacity:1"
         offset="0" />
      <stop
         id="stop3733-2"
         style="stop-color:#5e5ee2;stop-opacity:1"
         offset="1" />
    </linearGradient>
    <linearGradient
       x1="53.89452"
       y1="46.00061"
       x2="53.89452"
       y2="12.192646"
       id="linearGradient4322"
       xlink:href="#linearGradient3729-6"
       gradientUnits="userSpaceOnUse"
       gradientTransform="translate(77.466573,18.927569)" />
    <linearGradient
       x1="53.89452"
       y1="46.00061"
       x2="53.89452"
       y2="12.192646"
       id="linearGradient4359"
       xlink:href="#linearGradient3729"
       gradientUnits="userSpaceOnUse"
       gradientTransform="translate(-6.3695831,18.92757)" />
    <linearGradient
       x1="53.89452"
       y1="46.00061"
       x2="53.89452"
       y2="12.192646"
       id="linearGradient4361"
       xlink:href="#linearGradient3729"
       gradientUnits="userSpaceOnUse"
       gradientTransform="translate(-6.3695831,18.92757)" />
    <linearGradient
       id="linearGradient3737-9">
      <stop
         id="stop3739-2"
         style="stop-color:#ffffff;stop-opacity:1"
         offset="0" />
      <stop
         id="stop3741-1"
         style="stop-color:#ffffff;stop-opacity:0"
         offset="1" />
    </linearGradient>
    <clipPath
       id="clipPath3613">
      <rect
         width="84"
         height="84"
         rx="6"
         ry="6"
         x="6"
         y="6"
         id="rect3615"
         style="fill:#ffffff;fill-opacity:1;fill-rule:nonzero;stroke:none" />
    </clipPath>
    <filter
       x="-0.192"
       y="-0.192"
       width="1.3839999"
       height="1.3839999"
       color-interpolation-filters="sRGB"
       id="filter3794">
      <feGaussianBlur
         id="feGaussianBlur3796"
         stdDeviation="5.28" />
    </filter>
    <linearGradient
       x1="48"
       y1="20.220806"
       x2="48"
       y2="138.66119"
       id="linearGradient4343"
       xlink:href="#linearGradient3737-9"
       gradientUnits="userSpaceOnUse" />
    <radialGradient
       inkscape:collect="always"
       xlink:href="#linearGradient3737-0"
       id="radialGradient3158"
       gradientUnits="userSpaceOnUse"
       gradientTransform="matrix(1.1573129,0,0,0.99590774,-7.551021,0.1971319)"
       cx="48"
       cy="90.171875"
       fx="48"
       fy="90.171875"
       r="42" />
    <linearGradient
       inkscape:collect="always"
       xlink:href="#linearGradient3737-1"
       id="linearGradient3161"
       gradientUnits="userSpaceOnUse"
       x1="36.357143"
       y1="6"
       x2="36.357143"
       y2="63.893143" />
    <linearGradient
       inkscape:collect="always"
       xlink:href="#linearGradient3700"
       id="linearGradient3164"
       gradientUnits="userSpaceOnUse"
       gradientTransform="translate(0.38268553,-0.19134276)"
       x1="48"
       y1="90"
       x2="48"
       y2="5.9877172" />
    <linearGradient
       gradientTransform="matrix(0.972433,0,0,1.000366,0.408593,-0.04683931)"
       gradientUnits="userSpaceOnUse"
       xlink:href="#linearGradient2768"
       id="linearGradient2905"
       y2="238.43137"
       x2="239.17647"
       y1="29.490196"
       x1="27.490196" />
    <linearGradient
       id="linearGradient2768">
      <stop
         id="stop2770"
         offset="0"
         style="stop-color:white;stop-opacity:1" />
      <stop
         id="stop2772"
         offset="1"
         style="stop-color:#d6d6d6;stop-opacity:1" />
    </linearGradient>
    <inkscape:perspective
       id="perspective3182"
       inkscape:persp3d-origin="128 : 85.333333 : 1"
       inkscape:vp_z="256 : 128 : 1"
       inkscape:vp_y="0 : 1000 : 0"
       inkscape:vp_x="0 : 128 : 1"
       sodipodi:type="inkscape:persp3d" />
    <linearGradient
       inkscape:collect="always"
       xlink:href="#linearGradient2768"
       id="linearGradient3199"
       gradientUnits="userSpaceOnUse"
       gradientTransform="matrix(0.31518178,0,0,0.32423534,-143.71959,3.37361)"
       x1="27.490196"
       y1="29.490196"
       x2="239.17647"
       y2="238.43137" />
    <linearGradient
       inkscape:collect="always"
       xlink:href="#linearGradient3729"
       id="linearGradient3209"
       gradientUnits="userSpaceOnUse"
       gradientTransform="translate(-6.3695831,18.92757)"
       x1="53.89452"
       y1="46.00061"
       x2="53.89452"
       y2="12.192646" />
    <linearGradient
       inkscape:collect="always"
       xlink:href="#linearGradient3729"
       id="linearGradient3211"
       gradientUnits="userSpaceOnUse"
       gradientTransform="translate(-6.3695831,18.92757)"
       x1="53.89452"
       y1="46.00061"
       x2="53.89452"
       y2="12.192646" />
    <linearGradient
       inkscape:collect="always"
       xlink:href="#linearGradient3729"
       id="linearGradient4510"
       x1="52.3125"
       y1="-37.782482"
       x2="82.140625"
       y2="-37.782482"
       gradientUnits="userSpaceOnUse" />
    <inkscape:perspective
       id="perspective4520"
       inkscape:persp3d-origin="0.5 : 0.33333333 : 1"
       inkscape:vp_z="1 : 0.5 : 1"
       inkscape:vp_y="0 : 1000 : 0"
       inkscape:vp_x="0 : 0.5 : 1"
       sodipodi:type="inkscape:persp3d" />
    <linearGradient
       inkscape:collect="always"
       xlink:href="#linearGradient3729-2"
       id="linearGradient4510-9"
       x1="52.3125"
       y1="-37.782482"
       x2="82.140625"
       y2="-37.782482"
       gradientUnits="userSpaceOnUse" />
    <linearGradient
       id="linearGradient3729-2">
      <stop
         id="stop3731-8"
         style="stop-color:#2f55cf;stop-opacity:1"
         offset="0" />
      <stop
         id="stop3733-6"
         style="stop-color:#6480dc;stop-opacity:1"
         offset="1" />
    </linearGradient>
    <linearGradient
       inkscape:collect="always"
       xlink:href="#linearGradient3729-2"
       id="linearGradient4528"
       x1="52.3125"
       y1="-37.782482"
       x2="82.140625"
       y2="-37.782482"
       gradientUnits="userSpaceOnUse" />
    <linearGradient
       id="linearGradient4530">
      <stop
         id="stop4532"
         style="stop-color:#2f55cf;stop-opacity:1"
         offset="0" />
      <stop
         id="stop4534"
         style="stop-color:#6480dc;stop-opacity:1"
         offset="1" />
    </linearGradient>
    <linearGradient
       inkscape:collect="always"
       xlink:href="#linearGradient3729-2"
       id="linearGradient4536"
       x1="52.3125"
       y1="-37.782482"
       x2="82.140625"
       y2="-37.782482"
       gradientUnits="userSpaceOnUse" />
    <linearGradient
       id="linearGradient4538">
      <stop
         id="stop4540"
         style="stop-color:#2f55cf;stop-opacity:1"
         offset="0" />
      <stop
         id="stop4542"
         style="stop-color:#6480dc;stop-opacity:1"
         offset="1" />
    </linearGradient>
    <linearGradient
       inkscape:collect="always"
       xlink:href="#linearGradient3729-2"
       id="linearGradient4544"
       x1="52.3125"
       y1="-37.782482"
       x2="82.140625"
       y2="-37.782482"
       gradientUnits="userSpaceOnUse" />
    <linearGradient
       id="linearGradient4546">
      <stop
         id="stop4548"
         style="stop-color:#2f55cf;stop-opacity:1"
         offset="0" />
      <stop
         id="stop4550"
         style="stop-color:#6480dc;stop-opacity:1"
         offset="1" />
    </linearGradient>
    <linearGradient
       y2="-37.782482"
       x2="82.140625"
       y1="-37.782482"
       x1="52.3125"
       gradientUnits="userSpaceOnUse"
       id="linearGradient4558"
       xlink:href="#linearGradient3729-2"
       inkscape:collect="always" />
    <inkscape:perspective
       id="perspective4627"
       inkscape:persp3d-origin="0.5 : 0.33333333 : 1"
       inkscape:vp_z="1 : 0.5 : 1"
       inkscape:vp_y="0 : 1000 : 0"
       inkscape:vp_x="0 : 0.5 : 1"
       sodipodi:type="inkscape:persp3d" />
    <linearGradient
       y2="-37.782482"
       x2="82.140625"
       y1="-37.782482"
       x1="52.3125"
       gradientUnits="userSpaceOnUse"
       id="linearGradient4558-7"
       xlink:href="#linearGradient3729-2-2"
       inkscape:collect="always" />
    <linearGradient
       id="linearGradient3729-2-2">
      <stop
         id="stop3731-8-4"
         style="stop-color:#2f55cf;stop-opacity:1"
         offset="0" />
      <stop
         id="stop3733-6-9"
         style="stop-color:#6480dc;stop-opacity:1"
         offset="1" />
    </linearGradient>
    <inkscape:perspective
       id="perspective4670"
       inkscape:persp3d-origin="0.5 : 0.33333333 : 1"
       inkscape:vp_z="1 : 0.5 : 1"
       inkscape:vp_y="0 : 1000 : 0"
       inkscape:vp_x="0 : 0.5 : 1"
       sodipodi:type="inkscape:persp3d" />
    <linearGradient
       y2="-37.782482"
       x2="82.140625"
       y1="-37.782482"
       x1="52.3125"
       gradientUnits="userSpaceOnUse"
       id="linearGradient4558-7-7"
       xlink:href="#linearGradient3729-2-2-1"
       inkscape:collect="always" />
    <linearGradient
       id="linearGradient3729-2-2-1">
      <stop
         id="stop3731-8-4-6"
         style="stop-color:#2f55cf;stop-opacity:1"
         offset="0" />
      <stop
         id="stop3733-6-9-2"
         style="stop-color:#6480dc;stop-opacity:1"
         offset="1" />
    </linearGradient>
    <linearGradient
       inkscape:collect="always"
       xlink:href="#linearGradient3729"
       id="linearGradient4750"
       gradientUnits="userSpaceOnUse"
       x1="52.3125"
       y1="-37.782482"
       x2="82.140625"
       y2="-37.782482" />
    <linearGradient
       inkscape:collect="always"
       xlink:href="#linearGradient3729"
       id="linearGradient4752"
       gradientUnits="userSpaceOnUse"
       x1="52.3125"
       y1="-37.782482"
       x2="82.140625"
       y2="-37.782482" />
    <linearGradient
       inkscape:collect="always"
       xlink:href="#linearGradient3729"
       id="linearGradient4754"
       gradientUnits="userSpaceOnUse"
       x1="52.3125"
       y1="-37.782482"
       x2="82.140625"
       y2="-37.782482" />
    <linearGradient
       inkscape:collect="always"
       xlink:href="#linearGradient3729"
       id="linearGradient4756"
       gradientUnits="userSpaceOnUse"
       x1="52.3125"
       y1="-37.782482"
       x2="82.140625"
       y2="-37.782482" />
  </defs>
  <metadata
     id="metadata2413">
    <rdf:RDF>
      <cc:Work
         rdf:about="">
        <dc:format>image/svg+xml</dc:format>
        <dc:type
           rdf:resource="http://purl.org/dc/dcmitype/StillImage" />
        <dc:title></dc:title>
      </cc:Work>
    </rdf:RDF>
  </metadata>
  <g
     id="layer2"
     style="display:none">
    <rect
       width="86"
       height="85"
       rx="6"
       ry="6"
       x="5"
       y="7"
       id="rect3745"
       style="opacity:0.9;fill:url(#ButtonShadow);fill-opacity:1;fill-rule:nonzero;stroke:none;filter:url(#filter3174)" />
  </g>
  <g
     id="layer6"
     style="display:inline">
    <path
       d="m 12,-95.03125 c -5.5110903,0 -10.03125,4.52016 -10.03125,10.03125 l 0,71 c 0,5.5110902 4.5201598,10.03125 10.03125,10.03125 l 72,0 c 5.51109,0 10.03125,-4.5201597 10.03125,-10.03125 l 0,-71 c 0,-5.51109 -4.52016,-10.03125 -10.03125,-10.03125 l -72,0 z"
       transform="scale(1,-1)"
       id="path3786"
       style="opacity:0.07999998;fill:url(#linearGradient3760);fill-opacity:1;fill-rule:nonzero;stroke:none;display:inline" />
    <path
       d="m 12,-94.03125 c -4.971633,0 -9.03125,4.059617 -9.03125,9.03125 l 0,71 c 0,4.9716329 4.0596171,9.03125 9.03125,9.03125 l 72,0 c 4.971633,0 9.03125,-4.059617 9.03125,-9.03125 l 0,-71 c 0,-4.971633 -4.059617,-9.03125 -9.03125,-9.03125 l -72,0 z"
       transform="scale(1,-1)"
       id="path3778"
       style="opacity:0.1;fill:url(#linearGradient3780);fill-opacity:1;fill-rule:nonzero;stroke:none;display:inline" />
    <path
       d="m 12,-93 c -4.4091333,0 -8,3.590867 -8,8 l 0,71 c 0,4.4091333 3.5908667,8 8,8 l 72,0 c 4.409133,0 8,-3.5908667 8,-8 l 0,-71 c 0,-4.409133 -3.590867,-8 -8,-8 l -72,0 z"
       transform="scale(1,-1)"
       id="path3770"
       style="opacity:0.2;fill:url(#linearGradient3772);fill-opacity:1;fill-rule:nonzero;stroke:none;display:inline" />
    <rect
       width="86"
       height="85"
       rx="7"
       ry="7"
       x="5"
       y="-92"
       transform="scale(1,-1)"
       id="rect3723"
       style="opacity:0.3;fill:url(#linearGradient3725);fill-opacity:1;fill-rule:nonzero;stroke:none;display:inline" />
    <rect
       width="84"
       height="84"
       rx="6"
       ry="6"
       x="6"
       y="-91"
       transform="scale(1,-1)"
       id="rect3716"
       style="opacity:0.45;fill:url(#linearGradient3721);fill-opacity:1;fill-rule:nonzero;stroke:none;display:inline" />
  </g>
  <rect
     style="fill:url(#linearGradient3164);fill-opacity:1;fill-rule:nonzero;stroke:none"
     id="rect2419"
     y="5.8086572"
     x="6.3826857"
     ry="6"
     rx="6"
     height="84"
     width="84" />
  <path
     style="opacity:0.5;fill:url(#linearGradient3161);fill-opacity:1;fill-rule:nonzero;stroke:none;display:inline"
     id="rect3728"
     inkscape:connector-curvature="0"
     d="M 12,6 C 8.676,6 6,8.676 6,12 l 0,2 0,68 0,2 c 0,0.334721 0.04135,0.6507 0.09375,0.96875 0.0487,0.295596 0.09704,0.596915 0.1875,0.875 0.0099,0.03038 0.02089,0.0636 0.03125,0.09375 0.09886,0.287771 0.23488,0.547452 0.375,0.8125 0.144592,0.273507 0.315616,0.535615 0.5,0.78125 0.184384,0.245635 0.373776,0.473472 0.59375,0.6875 0.439947,0.428056 0.94291,0.814526 1.5,1.09375 0.278545,0.139612 0.573473,0.246947 0.875,0.34375 -0.256202,-0.100222 -0.486711,-0.236272 -0.71875,-0.375 -0.0074,-0.0044 -0.02387,0.0045 -0.03125,0 -0.03193,-0.0193 -0.06229,-0.04251 -0.09375,-0.0625 -0.120395,-0.0767 -0.231023,-0.163513 -0.34375,-0.25 -0.106173,-0.0808 -0.213281,-0.161112 -0.3125,-0.25 C 8.47832,88.557317 8.30879,88.373362 8.15625,88.1875 8.048671,88.057245 7.937856,87.922215 7.84375,87.78125 7.81866,87.74287 7.8053,87.69538 7.78125,87.65625 7.71649,87.553218 7.651022,87.451733 7.59375,87.34375 7.492742,87.149044 7.388075,86.928049 7.3125,86.71875 7.3045,86.69694 7.28891,86.6782 7.28125,86.65625 7.24942,86.5643 7.24545,86.469419 7.21875,86.375 7.188418,86.268382 7.148361,86.171969 7.125,86.0625 7.052121,85.720988 7,85.364295 7,85 L 7,83 7,15 7,13 C 7,10.218152 9.218152,8 12,8 l 2,0 68,0 2,0 c 2.781848,0 5,2.218152 5,5 l 0,2 0,68 0,2 c 0,0.364295 -0.05212,0.720988 -0.125,1.0625 -0.04415,0.206893 -0.08838,0.397658 -0.15625,0.59375 -0.0077,0.02195 -0.0233,0.04069 -0.03125,0.0625 -0.06274,0.173739 -0.138383,0.367449 -0.21875,0.53125 -0.04158,0.0828 -0.07904,0.169954 -0.125,0.25 -0.0546,0.09721 -0.126774,0.18835 -0.1875,0.28125 -0.09411,0.140965 -0.204921,0.275995 -0.3125,0.40625 -0.143174,0.17445 -0.303141,0.346998 -0.46875,0.5 -0.01117,0.0102 -0.01998,0.02115 -0.03125,0.03125 -0.138386,0.125556 -0.285091,0.234436 -0.4375,0.34375 -0.102571,0.07315 -0.204318,0.153364 -0.3125,0.21875 -0.0074,0.0045 -0.02384,-0.0044 -0.03125,0 -0.232039,0.138728 -0.462548,0.274778 -0.71875,0.375 0.301527,-0.0968 0.596455,-0.204138 0.875,-0.34375 0.55709,-0.279224 1.060053,-0.665694 1.5,-1.09375 0.219973,-0.214028 0.409366,-0.441865 0.59375,-0.6875 0.184384,-0.245635 0.355408,-0.507743 0.5,-0.78125 0.14012,-0.265048 0.276135,-0.524729 0.375,-0.8125 0.01041,-0.03078 0.02133,-0.06274 0.03125,-0.09375 0.09046,-0.278085 0.1388,-0.579404 0.1875,-0.875 C 89.95865,84.6507 90,84.334721 90,84 l 0,-2 0,-68 0,-2 C 90,8.676 87.324,6 84,6 L 12,6 z" />
  <path
     style="opacity:0.4;fill:url(#radialGradient3158);fill-opacity:1;fill-rule:nonzero;stroke:none;display:inline"
     id="path3615"
     inkscape:connector-curvature="0"
     d="M 12,90 C 8.676,90 6,87.324 6,84 L 6,82 6,14 6,12 c 0,-0.334721 0.04135,-0.6507 0.09375,-0.96875 0.0487,-0.295596 0.09704,-0.596915 0.1875,-0.875 C 6.29113,10.12587 6.302142,10.09265 6.3125,10.0625 6.411365,9.774729 6.5473802,9.515048 6.6875,9.25 6.8320918,8.976493 7.0031161,8.714385 7.1875,8.46875 7.3718839,8.223115 7.5612765,7.995278 7.78125,7.78125 8.221197,7.353194 8.72416,6.966724 9.28125,6.6875 9.559795,6.547888 9.8547231,6.440553 10.15625,6.34375 9.9000482,6.443972 9.6695391,6.580022 9.4375,6.71875 c -0.00741,0.0044 -0.023866,-0.0045 -0.03125,0 -0.031933,0.0193 -0.062293,0.04251 -0.09375,0.0625 -0.120395,0.0767 -0.2310226,0.163513 -0.34375,0.25 -0.1061728,0.0808 -0.2132809,0.161112 -0.3125,0.25 C 8.4783201,7.442683 8.3087904,7.626638 8.15625,7.8125 8.0486711,7.942755 7.9378561,8.077785 7.84375,8.21875 7.818661,8.25713 7.805304,8.30462 7.78125,8.34375 7.716487,8.446782 7.6510225,8.548267 7.59375,8.65625 7.4927417,8.850956 7.3880752,9.071951 7.3125,9.28125 7.30454,9.30306 7.288911,9.3218 7.28125,9.34375 7.2494249,9.4357 7.2454455,9.530581 7.21875,9.625 7.1884177,9.731618 7.1483606,9.828031 7.125,9.9375 7.0521214,10.279012 7,10.635705 7,11 l 0,2 0,68 0,2 c 0,2.781848 2.2181517,5 5,5 l 2,0 68,0 2,0 c 2.781848,0 5,-2.218152 5,-5 l 0,-2 0,-68 0,-2 C 89,10.635705 88.94788,10.279012 88.875,9.9375 88.83085,9.730607 88.78662,9.539842 88.71875,9.34375 88.71105,9.3218 88.69545,9.30306 88.6875,9.28125 88.62476,9.107511 88.549117,8.913801 88.46875,8.75 88.42717,8.6672 88.38971,8.580046 88.34375,8.5 88.28915,8.40279 88.216976,8.31165 88.15625,8.21875 88.06214,8.077785 87.951329,7.942755 87.84375,7.8125 87.700576,7.63805 87.540609,7.465502 87.375,7.3125 87.36383,7.3023 87.35502,7.29135 87.34375,7.28125 87.205364,7.155694 87.058659,7.046814 86.90625,6.9375 86.803679,6.86435 86.701932,6.784136 86.59375,6.71875 c -0.0074,-0.0045 -0.02384,0.0044 -0.03125,0 -0.232039,-0.138728 -0.462548,-0.274778 -0.71875,-0.375 0.301527,0.0968 0.596455,0.204138 0.875,0.34375 0.55709,0.279224 1.060053,0.665694 1.5,1.09375 0.219973,0.214028 0.409366,0.441865 0.59375,0.6875 0.184384,0.245635 0.355408,0.507743 0.5,0.78125 0.14012,0.265048 0.276135,0.524729 0.375,0.8125 0.01041,0.03078 0.02133,0.06274 0.03125,0.09375 0.09046,0.278085 0.1388,0.579404 0.1875,0.875 C 89.95865,11.3493 90,11.665279 90,12 l 0,2 0,68 0,2 c 0,3.324 -2.676,6 -6,6 l -72,0 z" />
  <g
     id="layer5"
     style="display:inline">
    <rect
       width="66"
       height="66"
       rx="12"
       ry="12"
       x="15"
       y="15"
       clip-path="url(#clipPath3613)"
       id="rect3171"
       style="opacity:0.5;fill:url(#linearGradient4343);fill-opacity:1;fill-rule:nonzero;stroke:#ffffff;stroke-width:0.5;stroke-linecap:round;stroke-linejoin:miter;stroke-miterlimit:4;stroke-opacity:1;stroke-dasharray:none;stroke-dashoffset:0;display:inline;filter:url(#filter3794)" />
  </g>
  <path
     d="m 11.993645,43.84243 c 1.064254,-0.0044 2.336615,-0.323468 2.448035,1.113136 0.411956,0.584364 0.821884,3.066324 1.236314,1.311897 0.576373,-0.721106 0.473127,-2.472358 1.556455,-2.425033 1.467358,-0.407346 1.652166,0.467872 1.451872,1.728184 0,1.429188 0,2.858379 0,4.287565 -1.466488,0.401536 -1.673692,-0.456202 -1.466668,-1.728181 -0.103385,-0.558638 0.22701,-3.235759 -0.203723,-2.195068 -0.491426,0.862145 -0.686965,2.172497 -1.355174,2.766837 -1.297284,0.334299 -1.197837,-1.447186 -1.76107,-2.22483 -0.615636,-1.946779 -0.406925,0.133311 -0.43534,1.055063 -0.209379,0.85405 0.615955,2.742801 -0.864098,2.326179 -1.221475,0.155183 -0.339895,-1.792687 -0.606603,-2.592276 0,-1.141155 0,-2.282316 0,-3.423473 z m 10.178026,3.984979 c -2.423187,0.390077 0.993074,2.31481 0.749452,0 -0.249821,0 -0.499642,0 -0.749452,0 z m 2.20403,-0.543954 c -0.256752,0.831916 0.629425,2.806763 -0.691274,2.574724 -1.261439,0.07284 -0.432516,-1.078014 -1.817984,0.07051 -3.593299,0.238816 -1.626946,-4.08047 1.05468,-2.95952 -0.228518,-1.558271 -4.213722,0.164347 -2.251382,-1.601643 1.49537,-0.33587 3.92639,-0.232359 3.70596,1.915929 z m 4.702187,-0.709161 c -2.201451,-0.881367 -1.948457,1.915045 -1.909884,3.283885 -1.46791,0.411024 -1.638505,-0.475278 -1.442489,-1.728181 0.226703,-0.816726 -0.457895,-2.544738 0.345638,-2.784638 1.602012,-0.38001 0.689162,1.435792 2.131374,-0.05741 1.241197,-0.392732 0.796145,0.516239 0.875361,1.286349 z m 3.868137,2.212088 c 1.549259,0.458941 1.476519,-0.704121 1.369961,-1.901002 0.0021,-1.067871 0.34794,-2.55838 -1.184782,-1.742851 -0.895209,-0.620308 0.393116,-1.498288 1.349539,-1.300099 1.546626,-0.478984 1.371955,0.763319 1.301911,1.901002 0.119656,0.95226 -0.236787,2.380635 0.172813,3.04295 1.315646,-0.683628 1.811456,1.501265 0.333059,1.071797 -1.114163,0 -2.228337,0 -3.342501,0 0,-0.357262 0,-0.714532 0,-1.071797 z m 8.61465,-2.171795 c 3.933936,1.839596 -2.326914,5.134174 -3.291944,2.54382 -0.423218,-1.319809 4.152497,0.825887 2.643223,-1.685577 -2.4001,0.16873 -1.764838,-1.63081 0.125919,-1.626829 0.361261,-1.961792 -4.12593,-0.08703 -2.053943,-1.967304 1.916794,-0.94445 5.639832,1.093489 2.576745,2.73589 z m -26.528929,8.481685 c 0.459275,-3.036893 -2.724583,-1.915741 -1.836103,0.52809 -0.0605,2.606991 2.37039,1.432811 1.836103,-0.52809 z m 1.551275,0.01208 c 0.666809,4.294284 -6.035176,3.738392 -4.941934,-0.363957 -0.202704,-3.900145 5.564279,-3.420047 4.941934,0.363957 z m 1.216858,2.86886 c -0.704436,-2.327056 3.15453,0.552548 2.91318,-2.29267 -3.690749,2.382576 -4.529097,-4.777817 -0.436168,-3.641227 3.64774,1.052026 1.710683,7.672568 -2.102291,6.042691 l -0.374721,-0.108794 z m 1.913917,-2.897067 c 2.553458,-0.864086 -1.33144,-3.687579 -0.766583,-0.593313 0.05657,0.356809 0.408559,0.625394 0.766583,0.593313 z m 3.92051,-1.482781 c 1.340749,-0.336107 1.707986,0.301293 1.454578,1.559338 -1.595793,0.188852 -1.555426,-0.04489 -1.454578,-1.559338 z m 0,2.953479 c 1.340749,-0.336108 1.707986,0.301292 1.454578,1.559341 -1.595793,0.188846 -1.555426,-0.04489 -1.454578,-1.559341 z m 6.176921,-1.45458 c 0.459275,-3.036893 -2.724583,-1.91574 -1.836103,0.528091 -0.0605,2.606991 2.370401,1.43281 1.836103,-0.528091 z m 1.551276,0.01208 c 0.666808,4.294284 -6.035177,3.738392 -4.941934,-0.363956 -0.202704,-3.900146 5.564278,-3.420047 4.941934,0.363956 z m 3.263742,0.310254 c -3.607798,2.265909 3.488131,2.328433 0,0 z m -1.13224,-0.511718 c -4.405874,-3.028026 5.831529,-4.343511 2.732873,-0.209522 -0.578168,0.115337 1.905203,2.080906 0.160171,3.074354 -2.110199,1.714417 -6.343823,-1.066056 -2.893044,-2.864832 z m 0.362642,-1.204765 c 1.89168,2.980398 1.933129,-2.892114 0,0 z m 4.55714,-0.104754 c 1.340739,-0.336108 1.707987,0.301292 1.454579,1.559338 -1.595793,0.188852 -1.555437,-0.04489 -1.454579,-1.559338 z m 0,2.953478 c 1.340739,-0.336107 1.707987,0.301293 1.454579,1.559342 -1.595793,0.188845 -1.555437,-0.04489 -1.454579,-1.559342 z m 5.419413,-3.17912 c -0.411733,0.787651 -1.56828,1.971101 -1.527552,2.518312 1.462826,0.377575 1.762184,-0.408305 1.527552,-1.728184 0,-0.263373 0,-0.526753 0,-0.790128 z m -0.257877,-1.277288 c 1.341832,-0.248538 2.090096,0.09651 1.724546,1.555364 0.01932,1.071117 -0.30853,2.489391 0.858239,2.413057 0.253791,1.279927 -1.190832,0.861427 -1.031063,2.047329 -1.738302,0.711273 -0.757827,-1.296237 -1.985119,-1.095973 -1.066293,0.0044 -2.47594,0.352043 -1.976128,-1.20973 0.666266,-1.272399 1.631849,-2.47145 2.409525,-3.710047 z m 3.831868,0 c 1.285342,0 2.570695,0 3.856043,0 0.503624,1.574991 -1.057627,1.085111 -2.073819,1.14029 -2.203945,1.171381 2.719713,0.419928 2.470703,2.448813 0.969036,2.70941 -4.814153,3.71935 -4.490658,1.107684 0.730378,0.813746 4.544589,0.07469 2.268497,-1.598254 -1.873588,0.415086 -2.311698,0.113701 -2.030766,-1.787741 0,-0.436933 0,-0.873863 0,-1.310792 z M 12.203173,65.290421 c 1.549259,0.458937 1.476519,-0.704125 1.369961,-1.901002 0.0021,-1.067876 0.34794,-2.55838 -1.184782,-1.742851 -0.895209,-0.620308 0.393116,-1.498288 1.349539,-1.300103 1.546626,-0.478984 1.371955,0.763318 1.301911,1.901001 0.119656,0.952264 -0.236787,2.38064 0.172813,3.042955 1.315647,-0.683628 1.811457,1.501265 0.333059,1.071797 -1.114163,0 -2.228337,0 -3.342501,0 0,-0.35727 0,-0.714532 0,-1.071797 z m 8.566302,-1.942124 c 0.459275,-3.036896 -2.724583,-1.915743 -1.836103,0.52809 -0.0605,2.606992 2.37039,1.432811 1.836103,-0.52809 z m 1.551275,0.01208 c 0.666808,4.294284 -6.035177,3.738391 -4.941934,-0.363958 -0.202704,-3.900145 5.564279,-3.42005 4.941934,0.363958 z m 1.232971,1.442488 c 1.341036,-0.337743 1.702382,0.304215 1.450545,1.559343 -1.597459,0.19035 -1.548973,-0.04792 -1.450545,-1.559343 z m 3.267765,0.487546 c 1.549259,0.458937 1.476518,-0.704125 1.36996,-1.901001 0.0021,-1.067876 0.347941,-2.55838 -1.184781,-1.742851 -0.895209,-0.620309 0.393115,-1.498289 1.349538,-1.300104 1.546627,-0.478984 1.371956,0.763319 1.301911,1.901002 0.119657,0.952265 -0.236786,2.380639 0.172814,3.042954 1.315646,-0.683628 1.811456,1.501265 0.333059,1.071797 -1.114174,0 -2.228338,0 -3.342501,0 0,-0.357269 0,-0.714531 0,-1.071797 z m 8.566301,-1.942124 c 0.459275,-3.036896 -2.724583,-1.915743 -1.836114,0.528091 -0.0605,2.606992 2.370401,1.43281 1.836114,-0.528091 z m 1.551276,0.01208 c 0.666797,4.294284 -6.035177,3.738391 -4.941935,-0.363958 -0.202714,-3.900145 5.564279,-3.42005 4.941935,0.363958 z m 1.23297,1.442487 c 1.341036,-0.337742 1.702372,0.304216 1.450545,1.559344 -1.597459,0.190349 -1.548972,-0.04792 -1.450545,-1.559344 z m 3.267765,0.487547 c 1.549259,0.458936 1.476518,-0.704126 1.36996,-1.901002 0.0021,-1.067876 0.34793,-2.55838 -1.184781,-1.742851 -0.895209,-0.620309 0.393116,-1.498289 1.349538,-1.300103 1.546627,-0.478984 1.371956,0.763318 1.301912,1.901001 0.119656,0.952265 -0.236787,2.38064 0.172813,3.042955 1.315646,-0.683628 1.811456,1.501265 0.333059,1.071797 -1.114174,0 -2.228337,0 -3.342501,0 0,-0.357269 0,-0.714532 0,-1.071797 z m 8.566295,-1.942124 c 0.459281,-3.036895 -2.724577,-1.91574 -1.836107,0.528091 -0.0605,2.606991 2.370397,1.43281 1.836107,-0.528091 z m 1.551281,0.01208 c 0.666804,4.294284 -6.035176,3.738391 -4.941944,-0.363958 -0.202704,-3.900145 5.564285,-3.42005 4.941944,0.363958 z m 1.232965,1.442487 c 1.34104,-0.337742 1.70238,0.304216 1.450551,1.559344 -1.597462,0.19035 -1.548971,-0.04792 -1.450551,-1.559344 z m 4.678023,0.41905 c 0.788877,0.266356 2.693481,-0.583012 2.647253,0.518455 0.168094,1.239468 -1.785926,0.356818 -2.592277,0.621839 -1.062539,0.162401 -2.395501,0.08111 -1.649948,-1.254653 0.900399,-1.032017 2.701263,-1.710436 2.571067,-3.253129 -0.928092,-1.595764 -3.294705,1.202949 -2.684521,-1.262185 2.872599,-1.856487 6.280904,1.83481 2.734007,3.729472 -0.341857,0.300067 -0.68372,0.600131 -1.025581,0.900201 z m 7.156041,-1.873627 c 0.459285,-3.036895 -2.724581,-1.915743 -1.836104,0.528092 -0.06053,2.606986 2.370398,1.432809 1.836104,-0.528092 z m 1.551283,0.01208 c 0.666805,4.294284 -6.035183,3.738391 -4.941939,-0.363957 -0.202706,-3.900146 5.564278,-3.420043 4.941939,0.363957 z m -54.246503,4.9843 c 1.467911,-0.411021 1.638505,0.475278 1.442489,1.728185 -0.186984,1.530635 0.08629,1.952018 1.10114,0.586163 0.220174,-0.828389 3.005238,-0.819743 1.73136,-0.0842 -0.477596,0.736457 -2.432124,1.440065 -1.097489,2.216816 0.314909,0.588055 2.576724,1.997849 1.083233,1.822634 -1.205012,0.37175 -1.72998,-0.824202 -2.474411,-1.514242 -0.929812,-0.950351 0.440541,2.340275 -1.207931,1.514242 -1.187764,0.130883 -0.308784,-1.804992 -0.578391,-2.592273 0,-1.225779 0,-2.451551 0,-3.677323 z m 9.775082,4.001098 c -0.14425,0.914448 -1.947332,0.17005 -2.765087,0.410989 -1.902443,0.64972 2.225694,1.429783 2.551535,0.644246 0.09097,2.660733 -5.778902,1.254909 -4.588113,-1.561666 0.384157,-2.712853 5.059033,-2.345359 4.801665,0.506431 z m -1.482781,-0.479487 c -0.342814,-2.303751 -3.875493,0.585413 0,0 z m 5.923078,-0.535897 c -2.201451,-0.881369 -1.948457,1.915042 -1.909894,3.283882 -1.467911,0.411024 -1.638505,-0.475275 -1.442489,-1.728184 0.226703,-0.816719 -0.457885,-2.544735 0.345637,-2.784635 1.602023,-0.38001 0.689162,1.435796 2.131375,-0.05741 1.241207,-0.392733 0.796145,0.516239 0.875371,1.286352 z m 5.262267,0.535897 c -0.253823,0.834994 0.562957,2.740586 -0.518451,2.747985 -1.468207,0.456402 -0.783599,-1.239994 -0.932094,-2.103299 -0.190253,-3.057805 -2.317955,-0.04248 -1.643961,1.611339 -0.03036,1.046879 -2.185912,0.57772 -1.442489,-0.717769 0,-1.10103 0,-2.20206 0,-3.30309 1.805269,-0.194821 1.247067,0.942696 2.945427,-0.108789 1.042611,-0.08788 1.668745,0.925666 1.591568,1.873623 z m 5.850549,0.479487 c -0.14425,0.914448 -1.947342,0.17005 -2.765098,0.410989 -1.902443,0.64972 2.225706,1.429783 2.551547,0.644246 0.09096,2.660733 -5.778913,1.254909 -4.588124,-1.561666 0.384157,-2.712853 5.059043,-2.345359 4.801675,0.506431 z m -1.482781,-0.479487 c -0.342824,-2.303751 -3.875493,0.585413 0,0 z m 2.570695,-3.521611 c 1.46791,-0.411021 1.638505,0.475278 1.442489,1.728185 0,1.513802 0,3.027606 0,4.541411 -1.46791,0.411024 -1.638505,-0.475275 -1.442489,-1.728184 0,-1.513805 0,-3.027607 0,-4.541412 z m 3.066293,1.756777 c 1.340749,-0.336107 1.707987,0.301296 1.454578,1.559341 -1.595782,0.188849 -1.555426,-0.04489 -1.454578,-1.559341 z m 0,2.953478 c 1.340749,-0.336107 1.707987,0.301293 1.454578,1.559341 -1.595782,0.18885 -1.555426,-0.04489 -1.454578,-1.559341 z m 11.290111,-1.865566 c 0.218426,2.911269 -3.412869,0.427152 -4.782784,1.387088 -1.549811,-0.254225 1.739298,-2.201347 2.900085,-0.803846 0.6878,0.21587 1.376259,-0.140956 1.882699,-0.583242 z m 1.700363,3.291939 c -0.704427,-2.327056 3.154533,0.552549 2.913189,-2.29267 -3.69075,2.382576 -4.529103,-4.77782 -0.436173,-3.641231 3.647743,1.05203 1.710687,7.672569 -2.102287,6.04269 l -0.374729,-0.108789 z m 1.91392,-2.897067 c 2.553467,-0.864089 -1.331434,-3.687582 -0.766573,-0.593313 0.0566,0.356805 0.408547,0.625394 0.766573,0.593313 z M 16.764347,82.535824 c -3.721308,2.515286 -7.5312364,-3.848241 -3.204312,-5.583602 1.331303,-1.207291 4.477034,1.000666 2.77619,1.226921 -3.518318,-2.168889 -4.266125,4.931928 -0.422061,3.542759 1.429179,-0.990923 0.658614,0.02518 0.850183,0.813922 z m 4.657872,1.51099 c 0.340446,1.402124 -1.601822,0.521528 -2.419461,0.765566 -1.016224,0.478059 -2.699289,-0.672715 -1.015269,-0.765566 1.144903,0 2.289816,0 3.43473,0 z m 0.757508,-7.196336 c 1.461414,-0.368258 1.796575,0.389736 1.551286,1.728185 0,1.038344 0,2.076692 0,3.115038 0.824242,0.25651 2.72885,-0.567348 2.723808,0.518455 0.194934,1.277057 -1.771365,0.392869 -2.592284,0.654072 -1.34421,0.264821 -2.035729,-0.123057 -1.68281,-1.555364 0,-1.486796 0,-2.973591 0,-4.460386 z m 7.712085,1.015383 c -4.421425,1.379417 1.830785,6.766921 1.470436,1.549774 -0.04585,-0.770303 -0.595872,-1.614249 -1.470436,-1.549774 z m 0,-1.124176 c 4.537546,-0.363899 3.75365,7.497815 -0.684481,6.189513 -3.58727,-0.440191 -3.022668,-6.585905 0.684481,-6.189513 z m 9.670328,5.677289 c -3.810831,2.906545 -8.495578,-3.426986 -3.799632,-5.468768 1.35943,-1.178457 5.023484,0.939573 3.075357,1.233973 -2.982428,-2.160917 -5.073819,3.532542 -1.568397,3.674723 1.786534,-0.182426 0.393975,-1.483616 -0.12491,-1.639046 -0.30163,-1.33879 1.644141,-0.430187 2.417582,-0.693921 0,0.964349 0,1.928693 0,2.893039 z m 4.730399,1.62784 c 0.340447,1.402124 -1.601821,0.521528 -2.41946,0.765566 -1.016214,0.478059 -2.699278,-0.672715 -1.015269,-0.765566 1.144913,0 2.289826,0 3.434729,0 z m 3.670699,-1.071797 c -3.755529,0.610559 -4.535742,-5.744973 -0.849684,-6.181448 3.557781,-1.08014 5.302149,4.511309 2.098767,5.923573 0.945621,0.899008 1.637618,1.684716 -0.169727,1.353848 -0.414575,-0.209005 -0.715887,-0.764516 -1.079356,-1.095973 z m -0.165203,-5.109156 c -3.382825,0.354934 -0.303339,6.51894 1.39716,2.839653 0.263297,-1.070188 0.08237,-2.854456 -1.39716,-2.839653 z m 3.545785,-1.015383 c 1.84811,0 3.696214,0 5.544321,0 0.48722,1.542897 -0.955351,1.156003 -1.994506,1.17253 0,1.614403 0,3.228813 0,4.84322 -1.461413,0.368255 -1.796575,-0.389736 -1.55128,-1.728185 0,-1.038347 0,-2.076695 0,-3.115035 -1.108293,-0.14056 -2.443738,0.577556 -1.998535,-1.17253 z m 9.090107,1.015383 c -4.421425,1.379417 1.830781,6.766921 1.470443,1.549774 -0.04581,-0.770303 -0.595879,-1.614252 -1.470443,-1.549774 z m 0,-1.124176 c 4.537541,-0.363899 3.753652,7.497811 -0.684477,6.189513 -3.587274,-0.440191 -3.022667,-6.585902 0.684477,-6.189513 z m 4.263001,0.108793 c 1.681097,0.148808 4.301513,-0.626666 4.913482,1.518044 0.96062,2.939548 -3.315489,1.571733 -3.362194,3.1018 0.543524,1.352011 -0.735384,1.799031 -1.551288,1.223085 0,-1.947641 0,-3.895287 0,-5.842929 z m 1.551288,1.124177 c -0.686772,1.604316 1.170802,2.523456 1.801094,0.83809 0.02361,-1.018962 -1.128944,-0.821247 -1.801094,-0.83809 z m 4.492665,-1.124177 c 1.461413,-0.368258 1.796578,0.389736 1.551287,1.728185 0,1.429187 0,2.858377 0,4.287565 -1.461412,0.368255 -1.796578,-0.389736 -1.551287,-1.728185 0,-1.429187 7e-6,-2.858377 0,-4.287565 z m 6.72894,4.919778 c -0.861898,0.249415 -2.509998,-0.60855 -2.653576,0.652615 -0.225747,0.848422 -2.547752,0.676335 -1.35403,-0.528999 0.622678,-1.681131 1.24536,-3.362266 1.868047,-5.043394 1.162153,-0.12187 2.248015,-0.134121 2.329657,1.29647 0.582665,1.573093 1.165329,3.146188 1.747997,4.71928 -1.057727,0.03202 -1.848675,0.252033 -1.938095,-1.095972 z m -2.038827,-1.11612 c 1.436752,0.263411 1.943194,-0.13733 1.142782,-1.471028 -0.34817,-1.899904 -0.699571,0.487639 -1.049712,1.201345 l -0.05637,0.163364 -0.03669,0.106319 z"
     style="font-size:22px;font-style:normal;font-variant:normal;font-weight:bold;font-stretch:normal;text-align:start;line-height:100%;writing-mode:lr-tb;text-anchor:start;font-family:Bitstream Vera Sans"
     id="flowRoot2880" />
  <g
     id="g4715"
     transform="translate(-18.343001,33.997718)">
    <flowRoot
       transform="matrix(2.0806777,0,0,2.0806777,-78.895451,72.226453)"
       style="font-size:16px;font-style:normal;font-variant:normal;font-weight:bold;font-stretch:normal;text-align:start;line-height:125%;writing-mode:lr-tb;text-anchor:start;opacity:0.2;fill:none;stroke:#2f55cf;stroke-width:0.62479645;stroke-miterlimit:4;stroke-opacity:1;stroke-dasharray:none;display:inline;font-family:DejaVu Sans;-inkscape-font-specification:DejaVu Sans Bold"
       id="flowRoot3722-7"
       xml:space="preserve"><flowRegion
         style="fill:url(#linearGradient4558);fill-opacity:1"
         id="flowRegion3724-3"><rect
           style="font-size:16px;font-style:normal;font-variant:normal;font-weight:bold;font-stretch:normal;text-align:start;line-height:125%;writing-mode:lr-tb;text-anchor:start;fill:none;stroke:#2f55cf;stroke-width:0.62479645;stroke-miterlimit:4;stroke-opacity:1;stroke-dasharray:none;font-family:DejaVu Sans;-inkscape-font-specification:DejaVu Sans Bold"
           y="-49.622921"
           x="50.84127"
           height="84.078224"
           width="65.910568"
           id="rect3726-5" /></flowRegion><flowPara
         style="fill:none;stroke:#2f55cf;stroke-width:0.62479645;stroke-miterlimit:4;stroke-opacity:1;stroke-dasharray:none"
         id="flowPara3730-3">Log</flowPara></flowRoot>    <g
       id="g4705">
      <flowRoot
         xml:space="preserve"
         id="flowRoot3722-7-9-0"
         style="font-size:16px;font-style:normal;font-variant:normal;font-weight:bold;font-stretch:normal;text-align:start;line-height:125%;writing-mode:lr-tb;text-anchor:start;opacity:0.05;fill:none;stroke:#2f55cf;stroke-width:1.87438929;stroke-miterlimit:4;stroke-opacity:1;stroke-dasharray:none;display:inline;font-family:DejaVu Sans;-inkscape-font-specification:DejaVu Sans Bold"
         transform="matrix(2.0806777,0,0,2.0806777,-78.895451,72.226453)"><flowRegion
           id="flowRegion3724-3-2-4"
           style="fill:url(#linearGradient4558-7-7);fill-opacity:1"><rect
             id="rect3726-5-3-8"
             width="65.910568"
             height="84.078224"
             x="50.84127"
             y="-49.622921"
             style="font-size:16px;font-style:normal;font-variant:normal;font-weight:bold;font-stretch:normal;text-align:start;line-height:125%;writing-mode:lr-tb;text-anchor:start;fill:none;stroke:#2f55cf;stroke-width:1.87438929;stroke-miterlimit:4;stroke-opacity:1;stroke-dasharray:none;font-family:DejaVu Sans;-inkscape-font-specification:DejaVu Sans Bold" /></flowRegion><flowPara
           id="flowPara3730-3-6-2"
           style="fill:none;stroke:#2f55cf;stroke-width:1.87438929;stroke-miterlimit:4;stroke-opacity:1;stroke-dasharray:none">Log</flowPara></flowRoot>      <flowRoot
         xml:space="preserve"
         id="flowRoot3722-7-9"
         style="font-size:16px;font-style:normal;font-variant:normal;font-weight:bold;font-stretch:normal;text-align:start;line-height:125%;writing-mode:lr-tb;text-anchor:start;opacity:0.1;fill:none;stroke:#2f55cf;stroke-width:1.2495929;stroke-miterlimit:4;stroke-opacity:1;stroke-dasharray:none;display:inline;font-family:DejaVu Sans;-inkscape-font-specification:DejaVu Sans Bold"
         transform="matrix(2.0806777,0,0,2.0806777,-78.895451,72.226453)"><flowRegion
           id="flowRegion3724-3-2"
           style="fill:url(#linearGradient4558-7);fill-opacity:1"><rect
             id="rect3726-5-3"
             width="65.910568"
             height="84.078224"
             x="50.84127"
             y="-49.622921"
             style="font-size:16px;font-style:normal;font-variant:normal;font-weight:bold;font-stretch:normal;text-align:start;line-height:125%;writing-mode:lr-tb;text-anchor:start;fill:none;stroke:#2f55cf;stroke-width:1.2495929;stroke-miterlimit:4;stroke-opacity:1;stroke-dasharray:none;font-family:DejaVu Sans;-inkscape-font-specification:DejaVu Sans Bold" /></flowRegion><flowPara
           id="flowPara3730-3-6"
           style="fill:none;stroke:#2f55cf;stroke-width:1.2495929;stroke-miterlimit:4;stroke-opacity:1;stroke-dasharray:none">Log</flowPara></flowRoot>    </g>
  </g>
  <flowRoot
     xml:space="preserve"
     id="flowRoot3722"
     style="font-size:16px;font-style:normal;font-variant:normal;font-weight:bold;font-stretch:normal;text-align:start;line-height:125%;writing-mode:lr-tb;text-anchor:start;fill:url(#linearGradient4756);fill-opacity:1;stroke:none;font-family:DejaVu Sans;-inkscape-font-specification:DejaVu Sans Bold"
     transform="matrix(2.0806777,0,0,2.0806777,-97.238452,106.22417)"><flowRegion
       id="flowRegion3724"
       style="fill:url(#linearGradient4752);fill-opacity:1"><rect
         id="rect3726"
         width="65.910568"
         height="84.078224"
         x="50.84127"
         y="-49.622921"
         style="font-size:16px;font-style:normal;font-variant:normal;font-weight:bold;font-stretch:normal;text-align:start;line-height:125%;writing-mode:lr-tb;text-anchor:start;fill:url(#linearGradient4750);fill-opacity:1;font-family:DejaVu Sans;-inkscape-font-specification:DejaVu Sans Bold" /></flowRegion><flowPara
       id="flowPara3730"
       style="fill:url(#linearGradient4754);fill-opacity:1">Log</flowPara></flowRoot></svg>
