<?xml version="1.0" encoding="UTF-8" standalone="no"?>
<!-- Created with Inkscape (http://www.inkscape.org/) -->

<svg
   xmlns:dc="http://purl.org/dc/elements/1.1/"
   xmlns:cc="http://creativecommons.org/ns#"
   xmlns:rdf="http://www.w3.org/1999/02/22-rdf-syntax-ns#"
   xmlns:svg="http://www.w3.org/2000/svg"
   xmlns="http://www.w3.org/2000/svg"
   xmlns:xlink="http://www.w3.org/1999/xlink"
   xmlns:sodipodi="http://sodipodi.sourceforge.net/DTD/sodipodi-0.dtd"
   xmlns:inkscape="http://www.inkscape.org/namespaces/inkscape"
   width="78"
   height="78"
   id="svg2"
   sodipodi:version="0.32"
   inkscape:version="0.48.1 r9760"
   version="1.0"
   sodipodi:docname="back.svg"
   inkscape:output_extension="org.inkscape.output.svg.inkscape"
   inkscape:export-filename="/home/francesco/neo_freerunner/qtmoko/themes/faenqomod/svg/faenqomod_pics (copia)/icons/i18n/en_US/back.png"
   inkscape:export-xdpi="90"
   inkscape:export-ydpi="90">
  <defs
     id="defs4">
    <linearGradient
       gradientUnits="userSpaceOnUse"
       y2="21.579315"
       x2="6.7846189"
       y1="10.091278"
       x1="6.7846189"
       gradientTransform="scale(1.4416113,0.6936683)"
       id="linearGradient5587">
      <stop
         id="stop5589"
         offset="0"
         style="stop-color:#000000;stop-opacity:0.86274511;" />
      <stop
         id="stop5591"
         offset="1"
         style="stop-color:#000000;stop-opacity:0.47058824;" />
    </linearGradient>
    <linearGradient
       inkscape:collect="always"
       xlink:href="#StandardGradient"
       id="linearGradient5593"
       gradientUnits="userSpaceOnUse"
       gradientTransform="scale(1.4416113,0.6936683)"
       x1="6.7846189"
       y1="10.091278"
       x2="6.7846189"
       y2="21.579315" />
    <linearGradient
       inkscape:collect="always"
       xlink:href="#StandardGradient"
       id="linearGradient3786"
       gradientUnits="userSpaceOnUse"
       gradientTransform="scale(1.0598527,0.9435274)"
       x1="11.794092"
       y1="3.2126782"
       x2="11.794092"
       y2="20.137329" />
    <linearGradient
       id="StandardGradient"
       gradientTransform="matrix(1.0765258,0,0,0.9227364,-0.00801316,0.1584665)"
       x1="10.005832"
       y1="4.1631975"
       x2="10.005832"
       y2="17.168188"
       gradientUnits="userSpaceOnUse">
      <stop
         id="stop3337"
         offset="0"
         style="stop-color:#ebebeb;stop-opacity:1;" />
      <stop
         id="stop3339"
         offset="1"
         style="stop-color:#aaaaaa;stop-opacity:1;" />
    </linearGradient>
    <linearGradient
       y2="20.137329"
       x2="11.794092"
       y1="3.2126782"
       x1="11.794092"
       gradientTransform="scale(1.0598527,0.9435274)"
       gradientUnits="userSpaceOnUse"
       id="linearGradient3234"
       xlink:href="#StandardGradient"
       inkscape:collect="always" />
    <linearGradient
       inkscape:collect="always"
       xlink:href="#StandardGradient"
       id="linearGradient5614"
       gradientUnits="userSpaceOnUse"
       gradientTransform="scale(1.4416113,0.6936683)"
       x1="6.7846189"
       y1="10.091278"
       x2="6.7846189"
       y2="21.579315" />
    <linearGradient
       inkscape:collect="always"
       xlink:href="#StandardGradient"
       id="linearGradient3005"
       gradientUnits="userSpaceOnUse"
       gradientTransform="scale(1.4416113,0.6936683)"
       x1="6.7846189"
       y1="10.091278"
       x2="6.7846189"
       y2="21.579315" />
    <linearGradient
       y2="21.579315"
       x2="6.7846189"
       y1="10.091278"
       x1="6.7846189"
       gradientTransform="matrix(4.3841943,0,0,2.1095676,13.822175,18.473172)"
       gradientUnits="userSpaceOnUse"
       id="linearGradient3881"
       xlink:href="#linearGradient3637"
       inkscape:collect="always" />
    <linearGradient
       y2="21.579315"
       x2="6.7846189"
       y1="10.091278"
       x1="6.7846189"
       gradientTransform="matrix(4.3841943,0,0,2.1095676,13.822175,17.473172)"
       gradientUnits="userSpaceOnUse"
       id="linearGradient3879"
       xlink:href="#linearGradient3637"
       inkscape:collect="always" />
    <linearGradient
       y2="21.579315"
       x2="6.7846189"
       y1="10.091278"
       x1="6.7846189"
       gradientTransform="matrix(4.3841943,0,0,2.1095676,13.822175,18.473172)"
       gradientUnits="userSpaceOnUse"
       id="linearGradient3872"
       xlink:href="#linearGradient3637"
       inkscape:collect="always" />
    <linearGradient
       y2="21.579315"
       x2="6.7846189"
       y1="10.091278"
       x1="6.7846189"
       gradientTransform="matrix(4.3841943,0,0,2.1095676,13.822175,19.473172)"
       gradientUnits="userSpaceOnUse"
       id="linearGradient3870"
       xlink:href="#linearGradient3637"
       inkscape:collect="always" />
    <linearGradient
       inkscape:collect="always"
       xlink:href="#linearGradient3637"
       id="linearGradient3015"
       gradientUnits="userSpaceOnUse"
       gradientTransform="matrix(4.3841943,0,0,2.1095676,13.822175,18.473172)"
       x1="6.7846189"
       y1="10.091278"
       x2="6.7846189"
       y2="21.579315" />
    <linearGradient
       gradientUnits="userSpaceOnUse"
       y2="21.579315"
       x2="6.7846189"
       y1="10.091278"
       x1="6.7846189"
       gradientTransform="scale(1.4416113,0.6936683)"
       id="StandardGradient-1">
      <stop
         id="stop3308"
         offset="0"
         style="stop-color:#000000;stop-opacity:0.86274511;" />
      <stop
         id="stop3310"
         offset="1"
         style="stop-color:#000000;stop-opacity:0.47058824;" />
    </linearGradient>
    <linearGradient
       id="linearGradient3183-0">
      <stop
         id="stop3185-9"
         offset="0"
         style="stop-color:#c80000;stop-opacity:1;" />
      <stop
         id="stop3187-6"
         offset="1"
         style="stop-color:#f3604d;stop-opacity:1;" />
    </linearGradient>
    <linearGradient
       inkscape:collect="always"
       xlink:href="#linearGradient3183-0"
       id="linearGradient2927-4"
       gradientUnits="userSpaceOnUse"
       gradientTransform="matrix(0,-3.0000004,2.9652505,0,33.335916,111.00001)"
       x1="11"
       y1="11.015625"
       x2="19"
       y2="11.015625" />
    <linearGradient
       y2="8"
       x2="120"
       y1="8"
       x1="104"
       gradientTransform="translate(-144,104)"
       gradientUnits="userSpaceOnUse"
       id="linearGradient3913"
       xlink:href="#linearGradient3183-0"
       inkscape:collect="always" />
    <linearGradient
       gradientTransform="translate(-104,104)"
       gradientUnits="userSpaceOnUse"
       y2="8"
       x2="120"
       y1="8"
       x1="104"
       id="linearGradient3905"
       xlink:href="#linearGradient3637"
       inkscape:collect="always" />
    <radialGradient
       gradientUnits="userSpaceOnUse"
       gradientTransform="matrix(1.1573129,0,0,0.99590774,-7.551021,0.1971319)"
       r="42"
       fy="90.171875"
       fx="48"
       cy="90.171875"
       cx="48"
       id="radialGradient3619-3"
       xlink:href="#linearGradient3737-3"
       inkscape:collect="always" />
    <linearGradient
       id="linearGradient3737-3"
       inkscape:collect="always">
      <stop
         id="stop3739-6"
         offset="0"
         style="stop-color:#ffffff;stop-opacity:1;" />
      <stop
         id="stop3741-1"
         offset="1"
         style="stop-color:#ffffff;stop-opacity:0;" />
    </linearGradient>
    <linearGradient
       y2="63.893143"
       x2="36.357143"
       y1="6"
       x1="36.357143"
       gradientUnits="userSpaceOnUse"
       id="linearGradient3188-8"
       xlink:href="#linearGradient3737-3"
       inkscape:collect="always" />
    <linearGradient
       inkscape:collect="always"
       xlink:href="#ButtonShadow-0"
       id="linearGradient3199"
       gradientUnits="userSpaceOnUse"
       gradientTransform="matrix(1.0238095,0,0,-1.0119048,-1.1428571,98.071429)"
       x1="32.251034"
       y1="6.1317081"
       x2="32.251034"
       y2="90.238609" />
    <linearGradient
       y2="90.238609"
       x2="32.251034"
       y1="6.1317081"
       x1="32.251034"
       gradientTransform="matrix(1,0,0,-1,0,97)"
       gradientUnits="userSpaceOnUse"
       id="linearGradient3721"
       xlink:href="#ButtonShadow-0"
       inkscape:collect="always" />
    <linearGradient
       y2="90.238609"
       x2="32.251034"
       y1="6.1317081"
       x1="32.251034"
       gradientTransform="matrix(1.0238095,0,0,-1.0119048,-1.1428571,98.071429)"
       gradientUnits="userSpaceOnUse"
       id="linearGradient3725"
       xlink:href="#ButtonShadow-0"
       inkscape:collect="always" />
    <linearGradient
       y2="90.238609"
       x2="32.251034"
       y1="6.1317081"
       x1="32.251034"
       gradientTransform="matrix(1.0238095,0,0,-1.0119048,-1.1428571,98.071429)"
       gradientUnits="userSpaceOnUse"
       id="linearGradient3772"
       xlink:href="#ButtonShadow-0"
       inkscape:collect="always" />
    <linearGradient
       y2="90.238609"
       x2="32.251034"
       y1="6.1317081"
       x1="32.251034"
       gradientTransform="matrix(1.0238095,0,0,-1.0119048,-1.1428571,98.071429)"
       gradientUnits="userSpaceOnUse"
       id="linearGradient3780"
       xlink:href="#ButtonShadow-0"
       inkscape:collect="always" />
    <linearGradient
       gradientUnits="userSpaceOnUse"
       y2="7.0165396"
       x2="45.447727"
       y1="92.539597"
       x1="45.447727"
       gradientTransform="matrix(1.0058652,0,0,0.994169,100,0)"
       id="ButtonShadow-0">
      <stop
         id="stop3750-8"
         offset="0"
         style="stop-color:#000000;stop-opacity:1;" />
      <stop
         id="stop3752-5"
         offset="1"
         style="stop-color:#000000;stop-opacity:0.58823532;" />
    </linearGradient>
    <filter
       id="filter3657"
       inkscape:collect="always">
      <feGaussianBlur
         id="feGaussianBlur3659"
         stdDeviation="1.14"
         inkscape:collect="always" />
    </filter>
    <clipPath
       id="clipPath3649"
       clipPathUnits="userSpaceOnUse">
      <rect
         ry="4"
         rx="4"
         y="10"
         x="10"
         height="76"
         width="76"
         id="rect3651"
         style="fill:#ffffff;fill-opacity:1;fill-rule:nonzero;stroke:none" />
    </clipPath>
    <linearGradient
       gradientUnits="userSpaceOnUse"
       y2="90.015434"
       x2="44.512066"
       y1="6"
       x1="44.512066"
       id="linearGradient3643"
       xlink:href="#linearGradient3637"
       inkscape:collect="always" />
    <clipPath
       id="clipPath3625"
       clipPathUnits="userSpaceOnUse">
      <path
         id="path3627"
         d="M 0,0 0,96 96,96 96,0 0,0 z m 12,6 72,0 c 3.324,0 6,2.676 6,6 l 0,72 c 0,3.324 -2.676,6 -6,6 L 12,90 C 8.676,90 6,87.324 6,84 L 6,12 C 6,8.676 8.676,6 12,6 z"
         style="fill:#ffffff;fill-opacity:1;stroke:none" />
    </clipPath>
    <linearGradient
       gradientTransform="translate(0,100)"
       y2="5.9877172"
       x2="48"
       y1="90"
       x1="48"
       gradientUnits="userSpaceOnUse"
       id="linearGradient2843"
       xlink:href="#linearGradient3700"
       inkscape:collect="always" />
    <clipPath
       id="clipPath3613"
       clipPathUnits="userSpaceOnUse">
      <rect
         style="fill:#ffffff;fill-opacity:1;fill-rule:nonzero;stroke:none"
         id="rect3615"
         width="84"
         height="84"
         x="6"
         y="6"
         rx="6"
         ry="6" />
    </clipPath>
    <radialGradient
       gradientUnits="userSpaceOnUse"
       gradientTransform="matrix(1.1573129,0,0,0.99590774,-7.5510206,0.19713193)"
       r="42"
       fy="90.171875"
       fx="48"
       cy="90.171875"
       cx="48"
       id="radialGradient3619"
       xlink:href="#linearGradient3737"
       inkscape:collect="always" />
    <linearGradient
       gradientUnits="userSpaceOnUse"
       y2="138.66119"
       x2="48"
       y1="20.220806"
       x1="48"
       id="linearGradient3613"
       xlink:href="#linearGradient3737"
       inkscape:collect="always" />
    <filter
       height="1.384"
       y="-0.192"
       width="1.384"
       x="-0.192"
       id="filter3794"
       inkscape:collect="always">
      <feGaussianBlur
         id="feGaussianBlur3796"
         stdDeviation="5.28"
         inkscape:collect="always" />
    </filter>
    <linearGradient
       y2="63.893143"
       x2="36.357143"
       y1="6"
       x1="36.357143"
       gradientUnits="userSpaceOnUse"
       id="linearGradient3188"
       xlink:href="#linearGradient3737"
       inkscape:collect="always" />
    <filter
       id="filter3174"
       inkscape:collect="always">
      <feGaussianBlur
         id="feGaussianBlur3176"
         stdDeviation="1.71"
         inkscape:collect="always" />
    </filter>
    <linearGradient
       id="linearGradient3700">
      <stop
         id="stop3702"
         offset="0"
         style="stop-color:#2276c5;stop-opacity:1;" />
      <stop
         id="stop3704"
         offset="1"
         style="stop-color:#68baf4;stop-opacity:1;" />
    </linearGradient>
    <linearGradient
       id="linearGradient3737"
       inkscape:collect="always">
      <stop
         id="stop3739"
         offset="0"
         style="stop-color:#ffffff;stop-opacity:1;" />
      <stop
         id="stop3741"
         offset="1"
         style="stop-color:#ffffff;stop-opacity:0;" />
    </linearGradient>
    <linearGradient
       gradientUnits="userSpaceOnUse"
       y2="7.0165396"
       x2="45.447727"
       y1="92.539597"
       x1="45.447727"
       gradientTransform="scale(1.0058652,0.994169)"
       id="ButtonShadow">
      <stop
         id="stop3750"
         offset="0"
         style="stop-color:#000000;stop-opacity:1;" />
      <stop
         id="stop3752"
         offset="1"
         style="stop-color:#000000;stop-opacity:0.58823532;" />
    </linearGradient>
    <linearGradient
       id="linearGradient3637">
      <stop
         id="stop3639"
         offset="0"
         style="stop-color:#f0f0f0;stop-opacity:1;" />
      <stop
         id="stop3641"
         offset="1"
         style="stop-color:#aaaaaa;stop-opacity:1;" />
    </linearGradient>
    <linearGradient
       inkscape:collect="always"
       xlink:href="#linearGradient3637"
       id="linearGradient3238"
       gradientUnits="userSpaceOnUse"
       gradientTransform="translate(-104,104)"
       x1="104"
       y1="8"
       x2="120"
       y2="8" />
    <linearGradient
       inkscape:collect="always"
       xlink:href="#linearGradient3183-0"
       id="linearGradient3240"
       gradientUnits="userSpaceOnUse"
       gradientTransform="translate(-144,104)"
       x1="104"
       y1="8"
       x2="120"
       y2="8" />
    <linearGradient
       inkscape:collect="always"
       xlink:href="#linearGradient3637"
       id="linearGradient3242"
       gradientUnits="userSpaceOnUse"
       gradientTransform="matrix(4.3841943,0,0,2.1095676,13.822175,18.473172)"
       x1="6.7846189"
       y1="10.091278"
       x2="6.7846189"
       y2="21.579315" />
    <linearGradient
       inkscape:collect="always"
       xlink:href="#linearGradient3637"
       id="linearGradient3247"
       gradientUnits="userSpaceOnUse"
       gradientTransform="matrix(4.3841943,0,0,2.1095676,138.82217,-90.526828)"
       x1="6.7846189"
       y1="10.091278"
       x2="6.7846189"
       y2="21.579315" />
    <linearGradient
       inkscape:collect="always"
       xlink:href="#linearGradient3183-0"
       id="linearGradient3254"
       gradientUnits="userSpaceOnUse"
       gradientTransform="translate(-35,229)"
       x1="104"
       y1="8"
       x2="120"
       y2="8" />
    <linearGradient
       inkscape:collect="always"
       xlink:href="#linearGradient3637"
       id="linearGradient3259"
       gradientUnits="userSpaceOnUse"
       gradientTransform="translate(-213,229)"
       x1="104"
       y1="8"
       x2="120"
       y2="8" />
    <linearGradient
       inkscape:collect="always"
       xlink:href="#linearGradient3637"
       id="linearGradient3280"
       gradientUnits="userSpaceOnUse"
       gradientTransform="matrix(4.3841943,0,0,2.1095676,138.82217,-90.526828)"
       x1="6.7846189"
       y1="10.091278"
       x2="6.7846189"
       y2="21.579315" />
  </defs>
  <sodipodi:namedview
     id="base"
     pagecolor="#ffffff"
     bordercolor="#9a9a9a"
     borderopacity="1"
     inkscape:pageopacity="0.0"
     inkscape:pageshadow="2"
     inkscape:zoom="2.2995874"
     inkscape:cx="19.883183"
     inkscape:cy="19.134204"
     inkscape:document-units="px"
     inkscape:current-layer="layer3"
     showgrid="true"
     inkscape:showpageshadow="false"
     showguides="true"
     inkscape:guide-bbox="true"
     inkscape:window-width="1366"
     inkscape:window-height="714"
     inkscape:window-x="0"
     inkscape:window-y="26"
     inkscape:window-maximized="1">
    <inkscape:grid
       type="xygrid"
       id="grid3672"
       visible="true"
       enabled="true"
       empspacing="5"
       snapvisiblegridlinesonly="true" />
  </sodipodi:namedview>
  <metadata
     id="metadata7">
    <rdf:RDF>
      <cc:Work
         rdf:about="">
        <dc:format>image/svg+xml</dc:format>
        <dc:type
           rdf:resource="http://purl.org/dc/dcmitype/StillImage" />
        <dc:title />
      </cc:Work>
    </rdf:RDF>
  </metadata>
  <g
     inkscape:groupmode="layer"
     id="layer3"
     inkscape:label="Arrow"
     style="display:inline"
     transform="translate(0,56)">
    <g
       id="layer2"
       inkscape:label="Blur Shadow"
       style="display:none"
       transform="translate(137.88547,-36.822001)">
      <rect
         style="opacity:0.9;fill:url(#ButtonShadow);fill-opacity:1;fill-rule:nonzero;stroke:none;filter:url(#filter3174)"
         id="rect3745"
         width="86"
         height="85"
         x="5"
         y="7"
         rx="6"
         ry="6"
         clip-path="url(#clipPath3625)" />
    </g>
    <g
       inkscape:label="Button with border"
       id="layer1"
       style="display:none"
       transform="translate(137.88547,-36.822001)">
      <rect
         style="opacity:0.8;fill:#000000;fill-opacity:1;fill-rule:nonzero;stroke:none"
         id="rect2419"
         width="84"
         height="84"
         x="6"
         y="6"
         rx="6"
         ry="6" />
      <path
         style="opacity:0.07999998;fill:#000000;fill-opacity:1;fill-rule:nonzero;stroke:none"
         d="m 14,10 c -2.216,0 -4,1.784 -4,4 l 0,68 c 0,2.216 1.784,4 4,4 l 68,0 c 2.216,0 4,-1.784 4,-4 l 0,-68 c 0,-2.216 -1.784,-4 -4,-4 l -68,0 z m 0,3.0625 68,0 c 0.578769,0 0.9375,0.358731 0.9375,0.9375 l 0,68 c 0,0.578769 -0.358731,0.9375 -0.9375,0.9375 l -68,0 c -0.578769,0 -0.9375,-0.358731 -0.9375,-0.9375 l 0,-68 c 0,-0.578769 0.358731,-0.9375 0.9375,-0.9375 z"
         id="rect3726"
         inkscape:connector-curvature="0" />
      <path
         style="fill:url(#linearGradient3643);fill-opacity:1;fill-rule:nonzero;stroke:none"
         d="M 12,6 C 8.676,6 6,8.676 6,12 l 0,72 c 0,3.324 2.676,6 6,6 l 72,0 c 3.324,0 6,-2.676 6,-6 L 90,12 C 90,8.676 87.324,6 84,6 L 12,6 z m 2,4 68,0 c 2.216,0 4,1.784 4,4 l 0,68 c 0,2.216 -1.784,4 -4,4 l -68,0 c -2.216,0 -4,-1.784 -4,-4 l 0,-68 c 0,-2.216 1.784,-4 4,-4 z"
         id="rect3629"
         inkscape:connector-curvature="0" />
      <path
         style="fill:url(#linearGradient3188);fill-opacity:1;fill-rule:nonzero;stroke:none"
         d="M 12,6 C 8.676,6 6,8.676 6,12 l 0,2 0,68 0,2 c 0,0.334721 0.04135,0.6507 0.09375,0.96875 0.0487,0.295596 0.09704,0.596915 0.1875,0.875 0.00988,0.03038 0.020892,0.0636 0.03125,0.09375 0.098865,0.287771 0.2348802,0.547452 0.375,0.8125 0.1445918,0.273507 0.3156161,0.535615 0.5,0.78125 0.1843839,0.245635 0.3737765,0.473472 0.59375,0.6875 0.439947,0.428056 0.94291,0.814526 1.5,1.09375 0.278545,0.139612 0.5734731,0.246947 0.875,0.34375 -0.2562018,-0.100222 -0.4867109,-0.236272 -0.71875,-0.375 -0.00741,-0.0044 -0.023866,0.0045 -0.03125,0 -0.031933,-0.0193 -0.062293,-0.04251 -0.09375,-0.0625 -0.120395,-0.0767 -0.2310226,-0.163513 -0.34375,-0.25 -0.1061728,-0.0808 -0.2132809,-0.161112 -0.3125,-0.25 C 8.4783201,88.557317 8.3087904,88.373362 8.15625,88.1875 8.0486711,88.057245 7.9378561,87.922215 7.84375,87.78125 7.818661,87.74287 7.805304,87.69538 7.78125,87.65625 7.716487,87.553218 7.6510225,87.451733 7.59375,87.34375 7.4927417,87.149044 7.3880752,86.928049 7.3125,86.71875 7.30454,86.69694 7.288911,86.6782 7.28125,86.65625 7.2494249,86.5643 7.2454455,86.469419 7.21875,86.375 7.1884177,86.268382 7.1483606,86.171969 7.125,86.0625 7.0521214,85.720988 7,85.364295 7,85 L 7,83 7,15 7,13 C 7,10.218152 9.2181517,8 12,8 l 2,0 68,0 2,0 c 2.781848,0 5,2.218152 5,5 l 0,2 0,68 0,2 c 0,0.364295 -0.05212,0.720988 -0.125,1.0625 -0.04415,0.206893 -0.08838,0.397658 -0.15625,0.59375 -0.0077,0.02195 -0.0233,0.04069 -0.03125,0.0625 -0.06274,0.173739 -0.138383,0.367449 -0.21875,0.53125 -0.04158,0.0828 -0.07904,0.169954 -0.125,0.25 -0.0546,0.09721 -0.126774,0.18835 -0.1875,0.28125 -0.09411,0.140965 -0.204921,0.275995 -0.3125,0.40625 -0.143174,0.17445 -0.303141,0.346998 -0.46875,0.5 -0.01117,0.0102 -0.01998,0.02115 -0.03125,0.03125 -0.138386,0.125556 -0.285091,0.234436 -0.4375,0.34375 -0.102571,0.07315 -0.204318,0.153364 -0.3125,0.21875 -0.0074,0.0045 -0.02384,-0.0044 -0.03125,0 -0.232039,0.138728 -0.462548,0.274778 -0.71875,0.375 0.301527,-0.0968 0.596455,-0.204138 0.875,-0.34375 0.55709,-0.279224 1.060053,-0.665694 1.5,-1.09375 0.219973,-0.214028 0.409366,-0.441865 0.59375,-0.6875 0.184384,-0.245635 0.355408,-0.507743 0.5,-0.78125 0.14012,-0.265048 0.276135,-0.524729 0.375,-0.8125 0.01041,-0.03078 0.02133,-0.06274 0.03125,-0.09375 0.09046,-0.278085 0.1388,-0.579404 0.1875,-0.875 C 89.95865,84.6507 90,84.334721 90,84 l 0,-2 0,-68 0,-2 C 90,8.676 87.324,6 84,6 L 12,6 z"
         id="rect3728"
         inkscape:connector-curvature="0" />
      <path
         id="path3615"
         d="M 12,90 C 8.676,90 6,87.324 6,84 L 6,82 6,14 6,12 c 0,-0.334721 0.04135,-0.6507 0.09375,-0.96875 0.0487,-0.295596 0.09704,-0.596915 0.1875,-0.875 C 6.29113,10.12587 6.302142,10.09265 6.3125,10.0625 6.411365,9.774729 6.5473802,9.515048 6.6875,9.25 6.8320918,8.976493 7.0031161,8.714385 7.1875,8.46875 7.3718839,8.223115 7.5612765,7.995278 7.78125,7.78125 8.221197,7.353194 8.72416,6.966724 9.28125,6.6875 9.559795,6.547888 9.8547231,6.440553 10.15625,6.34375 9.9000482,6.443972 9.6695391,6.580022 9.4375,6.71875 c -0.00741,0.0044 -0.023866,-0.0045 -0.03125,0 -0.031933,0.0193 -0.062293,0.04251 -0.09375,0.0625 -0.120395,0.0767 -0.2310226,0.163513 -0.34375,0.25 -0.1061728,0.0808 -0.2132809,0.161112 -0.3125,0.25 C 8.4783201,7.442683 8.3087904,7.626638 8.15625,7.8125 8.0486711,7.942755 7.9378561,8.077785 7.84375,8.21875 7.818661,8.25713 7.805304,8.30462 7.78125,8.34375 7.716487,8.446782 7.6510225,8.548267 7.59375,8.65625 7.4927417,8.850956 7.3880752,9.071951 7.3125,9.28125 7.30454,9.30306 7.288911,9.3218 7.28125,9.34375 7.2494249,9.4357 7.2454455,9.530581 7.21875,9.625 7.1884177,9.731618 7.1483606,9.828031 7.125,9.9375 7.0521214,10.279012 7,10.635705 7,11 l 0,2 0,68 0,2 c 0,2.781848 2.2181517,5 5,5 l 2,0 68,0 2,0 c 2.781848,0 5,-2.218152 5,-5 l 0,-2 0,-68 0,-2 C 89,10.635705 88.94788,10.279012 88.875,9.9375 88.83085,9.730607 88.78662,9.539842 88.71875,9.34375 88.71105,9.3218 88.69545,9.30306 88.6875,9.28125 88.62476,9.107511 88.549117,8.913801 88.46875,8.75 88.42717,8.6672 88.38971,8.580046 88.34375,8.5 88.28915,8.40279 88.216976,8.31165 88.15625,8.21875 88.06214,8.077785 87.951329,7.942755 87.84375,7.8125 87.700576,7.63805 87.540609,7.465502 87.375,7.3125 87.36383,7.3023 87.35502,7.29135 87.34375,7.28125 87.205364,7.155694 87.058659,7.046814 86.90625,6.9375 86.803679,6.86435 86.701932,6.784136 86.59375,6.71875 c -0.0074,-0.0045 -0.02384,0.0044 -0.03125,0 -0.232039,-0.138728 -0.462548,-0.274778 -0.71875,-0.375 0.301527,0.0968 0.596455,0.204138 0.875,0.34375 0.55709,0.279224 1.060053,0.665694 1.5,1.09375 0.219973,0.214028 0.409366,0.441865 0.59375,0.6875 0.184384,0.245635 0.355408,0.507743 0.5,0.78125 0.14012,0.265048 0.276135,0.524729 0.375,0.8125 0.01041,0.03078 0.02133,0.06274 0.03125,0.09375 0.09046,0.278085 0.1388,0.579404 0.1875,0.875 C 89.95865,11.3493 90,11.665279 90,12 l 0,2 0,68 0,2 c 0,3.324 -2.676,6 -6,6 l -72,0 z"
         style="opacity:0.6;fill:url(#radialGradient3619);fill-opacity:1;fill-rule:nonzero;stroke:none"
         inkscape:connector-curvature="0" />
      <rect
         ry="6"
         rx="6"
         y="106"
         x="6"
         height="84"
         width="84"
         id="rect2841"
         style="fill:url(#linearGradient2843);fill-opacity:1;fill-rule:nonzero;stroke:none" />
      <rect
         ry="4"
         rx="4"
         y="110"
         x="10"
         height="76"
         width="76"
         id="rect3634"
         style="fill:#ff0000;fill-opacity:1;fill-rule:nonzero;stroke:none" />
      <path
         style="font-size:medium;font-style:normal;font-variant:normal;font-weight:normal;font-stretch:normal;text-indent:0;text-align:start;text-decoration:none;line-height:normal;letter-spacing:normal;word-spacing:normal;text-transform:none;direction:ltr;block-progression:tb;writing-mode:lr-tb;text-anchor:start;color:#000000;fill:#000000;fill-opacity:1;stroke:none;stroke-width:2;marker:none;visibility:visible;display:inline;overflow:visible;filter:url(#filter3657);enable-background:accumulate;font-family:Abandoned Bitplane;-inkscape-font-specification:Abandoned Bitplane"
         d="m 14,9 c -2.752703,0 -5,2.247297 -5,5 l 0,68 c 0,2.752703 2.247297,5 5,5 l 68,0 c 2.752703,0 5,-2.247297 5,-5 L 87,14 C 87,11.247297 84.752703,9 82,9 L 14,9 z m 0,2 68,0 c 1.679297,0 3,1.320703 3,3 l 0,68 c 0,1.679297 -1.320703,3 -3,3 l -68,0 c -1.679297,0 -3,-1.320703 -3,-3 l 0,-68 c 0,-1.679297 1.320703,-3 3,-3 z"
         clip-path="url(#clipPath3649)"
         id="rect3647"
         transform="translate(-110,0)"
         inkscape:connector-curvature="0" />
      <path
         style="opacity:0.16000001;fill:#000000;fill-opacity:1;fill-rule:nonzero;stroke:none"
         d="m 14.089286,10 c -2.216,0 -4,1.784 -4,4 l 0,68 c 0,2.216 1.784,4 4,4 l 68,0 c 2.216,0 4,-1.784 4,-4 l 0,-68 c 0,-2.216 -1.784,-4 -4,-4 l -68,0 z m 0,2 68,0 c 1.140301,0 2,0.859699 2,2 l 0,68 c 0,1.140301 -0.859699,2 -2,2 l -68,0 c -1.140301,0 -2,-0.859699 -2,-2 l 0,-68 c 0,-1.140301 0.859699,-2 2,-2 z"
         id="path3709"
         inkscape:connector-curvature="0" />
      <path
         style="opacity:0.36000001;fill:#000000;fill-opacity:1;fill-rule:nonzero;stroke:none"
         d="m 14,10 c -2.216,0 -4,1.784 -4,4 l 0,68 c 0,2.216 1.784,4 4,4 l 68,0 c 2.216,0 4,-1.784 4,-4 l 0,-68 c 0,-2.216 -1.784,-4 -4,-4 l -68,0 z m 0,1 68,0 c 1.673848,0 3,1.326152 3,3 l 0,68 c 0,1.673848 -1.326152,3 -3,3 l -68,0 c -1.673848,0 -3,-1.326152 -3,-3 l 0,-68 c 0,-1.673848 1.326152,-3 3,-3 z"
         id="path3707"
         inkscape:connector-curvature="0" />
    </g>
    <g
       id="layer5"
       inkscape:label="Highlight"
       style="display:none"
       transform="translate(137.88547,-36.822001)">
      <rect
         style="opacity:0.1;fill:url(#linearGradient3613);fill-opacity:1;fill-rule:nonzero;stroke:#ffffff;stroke-width:0.5;stroke-linecap:round;stroke-linejoin:miter;stroke-miterlimit:4;stroke-opacity:1;stroke-dasharray:none;stroke-dashoffset:0;filter:url(#filter3794)"
         id="rect3171"
         width="66"
         height="66"
         x="15"
         y="15"
         rx="12"
         ry="12"
         clip-path="url(#clipPath3613)" />
    </g>
    <g
       id="g3271"
       transform="matrix(-1.2630657,0,0,1.2630657,257.58571,53.875374)">
      <path
         transform="translate(125.02209,-109.02515)"
         sodipodi:type="inkscape:offset"
         inkscape:radius="0.84883225"
         inkscape:original="M 73.03125 40.90625 L 49.8125 45.09375 L 56 51.28125 C 50.33596 56.582306 41.431795 56.474287 35.90625 50.96875 C 34.303633 49.371933 33.158697 47.50207 32.46875 45.5 L 23.03125 48 C 24.147951 51.651964 26.135534 55.114772 29.03125 58 C 38.327239 67.262325 53.476788 67.232915 62.96875 58.21875 L 68.8125 64.03125 L 73.03125 40.90625 z "
         style="opacity:0.15;fill:#000000;fill-opacity:1;stroke:none;display:inline"
         id="path3890"
         d="M 72.875,40.0625 49.65625,44.25 a 0.84891713,0.84891713 0 0 0 -0.4375,1.4375 l 5.5,5.5 C 49.372843,55.581791 41.495117,55.35203 36.5,50.375 34.988896,48.869365 33.929994,47.101258 33.28125,45.21875 A 0.84891713,0.84891713 0 0 0 32.25,44.6875 l -9.4375,2.5 A 0.84891713,0.84891713 0 0 0 22.21875,48.25 c 1.155184,3.777816 3.220052,7.355913 6.21875,10.34375 9.424326,9.390197 24.621068,9.504921 34.46875,0.75 l 5.3125,5.28125 a 0.84891713,0.84891713 0 0 0 1.4375,-0.4375 L 73.875,41.0625 a 0.84891713,0.84891713 0 0 0 -1,-1 z" />
      <g
         id="g3264">
        <path
           inkscape:connector-curvature="0"
           id="path3894"
           d="m 197.90625,-70.15625 c -7.87401,1.407525 -15.75128,2.828987 -23.625,4.25 -1.59377,0.362776 -2.04918,2.654241 -0.73377,3.609981 1.40084,1.40084 2.80168,2.801679 4.20252,4.202519 -4.5626,3.102616 -11.2384,2.760832 -15.20697,-1.180862 -1.61899,-1.453867 -2.59007,-3.43699 -3.38678,-5.412888 -0.91106,-1.36573 -2.60586,-0.69081 -3.8693,-0.344019 -2.71444,0.756874 -5.47866,1.375562 -8.16195,2.219019 -1.71821,0.792328 -1.07716,2.939265 -0.42434,4.244957 3.32023,8.811036 11.79295,15.383162 21.16896,16.332343 7.07644,0.83031 14.44055,-1.331056 19.94288,-5.85855 1.67946,1.618688 3.25298,3.375654 5,4.90625 1.29729,0.796789 3.07518,-0.261374 3.097,-1.766181 1.38424,-7.693132 2.85207,-15.381416 4.18425,-23.077569 0.0746,-1.18312 -0.99178,-2.254329 -2.1875,-2.125 z"
           style="opacity:0.1;fill:#000000;fill-opacity:1;stroke:none;display:inline" />
        <path
           inkscape:connector-curvature="0"
           style="opacity:0.3;fill:#000000;fill-opacity:1;stroke:none;display:inline"
           d="m 193.80268,-44.972639 4.22392,-23.130641 -23.21469,4.208632 6.1951,6.172664 c -5.66404,5.301056 -14.56907,5.191292 -20.09462,-0.314245 -1.60261,-1.596817 -2.75678,-3.474765 -3.44672,-5.476835 l -9.43907,2.513954 c 1.1167,3.651964 3.11916,7.103264 6.01487,9.988492 9.29599,9.262325 24.4346,9.238634 33.92656,0.224469 l 5.83465,5.813525 z"
           id="path3884"
           inkscape:label="#path3268" />
        <path
           inkscape:label="#path3268"
           id="Symbol-1"
           d="m 193.80268,-45.972639 4.22392,-23.130641 -23.21469,4.208632 6.1951,6.172664 c -5.66404,5.301056 -14.56907,5.191292 -20.09462,-0.314245 -1.60261,-1.596817 -2.75678,-3.474765 -3.44672,-5.476835 l -9.43907,2.513954 c 1.1167,3.651964 3.11916,7.103264 6.01487,9.988492 9.29599,9.262325 24.4346,9.238634 33.92656,0.224469 l 5.83465,5.813525 z"
           style="fill:url(#linearGradient3280);fill-opacity:1;stroke:none;display:inline"
           inkscape:connector-curvature="0" />
        <path
           id="path3866"
           d="m 198.03125,-69.09375 -23.21875,4.1875 0.84375,0.84375 22.1875,-4 0.1875,-1.03125 z m -40.5625,4.59375 -9.4375,2.5 c 0.0921,0.301232 0.20833,0.607954 0.3125,0.90625 l 9.125,-2.40625 c 0.68995,2.00207 1.83488,3.871933 3.4375,5.46875 5.52554,5.505537 14.42971,5.613556 20.09375,0.3125 L 180.46875,-58.25 c -5.677,4.815757 -14.20678,4.555073 -19.5625,-0.78125 -1.60262,-1.596817 -2.74755,-3.46668 -3.4375,-5.46875 z"
           style="opacity:0.75;fill:#ffffff;fill-opacity:1;stroke:none;display:inline"
           inkscape:connector-curvature="0" />
        <path
           id="path3875"
           d="m 198.03125,-69.09375 -0.1875,0.03125 -4.03125,22.09375 -5.84375,-5.8125 c -9.49196,9.014165 -24.64151,9.043575 -33.9375,-0.21875 -2.65686,-2.64724 -4.52879,-5.775672 -5.6875,-9.09375 L 148.03125,-62 c 1.1167,3.651964 3.10428,7.114772 6,10 9.29599,9.262325 24.44554,9.232915 33.9375,0.21875 l 5.84375,5.8125 4.21875,-23.125 z m -22.375,4.03125 -0.84375,0.15625 5.65625,5.65625 c 0.18002,-0.152707 0.35716,-0.30582 0.53125,-0.46875 l -5.34375,-5.34375 z"
           style="opacity:0.15;fill:#000000;fill-opacity:1;stroke:none;display:inline"
           inkscape:connector-curvature="0" />
      </g>
    </g>
  </g>
</svg>
