<?xml version="1.0" encoding="UTF-8" standalone="no"?>
<!-- Created with Inkscape (http://www.inkscape.org/) -->

<svg
   xmlns:dc="http://purl.org/dc/elements/1.1/"
   xmlns:cc="http://creativecommons.org/ns#"
   xmlns:rdf="http://www.w3.org/1999/02/22-rdf-syntax-ns#"
   xmlns:svg="http://www.w3.org/2000/svg"
   xmlns="http://www.w3.org/2000/svg"
   xmlns:xlink="http://www.w3.org/1999/xlink"
   xmlns:sodipodi="http://sodipodi.sourceforge.net/DTD/sodipodi-0.dtd"
   xmlns:inkscape="http://www.inkscape.org/namespaces/inkscape"
   version="1.0"
   width="96"
   height="96"
   id="svg2408"
   style="display:inline"
   inkscape:version="0.47 r22583"
   sodipodi:docname="favorite.svg"
   inkscape:export-filename="/home/francesco/neo_freerunner/qtmoko/faenqo_en/faenqo_en/svg/favorite.png"
   inkscape:export-xdpi="90"
   inkscape:export-ydpi="90">
  <sodipodi:namedview
     pagecolor="#ffffff"
     bordercolor="#666666"
     borderopacity="1"
     objecttolerance="10"
     gridtolerance="10"
     guidetolerance="10"
     inkscape:pageopacity="0"
     inkscape:pageshadow="2"
     inkscape:window-width="990"
     inkscape:window-height="638"
     id="namedview146"
     showgrid="false"
     inkscape:zoom="2"
     inkscape:cx="42.219306"
     inkscape:cy="42.432504"
     inkscape:window-x="0"
     inkscape:window-y="25"
     inkscape:window-maximized="0"
     inkscape:current-layer="svg2408" />
  <defs
     id="defs2410">
    <inkscape:perspective
       sodipodi:type="inkscape:persp3d"
       inkscape:vp_x="0 : 48 : 1"
       inkscape:vp_y="0 : 1000 : 0"
       inkscape:vp_z="96 : 48 : 1"
       inkscape:persp3d-origin="48 : 32 : 1"
       id="perspective148" />
    <linearGradient
       id="linearGradient3932">
      <stop
         id="stop3934"
         style="stop-color:#000000;stop-opacity:1"
         offset="0" />
      <stop
         id="stop3936"
         style="stop-color:#000000;stop-opacity:0"
         offset="1" />
    </linearGradient>
    <linearGradient
       id="linearGradient3865">
      <stop
         id="stop3867"
         style="stop-color:#ffe99d;stop-opacity:1"
         offset="0" />
      <stop
         id="stop3869"
         style="stop-color:#ffe99d;stop-opacity:0"
         offset="1" />
    </linearGradient>
    <linearGradient
       id="linearGradient3777">
      <stop
         id="stop3779"
         style="stop-color:#ff6600;stop-opacity:1"
         offset="0" />
      <stop
         id="stop3781"
         style="stop-color:#ff6600;stop-opacity:0"
         offset="1" />
    </linearGradient>
    <linearGradient
       id="linearGradient3751">
      <stop
         id="stop3753"
         style="stop-color:#f89400;stop-opacity:1"
         offset="0" />
      <stop
         id="stop3755"
         style="stop-color:#f89400;stop-opacity:0"
         offset="1" />
    </linearGradient>
    <linearGradient
       id="linearGradient3741">
      <stop
         id="stop3743"
         style="stop-color:#ffffff;stop-opacity:1"
         offset="0" />
      <stop
         id="stop3745"
         style="stop-color:#ffffff;stop-opacity:0"
         offset="1" />
    </linearGradient>
    <linearGradient
       id="linearGradient3724">
      <stop
         id="stop3726"
         style="stop-color:#ffa92a;stop-opacity:1"
         offset="0" />
      <stop
         id="stop3728"
         style="stop-color:#ffcf2a;stop-opacity:1"
         offset="1" />
    </linearGradient>
    <linearGradient
       x1="45.447727"
       y1="92.539597"
       x2="45.447727"
       y2="7.0165396"
       id="ButtonShadow"
       gradientUnits="userSpaceOnUse"
       gradientTransform="scale(1.0058652,0.994169)">
      <stop
         id="stop3750"
         style="stop-color:#000000;stop-opacity:1"
         offset="0" />
      <stop
         id="stop3752"
         style="stop-color:#000000;stop-opacity:0.58823532"
         offset="1" />
    </linearGradient>
    <linearGradient
       id="linearGradient3737">
      <stop
         id="stop3739"
         style="stop-color:#ffffff;stop-opacity:1"
         offset="0" />
      <stop
         id="stop3741"
         style="stop-color:#ffffff;stop-opacity:0"
         offset="1" />
    </linearGradient>
    <linearGradient
       id="linearGradient3700">
      <stop
         id="stop3702"
         style="stop-color:#70a83e;stop-opacity:1"
         offset="0" />
      <stop
         id="stop3704"
         style="stop-color:#9fd058;stop-opacity:1"
         offset="1" />
    </linearGradient>
    <filter
       color-interpolation-filters="sRGB"
       id="filter3174">
      <feGaussianBlur
         id="feGaussianBlur3176"
         stdDeviation="1.71" />
    </filter>
    <linearGradient
       x1="36.357143"
       y1="6"
       x2="36.357143"
       y2="63.893143"
       id="linearGradient3188"
       xlink:href="#linearGradient3737"
       gradientUnits="userSpaceOnUse" />
    <filter
       x="-0.192"
       y="-0.192"
       width="1.3839999"
       height="1.3839999"
       color-interpolation-filters="sRGB"
       id="filter3794">
      <feGaussianBlur
         id="feGaussianBlur3796"
         stdDeviation="5.28" />
    </filter>
    <linearGradient
       x1="48"
       y1="20.220806"
       x2="48"
       y2="138.66119"
       id="linearGradient3613"
       xlink:href="#linearGradient3737"
       gradientUnits="userSpaceOnUse" />
    <radialGradient
       cx="48"
       cy="90.171875"
       r="42"
       fx="48"
       fy="90.171875"
       id="radialGradient3619"
       xlink:href="#linearGradient3737"
       gradientUnits="userSpaceOnUse"
       gradientTransform="matrix(1.1573129,0,0,0.99590774,-7.5510206,0.19713193)" />
    <clipPath
       id="clipPath3613">
      <rect
         width="84"
         height="84"
         rx="6"
         ry="6"
         x="6"
         y="6"
         id="rect3615"
         style="fill:#ffffff;fill-opacity:1;fill-rule:nonzero;stroke:none" />
    </clipPath>
    <linearGradient
       x1="48"
       y1="90"
       x2="48"
       y2="5.9877172"
       id="linearGradient3617"
       xlink:href="#linearGradient3700"
       gradientUnits="userSpaceOnUse" />
    <linearGradient
       id="linearGradient5128">
      <stop
         id="stop5130"
         style="stop-color:#e5e5e5;stop-opacity:1"
         offset="0" />
      <stop
         id="stop5132"
         style="stop-color:#ababab;stop-opacity:1"
         offset="1" />
    </linearGradient>
    <linearGradient
       x1="63.9995"
       y1="3.1001"
       x2="63.9995"
       y2="122.8994"
       id="linearGradient3309"
       gradientUnits="userSpaceOnUse">
      <stop
         id="stop3311"
         style="stop-color:#f6f6f6;stop-opacity:1"
         offset="0" />
      <stop
         id="stop3313"
         style="stop-color:#d2d2d2;stop-opacity:1"
         offset="1" />
    </linearGradient>
    <linearGradient
       id="linearGradient3397">
      <stop
         id="stop3399"
         style="stop-color:#aaaaaa;stop-opacity:1"
         offset="0" />
      <stop
         id="stop3401"
         style="stop-color:#8c8c8c;stop-opacity:1"
         offset="1" />
    </linearGradient>
    <linearGradient
       x1="86.132919"
       y1="105.105"
       x2="84.63858"
       y2="20.895"
       id="linearGradient3801"
       xlink:href="#linearGradient5128"
       gradientUnits="userSpaceOnUse"
       gradientTransform="matrix(0.41503146,0,0,0.41503146,21.437996,21.853023)" />
    <linearGradient
       x1="20.758585"
       y1="1"
       x2="20.758585"
       y2="45.017357"
       id="linearGradient3804"
       xlink:href="#linearGradient3309"
       gradientUnits="userSpaceOnUse"
       gradientTransform="matrix(1.2790652,0,0,1.2790652,17.302433,18.5815)" />
    <linearGradient
       x1="37.201294"
       y1="1"
       x2="37.201294"
       y2="45"
       id="linearGradient3806"
       xlink:href="#linearGradient3397"
       gradientUnits="userSpaceOnUse"
       gradientTransform="matrix(1.2790652,0,0,1.2790652,17.302433,18.5815)" />
    <filter
       color-interpolation-filters="sRGB"
       id="filter3814">
      <feGaussianBlur
         id="feGaussianBlur3816"
         stdDeviation="2.1999956" />
    </filter>
    <linearGradient
       x1="48"
       y1="90"
       x2="48"
       y2="5.9877172"
       id="linearGradient3878"
       xlink:href="#linearGradient3700"
       gradientUnits="userSpaceOnUse" />
    <linearGradient
       id="linearGradient3700-4">
      <stop
         id="stop3702-4"
         style="stop-color:#70a83e;stop-opacity:1"
         offset="0" />
      <stop
         id="stop3704-4"
         style="stop-color:#9fd058;stop-opacity:1"
         offset="1" />
    </linearGradient>
    <clipPath
       id="clipPath2973">
      <rect
         width="84"
         height="84"
         rx="6"
         ry="6"
         x="6"
         y="6"
         id="rect2975"
         style="fill:url(#linearGradient2977);fill-opacity:1;fill-rule:nonzero;stroke:none" />
    </clipPath>
    <linearGradient
       x1="48"
       y1="90"
       x2="48"
       y2="5.9877172"
       id="linearGradient2977"
       xlink:href="#linearGradient3700-4"
       gradientUnits="userSpaceOnUse" />
    <linearGradient
       x1="52.51516"
       y1="44.039856"
       x2="54.767216"
       y2="64.307716"
       id="linearGradient3747"
       xlink:href="#linearGradient3741"
       gradientUnits="userSpaceOnUse" />
    <radialGradient
       cx="48.089584"
       cy="53.8909"
       r="5.4927044"
       fx="48.089584"
       fy="53.8909"
       id="radialGradient3791"
       xlink:href="#linearGradient3777"
       gradientUnits="userSpaceOnUse"
       gradientTransform="matrix(-0.01155242,1.9830883,-2.0305783,-0.02269268,158.07483,-40.252061)" />
    <linearGradient
       x1="64.669502"
       y1="71.888321"
       x2="59.574085"
       y2="52.871964"
       id="linearGradient3800"
       xlink:href="#linearGradient3724"
       gradientUnits="userSpaceOnUse" />
    <radialGradient
       cx="47.644325"
       cy="54.10635"
       r="4.8616066"
       fx="47.644325"
       fy="54.10635"
       id="radialGradient3811"
       xlink:href="#linearGradient3751"
       gradientUnits="userSpaceOnUse"
       gradientTransform="matrix(2.3125312,2.3348434,1.2717514,-1.2595982,-125.14605,4.532606)" />
    <linearGradient
       x1="60.755741"
       y1="66.836105"
       x2="69.693596"
       y2="69.230995"
       id="linearGradient3871"
       xlink:href="#linearGradient3865"
       gradientUnits="userSpaceOnUse"
       gradientTransform="matrix(0.5,0.8660254,-0.8660254,0.5,91.523702,-24.523702)" />
    <linearGradient
       x1="32.237946"
       y1="21.650217"
       x2="36.821369"
       y2="47.535378"
       id="linearGradient3879"
       xlink:href="#linearGradient3309"
       gradientUnits="userSpaceOnUse" />
    <linearGradient
       x1="5.2744913"
       y1="62.878765"
       x2="-6.5244856"
       y2="66.807335"
       id="linearGradient3887"
       xlink:href="#linearGradient5128"
       gradientUnits="userSpaceOnUse" />
    <linearGradient
       x1="5.2744913"
       y1="62.878765"
       x2="-6.5244856"
       y2="66.807335"
       id="linearGradient3916"
       xlink:href="#linearGradient5128"
       gradientUnits="userSpaceOnUse"
       gradientTransform="matrix(0.44988627,0,0,0.44988627,-7.7869415e-6,-94.532869)" />
    <linearGradient
       x1="45.312279"
       y1="48.267761"
       x2="42.662289"
       y2="45.617771"
       id="linearGradient3938"
       xlink:href="#linearGradient3932"
       gradientUnits="userSpaceOnUse"
       gradientTransform="matrix(-1,0,0,-1,91.080609,91.12006)" />
    <linearGradient
       x1="48"
       y1="90"
       x2="48"
       y2="5.9877172"
       id="linearGradient3757"
       xlink:href="#linearGradient3778"
       gradientUnits="userSpaceOnUse" />
    <linearGradient
       id="linearGradient3778">
      <stop
         id="stop3780"
         style="stop-color:#b91c22;stop-opacity:1;"
         offset="0" />
      <stop
         id="stop3782"
         style="stop-color:#f2403b;stop-opacity:1;"
         offset="1" />
    </linearGradient>
    <linearGradient
       x1="45.447727"
       y1="92.539597"
       x2="45.447727"
       y2="7.0165396"
       id="ButtonShadow-0"
       gradientUnits="userSpaceOnUse"
       gradientTransform="matrix(1.0058652,0,0,0.994169,100,0)">
      <stop
         id="stop3750-8"
         style="stop-color:#000000;stop-opacity:1"
         offset="0" />
      <stop
         id="stop3752-5"
         style="stop-color:#000000;stop-opacity:0.58823532"
         offset="1" />
    </linearGradient>
    <linearGradient
       x1="32.251034"
       y1="6.1317081"
       x2="32.251034"
       y2="90.238609"
       id="linearGradient3780"
       xlink:href="#ButtonShadow-0"
       gradientUnits="userSpaceOnUse"
       gradientTransform="matrix(1.0238095,0,0,1.0119048,-1.1428571,-98.071429)" />
    <linearGradient
       x1="32.251034"
       y1="6.1317081"
       x2="32.251034"
       y2="90.238609"
       id="linearGradient3772"
       xlink:href="#ButtonShadow-0"
       gradientUnits="userSpaceOnUse"
       gradientTransform="matrix(1.0238095,0,0,1.0119048,-1.1428571,-98.071429)" />
    <linearGradient
       x1="32.251034"
       y1="6.1317081"
       x2="32.251034"
       y2="90.238609"
       id="linearGradient3725"
       xlink:href="#ButtonShadow-0"
       gradientUnits="userSpaceOnUse"
       gradientTransform="matrix(1.0238095,0,0,1.0119048,-1.1428571,-98.071429)" />
    <linearGradient
       x1="32.251034"
       y1="6.1317081"
       x2="32.251034"
       y2="90.238609"
       id="linearGradient3721"
       xlink:href="#ButtonShadow-0"
       gradientUnits="userSpaceOnUse"
       gradientTransform="translate(0,-97)" />
    <linearGradient
       x1="32.251034"
       y1="6.1317081"
       x2="32.251034"
       y2="90.238609"
       id="linearGradient2918"
       xlink:href="#ButtonShadow-0"
       gradientUnits="userSpaceOnUse"
       gradientTransform="matrix(1.0238095,0,0,1.0119048,-1.1428571,-98.071429)" />
    <inkscape:perspective
       id="perspective2908"
       inkscape:persp3d-origin="0.5 : 0.33333333 : 1"
       inkscape:vp_z="1 : 0.5 : 1"
       inkscape:vp_y="0 : 1000 : 0"
       inkscape:vp_x="0 : 0.5 : 1"
       sodipodi:type="inkscape:persp3d" />
    <linearGradient
       x1="11.087322"
       y1="15.37313"
       x2="10.540542"
       y2="4.9937253"
       id="linearGradient3790"
       xlink:href="#linearGradient3658"
       gradientUnits="userSpaceOnUse" />
    <linearGradient
       id="linearGradient3658">
      <stop
         id="stop3660"
         style="stop-color:#ff9604;stop-opacity:1"
         offset="0" />
      <stop
         id="stop3662"
         style="stop-color:#fff580;stop-opacity:1"
         offset="1" />
    </linearGradient>
    <linearGradient
       x1="48.714287"
       y1="76.203125"
       x2="48.714287"
       y2="18.702017"
       id="linearGradient3692"
       xlink:href="#linearGradient3686"
       gradientUnits="userSpaceOnUse" />
    <linearGradient
       id="linearGradient3686">
      <stop
         id="stop3688"
         style="stop-color:#dcdcdc;stop-opacity:1"
         offset="0" />
      <stop
         id="stop3690"
         style="stop-color:#f0f0f0;stop-opacity:1"
         offset="1" />
    </linearGradient>
    <linearGradient
       x1="52.82143"
       y1="32.810268"
       x2="52.82143"
       y2="74.18531"
       id="linearGradient3707"
       xlink:href="#linearGradient3701"
       gradientUnits="userSpaceOnUse" />
    <linearGradient
       id="linearGradient3701">
      <stop
         id="stop3703"
         style="stop-color:#ffffff;stop-opacity:1"
         offset="0" />
      <stop
         id="stop3705"
         style="stop-color:#ffffff;stop-opacity:0"
         offset="1" />
    </linearGradient>
    <linearGradient
       y2="74.18531"
       x2="52.82143"
       y1="32.810268"
       x1="52.82143"
       gradientUnits="userSpaceOnUse"
       id="linearGradient2935"
       xlink:href="#linearGradient3701"
       inkscape:collect="always" />
    <radialGradient
       inkscape:collect="always"
       xlink:href="#linearGradient3737"
       id="radialGradient3010"
       gradientUnits="userSpaceOnUse"
       gradientTransform="matrix(1.1573129,0,0,0.99590774,-7.5510206,0.19713193)"
       cx="48"
       cy="90.171875"
       fx="48"
       fy="90.171875"
       r="42" />
    <linearGradient
       inkscape:collect="always"
       xlink:href="#linearGradient3737"
       id="linearGradient3013"
       gradientUnits="userSpaceOnUse"
       x1="36.357143"
       y1="6"
       x2="36.357143"
       y2="63.893143" />
    <linearGradient
       inkscape:collect="always"
       xlink:href="#linearGradient3778"
       id="linearGradient3016"
       gradientUnits="userSpaceOnUse"
       x1="48"
       y1="90"
       x2="48"
       y2="5.9877172" />
  </defs>
  <metadata
     id="metadata2413">
    <rdf:RDF>
      <cc:Work
         rdf:about="">
        <dc:format>image/svg+xml</dc:format>
        <dc:type
           rdf:resource="http://purl.org/dc/dcmitype/StillImage" />
        <dc:title></dc:title>
      </cc:Work>
    </rdf:RDF>
  </metadata>
  <g
     id="layer2"
     style="display:none">
    <rect
       width="86"
       height="85"
       rx="6"
       ry="6"
       x="5"
       y="7"
       id="rect3745"
       style="opacity:0.9;fill:url(#ButtonShadow);fill-opacity:1;fill-rule:nonzero;stroke:none;filter:url(#filter3174)" />
  </g>
  <g
     id="layer4"
     style="display:inline">
    <path
       d="m 12,-95.03125 c -5.5110903,0 -10.03125,4.52016 -10.03125,10.03125 l 0,71 c 0,5.5110902 4.5201598,10.03125 10.03125,10.03125 l 72,0 c 5.51109,0 10.03125,-4.5201597 10.03125,-10.03125 l 0,-71 c 0,-5.51109 -4.52016,-10.03125 -10.03125,-10.03125 l -72,0 z"
       transform="scale(1,-1)"
       id="path3786"
       style="opacity:0.07999998;fill:url(#linearGradient2918);fill-opacity:1;fill-rule:nonzero;stroke:none;display:inline" />
    <path
       d="m 12,-94.03125 c -4.971633,0 -9.03125,4.059617 -9.03125,9.03125 l 0,71 c 0,4.9716329 4.0596171,9.03125 9.03125,9.03125 l 72,0 c 4.971633,0 9.03125,-4.059617 9.03125,-9.03125 l 0,-71 c 0,-4.971633 -4.059617,-9.03125 -9.03125,-9.03125 l -72,0 z"
       transform="scale(1,-1)"
       id="path3778"
       style="opacity:0.1;fill:url(#linearGradient3780);fill-opacity:1;fill-rule:nonzero;stroke:none;display:inline" />
    <path
       d="m 12,-93 c -4.4091333,0 -8,3.590867 -8,8 l 0,71 c 0,4.4091333 3.5908667,8 8,8 l 72,0 c 4.409133,0 8,-3.5908667 8,-8 l 0,-71 c 0,-4.409133 -3.590867,-8 -8,-8 l -72,0 z"
       transform="scale(1,-1)"
       id="path3770"
       style="opacity:0.2;fill:url(#linearGradient3772);fill-opacity:1;fill-rule:nonzero;stroke:none;display:inline" />
    <rect
       width="86"
       height="85"
       rx="7"
       ry="7"
       x="5"
       y="-92"
       transform="scale(1,-1)"
       id="rect3723"
       style="opacity:0.3;fill:url(#linearGradient3725);fill-opacity:1;fill-rule:nonzero;stroke:none;display:inline" />
    <rect
       width="84"
       height="84"
       rx="6"
       ry="6"
       x="6"
       y="-91"
       transform="scale(1,-1)"
       id="rect3716"
       style="opacity:0.45;fill:url(#linearGradient3721);fill-opacity:1;fill-rule:nonzero;stroke:none;display:inline" />
  </g>
  <rect
     style="fill:url(#linearGradient3016);fill-opacity:1;fill-rule:nonzero;stroke:none"
     id="rect2419"
     y="6"
     x="6"
     ry="6"
     rx="6"
     height="84"
     width="84" />
  <path
     style="opacity:0.4;fill:url(#linearGradient3013);fill-opacity:1;fill-rule:nonzero;stroke:none"
     id="rect3728"
     inkscape:connector-curvature="0"
     d="M 12,6 C 8.676,6 6,8.676 6,12 l 0,2 0,68 0,2 c 0,0.334721 0.04135,0.6507 0.09375,0.96875 0.0487,0.295596 0.09704,0.596915 0.1875,0.875 0.00988,0.03038 0.020892,0.0636 0.03125,0.09375 0.098865,0.287771 0.2348802,0.547452 0.375,0.8125 0.1445918,0.273507 0.3156161,0.535615 0.5,0.78125 0.1843839,0.245635 0.3737765,0.473472 0.59375,0.6875 0.439947,0.428056 0.94291,0.814526 1.5,1.09375 0.278545,0.139612 0.5734731,0.246947 0.875,0.34375 -0.2562018,-0.100222 -0.4867109,-0.236272 -0.71875,-0.375 -0.00741,-0.0044 -0.023866,0.0045 -0.03125,0 -0.031933,-0.0193 -0.062293,-0.04251 -0.09375,-0.0625 -0.120395,-0.0767 -0.2310226,-0.163513 -0.34375,-0.25 -0.1061728,-0.0808 -0.2132809,-0.161112 -0.3125,-0.25 C 8.4783201,88.557317 8.3087904,88.373362 8.15625,88.1875 8.0486711,88.057245 7.9378561,87.922215 7.84375,87.78125 7.818661,87.74287 7.805304,87.69538 7.78125,87.65625 7.716487,87.553218 7.6510225,87.451733 7.59375,87.34375 7.4927417,87.149044 7.3880752,86.928049 7.3125,86.71875 7.30454,86.69694 7.288911,86.6782 7.28125,86.65625 7.2494249,86.5643 7.2454455,86.469419 7.21875,86.375 7.1884177,86.268382 7.1483606,86.171969 7.125,86.0625 7.0521214,85.720988 7,85.364295 7,85 L 7,83 7,15 7,13 C 7,10.218152 9.2181517,8 12,8 l 2,0 68,0 2,0 c 2.781848,0 5,2.218152 5,5 l 0,2 0,68 0,2 c 0,0.364295 -0.05212,0.720988 -0.125,1.0625 -0.04415,0.206893 -0.08838,0.397658 -0.15625,0.59375 -0.0077,0.02195 -0.0233,0.04069 -0.03125,0.0625 -0.06274,0.173739 -0.138383,0.367449 -0.21875,0.53125 -0.04158,0.0828 -0.07904,0.169954 -0.125,0.25 -0.0546,0.09721 -0.126774,0.18835 -0.1875,0.28125 -0.09411,0.140965 -0.204921,0.275995 -0.3125,0.40625 -0.143174,0.17445 -0.303141,0.346998 -0.46875,0.5 -0.01117,0.0102 -0.01998,0.02115 -0.03125,0.03125 -0.138386,0.125556 -0.285091,0.234436 -0.4375,0.34375 -0.102571,0.07315 -0.204318,0.153364 -0.3125,0.21875 -0.0074,0.0045 -0.02384,-0.0044 -0.03125,0 -0.232039,0.138728 -0.462548,0.274778 -0.71875,0.375 0.301527,-0.0968 0.596455,-0.204138 0.875,-0.34375 0.55709,-0.279224 1.060053,-0.665694 1.5,-1.09375 0.219973,-0.214028 0.409366,-0.441865 0.59375,-0.6875 0.184384,-0.245635 0.355408,-0.507743 0.5,-0.78125 0.14012,-0.265048 0.276135,-0.524729 0.375,-0.8125 0.01041,-0.03078 0.02133,-0.06274 0.03125,-0.09375 0.09046,-0.278085 0.1388,-0.579404 0.1875,-0.875 C 89.95865,84.6507 90,84.334721 90,84 l 0,-2 0,-68 0,-2 C 90,8.676 87.324,6 84,6 L 12,6 z" />
  <path
     style="opacity:0.2;fill:url(#radialGradient3010);fill-opacity:1;fill-rule:nonzero;stroke:none"
     id="path3615"
     inkscape:connector-curvature="0"
     d="M 12,90 C 8.676,90 6,87.324 6,84 L 6,82 6,14 6,12 c 0,-0.334721 0.04135,-0.6507 0.09375,-0.96875 0.0487,-0.295596 0.09704,-0.596915 0.1875,-0.875 C 6.29113,10.12587 6.302142,10.09265 6.3125,10.0625 6.411365,9.774729 6.5473802,9.515048 6.6875,9.25 6.8320918,8.976493 7.0031161,8.714385 7.1875,8.46875 7.3718839,8.223115 7.5612765,7.995278 7.78125,7.78125 8.221197,7.353194 8.72416,6.966724 9.28125,6.6875 9.559795,6.547888 9.8547231,6.440553 10.15625,6.34375 9.9000482,6.443972 9.6695391,6.580022 9.4375,6.71875 c -0.00741,0.0044 -0.023866,-0.0045 -0.03125,0 -0.031933,0.0193 -0.062293,0.04251 -0.09375,0.0625 -0.120395,0.0767 -0.2310226,0.163513 -0.34375,0.25 -0.1061728,0.0808 -0.2132809,0.161112 -0.3125,0.25 C 8.4783201,7.442683 8.3087904,7.626638 8.15625,7.8125 8.0486711,7.942755 7.9378561,8.077785 7.84375,8.21875 7.818661,8.25713 7.805304,8.30462 7.78125,8.34375 7.716487,8.446782 7.6510225,8.548267 7.59375,8.65625 7.4927417,8.850956 7.3880752,9.071951 7.3125,9.28125 7.30454,9.30306 7.288911,9.3218 7.28125,9.34375 7.2494249,9.4357 7.2454455,9.530581 7.21875,9.625 7.1884177,9.731618 7.1483606,9.828031 7.125,9.9375 7.0521214,10.279012 7,10.635705 7,11 l 0,2 0,68 0,2 c 0,2.781848 2.2181517,5 5,5 l 2,0 68,0 2,0 c 2.781848,0 5,-2.218152 5,-5 l 0,-2 0,-68 0,-2 C 89,10.635705 88.94788,10.279012 88.875,9.9375 88.83085,9.730607 88.78662,9.539842 88.71875,9.34375 88.71105,9.3218 88.69545,9.30306 88.6875,9.28125 88.62476,9.107511 88.549117,8.913801 88.46875,8.75 88.42717,8.6672 88.38971,8.580046 88.34375,8.5 88.28915,8.40279 88.216976,8.31165 88.15625,8.21875 88.06214,8.077785 87.951329,7.942755 87.84375,7.8125 87.700576,7.63805 87.540609,7.465502 87.375,7.3125 87.36383,7.3023 87.35502,7.29135 87.34375,7.28125 87.205364,7.155694 87.058659,7.046814 86.90625,6.9375 86.803679,6.86435 86.701932,6.784136 86.59375,6.71875 c -0.0074,-0.0045 -0.02384,0.0044 -0.03125,0 -0.232039,-0.138728 -0.462548,-0.274778 -0.71875,-0.375 0.301527,0.0968 0.596455,0.204138 0.875,0.34375 0.55709,0.279224 1.060053,0.665694 1.5,1.09375 0.219973,0.214028 0.409366,0.441865 0.59375,0.6875 0.184384,0.245635 0.355408,0.507743 0.5,0.78125 0.14012,0.265048 0.276135,0.524729 0.375,0.8125 0.01041,0.03078 0.02133,0.06274 0.03125,0.09375 0.09046,0.278085 0.1388,0.579404 0.1875,0.875 C 89.95865,11.3493 90,11.665279 90,12 l 0,2 0,68 0,2 c 0,3.324 -2.676,6 -6,6 l -72,0 z" />
  <g
     id="layer7"
     style="opacity:0.9;display:inline">
    <g
       clip-path="url(#clipPath2973)"
       id="g3855"
       style="fill:#ffaae1;fill-opacity:1">
      <path
         d="M 48,48 72,-8 88,-8 48,48 z"
         inkscape:connector-curvature="0"
         id="path3819"
         style="opacity:0.15;fill:#ffaae1;fill-opacity:1;stroke:none" />
      <path
         d="M 48,48 103.25122,73.67688 102.769,89.669611 48,48 z"
         inkscape:connector-curvature="0"
         id="path3821"
         style="opacity:0.15;fill:#ffaae1;fill-opacity:1;stroke:none" />
      <path
         d="M 48,47.999999 -11.82794,59.515947 -20.796753,46.266027 48,47.999999 z"
         inkscape:connector-curvature="0"
         id="path3823"
         style="opacity:0.15;fill:#ffaae1;fill-opacity:1;stroke:none" />
      <path
         d="M 48,48 -1.3111997,12.217252 2.2248524,-3.3871168 48,48 z"
         inkscape:connector-curvature="0"
         id="path3825"
         style="opacity:0.15;fill:#ffaae1;fill-opacity:1;stroke:none" />
      <path
         d="M 48,48 65.519239,-14.073153 95.955194,-1.3588835 48,48 z"
         inkscape:connector-curvature="0"
         id="path3827"
         style="opacity:0.15;fill:#ffaae1;fill-opacity:1;stroke:none" />
      <path
         d="M 48,48 109.6356,28.998609 115.4895,61.459846 48,48 z"
         inkscape:connector-curvature="0"
         id="path3829"
         style="opacity:0.15;fill:#ffaae1;fill-opacity:1;stroke:none" />
      <path
         d="M 48,48 16.754067,104.42421 -9.9692451,85.088633 48,48 z"
         inkscape:connector-curvature="0"
         id="path3831"
         style="opacity:0.15;fill:#ffaae1;fill-opacity:1;stroke:none" />
      <path
         d="M 48,48 -14.811967,33.348835 -3.5083336,2.3612922 48,48 z"
         inkscape:connector-curvature="0"
         id="path3833"
         style="opacity:0.15;fill:#ffaae1;fill-opacity:1;stroke:none" />
      <path
         d="M 48,48 93.809637,93.403493 90.117903,102.42501 48,48 z"
         inkscape:connector-curvature="0"
         id="path3835"
         style="opacity:0.15;fill:#ffaae1;fill-opacity:1;stroke:none" />
      <path
         d="m 48,48 -2.970052,64.42964 -9.168463,3.30998 L 48,48 z"
         inkscape:connector-curvature="0"
         id="path3837"
         style="opacity:0.15;fill:#ffaae1;fill-opacity:1;stroke:none" />
      <path
         d="M 48,48 3.1405789,94.342551 -5.923902,90.757601 48,48 z"
         inkscape:connector-curvature="0"
         id="path3839"
         style="opacity:0.15;fill:#ffaae1;fill-opacity:1;stroke:none" />
      <path
         d="M 48,47.999999 -14.116138,65.366204 -20.132068,57.696441 48,47.999999 z"
         inkscape:connector-curvature="0"
         id="path3841"
         style="opacity:0.15;fill:#ffaae1;fill-opacity:1;stroke:none" />
      <path
         d="M 48.000001,47.999998 18.853372,-9.5367177 25.202646,-16.932892 48.000001,47.999998 z"
         inkscape:connector-curvature="0"
         id="path3843"
         style="opacity:0.15;fill:#ffaae1;fill-opacity:1;stroke:none" />
      <path
         d="m 48.000003,48.000001 59.481677,-24.938521 6.921,6.864135 -66.402677,18.074386 z"
         inkscape:connector-curvature="0"
         id="path3845"
         style="opacity:0.15;fill:#ffaae1;fill-opacity:1;stroke:none" />
      <path
         d="M 47.999999,47.999999 88.186743,93.793286 81.290444,108.23077 47.999999,47.999999 z"
         inkscape:connector-curvature="0"
         id="path3849"
         style="opacity:0.15;fill:#ffaae1;fill-opacity:1;stroke:none" />
      <path
         d="M 48.000001,48 12.042033,-1.1835747 20.194136,-14.95104 48.000001,48 z"
         inkscape:connector-curvature="0"
         id="path3851"
         style="opacity:0.15;fill:#ffaae1;fill-opacity:1;stroke:none" />
    </g>
    <rect
       width="84"
       height="84"
       rx="6"
       ry="6"
       x="6"
       y="6"
       id="rect3873"
       style="fill:url(#linearGradient3617);fill-opacity:1;fill-rule:nonzero;stroke:none;display:none" />
    <rect
       width="84"
       height="84"
       rx="6"
       ry="6"
       x="6"
       y="6"
       id="rect3880"
       style="fill:url(#linearGradient3878);fill-opacity:1;fill-rule:nonzero;stroke:none;display:none" />
  </g>
  <g
     id="layer5"
     style="display:inline">
    <rect
       width="66"
       height="66"
       rx="12"
       ry="12"
       x="15"
       y="15"
       clip-path="url(#clipPath3613)"
       id="rect3171"
       style="opacity:0.1;fill:url(#linearGradient3613);fill-opacity:1;fill-rule:nonzero;stroke:#ffffff;stroke-width:0.5;stroke-linecap:round;stroke-linejoin:miter;stroke-miterlimit:4;stroke-opacity:1;stroke-dasharray:none;stroke-dashoffset:0;filter:url(#filter3794)" />
  </g>
  <g
     id="layer6"
     style="display:none">
    <path
       d="m 44.202778,21.500099 c -1.082262,0 -1.958577,0.897784 -1.958577,1.998539 l 0,3.877166 c -1.935147,0.515597 -3.784186,1.294397 -5.475994,2.278335 l -2.757989,-2.757984 c -0.389179,-0.389176 -0.855369,-0.595295 -1.359003,-0.599563 -0.503633,-0.0043 -1.016343,0.176957 -1.398974,0.559591 l -5.396062,5.396057 c -0.765262,0.76527 -0.738376,1.979633 0.03989,2.757985 l 2.757989,2.757984 c -0.983934,1.691803 -1.76273,3.540846 -2.27834,5.475997 l -3.877162,0 c -1.100753,0 -1.998541,0.876313 -1.998541,1.958569 l 0,7.59445 c 0,1.082256 0.897788,1.958569 1.998541,1.958569 l 3.877162,0 c 0.51561,1.935152 1.294406,3.784195 2.27834,5.475998 l -2.757989,2.757984 c -0.778348,0.77835 -0.805234,1.992713 -0.03989,2.757984 l 5.396062,5.396057 c 0.765262,0.76527 1.979629,0.738377 2.757977,-0.03997 l 2.757989,-2.757984 c 1.691808,0.983939 3.540847,1.762736 5.475994,2.278334 l 0,3.877167 c 0,1.100754 0.876315,1.99854 1.958577,1.99854 l 7.594448,0 c 1.082252,0 1.958566,-0.897786 1.958566,-1.99854 l 0,-3.877167 c 1.935147,-0.515598 3.784186,-1.294395 5.475995,-2.278334 l 2.757988,2.757984 c 0.778348,0.77835 1.992715,0.805242 2.757988,0.03997 l 5.396051,-5.396057 c 0.765263,-0.76527 0.738377,-1.979634 -0.03989,-2.757984 l -2.757977,-2.757984 c 0.983933,-1.691803 1.762729,-3.540846 2.278328,-5.475998 l 3.877173,0 c 1.100744,0 1.998538,-0.876312 1.998538,-1.958569 l 0,-7.59445 c 0,-1.082255 -0.897794,-1.958569 -1.998538,-1.958569 l -3.877173,0 C 69.10868,41.309055 68.329884,39.460012 67.345951,37.768209 l 2.757977,-2.757984 c 0.778348,-0.778351 0.805245,-1.992715 0.03989,-2.757985 l -5.396051,-5.396057 c -0.765273,-0.76527 -1.97964,-0.738379 -2.757988,0.03997 l -2.757988,2.757984 c -1.691809,-0.983938 -3.540848,-1.762738 -5.475995,-2.278335 l 0,-3.877166 c 0,-1.100755 -0.876314,-1.998539 -1.958566,-1.998539 l -7.594448,0 z m 3.797219,19.185977 c 4.589292,0 8.313926,3.724638 8.313926,8.313924 0,4.589287 -3.724634,8.313924 -8.313926,8.313924 -4.589282,0 -8.313926,-3.724637 -8.313926,-8.313924 0,-4.589286 3.724644,-8.313924 8.313926,-8.313924 z"
       inkscape:connector-curvature="0"
       id="path3808"
       style="fill:#000000;fill-opacity:1;fill-rule:nonzero;stroke:none;stroke-width:1;marker:none;visibility:visible;display:block;overflow:visible;filter:url(#filter3814);enable-background:accumulate" />
    <path
       d="m 44.202778,20.500099 c -1.082262,0 -1.958577,0.897784 -1.958577,1.998539 l 0,3.877166 c -1.935147,0.515597 -3.784186,1.294397 -5.475994,2.278335 l -2.757989,-2.757984 c -0.389179,-0.389176 -0.855369,-0.595295 -1.359003,-0.599563 -0.503633,-0.0043 -1.016343,0.176957 -1.398974,0.559591 l -5.396062,5.396057 c -0.765262,0.76527 -0.738376,1.979633 0.03989,2.757985 l 2.757989,2.757984 c -0.983934,1.691803 -1.76273,3.540846 -2.27834,5.475997 l -3.877162,0 c -1.100753,0 -1.998541,0.876313 -1.998541,1.958569 l 0,7.59445 c 0,1.082256 0.897788,1.958569 1.998541,1.958569 l 3.877162,0 c 0.51561,1.935152 1.294406,3.784195 2.27834,5.475998 l -2.757989,2.757984 c -0.778348,0.77835 -0.805234,1.992713 -0.03989,2.757984 l 5.396062,5.396057 c 0.765262,0.76527 1.979629,0.738377 2.757977,-0.03997 l 2.757989,-2.757984 c 1.691808,0.983939 3.540847,1.762736 5.475994,2.278334 l 0,3.877167 c 0,1.100754 0.876315,1.99854 1.958577,1.99854 l 7.594448,0 c 1.082252,0 1.958566,-0.897786 1.958566,-1.99854 l 0,-3.877167 c 1.935147,-0.515598 3.784186,-1.294395 5.475995,-2.278334 l 2.757988,2.757984 c 0.778348,0.77835 1.992715,0.805242 2.757988,0.03997 l 5.396051,-5.396057 c 0.765263,-0.76527 0.738377,-1.979634 -0.03989,-2.757984 l -2.757977,-2.757984 c 0.983933,-1.691803 1.762729,-3.540846 2.278328,-5.475998 l 3.877173,0 c 1.100744,0 1.998538,-0.876312 1.998538,-1.958569 l 0,-7.59445 c 0,-1.082255 -0.897794,-1.958569 -1.998538,-1.958569 l -3.877173,0 C 69.10868,40.309055 68.329884,38.460012 67.345951,36.768209 l 2.757977,-2.757984 c 0.778348,-0.778351 0.805245,-1.992715 0.03989,-2.757985 l -5.396051,-5.396057 c -0.765273,-0.76527 -1.97964,-0.738379 -2.757988,0.03997 l -2.757988,2.757984 c -1.691809,-0.983938 -3.540848,-1.762738 -5.475995,-2.278335 l 0,-3.877166 c 0,-1.100755 -0.876314,-1.998539 -1.958566,-1.998539 l -7.594448,0 z m 3.797219,19.185977 c 4.589292,0 8.313926,3.724638 8.313926,8.313924 0,4.589287 -3.724634,8.313924 -8.313926,8.313924 -4.589282,0 -8.313926,-3.724637 -8.313926,-8.313924 0,-4.589286 3.724644,-8.313924 8.313926,-8.313924 z"
       inkscape:connector-curvature="0"
       id="rect3267"
       style="fill:url(#linearGradient3804);fill-opacity:1;fill-rule:nonzero;stroke:url(#linearGradient3806);stroke-width:1;stroke-linecap:butt;stroke-linejoin:round;stroke-miterlimit:4;stroke-opacity:1;stroke-dasharray:none;stroke-dashoffset:0;marker:none;visibility:visible;display:block;overflow:visible;enable-background:accumulate" />
    <path
       d="m 47.999997,30.732619 c -9.521233,0 -17.267377,7.746146 -17.267377,17.267381 0,9.521234 7.746144,17.267381 17.267377,17.267381 9.521233,0 17.267387,-7.746147 17.267387,-17.267381 0,-9.521235 -7.746154,-17.267381 -17.267387,-17.267381 z"
       inkscape:connector-curvature="0"
       id="path28"
       style="fill:none;stroke:url(#linearGradient3801);stroke-width:2;stroke-miterlimit:4;stroke-dasharray:none" />
    <path
       d="m 47.999997,31.372152 c -9.168751,0 -16.627852,7.459099 -16.627852,16.627848 0,9.168749 7.459101,16.627848 16.627852,16.627848 9.168751,-2e-6 16.627852,-7.459099 16.627852,-16.627848 0,-9.168749 -7.459101,-16.627848 -16.627852,-16.627848 z m 0,7.674391 c 4.942307,0 8.953461,4.011149 8.953461,8.953457 0,4.942308 -4.011154,8.953457 -8.953461,8.953457 -4.942307,0 -8.953461,-4.011149 -8.953461,-8.953457 0,-4.942308 4.011154,-8.953457 8.953461,-8.953457 z"
       inkscape:connector-curvature="0"
       id="path3315"
       style="opacity:0.05;fill:#000000;fill-opacity:1;stroke:none" />
  </g>
  <g
     id="layer4-6"
     transform="translate(-0.03488601,-0.41766926)">
    <path
       d="m 47.28125,16.71875 c 0.0045,-3.13e-4 -0.08594,0.02723 -0.125,0.03125 -0.0093,9.56e-4 -0.03231,1.49e-4 -0.03125,0 -0.0433,0.0088 -0.226159,0.03313 -0.21875,0.03125 0.0084,-0.0021 -0.258163,0.06555 -0.25,0.0625 0.0082,-0.0031 -0.226529,0.128932 -0.21875,0.125 0.0078,-0.0039 -0.226051,0.129761 -0.21875,0.125 0.0073,-0.0048 -0.194234,0.130533 -0.1875,0.125 0.0067,-0.0055 -0.193587,0.193738 -0.1875,0.1875 0.0061,-0.0062 -0.161616,0.194368 -0.15625,0.1875 0.0054,-0.0069 -0.16083,0.194915 -0.15625,0.1875 a 1.2463047,1.2463047 0 0 0 0,0.03125 c -2.078474,3.472465 -3.745606,7.097009 -5.5625,10.46875 -0.01296,0.02405 -0.04953,0.03848 -0.0625,0.0625 A 1.2463047,1.2463047 0 0 0 39.875,28.375 1.2463047,1.2463047 0 0 0 39.8125,28.53125 1.2463047,1.2463047 0 0 0 39.78125,28.5625 l -3.5625,6.8125 c -6.380192,1.134582 -12.778593,2.252808 -19.15625,3.40625 0.0055,-10e-4 -0.161643,0.03264 -0.15625,0.03125 0.0054,-0.0014 -0.161532,0.03302 -0.15625,0.03125 0.0053,-0.0018 -0.161394,0.06464 -0.15625,0.0625 0.0051,-0.0021 -0.129982,0.06499 -0.125,0.0625 0.005,-0.0025 -0.161045,0.09658 -0.15625,0.09375 0.0048,-0.0028 -0.129584,0.06566 -0.125,0.0625 0.0046,-0.0032 -0.129351,0.09723 -0.125,0.09375 0.0038,-0.003 -0.1032,0.0752 -0.125,0.09375 l 0,0.03125 c -1.100452,1.012096 -1.236039,2.430662 -0.875,3.53125 0.204306,0.622803 0.639791,0.961564 1.03125,1.34375 a 1.2463047,1.2463047 0 0 0 0,0.03125 1.2463047,1.2463047 0 0 0 0.28125,0.5 l 12.65625,13.09375 c -0.884898,6.360959 -1.821426,12.716835 -2.65625,19.125 0.001,-0.008 -2.01e-4,0.226816 0,0.21875 2.01e-4,-0.0081 6.19e-4,0.258045 0,0.25 -6.19e-4,-0.008 0.03268,0.22669 0.03125,0.21875 -0.0014,-0.0079 0.06473,0.226504 0.0625,0.21875 a 1.2463047,1.2463047 0 0 0 0,0.03125 C 26.7185,78.727333 27.227114,79.347033 28,79.75 c 0.655332,0.341677 1.322083,0.406367 1.8125,0.375 0.645129,-0.04126 1.070931,-0.330827 1.53125,-0.5625 0.0083,-0.0042 0.02303,0.0042 0.03125,0 A 1.2463047,1.2463047 0 0 0 32,79.375 l 0.03125,-0.03125 0.125,-0.0625 L 48.125,71.5 c 5.6382,2.762596 11.303483,5.556112 17,8.28125 0.03364,0.0161 0.0601,0.04641 0.09375,0.0625 0.01578,0.0086 0.03263,0.03194 0.03125,0.03125 -0.0049,-0.0025 0.161329,0.06461 0.15625,0.0625 A 1.2463047,1.2463047 0 0 0 65.5,79.96875 c 1.434603,0.450988 2.829485,-0.10192 3.59375,-1.21875 0.487898,-0.712973 0.547383,-1.544571 0.4375,-2.3125 a 1.2463047,1.2463047 0 0 0 0,-0.46875 L 66.9375,57.6875 c 4.45115,-4.564405 9.013937,-9.102277 13.4375,-13.78125 0.02546,-0.02693 0.03705,-0.06681 0.0625,-0.09375 0.03194,-0.03136 0.06461,-0.06476 0.0625,-0.0625 -0.0048,0.0052 0.129325,-0.16181 0.125,-0.15625 -0.0043,0.0056 0.128815,-0.162172 0.125,-0.15625 -0.0038,0.0059 0.09702,-0.162487 0.09375,-0.15625 a 1.2463047,1.2463047 0 0 0 0.0625,-0.09375 c 0.558873,-1.270018 0.244602,-2.650149 -0.625,-3.5625 C 79.719001,39.035112 79.028179,38.842519 78.375,38.75 A 1.2463047,1.2463047 0 0 0 77.9375,38.59375 L 59.84375,35.40625 C 56.800977,29.697707 53.821429,23.908463 50.6875,18.1875 c 4.07e-4,7.89e-4 0.0039,-0.02422 0,-0.03125 -0.01559,-0.02814 -0.0643,-0.09681 -0.0625,-0.09375 0.0023,0.0038 -0.06496,-0.09745 -0.0625,-0.09375 0.0025,0.0037 -0.06517,-0.128552 -0.0625,-0.125 0.0027,0.0036 -0.06536,-0.09715 -0.0625,-0.09375 A 1.2463047,1.2463047 0 0 0 50.40625,17.71875 C 49.713585,16.94722 48.83038,16.791381 48.3125,16.75 c -0.195382,-0.01561 -0.351499,-0.02741 -0.46875,-0.03125 -0.117251,-0.0038 -0.331791,-0.03277 -0.09375,0 l 0,0.03125 c -0.03906,-0.004 -0.129471,-0.03156 -0.125,-0.03125 0.0055,3.88e-4 -0.193049,0 -0.1875,0 0.0055,0 -0.161786,3.88e-4 -0.15625,0 z"
       id="path3755"
       style="opacity:0.05;fill:#000000;fill-opacity:1;stroke:none;display:inline" />
    <path
       d="m 47.3125,17.96875 a 1.0082373,1.0082373 0 0 0 -0.71875,0.46875 c -2.083476,3.480822 -3.791176,7.195874 -5.6875,10.6875 a 1.0082373,1.0082373 0 0 0 -0.03125,0 L 37.03125,36.5 c -6.580051,1.172212 -13.181862,2.312108 -19.75,3.5 a 1.0082373,1.0082373 0 0 0 -0.5,0.25 c -0.662593,0.598706 -0.752472,1.575628 -0.53125,2.25 0.19364,0.59029 0.591323,0.995251 1.0625,1.34375 L 17.28125,43.875 30.375,57.40625 C 29.465609,63.974 28.48377,70.533023 27.625,77.125 a 1.0082373,1.0082373 0 0 0 0.03125,0.40625 c 0.142802,0.469478 0.50554,0.916078 0.90625,1.125 0.40071,0.208922 0.800995,0.241472 1.15625,0.21875 0.647546,-0.04142 1.170735,-0.299861 1.625,-0.59375 l 0,0.03125 0.15625,-0.09375 16.65625,-8.125 c 5.859881,2.866252 11.697182,5.805844 17.59375,8.625 a 1.0082373,1.0082373 0 0 0 0.125,0.0625 c 0.833237,0.26194 1.769096,-0.138581 2.1875,-0.75 0.370956,-0.542083 0.396948,-1.218765 0.1875,-1.875 l 0.0625,0 -2.6875,-18.9375 c 4.613117,-4.740557 9.346288,-9.423138 13.90625,-14.25 A 1.0082373,1.0082373 0 0 0 79.75,42.6875 C 80.086208,41.92348 79.87495,41.024527 79.375,40.5 78.946118,40.050035 78.31352,39.909174 77.6875,39.90625 L 77.71875,39.8125 59.03125,36.53125 C 55.878191,30.631429 52.817422,24.633664 49.59375,18.75 a 1.0082373,1.0082373 0 0 0 -0.125,-0.1875 c -0.375903,-0.418702 -0.912359,-0.535521 -1.25,-0.5625 -0.337641,-0.02698 -0.571209,-0.02385 -0.625,-0.03125 a 1.0082373,1.0082373 0 0 0 -0.28125,0 z"
       id="path3751"
       style="opacity:0.1;fill:#000000;fill-opacity:1;stroke:none;display:inline" />
    <path
       d="m 47.463702,18.967483 c -2.048078,3.421683 -3.755154,7.113857 -5.670633,10.640753 -1.355157,2.594572 -2.710315,5.189144 -4.065473,7.783716 -6.749025,1.204011 -13.529278,2.384984 -20.259044,3.602107 -0.723725,0.653944 -0.166445,1.753775 0.543578,2.194151 4.473559,4.620548 8.947118,9.241098 13.420677,13.861648 -0.928478,6.731509 -1.939128,13.456095 -2.816634,20.191894 0.297049,0.976582 1.683906,0.579684 2.291223,0.149573 5.751079,-2.804346 11.502159,-5.608693 17.253238,-8.41304 6.015155,2.937472 12.005604,5.961968 18.036161,8.845184 0.895107,0.28139 1.46965,-0.718597 1.114223,-1.500676 C 66.399599,69.837749 65.488174,63.352704 64.576755,56.86766 69.305782,51.998095 74.154152,47.221071 78.808884,42.293892 79.186702,41.435315 78.400646,40.704391 77.542087,40.809561 71.165612,39.683018 64.789132,38.556475 58.412652,37.429931 55.171634,31.376647 52.018811,25.262998 48.72282,19.247341 48.395909,18.883209 47.891776,19.026415 47.463702,18.967483 z"
       inkscape:connector-curvature="0"
       id="path3741"
       style="opacity:0.15;fill:#000000;fill-opacity:1;stroke:none;display:inline" />
    <path
       d="M 5.3053385,9.1740304 8.9014493,8.35593 10.449345,5.0084956 l 1.889319,3.1672977 3.661926,0.4377224 -2.428448,2.7755983 0.715299,3.617961 -3.390182,-1.451883 -3.219847,1.798301 0.3331997,-3.672912 z"
       transform="matrix(5.594521,0.29482098,-0.29471615,5.5955932,-8.9770928,-11.185726)"
       id="path3709"
       style="opacity:0.3;fill:#000000;fill-opacity:1;stroke:none;display:inline" />
    <path
       d="M 5.3053385,9.1740304 8.9014493,8.35593 10.449345,5.0084956 l 1.889319,3.1672977 3.661926,0.4377224 -2.428448,2.7755983 0.715299,3.617961 -3.390182,-1.451883 -3.219847,1.798301 0.3331997,-3.672912 z"
       transform="matrix(5.594521,0.29482098,-0.29471615,5.5955932,-8.9770928,-12.185726)"
       id="path3748"
       style="fill:url(#linearGradient3790);fill-opacity:1;stroke:none;display:inline" />
    <path
       d="M 48,23.727678 40.000616,38.921314 23.066854,41.856152 35.039959,54.166894 32.572616,71.178572 48,63.59474 63.401413,71.178572 60.960041,54.166894 72.933146,41.856152 56.025356,38.921314 48,23.727678 z m 0.02598,4.051637 6.363146,12.128937 a 1.8459256,1.8455706 1.5483833 0 0 1.246658,0.960964 l 13.583369,2.31151 -9.557705,9.687567 a 1.8459256,1.8455706 1.5483833 0 0 -0.493469,1.428461 L 61.063933,67.95804 48.857081,61.93253 a 1.8459256,1.8455706 1.5483833 0 0 -1.610267,0.05194 L 34.988015,67.906096 36.858,54.452586 a 1.8459256,1.8455706 1.5483833 0 0 -0.493468,-1.480405 l -9.531734,-9.843398 13.531426,-2.493315 a 1.8459256,1.8455706 1.5483833 0 0 1.350546,-0.934994 l 6.311202,-11.921159 z"
       inkscape:connector-curvature="0"
       id="path3684"
       style="opacity:0.1;fill:#aa4400;fill-opacity:1;stroke:none;display:inline" />
    <path
       d="M 48,22.299107 39.518952,38.407591 21.565564,41.519144 34.259601,54.571148 31.643693,72.607143 48,64.566669 64.328772,72.607143 61.740399,54.571148 74.434436,41.519144 56.508584,38.407591 48,22.299107 z m 0.02754,4.295596 6.746288,12.859252 a 1.9570736,1.9566972 1.5483833 0 0 1.321722,1.018827 l 14.40126,2.450692 -10.1332,10.27088 a 1.9570736,1.9566972 1.5483833 0 0 -0.523182,1.514473 l 2.010119,14.483868 -12.941859,-6.388322 a 1.9570736,1.9566972 1.5483833 0 0 -1.707225,0.05507 l -12.996934,6.27818 1.982582,-14.263581 A 1.9570736,1.9566972 1.5483833 0 0 35.66393,53.304498 L 25.558265,42.868403 39.904454,40.224959 a 1.9570736,1.9566972 1.5483833 0 0 1.431866,-0.991292 l 6.691216,-12.638964 z"
       inkscape:connector-curvature="0"
       id="path3682"
       style="opacity:0.2;fill:#aa4400;fill-opacity:1;stroke:none;display:inline" />
    <path
       d="M 48,20.513393 38.916872,37.765438 19.688951,41.097884 33.284153,55.076465 30.482539,74.392857 48,65.78158 65.487971,74.392857 62.715847,55.076465 76.311049,41.097884 57.112619,37.765438 48,20.513393 z m 0.02949,4.600545 7.225215,13.772146 a 2.0960086,2.0956055 1.5483833 0 0 1.415553,1.091155 l 15.423623,2.62467 -10.852569,11.000022 a 2.0960086,2.0956055 1.5483833 0 0 -0.560323,1.621987 l 2.15282,15.512095 -13.860618,-6.841836 a 2.0960086,2.0956055 1.5483833 0 0 -1.828422,0.05898 L 33.225172,70.677032 35.3485,55.400862 A 2.0960086,2.0956055 1.5483833 0 0 34.788177,53.719894 L 23.965099,42.542928 39.329741,39.711823 a 2.0960086,2.0956055 1.5483833 0 0 1.533516,-1.061665 l 7.166234,-13.53622 z"
       inkscape:connector-curvature="0"
       id="path3680"
       style="opacity:0.4;fill:#aa4400;fill-opacity:1;stroke:none;display:inline" />
    <path
       d="M 48,18.90625 38.375,37.1875 18,40.71875 32.40625,55.53125 29.4375,76 48,66.875 66.53125,76 63.59375,55.53125 78,40.71875 57.65625,37.1875 48,18.90625 z m 0.03125,4.875 7.65625,14.59375 a 2.2210501,2.220623 1.5483833 0 0 1.5,1.15625 l 16.34375,2.78125 -11.5,11.65625 A 2.2210501,2.220623 1.5483833 0 0 61.4375,55.6875 l 2.28125,16.4375 -14.6875,-7.25 a 2.2210501,2.220623 1.5483833 0 0 -1.9375,0.0625 l -14.75,7.125 2.25,-16.1875 A 2.2210501,2.220623 1.5483833 0 0 34,54.09375 L 22.53125,42.25 l 16.28125,-3 a 2.2210501,2.220623 1.5483833 0 0 1.625,-1.125 l 7.59375,-14.34375 z"
       inkscape:connector-curvature="0"
       id="path3677"
       style="fill:url(#linearGradient3692);fill-opacity:1;stroke:none;display:inline" />
    <path
       d="M 48,18.90625 38.375,37.1875 18,40.71875 32.40625,55.53125 29.4375,76 48,66.875 66.53125,76 63.59375,55.53125 78,40.71875 57.65625,37.1875 48,18.90625 z m 0.03125,1.71875 8.90625,16.96875 a 0.72744712,0.72730726 1.5483833 0 0 0.1875,0.15625 0.72744712,0.72730726 1.5483833 0 0 0.15625,0.1875 0.72744712,0.72730726 1.5483833 0 0 0.1875,0.03125 0.72744712,0.72730726 1.5483833 0 0 0.15625,0 l 18.9375,3.28125 -13.5,13.65625 a 0.72744712,0.72730726 1.5483833 0 0 -0.1875,0.15625 0.72744712,0.72730726 1.5483833 0 0 -0.03125,0.1875 0.72744712,0.72730726 1.5483833 0 0 0,0.1875 0.72744712,0.72730726 1.5483833 0 0 0,0.15625 L 65.5,74.6875 48.4375,66.25 a 0.72744712,0.72730726 1.5483833 0 0 -0.1875,-0.03125 0.72744712,0.72730726 1.5483833 0 0 -0.1875,0 0.72744712,0.72730726 1.5483833 0 0 -0.15625,0 0.72744712,0.72730726 1.5483833 0 0 -0.1875,-0.03125 l -17.25,8.40625 2.5625,-19 a 0.72744712,0.72730726 1.5483833 0 0 0,-0.15625 A 0.72744712,0.72730726 1.5483833 0 0 33.0625,55.25 0.72744712,0.72730726 1.5483833 0 0 32.875,55.0625 l -13.28125,-13.84375 18.9375,-3.375 a 0.72744712,0.72730726 1.5483833 0 0 0.15625,0 A 0.72744712,0.72730726 1.5483833 0 0 38.875,37.6875 0.72744712,0.72730726 1.5483833 0 0 39.0625,37.5 l 8.96875,-16.875 z"
       inkscape:connector-curvature="0"
       id="path3694"
       style="fill:url(#linearGradient2935);fill-opacity:1;stroke:none;display:inline" />
  </g>
</svg>
