<?xml version="1.0" encoding="UTF-8" standalone="no"?>
<!-- Created with Inkscape (http://www.inkscape.org/) -->

<svg
   xmlns:dc="http://purl.org/dc/elements/1.1/"
   xmlns:cc="http://creativecommons.org/ns#"
   xmlns:rdf="http://www.w3.org/1999/02/22-rdf-syntax-ns#"
   xmlns:svg="http://www.w3.org/2000/svg"
   xmlns="http://www.w3.org/2000/svg"
   xmlns:xlink="http://www.w3.org/1999/xlink"
   xmlns:sodipodi="http://sodipodi.sourceforge.net/DTD/sodipodi-0.dtd"
   xmlns:inkscape="http://www.inkscape.org/namespaces/inkscape"
   width="288"
   height="30"
   id="svg2966"
   version="1.1"
   inkscape:version="0.47 r22583"
   sodipodi:docname="battery.svg"
   inkscape:export-filename="/home/francesco/neo_freerunner/qtmoko/faenqomod/svg/battery.png"
   inkscape:export-xdpi="90"
   inkscape:export-ydpi="90">
  <defs
     id="defs2968">
    <inkscape:perspective
       sodipodi:type="inkscape:persp3d"
       inkscape:vp_x="0 : 526.18109 : 1"
       inkscape:vp_y="0 : 1000 : 0"
       inkscape:vp_z="744.09448 : 526.18109 : 1"
       inkscape:persp3d-origin="372.04724 : 350.78739 : 1"
       id="perspective2974" />
    <inkscape:perspective
       id="perspective2991"
       inkscape:persp3d-origin="0.5 : 0.33333333 : 1"
       inkscape:vp_z="1 : 0.5 : 1"
       inkscape:vp_y="0 : 1000 : 0"
       inkscape:vp_x="0 : 0.5 : 1"
       sodipodi:type="inkscape:persp3d" />
    <linearGradient
       inkscape:collect="always"
       xlink:href="#linearGradient3183"
       id="linearGradient2966"
       gradientUnits="userSpaceOnUse"
       gradientTransform="matrix(0,-1.4114526,1.4461829,0,8.2719472,1066.5088)"
       x1="11"
       y1="11.015625"
       x2="19"
       y2="11.015625" />
    <linearGradient
       id="linearGradient3183">
      <stop
         offset="0"
         style="stop-color:#c80000;stop-opacity:1"
         id="stop3185" />
      <stop
         offset="1"
         style="stop-color:#f3604d;stop-opacity:1"
         id="stop3187" />
    </linearGradient>
    <inkscape:perspective
       id="perspective3040"
       inkscape:persp3d-origin="0.5 : 0.33333333 : 1"
       inkscape:vp_z="1 : 0.5 : 1"
       inkscape:vp_y="0 : 1000 : 0"
       inkscape:vp_x="0 : 0.5 : 1"
       sodipodi:type="inkscape:persp3d" />
  </defs>
  <sodipodi:namedview
     id="base"
     pagecolor="#ffffff"
     bordercolor="#666666"
     borderopacity="1.0"
     inkscape:pageopacity="0.0"
     inkscape:pageshadow="2"
     inkscape:zoom="1"
     inkscape:cx="143.94674"
     inkscape:cy="8.5862966"
     inkscape:document-units="px"
     inkscape:current-layer="layer1"
     showgrid="false"
     borderlayer="true"
     inkscape:showpageshadow="false"
     inkscape:window-width="1366"
     inkscape:window-height="709"
     inkscape:window-x="0"
     inkscape:window-y="25"
     inkscape:window-maximized="1" />
  <metadata
     id="metadata2971">
    <rdf:RDF>
      <cc:Work
         rdf:about="">
        <dc:format>image/svg+xml</dc:format>
        <dc:type
           rdf:resource="http://purl.org/dc/dcmitype/StillImage" />
        <dc:title />
      </cc:Work>
    </rdf:RDF>
  </metadata>
  <g
     inkscape:label="Livello 1"
     inkscape:groupmode="layer"
     id="layer1"
     transform="translate(-373.14285,-660.2193)">
    <g
       transform="matrix(1.2272237,0,0,1.2272237,365.78295,-608.8857)"
       id="g2976">
      <path
         style="opacity:0.1;fill:#000000;fill-opacity:1;fill-rule:evenodd;stroke:none;display:inline"
         id="path3761"
         d="m 21.200088,1039.2354 c 3.53e-4,0 -0.04608,0.015 -0.04572,0.015 3.5e-4,0 -0.04606,1e-4 -0.04573,0 3.46e-4,0 -0.04606,0.015 -0.04572,0.015 4.87e-4,-10e-5 -0.06145,0.015 -0.06097,0.015 4.89e-4,-2e-4 -0.06143,0.029 -0.06097,0.029 4.77e-4,-3e-4 -0.07667,0.029 -0.07621,0.029 4.61e-4,-3e-4 -0.06141,0.029 -0.06097,0.029 4.42e-4,-2e-4 -0.04614,0.044 -0.04572,0.044 4.23e-4,-4e-4 -0.06137,0.029 -0.06097,0.029 4.01e-4,-2e-4 -0.0461,0.044 -0.04572,0.044 2.81e-4,-10e-5 -0.03206,0.031 -0.04573,0.044 -0.0045,0 -0.01533,0.015 -0.01524,0.015 l -2.926261,2.8524 c 4.65e-4,-6e-4 -0.06138,0.073 -0.06097,0.073 4.16e-4,-5e-4 -0.04609,0.059 -0.04572,0.059 3.64e-4,-5e-4 -0.04604,0.075 -0.04572,0.073 3.09e-4,-5e-4 -0.04597,0.089 -0.04573,0.088 2.51e-4,-5e-4 -0.03068,0.075 -0.03048,0.073 1.89e-4,-6e-4 -0.01537,0.089 -0.01524,0.088 1.28e-4,-7e-4 -0.01531,0.089 -0.01524,0.088 6.4e-5,-7e-4 0,0.089 0,0.088 0,-7e-4 6.4e-5,0.089 0,0.088 -6.4e-5,-6e-4 0.01537,0.089 0.01524,0.088 -1.26e-4,-6e-4 0.01544,0.089 0.01524,0.088 -1.89e-4,-7e-4 0.03073,0.075 0.03048,0.073 -2.5e-4,-6e-4 0.04604,0.089 0.04573,0.088 -3.08e-4,-5e-4 0.04609,0.075 0.04572,0.073 -3.63e-4,-7e-4 0.04614,0.06 0.04572,0.059 -4.15e-4,-5e-4 0.06144,0.075 0.06097,0.073 l 2.194695,2.1466 -2.194695,2.1466 c 4.65e-4,-5e-4 -0.06138,0.075 -0.06097,0.073 4.16e-4,-4e-4 -0.04609,0.06 -0.04572,0.059 3.64e-4,-6e-4 -0.04604,0.075 -0.04572,0.073 3.09e-4,-5e-4 -0.04597,0.089 -0.04573,0.088 2.51e-4,-7e-4 -0.03068,0.075 -0.03048,0.073 1.89e-4,-6e-4 -0.01537,0.089 -0.01524,0.088 1.28e-4,-6e-4 -0.01531,0.089 -0.01524,0.088 6.4e-5,-6e-4 0,0.089 0,0.088 0,-7e-4 6.4e-5,0.089 0,0.088 -6.4e-5,-7e-4 0.01537,0.089 0.01524,0.088 -1.26e-4,-7e-4 0.01544,0.089 0.01524,0.088 -1.89e-4,-5e-4 0.03073,0.075 0.03048,0.073 -2.5e-4,-6e-4 0.04604,0.089 0.04573,0.088 -3.08e-4,-7e-4 0.04609,0.075 0.04572,0.073 -3.63e-4,-6e-4 0.04614,0.06 0.04572,0.059 -4.15e-4,-6e-4 0.06144,0.075 0.06097,0.073 l 2.941502,2.867 c -4.82e-4,-5e-4 0.06149,0.059 0.06097,0.059 -5.37e-4,-5e-4 0.07678,0.059 0.07621,0.059 -5.84e-4,-4e-4 0.07681,0.044 0.07621,0.044 -5.86e-4,-3e-4 0.09209,0.044 0.09145,0.044 -6.34e-4,-3e-4 0.0921,0.029 0.09145,0.029 -6.82e-4,-3e-4 0.07689,0.029 0.07621,0.029 -6.83e-4,-2e-4 0.09214,0.015 0.09145,0.015 -6.83e-4,0 0.107377,0 0.106684,0 -6.83e-4,0 0.09214,0 0.09145,0 -6.83e-4,2e-4 0.09212,-0.015 0.09145,-0.015 -6.83e-4,10e-5 0.09211,-0.015 0.09145,-0.015 -6.83e-4,3e-4 0.07685,-0.029 0.07621,-0.029 -6.34e-4,10e-5 0.09207,-0.029 0.09145,-0.029 -6.34e-4,3e-4 0.07679,-0.044 0.07621,-0.044 -5.85e-4,3e-4 0.07675,-0.059 0.07621,-0.059 -5.36e-4,4e-4 0.07671,-0.059 0.07621,-0.059 l 2.240419,-2.1466 2.148972,2.1172 c -2.48e-4,-3e-4 0.03074,0.029 0.03048,0.029 -2.6e-4,-3e-4 0.046,0.029 0.04573,0.029 -2.73e-4,-3e-4 0.03077,0.029 0.03048,0.029 -2.84e-4,-1e-4 0.04602,0.029 0.04573,0.029 -2.94e-4,-1e-4 0.03078,0.029 0.03048,0.029 -3.05e-4,-3e-4 0.04604,0.029 0.04573,0.029 -3.14e-4,-2e-4 0.04605,0.015 0.04572,0.015 -3.23e-4,-2e-4 0.04605,0.015 0.04572,0.015 -3.29e-4,-10e-5 0.03082,0.015 0.03048,0.015 -3.35e-4,-2e-4 0.04606,0.015 0.04572,0.015 -3.43e-4,-10e-5 0.04606,0.015 0.04573,0.015 -3.47e-4,0 0.06132,0.015 0.06097,0.015 -3.51e-4,-10e-5 0.04608,0.015 0.04572,0.015 -3.53e-4,0 0.04608,0 0.04572,0 -3.56e-4,0 0.04608,0 0.04572,0 -3.57e-4,0 0.04608,0 0.04573,0 -3.58e-4,0 0.04608,0 0.04572,0 -3.57e-4,0 0.04608,0 0.04572,0 -3.55e-4,0 0.04608,0 0.04572,0 -3.55e-4,1e-4 0.04608,-0.015 0.04573,-0.015 -3.5e-4,0 0.06132,-0.015 0.06097,-0.015 -3.46e-4,10e-5 0.04606,-0.015 0.04572,-0.015 -3.41e-4,2e-4 0.04606,-0.015 0.04572,-0.015 -3.36e-4,10e-5 0.03081,-0.015 0.03048,-0.015 -3.3e-4,2e-4 0.04605,-0.015 0.04572,-0.015 -3.23e-4,10e-5 0.04604,-0.015 0.04572,-0.015 -3.13e-4,2e-4 0.04602,-0.029 0.04572,-0.029 -3.04e-4,10e-5 0.03077,-0.029 0.03048,-0.029 -2.95e-4,3e-4 0.04601,-0.029 0.04573,-0.029 -2.83e-4,3e-4 0.03076,-0.029 0.03048,-0.029 -2.73e-4,1e-4 0.04598,-0.029 0.04572,-0.029 -2.61e-4,3e-4 0.03073,-0.029 0.03048,-0.029 l 3.032948,-2.9552 c -4.8e-4,4e-4 0.06139,-0.075 0.06097,-0.073 -4.28e-4,5e-4 0.06133,-0.075 0.06097,-0.073 -3.71e-4,5e-4 0.04604,-0.075 0.04573,-0.073 -3.13e-4,7e-4 0.03073,-0.089 0.03048,-0.088 -2.49e-4,5e-4 0.03066,-0.075 0.03048,-0.073 -1.87e-4,7e-4 0.01536,-0.089 0.01524,-0.088 -1.18e-4,7e-4 0.01529,-0.089 0.01524,-0.088 -5.2e-5,7e-4 -1.6e-5,-0.089 0,-0.088 1.6e-5,7e-4 -8.4e-5,-0.1039 0,-0.1026 8.4e-5,7e-4 -0.01538,-0.089 -0.01524,-0.088 1.52e-4,7e-4 -0.03069,-0.075 -0.03048,-0.073 2.17e-4,6e-4 -0.03076,-0.089 -0.03048,-0.088 2.8e-4,7e-4 -0.04606,-0.089 -0.04572,-0.088 3.41e-4,6e-4 -0.04613,-0.075 -0.04572,-0.073 3.98e-4,5e-4 -0.06142,-0.075 -0.06097,-0.073 4.53e-4,5e-4 -0.06146,-0.06 -0.06097,-0.059 l -2.148974,-2.029 2.148974,-2.029 c -4.87e-4,4e-4 0.06142,-0.06 0.06097,-0.059 -4.52e-4,4e-4 0.06137,-0.075 0.06097,-0.073 -3.98e-4,6e-4 0.04606,-0.075 0.04572,-0.073 -3.41e-4,5e-4 0.046,-0.089 0.04572,-0.088 -2.79e-4,6e-4 0.03069,-0.089 0.03048,-0.088 -2.17e-4,7e-4 0.03064,-0.075 0.03048,-0.073 -1.5e-4,6e-4 0.01532,-0.089 0.01524,-0.088 -8.4e-5,6e-4 1.6e-5,-0.1039 0,-0.1026 -1.6e-5,5e-4 -5.2e-5,-0.089 0,-0.088 5.2e-5,6e-4 -0.01536,-0.089 -0.01524,-0.088 1.2e-4,6e-4 -0.01543,-0.089 -0.01524,-0.088 1.85e-4,7e-4 -0.03073,-0.075 -0.03048,-0.073 2.51e-4,5e-4 -0.0308,-0.089 -0.03048,-0.088 3.13e-4,5e-4 -0.04609,-0.075 -0.04573,-0.073 3.72e-4,5e-4 -0.06139,-0.075 -0.06097,-0.073 4.26e-4,6e-4 -0.06145,-0.075 -0.06097,-0.073 l -3.032948,-2.9552 c 2.47e-4,10e-5 -0.03074,-0.029 -0.03048,-0.029 2.6e-4,3e-4 -0.046,-0.029 -0.04572,-0.029 2.73e-4,3e-4 -0.03077,-0.029 -0.03048,-0.029 2.84e-4,2e-4 -0.04602,-0.029 -0.04573,-0.029 2.94e-4,10e-5 -0.03078,-0.029 -0.03048,-0.029 3.05e-4,10e-5 -0.04604,-0.029 -0.04572,-0.029 3.14e-4,10e-5 -0.04605,-0.015 -0.04572,-0.015 3.21e-4,1e-4 -0.04605,-0.015 -0.04572,-0.015 3.29e-4,10e-5 -0.03082,-0.015 -0.03048,-0.015 3.37e-4,10e-5 -0.04606,-0.015 -0.04572,-0.015 3.42e-4,0 -0.04606,-0.015 -0.04572,-0.015 3.48e-4,10e-5 -0.06131,-0.015 -0.06097,-0.015 3.5e-4,0 -0.04608,-0.015 -0.04573,-0.015 3.53e-4,10e-5 -0.04608,0 -0.04572,0 3.56e-4,10e-5 -0.04608,0 -0.04572,0 3.57e-4,10e-5 -0.04608,0 -0.04572,0 3.58e-4,0 -0.04608,10e-5 -0.04573,0 3.57e-4,0 -0.04608,10e-5 -0.04572,0 3.56e-4,0 -0.04608,10e-5 -0.04572,0 3.54e-4,0 -0.04608,0.015 -0.04572,0.015 3.51e-4,-10e-5 -0.06132,0.015 -0.06097,0.015 3.47e-4,0 -0.04606,0.015 -0.04573,0.015 3.41e-4,-2e-4 -0.04606,0.015 -0.04572,0.015 3.36e-4,-10e-5 -0.03081,0.015 -0.03048,0.015 3.3e-4,-2e-4 -0.04605,0.015 -0.04572,0.015 3.21e-4,-10e-5 -0.04604,0.015 -0.04572,0.015 3.13e-4,-2e-4 -0.04602,0.029 -0.04573,0.029 3.04e-4,-3e-4 -0.03077,0.029 -0.03048,0.029 2.96e-4,-3e-4 -0.04601,0.029 -0.04573,0.029 2.85e-4,-2e-4 -0.03076,0.029 -0.03048,0.029 2.73e-4,-3e-4 -0.04598,0.029 -0.04573,0.029 2.61e-4,-3e-4 -0.03073,0.029 -0.03048,0.029 l -2.148972,2.1172 -2.225179,-2.132 c 8.4e-5,10e-5 -0.01012,-0.013 -0.01524,-0.015 -0.01026,-0.013 -0.03066,-0.029 -0.03048,-0.029 2.64e-4,2e-4 -0.03076,-0.029 -0.03048,-0.029 2.75e-4,3e-4 -0.03077,-0.029 -0.03048,-0.029 2.85e-4,2e-4 -0.04602,-0.015 -0.04572,-0.015 2.95e-4,3e-4 -0.04604,-0.029 -0.04572,-0.029 3.05e-4,2e-4 -0.0308,-0.029 -0.03048,-0.029 3.14e-4,10e-5 -0.04605,-0.015 -0.04572,-0.015 3.21e-4,2e-4 -0.04605,-0.015 -0.04573,-0.015 3.29e-4,1e-4 -0.04606,-0.015 -0.04572,-0.015 3.35e-4,0 -0.04606,-0.015 -0.04572,-0.015 3.41e-4,10e-5 -0.04606,-0.015 -0.04572,-0.015 3.45e-4,0 -0.04608,-0.015 -0.04573,-0.015 3.49e-4,10e-5 -0.04608,0 -0.04572,0 3.52e-4,10e-5 -0.04607,-0.015 -0.04572,-0.015 3.55e-4,0 -0.04608,0 -0.04573,0 3.55e-4,0 -0.04608,0 -0.04572,0 a 0.48603997,0.46887292 0 0 0 -0.03048,0 c 3.54e-4,0 -0.04608,0 -0.04572,0 z" />
      <path
         style="opacity:0.15;fill:#000000;fill-opacity:1;fill-rule:evenodd;stroke:none;display:inline"
         id="path3757"
         d="m 21.184846,1039.7205 a 0.46468199,0.44826929 0 0 0 -0.228614,0.1319 l -2.941501,2.867 a 0.46468199,0.44826929 0 0 0 0,0.6176 l 2.529996,2.47 -2.529996,2.47 a 0.46468199,0.44826929 0 0 0 0,0.6176 l 2.941501,2.867 a 0.46468199,0.44826929 0 0 0 0.655361,0.015 l 2.57572,-2.47 2.499514,2.4554 a 0.46468199,0.44826929 0 0 0 0.670601,0 l 3.032948,-2.9554 a 0.46468199,0.44826929 0 0 0 -0.01524,-0.6321 l -2.514755,-2.3671 2.514755,-2.3672 a 0.46468199,0.44826929 0 0 0 0.01524,-0.6322 l -3.032948,-2.9552 a 0.46468199,0.44826929 0 0 0 -0.670601,0 l -2.499514,2.4553 -2.57572,-2.4701 a 0.46468199,0.44826929 0 0 0 -0.426747,-0.1172 z" />
      <path
         style="opacity:0.3;fill:#000000;fill-opacity:1;fill-rule:evenodd;stroke:none;display:inline"
         id="path3751"
         inkscape:connector-curvature="0"
         d="m 18.350031,1048.5863 2.93756,2.867 2.892366,-2.7788 2.847171,2.7788 3.027948,-2.9552 -2.847174,-2.6906 2.847174,-2.6906 -3.027948,-2.9552 -2.847171,2.7788 -2.892366,-2.7788 -2.93756,2.867 2.847176,2.7788 -2.847176,2.7788 z" />
      <path
         style="fill:url(#linearGradient2966);fill-opacity:1;fill-rule:evenodd;stroke:none;display:inline"
         id="path7165"
         inkscape:connector-curvature="0"
         d="m 18.350031,1048.1158 2.93756,2.867 2.892366,-2.7788 2.847171,2.7788 3.027948,-2.9551 -2.847174,-2.6907 2.847174,-2.6906 -3.027948,-2.9552 -2.847171,2.7788 -2.892366,-2.7788 -2.93756,2.867 2.847176,2.7788 -2.847176,2.7788 z" />
      <path
         style="opacity:0.2;fill:#ffffff;fill-opacity:1;fill-rule:evenodd;stroke:none;display:inline"
         id="path2970"
         inkscape:connector-curvature="0"
         d="m 21.291534,1039.6912 -2.941503,2.867 0.487711,0.4705 2.453792,-2.3965 2.895779,2.7788 2.834815,-2.7788 2.545237,2.47 0.487711,-0.4558 -3.032948,-2.9552 -2.834815,2.7788 -2.895779,-2.7788 z m -0.09502,5.6345 -2.846484,2.7901 0.487711,0.4705 2.362347,-2.3083 -0.0036,-0.9523 z m 6.019633,0.023 -0.01119,0.93 2.362347,2.2348 0.48771,-0.4851 -2.838927,-2.6797 z" />
    </g>
    <image
       y="660.2193"
       x="373.14285"
       id="image3042"
       height="30"
       width="288"
       xlink:href="file:///home/francesco/neo_freerunner/qtmoko/faenqomod/svg/faenqomod/battery_original.png" />
  </g>
</svg>
