<?xml version="1.0" encoding="UTF-8" standalone="no"?>
<!-- Created with Inkscape (http://www.inkscape.org/) -->

<svg
   xmlns:dc="http://purl.org/dc/elements/1.1/"
   xmlns:cc="http://creativecommons.org/ns#"
   xmlns:rdf="http://www.w3.org/1999/02/22-rdf-syntax-ns#"
   xmlns:svg="http://www.w3.org/2000/svg"
   xmlns="http://www.w3.org/2000/svg"
   xmlns:xlink="http://www.w3.org/1999/xlink"
   xmlns:sodipodi="http://sodipodi.sourceforge.net/DTD/sodipodi-0.dtd"
   xmlns:inkscape="http://www.inkscape.org/namespaces/inkscape"
   version="1.0"
   width="120"
   height="84"
   id="svg2408"
   style="display:inline"
   inkscape:version="0.47 r22583"
   sodipodi:docname="generic-personal-contact.svg"
   inkscape:export-filename="/home/francesco/neo_freerunner/qtmoko/faenqo_en/faenqo_en/svg/generic-personal-contact.png"
   inkscape:export-xdpi="90"
   inkscape:export-ydpi="90">
  <sodipodi:namedview
     pagecolor="#ffffff"
     bordercolor="#666666"
     borderopacity="1"
     objecttolerance="10"
     gridtolerance="10"
     guidetolerance="10"
     inkscape:pageopacity="0"
     inkscape:pageshadow="2"
     inkscape:window-width="1366"
     inkscape:window-height="709"
     id="namedview65"
     showgrid="false"
     borderlayer="true"
     inkscape:showpageshadow="false"
     inkscape:zoom="1.4142136"
     inkscape:cx="53.946224"
     inkscape:cy="65.562768"
     inkscape:window-x="0"
     inkscape:window-y="25"
     inkscape:window-maximized="1"
     inkscape:current-layer="svg2408" />
  <defs
     id="defs2410">
    <inkscape:perspective
       sodipodi:type="inkscape:persp3d"
       inkscape:vp_x="0 : 48 : 1"
       inkscape:vp_y="0 : 1000 : 0"
       inkscape:vp_z="96 : 48 : 1"
       inkscape:persp3d-origin="48 : 32 : 1"
       id="perspective67" />
    <linearGradient
       id="linearGradient3637">
      <stop
         id="stop3639"
         style="stop-color:#f0f0f0;stop-opacity:1"
         offset="0" />
      <stop
         id="stop3641"
         style="stop-color:#dcdcdc;stop-opacity:1"
         offset="1" />
    </linearGradient>
    <linearGradient
       x1="45.447727"
       y1="92.539597"
       x2="45.447727"
       y2="7.0165396"
       id="ButtonShadow"
       gradientUnits="userSpaceOnUse"
       gradientTransform="scale(1.0058652,0.994169)">
      <stop
         id="stop3750"
         style="stop-color:#000000;stop-opacity:1"
         offset="0" />
      <stop
         id="stop3752"
         style="stop-color:#000000;stop-opacity:0.58823532"
         offset="1" />
    </linearGradient>
    <linearGradient
       id="linearGradient3737">
      <stop
         id="stop3739"
         style="stop-color:#ffffff;stop-opacity:1"
         offset="0" />
      <stop
         id="stop3741"
         style="stop-color:#ffffff;stop-opacity:0"
         offset="1" />
    </linearGradient>
    <linearGradient
       id="linearGradient3700">
      <stop
         id="stop3702"
         style="stop-color:#2276c5;stop-opacity:1"
         offset="0" />
      <stop
         id="stop3704"
         style="stop-color:#68baf4;stop-opacity:1"
         offset="1" />
    </linearGradient>
    <filter
       color-interpolation-filters="sRGB"
       id="filter3174">
      <feGaussianBlur
         id="feGaussianBlur3176"
         stdDeviation="1.71" />
    </filter>
    <linearGradient
       x1="36.357143"
       y1="6"
       x2="36.357143"
       y2="63.893143"
       id="linearGradient3188"
       xlink:href="#linearGradient3737"
       gradientUnits="userSpaceOnUse" />
    <radialGradient
       cx="48"
       cy="90.171875"
       r="42"
       fx="48"
       fy="90.171875"
       id="radialGradient3619"
       xlink:href="#linearGradient3737"
       gradientUnits="userSpaceOnUse"
       gradientTransform="matrix(1.1573129,0,0,0.99590774,-7.5510206,0.19713193)" />
    <linearGradient
       x1="48"
       y1="90"
       x2="48"
       y2="5.9877172"
       id="linearGradient2843"
       xlink:href="#linearGradient3700"
       gradientUnits="userSpaceOnUse"
       gradientTransform="translate(0,100)" />
    <clipPath
       id="clipPath3625">
      <path
         d="M 0,0 0,96 96,96 96,0 0,0 z m 12,6 72,0 c 3.324,0 6,2.676 6,6 l 0,72 c 0,3.324 -2.676,6 -6,6 L 12,90 C 8.676,90 6,87.324 6,84 L 6,12 C 6,8.676 8.676,6 12,6 z"
         inkscape:connector-curvature="0"
         id="path3627"
         style="fill:#ffffff;fill-opacity:1;stroke:none" />
    </clipPath>
    <linearGradient
       x1="44.512066"
       y1="6"
       x2="44.512066"
       y2="90.015434"
       id="linearGradient3643"
       xlink:href="#linearGradient3637"
       gradientUnits="userSpaceOnUse" />
    <clipPath
       id="clipPath3649">
      <rect
         width="76"
         height="76"
         rx="4"
         ry="4"
         x="10"
         y="10"
         id="rect3651"
         style="fill:#ffffff;fill-opacity:1;fill-rule:nonzero;stroke:none" />
    </clipPath>
    <filter
       color-interpolation-filters="sRGB"
       id="filter3657">
      <feGaussianBlur
         id="feGaussianBlur3659"
         stdDeviation="1.14" />
    </filter>
    <linearGradient
       id="linearGradient4081">
      <stop
         id="stop4083"
         style="stop-color:#aaaaaa;stop-opacity:1"
         offset="0" />
      <stop
         id="stop4085"
         style="stop-color:#f0f0f0;stop-opacity:1"
         offset="1" />
    </linearGradient>
    <linearGradient
       x1="29.826593"
       y1="51.954468"
       x2="65.693901"
       y2="51.954468"
       id="linearGradient3034"
       xlink:href="#linearGradient4081"
       gradientUnits="userSpaceOnUse"
       gradientTransform="matrix(0,-1,-1,0,96,16)" />
    <linearGradient
       x1="29.826593"
       y1="51.954468"
       x2="65.693901"
       y2="51.954468"
       id="linearGradient3705"
       xlink:href="#linearGradient4081"
       gradientUnits="userSpaceOnUse"
       gradientTransform="matrix(0,-1,-1,0,36,16)" />
    <linearGradient
       x1="27"
       y1="48"
       x2="69"
       y2="48"
       id="linearGradient3702"
       xlink:href="#linearGradient4081"
       gradientUnits="userSpaceOnUse"
       gradientTransform="matrix(0,-1,1,0,0,96)" />
    <linearGradient
       gradientUnits="userSpaceOnUse"
       xlink:href="#linearGradient3737-9"
       id="linearGradient4052"
       y2="138.66119"
       x2="48"
       y1="20.220806"
       x1="48" />
    <filter
       id="filter3794"
       color-interpolation-filters="sRGB"
       height="1.3839999"
       width="1.3839999"
       y="-0.192"
       x="-0.192">
      <feGaussianBlur
         stdDeviation="5.28"
         id="feGaussianBlur3796" />
    </filter>
    <clipPath
       id="clipPath3613">
      <rect
         style="fill:#ffffff;fill-opacity:1;fill-rule:nonzero;stroke:none"
         id="rect3615"
         y="6"
         x="6"
         ry="6"
         rx="6"
         height="84"
         width="84" />
    </clipPath>
    <linearGradient
       id="linearGradient3737-9">
      <stop
         offset="0"
         style="stop-color:#ffffff;stop-opacity:1"
         id="stop3739-2" />
      <stop
         offset="1"
         style="stop-color:#ffffff;stop-opacity:0"
         id="stop3741-1" />
    </linearGradient>
    <filter
       id="filter3747"
       color-interpolation-filters="sRGB"
       height="1.2547692"
       width="1.3312"
       y="-0.12738462"
       x="-0.16559999">
      <feGaussianBlur
         stdDeviation="2.7599998"
         id="feGaussianBlur3749" />
    </filter>
    <clipPath
       id="clipPath3743">
      <path
         style="fill:#ff00ff;fill-opacity:1;fill-rule:nonzero;stroke:none"
         id="path3745"
         inkscape:connector-curvature="0"
         d="m -88,6 c -3.324,0 -6,2.676 -6,6 l 0,72 c 0,3.324 2.676,6 6,6 l 72,0 c 3.324,0 6,-2.676 6,-6 l 0,-72 c 0,-3.324 -2.676,-6 -6,-6 l -72,0 z m 36,18 c 5.344692,0 9.687507,3.992831 9.6875,8.9375 -0.02133,0.621424 -0.07398,1.335406 -0.125,2.0625 0.730245,0.543315 0.778989,2.170384 0.0625,3.84375 -0.258603,0.603976 -0.555928,1.075565 -0.90625,1.5 -0.113311,0.524949 -0.197851,0.951157 -0.34375,1.5625 -0.396974,1.180487 -1.938671,3.498551 -3.125,5.3125 -0.07646,1.206398 -0.0877,2.400163 0.0625,3.625 3.709677,3.197549 13.39093,4.950832 13.40625,7.6875 L -32,66.84375 c 0,1.679322 -2.544846,3.197858 -6.53125,4.25 l -0.6875,2.375 A 1.4052899,1.3929762 0 0 1 -40.0625,74.375 c -0.18137,0.06953 -0.315419,0.200704 -0.8125,0.34375 C -43.493482,75.472297 -47.516862,76 -52,76 c -4.483138,0 -8.475268,-0.527703 -11.09375,-1.28125 -0.497081,-0.143046 -0.631128,-0.27418 -0.8125,-0.34375 a 1.4052899,1.3929762 0 0 1 -0.875,-0.9375 l -0.5625,-2.28125 C -69.429991,70.102441 -72,68.547059 -72,66.84375 l 1.28125,-8.3125 c -0.0144,-3.197542 9.588017,-4.598837 13.34375,-7.6875 0.261803,-1.513002 0.255123,-2.826115 0.125,-4.15625 -1.304823,-1.724246 -2.766418,-3.714925 -3.125,-4.78125 -0.11575,-0.525153 -0.18554,-0.878183 -0.28125,-1.34375 -0.01345,-0.01457 -0.04914,-0.04755 -0.0625,-0.0625 -0.400969,-0.447139 -0.802819,-0.976777 -1.09375,-1.65625 -0.754478,-1.762097 -0.627089,-3.521792 0.21875,-3.96875 -0.05944,-0.70484 -0.08077,-1.339582 -0.09375,-1.90625 C -61.6875,28.02408 -57.344692,24 -52,24 z" />
    </clipPath>
    <linearGradient
       gradientUnits="userSpaceOnUse"
       xlink:href="#linearGradient3697"
       id="linearGradient3713"
       y2="24"
       x2="56"
       y1="72"
       x1="56" />
    <linearGradient
       id="linearGradient3697">
      <stop
         offset="0"
         style="stop-color:#bcbcbc;stop-opacity:1;"
         id="stop3699" />
      <stop
         offset="1"
         style="stop-color:#f3f3f3;stop-opacity:1;"
         id="stop3701" />
    </linearGradient>
    <linearGradient
       gradientUnits="userSpaceOnUse"
       xlink:href="#linearGradient3737-1"
       id="linearGradient3923"
       y2="63.893143"
       x2="36.357143"
       y1="6"
       x1="36.357143" />
    <linearGradient
       id="linearGradient3737-0">
      <stop
         offset="0"
         style="stop-color:#ffffff;stop-opacity:1"
         id="stop3739-6" />
      <stop
         offset="1"
         style="stop-color:#ffffff;stop-opacity:0"
         id="stop3741-0" />
    </linearGradient>
    <radialGradient
       gradientTransform="matrix(1.1573129,0,0,0.99590774,-7.551021,0.1971319)"
       gradientUnits="userSpaceOnUse"
       xlink:href="#linearGradient3737-0"
       id="radialGradient2886"
       fy="90.171875"
       fx="48"
       r="42"
       cy="90.171875"
       cx="48" />
    <linearGradient
       id="linearGradient3737-1">
      <stop
         offset="0"
         style="stop-color:#ffffff;stop-opacity:1"
         id="stop3739-9" />
      <stop
         offset="1"
         style="stop-color:#ffffff;stop-opacity:0"
         id="stop3741-3" />
    </linearGradient>
    <linearGradient
       gradientTransform="matrix(1.0238095,0,0,1.0119048,-1.1428571,-98.071429)"
       gradientUnits="userSpaceOnUse"
       xlink:href="#ButtonShadow-0"
       id="linearGradient3760"
       y2="90.238609"
       x2="32.251034"
       y1="6.1317081"
       x1="32.251034" />
    <linearGradient
       gradientTransform="translate(0,-97)"
       gradientUnits="userSpaceOnUse"
       xlink:href="#ButtonShadow-0"
       id="linearGradient3721"
       y2="90.238609"
       x2="32.251034"
       y1="6.1317081"
       x1="32.251034" />
    <linearGradient
       gradientTransform="matrix(1.0238095,0,0,1.0119048,-1.1428571,-98.071429)"
       gradientUnits="userSpaceOnUse"
       xlink:href="#ButtonShadow-0"
       id="linearGradient3725"
       y2="90.238609"
       x2="32.251034"
       y1="6.1317081"
       x1="32.251034" />
    <linearGradient
       gradientTransform="matrix(1.0238095,0,0,1.0119048,-1.1428571,-98.071429)"
       gradientUnits="userSpaceOnUse"
       xlink:href="#ButtonShadow-0"
       id="linearGradient3772"
       y2="90.238609"
       x2="32.251034"
       y1="6.1317081"
       x1="32.251034" />
    <linearGradient
       gradientTransform="matrix(1.0238095,0,0,1.0119048,-1.1428571,-98.071429)"
       gradientUnits="userSpaceOnUse"
       xlink:href="#ButtonShadow-0"
       id="linearGradient3780"
       y2="90.238609"
       x2="32.251034"
       y1="6.1317081"
       x1="32.251034" />
    <linearGradient
       gradientTransform="matrix(1.0058652,0,0,0.994169,100,0)"
       gradientUnits="userSpaceOnUse"
       id="ButtonShadow-0"
       y2="7.0165396"
       x2="45.447727"
       y1="92.539597"
       x1="45.447727">
      <stop
         offset="0"
         style="stop-color:#000000;stop-opacity:1"
         id="stop3750-8" />
      <stop
         offset="1"
         style="stop-color:#000000;stop-opacity:0.58823532"
         id="stop3752-5" />
    </linearGradient>
    <filter
       id="filter3174-3"
       color-interpolation-filters="sRGB">
      <feGaussianBlur
         stdDeviation="1.71"
         id="feGaussianBlur3176-7" />
    </filter>
    <linearGradient
       gradientUnits="userSpaceOnUse"
       xlink:href="#linearGradient3700-5"
       id="linearGradient3706"
       y2="5.9877172"
       x2="48"
       y1="90"
       x1="48" />
    <linearGradient
       id="linearGradient3700-5">
      <stop
         offset="0"
         style="stop-color:#e6e6e6;stop-opacity:1"
         id="stop3702-6" />
      <stop
         offset="1"
         style="stop-color:#f5f5f5;stop-opacity:1"
         id="stop3704-9" />
    </linearGradient>
    <linearGradient
       gradientTransform="scale(1.0058652,0.994169)"
       gradientUnits="userSpaceOnUse"
       id="ButtonShadow-4"
       y2="7.0165396"
       x2="45.447727"
       y1="92.539597"
       x1="45.447727">
      <stop
         offset="0"
         style="stop-color:#000000;stop-opacity:1"
         id="stop3750-7" />
      <stop
         offset="1"
         style="stop-color:#000000;stop-opacity:0.58823532"
         id="stop3752-6" />
    </linearGradient>
    <inkscape:perspective
       id="perspective2943"
       inkscape:persp3d-origin="48 : 32 : 1"
       inkscape:vp_z="96 : 48 : 1"
       inkscape:vp_y="0 : 1000 : 0"
       inkscape:vp_x="0 : 48 : 1"
       sodipodi:type="inkscape:persp3d" />
    <linearGradient
       inkscape:collect="always"
       xlink:href="#linearGradient3737-9"
       id="linearGradient3066"
       gradientUnits="userSpaceOnUse"
       x1="48"
       y1="20.220806"
       x2="48"
       y2="138.66119" />
    <inkscape:perspective
       id="perspective3141"
       inkscape:persp3d-origin="0.5 : 0.33333333 : 1"
       inkscape:vp_z="1 : 0.5 : 1"
       inkscape:vp_y="0 : 1000 : 0"
       inkscape:vp_x="0 : 0.5 : 1"
       sodipodi:type="inkscape:persp3d" />
    <linearGradient
       id="linearGradient3697-1">
      <stop
         offset="0"
         style="stop-color:#bababa;stop-opacity:1"
         id="stop3699-8" />
      <stop
         offset="1"
         style="stop-color:#d2d2d2;stop-opacity:1"
         id="stop3701-5" />
    </linearGradient>
    <inkscape:perspective
       id="perspective4002"
       inkscape:persp3d-origin="0.5 : 0.33333333 : 1"
       inkscape:vp_z="1 : 0.5 : 1"
       inkscape:vp_y="0 : 1000 : 0"
       inkscape:vp_x="0 : 0.5 : 1"
       sodipodi:type="inkscape:persp3d" />
    <linearGradient
       id="linearGradient3697-2">
      <stop
         offset="0"
         style="stop-color:#bababa;stop-opacity:1"
         id="stop3699-3" />
      <stop
         offset="1"
         style="stop-color:#d2d2d2;stop-opacity:1"
         id="stop3701-1" />
    </linearGradient>
    <filter
       inkscape:collect="always"
       id="filter4054"
       color-interpolation-filters="sRGB">
      <feGaussianBlur
         inkscape:collect="always"
         stdDeviation="0.92000017"
         id="feGaussianBlur4056" />
    </filter>
    <linearGradient
       gradientUnits="userSpaceOnUse"
       xlink:href="#linearGradient4081-1"
       id="linearGradient3818"
       y2="23.729059"
       x2="49"
       y1="70"
       x1="49" />
    <linearGradient
       id="linearGradient4081-1">
      <stop
         offset="0"
         style="stop-color:#aaaaaa;stop-opacity:1"
         id="stop4083-0" />
      <stop
         offset="1"
         style="stop-color:#f0f0f0;stop-opacity:1"
         id="stop4085-1" />
    </linearGradient>
    <filter
       id="filter3657-8"
       color-interpolation-filters="sRGB">
      <feGaussianBlur
         stdDeviation="1.14"
         id="feGaussianBlur3659-7" />
    </filter>
    <clipPath
       id="clipPath3649-2">
      <rect
         style="fill:#ffffff;fill-opacity:1;fill-rule:nonzero;stroke:none"
         id="rect3651-8"
         y="10"
         x="10"
         ry="4"
         rx="4"
         height="76"
         width="76" />
    </clipPath>
    <linearGradient
       gradientUnits="userSpaceOnUse"
       xlink:href="#linearGradient3637-5"
       id="linearGradient3643-1"
       y2="90.015434"
       x2="44.512066"
       y1="6"
       x1="44.512066" />
    <clipPath
       id="clipPath3625-6">
      <path
         style="fill:#ffffff;fill-opacity:1;stroke:none"
         id="path3627-1"
         inkscape:connector-curvature="0"
         d="M 0,0 0,96 96,96 96,0 0,0 z m 12,6 72,0 c 3.324,0 6,2.676 6,6 l 0,72 c 0,3.324 -2.676,6 -6,6 L 12,90 C 8.676,90 6,87.324 6,84 L 6,12 C 6,8.676 8.676,6 12,6 z" />
    </clipPath>
    <linearGradient
       gradientTransform="translate(0,100)"
       gradientUnits="userSpaceOnUse"
       xlink:href="#linearGradient3700-0"
       id="linearGradient2843-4"
       y2="5.9877172"
       x2="48"
       y1="90"
       x1="48" />
    <radialGradient
       gradientTransform="matrix(1.1573129,0,0,0.99590774,-7.5510206,0.19713193)"
       gradientUnits="userSpaceOnUse"
       xlink:href="#linearGradient3737-7"
       id="radialGradient3619-1"
       fy="90.171875"
       fx="48"
       r="42"
       cy="90.171875"
       cx="48" />
    <linearGradient
       gradientUnits="userSpaceOnUse"
       xlink:href="#linearGradient3737-7"
       id="linearGradient3188-7"
       y2="63.893143"
       x2="36.357143"
       y1="6"
       x1="36.357143" />
    <filter
       id="filter3174-2"
       color-interpolation-filters="sRGB">
      <feGaussianBlur
         stdDeviation="1.71"
         id="feGaussianBlur3176-0" />
    </filter>
    <linearGradient
       id="linearGradient3700-0">
      <stop
         offset="0"
         style="stop-color:#2276c5;stop-opacity:1"
         id="stop3702-7" />
      <stop
         offset="1"
         style="stop-color:#68baf4;stop-opacity:1"
         id="stop3704-8" />
    </linearGradient>
    <linearGradient
       id="linearGradient3737-7">
      <stop
         offset="0"
         style="stop-color:#ffffff;stop-opacity:1"
         id="stop3739-93" />
      <stop
         offset="1"
         style="stop-color:#ffffff;stop-opacity:0"
         id="stop3741-2" />
    </linearGradient>
    <linearGradient
       gradientTransform="scale(1.0058652,0.994169)"
       gradientUnits="userSpaceOnUse"
       id="ButtonShadow-7"
       y2="7.0165396"
       x2="45.447727"
       y1="92.539597"
       x1="45.447727">
      <stop
         offset="0"
         style="stop-color:#000000;stop-opacity:1"
         id="stop3750-73" />
      <stop
         offset="1"
         style="stop-color:#000000;stop-opacity:0.58823532"
         id="stop3752-7" />
    </linearGradient>
    <linearGradient
       id="linearGradient3637-5">
      <stop
         offset="0"
         style="stop-color:#f0f0f0;stop-opacity:1"
         id="stop3639-8" />
      <stop
         offset="1"
         style="stop-color:#dcdcdc;stop-opacity:1"
         id="stop3641-0" />
    </linearGradient>
    <inkscape:perspective
       id="perspective4141"
       inkscape:persp3d-origin="48 : 32 : 1"
       inkscape:vp_z="96 : 48 : 1"
       inkscape:vp_y="0 : 1000 : 0"
       inkscape:vp_x="0 : 48 : 1"
       sodipodi:type="inkscape:persp3d" />
    <linearGradient
       inkscape:collect="always"
       xlink:href="#linearGradient3697"
       id="linearGradient4278"
       gradientUnits="userSpaceOnUse"
       gradientTransform="translate(-12.29112,-9.154328)"
       x1="56"
       y1="72"
       x2="56"
       y2="24" />
    <inkscape:perspective
       id="perspective4306"
       inkscape:persp3d-origin="0.5 : 0.33333333 : 1"
       inkscape:vp_z="1 : 0.5 : 1"
       inkscape:vp_y="0 : 1000 : 0"
       inkscape:vp_x="0 : 0.5 : 1"
       sodipodi:type="inkscape:persp3d" />
    <linearGradient
       inkscape:collect="always"
       xlink:href="#linearGradient4081-1-5"
       id="linearGradient4296-8"
       gradientUnits="userSpaceOnUse"
       gradientTransform="translate(92.250561,-0.44800685)"
       x1="49"
       y1="70"
       x2="49"
       y2="23.729059" />
    <linearGradient
       id="linearGradient4081-1-5">
      <stop
         offset="0"
         style="stop-color:#aaaaaa;stop-opacity:1"
         id="stop4083-0-8" />
      <stop
         offset="1"
         style="stop-color:#f0f0f0;stop-opacity:1"
         id="stop4085-1-6" />
    </linearGradient>
    <linearGradient
       inkscape:collect="always"
       xlink:href="#ButtonShadow"
       id="linearGradient4399"
       gradientUnits="userSpaceOnUse"
       gradientTransform="scale(1.0058652,0.994169)"
       x1="45.447727"
       y1="92.539597"
       x2="45.447727"
       y2="7.0165396" />
    <linearGradient
       inkscape:collect="always"
       xlink:href="#ButtonShadow"
       id="linearGradient4417"
       gradientUnits="userSpaceOnUse"
       gradientTransform="scale(1.0058652,0.994169)"
       x1="45.447727"
       y1="92.539597"
       x2="45.447727"
       y2="7.0165396" />
    <linearGradient
       inkscape:collect="always"
       xlink:href="#ButtonShadow"
       id="linearGradient4440"
       gradientUnits="userSpaceOnUse"
       gradientTransform="scale(1.0058652,0.994169)"
       x1="45.447727"
       y1="92.539597"
       x2="45.447727"
       y2="7.0165396" />
    <inkscape:perspective
       id="perspective4465"
       inkscape:persp3d-origin="0.5 : 0.33333333 : 1"
       inkscape:vp_z="1 : 0.5 : 1"
       inkscape:vp_y="0 : 1000 : 0"
       inkscape:vp_x="0 : 0.5 : 1"
       sodipodi:type="inkscape:persp3d" />
    <linearGradient
       inkscape:collect="always"
       xlink:href="#ButtonShadow"
       id="linearGradient4487"
       gradientUnits="userSpaceOnUse"
       gradientTransform="scale(1.0058652,0.994169)"
       x1="45.447727"
       y1="92.539597"
       x2="45.447727"
       y2="7.0165396" />
    <linearGradient
       inkscape:collect="always"
       xlink:href="#ButtonShadow"
       id="linearGradient4529"
       gradientUnits="userSpaceOnUse"
       gradientTransform="scale(1.0058652,0.994169)"
       x1="45.447727"
       y1="92.539597"
       x2="45.447727"
       y2="7.0165396" />
    <linearGradient
       inkscape:collect="always"
       xlink:href="#linearGradient3637"
       id="linearGradient4531"
       gradientUnits="userSpaceOnUse"
       gradientTransform="translate(0,-12)"
       x1="44.512066"
       y1="6"
       x2="44.512066"
       y2="90.015434" />
    <linearGradient
       inkscape:collect="always"
       xlink:href="#linearGradient3737"
       id="linearGradient4533"
       gradientUnits="userSpaceOnUse"
       gradientTransform="translate(0,-12)"
       x1="36.357143"
       y1="6"
       x2="36.357143"
       y2="63.893143" />
    <radialGradient
       inkscape:collect="always"
       xlink:href="#linearGradient3737"
       id="radialGradient4535"
       gradientUnits="userSpaceOnUse"
       gradientTransform="matrix(1.1573129,0,0,0.99590774,-7.5510206,-11.802868)"
       cx="48"
       cy="90.171875"
       fx="48"
       fy="90.171875"
       r="42" />
    <linearGradient
       gradientTransform="translate(0,10)"
       gradientUnits="userSpaceOnUse"
       xlink:href="#linearGradient4081-0"
       id="linearGradient3702-6"
       y2="8"
       x2="48"
       y1="68"
       x1="48" />
    <linearGradient
       id="linearGradient4081-0">
      <stop
         offset="0"
         style="stop-color:#aaaaaa;stop-opacity:1"
         id="stop4083-3" />
      <stop
         offset="1"
         style="stop-color:#f0f0f0;stop-opacity:1"
         id="stop4085-0" />
    </linearGradient>
    <inkscape:perspective
       id="perspective4575"
       inkscape:persp3d-origin="48 : 32 : 1"
       inkscape:vp_z="96 : 48 : 1"
       inkscape:vp_y="0 : 1000 : 0"
       inkscape:vp_x="0 : 48 : 1"
       sodipodi:type="inkscape:persp3d" />
  </defs>
  <metadata
     id="metadata2413">
    <rdf:RDF>
      <cc:Work
         rdf:about="">
        <dc:format>image/svg+xml</dc:format>
        <dc:type
           rdf:resource="http://purl.org/dc/dcmitype/StillImage" />
        <dc:title></dc:title>
      </cc:Work>
    </rdf:RDF>
  </metadata>
  <g
     id="g4511"
     transform="matrix(1.2737772,0,0,0.90221687,-1.1413056,8.2137827)">
    <rect
       transform="translate(0,-12)"
       width="86"
       height="85"
       rx="6"
       ry="6"
       x="5"
       y="7"
       clip-path="url(#clipPath3625)"
       id="rect3745"
       style="opacity:0.9;fill:url(#linearGradient4529);fill-opacity:1;fill-rule:nonzero;stroke:none;filter:url(#filter3174)" />
    <rect
       width="84"
       height="84"
       rx="6"
       ry="6"
       x="6"
       y="-6"
       id="rect2419"
       style="opacity:0.7;fill:#000000;fill-opacity:1;fill-rule:nonzero;stroke:none" />
    <path
       d="m 14,-2 c -2.216,0 -4,1.784 -4,4 l 0,68 c 0,2.216 1.784,4 4,4 l 68,0 c 2.216,0 4,-1.784 4,-4 L 86,2 c 0,-2.216 -1.784,-4 -4,-4 l -68,0 z m 0,3.0625 68,0 c 0.578769,0 0.9375,0.358731 0.9375,0.9375 l 0,68 c 0,0.578769 -0.358731,0.9375 -0.9375,0.9375 l -68,0 c -0.578769,0 -0.9375,-0.358731 -0.9375,-0.9375 l 0,-68 c 0,-0.578769 0.358731,-0.9375 0.9375,-0.9375 z"
       inkscape:connector-curvature="0"
       id="rect3726"
       style="opacity:0.07999998;fill:#000000;fill-opacity:1;fill-rule:nonzero;stroke:none" />
    <path
       d="M 12,-6 C 8.676,-6 6,-3.324 6,0 l 0,72 c 0,3.324 2.676,6 6,6 l 72,0 c 3.324,0 6,-2.676 6,-6 L 90,0 c 0,-3.324 -2.676,-6 -6,-6 l -72,0 z m 2,4 68,0 c 2.216,0 4,1.784 4,4 l 0,68 c 0,2.216 -1.784,4 -4,4 l -68,0 c -2.216,0 -4,-1.784 -4,-4 L 10,2 c 0,-2.216 1.784,-4 4,-4 z"
       inkscape:connector-curvature="0"
       id="rect3629"
       style="fill:url(#linearGradient4531);fill-opacity:1;fill-rule:nonzero;stroke:none" />
    <path
       d="M 12,-6 C 8.676,-6 6,-3.324 6,0 l 0,2 0,68 0,2 c 0,0.334721 0.04135,0.6507 0.09375,0.96875 0.0487,0.295596 0.09704,0.596915 0.1875,0.875 0.00988,0.03038 0.020892,0.0636 0.03125,0.09375 0.098865,0.287771 0.2348802,0.547452 0.375,0.8125 0.1445918,0.273507 0.3156161,0.535615 0.5,0.78125 0.1843839,0.245635 0.3737765,0.473472 0.59375,0.6875 0.439947,0.428056 0.94291,0.814526 1.5,1.09375 0.278545,0.139612 0.5734731,0.246947 0.875,0.34375 -0.2562018,-0.100222 -0.4867109,-0.236272 -0.71875,-0.375 -0.00741,-0.0044 -0.023866,0.0045 -0.03125,0 -0.031933,-0.0193 -0.062293,-0.04251 -0.09375,-0.0625 -0.120395,-0.0767 -0.2310226,-0.163513 -0.34375,-0.25 -0.1061728,-0.0808 -0.2132809,-0.161112 -0.3125,-0.25 C 8.4783201,76.557317 8.3087904,76.373362 8.15625,76.1875 8.0486711,76.057245 7.9378561,75.922215 7.84375,75.78125 7.818661,75.74287 7.805304,75.69538 7.78125,75.65625 7.716487,75.553218 7.6510225,75.451733 7.59375,75.34375 7.4927417,75.149044 7.3880752,74.928049 7.3125,74.71875 7.30454,74.69694 7.288911,74.6782 7.28125,74.65625 7.2494249,74.5643 7.2454455,74.469419 7.21875,74.375 7.1884177,74.268382 7.1483606,74.171969 7.125,74.0625 7.0521214,73.720988 7,73.364295 7,73 L 7,71 7,3 7,1 c 0,-2.781848 2.2181517,-5 5,-5 l 2,0 68,0 2,0 c 2.781848,0 5,2.218152 5,5 l 0,2 0,68 0,2 c 0,0.364295 -0.05212,0.720988 -0.125,1.0625 -0.04415,0.206893 -0.08838,0.397658 -0.15625,0.59375 -0.0077,0.02195 -0.0233,0.04069 -0.03125,0.0625 -0.06274,0.173739 -0.138383,0.367449 -0.21875,0.53125 -0.04158,0.0828 -0.07904,0.169954 -0.125,0.25 -0.0546,0.09721 -0.126774,0.18835 -0.1875,0.28125 -0.09411,0.140965 -0.204921,0.275995 -0.3125,0.40625 -0.143174,0.17445 -0.303141,0.346998 -0.46875,0.5 -0.01117,0.0102 -0.01998,0.02115 -0.03125,0.03125 -0.138386,0.125556 -0.285091,0.234436 -0.4375,0.34375 -0.102571,0.07315 -0.204318,0.153364 -0.3125,0.21875 -0.0074,0.0045 -0.02384,-0.0044 -0.03125,0 -0.232039,0.138728 -0.462548,0.274778 -0.71875,0.375 0.301527,-0.0968 0.596455,-0.204138 0.875,-0.34375 0.55709,-0.279224 1.060053,-0.665694 1.5,-1.09375 0.219973,-0.214028 0.409366,-0.441865 0.59375,-0.6875 0.184384,-0.245635 0.355408,-0.507743 0.5,-0.78125 0.14012,-0.265048 0.276135,-0.524729 0.375,-0.8125 0.01041,-0.03078 0.02133,-0.06274 0.03125,-0.09375 0.09046,-0.278085 0.1388,-0.579404 0.1875,-0.875 C 89.95865,72.6507 90,72.334721 90,72 l 0,-2 0,-68 0,-2 c 0,-3.324 -2.676,-6 -6,-6 l -72,0 z"
       inkscape:connector-curvature="0"
       id="rect3728"
       style="fill:url(#linearGradient4533);fill-opacity:1;fill-rule:nonzero;stroke:none" />
    <path
       d="M 12,78 C 8.676,78 6,75.324 6,72 L 6,70 6,2 6,0 c 0,-0.334721 0.04135,-0.6507 0.09375,-0.96875 0.0487,-0.295596 0.09704,-0.596915 0.1875,-0.875 0.00988,-0.03038 0.020892,-0.0636 0.03125,-0.09375 0.098865,-0.287771 0.2348802,-0.547452 0.375,-0.8125 0.1445918,-0.273507 0.3156161,-0.535615 0.5,-0.78125 0.1843839,-0.245635 0.3737765,-0.473472 0.59375,-0.6875 0.439947,-0.428056 0.94291,-0.814526 1.5,-1.09375 0.278545,-0.139612 0.5734731,-0.246947 0.875,-0.34375 -0.2562018,0.100222 -0.4867109,0.236272 -0.71875,0.375 -0.00741,0.0044 -0.023866,-0.0045 -0.03125,0 -0.031933,0.0193 -0.062293,0.04251 -0.09375,0.0625 -0.120395,0.0767 -0.2310226,0.163513 -0.34375,0.25 -0.1061728,0.0808 -0.2132809,0.161112 -0.3125,0.25 -0.1779299,0.161433 -0.3474596,0.345388 -0.5,0.53125 -0.1075789,0.130255 -0.2183939,0.265285 -0.3125,0.40625 -0.025089,0.03838 -0.038446,0.08587 -0.0625,0.125 -0.064763,0.103032 -0.1302275,0.204517 -0.1875,0.3125 -0.1010083,0.194706 -0.2056748,0.415701 -0.28125,0.625 C 7.30454,-2.69694 7.288911,-2.6782 7.28125,-2.65625 7.2494249,-2.5643 7.2454455,-2.469419 7.21875,-2.375 7.1884177,-2.268382 7.1483606,-2.171969 7.125,-2.0625 7.0521214,-1.720988 7,-1.364295 7,-1 l 0,2 0,68 0,2 c 0,2.781848 2.2181517,5 5,5 l 2,0 68,0 2,0 c 2.781848,0 5,-2.218152 5,-5 l 0,-2 0,-68 0,-2 c 0,-0.364295 -0.05212,-0.720988 -0.125,-1.0625 -0.04415,-0.206893 -0.08838,-0.397658 -0.15625,-0.59375 -0.0077,-0.02195 -0.0233,-0.04069 -0.03125,-0.0625 -0.06274,-0.173739 -0.138383,-0.367449 -0.21875,-0.53125 -0.04158,-0.0828 -0.07904,-0.169954 -0.125,-0.25 -0.0546,-0.09721 -0.126774,-0.18835 -0.1875,-0.28125 -0.09411,-0.140965 -0.204921,-0.275995 -0.3125,-0.40625 -0.143174,-0.17445 -0.303141,-0.346998 -0.46875,-0.5 -0.01117,-0.0102 -0.01998,-0.02115 -0.03125,-0.03125 -0.138386,-0.125556 -0.285091,-0.234436 -0.4375,-0.34375 -0.102571,-0.07315 -0.204318,-0.153364 -0.3125,-0.21875 -0.0074,-0.0045 -0.02384,0.0044 -0.03125,0 -0.232039,-0.138728 -0.462548,-0.274778 -0.71875,-0.375 0.301527,0.0968 0.596455,0.204138 0.875,0.34375 0.55709,0.279224 1.060053,0.665694 1.5,1.09375 0.219973,0.214028 0.409366,0.441865 0.59375,0.6875 0.184384,0.245635 0.355408,0.507743 0.5,0.78125 0.14012,0.265048 0.276135,0.524729 0.375,0.8125 0.01041,0.03078 0.02133,0.06274 0.03125,0.09375 0.09046,0.278085 0.1388,0.579404 0.1875,0.875 C 89.95865,-0.6507 90,-0.334721 90,0 l 0,2 0,68 0,2 c 0,3.324 -2.676,6 -6,6 l -72,0 z"
       inkscape:connector-curvature="0"
       id="path3615"
       style="opacity:0.6;fill:url(#radialGradient4535);fill-opacity:1;fill-rule:nonzero;stroke:none" />
    <path
       d="m 14.089286,-2 c -2.216,0 -4,1.784 -4,4 l 0,68 c 0,2.216 1.784,4 4,4 l 68,0 c 2.216,0 4,-1.784 4,-4 l 0,-68 c 0,-2.216 -1.784,-4 -4,-4 l -68,0 z m 0,2 68,0 c 1.140301,0 2,0.859699 2,2 l 0,68 c 0,1.140301 -0.859699,2 -2,2 l -68,0 c -1.140301,0 -2,-0.859699 -2,-2 l 0,-68 c 0,-1.140301 0.859699,-2 2,-2 z"
       inkscape:connector-curvature="0"
       id="path3709"
       style="opacity:0.16000001;fill:#000000;fill-opacity:1;fill-rule:nonzero;stroke:none" />
    <path
       d="m 14,-2 c -2.216,0 -4,1.784 -4,4 l 0,68 c 0,2.216 1.784,4 4,4 l 68,0 c 2.216,0 4,-1.784 4,-4 L 86,2 c 0,-2.216 -1.784,-4 -4,-4 l -68,0 z m 0,1 68,0 c 1.673848,0 3,1.326152 3,3 l 0,68 c 0,1.673848 -1.326152,3 -3,3 l -68,0 c -1.673848,0 -3,-1.326152 -3,-3 L 11,2 c 0,-1.673848 1.326152,-3 3,-3 z"
       inkscape:connector-curvature="0"
       id="path3707"
       style="opacity:0.36000001;fill:#000000;fill-opacity:1;fill-rule:nonzero;stroke:none" />
  </g>
  <g
     id="layer2-5"
     style="display:none"
     transform="translate(197.92121,-38.794605)">
    <rect
       width="86"
       height="85"
       rx="6"
       ry="6"
       x="5"
       y="7"
       id="rect3745-2"
       style="opacity:0.9;fill:url(#ButtonShadow-4);fill-opacity:1;fill-rule:nonzero;stroke:none;filter:url(#filter3174-3)" />
  </g>
  <g
     style="display:inline"
     id="layer1"
     transform="matrix(0.77325547,0,0,0.77325547,22.863715,61.324524)">
    <path
       style="opacity:0.07999998;color:#000000;fill:#000000;fill-opacity:1;fill-rule:nonzero;stroke:none;stroke-width:1;marker:none;visibility:visible;display:inline;overflow:visible;enable-background:accumulate"
       id="path3770"
       d="m 12,-57.96875 c -1.783254,-0.0501 -3.5594658,0.728811 -4.875,1.96875 -1.3231343,1.247102 -2.2162635,3.059519 -1.84375,5 a 0.97669908,0.97669908 0 0 0 0.25,0.46875 c -0.012267,0.03022 -0.00916,-0.0022 -0.0625,0.09375 -0.1000118,0.179857 -0.2492335,0.438604 -0.375,0.8125 -0.097183,0.288919 -0.06311,0.674362 0,1.0625 l -0.0625,0 c 0.020916,15.625506 -0.04181,31.245515 0.03125,46.875 A 0.97669908,0.97669908 0 0 0 5.25,-1.125 c 0.2931318,0.41076779 0.2422071,0.43355887 0.21875,0.59375 C 5.445293,-0.37105887 5.268897,0.01362609 5.0625,0.65625 A 0.97669908,0.97669908 0 0 0 5.03125,0.9375 c -0.1615105,4.4174832 4.1126954,7.5688959 8.25,7.03125 0.05211,-0.00677 0.10419,0.00795 0.15625,0 C 37.16435,7.94846 60.893551,8.009879 84.625,7.9375 a 0.97669908,0.97669908 0 0 0 0.0625,0 C 86.655848,7.8208761 88.443205,6.68816 89.625,5.125 90.806795,3.56184 91.404926,1.4591093 90.5625,-0.5 a 0.97669908,0.97669908 0 0 0 -0.03125,-0.0625 c 0.0245,-0.0546012 0.02181,-0.0851909 0.09375,-0.21875 0.114162,-0.21195256 0.272264,-0.4901246 0.375,-0.875 0.07242,-0.2713056 -0.02319,-0.6222748 -0.09375,-0.96875 l 0.0625,0 c -0.02092,-15.555087 0.04181,-31.128388 -0.03125,-46.6875 a 0.97669908,0.97669908 0 0 0 -0.0625,-0.34375 c -0.209124,-0.541035 -0.387107,-0.892704 -0.40625,-0.96875 -0.01914,-0.07605 -0.09482,0.06866 0.125,-0.21875 a 0.97669908,0.97669908 0 0 0 0.1875,-0.53125 c 0.161476,-2.064156 -0.908702,-3.852308 -2.40625,-5.03125 -1.46453,-1.152949 -3.356615,-1.777565 -5.21875,-1.5625 l -0.125,0 -71,0 -0.03125,0 z" />
    <path
       style="opacity:0.1;color:#000000;fill:#000000;fill-opacity:1;fill-rule:nonzero;stroke:none;stroke-width:1;marker:none;visibility:visible;display:inline;overflow:visible;enable-background:accumulate"
       id="path3764"
       inkscape:connector-curvature="0"
       d="m 12,-57 c -2.939356,-0.0985 -6.3441102,2.717688 -5.75,5.8125 0.9365977,0.844758 -0.6445328,1.497697 -0.25,2.609913 C 6.020921,-32.948598 5.958216,-17.311329 6.03125,-1.6875 6.791325,-0.62240118 6.368734,-0.17931541 6,0.96875 5.8609737,4.7712675 9.6698721,7.5496826 13.267239,7 37.048411,6.9793023 60.831689,7.0414215 84.611544,6.9688946 87.831816,6.7780947 91.0121,3.0281066 89.65625,-0.125 88.992855,-0.75042533 90.472825,-1.6449551 90,-2.6336194 89.979078,-18.192206 90.041785,-33.759074 89.96875,-49.3125 89.626054,-50.199106 89.152783,-50.574931 89.8125,-51.4375 90.076444,-54.811514 86.335549,-57.433299 83.155174,-57 59.436783,-57 35.718391,-57 12,-57 z" />
    <path
       style="opacity:0.15;color:#000000;fill:#000000;fill-opacity:1;fill-rule:nonzero;stroke:none;stroke-width:1;marker:none;visibility:visible;display:inline;overflow:visible;enable-background:accumulate"
       id="path3760"
       d="m 12,-56.03125 c -2.3947562,0 -4.3766874,1.692491 -4.875,3.9375 a 1.034152,1.034152 0 0 0 0.28125,0.9375 l 39.875,39.875 a 1.034152,1.034152 0 0 0 1.4375,0 l 39.875,-39.875 a 1.034152,1.034152 0 0 0 0.28125,-0.9375 c -0.498313,-2.245008 -2.480244,-3.9375 -4.875,-3.9375 l -72,0 z m -4.125,6 A 1.034152,1.034152 0 0 0 6.96875,-49 l 0,47 a 1.034152,1.034152 0 0 0 1.75,0.71875 L 29.5,-22.0625 29.5625,-22 7.28125,0.28125 A 1.034152,1.034152 0 0 0 6.96875,1 c 0,2.7709767 2.2602733,5.03125 5.03125,5.03125 l 72,0 c 2.770977,0 5.03125,-2.2602733 5.03125,-5.03125 A 1.034152,1.034152 0 0 0 88.71875,0.28125 L 66.4375,-22 66.5,-22.0625 87.28125,-1.28125 A 1.034152,1.034152 0 0 0 89.03125,-2 l 0,-47 a 1.034152,1.034152 0 0 0 -1.75,-0.71875 L 48,-10.4375 8.71875,-49.71875 A 1.034152,1.034152 0 0 0 7.875,-50.03125 z" />
    <path
       style="opacity:0.3;color:#000000;fill:#000000;fill-opacity:1;fill-rule:nonzero;stroke:none;stroke-width:1;marker:none;visibility:visible;display:inline;overflow:visible;enable-background:accumulate"
       id="path3753"
       inkscape:connector-curvature="0"
       d="m 12,-55 c -1.914624,0 -3.4773514,1.333505 -3.875,3.125 L 48,-12 87.875,-51.875 C 87.477351,-53.666495 85.914624,-55 84,-55 l -72,0 z M 8,-49 8,-2 29.5,-23.5 31,-22 8,1 c 0,2.216 1.784,4 4,4 l 72,0 c 2.216,0 4,-1.784 4,-4 L 65,-22 66.5,-23.5 88,-2 88,-49 48,-9 8,-49 z" />
    <path
       style="color:#000000;fill:url(#linearGradient3702-6);fill-opacity:1;fill-rule:nonzero;stroke:none;stroke-width:1;marker:none;visibility:visible;display:inline;overflow:visible;enable-background:accumulate"
       id="rect2922"
       transform="translate(0,-74)"
       inkscape:connector-curvature="0"
       d="m 12,18 c -1.914624,0 -3.4773514,1.333505 -3.875,3.125 L 48,61 87.875,21.125 C 87.477351,19.333505 85.914624,18 84,18 L 12,18 z M 8,24 8,71 29.5,49.5 31,51 8,74 c 0,2.216 1.784,4 4,4 l 72,0 c 2.216,0 4,-1.784 4,-4 L 65,51 66.5,49.5 88,71 88,24 48,64 8,24 z" />
    <path
       style="opacity:0.75;color:#000000;fill:#ffffff;fill-opacity:1;fill-rule:nonzero;stroke:none;stroke-width:1;marker:none;visibility:visible;display:inline;overflow:visible;enable-background:accumulate"
       id="path3734"
       transform="translate(0,-74)"
       inkscape:connector-curvature="0"
       d="m 12,18 c -1.914624,0 -3.4773514,1.333505 -3.875,3.125 l 0.25,0.25 C 8.9901926,19.974888 10.364679,19 12,19 l 72,0 c 1.635321,0 3.009807,0.974888 3.625,2.375 l 0.25,-0.25 C 87.477351,19.333505 85.914624,18 84,18 L 12,18 z M 8,24 8,25 48,65 88,25 88,24 48,64 8,24 z M 30.5,51.5 8,74 c 0,0.301376 0.062407,0.593005 0.125,0.875 L 31,52 30.5,51.5 z m 35,0 L 65,52 87.875,74.875 C 87.937593,74.593005 88,74.301376 88,74 L 65.5,51.5 z" />
    <path
       style="opacity:0.15;color:#000000;fill:#000000;fill-opacity:1;fill-rule:nonzero;stroke:none;stroke-width:1;marker:none;visibility:visible;display:inline;overflow:visible;enable-background:accumulate"
       id="path3744"
       transform="translate(0,-74)"
       inkscape:connector-curvature="0"
       d="m 8.375,20.375 c -0.105071,0.23913 -0.1919916,0.488659 -0.25,0.75 L 48,61 87.875,21.125 c -0.05801,-0.261341 -0.144929,-0.51087 -0.25,-0.75 L 48,60 8.375,20.375 z M 29.5,48.5 8,70 l 0,1 21.5,-21.5 1,1 L 31,50 29.5,48.5 z m 37,0 -1.5,1.5 0.5,0.5 1,-1 L 88,71 88,70 66.5,48.5 z M 8.125,73.875 8,74 c 0,2.216 1.784,4 4,4 l 72,0 c 2.216,0 4,-1.784 4,-4 L 87.875,73.875 C 87.477351,75.666495 85.914624,77 84,77 L 12,77 C 10.085376,77 8.5226486,75.666495 8.125,73.875 z" />
  </g>
</svg>
