<?xml version="1.0" encoding="UTF-8" standalone="no"?>
<!-- Created with Inkscape (http://www.inkscape.org/) -->

<svg
   xmlns:dc="http://purl.org/dc/elements/1.1/"
   xmlns:cc="http://creativecommons.org/ns#"
   xmlns:rdf="http://www.w3.org/1999/02/22-rdf-syntax-ns#"
   xmlns:svg="http://www.w3.org/2000/svg"
   xmlns="http://www.w3.org/2000/svg"
   xmlns:xlink="http://www.w3.org/1999/xlink"
   xmlns:sodipodi="http://sodipodi.sourceforge.net/DTD/sodipodi-0.dtd"
   xmlns:inkscape="http://www.inkscape.org/namespaces/inkscape"
   width="280"
   height="92"
   id="svg2"
   version="1.1"
   inkscape:version="0.48.1 r9760"
   sodipodi:docname="buttoncall.svg"
   inkscape:export-filename="/home/francesco/neo_freerunner/qtmoko/themes/faenqomod2/svg/faenqomod/buttoncall.png"
   inkscape:export-xdpi="90"
   inkscape:export-ydpi="90">
  <defs
     id="defs4">
    <linearGradient
       gradientTransform="matrix(2.4068378,0,0,1.6172371,69.922726,926.65874)"
       gradientUnits="userSpaceOnUse"
       y2="58.090908"
       x2="-6.272727"
       y1="77.727272"
       x1="-6.272727"
       id="linearGradient3758"
       xlink:href="#linearGradient3752"
       inkscape:collect="always" />
    <linearGradient
       id="linearGradient3752">
      <stop
         id="stop3754"
         offset="0"
         style="stop-color:#073600;stop-opacity:1;" />
      <stop
         id="stop3756"
         offset="1"
         style="stop-color:#2cac21;stop-opacity:1;" />
    </linearGradient>
    <linearGradient
       inkscape:collect="always"
       xlink:href="#linearGradient3752"
       id="linearGradient3831"
       x1="66.5"
       y1="1049.1122"
       x2="66.5"
       y2="963.86218"
       gradientUnits="userSpaceOnUse" />
    <linearGradient
       inkscape:collect="always"
       xlink:href="#linearGradient3752"
       id="linearGradient2995"
       gradientUnits="userSpaceOnUse"
       x1="66.5"
       y1="1049.1122"
       x2="66.5"
       y2="963.86218" />
    <linearGradient
       inkscape:collect="always"
       xlink:href="#linearGradient3752-2"
       id="linearGradient2998-4"
       gradientUnits="userSpaceOnUse"
       x1="66.5"
       y1="1049.1122"
       x2="66.5"
       y2="963.86218"
       gradientTransform="matrix(1.2,0,0,1,2.0000005,-1.7472031e-5)" />
    <linearGradient
       id="linearGradient3752-2">
      <stop
         id="stop3754-2"
         offset="0"
         style="stop-color:#bababa;stop-opacity:1;" />
      <stop
         id="stop3756-2"
         offset="1"
         style="stop-color:#eaeaea;stop-opacity:1;" />
    </linearGradient>
    <linearGradient
       inkscape:collect="always"
       xlink:href="#linearGradient3752-4"
       id="linearGradient2998-0"
       gradientUnits="userSpaceOnUse"
       x1="66.5"
       y1="1049.1122"
       x2="66.5"
       y2="963.86218"
       gradientTransform="matrix(2.2,0,0,1,-2.9999991,-2.0089218e-5)" />
    <linearGradient
       id="linearGradient3752-4">
      <stop
         id="stop3754-29"
         offset="0"
         style="stop-color:#bababa;stop-opacity:1;" />
      <stop
         id="stop3756-6"
         offset="1"
         style="stop-color:#eaeaea;stop-opacity:1;" />
    </linearGradient>
    <filter
       inkscape:collect="always"
       id="filter3822">
      <feGaussianBlur
         inkscape:collect="always"
         stdDeviation="0.8725"
         id="feGaussianBlur3824" />
    </filter>
    <linearGradient
       gradientUnits="userSpaceOnUse"
       y2="18.097509"
       x2="11.162445"
       y1="5.6551228"
       x1="11.162445"
       gradientTransform="scale(1.1310246,0.8841541)"
       id="StandardGradient">
      <stop
         id="stop3280"
         offset="0"
         style="stop-color:#000000;stop-opacity:0.86274511;" />
      <stop
         id="stop3282"
         offset="1"
         style="stop-color:#000000;stop-opacity:0.47058824;" />
    </linearGradient>
    <linearGradient
       inkscape:collect="always"
       xlink:href="#StandardGradient"
       id="linearGradient4343"
       gradientUnits="userSpaceOnUse"
       gradientTransform="matrix(0.03851176,-0.65608659,0.65590557,0.03850112,-241.27566,417.35789)"
       x1="652.021"
       y1="347.86285"
       x2="627.67029"
       y2="349.2926" />
    <linearGradient
       id="linearGradient3183-0">
      <stop
         id="stop3185-9"
         offset="0"
         style="stop-color:#c80000;stop-opacity:1;" />
      <stop
         id="stop3187-6"
         offset="1"
         style="stop-color:#f3604d;stop-opacity:1;" />
    </linearGradient>
    <linearGradient
       inkscape:collect="always"
       xlink:href="#linearGradient3183-0"
       id="linearGradient2927-4"
       gradientUnits="userSpaceOnUse"
       gradientTransform="matrix(0,-3.0000004,2.9652505,0,33.335916,111.00001)"
       x1="11"
       y1="11.015625"
       x2="19"
       y2="11.015625" />
    <linearGradient
       gradientUnits="userSpaceOnUse"
       y2="7.0165396"
       x2="45.447727"
       y1="92.539597"
       x1="45.447727"
       gradientTransform="matrix(1.0058652,0,0,0.994169,100,0)"
       id="ButtonShadow-0">
      <stop
         id="stop3750-8"
         offset="0"
         style="stop-color:#000000;stop-opacity:1;" />
      <stop
         id="stop3752-5"
         offset="1"
         style="stop-color:#000000;stop-opacity:0.58823532;" />
    </linearGradient>
    <filter
       id="filter3657"
       inkscape:collect="always">
      <feGaussianBlur
         id="feGaussianBlur3659"
         stdDeviation="1.14"
         inkscape:collect="always" />
    </filter>
    <clipPath
       id="clipPath3649"
       clipPathUnits="userSpaceOnUse">
      <rect
         ry="4"
         rx="4"
         y="10"
         x="10"
         height="76"
         width="76"
         id="rect3651"
         style="fill:#ffffff;fill-opacity:1;fill-rule:nonzero;stroke:none" />
    </clipPath>
    <linearGradient
       gradientUnits="userSpaceOnUse"
       y2="90.015434"
       x2="44.512066"
       y1="6"
       x1="44.512066"
       id="linearGradient3643"
       xlink:href="#linearGradient3637"
       inkscape:collect="always" />
    <clipPath
       id="clipPath3625"
       clipPathUnits="userSpaceOnUse">
      <path
         id="path3627"
         d="M 0,0 0,96 96,96 96,0 0,0 z m 12,6 72,0 c 3.324,0 6,2.676 6,6 l 0,72 c 0,3.324 -2.676,6 -6,6 L 12,90 C 8.676,90 6,87.324 6,84 L 6,12 C 6,8.676 8.676,6 12,6 z"
         style="fill:#ffffff;fill-opacity:1;stroke:none" />
    </clipPath>
    <linearGradient
       gradientTransform="translate(0,100)"
       y2="5.9877172"
       x2="48"
       y1="90"
       x1="48"
       gradientUnits="userSpaceOnUse"
       id="linearGradient2843"
       xlink:href="#linearGradient3700"
       inkscape:collect="always" />
    <clipPath
       id="clipPath3613"
       clipPathUnits="userSpaceOnUse">
      <rect
         style="fill:#ffffff;fill-opacity:1;fill-rule:nonzero;stroke:none"
         id="rect3615"
         width="84"
         height="84"
         x="6"
         y="6"
         rx="6"
         ry="6" />
    </clipPath>
    <radialGradient
       gradientUnits="userSpaceOnUse"
       gradientTransform="matrix(1.1573129,0,0,0.99590774,-7.5510206,0.19713193)"
       r="42"
       fy="90.171875"
       fx="48"
       cy="90.171875"
       cx="48"
       id="radialGradient3619"
       xlink:href="#linearGradient3737"
       inkscape:collect="always" />
    <linearGradient
       gradientUnits="userSpaceOnUse"
       y2="138.66119"
       x2="48"
       y1="20.220806"
       x1="48"
       id="linearGradient3613"
       xlink:href="#linearGradient3737"
       inkscape:collect="always" />
    <filter
       height="1.384"
       y="-0.192"
       width="1.384"
       x="-0.192"
       id="filter3794"
       inkscape:collect="always">
      <feGaussianBlur
         id="feGaussianBlur3796"
         stdDeviation="5.28"
         inkscape:collect="always" />
    </filter>
    <linearGradient
       y2="63.893143"
       x2="36.357143"
       y1="6"
       x1="36.357143"
       gradientUnits="userSpaceOnUse"
       id="linearGradient3188"
       xlink:href="#linearGradient3737"
       inkscape:collect="always" />
    <filter
       id="filter3174"
       inkscape:collect="always">
      <feGaussianBlur
         id="feGaussianBlur3176"
         stdDeviation="1.71"
         inkscape:collect="always" />
    </filter>
    <linearGradient
       id="linearGradient3700">
      <stop
         id="stop3702"
         offset="0"
         style="stop-color:#2276c5;stop-opacity:1;" />
      <stop
         id="stop3704"
         offset="1"
         style="stop-color:#68baf4;stop-opacity:1;" />
    </linearGradient>
    <linearGradient
       id="linearGradient3737"
       inkscape:collect="always">
      <stop
         id="stop3739"
         offset="0"
         style="stop-color:#ffffff;stop-opacity:1;" />
      <stop
         id="stop3741"
         offset="1"
         style="stop-color:#ffffff;stop-opacity:0;" />
    </linearGradient>
    <linearGradient
       gradientUnits="userSpaceOnUse"
       y2="7.0165396"
       x2="45.447727"
       y1="92.539597"
       x1="45.447727"
       gradientTransform="scale(1.0058652,0.994169)"
       id="ButtonShadow">
      <stop
         id="stop3750"
         offset="0"
         style="stop-color:#000000;stop-opacity:1;" />
      <stop
         id="stop3752"
         offset="1"
         style="stop-color:#000000;stop-opacity:0.58823532;" />
    </linearGradient>
    <linearGradient
       id="linearGradient3637">
      <stop
         id="stop3639"
         offset="0"
         style="stop-color:#f0f0f0;stop-opacity:1;" />
      <stop
         id="stop3641"
         offset="1"
         style="stop-color:#aaaaaa;stop-opacity:1;" />
    </linearGradient>
    <linearGradient
       inkscape:collect="always"
       xlink:href="#linearGradient3752"
       id="linearGradient4118"
       gradientUnits="userSpaceOnUse"
       gradientTransform="matrix(2.2,0,0,0.89411765,-2.9999991,106.55598)"
       x1="66.5"
       y1="1049.1122"
       x2="66.5"
       y2="963.86218" />
    <linearGradient
       y2="349.2926"
       x2="627.67029"
       y1="347.86285"
       x1="652.021"
       gradientTransform="matrix(0.11586665,-1.9518366,1.9733605,0.1145396,-711.10468,1256.8145)"
       gradientUnits="userSpaceOnUse"
       id="linearGradient7313-9"
       xlink:href="#linearGradient3637-8"
       inkscape:collect="always" />
    <linearGradient
       id="linearGradient3637-8">
      <stop
         style="stop-color:#f0f0f0;stop-opacity:1;"
         offset="0"
         id="stop3639-9" />
      <stop
         style="stop-color:#aaaaaa;stop-opacity:1;"
         offset="1"
         id="stop3641-3" />
    </linearGradient>
    <linearGradient
       inkscape:collect="always"
       xlink:href="#linearGradient3752-6"
       id="linearGradient4118-7"
       gradientUnits="userSpaceOnUse"
       gradientTransform="matrix(2.2,0,0,0.89411765,-2.9999991,106.55598)"
       x1="66.5"
       y1="1049.1122"
       x2="66.5"
       y2="963.86218" />
    <linearGradient
       id="linearGradient3752-6">
      <stop
         id="stop3754-9"
         offset="0"
         style="stop-color:#073600;stop-opacity:1;" />
      <stop
         id="stop3756-3"
         offset="1"
         style="stop-color:#2cac21;stop-opacity:1;" />
    </linearGradient>
    <filter
       inkscape:collect="always"
       id="filter4182">
      <feGaussianBlur
         inkscape:collect="always"
         stdDeviation="0.85"
         id="feGaussianBlur4184" />
    </filter>
  </defs>
  <sodipodi:namedview
     id="base"
     pagecolor="#ffffff"
     bordercolor="#666666"
     borderopacity="1.0"
     inkscape:pageopacity="0.0"
     inkscape:pageshadow="2"
     inkscape:zoom="2.8284271"
     inkscape:cx="143.18757"
     inkscape:cy="22.610428"
     inkscape:document-units="px"
     inkscape:current-layer="layer1"
     showgrid="false"
     borderlayer="true"
     inkscape:showpageshadow="false"
     inkscape:window-width="1366"
     inkscape:window-height="714"
     inkscape:window-x="0"
     inkscape:window-y="26"
     inkscape:window-maximized="1"
     showguides="true"
     inkscape:guide-bbox="true" />
  <metadata
     id="metadata7">
    <rdf:RDF>
      <cc:Work
         rdf:about="">
        <dc:format>image/svg+xml</dc:format>
        <dc:type
           rdf:resource="http://purl.org/dc/dcmitype/StillImage" />
        <dc:title></dc:title>
      </cc:Work>
    </rdf:RDF>
  </metadata>
  <g
     inkscape:label="Livello 1"
     inkscape:groupmode="layer"
     id="layer1"
     transform="translate(0,-960.36218)">
    <rect
       style="fill:none;stroke:#68b4eb;stroke-width:4;stroke-miterlimit:4;stroke-opacity:1;stroke-dasharray:none;filter:url(#filter4182)"
       id="rect2989-3"
       width="264"
       height="76"
       x="8"
       y="968.36218"
       rx="7.1729827"
       ry="5.9774857" />
    <rect
       style="fill:url(#linearGradient4118);fill-opacity:1;stroke:none"
       id="rect2989"
       width="264"
       height="76"
       x="8"
       y="968.36218"
       rx="7.1729827"
       ry="5.9774857" />
    <g
       id="layer2"
       inkscape:label="Blur Shadow"
       style="display:none"
       transform="translate(32.315986,1075.9108)">
      <rect
         style="opacity:0.9;fill:url(#ButtonShadow);fill-opacity:1;fill-rule:nonzero;stroke:none;filter:url(#filter3174)"
         id="rect3745"
         width="86"
         height="85"
         x="5"
         y="7"
         rx="6"
         ry="6"
         clip-path="url(#clipPath3625)" />
    </g>
    <g
       inkscape:label="Button with border"
       id="layer1-9"
       style="display:none"
       transform="translate(32.315986,1075.9108)">
      <rect
         style="opacity:0.8;fill:#000000;fill-opacity:1;fill-rule:nonzero;stroke:none"
         id="rect2419"
         width="84"
         height="84"
         x="6"
         y="6"
         rx="6"
         ry="6" />
      <path
         style="opacity:0.07999998;fill:#000000;fill-opacity:1;fill-rule:nonzero;stroke:none"
         d="m 14,10 c -2.216,0 -4,1.784 -4,4 l 0,68 c 0,2.216 1.784,4 4,4 l 68,0 c 2.216,0 4,-1.784 4,-4 l 0,-68 c 0,-2.216 -1.784,-4 -4,-4 l -68,0 z m 0,3.0625 68,0 c 0.578769,0 0.9375,0.358731 0.9375,0.9375 l 0,68 c 0,0.578769 -0.358731,0.9375 -0.9375,0.9375 l -68,0 c -0.578769,0 -0.9375,-0.358731 -0.9375,-0.9375 l 0,-68 c 0,-0.578769 0.358731,-0.9375 0.9375,-0.9375 z"
         id="rect3726"
         inkscape:connector-curvature="0" />
      <path
         style="fill:url(#linearGradient3643);fill-opacity:1;fill-rule:nonzero;stroke:none"
         d="M 12,6 C 8.676,6 6,8.676 6,12 l 0,72 c 0,3.324 2.676,6 6,6 l 72,0 c 3.324,0 6,-2.676 6,-6 L 90,12 C 90,8.676 87.324,6 84,6 L 12,6 z m 2,4 68,0 c 2.216,0 4,1.784 4,4 l 0,68 c 0,2.216 -1.784,4 -4,4 l -68,0 c -2.216,0 -4,-1.784 -4,-4 l 0,-68 c 0,-2.216 1.784,-4 4,-4 z"
         id="rect3629"
         inkscape:connector-curvature="0" />
      <path
         style="fill:url(#linearGradient3188);fill-opacity:1;fill-rule:nonzero;stroke:none"
         d="M 12,6 C 8.676,6 6,8.676 6,12 l 0,2 0,68 0,2 c 0,0.334721 0.04135,0.6507 0.09375,0.96875 0.0487,0.295596 0.09704,0.596915 0.1875,0.875 0.00988,0.03038 0.020892,0.0636 0.03125,0.09375 0.098865,0.287771 0.2348802,0.547452 0.375,0.8125 0.1445918,0.273507 0.3156161,0.535615 0.5,0.78125 0.1843839,0.245635 0.3737765,0.473472 0.59375,0.6875 0.439947,0.428056 0.94291,0.814526 1.5,1.09375 0.278545,0.139612 0.5734731,0.246947 0.875,0.34375 -0.2562018,-0.100222 -0.4867109,-0.236272 -0.71875,-0.375 -0.00741,-0.0044 -0.023866,0.0045 -0.03125,0 -0.031933,-0.0193 -0.062293,-0.04251 -0.09375,-0.0625 -0.120395,-0.0767 -0.2310226,-0.163513 -0.34375,-0.25 -0.1061728,-0.0808 -0.2132809,-0.161112 -0.3125,-0.25 C 8.4783201,88.557317 8.3087904,88.373362 8.15625,88.1875 8.0486711,88.057245 7.9378561,87.922215 7.84375,87.78125 7.818661,87.74287 7.805304,87.69538 7.78125,87.65625 7.716487,87.553218 7.6510225,87.451733 7.59375,87.34375 7.4927417,87.149044 7.3880752,86.928049 7.3125,86.71875 7.30454,86.69694 7.288911,86.6782 7.28125,86.65625 7.2494249,86.5643 7.2454455,86.469419 7.21875,86.375 7.1884177,86.268382 7.1483606,86.171969 7.125,86.0625 7.0521214,85.720988 7,85.364295 7,85 L 7,83 7,15 7,13 C 7,10.218152 9.2181517,8 12,8 l 2,0 68,0 2,0 c 2.781848,0 5,2.218152 5,5 l 0,2 0,68 0,2 c 0,0.364295 -0.05212,0.720988 -0.125,1.0625 -0.04415,0.206893 -0.08838,0.397658 -0.15625,0.59375 -0.0077,0.02195 -0.0233,0.04069 -0.03125,0.0625 -0.06274,0.173739 -0.138383,0.367449 -0.21875,0.53125 -0.04158,0.0828 -0.07904,0.169954 -0.125,0.25 -0.0546,0.09721 -0.126774,0.18835 -0.1875,0.28125 -0.09411,0.140965 -0.204921,0.275995 -0.3125,0.40625 -0.143174,0.17445 -0.303141,0.346998 -0.46875,0.5 -0.01117,0.0102 -0.01998,0.02115 -0.03125,0.03125 -0.138386,0.125556 -0.285091,0.234436 -0.4375,0.34375 -0.102571,0.07315 -0.204318,0.153364 -0.3125,0.21875 -0.0074,0.0045 -0.02384,-0.0044 -0.03125,0 -0.232039,0.138728 -0.462548,0.274778 -0.71875,0.375 0.301527,-0.0968 0.596455,-0.204138 0.875,-0.34375 0.55709,-0.279224 1.060053,-0.665694 1.5,-1.09375 0.219973,-0.214028 0.409366,-0.441865 0.59375,-0.6875 0.184384,-0.245635 0.355408,-0.507743 0.5,-0.78125 0.14012,-0.265048 0.276135,-0.524729 0.375,-0.8125 0.01041,-0.03078 0.02133,-0.06274 0.03125,-0.09375 0.09046,-0.278085 0.1388,-0.579404 0.1875,-0.875 C 89.95865,84.6507 90,84.334721 90,84 l 0,-2 0,-68 0,-2 C 90,8.676 87.324,6 84,6 L 12,6 z"
         id="rect3728"
         inkscape:connector-curvature="0" />
      <path
         id="path3615"
         d="M 12,90 C 8.676,90 6,87.324 6,84 L 6,82 6,14 6,12 c 0,-0.334721 0.04135,-0.6507 0.09375,-0.96875 0.0487,-0.295596 0.09704,-0.596915 0.1875,-0.875 C 6.29113,10.12587 6.302142,10.09265 6.3125,10.0625 6.411365,9.774729 6.5473802,9.515048 6.6875,9.25 6.8320918,8.976493 7.0031161,8.714385 7.1875,8.46875 7.3718839,8.223115 7.5612765,7.995278 7.78125,7.78125 8.221197,7.353194 8.72416,6.966724 9.28125,6.6875 9.559795,6.547888 9.8547231,6.440553 10.15625,6.34375 9.9000482,6.443972 9.6695391,6.580022 9.4375,6.71875 c -0.00741,0.0044 -0.023866,-0.0045 -0.03125,0 -0.031933,0.0193 -0.062293,0.04251 -0.09375,0.0625 -0.120395,0.0767 -0.2310226,0.163513 -0.34375,0.25 -0.1061728,0.0808 -0.2132809,0.161112 -0.3125,0.25 C 8.4783201,7.442683 8.3087904,7.626638 8.15625,7.8125 8.0486711,7.942755 7.9378561,8.077785 7.84375,8.21875 7.818661,8.25713 7.805304,8.30462 7.78125,8.34375 7.716487,8.446782 7.6510225,8.548267 7.59375,8.65625 7.4927417,8.850956 7.3880752,9.071951 7.3125,9.28125 7.30454,9.30306 7.288911,9.3218 7.28125,9.34375 7.2494249,9.4357 7.2454455,9.530581 7.21875,9.625 7.1884177,9.731618 7.1483606,9.828031 7.125,9.9375 7.0521214,10.279012 7,10.635705 7,11 l 0,2 0,68 0,2 c 0,2.781848 2.2181517,5 5,5 l 2,0 68,0 2,0 c 2.781848,0 5,-2.218152 5,-5 l 0,-2 0,-68 0,-2 C 89,10.635705 88.94788,10.279012 88.875,9.9375 88.83085,9.730607 88.78662,9.539842 88.71875,9.34375 88.71105,9.3218 88.69545,9.30306 88.6875,9.28125 88.62476,9.107511 88.549117,8.913801 88.46875,8.75 88.42717,8.6672 88.38971,8.580046 88.34375,8.5 88.28915,8.40279 88.216976,8.31165 88.15625,8.21875 88.06214,8.077785 87.951329,7.942755 87.84375,7.8125 87.700576,7.63805 87.540609,7.465502 87.375,7.3125 87.36383,7.3023 87.35502,7.29135 87.34375,7.28125 87.205364,7.155694 87.058659,7.046814 86.90625,6.9375 86.803679,6.86435 86.701932,6.784136 86.59375,6.71875 c -0.0074,-0.0045 -0.02384,0.0044 -0.03125,0 -0.232039,-0.138728 -0.462548,-0.274778 -0.71875,-0.375 0.301527,0.0968 0.596455,0.204138 0.875,0.34375 0.55709,0.279224 1.060053,0.665694 1.5,1.09375 0.219973,0.214028 0.409366,0.441865 0.59375,0.6875 0.184384,0.245635 0.355408,0.507743 0.5,0.78125 0.14012,0.265048 0.276135,0.524729 0.375,0.8125 0.01041,0.03078 0.02133,0.06274 0.03125,0.09375 0.09046,0.278085 0.1388,0.579404 0.1875,0.875 C 89.95865,11.3493 90,11.665279 90,12 l 0,2 0,68 0,2 c 0,3.324 -2.676,6 -6,6 l -72,0 z"
         style="opacity:0.6;fill:url(#radialGradient3619);fill-opacity:1;fill-rule:nonzero;stroke:none"
         inkscape:connector-curvature="0" />
      <rect
         ry="6"
         rx="6"
         y="106"
         x="6"
         height="84"
         width="84"
         id="rect2841"
         style="fill:url(#linearGradient2843);fill-opacity:1;fill-rule:nonzero;stroke:none" />
      <rect
         ry="4"
         rx="4"
         y="110"
         x="10"
         height="76"
         width="76"
         id="rect3634"
         style="fill:#ff0000;fill-opacity:1;fill-rule:nonzero;stroke:none" />
      <path
         style="font-size:medium;font-style:normal;font-variant:normal;font-weight:normal;font-stretch:normal;text-indent:0;text-align:start;text-decoration:none;line-height:normal;letter-spacing:normal;word-spacing:normal;text-transform:none;direction:ltr;block-progression:tb;writing-mode:lr-tb;text-anchor:start;color:#000000;fill:#000000;fill-opacity:1;stroke:none;stroke-width:2;marker:none;visibility:visible;display:inline;overflow:visible;filter:url(#filter3657);enable-background:accumulate;font-family:Abandoned Bitplane;-inkscape-font-specification:Abandoned Bitplane"
         d="m 14,9 c -2.752703,0 -5,2.247297 -5,5 l 0,68 c 0,2.752703 2.247297,5 5,5 l 68,0 c 2.752703,0 5,-2.247297 5,-5 L 87,14 C 87,11.247297 84.752703,9 82,9 L 14,9 z m 0,2 68,0 c 1.679297,0 3,1.320703 3,3 l 0,68 c 0,1.679297 -1.320703,3 -3,3 l -68,0 c -1.679297,0 -3,-1.320703 -3,-3 l 0,-68 c 0,-1.679297 1.320703,-3 3,-3 z"
         clip-path="url(#clipPath3649)"
         id="rect3647"
         transform="translate(-110,0)"
         inkscape:connector-curvature="0" />
      <path
         style="opacity:0.16000001;fill:#000000;fill-opacity:1;fill-rule:nonzero;stroke:none"
         d="m 14.089286,10 c -2.216,0 -4,1.784 -4,4 l 0,68 c 0,2.216 1.784,4 4,4 l 68,0 c 2.216,0 4,-1.784 4,-4 l 0,-68 c 0,-2.216 -1.784,-4 -4,-4 l -68,0 z m 0,2 68,0 c 1.140301,0 2,0.859699 2,2 l 0,68 c 0,1.140301 -0.859699,2 -2,2 l -68,0 c -1.140301,0 -2,-0.859699 -2,-2 l 0,-68 c 0,-1.140301 0.859699,-2 2,-2 z"
         id="path3709"
         inkscape:connector-curvature="0" />
      <path
         style="opacity:0.36000001;fill:#000000;fill-opacity:1;fill-rule:nonzero;stroke:none"
         d="m 14,10 c -2.216,0 -4,1.784 -4,4 l 0,68 c 0,2.216 1.784,4 4,4 l 68,0 c 2.216,0 4,-1.784 4,-4 l 0,-68 c 0,-2.216 -1.784,-4 -4,-4 l -68,0 z m 0,1 68,0 c 1.673848,0 3,1.326152 3,3 l 0,68 c 0,1.673848 -1.326152,3 -3,3 l -68,0 c -1.673848,0 -3,-1.326152 -3,-3 l 0,-68 c 0,-1.673848 1.326152,-3 3,-3 z"
         id="path3707"
         inkscape:connector-curvature="0" />
    </g>
    <g
       id="layer5"
       inkscape:label="Highlight"
       style="display:none"
       transform="translate(32.315986,1075.9108)">
      <rect
         style="opacity:0.1;fill:url(#linearGradient3613);fill-opacity:1;fill-rule:nonzero;stroke:#ffffff;stroke-width:0.5;stroke-linecap:round;stroke-linejoin:miter;stroke-miterlimit:4;stroke-opacity:1;stroke-dasharray:none;stroke-dashoffset:0;filter:url(#filter3794)"
         id="rect3171"
         width="66"
         height="66"
         x="15"
         y="15"
         rx="12"
         ry="12"
         clip-path="url(#clipPath3613)" />
    </g>
    <g
       transform="matrix(1.2500023,0,0,1.2500023,79.976367,945.13166)"
       style="display:inline"
       id="g3075">
      <path
         d="m 62.1875,23 c -0.31453,-0.01039 -0.626109,0.02282 -0.9375,0.0625 -0.262958,0.03351 -0.820597,0.110955 -1.3125,0.46875 -0.297906,0.216691 -0.492644,0.473617 -0.5625,0.5625 -0.126237,0.160622 -0.228342,0.327823 -0.34375,0.5 -0.233845,0.348875 -0.513334,0.79288 -0.75,1.21875 -0.407643,0.733305 -1.653026,2.986742 -2.8125,5.03125 -1.239791,2.186119 -1.880198,3.295683 -2.25,4.15625 -0.173646,0.404092 -0.385212,0.893663 -0.375,1.5 0.01017,0.603826 0.227535,1.037369 0.3125,1.21875 0.226319,0.483057 0.526777,0.853223 0.8125,1.1875 0.312845,0.366008 0.691312,0.71918 1.09375,1.125 0.823518,0.83044 1.82803,1.749957 2.8125,2.5625 0.658262,0.543337 0.931341,0.865511 1,0.9375 -0.03357,0.0924 -0.05538,0.197182 -0.09375,0.28125 -0.169179,0.370709 -0.398399,0.853389 -0.6875,1.375 -0.591436,1.067101 -1.402308,2.357076 -2.15625,3.4375 -2.907169,4.166161 -6.532824,7.376447 -11.25,9.9375 -0.577208,0.313338 -0.998136,0.522384 -1.25,0.625 -0.09687,0.03947 0.02184,0.02436 -0.03125,0.03125 -0.164849,-0.13036 -0.428026,-0.385844 -0.84375,-0.8125 -0.892637,-0.916128 -1.899151,-1.740792 -2.8125,-2.375 -0.857804,-0.595639 -1.700327,-1.211255 -2.90625,-1.28125 -0.362805,-0.02106 -0.705893,0.053 -0.75,0.0625 -0.142991,0.03081 -0.250186,0.05179 -0.40625,0.09375 -0.320728,0.08624 -0.747855,0.231093 -1.21875,0.375 -0.946176,0.289154 -2.135325,0.681769 -3.375,1.09375 -2.493631,0.828708 -5.077488,1.723329 -6.3125,2.25 -0.82103,0.350199 -1.816366,0.932743 -2.28125,2.0625 -0.404249,0.982403 -0.437409,1.934305 -0.46875,3.28125 -0.02445,1.050626 -0.01713,1.743919 0.0625,2.40625 0.08704,0.723984 0.339143,1.287256 0.59375,1.78125 2.007628,3.895069 6.921939,6.50669 11.78125,6.78125 2.233467,0.126913 3.776556,-0.09607 6.4375,-0.9375 5.879925,-1.859445 11.533882,-5.20872 17.21875,-10.0625 3.654726,-3.120424 5.666068,-5.184348 7.75,-7.875 1.847585,-2.385514 4.143211,-6.300416 5.28125,-9.0625 0.403947,-0.980377 0.986286,-2.552528 1.5,-4.0625 0.510497,-1.500517 0.947179,-2.7837 1.125,-3.59375 0.552796,-2.521156 0.09141,-6.073616 -0.875,-8.625 C 72.435021,29.474646 71.689936,28.226068 70.84375,27.125 70.009652,26.039661 69.11974,25.088745 68.03125,24.46875 66.909283,23.829558 65.475677,23.487075 64.125,23.25 63.453942,23.132214 62.813072,23.020661 62.1875,23 z"
         id="path3896"
         style="opacity:0.1;fill:#000000;fill-opacity:1;display:inline"
         inkscape:original="M 62.15625 24 C 61.88334 23.990986 61.622834 23.999667 61.375 24.03125 C 61.127166 24.062833 60.86319 24.102307 60.53125 24.34375 C 60.305371 24.50805 60.258075 24.58919 60.15625 24.71875 C 60.054425 24.84831 59.952507 24.993995 59.84375 25.15625 C 59.626237 25.48076 59.377493 25.883133 59.15625 26.28125 C 58.746442 27.018449 57.474254 29.295222 56.3125 31.34375 C 55.072126 33.530898 54.44993 34.618855 54.125 35.375 C 53.962535 35.753073 53.837358 36.089218 53.84375 36.46875 C 53.850142 36.848282 53.984547 37.146087 54.0625 37.3125 C 54.23207 37.674431 54.436991 37.920361 54.71875 38.25 C 55.000509 38.579639 55.352371 38.942779 55.75 39.34375 C 56.545258 40.145693 57.542228 41.053242 58.5 41.84375 C 59.273002 42.481795 59.673875 42.889187 59.8125 43.09375 C 59.951125 43.298313 59.959516 43.285476 59.9375 43.65625 C 59.950114 43.443756 59.861719 43.836998 59.6875 44.21875 C 59.513281 44.600502 59.275748 45.102348 58.96875 45.65625 C 58.354754 46.764054 57.523676 48.078796 56.75 49.1875 C 53.757936 53.475322 49.992782 56.811646 45.15625 59.4375 C 43.961116 60.086279 43.421539 60.270272 43.25 60.25 C 43.078461 60.229728 42.709115 59.981872 41.84375 59.09375 C 41.001788 58.22963 40.047364 57.440819 39.1875 56.84375 C 38.327636 56.246681 37.695783 55.803082 36.78125 55.75 C 36.474185 55.732178 36.430666 55.755788 36.3125 55.78125 C 36.194334 55.806712 36.090582 55.833839 35.9375 55.875 C 35.631337 55.957322 35.211016 56.077862 34.75 56.21875 C 33.827969 56.500525 32.649168 56.899441 31.40625 57.3125 C 28.920413 58.138618 26.295682 59.045339 25.15625 59.53125 C 24.441585 59.83608 23.723875 60.290611 23.40625 61.0625 C 23.088625 61.834389 23.062511 62.656475 23.03125 64 C 23.006846 65.048606 22.995145 65.689749 23.0625 66.25 C 23.129855 66.810251 23.326409 67.26068 23.5625 67.71875 C 25.337529 71.162546 29.997844 73.681354 34.53125 73.9375 C 36.690025 74.060169 37.984573 73.887562 40.59375 73.0625 C 46.32201 71.251017 51.858901 67.977228 57.46875 63.1875 C 61.098388 60.088496 63.049652 58.10797 65.09375 55.46875 C 66.859419 53.189002 69.167958 49.251175 70.25 46.625 C 70.637534 45.684458 71.210164 44.1199 71.71875 42.625 C 72.227336 41.1301 72.663429 39.804083 72.8125 39.125 C 73.290655 36.94426 72.85633 33.405765 71.96875 31.0625 C 71.540485 29.931827 70.85415 28.748855 70.0625 27.71875 C 69.27085 26.688645 68.435812 25.827731 67.53125 25.3125 C 66.607013 24.785956 65.269064 24.446985 63.96875 24.21875 C 63.318593 24.104633 62.702071 24.018027 62.15625 24 z "
         inkscape:radius="0.98728496"
         sodipodi:type="inkscape:offset" />
      <path
         d="m 62.15625,24 c -0.27291,-0.009 -0.533416,-3.33e-4 -0.78125,0.03125 -0.247834,0.03158 -0.51181,0.07106 -0.84375,0.3125 -0.225879,0.1643 -0.273175,0.24544 -0.375,0.375 -0.101825,0.12956 -0.203743,0.275245 -0.3125,0.4375 -0.217513,0.32451 -0.466257,0.726883 -0.6875,1.125 -0.409808,0.737199 -1.681996,3.013972 -2.84375,5.0625 -1.240374,2.187148 -1.86257,3.275105 -2.1875,4.03125 -0.162465,0.378073 -0.287642,0.714218 -0.28125,1.09375 0.0064,0.379532 0.140797,0.677337 0.21875,0.84375 0.16957,0.361931 0.374491,0.607861 0.65625,0.9375 0.281759,0.329639 0.633621,0.692779 1.03125,1.09375 0.795258,0.801943 1.792228,1.709492 2.75,2.5 0.773002,0.638045 1.173875,1.045437 1.3125,1.25 0.138625,0.204563 0.147016,0.191726 0.125,0.5625 0.01261,-0.212494 -0.07578,0.180748 -0.25,0.5625 -0.174219,0.381752 -0.411752,0.883598 -0.71875,1.4375 -0.613996,1.107804 -1.445074,2.422546 -2.21875,3.53125 -2.992064,4.287822 -6.757218,7.624146 -11.59375,10.25 -1.195134,0.648779 -1.734711,0.832772 -1.90625,0.8125 -0.171539,-0.02027 -0.540885,-0.268128 -1.40625,-1.15625 -0.841962,-0.86412 -1.796386,-1.652931 -2.65625,-2.25 -0.859864,-0.597069 -1.491717,-1.040668 -2.40625,-1.09375 -0.307065,-0.01782 -0.350584,0.0058 -0.46875,0.03125 -0.118166,0.02546 -0.221918,0.05259 -0.375,0.09375 -0.306163,0.08232 -0.726484,0.202862 -1.1875,0.34375 -0.922031,0.281775 -2.100832,0.680691 -3.34375,1.09375 -2.485837,0.826118 -5.110568,1.732839 -6.25,2.21875 -0.714665,0.30483 -1.432375,0.759361 -1.75,1.53125 -0.317625,0.771889 -0.343739,1.593975 -0.375,2.9375 -0.0244,1.048606 -0.0361,1.689749 0.03125,2.25 0.06735,0.560251 0.263909,1.01068 0.5,1.46875 1.775029,3.443796 6.435344,5.962604 10.96875,6.21875 2.158775,0.122669 3.453323,-0.04994 6.0625,-0.875 5.72826,-1.811483 11.265151,-5.085272 16.875,-9.875 3.629638,-3.099004 5.580902,-5.07953 7.625,-7.71875 1.765669,-2.279748 4.074208,-6.217575 5.15625,-8.84375 0.387534,-0.940542 0.960164,-2.5051 1.46875,-4 0.508586,-1.4949 0.944679,-2.820917 1.09375,-3.5 0.478155,-2.18074 0.04383,-5.719235 -0.84375,-8.0625 C 71.540485,29.931827 70.85415,28.748855 70.0625,27.71875 69.27085,26.688645 68.435812,25.827731 67.53125,25.3125 66.607013,24.785956 65.269064,24.446985 63.96875,24.21875 63.318593,24.104633 62.702071,24.018027 62.15625,24 z"
         id="path3892"
         style="opacity:0.15;fill:#000000;fill-opacity:1;display:inline"
         inkscape:original="M 61.125 25.125 C 60.93979 25.259718 60.447597 26.000802 60.03125 26.75 C 59.614805 27.499139 58.318643 29.794095 57.15625 31.84375 C 54.676547 36.216203 54.66798 36.264169 54.96875 36.90625 C 55.263813 37.536033 57.269666 39.56243 59.125 41.09375 C 60.703709 42.396835 60.96191 42.781368 60.90625 43.71875 C 60.867081 44.378589 59.158868 47.462351 57.5625 49.75 C 54.485178 54.160003 50.582205 57.62113 45.625 60.3125 C 43.197421 61.630312 42.890848 61.593535 41.125 59.78125 C 39.534403 58.148793 37.539355 56.76638 36.71875 56.71875 C 36.221527 56.689892 27.610728 59.550707 25.53125 60.4375 C 24.229395 60.992787 24.09304 61.375689 24.03125 64.03125 C 23.98267 66.118636 24.006344 66.44471 24.4375 67.28125 C 25.957416 70.230092 30.41209 72.732478 34.59375 72.96875 C 36.687625 73.087731 37.710516 72.937906 40.28125 72.125 C 45.858997 70.361115 51.309856 67.162377 56.84375 62.4375 C 60.44869 59.359583 62.306287 57.465305 64.3125 54.875 C 65.991282 52.707436 68.321332 48.731463 69.34375 46.25 C 70.079768 44.463693 71.616059 39.943479 71.84375 38.90625 C 72.232817 37.131816 71.852732 33.492511 71.0625 31.40625 C 70.303808 29.403207 68.407448 26.940121 67.03125 26.15625 C 65.675119 25.383653 61.729088 24.685604 61.125 25.125 z "
         inkscape:radius="0.98498666"
         sodipodi:type="inkscape:offset" />
      <path
         inkscape:connector-curvature="0"
         style="opacity:0.3;fill:#000000;fill-opacity:1;display:inline"
         d="m 71.845479,38.905446 c -0.227691,1.037229 -1.773783,5.569235 -2.509801,7.355542 -1.022418,2.481463 -3.330084,6.453138 -5.008866,8.620702 -2.006213,2.590305 -3.884901,4.488075 -7.489841,7.565992 -5.533894,4.724877 -10.985191,7.908194 -16.562938,9.672079 -2.570734,0.812906 -3.581257,0.963253 -5.675132,0.844272 -4.18166,-0.236272 -8.636754,-2.727546 -10.15667,-5.676388 -0.431156,-0.83654 -0.475126,-1.17258 -0.426546,-3.259966 0.06179,-2.655561 0.226866,-3.043636 1.528721,-3.598923 2.079478,-0.886793 10.68477,-3.751932 11.181993,-3.723074 0.820605,0.04763 2.813312,1.436118 4.403909,3.068575 1.765848,1.812285 2.05486,1.846345 4.482439,0.528533 4.957205,-2.69137 8.87596,-6.154974 11.953282,-10.564977 1.596368,-2.287649 3.305834,-5.36844 3.345003,-6.028279 0.05566,-0.937382 -0.198027,-1.31029 -1.776736,-2.613375 -1.855334,-1.53132 -3.871839,-3.557931 -4.166902,-4.187714 -0.30077,-0.642081 -0.275467,-0.700245 2.204236,-5.072698 1.162393,-2.049655 2.454089,-4.339615 2.870534,-5.088754 0.416347,-0.749198 0.908536,-1.472348 1.093746,-1.607066 0.604088,-0.439396 4.534806,0.228269 5.890937,1.000866 1.376198,0.783871 3.281662,3.271269 4.040354,5.274312 0.790232,2.086261 1.167332,5.716014 0.778265,7.490448 z"
         id="path3886"
         sodipodi:nodetypes="cssssssssssssssssssssc"
         inkscape:export-filename="/home/matthieu/Interne/Communication/Site Web/Version 3.0/Accueil temporaire/images/phone_square.png"
         inkscape:export-xdpi="90"
         inkscape:export-ydpi="90" />
      <path
         inkscape:export-ydpi="90"
         inkscape:export-xdpi="90"
         inkscape:export-filename="/home/matthieu/Interne/Communication/Site Web/Version 3.0/Accueil temporaire/images/phone_square.png"
         sodipodi:nodetypes="cssssssssssssssssssssc"
         id="path4609"
         d="m 71.845479,37.905446 c -0.227691,1.037229 -1.773783,5.569235 -2.509801,7.355542 -1.022418,2.481463 -3.330084,6.453138 -5.008866,8.620702 -2.006213,2.590305 -3.884901,4.488075 -7.489841,7.565992 -5.533894,4.724877 -10.985191,7.908194 -16.562938,9.672079 -2.570734,0.812906 -3.581257,0.963253 -5.675132,0.844272 -4.18166,-0.236272 -8.636754,-2.727546 -10.15667,-5.676388 -0.431156,-0.83654 -0.475126,-1.17258 -0.426546,-3.259966 0.06179,-2.655561 0.226866,-3.043636 1.528721,-3.598923 2.079478,-0.886793 10.68477,-3.751932 11.181993,-3.723074 0.820605,0.04763 2.813312,1.436118 4.403909,3.068575 1.765848,1.812285 2.05486,1.846345 4.482439,0.528533 4.957205,-2.69137 8.87596,-6.154974 11.953282,-10.564977 1.596368,-2.287649 3.305834,-5.36844 3.345003,-6.028279 0.05566,-0.937382 -0.198027,-1.31029 -1.776736,-2.613375 -1.855334,-1.53132 -3.871839,-3.557931 -4.166902,-4.187714 -0.30077,-0.642081 -0.275467,-0.700245 2.204236,-5.072698 1.162393,-2.049655 2.454089,-4.339615 2.870534,-5.088754 0.416347,-0.749198 0.908536,-1.472348 1.093746,-1.607066 0.604088,-0.439396 4.534806,0.228269 5.890937,1.000866 1.376198,0.783871 3.281662,3.271269 4.040354,5.274312 0.790232,2.086261 1.167332,5.716014 0.778265,7.490448 z"
         style="fill:url(#linearGradient7313-9);fill-opacity:1;display:inline"
         inkscape:connector-curvature="0" />
      <path
         inkscape:connector-curvature="0"
         id="path3868"
         d="m 62.125,24 c -0.474644,-0.01288 -0.848978,0.01515 -1,0.125 -0.18521,0.134718 -0.677403,0.875802 -1.09375,1.625 -0.416445,0.749139 -1.712607,3.044095 -2.875,5.09375 -2.479703,4.372453 -2.48827,4.420419 -2.1875,5.0625 0.242818,-0.616356 0.848588,-1.701601 2.1875,-4.0625 1.162393,-2.049655 2.458555,-4.344611 2.875,-5.09375 0.416347,-0.749198 0.90854,-1.490282 1.09375,-1.625 0.604088,-0.439396 4.550119,0.258653 5.90625,1.03125 1.376198,0.783871 3.272558,3.246957 4.03125,5.25 0.538458,1.421563 0.863112,3.564187 0.90625,5.34375 0.09847,-1.911513 -0.2606,-4.639195 -0.90625,-6.34375 -0.758692,-2.003043 -2.655052,-4.466129 -4.03125,-5.25 C 66.014152,24.576802 63.548933,24.038626 62.125,24 z m -1.28125,18.96875 c -0.297024,0.974394 -1.829169,3.700369 -3.28125,5.78125 -3.077322,4.410003 -6.980295,7.87113 -11.9375,10.5625 -2.427579,1.317812 -2.734152,1.281035 -4.5,-0.53125 -1.590597,-1.632457 -3.585645,-3.01487 -4.40625,-3.0625 -0.497223,-0.02886 -9.108022,2.831957 -11.1875,3.71875 -1.301855,0.555287 -1.43821,0.938189 -1.5,3.59375 -0.0159,0.683005 -0.01424,1.14437 0,1.53125 0.0027,-0.181158 -0.005,-0.315003 0,-0.53125 0.06179,-2.655561 0.198145,-3.038463 1.5,-3.59375 2.079478,-0.886793 10.690277,-3.747608 11.1875,-3.71875 0.820605,0.04763 2.815653,1.430043 4.40625,3.0625 1.765848,1.812285 2.072421,1.849062 4.5,0.53125 4.957205,-2.69137 8.860178,-6.152497 11.9375,-10.5625 1.596368,-2.287649 3.304581,-5.371411 3.34375,-6.03125 0.01693,-0.28512 0.0064,-0.527266 -0.0625,-0.75 z"
         style="opacity:0.75;fill:#ffffff;fill-opacity:1;display:inline" />
      <path
         inkscape:connector-curvature="0"
         id="path3877"
         d="m 54.96875,34.90625 c -0.206888,0.525153 -0.13837,0.70461 0,1 0.295063,0.629783 2.300916,2.65618 4.15625,4.1875 1.098518,0.90673 1.561148,1.365459 1.71875,1.875 0.02951,-0.09682 0.05896,-0.190361 0.0625,-0.25 0.05566,-0.937382 -0.202541,-1.321915 -1.78125,-2.625 -1.855334,-1.53132 -3.861187,-3.557717 -4.15625,-4.1875 z m 17,0.84375 c -0.02205,0.428051 -0.05382,0.831596 -0.125,1.15625 -0.227691,1.037229 -1.763982,5.557443 -2.5,7.34375 -1.022418,2.481463 -3.352468,6.457436 -5.03125,8.625 -2.006213,2.590305 -3.86381,4.484583 -7.46875,7.5625 -5.533894,4.724877 -10.984753,7.923615 -16.5625,9.6875 -2.570734,0.812906 -3.593625,0.962731 -5.6875,0.84375 -4.18166,-0.236272 -8.636334,-2.738658 -10.15625,-5.6875 -0.290079,-0.562819 -0.376963,-0.923255 -0.40625,-1.71875 -0.02352,1.567527 0.01976,1.968873 0.40625,2.71875 1.519916,2.948842 5.97459,5.451228 10.15625,5.6875 2.093875,0.118981 3.116766,-0.03084 5.6875,-0.84375 5.577747,-1.763885 11.028606,-4.962623 16.5625,-9.6875 3.60494,-3.077917 5.462537,-4.972195 7.46875,-7.5625 1.678782,-2.167564 4.008832,-6.143537 5.03125,-8.625 0.736018,-1.786307 2.272309,-6.306521 2.5,-7.34375 0.123959,-0.565347 0.145171,-1.324158 0.125,-2.15625 z"
         style="opacity:0.15;fill:#000000;fill-opacity:1;display:inline" />
    </g>
  </g>
</svg>
