<?xml version="1.0" encoding="UTF-8" standalone="no"?>
<!-- Created with Inkscape (http://www.inkscape.org/) -->

<svg
   xmlns:dc="http://purl.org/dc/elements/1.1/"
   xmlns:cc="http://creativecommons.org/ns#"
   xmlns:rdf="http://www.w3.org/1999/02/22-rdf-syntax-ns#"
   xmlns:svg="http://www.w3.org/2000/svg"
   xmlns="http://www.w3.org/2000/svg"
   xmlns:xlink="http://www.w3.org/1999/xlink"
   xmlns:sodipodi="http://sodipodi.sourceforge.net/DTD/sodipodi-0.dtd"
   xmlns:inkscape="http://www.inkscape.org/namespaces/inkscape"
   width="402.86401"
   height="158.864"
   id="svg2"
   version="1.1"
   inkscape:version="0.48.1 r9760"
   sodipodi:docname="faenqomod_home.svg"
   inkscape:export-filename="/home/francesco/Desktop/faenqomod_home.png"
   inkscape:export-xdpi="90"
   inkscape:export-ydpi="90">
  <defs
     id="defs4">
    <linearGradient
       id="linearGradient3939">
      <stop
         style="stop-color:#565656;stop-opacity:0;"
         offset="0"
         id="stop3941" />
      <stop
         id="stop3949"
         offset="0.15000001"
         style="stop-color:#4e4e4e;stop-opacity:1;" />
      <stop
         id="stop3947"
         offset="0.5"
         style="stop-color:#000000;stop-opacity:1;" />
      <stop
         style="stop-color:#4e4e4e;stop-opacity:1;"
         offset="0.85000002"
         id="stop3951" />
      <stop
         style="stop-color:#565656;stop-opacity:0;"
         offset="1"
         id="stop3943" />
    </linearGradient>
    <linearGradient
       id="linearGradient3862">
      <stop
         style="stop-color:#ffffff;stop-opacity:1;"
         offset="0"
         id="stop3864" />
      <stop
         style="stop-color:#ffffff;stop-opacity:0;"
         offset="1"
         id="stop3866" />
    </linearGradient>
    <linearGradient
       id="linearGradient3834">
      <stop
         style="stop-color:#000000;stop-opacity:1;"
         offset="0"
         id="stop3836" />
      <stop
         style="stop-color:#c6c6c6;stop-opacity:1;"
         offset="1"
         id="stop3838" />
    </linearGradient>
    <linearGradient
       inkscape:collect="always"
       xlink:href="#linearGradient3862"
       id="linearGradient3868"
       x1="215.1219"
       y1="306.00922"
       x2="215.203"
       y2="324.69702"
       gradientUnits="userSpaceOnUse"
       gradientTransform="matrix(1,0,0,0.91428544,-11.071124,71.277318)" />
    <filter
       inkscape:collect="always"
       id="filter3990"
       color-interpolation-filters="sRGB">
      <feGaussianBlur
         inkscape:collect="always"
         stdDeviation="2.3300003"
         id="feGaussianBlur3992" />
    </filter>
    <clipPath
       clipPathUnits="userSpaceOnUse"
       id="clipPath3994">
      <path
         style="opacity:0.8;fill:#000000;fill-opacity:1;stroke:none"
         d="m 148.07361,450.79599 c -2.493,0 -4.5,2.007 -4.5,4.5 l 0,71.50006 390,0 0,-71.50006 c 0,-2.493 -2.007,-4.5 -4.5,-4.5 z"
         id="path3996"
         inkscape:connector-curvature="0"
         sodipodi:nodetypes="ssccsss" />
    </clipPath>
    <clipPath
       clipPathUnits="userSpaceOnUse"
       id="clipPath3994-8">
      <path
         style="opacity:0.8;fill:#000000;fill-opacity:1;stroke:none"
         d="m 148.07361,450.79599 c -2.493,0 -4.5,2.007 -4.5,4.5 l 0,71.50006 390,0 0,-71.50006 c 0,-2.493 -2.007,-4.5 -4.5,-4.5 z"
         id="path3996-1"
         inkscape:connector-curvature="0"
         sodipodi:nodetypes="ssccsss" />
    </clipPath>
    <linearGradient
       inkscape:collect="always"
       xlink:href="#linearGradient3862-9"
       id="linearGradient3868-1"
       x1="215.1219"
       y1="306.00922"
       x2="215.203"
       y2="324.69702"
       gradientUnits="userSpaceOnUse"
       gradientTransform="matrix(1,0,0,0.91428544,-2.5711191,307.40237)" />
    <linearGradient
       id="linearGradient3862-9">
      <stop
         style="stop-color:#ffffff;stop-opacity:1;"
         offset="0"
         id="stop3864-3" />
      <stop
         style="stop-color:#ffffff;stop-opacity:0;"
         offset="1"
         id="stop3866-7" />
    </linearGradient>
    <linearGradient
       inkscape:collect="always"
       xlink:href="#linearGradient3862-9"
       id="linearGradient4155"
       gradientUnits="userSpaceOnUse"
       gradientTransform="matrix(1,0,0,0.91428544,-2.5711191,307.40237)"
       x1="215.1219"
       y1="306.00922"
       x2="215.203"
       y2="324.69702" />
    <linearGradient
       inkscape:collect="always"
       xlink:href="#linearGradient3862-9"
       id="linearGradient4160"
       gradientUnits="userSpaceOnUse"
       gradientTransform="matrix(1,0,0,0.91428544,-3.0711191,304.90237)"
       x1="215.1219"
       y1="306.00922"
       x2="215.203"
       y2="324.69702" />
    <filter
       inkscape:collect="always"
       id="filter4238"
       color-interpolation-filters="sRGB">
      <feGaussianBlur
         inkscape:collect="always"
         stdDeviation="2.68"
         id="feGaussianBlur4240" />
    </filter>
    <clipPath
       clipPathUnits="userSpaceOnUse"
       id="clipPath4246">
      <path
         style="fill:#0000ff;fill-opacity:1;stroke:none"
         d="m 152.57361,626.29596 0,174 422,0 0,-174 -422,0 z m 129.40625,14 163.1875,0 c 8.81359,0 15.90625,7.09266 15.90625,15.90625 l 0,19.09375 93,0 c 2.493,0 4.5,2.007 4.5,4.5 l 0,71.5 0,30.96875 c 0,2.2385 -1.79275,4.03125 -4.03125,4.03125 l -381.9375,0 c -2.2385,0 -4.03125,-1.79275 -4.03125,-4.03125 l 0,-30.96875 0,-71.5 c 0,-2.493 2.007,-4.5 4.5,-4.5 l 93,0 0,-19.09375 c 0,-8.81359 7.09266,-15.90625 15.90625,-15.90625 z"
         id="path4248"
         inkscape:connector-curvature="0" />
    </clipPath>
    <linearGradient
       inkscape:collect="always"
       xlink:href="#linearGradient3862"
       id="linearGradient4261"
       gradientUnits="userSpaceOnUse"
       gradientTransform="matrix(1,0,0,0.91428544,-11.071124,71.277318)"
       x1="215.1219"
       y1="306.00922"
       x2="215.203"
       y2="324.69702" />
    <linearGradient
       inkscape:collect="always"
       xlink:href="#linearGradient3862"
       id="linearGradient3028"
       gradientUnits="userSpaceOnUse"
       gradientTransform="matrix(1,0,0,0.91428544,-11.071124,71.277318)"
       x1="215.1219"
       y1="306.00922"
       x2="215.203"
       y2="324.69702" />
  </defs>
  <sodipodi:namedview
     id="base"
     pagecolor="#ffffff"
     bordercolor="#666666"
     borderopacity="1.0"
     inkscape:pageopacity="0.0"
     inkscape:pageshadow="2"
     inkscape:zoom="2"
     inkscape:cx="178.7653"
     inkscape:cy="89.62124"
     inkscape:document-units="px"
     inkscape:current-layer="layer1"
     showgrid="false"
     borderlayer="true"
     inkscape:showpageshadow="false"
     fit-margin-top="0"
     fit-margin-left="0"
     fit-margin-right="0"
     fit-margin-bottom="0"
     inkscape:window-width="1366"
     inkscape:window-height="710"
     inkscape:window-x="0"
     inkscape:window-y="25"
     inkscape:window-maximized="1"
     showguides="true"
     inkscape:guide-bbox="true" />
  <metadata
     id="metadata7">
    <rdf:RDF>
      <cc:Work
         rdf:about="">
        <dc:format>image/svg+xml</dc:format>
        <dc:type
           rdf:resource="http://purl.org/dc/dcmitype/StillImage" />
        <dc:title></dc:title>
      </cc:Work>
    </rdf:RDF>
  </metadata>
  <g
     inkscape:label="Livello 1"
     inkscape:groupmode="layer"
     id="layer1"
     transform="translate(-150.14161,-231.23898)">
    <path
       style="opacity:0.7;fill:#000000;fill-opacity:1;stroke:none;filter:url(#filter4238)"
       d="m 281.97986,638.29596 c -8.81359,0 -15.90625,7.09266 -15.90625,15.90625 l 0,19.09375 -93,0 c -2.493,0 -4.5,2.007 -4.5,4.5 l 0,71.5 0,30.96875 c 0,2.2385 1.79275,4.03125 4.03125,4.03125 l 381.9375,0 c 2.2385,0 4.03125,-1.79275 4.03125,-4.03125 l 0,-30.96875 0,-71.5 c 0,-2.493 -2.007,-4.5 -4.5,-4.5 l -93,0 0,-19.09375 c 0,-8.81359 -7.09266,-15.90625 -15.90625,-15.90625 l -163.1875,0 z"
       id="rect2996-0"
       inkscape:connector-curvature="0"
       clip-path="url(#clipPath4246)"
       transform="translate(-12.000001,-400.62498)" />
    <path
       style="opacity:0.5;fill:#0075ff;fill-opacity:1;stroke:none"
       d="m 161.07361,273.29596 c -2.493,0 -4.5,2.007 -4.5,4.5 l 0,71.50006 390,0 0,-71.50006 c 0,-2.493 -2.007,-4.5 -4.5,-4.5 z"
       id="rect2996"
       inkscape:connector-curvature="0"
       sodipodi:nodetypes="ssccsss" />
    <path
       style="opacity:0.85;fill:#000000;fill-opacity:1;stroke:none"
       d="m 156.57361,349.29602 0,30.96869 c 0,2.2385 1.79275,4.03125 4.03125,4.03125 l 381.9375,0 c 2.2385,0 4.03125,-1.79275 4.03125,-4.03125 l 0,-30.96869 z"
       id="rect3766"
       inkscape:connector-curvature="0"
       sodipodi:nodetypes="csssscc" />
    <path
       style="opacity:0.85;fill:#000000;fill-opacity:1;stroke:none"
       d="m 269.97986,238.29596 c -8.81359,0 -15.90625,7.09266 -15.90625,15.90625 l 0,19.09381 195,0 0,-19.09381 c 0,-8.81359 -7.09266,-15.90625 -15.90625,-15.90625 z"
       id="rect3766-6-1"
       inkscape:connector-curvature="0"
       sodipodi:nodetypes="ssccsss" />
    <g
       id="g3890"
       transform="matrix(0.02439024,0,0,0.33980582,351.80352,298.90414)"
       style="opacity:0.6">
      <rect
         ry="0"
         rx="0"
         transform="translate(156.57361,238.29596)"
         y="-89.999939"
         x="-207"
         height="103"
         width="41"
         id="rect3870"
         style="fill:#000000;fill-opacity:1;stroke:none" />
      <rect
         ry="0"
         rx="0"
         y="148.29602"
         x="-9.4263897"
         height="103"
         width="41"
         id="rect3870-3"
         style="fill:#ffffff;fill-opacity:1;stroke:none" />
    </g>
    <rect
       style="opacity:0.5;fill:url(#linearGradient3028);fill-opacity:1;stroke:none"
       id="rect3766-4"
       width="390"
       height="32"
       x="156.57361"
       y="350.29602"
       rx="0"
       ry="0" />
    <path
       style="opacity:0.9;fill:none;stroke:#ffffff;stroke-width:2;stroke-miterlimit:4;stroke-opacity:1;stroke-dasharray:none;filter:url(#filter3990)"
       d="m 148.07361,450.79599 c -2.493,0 -4.5,2.007 -4.5,4.5 l 0,71.50006 390,0 0,-71.50006 c 0,-2.493 -2.007,-4.5 -4.5,-4.5 z"
       id="rect2996-9"
       inkscape:connector-curvature="0"
       sodipodi:nodetypes="ssccsss"
       clip-path="url(#clipPath3994)"
       transform="translate(13,-177.50003)" />
    <path
       style="fill:none;stroke:#ffffff;stroke-width:2.5;stroke-miterlimit:4;stroke-opacity:1;stroke-dasharray:none"
       d="m 449.07361,273.29602 0,-19.09381 c 0,-8.81359 -7.09266,-15.90625 -15.90625,-15.90625 l -163.1875,0 c -8.81359,0 -15.90625,7.09266 -15.90625,15.90625 l 0,19.09381"
       id="rect3766-6-1-3"
       inkscape:connector-curvature="0"
       sodipodi:nodetypes="cssssc" />
  </g>
</svg>
