<?xml version="1.0" encoding="UTF-8" standalone="no"?>
<!-- Created with Inkscape (http://www.inkscape.org/) -->

<svg
   xmlns:dc="http://purl.org/dc/elements/1.1/"
   xmlns:cc="http://creativecommons.org/ns#"
   xmlns:rdf="http://www.w3.org/1999/02/22-rdf-syntax-ns#"
   xmlns:svg="http://www.w3.org/2000/svg"
   xmlns="http://www.w3.org/2000/svg"
   xmlns:xlink="http://www.w3.org/1999/xlink"
   xmlns:sodipodi="http://sodipodi.sourceforge.net/DTD/sodipodi-0.dtd"
   xmlns:inkscape="http://www.inkscape.org/namespaces/inkscape"
   width="96"
   height="96"
   id="svg2408"
   sodipodi:version="0.32"
   inkscape:version="0.48.1 r9760"
   version="1.0"
   sodipodi:docname="phone.svg"
   inkscape:output_extension="org.inkscape.output.svg.inkscape"
   style="display:inline"
   inkscape:export-filename="/home/francesco/neo_freerunner/qtmoko/themes/faenqomod2/svg/faenqomod/phone.png"
   inkscape:export-xdpi="90"
   inkscape:export-ydpi="90">
  <defs
     id="defs2410">
    <linearGradient
       id="linearGradient3637">
      <stop
         style="stop-color:#f0f0f0;stop-opacity:1;"
         offset="0"
         id="stop3639" />
      <stop
         style="stop-color:#aaaaaa;stop-opacity:1;"
         offset="1"
         id="stop3641" />
    </linearGradient>
    <linearGradient
       id="ButtonShadow"
       gradientTransform="scale(1.0058652,0.994169)"
       x1="45.447727"
       y1="92.539597"
       x2="45.447727"
       y2="7.0165396"
       gradientUnits="userSpaceOnUse">
      <stop
         style="stop-color:#000000;stop-opacity:1;"
         offset="0"
         id="stop3750" />
      <stop
         style="stop-color:#000000;stop-opacity:0.58823532;"
         offset="1"
         id="stop3752" />
    </linearGradient>
    <linearGradient
       inkscape:collect="always"
       id="linearGradient3737">
      <stop
         style="stop-color:#ffffff;stop-opacity:1;"
         offset="0"
         id="stop3739" />
      <stop
         style="stop-color:#ffffff;stop-opacity:0;"
         offset="1"
         id="stop3741" />
    </linearGradient>
    <linearGradient
       id="linearGradient3700">
      <stop
         style="stop-color:#2276c5;stop-opacity:1;"
         offset="0"
         id="stop3702" />
      <stop
         style="stop-color:#68baf4;stop-opacity:1;"
         offset="1"
         id="stop3704" />
    </linearGradient>
    <linearGradient
       inkscape:collect="always"
       xlink:href="#linearGradient3737"
       id="linearGradient3188"
       gradientUnits="userSpaceOnUse"
       x1="36.357143"
       y1="6"
       x2="36.357143"
       y2="63.893143" />
    <linearGradient
       inkscape:collect="always"
       xlink:href="#linearGradient3737"
       id="linearGradient3613"
       x1="48"
       y1="20.220806"
       x2="48"
       y2="138.66119"
       gradientUnits="userSpaceOnUse" />
    <radialGradient
       inkscape:collect="always"
       xlink:href="#linearGradient3737"
       id="radialGradient3619"
       cx="48"
       cy="90.171875"
       fx="48"
       fy="90.171875"
       r="42"
       gradientTransform="matrix(1.1573129,0,0,0.99590774,-7.5510206,0.19713193)"
       gradientUnits="userSpaceOnUse" />
    <clipPath
       clipPathUnits="userSpaceOnUse"
       id="clipPath3613">
      <rect
         ry="6"
         rx="6"
         y="6"
         x="6"
         height="84"
         width="84"
         id="rect3615"
         style="fill:#ffffff;fill-opacity:1;fill-rule:nonzero;stroke:none" />
    </clipPath>
    <linearGradient
       inkscape:collect="always"
       xlink:href="#linearGradient3700"
       id="linearGradient2843"
       gradientUnits="userSpaceOnUse"
       x1="48"
       y1="90"
       x2="48"
       y2="5.9877172"
       gradientTransform="translate(0,100)" />
    <clipPath
       clipPathUnits="userSpaceOnUse"
       id="clipPath3625">
      <path
         style="fill:#ffffff;fill-opacity:1;stroke:none"
         d="M 0,0 0,96 96,96 96,0 0,0 z m 12,6 72,0 c 3.324,0 6,2.676 6,6 l 0,72 c 0,3.324 -2.676,6 -6,6 L 12,90 C 8.676,90 6,87.324 6,84 L 6,12 C 6,8.676 8.676,6 12,6 z"
         id="path3627"
         inkscape:connector-curvature="0" />
    </clipPath>
    <linearGradient
       inkscape:collect="always"
       xlink:href="#linearGradient3637"
       id="linearGradient3643"
       x1="44.512066"
       y1="6"
       x2="44.512066"
       y2="90.015434"
       gradientUnits="userSpaceOnUse" />
    <clipPath
       clipPathUnits="userSpaceOnUse"
       id="clipPath3649">
      <rect
         style="fill:#ffffff;fill-opacity:1;fill-rule:nonzero;stroke:none"
         id="rect3651"
         width="76"
         height="76"
         x="10"
         y="10"
         rx="4"
         ry="4" />
    </clipPath>
    <linearGradient
       id="ButtonShadow-0"
       gradientTransform="matrix(1.0058652,0,0,0.994169,100,0)"
       x1="45.447727"
       y1="92.539597"
       x2="45.447727"
       y2="7.0165396"
       gradientUnits="userSpaceOnUse">
      <stop
         style="stop-color:#000000;stop-opacity:1;"
         offset="0"
         id="stop3750-8" />
      <stop
         style="stop-color:#000000;stop-opacity:0.58823532;"
         offset="1"
         id="stop3752-5" />
    </linearGradient>
    <linearGradient
       inkscape:collect="always"
       xlink:href="#ButtonShadow-0"
       id="linearGradient3780"
       gradientUnits="userSpaceOnUse"
       gradientTransform="matrix(1.0238095,0,0,-1.0119048,-1.1428571,98.071429)"
       x1="32.251034"
       y1="6.1317081"
       x2="32.251034"
       y2="90.238609" />
    <linearGradient
       inkscape:collect="always"
       xlink:href="#ButtonShadow-0"
       id="linearGradient3772"
       gradientUnits="userSpaceOnUse"
       gradientTransform="matrix(1.0238095,0,0,-1.0119048,-1.1428571,98.071429)"
       x1="32.251034"
       y1="6.1317081"
       x2="32.251034"
       y2="90.238609" />
    <linearGradient
       inkscape:collect="always"
       xlink:href="#ButtonShadow-0"
       id="linearGradient3725"
       gradientUnits="userSpaceOnUse"
       gradientTransform="matrix(1.0238095,0,0,-1.0119048,-1.1428571,98.071429)"
       x1="32.251034"
       y1="6.1317081"
       x2="32.251034"
       y2="90.238609" />
    <linearGradient
       inkscape:collect="always"
       xlink:href="#ButtonShadow-0"
       id="linearGradient3721"
       gradientUnits="userSpaceOnUse"
       gradientTransform="matrix(1,0,0,-1,0,97)"
       x1="32.251034"
       y1="6.1317081"
       x2="32.251034"
       y2="90.238609" />
    <linearGradient
       y2="90.238609"
       x2="32.251034"
       y1="6.1317081"
       x1="32.251034"
       gradientTransform="matrix(1.0238095,0,0,-1.0119048,-1.1428571,98.071429)"
       gradientUnits="userSpaceOnUse"
       id="linearGradient3199"
       xlink:href="#ButtonShadow-0"
       inkscape:collect="always" />
    <linearGradient
       inkscape:collect="always"
       xlink:href="#linearGradient3737-3"
       id="linearGradient3188-8"
       gradientUnits="userSpaceOnUse"
       x1="36.357143"
       y1="6"
       x2="36.357143"
       y2="63.893143" />
    <linearGradient
       inkscape:collect="always"
       id="linearGradient3737-3">
      <stop
         style="stop-color:#ffffff;stop-opacity:1;"
         offset="0"
         id="stop3739-6" />
      <stop
         style="stop-color:#ffffff;stop-opacity:0;"
         offset="1"
         id="stop3741-1" />
    </linearGradient>
    <radialGradient
       inkscape:collect="always"
       xlink:href="#linearGradient3737-3"
       id="radialGradient3619-3"
       cx="48"
       cy="90.171875"
       fx="48"
       fy="90.171875"
       r="42"
       gradientTransform="matrix(1.1573129,0,0,0.99590774,-7.551021,0.1971319)"
       gradientUnits="userSpaceOnUse" />
    <linearGradient
       inkscape:collect="always"
       xlink:href="#linearGradient3637"
       id="linearGradient3905"
       x1="104"
       y1="8"
       x2="120"
       y2="8"
       gradientUnits="userSpaceOnUse"
       gradientTransform="translate(-104,104)" />
    <linearGradient
       inkscape:collect="always"
       xlink:href="#linearGradient3183-0"
       id="linearGradient3913"
       gradientUnits="userSpaceOnUse"
       gradientTransform="translate(-144,104)"
       x1="104"
       y1="8"
       x2="120"
       y2="8" />
    <linearGradient
       y2="11.015625"
       x2="19"
       y1="11.015625"
       x1="11"
       gradientTransform="matrix(0,-3.0000004,2.9652505,0,33.335916,111.00001)"
       gradientUnits="userSpaceOnUse"
       id="linearGradient2927-4"
       xlink:href="#linearGradient3183-0"
       inkscape:collect="always" />
    <linearGradient
       id="linearGradient3183-0">
      <stop
         style="stop-color:#c80000;stop-opacity:1;"
         offset="0"
         id="stop3185-9" />
      <stop
         style="stop-color:#f3604d;stop-opacity:1;"
         offset="1"
         id="stop3187-6" />
    </linearGradient>
    <linearGradient
       y2="349.2926"
       x2="627.67029"
       y1="347.86285"
       x1="652.021"
       gradientTransform="matrix(0.03851176,-0.65608659,0.65590557,0.03850112,-241.27566,417.35789)"
       gradientUnits="userSpaceOnUse"
       id="linearGradient4343"
       xlink:href="#StandardGradient"
       inkscape:collect="always" />
    <linearGradient
       id="StandardGradient"
       gradientTransform="scale(1.1310246,0.8841541)"
       x1="11.162445"
       y1="5.6551228"
       x2="11.162445"
       y2="18.097509"
       gradientUnits="userSpaceOnUse">
      <stop
         style="stop-color:#000000;stop-opacity:0.86274511;"
         offset="0"
         id="stop3280" />
      <stop
         style="stop-color:#000000;stop-opacity:0.47058824;"
         offset="1"
         id="stop3282" />
    </linearGradient>
    <linearGradient
       y2="349.2926"
       x2="627.67029"
       y1="347.86285"
       x1="652.021"
       gradientTransform="matrix(0.11586665,-1.9518366,1.9733605,0.1145396,-711.10468,1256.8145)"
       gradientUnits="userSpaceOnUse"
       id="linearGradient7313"
       xlink:href="#linearGradient3637"
       inkscape:collect="always" />
    <linearGradient
       inkscape:collect="always"
       xlink:href="#ButtonShadow-0-2"
       id="linearGradient3464"
       gradientUnits="userSpaceOnUse"
       gradientTransform="matrix(1.4234636,0,0,-1.4223617,-4.3262545,100.27336)"
       x1="32.251034"
       y1="6.1317081"
       x2="32.251034"
       y2="90.238609" />
    <linearGradient
       id="ButtonShadow-0-2"
       gradientTransform="matrix(1.0058652,0,0,0.994169,100,0)"
       x1="45.447727"
       y1="92.539597"
       x2="45.447727"
       y2="7.0165396"
       gradientUnits="userSpaceOnUse">
      <stop
         style="stop-color:#000000;stop-opacity:1;"
         offset="0"
         id="stop3750-8-0" />
      <stop
         style="stop-color:#000000;stop-opacity:0.58823532;"
         offset="1"
         id="stop3752-5-6" />
    </linearGradient>
    <linearGradient
       inkscape:collect="always"
       xlink:href="#ButtonShadow-0-2"
       id="linearGradient3461"
       gradientUnits="userSpaceOnUse"
       gradientTransform="matrix(1.4234636,0,0,-1.4223617,-4.3262545,100.27336)"
       x1="32.251034"
       y1="6.1317081"
       x2="32.251034"
       y2="90.238609" />
    <linearGradient
       id="linearGradient3449"
       gradientTransform="matrix(1.0058652,0,0,0.994169,100,0)"
       x1="45.447727"
       y1="92.539597"
       x2="45.447727"
       y2="7.0165396"
       gradientUnits="userSpaceOnUse">
      <stop
         style="stop-color:#000000;stop-opacity:1;"
         offset="0"
         id="stop3451" />
      <stop
         style="stop-color:#000000;stop-opacity:0.58823532;"
         offset="1"
         id="stop3453" />
    </linearGradient>
    <linearGradient
       inkscape:collect="always"
       xlink:href="#ButtonShadow-0-2"
       id="linearGradient3458"
       gradientUnits="userSpaceOnUse"
       gradientTransform="matrix(1.4234636,0,0,-1.4223617,-4.3262545,100.27336)"
       x1="32.251034"
       y1="6.1317081"
       x2="32.251034"
       y2="90.238609" />
    <linearGradient
       id="linearGradient3456"
       gradientTransform="matrix(1.0058652,0,0,0.994169,100,0)"
       x1="45.447727"
       y1="92.539597"
       x2="45.447727"
       y2="7.0165396"
       gradientUnits="userSpaceOnUse">
      <stop
         style="stop-color:#000000;stop-opacity:1;"
         offset="0"
         id="stop3458" />
      <stop
         style="stop-color:#000000;stop-opacity:0.58823532;"
         offset="1"
         id="stop3460" />
    </linearGradient>
    <linearGradient
       inkscape:collect="always"
       xlink:href="#ButtonShadow-0-2"
       id="linearGradient3455"
       gradientUnits="userSpaceOnUse"
       gradientTransform="matrix(1.4234636,0,0,-1.4223617,-4.3262545,100.27336)"
       x1="32.251034"
       y1="6.1317081"
       x2="32.251034"
       y2="90.238609" />
    <linearGradient
       id="linearGradient3463"
       gradientTransform="matrix(1.0058652,0,0,0.994169,100,0)"
       x1="45.447727"
       y1="92.539597"
       x2="45.447727"
       y2="7.0165396"
       gradientUnits="userSpaceOnUse">
      <stop
         style="stop-color:#000000;stop-opacity:1;"
         offset="0"
         id="stop3465" />
      <stop
         style="stop-color:#000000;stop-opacity:0.58823532;"
         offset="1"
         id="stop3467" />
    </linearGradient>
    <linearGradient
       inkscape:collect="always"
       xlink:href="#ButtonShadow-0-2"
       id="linearGradient3452"
       gradientUnits="userSpaceOnUse"
       gradientTransform="matrix(1.3903598,0,0,-1.405628,-2.7372719,98.767332)"
       x1="32.251034"
       y1="6.1317081"
       x2="32.251034"
       y2="90.238609" />
    <linearGradient
       id="linearGradient3470"
       gradientTransform="matrix(1.0058652,0,0,0.994169,100,0)"
       x1="45.447727"
       y1="92.539597"
       x2="45.447727"
       y2="7.0165396"
       gradientUnits="userSpaceOnUse">
      <stop
         style="stop-color:#000000;stop-opacity:1;"
         offset="0"
         id="stop3472" />
      <stop
         style="stop-color:#000000;stop-opacity:0.58823532;"
         offset="1"
         id="stop3474" />
    </linearGradient>
    <linearGradient
       inkscape:collect="always"
       xlink:href="#linearGradient3737-3-8"
       id="linearGradient3448"
       gradientUnits="userSpaceOnUse"
       x1="36.357143"
       y1="6"
       x2="36.357143"
       y2="63.893143"
       gradientTransform="matrix(1.3903598,0,0,1.405628,-2.7372719,-37.578584)" />
    <linearGradient
       inkscape:collect="always"
       id="linearGradient3737-3-8">
      <stop
         style="stop-color:#ffffff;stop-opacity:1;"
         offset="0"
         id="stop3739-6-9" />
      <stop
         style="stop-color:#ffffff;stop-opacity:0;"
         offset="1"
         id="stop3741-1-2" />
    </linearGradient>
    <radialGradient
       inkscape:collect="always"
       xlink:href="#linearGradient3737-3-8"
       id="radialGradient3445"
       gradientUnits="userSpaceOnUse"
       gradientTransform="matrix(1.6090813,0,0,1.3998758,-13.235908,-37.30149)"
       cx="48"
       cy="90.171875"
       fx="48"
       fy="90.171875"
       r="42" />
    <radialGradient
       r="42"
       fy="90.171875"
       fx="48"
       cy="90.171875"
       cx="48"
       gradientTransform="matrix(1.6090813,0,0,1.3998758,-13.235908,-37.30149)"
       gradientUnits="userSpaceOnUse"
       id="radialGradient3496"
       xlink:href="#linearGradient3737-3-8"
       inkscape:collect="always" />
  </defs>
  <sodipodi:namedview
     id="base"
     pagecolor="#ffffff"
     bordercolor="#666666"
     borderopacity="1.0"
     inkscape:pageopacity="0.0"
     inkscape:pageshadow="2"
     inkscape:zoom="3.0386365"
     inkscape:cx="0.72284607"
     inkscape:cy="62.132936"
     inkscape:document-units="px"
     inkscape:current-layer="layer6"
     showgrid="true"
     showborder="true"
     inkscape:showpageshadow="false"
     inkscape:window-width="1366"
     inkscape:window-height="714"
     inkscape:window-x="0"
     inkscape:window-y="26"
     inkscape:window-maximized="1"
     inkscape:snap-global="true">
    <inkscape:grid
       type="xygrid"
       id="grid3732"
       visible="true"
       enabled="true"
       empspacing="5"
       snapvisiblegridlinesonly="true" />
  </sodipodi:namedview>
  <metadata
     id="metadata2413">
    <rdf:RDF>
      <cc:Work
         rdf:about="">
        <dc:format>image/svg+xml</dc:format>
        <dc:type
           rdf:resource="http://purl.org/dc/dcmitype/StillImage" />
        <dc:title />
      </cc:Work>
    </rdf:RDF>
  </metadata>
  <g
     inkscape:groupmode="layer"
     id="layer3"
     inkscape:label="Shadow" />
  <g
     inkscape:groupmode="layer"
     id="layer4"
     inkscape:label="Button"
     style="display:inline" />
  <g
     inkscape:groupmode="layer"
     id="layer6"
     inkscape:label="Symbol"
     style="display:inline">
    <g
       transform="matrix(0.71874999,0,0,0.71874999,2.000001,24.999999)"
       style="display:inline"
       id="g3495">
      <path
         inkscape:connector-curvature="0"
         id="path3786-6"
         d="m 13.947046,-31.999998 c -7.6623986,0 -13.94704704375,6.353663 -13.94704704375,14.100206 l 0,99.799588 c 0,7.746542 6.28464834375,14.100206 13.94704704375,14.100206 l 100.105904,0 c 7.6624,0 13.94705,-6.353664 13.94705,-14.100206 l 0,-99.799588 c 0,-7.746543 -6.28465,-14.100206 -13.94705,-14.100206 l -100.105904,0 z m 0,2.855182 100.105904,0 c 4.62156,0 8.34216,3.761461 8.34216,8.433768 l 0,101.205216 c 0,4.672307 -3.7206,8.433768 -8.34216,8.433768 l -100.105904,0 c -4.6215563,0 -8.3421591,-3.761461 -8.3421591,-8.433768 l 0,-101.205216 c 0,-4.672307 3.7206028,-8.433768 8.3421591,-8.433768 z"
         style="opacity:0.07999998;fill:url(#linearGradient3464);fill-opacity:1;fill-rule:nonzero;stroke:none;display:inline" />
      <path
         inkscape:connector-curvature="0"
         id="path3778-6"
         d="m 13.947046,-30.59437 c -6.9123588,0 -12.5566872,5.706312 -12.5566872,12.694578 l 0,99.799588 c 0,6.988267 5.6443282,12.694578 12.5566872,12.694578 l 100.105904,0 c 6.91236,0 12.55669,-5.706311 12.55669,-12.694578 l 0,-99.799588 c 0,-6.988267 -5.64433,-12.694578 -12.55669,-12.694578 l -100.105904,0 z m 0,1.449554 100.105904,0 c 4.62156,0 8.34216,3.761461 8.34216,8.433768 l 0,101.205216 c 0,4.672307 -3.7206,8.433768 -8.34216,8.433768 l -100.105904,0 c -4.6215563,0 -8.3421591,-3.761461 -8.3421591,-8.433768 l 0,-101.205216 c 0,-4.672307 3.7206028,-8.433768 8.3421591,-8.433768 z"
         style="opacity:0.1;fill:url(#linearGradient3461);fill-opacity:1;fill-rule:nonzero;stroke:none;display:inline" />
      <path
         inkscape:connector-curvature="0"
         id="path3770-4"
         d="m 12.817378,-29.10089 c -5.5996988,0.577223 -9.9932107,5.390847 -9.9932107,11.201098 l 0,99.799588 c 0,6.197601 4.9925971,11.245024 11.1228787,11.245024 l 100.105904,0 c 6.13028,0 11.12288,-5.047423 11.12288,-11.245024 l 0,-99.799588 c 0,-5.899508 -4.53114,-10.74749 -10.2539,-11.201098 4.2168,0.430357 7.47318,4.009554 7.47318,8.389842 l 0,101.205216 c 0,4.672307 -3.7206,8.433768 -8.34216,8.433768 l -100.105904,0 c -4.6215563,0 -8.3421591,-3.761461 -8.3421591,-8.433768 l 0,-101.205216 c 0,-4.380288 3.2563812,-7.959485 7.4731841,-8.389842 -0.08658,0.0069 -0.174671,-0.0089 -0.260693,0 z"
         style="opacity:0.2;fill:url(#linearGradient3458);fill-opacity:1;fill-rule:nonzero;stroke:none;display:inline" />
      <path
         inkscape:connector-curvature="0"
         id="rect3723-9"
         d="m 6.2131693,-23.873711 c -1.2506135,1.655051 -1.9986422,3.721087 -1.9986422,5.973919 l 0,99.799588 c 0,5.451025 4.3407033,9.839396 9.7325189,9.839396 l 100.105904,0 c 5.39182,0 9.73252,-4.388371 9.73252,-9.839396 l 0,-99.799588 c 0,-2.252832 -0.74803,-4.318868 -1.99864,-5.973919 0.38835,0.975639 0.60828,2.043256 0.60828,3.162663 l 0,101.205216 c 0,4.672307 -3.7206,8.433768 -8.34216,8.433768 l -100.105904,0 c -4.6215563,0 -8.3421591,-3.761461 -8.3421591,-8.433768 l 0,-101.205216 c 0,-1.119407 0.2199321,-2.187024 0.6082824,-3.162663 z"
         style="opacity:0.3;fill:url(#linearGradient3455);fill-opacity:1;fill-rule:nonzero;stroke:none;display:inline" />
      <path
         inkscape:connector-curvature="0"
         id="rect3716-5"
         d="m 5.6048869,80.494168 0,1.405628 c 0,4.672307 3.7206028,8.433768 8.3421591,8.433768 l 100.105904,0 c 4.62156,0 8.34216,-3.761461 8.34216,-8.433768 l 0,-1.405628 c 0,4.672307 -3.7206,8.433768 -8.34216,8.433768 l -100.105904,0 c -4.6215563,0 -8.3421591,-3.761461 -8.3421591,-8.433768 z"
         style="opacity:0.45;fill:url(#linearGradient3452);fill-opacity:1;fill-rule:nonzero;stroke:none;display:inline" />
      <rect
         ry="8.347826"
         rx="8.347826"
         y="-29.144815"
         x="5.604887"
         height="118.07275"
         width="116.79022"
         id="rect2419-9-0"
         style="fill:#666666;fill-opacity:1;fill-rule:nonzero;stroke:none;display:inline" />
      <path
         inkscape:connector-curvature="0"
         id="rect3728-4-4"
         d="m 13.947046,-29.144816 c -4.6215563,0 -8.3421591,3.761461 -8.3421591,8.433768 l 0,2.811256 0,95.582704 0,2.811256 c 0,0.470493 0.057491,0.914642 0.1303462,1.361702 0.067711,0.415498 0.1349205,0.839041 0.2606925,1.229925 0.013737,0.0427 0.029047,0.0894 0.043449,0.131777 0.137458,0.404499 0.326568,0.769514 0.521385,1.142073 0.2010346,0.384449 0.4388199,0.752875 0.6951799,1.098147 0.2563599,0.345271 0.5196838,0.665525 0.8255261,0.966369 0.6116846,0.601688 1.3109842,1.144921 2.0855394,1.537406 0.387278,0.196242 0.797334,0.347115 1.216565,0.483184 -0.356213,-0.140874 -0.676703,-0.33211 -0.999321,-0.52711 -0.0103,-0.0062 -0.03318,0.0063 -0.04345,0 -0.0444,-0.02713 -0.08661,-0.05975 -0.130346,-0.08785 C 10.043061,87.721977 9.8892492,87.599951 9.7325176,87.478382 9.5848992,87.364807 9.4359804,87.251919 9.2980301,87.126975 9.0506435,86.90006 8.8149363,86.641488 8.6028502,86.380235 8.4532768,86.197145 8.2992041,86.007343 8.1683628,85.809199 8.13348,85.755251 8.114909,85.688498 8.0814653,85.633495 7.9914214,85.488671 7.9004022,85.346021 7.8207728,85.194237 7.680335,84.920552 7.5348109,84.609916 7.4297341,84.315719 c -0.011067,-0.03066 -0.032797,-0.057 -0.043449,-0.08785 -0.044248,-0.129247 -0.049781,-0.262615 -0.086898,-0.395332 -0.042173,-0.149866 -0.097867,-0.285387 -0.1303462,-0.439259 -0.1013275,-0.480039 -0.173795,-0.981417 -0.173795,-1.49348 l 0,-2.811256 0,-95.582704 0,-2.811256 c 0,-3.910243 3.0840291,-7.02814 6.9517991,-7.02814 l 2.780719,0 94.544466,0 2.78072,0 c 3.86777,0 6.9518,3.117897 6.9518,7.02814 l 0,2.811256 0,95.582704 0,2.811256 c 0,0.512063 -0.0725,1.013441 -0.17379,1.49348 -0.0614,0.290814 -0.12288,0.558959 -0.21725,0.834591 -0.0107,0.03085 -0.0324,0.05719 -0.0434,0.08785 -0.0872,0.244213 -0.1924,0.516497 -0.30414,0.74674 -0.0578,0.116386 -0.10989,0.238892 -0.17379,0.351407 -0.0759,0.136641 -0.17626,0.26475 -0.2607,0.395333 -0.13084,0.198144 -0.28491,0.387946 -0.43448,0.571036 -0.19907,0.245212 -0.42148,0.48775 -0.65173,0.702814 -0.0155,0.01434 -0.0278,0.02973 -0.0434,0.04393 -0.19241,0.176485 -0.39638,0.32953 -0.60829,0.483185 -0.14261,0.102821 -0.28407,0.215572 -0.43448,0.307481 -0.0103,0.0063 -0.0331,-0.0062 -0.0434,0 -0.32262,0.195 -0.64311,0.386236 -0.99932,0.52711 0.41923,-0.136064 0.82928,-0.286942 1.21656,-0.483184 0.77456,-0.392485 1.47386,-0.935718 2.08554,-1.537406 0.30584,-0.300844 0.56917,-0.621098 0.82553,-0.966369 0.25636,-0.345272 0.49414,-0.713698 0.69518,-1.098147 0.19481,-0.372559 0.38392,-0.737574 0.52138,-1.142073 0.0145,-0.04327 0.0297,-0.08819 0.0434,-0.131777 0.12577,-0.390884 0.19298,-0.814427 0.26069,-1.229925 0.0729,-0.44706 0.13035,-0.891209 0.13035,-1.361702 l 0,-2.811256 0,-95.582704 0,-2.811256 c 0,-4.672307 -3.7206,-8.433768 -8.34216,-8.433768 l -100.105905,0 z"
         style="opacity:0.01000001;fill:url(#linearGradient3448);fill-opacity:1;fill-rule:nonzero;stroke:none;display:inline" />
      <path
         inkscape:connector-curvature="0"
         style="opacity:0.15;fill:url(#radialGradient3496);fill-opacity:1;fill-rule:nonzero;stroke:none;display:inline"
         d="m 13.947046,88.927936 c -4.6215563,0 -8.3421591,-3.761461 -8.3421591,-8.433768 l 0,-2.811256 0,-95.582704 0,-2.811256 c 0,-0.470493 0.057491,-0.914642 0.1303462,-1.361702 0.067711,-0.415498 0.1349205,-0.839041 0.2606925,-1.229925 0.013737,-0.0427 0.029047,-0.0894 0.043449,-0.131777 0.137458,-0.404499 0.326568,-0.769514 0.521385,-1.142073 0.2010346,-0.384449 0.4388199,-0.752875 0.6951799,-1.098147 0.2563599,-0.345271 0.5196838,-0.665525 0.8255261,-0.966369 0.6116846,-0.601688 1.3109842,-1.144921 2.0855394,-1.537406 0.387278,-0.196242 0.797334,-0.347115 1.216565,-0.483184 -0.356213,0.140874 -0.676703,0.33211 -0.999321,0.52711 -0.0103,0.0062 -0.03318,-0.0063 -0.04345,0 -0.0444,0.02713 -0.08661,0.05975 -0.130346,0.08785 -0.167393,0.107812 -0.3212045,0.229838 -0.4779361,0.351407 -0.1476184,0.113575 -0.2965372,0.226463 -0.4344875,0.351407 -0.2473866,0.226915 -0.4830938,0.485487 -0.6951799,0.74674 -0.1495734,0.18309 -0.3036461,0.372892 -0.4344874,0.571036 -0.034883,0.05395 -0.053454,0.120701 -0.086898,0.175704 -0.090044,0.144824 -0.1810631,0.287474 -0.2606925,0.439258 -0.1404378,0.273685 -0.2859619,0.584321 -0.3910387,0.878518 -0.011067,0.03066 -0.032797,0.057 -0.043449,0.08785 -0.044248,0.129247 -0.049781,0.262615 -0.086898,0.395333 -0.042173,0.149865 -0.097867,0.285386 -0.1303462,0.439258 -0.1013275,0.480039 -0.173795,0.981417 -0.173795,1.49348 l 0,2.811256 0,95.582704 0,2.811256 c 0,3.910243 3.0840293,7.02814 6.9517993,7.02814 l 2.780719,0 94.544467,0 2.78072,0 c 3.86777,0 6.9518,-3.117897 6.9518,-7.02814 l 0,-2.811256 0,-95.582704 0,-2.811256 c 0,-0.512063 -0.0725,-1.013441 -0.17379,-1.49348 -0.0614,-0.290814 -0.12288,-0.558959 -0.21725,-0.834591 -0.0107,-0.03085 -0.0324,-0.0572 -0.0434,-0.08785 -0.0872,-0.244213 -0.1924,-0.516497 -0.30414,-0.74674 -0.0578,-0.116386 -0.10989,-0.238892 -0.17379,-0.351407 -0.0759,-0.136641 -0.17626,-0.26475 -0.2607,-0.395333 -0.13084,-0.198144 -0.28491,-0.387946 -0.43448,-0.571036 -0.19907,-0.245212 -0.42148,-0.48775 -0.65173,-0.702814 -0.0155,-0.01434 -0.0278,-0.02973 -0.0434,-0.04393 -0.19241,-0.176485 -0.39638,-0.32953 -0.60829,-0.483185 -0.14261,-0.102821 -0.28407,-0.215572 -0.43448,-0.307481 -0.0103,-0.0063 -0.0331,0.0062 -0.0434,0 -0.32262,-0.195 -0.64311,-0.386236 -0.99932,-0.52711 0.41923,0.136064 0.82928,0.286942 1.21656,0.483184 0.77456,0.392485 1.47386,0.935718 2.08554,1.537406 0.30584,0.300844 0.56917,0.621098 0.82553,0.966369 0.25636,0.345272 0.49414,0.713698 0.69518,1.098147 0.19481,0.372559 0.38392,0.737574 0.52138,1.142073 0.0145,0.04327 0.0297,0.08819 0.0434,0.131777 0.12577,0.390884 0.19298,0.814427 0.26069,1.229925 0.0729,0.44706 0.13035,0.891209 0.13035,1.361702 l 0,2.811256 0,95.582704 0,2.811256 c 0,4.672307 -3.7206,8.433768 -8.34216,8.433768 l -100.105906,0 z"
         id="path3615-6-8" />
    </g>
    <g
       id="g3075">
      <path
         d="m 62.1875,23 c -0.31453,-0.01039 -0.626109,0.02282 -0.9375,0.0625 -0.262958,0.03351 -0.820597,0.110955 -1.3125,0.46875 -0.297906,0.216691 -0.492644,0.473617 -0.5625,0.5625 -0.126237,0.160622 -0.228342,0.327823 -0.34375,0.5 -0.233845,0.348875 -0.513334,0.79288 -0.75,1.21875 -0.407643,0.733305 -1.653026,2.986742 -2.8125,5.03125 -1.239791,2.186119 -1.880198,3.295683 -2.25,4.15625 -0.173646,0.404092 -0.385212,0.893663 -0.375,1.5 0.01017,0.603826 0.227535,1.037369 0.3125,1.21875 0.226319,0.483057 0.526777,0.853223 0.8125,1.1875 0.312845,0.366008 0.691312,0.71918 1.09375,1.125 0.823518,0.83044 1.82803,1.749957 2.8125,2.5625 0.658262,0.543337 0.931341,0.865511 1,0.9375 -0.03357,0.0924 -0.05538,0.197182 -0.09375,0.28125 -0.169179,0.370709 -0.398399,0.853389 -0.6875,1.375 -0.591436,1.067101 -1.402308,2.357076 -2.15625,3.4375 -2.907169,4.166161 -6.532824,7.376447 -11.25,9.9375 -0.577208,0.313338 -0.998136,0.522384 -1.25,0.625 -0.09687,0.03947 0.02184,0.02436 -0.03125,0.03125 -0.164849,-0.13036 -0.428026,-0.385844 -0.84375,-0.8125 -0.892637,-0.916128 -1.899151,-1.740792 -2.8125,-2.375 -0.857804,-0.595639 -1.700327,-1.211255 -2.90625,-1.28125 -0.362805,-0.02106 -0.705893,0.053 -0.75,0.0625 -0.142991,0.03081 -0.250186,0.05179 -0.40625,0.09375 -0.320728,0.08624 -0.747855,0.231093 -1.21875,0.375 -0.946176,0.289154 -2.135325,0.681769 -3.375,1.09375 -2.493631,0.828708 -5.077488,1.723329 -6.3125,2.25 -0.82103,0.350199 -1.816366,0.932743 -2.28125,2.0625 -0.404249,0.982403 -0.437409,1.934305 -0.46875,3.28125 -0.02445,1.050626 -0.01713,1.743919 0.0625,2.40625 0.08704,0.723984 0.339143,1.287256 0.59375,1.78125 2.007628,3.895069 6.921939,6.50669 11.78125,6.78125 2.233467,0.126913 3.776556,-0.09607 6.4375,-0.9375 5.879925,-1.859445 11.533882,-5.20872 17.21875,-10.0625 3.654726,-3.120424 5.666068,-5.184348 7.75,-7.875 1.847585,-2.385514 4.143211,-6.300416 5.28125,-9.0625 0.403947,-0.980377 0.986286,-2.552528 1.5,-4.0625 0.510497,-1.500517 0.947179,-2.7837 1.125,-3.59375 0.552796,-2.521156 0.09141,-6.073616 -0.875,-8.625 C 72.435021,29.474646 71.689936,28.226068 70.84375,27.125 70.009652,26.039661 69.11974,25.088745 68.03125,24.46875 66.909283,23.829558 65.475677,23.487075 64.125,23.25 63.453942,23.132214 62.813072,23.020661 62.1875,23 z"
         id="path3896"
         style="opacity:0.1;fill:#000000;fill-opacity:1;display:inline"
         inkscape:original="M 62.15625 24 C 61.88334 23.990986 61.622834 23.999667 61.375 24.03125 C 61.127166 24.062833 60.86319 24.102307 60.53125 24.34375 C 60.305371 24.50805 60.258075 24.58919 60.15625 24.71875 C 60.054425 24.84831 59.952507 24.993995 59.84375 25.15625 C 59.626237 25.48076 59.377493 25.883133 59.15625 26.28125 C 58.746442 27.018449 57.474254 29.295222 56.3125 31.34375 C 55.072126 33.530898 54.44993 34.618855 54.125 35.375 C 53.962535 35.753073 53.837358 36.089218 53.84375 36.46875 C 53.850142 36.848282 53.984547 37.146087 54.0625 37.3125 C 54.23207 37.674431 54.436991 37.920361 54.71875 38.25 C 55.000509 38.579639 55.352371 38.942779 55.75 39.34375 C 56.545258 40.145693 57.542228 41.053242 58.5 41.84375 C 59.273002 42.481795 59.673875 42.889187 59.8125 43.09375 C 59.951125 43.298313 59.959516 43.285476 59.9375 43.65625 C 59.950114 43.443756 59.861719 43.836998 59.6875 44.21875 C 59.513281 44.600502 59.275748 45.102348 58.96875 45.65625 C 58.354754 46.764054 57.523676 48.078796 56.75 49.1875 C 53.757936 53.475322 49.992782 56.811646 45.15625 59.4375 C 43.961116 60.086279 43.421539 60.270272 43.25 60.25 C 43.078461 60.229728 42.709115 59.981872 41.84375 59.09375 C 41.001788 58.22963 40.047364 57.440819 39.1875 56.84375 C 38.327636 56.246681 37.695783 55.803082 36.78125 55.75 C 36.474185 55.732178 36.430666 55.755788 36.3125 55.78125 C 36.194334 55.806712 36.090582 55.833839 35.9375 55.875 C 35.631337 55.957322 35.211016 56.077862 34.75 56.21875 C 33.827969 56.500525 32.649168 56.899441 31.40625 57.3125 C 28.920413 58.138618 26.295682 59.045339 25.15625 59.53125 C 24.441585 59.83608 23.723875 60.290611 23.40625 61.0625 C 23.088625 61.834389 23.062511 62.656475 23.03125 64 C 23.006846 65.048606 22.995145 65.689749 23.0625 66.25 C 23.129855 66.810251 23.326409 67.26068 23.5625 67.71875 C 25.337529 71.162546 29.997844 73.681354 34.53125 73.9375 C 36.690025 74.060169 37.984573 73.887562 40.59375 73.0625 C 46.32201 71.251017 51.858901 67.977228 57.46875 63.1875 C 61.098388 60.088496 63.049652 58.10797 65.09375 55.46875 C 66.859419 53.189002 69.167958 49.251175 70.25 46.625 C 70.637534 45.684458 71.210164 44.1199 71.71875 42.625 C 72.227336 41.1301 72.663429 39.804083 72.8125 39.125 C 73.290655 36.94426 72.85633 33.405765 71.96875 31.0625 C 71.540485 29.931827 70.85415 28.748855 70.0625 27.71875 C 69.27085 26.688645 68.435812 25.827731 67.53125 25.3125 C 66.607013 24.785956 65.269064 24.446985 63.96875 24.21875 C 63.318593 24.104633 62.702071 24.018027 62.15625 24 z "
         inkscape:radius="0.98728496"
         sodipodi:type="inkscape:offset" />
      <path
         d="m 62.15625,24 c -0.27291,-0.009 -0.533416,-3.33e-4 -0.78125,0.03125 -0.247834,0.03158 -0.51181,0.07106 -0.84375,0.3125 -0.225879,0.1643 -0.273175,0.24544 -0.375,0.375 -0.101825,0.12956 -0.203743,0.275245 -0.3125,0.4375 -0.217513,0.32451 -0.466257,0.726883 -0.6875,1.125 -0.409808,0.737199 -1.681996,3.013972 -2.84375,5.0625 -1.240374,2.187148 -1.86257,3.275105 -2.1875,4.03125 -0.162465,0.378073 -0.287642,0.714218 -0.28125,1.09375 0.0064,0.379532 0.140797,0.677337 0.21875,0.84375 0.16957,0.361931 0.374491,0.607861 0.65625,0.9375 0.281759,0.329639 0.633621,0.692779 1.03125,1.09375 0.795258,0.801943 1.792228,1.709492 2.75,2.5 0.773002,0.638045 1.173875,1.045437 1.3125,1.25 0.138625,0.204563 0.147016,0.191726 0.125,0.5625 0.01261,-0.212494 -0.07578,0.180748 -0.25,0.5625 -0.174219,0.381752 -0.411752,0.883598 -0.71875,1.4375 -0.613996,1.107804 -1.445074,2.422546 -2.21875,3.53125 -2.992064,4.287822 -6.757218,7.624146 -11.59375,10.25 -1.195134,0.648779 -1.734711,0.832772 -1.90625,0.8125 -0.171539,-0.02027 -0.540885,-0.268128 -1.40625,-1.15625 -0.841962,-0.86412 -1.796386,-1.652931 -2.65625,-2.25 -0.859864,-0.597069 -1.491717,-1.040668 -2.40625,-1.09375 -0.307065,-0.01782 -0.350584,0.0058 -0.46875,0.03125 -0.118166,0.02546 -0.221918,0.05259 -0.375,0.09375 -0.306163,0.08232 -0.726484,0.202862 -1.1875,0.34375 -0.922031,0.281775 -2.100832,0.680691 -3.34375,1.09375 -2.485837,0.826118 -5.110568,1.732839 -6.25,2.21875 -0.714665,0.30483 -1.432375,0.759361 -1.75,1.53125 -0.317625,0.771889 -0.343739,1.593975 -0.375,2.9375 -0.0244,1.048606 -0.0361,1.689749 0.03125,2.25 0.06735,0.560251 0.263909,1.01068 0.5,1.46875 1.775029,3.443796 6.435344,5.962604 10.96875,6.21875 2.158775,0.122669 3.453323,-0.04994 6.0625,-0.875 5.72826,-1.811483 11.265151,-5.085272 16.875,-9.875 3.629638,-3.099004 5.580902,-5.07953 7.625,-7.71875 1.765669,-2.279748 4.074208,-6.217575 5.15625,-8.84375 0.387534,-0.940542 0.960164,-2.5051 1.46875,-4 0.508586,-1.4949 0.944679,-2.820917 1.09375,-3.5 0.478155,-2.18074 0.04383,-5.719235 -0.84375,-8.0625 C 71.540485,29.931827 70.85415,28.748855 70.0625,27.71875 69.27085,26.688645 68.435812,25.827731 67.53125,25.3125 66.607013,24.785956 65.269064,24.446985 63.96875,24.21875 63.318593,24.104633 62.702071,24.018027 62.15625,24 z"
         id="path3892"
         style="opacity:0.15;fill:#000000;fill-opacity:1;display:inline"
         inkscape:original="M 61.125 25.125 C 60.93979 25.259718 60.447597 26.000802 60.03125 26.75 C 59.614805 27.499139 58.318643 29.794095 57.15625 31.84375 C 54.676547 36.216203 54.66798 36.264169 54.96875 36.90625 C 55.263813 37.536033 57.269666 39.56243 59.125 41.09375 C 60.703709 42.396835 60.96191 42.781368 60.90625 43.71875 C 60.867081 44.378589 59.158868 47.462351 57.5625 49.75 C 54.485178 54.160003 50.582205 57.62113 45.625 60.3125 C 43.197421 61.630312 42.890848 61.593535 41.125 59.78125 C 39.534403 58.148793 37.539355 56.76638 36.71875 56.71875 C 36.221527 56.689892 27.610728 59.550707 25.53125 60.4375 C 24.229395 60.992787 24.09304 61.375689 24.03125 64.03125 C 23.98267 66.118636 24.006344 66.44471 24.4375 67.28125 C 25.957416 70.230092 30.41209 72.732478 34.59375 72.96875 C 36.687625 73.087731 37.710516 72.937906 40.28125 72.125 C 45.858997 70.361115 51.309856 67.162377 56.84375 62.4375 C 60.44869 59.359583 62.306287 57.465305 64.3125 54.875 C 65.991282 52.707436 68.321332 48.731463 69.34375 46.25 C 70.079768 44.463693 71.616059 39.943479 71.84375 38.90625 C 72.232817 37.131816 71.852732 33.492511 71.0625 31.40625 C 70.303808 29.403207 68.407448 26.940121 67.03125 26.15625 C 65.675119 25.383653 61.729088 24.685604 61.125 25.125 z "
         inkscape:radius="0.98498666"
         sodipodi:type="inkscape:offset" />
      <path
         inkscape:connector-curvature="0"
         style="opacity:0.3;fill:#000000;fill-opacity:1;display:inline"
         d="m 71.845479,38.905446 c -0.227691,1.037229 -1.773783,5.569235 -2.509801,7.355542 -1.022418,2.481463 -3.330084,6.453138 -5.008866,8.620702 -2.006213,2.590305 -3.884901,4.488075 -7.489841,7.565992 -5.533894,4.724877 -10.985191,7.908194 -16.562938,9.672079 -2.570734,0.812906 -3.581257,0.963253 -5.675132,0.844272 -4.18166,-0.236272 -8.636754,-2.727546 -10.15667,-5.676388 -0.431156,-0.83654 -0.475126,-1.17258 -0.426546,-3.259966 0.06179,-2.655561 0.226866,-3.043636 1.528721,-3.598923 2.079478,-0.886793 10.68477,-3.751932 11.181993,-3.723074 0.820605,0.04763 2.813312,1.436118 4.403909,3.068575 1.765848,1.812285 2.05486,1.846345 4.482439,0.528533 4.957205,-2.69137 8.87596,-6.154974 11.953282,-10.564977 1.596368,-2.287649 3.305834,-5.36844 3.345003,-6.028279 0.05566,-0.937382 -0.198027,-1.31029 -1.776736,-2.613375 -1.855334,-1.53132 -3.871839,-3.557931 -4.166902,-4.187714 -0.30077,-0.642081 -0.275467,-0.700245 2.204236,-5.072698 1.162393,-2.049655 2.454089,-4.339615 2.870534,-5.088754 0.416347,-0.749198 0.908536,-1.472348 1.093746,-1.607066 0.604088,-0.439396 4.534806,0.228269 5.890937,1.000866 1.376198,0.783871 3.281662,3.271269 4.040354,5.274312 0.790232,2.086261 1.167332,5.716014 0.778265,7.490448 z"
         id="path3886"
         sodipodi:nodetypes="cssssssssssssssssssssc"
         inkscape:export-filename="/home/matthieu/Interne/Communication/Site Web/Version 3.0/Accueil temporaire/images/phone_square.png"
         inkscape:export-xdpi="90"
         inkscape:export-ydpi="90" />
      <path
         inkscape:export-ydpi="90"
         inkscape:export-xdpi="90"
         inkscape:export-filename="/home/matthieu/Interne/Communication/Site Web/Version 3.0/Accueil temporaire/images/phone_square.png"
         sodipodi:nodetypes="cssssssssssssssssssssc"
         id="path4609"
         d="m 71.845479,37.905446 c -0.227691,1.037229 -1.773783,5.569235 -2.509801,7.355542 -1.022418,2.481463 -3.330084,6.453138 -5.008866,8.620702 -2.006213,2.590305 -3.884901,4.488075 -7.489841,7.565992 -5.533894,4.724877 -10.985191,7.908194 -16.562938,9.672079 -2.570734,0.812906 -3.581257,0.963253 -5.675132,0.844272 -4.18166,-0.236272 -8.636754,-2.727546 -10.15667,-5.676388 -0.431156,-0.83654 -0.475126,-1.17258 -0.426546,-3.259966 0.06179,-2.655561 0.226866,-3.043636 1.528721,-3.598923 2.079478,-0.886793 10.68477,-3.751932 11.181993,-3.723074 0.820605,0.04763 2.813312,1.436118 4.403909,3.068575 1.765848,1.812285 2.05486,1.846345 4.482439,0.528533 4.957205,-2.69137 8.87596,-6.154974 11.953282,-10.564977 1.596368,-2.287649 3.305834,-5.36844 3.345003,-6.028279 0.05566,-0.937382 -0.198027,-1.31029 -1.776736,-2.613375 -1.855334,-1.53132 -3.871839,-3.557931 -4.166902,-4.187714 -0.30077,-0.642081 -0.275467,-0.700245 2.204236,-5.072698 1.162393,-2.049655 2.454089,-4.339615 2.870534,-5.088754 0.416347,-0.749198 0.908536,-1.472348 1.093746,-1.607066 0.604088,-0.439396 4.534806,0.228269 5.890937,1.000866 1.376198,0.783871 3.281662,3.271269 4.040354,5.274312 0.790232,2.086261 1.167332,5.716014 0.778265,7.490448 z"
         style="fill:url(#linearGradient7313);fill-opacity:1;display:inline"
         inkscape:connector-curvature="0" />
      <path
         inkscape:connector-curvature="0"
         id="path3868"
         d="m 62.125,24 c -0.474644,-0.01288 -0.848978,0.01515 -1,0.125 -0.18521,0.134718 -0.677403,0.875802 -1.09375,1.625 -0.416445,0.749139 -1.712607,3.044095 -2.875,5.09375 -2.479703,4.372453 -2.48827,4.420419 -2.1875,5.0625 0.242818,-0.616356 0.848588,-1.701601 2.1875,-4.0625 1.162393,-2.049655 2.458555,-4.344611 2.875,-5.09375 0.416347,-0.749198 0.90854,-1.490282 1.09375,-1.625 0.604088,-0.439396 4.550119,0.258653 5.90625,1.03125 1.376198,0.783871 3.272558,3.246957 4.03125,5.25 0.538458,1.421563 0.863112,3.564187 0.90625,5.34375 0.09847,-1.911513 -0.2606,-4.639195 -0.90625,-6.34375 -0.758692,-2.003043 -2.655052,-4.466129 -4.03125,-5.25 C 66.014152,24.576802 63.548933,24.038626 62.125,24 z m -1.28125,18.96875 c -0.297024,0.974394 -1.829169,3.700369 -3.28125,5.78125 -3.077322,4.410003 -6.980295,7.87113 -11.9375,10.5625 -2.427579,1.317812 -2.734152,1.281035 -4.5,-0.53125 -1.590597,-1.632457 -3.585645,-3.01487 -4.40625,-3.0625 -0.497223,-0.02886 -9.108022,2.831957 -11.1875,3.71875 -1.301855,0.555287 -1.43821,0.938189 -1.5,3.59375 -0.0159,0.683005 -0.01424,1.14437 0,1.53125 0.0027,-0.181158 -0.005,-0.315003 0,-0.53125 0.06179,-2.655561 0.198145,-3.038463 1.5,-3.59375 2.079478,-0.886793 10.690277,-3.747608 11.1875,-3.71875 0.820605,0.04763 2.815653,1.430043 4.40625,3.0625 1.765848,1.812285 2.072421,1.849062 4.5,0.53125 4.957205,-2.69137 8.860178,-6.152497 11.9375,-10.5625 1.596368,-2.287649 3.304581,-5.371411 3.34375,-6.03125 0.01693,-0.28512 0.0064,-0.527266 -0.0625,-0.75 z"
         style="opacity:0.75;fill:#ffffff;fill-opacity:1;display:inline" />
      <path
         inkscape:connector-curvature="0"
         id="path3877"
         d="m 54.96875,34.90625 c -0.206888,0.525153 -0.13837,0.70461 0,1 0.295063,0.629783 2.300916,2.65618 4.15625,4.1875 1.098518,0.90673 1.561148,1.365459 1.71875,1.875 0.02951,-0.09682 0.05896,-0.190361 0.0625,-0.25 0.05566,-0.937382 -0.202541,-1.321915 -1.78125,-2.625 -1.855334,-1.53132 -3.861187,-3.557717 -4.15625,-4.1875 z m 17,0.84375 c -0.02205,0.428051 -0.05382,0.831596 -0.125,1.15625 -0.227691,1.037229 -1.763982,5.557443 -2.5,7.34375 -1.022418,2.481463 -3.352468,6.457436 -5.03125,8.625 -2.006213,2.590305 -3.86381,4.484583 -7.46875,7.5625 -5.533894,4.724877 -10.984753,7.923615 -16.5625,9.6875 -2.570734,0.812906 -3.593625,0.962731 -5.6875,0.84375 -4.18166,-0.236272 -8.636334,-2.738658 -10.15625,-5.6875 -0.290079,-0.562819 -0.376963,-0.923255 -0.40625,-1.71875 -0.02352,1.567527 0.01976,1.968873 0.40625,2.71875 1.519916,2.948842 5.97459,5.451228 10.15625,5.6875 2.093875,0.118981 3.116766,-0.03084 5.6875,-0.84375 5.577747,-1.763885 11.028606,-4.962623 16.5625,-9.6875 3.60494,-3.077917 5.462537,-4.972195 7.46875,-7.5625 1.678782,-2.167564 4.008832,-6.143537 5.03125,-8.625 0.736018,-1.786307 2.272309,-6.306521 2.5,-7.34375 0.123959,-0.565347 0.145171,-1.324158 0.125,-2.15625 z"
         style="opacity:0.15;fill:#000000;fill-opacity:1;display:inline" />
    </g>
  </g>
</svg>
