<?xml version="1.0" encoding="UTF-8" standalone="no"?>
<!-- Created with Inkscape (http://www.inkscape.org/) -->

<svg
   xmlns:dc="http://purl.org/dc/elements/1.1/"
   xmlns:cc="http://creativecommons.org/ns#"
   xmlns:rdf="http://www.w3.org/1999/02/22-rdf-syntax-ns#"
   xmlns:svg="http://www.w3.org/2000/svg"
   xmlns="http://www.w3.org/2000/svg"
   xmlns:xlink="http://www.w3.org/1999/xlink"
   xmlns:sodipodi="http://sodipodi.sourceforge.net/DTD/sodipodi-0.dtd"
   xmlns:inkscape="http://www.inkscape.org/namespaces/inkscape"
   width="160"
   height="30"
   id="svg2"
   version="1.1"
   inkscape:version="0.47 r22583"
   sodipodi:docname="signal.svg"
   inkscape:export-filename="/home/francesco/neo_freerunner/qtmoko/faenqo_en/faenqo_en/svg/signal.png"
   inkscape:export-xdpi="90"
   inkscape:export-ydpi="90">
  <defs
     id="defs4">
    <inkscape:perspective
       sodipodi:type="inkscape:persp3d"
       inkscape:vp_x="0 : 526.18109 : 1"
       inkscape:vp_y="0 : 1000 : 0"
       inkscape:vp_z="744.09448 : 526.18109 : 1"
       inkscape:persp3d-origin="372.04724 : 350.78739 : 1"
       id="perspective10" />
    <inkscape:perspective
       id="perspective2824"
       inkscape:persp3d-origin="0.5 : 0.33333333 : 1"
       inkscape:vp_z="1 : 0.5 : 1"
       inkscape:vp_y="0 : 1000 : 0"
       inkscape:vp_x="0 : 0.5 : 1"
       sodipodi:type="inkscape:persp3d" />
    <linearGradient
       id="linearGradient3183">
      <stop
         offset="0"
         style="stop-color:#c80000;stop-opacity:1"
         id="stop3185" />
      <stop
         offset="1"
         style="stop-color:#f3604d;stop-opacity:1"
         id="stop3187" />
    </linearGradient>
    <linearGradient
       gradientTransform="matrix(0,-3.0000004,2.9652505,0,45.335916,49.000009)"
       gradientUnits="userSpaceOnUse"
       xlink:href="#linearGradient3183"
       id="linearGradient2927"
       y2="11.015625"
       x2="19"
       y1="11.015625"
       x1="11" />
    <inkscape:perspective
       id="perspective2849"
       inkscape:persp3d-origin="48 : 32 : 1"
       inkscape:vp_z="96 : 48 : 1"
       inkscape:vp_y="0 : 1000 : 0"
       inkscape:vp_x="0 : 48 : 1"
       sodipodi:type="inkscape:persp3d" />
    <linearGradient
       gradientUnits="userSpaceOnUse"
       xlink:href="#linearGradient3713"
       id="linearGradient3731"
       y2="14.007812"
       x2="57"
       y1="-50"
       x1="57" />
    <linearGradient
       gradientUnits="userSpaceOnUse"
       xlink:href="#linearGradient3713"
       id="linearGradient3729"
       y2="14.010415"
       x2="37"
       y1="-34"
       x1="37" />
    <linearGradient
       gradientUnits="userSpaceOnUse"
       xlink:href="#linearGradient3713"
       id="linearGradient3727"
       y2="14.140317"
       x2="19"
       y1="-18"
       x1="19" />
    <linearGradient
       gradientUnits="userSpaceOnUse"
       xlink:href="#linearGradient3713"
       id="linearGradient3719"
       y2="6.0277724"
       x2="78"
       y1="-66"
       x1="78" />
    <linearGradient
       gradientTransform="translate(-8,16)"
       gradientUnits="userSpaceOnUse"
       xlink:href="#linearGradient4081"
       id="linearGradient3695"
       y2="-34"
       x2="24"
       y1="-2"
       x1="24" />
    <linearGradient
       gradientTransform="translate(-12,16)"
       gradientUnits="userSpaceOnUse"
       xlink:href="#linearGradient4081"
       id="linearGradient3693"
       y2="-50"
       x2="56"
       y1="-2"
       x1="56" />
    <linearGradient
       gradientTransform="translate(-16,16)"
       gradientUnits="userSpaceOnUse"
       xlink:href="#linearGradient4081"
       id="linearGradient3691"
       y2="-66"
       x2="72"
       y1="-2"
       x1="72" />
    <linearGradient
       gradientTransform="translate(-20,16)"
       gradientUnits="userSpaceOnUse"
       xlink:href="#linearGradient4081"
       id="linearGradient3689"
       y2="-82"
       x2="96"
       y1="-2"
       x1="96" />
    <linearGradient
       id="linearGradient4081">
      <stop
         offset="0"
         style="stop-color:#aaaaaa;stop-opacity:1"
         id="stop4083" />
      <stop
         offset="1"
         style="stop-color:#f0f0f0;stop-opacity:1"
         id="stop4085" />
    </linearGradient>
    <linearGradient
       id="linearGradient3713">
      <stop
         offset="0"
         style="stop-color:#ffffff;stop-opacity:1"
         id="stop3715" />
      <stop
         offset="1"
         style="stop-color:#ffffff;stop-opacity:0"
         id="stop3717" />
    </linearGradient>
    <inkscape:perspective
       id="perspective2898"
       inkscape:persp3d-origin="48 : 32 : 1"
       inkscape:vp_z="96 : 48 : 1"
       inkscape:vp_y="0 : 1000 : 0"
       inkscape:vp_x="0 : 48 : 1"
       sodipodi:type="inkscape:persp3d" />
    <linearGradient
       gradientUnits="userSpaceOnUse"
       xlink:href="#linearGradient3713-2"
       id="linearGradient3731-8"
       y2="14.007812"
       x2="57"
       y1="-50"
       x1="57" />
    <linearGradient
       gradientUnits="userSpaceOnUse"
       xlink:href="#linearGradient3713-2"
       id="linearGradient3729-7"
       y2="14.010415"
       x2="37"
       y1="-34"
       x1="37" />
    <linearGradient
       gradientUnits="userSpaceOnUse"
       xlink:href="#linearGradient3713-2"
       id="linearGradient3727-3"
       y2="14.140317"
       x2="19"
       y1="-18"
       x1="19" />
    <linearGradient
       gradientTransform="translate(-8,16)"
       gradientUnits="userSpaceOnUse"
       xlink:href="#linearGradient4081-9"
       id="linearGradient3695-0"
       y2="-34"
       x2="24"
       y1="-2"
       x1="24" />
    <linearGradient
       gradientTransform="translate(-12,16)"
       gradientUnits="userSpaceOnUse"
       xlink:href="#linearGradient4081-9"
       id="linearGradient3693-1"
       y2="-50"
       x2="56"
       y1="-2"
       x1="56" />
    <linearGradient
       gradientTransform="translate(-16,16)"
       gradientUnits="userSpaceOnUse"
       xlink:href="#linearGradient4081-9"
       id="linearGradient3691-5"
       y2="-66"
       x2="72"
       y1="-2"
       x1="72" />
    <linearGradient
       id="linearGradient4081-9">
      <stop
         offset="0"
         style="stop-color:#aaaaaa;stop-opacity:1"
         id="stop4083-9" />
      <stop
         offset="1"
         style="stop-color:#f0f0f0;stop-opacity:1"
         id="stop4085-4" />
    </linearGradient>
    <linearGradient
       id="linearGradient3713-2">
      <stop
         offset="0"
         style="stop-color:#ffffff;stop-opacity:1"
         id="stop3715-9" />
      <stop
         offset="1"
         style="stop-color:#ffffff;stop-opacity:0"
         id="stop3717-0" />
    </linearGradient>
    <inkscape:perspective
       id="perspective2957"
       inkscape:persp3d-origin="48 : 32 : 1"
       inkscape:vp_z="96 : 48 : 1"
       inkscape:vp_y="0 : 1000 : 0"
       inkscape:vp_x="0 : 48 : 1"
       sodipodi:type="inkscape:persp3d" />
    <linearGradient
       gradientUnits="userSpaceOnUse"
       xlink:href="#linearGradient3713-3"
       id="linearGradient3727-7"
       y2="14.140317"
       x2="19"
       y1="-18"
       x1="19" />
    <linearGradient
       gradientTransform="translate(-8,16)"
       gradientUnits="userSpaceOnUse"
       xlink:href="#linearGradient4081-3"
       id="linearGradient3695-3"
       y2="-34"
       x2="24"
       y1="-2"
       x1="24" />
    <linearGradient
       id="linearGradient4081-3">
      <stop
         offset="0"
         style="stop-color:#0017b1;stop-opacity:1;"
         id="stop4083-7" />
      <stop
         offset="1"
         style="stop-color:#26d9ff;stop-opacity:1;"
         id="stop4085-9" />
    </linearGradient>
    <linearGradient
       id="linearGradient3713-3">
      <stop
         offset="0"
         style="stop-color:#ffffff;stop-opacity:1"
         id="stop3715-3" />
      <stop
         offset="1"
         style="stop-color:#ffffff;stop-opacity:0"
         id="stop3717-8" />
    </linearGradient>
    <inkscape:perspective
       id="perspective3007"
       inkscape:persp3d-origin="48 : 32 : 1"
       inkscape:vp_z="96 : 48 : 1"
       inkscape:vp_y="0 : 1000 : 0"
       inkscape:vp_x="0 : 48 : 1"
       sodipodi:type="inkscape:persp3d" />
    <linearGradient
       gradientUnits="userSpaceOnUse"
       xlink:href="#linearGradient3713-1"
       id="linearGradient3729-1"
       y2="14.010415"
       x2="37"
       y1="-34"
       x1="37" />
    <linearGradient
       gradientUnits="userSpaceOnUse"
       xlink:href="#linearGradient3713-1"
       id="linearGradient3727-37"
       y2="14.140317"
       x2="19"
       y1="-18"
       x1="19" />
    <linearGradient
       gradientTransform="translate(-8,16)"
       gradientUnits="userSpaceOnUse"
       xlink:href="#linearGradient4081-7"
       id="linearGradient3695-4"
       y2="-34"
       x2="24"
       y1="-2"
       x1="24" />
    <linearGradient
       gradientTransform="translate(-12,16)"
       gradientUnits="userSpaceOnUse"
       xlink:href="#linearGradient4081-7"
       id="linearGradient3693-2"
       y2="-50"
       x2="56"
       y1="-2"
       x1="56" />
    <linearGradient
       id="linearGradient4081-7">
      <stop
         offset="0"
         style="stop-color:#aaaaaa;stop-opacity:1"
         id="stop4083-99" />
      <stop
         offset="1"
         style="stop-color:#f0f0f0;stop-opacity:1"
         id="stop4085-3" />
    </linearGradient>
    <linearGradient
       id="linearGradient3713-1">
      <stop
         offset="0"
         style="stop-color:#ffffff;stop-opacity:1"
         id="stop3715-38" />
      <stop
         offset="1"
         style="stop-color:#ffffff;stop-opacity:0"
         id="stop3717-09" />
    </linearGradient>
    <inkscape:perspective
       id="perspective3054"
       inkscape:persp3d-origin="48 : 32 : 1"
       inkscape:vp_z="96 : 48 : 1"
       inkscape:vp_y="0 : 1000 : 0"
       inkscape:vp_x="0 : 48 : 1"
       sodipodi:type="inkscape:persp3d" />
    <linearGradient
       inkscape:collect="always"
       xlink:href="#linearGradient3713-3"
       id="linearGradient3102"
       gradientUnits="userSpaceOnUse"
       x1="19"
       y1="-18"
       x2="19"
       y2="14.140317"
       gradientTransform="matrix(0.37974684,0,0,0.35714286,30.341772,1045.9336)" />
    <linearGradient
       inkscape:collect="always"
       xlink:href="#linearGradient4081-3"
       id="linearGradient3105"
       gradientUnits="userSpaceOnUse"
       gradientTransform="matrix(0.37974684,0,0,0.35714286,27.303797,1051.6479)"
       x1="24"
       y1="-2"
       x2="24"
       y2="-34" />
    <linearGradient
       inkscape:collect="always"
       xlink:href="#linearGradient3713-1"
       id="linearGradient3898"
       gradientUnits="userSpaceOnUse"
       x1="19"
       y1="-18"
       x2="19"
       y2="14.140317"
       gradientTransform="matrix(0.37959668,0,0,0.35701004,62.354685,1045.9249)" />
    <linearGradient
       inkscape:collect="always"
       xlink:href="#linearGradient3713-1"
       id="linearGradient3901"
       gradientUnits="userSpaceOnUse"
       x1="37"
       y1="-34"
       x2="37"
       y2="14.010415"
       gradientTransform="matrix(0.37959668,0,0,0.35701004,62.354685,1045.9249)" />
    <linearGradient
       inkscape:collect="always"
       xlink:href="#linearGradient4081-3"
       id="linearGradient3904"
       gradientUnits="userSpaceOnUse"
       gradientTransform="matrix(0.37959668,0,0,0.35701004,59.317912,1051.6371)"
       x1="24"
       y1="-2"
       x2="24"
       y2="-34" />
    <linearGradient
       inkscape:collect="always"
       xlink:href="#linearGradient4081-3"
       id="linearGradient3907"
       gradientUnits="userSpaceOnUse"
       gradientTransform="matrix(0.37959668,0,0,0.35701004,57.799525,1051.6371)"
       x1="56"
       y1="-2"
       x2="56"
       y2="-50" />
    <linearGradient
       inkscape:collect="always"
       xlink:href="#linearGradient3713-2"
       id="linearGradient3928"
       gradientUnits="userSpaceOnUse"
       x1="19"
       y1="-18"
       x2="19"
       y2="14.140317"
       gradientTransform="matrix(0.37944664,0,0,0.35687732,94.367589,1045.9161)" />
    <linearGradient
       inkscape:collect="always"
       xlink:href="#linearGradient3713-2"
       id="linearGradient3931"
       gradientUnits="userSpaceOnUse"
       x1="37"
       y1="-34"
       x2="37"
       y2="14.010415"
       gradientTransform="matrix(0.37944664,0,0,0.35687732,94.367589,1045.9161)" />
    <linearGradient
       inkscape:collect="always"
       xlink:href="#linearGradient3713-2"
       id="linearGradient3934"
       gradientUnits="userSpaceOnUse"
       x1="57"
       y1="-50"
       x2="57"
       y2="14.007812"
       gradientTransform="matrix(0.37944664,0,0,0.35687732,94.367589,1045.9161)" />
    <linearGradient
       inkscape:collect="always"
       xlink:href="#linearGradient4081-3"
       id="linearGradient3937"
       gradientUnits="userSpaceOnUse"
       gradientTransform="matrix(0.37944664,0,0,0.35687732,91.332016,1051.6261)"
       x1="24"
       y1="-2"
       x2="24"
       y2="-34" />
    <linearGradient
       inkscape:collect="always"
       xlink:href="#linearGradient4081-3"
       id="linearGradient3940"
       gradientUnits="userSpaceOnUse"
       gradientTransform="matrix(0.37944664,0,0,0.35687732,89.814229,1051.6261)"
       x1="56"
       y1="-2"
       x2="56"
       y2="-50" />
    <linearGradient
       inkscape:collect="always"
       xlink:href="#linearGradient4081-3"
       id="linearGradient3943"
       gradientUnits="userSpaceOnUse"
       gradientTransform="matrix(0.37944664,0,0,0.35687732,88.296443,1051.6261)"
       x1="72"
       y1="-2"
       x2="72"
       y2="-66" />
    <linearGradient
       inkscape:collect="always"
       xlink:href="#linearGradient3713"
       id="linearGradient3964"
       gradientUnits="userSpaceOnUse"
       x1="19"
       y1="-18"
       x2="19"
       y2="14.140317"
       gradientTransform="matrix(0.36613272,0,0,0.34909091,126.42562,1046.0895)" />
    <linearGradient
       inkscape:collect="always"
       xlink:href="#linearGradient3713"
       id="linearGradient3967"
       gradientUnits="userSpaceOnUse"
       x1="37"
       y1="-34"
       x2="37"
       y2="14.010415"
       gradientTransform="matrix(0.36613272,0,0,0.34909091,126.42562,1046.0895)" />
    <linearGradient
       inkscape:collect="always"
       xlink:href="#linearGradient3713"
       id="linearGradient3970"
       gradientUnits="userSpaceOnUse"
       x1="57"
       y1="-50"
       x2="57"
       y2="14.007812"
       gradientTransform="matrix(0.36613272,0,0,0.34909091,126.42562,1046.0895)" />
    <linearGradient
       inkscape:collect="always"
       xlink:href="#linearGradient3713"
       id="linearGradient3973"
       gradientUnits="userSpaceOnUse"
       x1="78"
       y1="-66"
       x2="78"
       y2="6.0277724"
       gradientTransform="matrix(0.36613272,0,0,0.34909091,126.42562,1046.0895)" />
    <linearGradient
       inkscape:collect="always"
       xlink:href="#linearGradient4081-3"
       id="linearGradient3976"
       gradientUnits="userSpaceOnUse"
       gradientTransform="matrix(0.36613272,0,0,0.34909091,123.49656,1051.675)"
       x1="24"
       y1="-2"
       x2="24"
       y2="-34" />
    <linearGradient
       inkscape:collect="always"
       xlink:href="#linearGradient4081-3"
       id="linearGradient3979"
       gradientUnits="userSpaceOnUse"
       gradientTransform="matrix(0.36613272,0,0,0.34909091,122.03203,1051.675)"
       x1="56"
       y1="-2"
       x2="56"
       y2="-50" />
    <linearGradient
       inkscape:collect="always"
       xlink:href="#linearGradient4081-3"
       id="linearGradient3982"
       gradientUnits="userSpaceOnUse"
       gradientTransform="matrix(0.36613272,0,0,0.34909091,120.5675,1051.675)"
       x1="72"
       y1="-2"
       x2="72"
       y2="-66" />
    <linearGradient
       inkscape:collect="always"
       xlink:href="#linearGradient4081-3"
       id="linearGradient3985"
       gradientUnits="userSpaceOnUse"
       gradientTransform="matrix(0.36613272,0,0,0.34909091,119.10297,1051.675)"
       x1="96"
       y1="-2"
       x2="96"
       y2="-82" />
    <linearGradient
       inkscape:collect="always"
       xlink:href="#linearGradient3183"
       id="linearGradient2946"
       gradientUnits="userSpaceOnUse"
       gradientTransform="matrix(0,-1.0596026,1.0856752,0,13.937635,1062.9803)"
       x1="11"
       y1="11.015625"
       x2="19"
       y2="11.015625" />
    <linearGradient
       inkscape:collect="always"
       xlink:href="#linearGradient3183"
       id="linearGradient2962"
       gradientUnits="userSpaceOnUse"
       gradientTransform="matrix(0,-1.0596026,1.0856752,0,13.937635,1062.9803)"
       x1="11"
       y1="11.015625"
       x2="19"
       y2="11.015625" />
    <linearGradient
       inkscape:collect="always"
       xlink:href="#linearGradient3183"
       id="linearGradient2966"
       gradientUnits="userSpaceOnUse"
       gradientTransform="matrix(0,-1.4114526,1.4461829,0,8.2719472,1066.5088)"
       x1="11"
       y1="11.015625"
       x2="19"
       y2="11.015625" />
  </defs>
  <sodipodi:namedview
     id="base"
     pagecolor="#ffffff"
     bordercolor="#666666"
     borderopacity="1.0"
     inkscape:pageopacity="0.0"
     inkscape:pageshadow="2"
     inkscape:zoom="11.313708"
     inkscape:cx="24.296521"
     inkscape:cy="12.738946"
     inkscape:document-units="px"
     inkscape:current-layer="layer1"
     showgrid="false"
     borderlayer="true"
     inkscape:showpageshadow="false"
     inkscape:window-width="1366"
     inkscape:window-height="709"
     inkscape:window-x="0"
     inkscape:window-y="25"
     inkscape:window-maximized="1"
     showguides="true"
     inkscape:guide-bbox="true">
    <sodipodi:guide
       orientation="1,0"
       position="31.02431,16.086679"
       id="guide2942" />
  </sodipodi:namedview>
  <metadata
     id="metadata7">
    <rdf:RDF>
      <cc:Work
         rdf:about="">
        <dc:format>image/svg+xml</dc:format>
        <dc:type
           rdf:resource="http://purl.org/dc/dcmitype/StillImage" />
        <dc:title />
      </cc:Work>
    </rdf:RDF>
  </metadata>
  <g
     inkscape:label="Livello 1"
     inkscape:groupmode="layer"
     id="layer1"
     transform="translate(0,-1022.3622)">
    <rect
       width="5.8581233"
       height="28.256065"
       rx="1.4645308"
       ry="1.4128033"
       x="22.967962"
       y="1022.3622"
       id="rect2903"
       style="opacity:0.2;fill:#ffffff;fill-opacity:1;stroke:none" />
    <rect
       width="5.8581233"
       height="22.604853"
       rx="1.4645308"
       ry="1.4128033"
       x="15.645308"
       y="1028.0134"
       id="rect2905"
       style="opacity:0.2;fill:#ffffff;fill-opacity:1;stroke:none" />
    <rect
       width="5.8581233"
       height="16.953638"
       rx="1.4645308"
       ry="1.4128033"
       x="8.3226538"
       y="1033.6647"
       id="rect2907"
       style="opacity:0.2;fill:#ffffff;fill-opacity:1;stroke:none" />
    <rect
       width="5.8581233"
       height="11.302426"
       rx="1.4645308"
       ry="1.4128033"
       x="1"
       y="1039.3159"
       id="rect2909"
       style="opacity:0.2;fill:#ffffff;fill-opacity:1;stroke:none" />
    <path
       d="m 21.200088,1039.2354 c 3.53e-4,0 -0.04608,0.015 -0.04572,0.015 3.5e-4,0 -0.04606,10e-5 -0.04573,0 3.46e-4,0 -0.04606,0.015 -0.04572,0.015 4.87e-4,-10e-5 -0.06145,0.015 -0.06097,0.015 4.89e-4,-2e-4 -0.06143,0.029 -0.06097,0.029 4.77e-4,-3e-4 -0.07667,0.029 -0.07621,0.029 4.61e-4,-3e-4 -0.06141,0.029 -0.06097,0.029 4.42e-4,-2e-4 -0.04614,0.044 -0.04572,0.044 4.23e-4,-4e-4 -0.06137,0.029 -0.06097,0.029 4.01e-4,-2e-4 -0.0461,0.044 -0.04572,0.044 2.81e-4,-10e-5 -0.03206,0.031 -0.04573,0.044 -0.0045,0 -0.01533,0.015 -0.01524,0.015 l -2.926261,2.8524 c 4.65e-4,-6e-4 -0.06138,0.073 -0.06097,0.073 4.16e-4,-5e-4 -0.04609,0.059 -0.04572,0.059 3.64e-4,-5e-4 -0.04604,0.075 -0.04572,0.073 3.09e-4,-5e-4 -0.04597,0.089 -0.04573,0.088 2.51e-4,-5e-4 -0.03068,0.075 -0.03048,0.073 1.89e-4,-6e-4 -0.01537,0.089 -0.01524,0.088 1.28e-4,-7e-4 -0.01531,0.089 -0.01524,0.088 6.4e-5,-7e-4 0,0.089 0,0.088 0,-7e-4 6.4e-5,0.089 0,0.088 -6.4e-5,-6e-4 0.01537,0.089 0.01524,0.088 -1.26e-4,-6e-4 0.01544,0.089 0.01524,0.088 -1.89e-4,-7e-4 0.03073,0.075 0.03048,0.073 -2.5e-4,-6e-4 0.04604,0.089 0.04573,0.088 -3.08e-4,-5e-4 0.04609,0.075 0.04572,0.073 -3.63e-4,-7e-4 0.04614,0.06 0.04572,0.059 -4.15e-4,-5e-4 0.06144,0.075 0.06097,0.073 l 2.194695,2.1466 -2.194695,2.1466 c 4.65e-4,-5e-4 -0.06138,0.075 -0.06097,0.073 4.16e-4,-4e-4 -0.04609,0.06 -0.04572,0.059 3.64e-4,-6e-4 -0.04604,0.075 -0.04572,0.073 3.09e-4,-5e-4 -0.04597,0.089 -0.04573,0.088 2.51e-4,-7e-4 -0.03068,0.075 -0.03048,0.073 1.89e-4,-6e-4 -0.01537,0.089 -0.01524,0.088 1.28e-4,-6e-4 -0.01531,0.089 -0.01524,0.088 6.4e-5,-6e-4 0,0.089 0,0.088 0,-7e-4 6.4e-5,0.089 0,0.088 -6.4e-5,-7e-4 0.01537,0.089 0.01524,0.088 -1.26e-4,-7e-4 0.01544,0.089 0.01524,0.088 -1.89e-4,-5e-4 0.03073,0.075 0.03048,0.073 -2.5e-4,-6e-4 0.04604,0.089 0.04573,0.088 -3.08e-4,-7e-4 0.04609,0.075 0.04572,0.073 -3.63e-4,-6e-4 0.04614,0.06 0.04572,0.059 -4.15e-4,-6e-4 0.06144,0.075 0.06097,0.073 l 2.941502,2.867 c -4.82e-4,-5e-4 0.06149,0.059 0.06097,0.059 -5.37e-4,-5e-4 0.07678,0.059 0.07621,0.059 -5.84e-4,-4e-4 0.07681,0.044 0.07621,0.044 -5.86e-4,-3e-4 0.09209,0.044 0.09145,0.044 -6.34e-4,-3e-4 0.0921,0.029 0.09145,0.029 -6.82e-4,-3e-4 0.07689,0.029 0.07621,0.029 -6.83e-4,-2e-4 0.09214,0.015 0.09145,0.015 -6.83e-4,0 0.107377,0 0.106684,0 -6.83e-4,0 0.09214,0 0.09145,0 -6.83e-4,2e-4 0.09212,-0.015 0.09145,-0.015 -6.83e-4,10e-5 0.09211,-0.015 0.09145,-0.015 -6.83e-4,3e-4 0.07685,-0.029 0.07621,-0.029 -6.34e-4,1e-4 0.09207,-0.029 0.09145,-0.029 -6.34e-4,3e-4 0.07679,-0.044 0.07621,-0.044 -5.85e-4,3e-4 0.07675,-0.059 0.07621,-0.059 -5.36e-4,4e-4 0.07671,-0.059 0.07621,-0.059 l 2.240419,-2.1466 2.148972,2.1172 c -2.48e-4,-3e-4 0.03074,0.029 0.03048,0.029 -2.6e-4,-3e-4 0.046,0.029 0.04573,0.029 -2.73e-4,-3e-4 0.03077,0.029 0.03048,0.029 -2.84e-4,-10e-5 0.04602,0.029 0.04573,0.029 -2.94e-4,-10e-5 0.03078,0.029 0.03048,0.029 -3.05e-4,-3e-4 0.04604,0.029 0.04573,0.029 -3.14e-4,-2e-4 0.04605,0.015 0.04572,0.015 -3.23e-4,-2e-4 0.04605,0.015 0.04572,0.015 -3.29e-4,-10e-5 0.03082,0.015 0.03048,0.015 -3.35e-4,-2e-4 0.04606,0.015 0.04572,0.015 -3.43e-4,-10e-5 0.04606,0.015 0.04573,0.015 -3.47e-4,0 0.06132,0.015 0.06097,0.015 -3.51e-4,-10e-5 0.04608,0.015 0.04572,0.015 -3.53e-4,0 0.04608,0 0.04572,0 -3.56e-4,0 0.04608,0 0.04572,0 -3.57e-4,0 0.04608,0 0.04573,0 -3.58e-4,0 0.04608,0 0.04572,0 -3.57e-4,0 0.04608,0 0.04572,0 -3.55e-4,0 0.04608,0 0.04572,0 -3.55e-4,10e-5 0.04608,-0.015 0.04573,-0.015 -3.5e-4,0 0.06132,-0.015 0.06097,-0.015 -3.46e-4,10e-5 0.04606,-0.015 0.04572,-0.015 -3.41e-4,2e-4 0.04606,-0.015 0.04572,-0.015 -3.36e-4,10e-5 0.03081,-0.015 0.03048,-0.015 -3.3e-4,2e-4 0.04605,-0.015 0.04572,-0.015 -3.23e-4,10e-5 0.04604,-0.015 0.04572,-0.015 -3.13e-4,2e-4 0.04602,-0.029 0.04572,-0.029 -3.04e-4,1e-4 0.03077,-0.029 0.03048,-0.029 -2.95e-4,3e-4 0.04601,-0.029 0.04573,-0.029 -2.83e-4,3e-4 0.03076,-0.029 0.03048,-0.029 -2.73e-4,10e-5 0.04598,-0.029 0.04572,-0.029 -2.61e-4,3e-4 0.03073,-0.029 0.03048,-0.029 l 3.032948,-2.9552 c -4.8e-4,4e-4 0.06139,-0.075 0.06097,-0.073 -4.28e-4,5e-4 0.06133,-0.075 0.06097,-0.073 -3.71e-4,5e-4 0.04604,-0.075 0.04573,-0.073 -3.13e-4,7e-4 0.03073,-0.089 0.03048,-0.088 -2.49e-4,5e-4 0.03066,-0.075 0.03048,-0.073 -1.87e-4,7e-4 0.01536,-0.089 0.01524,-0.088 -1.18e-4,7e-4 0.01529,-0.089 0.01524,-0.088 -5.2e-5,7e-4 -1.6e-5,-0.089 0,-0.088 1.6e-5,7e-4 -8.4e-5,-0.1039 0,-0.1026 8.4e-5,7e-4 -0.01538,-0.089 -0.01524,-0.088 1.52e-4,7e-4 -0.03069,-0.075 -0.03048,-0.073 2.17e-4,6e-4 -0.03076,-0.089 -0.03048,-0.088 2.8e-4,7e-4 -0.04606,-0.089 -0.04572,-0.088 3.41e-4,6e-4 -0.04613,-0.075 -0.04572,-0.073 3.98e-4,5e-4 -0.06142,-0.075 -0.06097,-0.073 4.53e-4,5e-4 -0.06146,-0.06 -0.06097,-0.059 l -2.148974,-2.029 2.148974,-2.029 c -4.87e-4,4e-4 0.06142,-0.06 0.06097,-0.059 -4.52e-4,4e-4 0.06137,-0.075 0.06097,-0.073 -3.98e-4,6e-4 0.04606,-0.075 0.04572,-0.073 -3.41e-4,5e-4 0.046,-0.089 0.04572,-0.088 -2.79e-4,6e-4 0.03069,-0.089 0.03048,-0.088 -2.17e-4,7e-4 0.03064,-0.075 0.03048,-0.073 -1.5e-4,6e-4 0.01532,-0.089 0.01524,-0.088 -8.4e-5,6e-4 1.6e-5,-0.1039 0,-0.1026 -1.6e-5,5e-4 -5.2e-5,-0.089 0,-0.088 5.2e-5,6e-4 -0.01536,-0.089 -0.01524,-0.088 1.2e-4,6e-4 -0.01543,-0.089 -0.01524,-0.088 1.85e-4,7e-4 -0.03073,-0.075 -0.03048,-0.073 2.51e-4,5e-4 -0.0308,-0.089 -0.03048,-0.088 3.13e-4,5e-4 -0.04609,-0.075 -0.04573,-0.073 3.72e-4,5e-4 -0.06139,-0.075 -0.06097,-0.073 4.26e-4,6e-4 -0.06145,-0.075 -0.06097,-0.073 l -3.032948,-2.9552 c 2.47e-4,10e-5 -0.03074,-0.029 -0.03048,-0.029 2.6e-4,3e-4 -0.046,-0.029 -0.04572,-0.029 2.73e-4,3e-4 -0.03077,-0.029 -0.03048,-0.029 2.84e-4,2e-4 -0.04602,-0.029 -0.04573,-0.029 2.94e-4,10e-5 -0.03078,-0.029 -0.03048,-0.029 3.05e-4,10e-5 -0.04604,-0.029 -0.04572,-0.029 3.14e-4,1e-4 -0.04605,-0.015 -0.04572,-0.015 3.21e-4,10e-5 -0.04605,-0.015 -0.04572,-0.015 3.29e-4,10e-5 -0.03082,-0.015 -0.03048,-0.015 3.37e-4,10e-5 -0.04606,-0.015 -0.04572,-0.015 3.42e-4,0 -0.04606,-0.015 -0.04572,-0.015 3.48e-4,10e-5 -0.06131,-0.015 -0.06097,-0.015 3.5e-4,0 -0.04608,-0.015 -0.04573,-0.015 3.53e-4,10e-5 -0.04608,0 -0.04572,0 3.56e-4,10e-5 -0.04608,0 -0.04572,0 3.57e-4,10e-5 -0.04608,0 -0.04572,0 3.58e-4,0 -0.04608,10e-5 -0.04573,0 3.57e-4,0 -0.04608,10e-5 -0.04572,0 3.56e-4,0 -0.04608,10e-5 -0.04572,0 3.54e-4,0 -0.04608,0.015 -0.04572,0.015 3.51e-4,-10e-5 -0.06132,0.015 -0.06097,0.015 3.47e-4,0 -0.04606,0.015 -0.04573,0.015 3.41e-4,-2e-4 -0.04606,0.015 -0.04572,0.015 3.36e-4,-10e-5 -0.03081,0.015 -0.03048,0.015 3.3e-4,-2e-4 -0.04605,0.015 -0.04572,0.015 3.21e-4,-10e-5 -0.04604,0.015 -0.04572,0.015 3.13e-4,-2e-4 -0.04602,0.029 -0.04573,0.029 3.04e-4,-3e-4 -0.03077,0.029 -0.03048,0.029 2.96e-4,-3e-4 -0.04601,0.029 -0.04573,0.029 2.85e-4,-2e-4 -0.03076,0.029 -0.03048,0.029 2.73e-4,-3e-4 -0.04598,0.029 -0.04573,0.029 2.61e-4,-3e-4 -0.03073,0.029 -0.03048,0.029 l -2.148972,2.1172 -2.225179,-2.132 c 8.4e-5,10e-5 -0.01012,-0.013 -0.01524,-0.015 -0.01026,-0.013 -0.03066,-0.029 -0.03048,-0.029 2.64e-4,2e-4 -0.03076,-0.029 -0.03048,-0.029 2.75e-4,3e-4 -0.03077,-0.029 -0.03048,-0.029 2.85e-4,2e-4 -0.04602,-0.015 -0.04572,-0.015 2.95e-4,3e-4 -0.04604,-0.029 -0.04572,-0.029 3.05e-4,2e-4 -0.0308,-0.029 -0.03048,-0.029 3.14e-4,10e-5 -0.04605,-0.015 -0.04572,-0.015 3.21e-4,2e-4 -0.04605,-0.015 -0.04573,-0.015 3.29e-4,10e-5 -0.04606,-0.015 -0.04572,-0.015 3.35e-4,0 -0.04606,-0.015 -0.04572,-0.015 3.41e-4,1e-4 -0.04606,-0.015 -0.04572,-0.015 3.45e-4,0 -0.04608,-0.015 -0.04573,-0.015 3.49e-4,10e-5 -0.04608,0 -0.04572,0 3.52e-4,10e-5 -0.04607,-0.015 -0.04572,-0.015 3.55e-4,0 -0.04608,0 -0.04573,0 3.55e-4,0 -0.04608,0 -0.04572,0 a 0.48603997,0.46887292 0 0 0 -0.03048,0 c 3.54e-4,0 -0.04608,0 -0.04572,0 z"
       id="path3761"
       style="opacity:0.1;fill:#000000;fill-opacity:1;fill-rule:evenodd;stroke:none;display:inline" />
    <path
       d="m 21.184846,1039.7205 a 0.46468199,0.44826929 0 0 0 -0.228614,0.1319 l -2.941501,2.867 a 0.46468199,0.44826929 0 0 0 0,0.6176 l 2.529996,2.47 -2.529996,2.47 a 0.46468199,0.44826929 0 0 0 0,0.6176 l 2.941501,2.867 a 0.46468199,0.44826929 0 0 0 0.655361,0.015 l 2.57572,-2.47 2.499514,2.4554 a 0.46468199,0.44826929 0 0 0 0.670601,0 l 3.032948,-2.9554 a 0.46468199,0.44826929 0 0 0 -0.01524,-0.6321 l -2.514755,-2.3671 2.514755,-2.3672 a 0.46468199,0.44826929 0 0 0 0.01524,-0.6322 l -3.032948,-2.9552 a 0.46468199,0.44826929 0 0 0 -0.670601,0 l -2.499514,2.4553 -2.57572,-2.4701 a 0.46468199,0.44826929 0 0 0 -0.426747,-0.1172 z"
       id="path3757"
       style="opacity:0.15;fill:#000000;fill-opacity:1;fill-rule:evenodd;stroke:none;display:inline" />
    <path
       d="m 18.350031,1048.5863 2.93756,2.867 2.892366,-2.7788 2.847171,2.7788 3.027948,-2.9552 -2.847174,-2.6906 2.847174,-2.6906 -3.027948,-2.9552 -2.847171,2.7788 -2.892366,-2.7788 -2.93756,2.867 2.847176,2.7788 -2.847176,2.7788 z"
       inkscape:connector-curvature="0"
       id="path3751"
       style="opacity:0.3;fill:#000000;fill-opacity:1;fill-rule:evenodd;stroke:none;display:inline" />
    <path
       d="m 18.350031,1048.1158 2.93756,2.867 2.892366,-2.7788 2.847171,2.7788 3.027948,-2.9551 -2.847174,-2.6907 2.847174,-2.6906 -3.027948,-2.9552 -2.847171,2.7788 -2.892366,-2.7788 -2.93756,2.867 2.847176,2.7788 -2.847176,2.7788 z"
       inkscape:connector-curvature="0"
       id="path7165"
       style="fill:url(#linearGradient2966);fill-opacity:1;fill-rule:evenodd;stroke:none;display:inline" />
    <path
       d="m 21.291534,1039.6912 -2.941503,2.867 0.487711,0.4705 2.453792,-2.3965 2.895779,2.7788 2.834815,-2.7788 2.545237,2.47 0.487711,-0.4558 -3.032948,-2.9552 -2.834815,2.7788 -2.895779,-2.7788 z m -0.09502,5.6345 -2.846484,2.7901 0.487711,0.4705 2.362347,-2.3083 -0.0036,-0.9523 z m 6.019633,0.023 -0.01119,0.93 2.362347,2.2348 0.48771,-0.4851 -2.838927,-2.6797 z"
       inkscape:connector-curvature="0"
       id="path2970"
       style="opacity:0.2;fill:#ffffff;fill-opacity:1;fill-rule:evenodd;stroke:none;display:inline" />
    <g
       id="g3991">
      <path
         style="opacity:0.07999998;fill:#000000;fill-opacity:1;stroke:none"
         id="path3770"
         d="m 153.51944,1022.3622 c -1.40137,0 -2.55149,1.0966 -2.55149,2.4328 l 0,3.9381 c -0.46646,-0.4743 -1.11165,-0.7854 -1.8421,-0.7854 l -2.92906,0 c -1.40137,0 -2.55149,1.0966 -2.55149,2.4327 l 0,3.9382 c -0.46646,-0.4743 -1.11166,-0.7855 -1.84211,-0.7855 l -2.92906,0 c -1.40137,0 -2.55148,1.0966 -2.55148,2.4328 l 0,3.9381 c -0.46647,-0.4743 -1.11166,-0.7854 -1.84211,-0.7854 l -2.92906,0 c -1.40137,0 -2.55149,1.0966 -2.55149,2.4327 l 0,8.3782 c 0,1.3361 1.15012,2.4327 2.55149,2.4327 l 2.92906,0 c 0.956,0 1.76021,-0.5279 2.1968,-1.2763 0.43658,0.7484 1.24079,1.2763 2.19679,1.2763 l 2.92906,0 c 0.956,0 1.76022,-0.5279 2.1968,-1.2763 0.43658,0.7484 1.2408,1.2763 2.1968,1.2763 l 2.92906,0 c 0.956,0 1.76021,-0.5279 2.19679,-1.2763 0.43659,0.7484 1.2408,1.2763 2.1968,1.2763 l 2.92906,0 c 1.40137,0 2.55149,-1.0966 2.55149,-2.4327 l 0,-25.1345 c 0,-1.3362 -1.15012,-2.4328 -2.55149,-2.4328 l -2.92906,0 z" />
      <path
         style="opacity:0.1;fill:#000000;fill-opacity:1;stroke:none"
         id="path3766"
         d="m 153.51944,1022.7113 c -1.20205,0 -2.18535,0.9376 -2.18535,2.0837 l 0,25.1345 c 0,1.1461 0.9833,2.0836 2.18535,2.0836 l 2.92906,0 c 1.20205,0 2.18536,-0.9375 2.18536,-2.0836 l 0,-25.1345 c 0,-1.1461 -0.98331,-2.0837 -2.18536,-2.0837 l -2.92906,0 z m -7.32265,5.5855 c -1.20205,0 -2.18536,0.9375 -2.18536,2.0836 l 0,19.5491 c 0,1.1461 0.98331,2.0836 2.18536,2.0836 l 2.92906,0 c 1.20205,0 2.18535,-0.9375 2.18535,-2.0836 l 0,-19.5491 c 0,-1.1461 -0.9833,-2.0836 -2.18535,-2.0836 l -2.92906,0 z m -7.32266,5.5854 c -1.20204,0 -2.18535,0.9376 -2.18535,2.0837 l 0,13.9636 c 0,1.1461 0.98331,2.0836 2.18535,2.0836 l 2.92906,0 c 1.20205,0 2.18536,-0.9375 2.18536,-2.0836 l 0,-13.9636 c 0,-1.1461 -0.98331,-2.0837 -2.18536,-2.0837 l -2.92906,0 z m -7.32265,5.5855 c -1.20205,0 -2.18536,0.9375 -2.18536,2.0836 l 0,8.3782 c 0,1.1461 0.98331,2.0836 2.18536,2.0836 l 2.92906,0 c 1.20205,0 2.18535,-0.9375 2.18535,-2.0836 l 0,-8.3782 c 0,-1.1461 -0.9833,-2.0836 -2.18535,-2.0836 l -2.92906,0 z" />
      <path
         style="opacity:0.15;fill:#000000;fill-opacity:1;stroke:none"
         id="path3762"
         d="m 153.51944,1023.0386 c -1.01176,0 -1.8421,0.7917 -1.8421,1.7564 l 0,25.1345 c 0,0.9647 0.83034,1.7564 1.8421,1.7564 l 2.92906,0 c 1.01176,0 1.84211,-0.7917 1.84211,-1.7564 l 0,-25.1345 c 0,-0.9647 -0.83035,-1.7564 -1.84211,-1.7564 l -2.92906,0 z m -7.32265,5.5854 c -1.01176,0 -1.84211,0.7917 -1.84211,1.7564 l 0,19.5491 c 0,0.9647 0.83035,1.7564 1.84211,1.7564 l 2.92906,0 c 1.01176,0 1.8421,-0.7917 1.8421,-1.7564 l 0,-19.5491 c 0,-0.9647 -0.83034,-1.7564 -1.8421,-1.7564 l -2.92906,0 z m -7.32266,5.5855 c -1.01176,0 -1.8421,0.7917 -1.8421,1.7564 l 0,13.9636 c 0,0.9647 0.83034,1.7564 1.8421,1.7564 l 2.92906,0 c 1.01176,0 1.84211,-0.7917 1.84211,-1.7564 l 0,-13.9636 c 0,-0.9647 -0.83035,-1.7564 -1.84211,-1.7564 l -2.92906,0 z m -7.32265,5.5855 c -1.01176,0 -1.84211,0.7917 -1.84211,1.7563 l 0,8.3782 c 0,0.9647 0.83035,1.7564 1.84211,1.7564 l 2.92906,0 c 1.01176,0 1.84211,-0.7917 1.84211,-1.7564 l 0,-8.3782 c 0,-0.9646 -0.83035,-1.7563 -1.84211,-1.7563 l -2.92906,0 z" />
      <path
         style="opacity:0.3;fill:#000000;fill-opacity:1;stroke:none"
         id="rect3747"
         inkscape:connector-curvature="0"
         d="m 153.51944,1023.3986 c -0.81135,0 -1.46453,0.6228 -1.46453,1.3964 l 0,25.1345 c 0,0.7736 0.65318,1.3964 1.46453,1.3964 l 2.92906,0 c 0.81135,0 1.46453,-0.6228 1.46453,-1.3964 l 0,-25.1345 c 0,-0.7736 -0.65318,-1.3964 -1.46453,-1.3964 l -2.92906,0 z m -7.32265,5.5854 c -0.81135,0 -1.46453,0.6228 -1.46453,1.3964 l 0,19.5491 c 0,0.7736 0.65318,1.3964 1.46453,1.3964 l 2.92906,0 c 0.81135,0 1.46453,-0.6228 1.46453,-1.3964 l 0,-19.5491 c 0,-0.7736 -0.65318,-1.3964 -1.46453,-1.3964 l -2.92906,0 z m -7.32266,5.5855 c -0.81135,0 -1.46453,0.6228 -1.46453,1.3964 l 0,13.9636 c 0,0.7736 0.65318,1.3964 1.46453,1.3964 l 2.92906,0 c 0.81135,0 1.46454,-0.6228 1.46454,-1.3964 l 0,-13.9636 c 0,-0.7736 -0.65319,-1.3964 -1.46454,-1.3964 l -2.92906,0 z m -7.32265,5.5855 c -0.81135,0 -1.46453,0.6227 -1.46453,1.3963 l 0,8.3782 c 0,0.7736 0.65318,1.3964 1.46453,1.3964 l 2.92906,0 c 0.81135,0 1.46453,-0.6228 1.46453,-1.3964 l 0,-8.3782 c 0,-0.7736 -0.65318,-1.3963 -1.46453,-1.3963 l -2.92906,0 z" />
      <rect
         style="fill:url(#linearGradient3985);fill-opacity:1.0;stroke:none"
         id="rect2903-2"
         y="1023.0495"
         x="152.05492"
         ry="1.3963636"
         rx="1.4645308"
         height="27.927273"
         width="5.8581233" />
      <rect
         style="fill:url(#linearGradient3982);fill-opacity:1.0;stroke:none"
         id="rect2905-6"
         y="1028.635"
         x="144.73225"
         ry="1.3963636"
         rx="1.4645308"
         height="22.341818"
         width="5.8581233" />
      <rect
         style="fill:url(#linearGradient3979);fill-opacity:1.0;stroke:none"
         id="rect2907-4"
         y="1034.2205"
         x="137.40961"
         ry="1.3963636"
         rx="1.4645308"
         height="16.756363"
         width="5.8581233" />
      <rect
         style="fill:url(#linearGradient3976);fill-opacity:1.0;stroke:none"
         id="rect2909-5"
         y="1039.8059"
         x="130.08694"
         ry="1.3963636"
         rx="1.4645308"
         height="11.170909"
         width="5.8581233" />
      <path
         style="opacity:0.6;fill:url(#linearGradient3973);fill-opacity:1;stroke:none"
         id="path2939"
         inkscape:connector-curvature="0"
         d="m 153.51944,1023.0495 c -0.81135,0 -1.46453,0.6228 -1.46453,1.3964 l 0,25.1345 c 0,0.628 0.43366,1.1433 1.02975,1.32 -0.39955,-0.1587 -0.67506,-0.5264 -0.67506,-0.9709 l 0,-25.1345 c 0,-0.5927 0.4883,-1.0582 1.10984,-1.0582 l 2.92906,0 c 0.62154,0 1.10984,0.4655 1.10984,1.0582 l 0,25.1345 c 0,0.4445 -0.27551,0.8122 -0.67505,0.9709 0.59609,-0.1767 1.02974,-0.692 1.02974,-1.32 l 0,-25.1345 c 0,-0.7736 -0.65318,-1.3964 -1.46453,-1.3964 l -2.92906,0 z" />
      <path
         style="opacity:0.6;fill:url(#linearGradient3970);fill-opacity:1;stroke:none"
         id="path2937"
         inkscape:connector-curvature="0"
         d="m 146.19679,1028.635 c -0.81135,0 -1.46453,0.6227 -1.46453,1.3963 l 0,19.5491 c 0,0.628 0.43365,1.1433 1.02974,1.32 -0.39954,-0.1587 -0.67505,-0.5264 -0.67505,-0.9709 l 0,-19.5491 c 0,-0.5926 0.4883,-1.0582 1.10984,-1.0582 l 2.92906,0 c 0.62154,0 1.10984,0.4656 1.10984,1.0582 l 0,19.5491 c 0,0.4445 -0.27551,0.8122 -0.67506,0.9709 0.59609,-0.1767 1.02975,-0.692 1.02975,-1.32 l 0,-19.5491 c 0,-0.7736 -0.65318,-1.3963 -1.46453,-1.3963 l -2.92906,0 z" />
      <path
         style="opacity:0.6;fill:url(#linearGradient3967);fill-opacity:1;stroke:none"
         id="path2935"
         inkscape:connector-curvature="0"
         d="m 138.87413,1034.2204 c -0.81135,0 -1.46453,0.6228 -1.46453,1.3964 l 0,13.9636 c 0,0.628 0.43366,1.1433 1.02975,1.32 -0.39955,-0.1587 -0.67506,-0.5264 -0.67506,-0.9709 l 0,-13.9636 c 0,-0.5926 0.48831,-1.0582 1.10984,-1.0582 l 2.92906,0 c 0.62154,0 1.10984,0.4656 1.10984,1.0582 l 0,13.9636 c 0,0.4445 -0.27551,0.8122 -0.67505,0.9709 0.59609,-0.1767 1.02975,-0.692 1.02975,-1.32 l 0,-13.9636 c 0,-0.7736 -0.65319,-1.3964 -1.46454,-1.3964 l -2.92906,0 z" />
      <path
         style="opacity:0.6;fill:url(#linearGradient3964);fill-opacity:1;stroke:none"
         id="rect2912"
         inkscape:connector-curvature="0"
         d="m 131.55148,1039.8059 c -0.81135,0 -1.46453,0.6227 -1.46453,1.3963 l 0,8.3782 c 0,0.628 0.43366,1.1433 1.02975,1.32 -0.39955,-0.1587 -0.67506,-0.5264 -0.67506,-0.9709 l 0,-8.3782 c 0,-0.5926 0.4883,-1.0582 1.10984,-1.0582 l 2.92906,0 c 0.62154,0 1.10984,0.4656 1.10984,1.0582 l 0,8.3782 c 0,0.4445 -0.27551,0.8122 -0.67506,0.9709 0.59609,-0.1767 1.02975,-0.692 1.02975,-1.32 l 0,-8.3782 c 0,-0.7736 -0.65318,-1.3963 -1.46453,-1.3963 l -2.92906,0 z" />
    </g>
    <g
       id="g3950">
      <path
         style="opacity:0.07999998;fill:#000000;fill-opacity:1;stroke:none"
         id="path3726"
         inkscape:connector-curvature="0"
         d="m 114.85771,1027.3362 c -1.47301,0 -2.67984,1.1351 -2.67984,2.5204 l 0,3.9145 c -0.48467,-0.447 -1.14646,-0.7249 -1.87352,-0.7249 l -3.03558,0 c -1.473,0 -2.67984,1.1351 -2.67984,2.5205 l 0,3.9145 c -0.48466,-0.4471 -1.14646,-0.7249 -1.87351,-0.7249 l -3.035578,0 c -1.473003,0 -2.679842,1.135 -2.679842,2.5204 l 0,8.5651 c 0,1.3854 1.206839,2.5204 2.679842,2.5204 l 3.035578,0 c 0.982,0 1.80949,-0.5241 2.27667,-1.2714 0.46719,0.7473 1.29468,1.2714 2.27668,1.2714 l 3.03558,0 c 0.982,0 1.80949,-0.5241 2.27668,-1.2714 0.46719,0.7473 1.29468,1.2714 2.27668,1.2714 l 3.03557,0 c 1.473,0 2.67984,-1.135 2.67984,-2.5204 l 0,-19.9852 c 0,-1.3853 -1.20684,-2.5204 -2.67984,-2.5204 l -3.03557,0 z" />
      <path
         style="opacity:0.1;fill:#000000;fill-opacity:1;stroke:none"
         id="path3766-0"
         inkscape:connector-curvature="0"
         d="m 114.85771,1027.7265 c -1.24576,0 -2.26482,0.9585 -2.26482,2.1301 l 0,19.9852 c 0,1.1716 1.01906,2.1301 2.26482,2.1301 l 3.03557,0 c 1.24576,0 2.26482,-0.9585 2.26482,-2.1301 l 0,-19.9852 c 0,-1.1716 -1.01906,-2.1301 -2.26482,-2.1301 l -3.03557,0 z m -7.58894,5.7101 c -1.24575,0 -2.26482,0.9584 -2.26482,2.1301 l 0,14.2751 c 0,1.1716 1.01907,2.1301 2.26482,2.1301 l 3.03558,0 c 1.24576,0 2.26482,-0.9585 2.26482,-2.1301 l 0,-14.2751 c 0,-1.1717 -1.01906,-2.1301 -2.26482,-2.1301 l -3.03558,0 z m -7.588928,5.71 c -1.245758,0 -2.264822,0.9585 -2.264822,2.1301 l 0,8.5651 c 0,1.1716 1.019064,2.1301 2.264822,2.1301 l 3.035578,0 c 1.24575,0 2.26482,-0.9585 2.26482,-2.1301 l 0,-8.5651 c 0,-1.1716 -1.01907,-2.1301 -2.26482,-2.1301 l -3.035578,0 z" />
      <path
         style="opacity:0.15;fill:#000000;fill-opacity:1;stroke:none"
         id="path3762-4"
         inkscape:connector-curvature="0"
         d="m 114.85771,1028.0611 c -1.04855,0 -1.90909,0.8094 -1.90909,1.7955 l 0,19.9852 c 0,0.9862 0.86054,1.7955 1.90909,1.7955 l 3.03557,0 c 1.04855,0 1.90909,-0.8093 1.90909,-1.7955 l 0,-19.9852 c 0,-0.9861 -0.86054,-1.7955 -1.90909,-1.7955 l -3.03557,0 z m -7.58894,5.71 c -1.04854,0 -1.90909,0.8094 -1.90909,1.7956 l 0,14.2751 c 0,0.9862 0.86055,1.7955 1.90909,1.7955 l 3.03558,0 c 1.04855,0 1.90909,-0.8093 1.90909,-1.7955 l 0,-14.2751 c 0,-0.9862 -0.86054,-1.7956 -1.90909,-1.7956 l -3.03558,0 z m -7.588928,5.7101 c -1.04855,0 -1.909091,0.8093 -1.909091,1.7955 l 0,8.5651 c 0,0.9862 0.860541,1.7955 1.909091,1.7955 l 3.035578,0 c 1.04854,0 1.90909,-0.8093 1.90909,-1.7955 l 0,-8.5651 c 0,-0.9862 -0.86055,-1.7955 -1.90909,-1.7955 l -3.035578,0 z" />
      <path
         style="opacity:0.3;fill:#000000;fill-opacity:1;stroke:none"
         id="rect3747-6"
         inkscape:connector-curvature="0"
         d="m 114.85771,1028.4291 c -0.84086,0 -1.51779,0.6367 -1.51779,1.4275 l 0,19.9852 c 0,0.7908 0.67693,1.4275 1.51779,1.4275 l 3.03557,0 c 0.84085,0 1.51779,-0.6367 1.51779,-1.4275 l 0,-19.9852 c 0,-0.7908 -0.67694,-1.4275 -1.51779,-1.4275 l -3.03557,0 z m -7.58894,5.7101 c -0.84085,0 -1.51778,0.6366 -1.51778,1.4275 l 0,14.2751 c 0,0.7908 0.67693,1.4275 1.51778,1.4275 l 3.03558,0 c 0.84085,0 1.51778,-0.6367 1.51778,-1.4275 l 0,-14.2751 c 0,-0.7909 -0.67693,-1.4275 -1.51778,-1.4275 l -3.03558,0 z m -7.588928,5.71 c -0.840854,0 -1.517787,0.6367 -1.517787,1.4275 l 0,8.5651 c 0,0.7908 0.676933,1.4275 1.517787,1.4275 l 3.035578,0 c 0.84085,0 1.51778,-0.6367 1.51778,-1.4275 l 0,-8.5651 c 0,-0.7908 -0.67693,-1.4275 -1.51778,-1.4275 l -3.035578,0 z" />
      <rect
         style="opacity:0.2;fill:#ffffff;fill-opacity:1;stroke:none"
         id="rect2903-7"
         y="1022.3622"
         x="120.92886"
         ry="1.4275093"
         rx="1.5177865"
         height="28.550186"
         width="6.071146" />
      <rect
         style="fill:url(#linearGradient3943);fill-opacity:1.0;stroke:none"
         id="rect2905-60"
         y="1028.0723"
         x="113.33992"
         ry="1.4275093"
         rx="1.5177865"
         height="22.840149"
         width="6.071146" />
      <rect
         style="fill:url(#linearGradient3940);fill-opacity:1.0;stroke:none"
         id="rect2907-9"
         y="1033.7822"
         x="105.75099"
         ry="1.4275093"
         rx="1.5177865"
         height="17.130112"
         width="6.071146" />
      <rect
         style="fill:url(#linearGradient3937);fill-opacity:1.0;stroke:none"
         id="rect2909-7"
         y="1039.4923"
         x="98.162056"
         ry="1.4275093"
         rx="1.5177865"
         height="11.420074"
         width="6.071146" />
      <path
         style="opacity:0.6;fill:url(#linearGradient3934);fill-opacity:1;stroke:none"
         id="path2937-5"
         inkscape:connector-curvature="0"
         d="m 114.85771,1028.0722 c -0.84086,0 -1.51779,0.6367 -1.51779,1.4275 l 0,19.9852 c 0,0.642 0.44943,1.1687 1.06719,1.3494 -0.41407,-0.1622 -0.6996,-0.5382 -0.6996,-0.9925 l 0,-19.9852 c 0,-0.6058 0.50606,-1.0818 1.1502,-1.0818 l 3.03557,0 c 0.64414,0 1.1502,0.476 1.1502,1.0818 l 0,19.9852 c 0,0.4543 -0.28553,0.8303 -0.69961,0.9925 0.61777,-0.1807 1.0672,-0.7074 1.0672,-1.3494 l 0,-19.9852 c 0,-0.7908 -0.67694,-1.4275 -1.51779,-1.4275 l -3.03557,0 z" />
      <path
         style="opacity:0.6;fill:url(#linearGradient3931);fill-opacity:1;stroke:none"
         id="path2935-9"
         inkscape:connector-curvature="0"
         d="m 107.26877,1033.7823 c -0.84085,0 -1.51778,0.6366 -1.51778,1.4275 l 0,14.2751 c 0,0.642 0.44943,1.1687 1.06719,1.3494 -0.41407,-0.1622 -0.6996,-0.5382 -0.6996,-0.9925 l 0,-14.2751 c 0,-0.6059 0.50606,-1.0818 1.15019,-1.0818 l 3.03558,0 c 0.64414,0 1.1502,0.4759 1.1502,1.0818 l 0,14.2751 c 0,0.4543 -0.28553,0.8303 -0.69961,0.9925 0.61777,-0.1807 1.06719,-0.7074 1.06719,-1.3494 l 0,-14.2751 c 0,-0.7909 -0.67693,-1.4275 -1.51778,-1.4275 l -3.03558,0 z" />
      <path
         style="opacity:0.6;fill:url(#linearGradient3928);fill-opacity:1;stroke:none"
         id="rect2912-7"
         inkscape:connector-curvature="0"
         d="m 99.679842,1039.4923 c -0.840854,0 -1.517787,0.6367 -1.517787,1.4275 l 0,8.5651 c 0,0.642 0.449428,1.1687 1.067194,1.3494 -0.414075,-0.1622 -0.699605,-0.5382 -0.699605,-0.9925 l 0,-8.5651 c 0,-0.6058 0.50606,-1.0818 1.150198,-1.0818 l 3.035578,0 c 0.64413,0 1.15019,0.476 1.15019,1.0818 l 0,8.5651 c 0,0.4543 -0.28553,0.8303 -0.6996,0.9925 0.61776,-0.1807 1.06719,-0.7074 1.06719,-1.3494 l 0,-8.5651 c 0,-0.7908 -0.67693,-1.4275 -1.51778,-1.4275 l -3.035578,0 z" />
    </g>
    <g
       id="g3886">
      <path
         style="opacity:0.07999998;fill:#000000;fill-opacity:1;stroke:none"
         id="path3791"
         d="m 35.658228,1038.7907 c -1.459616,0 -2.658228,1.1273 -2.658228,2.5 l 0,8.5714 c 0,1.3728 1.198612,2.5 2.658228,2.5 l 3.037974,0 c 1.459617,0 2.658228,-1.1272 2.658228,-2.5 l 0,-8.5714 c 0,-1.3727 -1.198611,-2.5 -2.658228,-2.5 l -3.037974,0 z" />
      <path
         style="opacity:0.1;fill:#000000;fill-opacity:1;stroke:none"
         id="path3766-1"
         inkscape:connector-curvature="0"
         d="m 35.658228,1039.159 c -1.246744,0 -2.266614,0.9592 -2.266614,2.1317 l 0,8.5714 c 0,1.1726 1.01987,2.1317 2.266614,2.1317 l 3.037974,0 c 1.246744,0 2.266614,-0.9591 2.266614,-2.1317 l 0,-8.5714 c 0,-1.1725 -1.01987,-2.1317 -2.266614,-2.1317 l -3.037974,0 z" />
      <path
         style="opacity:0.15;fill:#000000;fill-opacity:1;stroke:none"
         id="path3762-9"
         inkscape:connector-curvature="0"
         d="m 35.658228,1039.4938 c -1.049379,0 -1.910602,0.81 -1.910602,1.7969 l 0,8.5714 c 0,0.987 0.861223,1.7969 1.910602,1.7969 l 3.037974,0 c 1.04938,0 1.910602,-0.8099 1.910602,-1.7969 l 0,-8.5714 c 0,-0.9869 -0.861222,-1.7969 -1.910602,-1.7969 l -3.037974,0 z" />
      <path
         style="opacity:0.3;fill:#000000;fill-opacity:1;stroke:none"
         id="rect3747-0"
         inkscape:connector-curvature="0"
         d="m 35.658228,1039.8621 c -0.841519,0 -1.518988,0.6372 -1.518988,1.4286 l 0,8.5714 c 0,0.7915 0.677469,1.4286 1.518988,1.4286 l 3.037974,0 c 0.841519,0 1.518988,-0.6371 1.518988,-1.4286 l 0,-8.5714 c 0,-0.7914 -0.677469,-1.4286 -1.518988,-1.4286 l -3.037974,0 z" />
      <rect
         style="opacity:0.2;fill:#ffffff;fill-opacity:1;stroke:none"
         id="rect2903-9"
         y="1022.3622"
         x="56.924049"
         ry="1.4285715"
         rx="1.5189874"
         height="28.571428"
         width="6.0759497" />
      <rect
         style="opacity:0.2;fill:#ffffff;fill-opacity:1;stroke:none"
         id="rect2905-8"
         y="1028.0764"
         x="49.329113"
         ry="1.4285715"
         rx="1.5189874"
         height="22.857143"
         width="6.0759497" />
      <rect
         style="opacity:0.2;fill:#ffffff;fill-opacity:1;stroke:none"
         id="rect2907-8"
         y="1033.7908"
         x="41.734177"
         ry="1.4285715"
         rx="1.5189874"
         height="17.142857"
         width="6.0759497" />
      <rect
         style="fill:url(#linearGradient3105);fill-opacity:1;stroke:none"
         id="rect2909-58"
         y="1039.505"
         x="34.13924"
         ry="1.4285715"
         rx="1.5189874"
         height="11.428572"
         width="6.0759497" />
      <path
         style="opacity:0.6;fill:url(#linearGradient3102);fill-opacity:1;stroke:none"
         id="rect2912-4"
         inkscape:connector-curvature="0"
         d="m 35.658228,1039.505 c -0.841519,0 -1.518988,0.6372 -1.518988,1.4286 l 0,8.5714 c 0,0.6425 0.449783,1.1697 1.068038,1.3505 -0.414402,-0.1624 -0.700158,-0.5386 -0.700158,-0.9933 l 0,-8.5715 c 0,-0.6062 0.50646,-1.0825 1.151108,-1.0825 l 3.037974,0 c 0.644648,0 1.151108,0.4763 1.151108,1.0825 l 0,8.5715 c 0,0.4547 -0.285756,0.8309 -0.700158,0.9933 0.618255,-0.1808 1.068038,-0.708 1.068038,-1.3505 l 0,-8.5714 c 0,-0.7914 -0.677469,-1.4286 -1.518988,-1.4286 l -3.037974,0 z" />
    </g>
    <g
       id="g3915">
      <path
         style="opacity:0.07999998;fill:#000000;fill-opacity:1;stroke:none"
         id="path2918"
         d="m 75.260972,1033.0614 c -1.465426,0 -2.669039,1.132 -2.669039,2.5103 l 0,3.9382 c -0.483726,-0.4549 -1.153408,-0.7363 -1.886121,-0.7363 l -3.036773,0 c -1.465427,0 -2.66904,1.132 -2.66904,2.5102 l 0,8.5683 c 0,1.3782 1.203613,2.5102 2.66904,2.5102 l 3.036773,0 c 0.982822,0 1.814821,-0.5323 2.27758,-1.283 0.462759,0.7507 1.294758,1.283 2.27758,1.283 l 3.036774,0 c 1.465426,0 2.669039,-1.132 2.669039,-2.5102 l 0,-14.2804 c 0,-1.3783 -1.203613,-2.5103 -2.669039,-2.5103 l -3.036774,0 z" />
      <path
         style="opacity:0.1;fill:#000000;fill-opacity:1;stroke:none"
         id="path3766-02"
         inkscape:connector-curvature="0"
         d="m 75.260972,1033.4407 c -1.24625,0 -2.265718,0.9589 -2.265718,2.131 l 0,14.2804 c 0,1.172 1.019468,2.1309 2.265718,2.1309 l 3.036774,0 c 1.24625,0 2.265717,-0.9589 2.265717,-2.1309 l 0,-14.2804 c 0,-1.1721 -1.019467,-2.131 -2.265717,-2.131 l -3.036774,0 z m -7.591933,5.7122 c -1.246251,0 -2.265718,0.9588 -2.265718,2.1309 l 0,8.5683 c 0,1.172 1.019467,2.1309 2.265718,2.1309 l 3.036773,0 c 1.24625,0 2.265718,-0.9589 2.265718,-2.1309 l 0,-8.5683 c 0,-1.1721 -1.019468,-2.1309 -2.265718,-2.1309 l -3.036773,0 z" />
      <path
         style="opacity:0.15;fill:#000000;fill-opacity:1;stroke:none"
         id="path3762-1"
         inkscape:connector-curvature="0"
         d="m 75.260972,1033.7754 c -1.048964,0 -1.909846,0.8097 -1.909846,1.7963 l 0,14.2804 c 0,0.9865 0.860882,1.7962 1.909846,1.7962 l 3.036774,0 c 1.048964,0 1.909845,-0.8097 1.909845,-1.7962 l 0,-14.2804 c 0,-0.9866 -0.860881,-1.7963 -1.909845,-1.7963 l -3.036774,0 z m -7.591933,5.7122 c -1.048965,0 -1.909846,0.8097 -1.909846,1.7962 l 0,8.5683 c 0,0.9865 0.860881,1.7962 1.909846,1.7962 l 3.036773,0 c 1.048964,0 1.909846,-0.8097 1.909846,-1.7962 l 0,-8.5683 c 0,-0.9865 -0.860882,-1.7962 -1.909846,-1.7962 l -3.036773,0 z" />
      <path
         style="opacity:0.3;fill:#000000;fill-opacity:1;stroke:none"
         id="rect3747-7"
         inkscape:connector-curvature="0"
         d="m 75.260972,1034.1436 c -0.841186,0 -1.518387,0.6369 -1.518387,1.4281 l 0,14.2804 c 0,0.7911 0.677201,1.428 1.518387,1.428 l 3.036774,0 c 0.841186,0 1.518386,-0.6369 1.518386,-1.428 l 0,-14.2804 c 0,-0.7912 -0.6772,-1.4281 -1.518386,-1.4281 l -3.036774,0 z m -7.591933,5.7122 c -0.841187,0 -1.518387,0.6369 -1.518387,1.428 l 0,8.5683 c 0,0.7911 0.6772,1.428 1.518387,1.428 l 3.036773,0 c 0.841186,0 1.518387,-0.6369 1.518387,-1.428 l 0,-8.5683 c 0,-0.7911 -0.677201,-1.428 -1.518387,-1.428 l -3.036773,0 z" />
      <rect
         style="opacity:0.2;fill:#ffffff;fill-opacity:1;stroke:none"
         id="rect2903-5"
         y="1022.3622"
         x="88.926453"
         ry="1.4280401"
         rx="1.5183867"
         height="28.560802"
         width="6.0735469" />
      <rect
         style="opacity:0.2;fill:#ffffff;fill-opacity:1;stroke:none"
         id="rect2905-1"
         y="1028.0743"
         x="81.334518"
         ry="1.4280401"
         rx="1.5183867"
         height="22.848642"
         width="6.0735469" />
      <rect
         style="fill:url(#linearGradient3907);fill-opacity:1.0;stroke:none"
         id="rect2907-7"
         y="1033.7865"
         x="73.742584"
         ry="1.4280401"
         rx="1.5183867"
         height="17.136482"
         width="6.0735469" />
      <rect
         style="fill:url(#linearGradient3904);fill-opacity:1.0;stroke:none"
         id="rect2909-4"
         y="1039.4988"
         x="66.15065"
         ry="1.4280401"
         rx="1.5183867"
         height="11.424321"
         width="6.0735469" />
      <path
         style="opacity:0.6;fill:url(#linearGradient3901);fill-opacity:1;stroke:none"
         id="path2935-1"
         inkscape:connector-curvature="0"
         d="m 75.260972,1033.7866 c -0.841186,0 -1.518387,0.6369 -1.518387,1.428 l 0,14.2804 c 0,0.6422 0.449605,1.1692 1.067616,1.3499 -0.414239,-0.1623 -0.699881,-0.5384 -0.699881,-0.9929 l 0,-14.2804 c 0,-0.606 0.506259,-1.0822 1.150652,-1.0822 l 3.036774,0 c 0.644392,0 1.150652,0.4762 1.150652,1.0822 l 0,14.2804 c 0,0.4545 -0.285643,0.8306 -0.699881,0.9929 0.61801,-0.1807 1.067615,-0.7077 1.067615,-1.3499 l 0,-14.2804 c 0,-0.7911 -0.6772,-1.428 -1.518386,-1.428 l -3.036774,0 z" />
      <path
         style="opacity:0.6;fill:url(#linearGradient3898);fill-opacity:1;stroke:none"
         id="rect2912-71"
         inkscape:connector-curvature="0"
         d="m 67.669039,1039.4987 c -0.841187,0 -1.518387,0.6369 -1.518387,1.4281 l 0,8.5682 c 0,0.6422 0.449605,1.1692 1.067615,1.3499 -0.414238,-0.1623 -0.699881,-0.5384 -0.699881,-0.9929 l 0,-8.5682 c 0,-0.6061 0.50626,-1.0822 1.150653,-1.0822 l 3.036773,0 c 0.644393,0 1.150652,0.4761 1.150652,1.0822 l 0,8.5682 c 0,0.4545 -0.285642,0.8306 -0.699881,0.9929 0.618011,-0.1807 1.067616,-0.7077 1.067616,-1.3499 l 0,-8.5682 c 0,-0.7912 -0.677201,-1.4281 -1.518387,-1.4281 l -3.036773,0 z" />
    </g>
  </g>
</svg>
