<?xml version="1.0" encoding="UTF-8" standalone="no"?>
<!-- Generator: Adobe Illustrator 12.0.0, SVG Export Plug-In . SVG Version: 6.00 Build 51448)  -->

<svg
   xmlns:dc="http://purl.org/dc/elements/1.1/"
   xmlns:cc="http://creativecommons.org/ns#"
   xmlns:rdf="http://www.w3.org/1999/02/22-rdf-syntax-ns#"
   xmlns:svg="http://www.w3.org/2000/svg"
   xmlns="http://www.w3.org/2000/svg"
   xmlns:xlink="http://www.w3.org/1999/xlink"
   xmlns:sodipodi="http://sodipodi.sourceforge.net/DTD/sodipodi-0.dtd"
   xmlns:inkscape="http://www.inkscape.org/namespaces/inkscape"
   version="1.1"
   id="Í_xBC__xB2_ã_x5F_1"
   width="78"
   height="78"
   viewBox="0 0 78 78.000001"
   style="overflow:visible"
   xml:space="preserve"
   inkscape:version="0.47 r22583"
   sodipodi:docname="options-hide.svg"
   inkscape:export-filename="/home/francesco/neo_freerunner/qtmoko/faenqomod/svg/options-hide.png"
   inkscape:export-xdpi="90"
   inkscape:export-ydpi="90"><metadata
   id="metadata44"><rdf:RDF><cc:Work
       rdf:about=""><dc:format>image/svg+xml</dc:format><dc:type
         rdf:resource="http://purl.org/dc/dcmitype/StillImage" /><dc:title></dc:title></cc:Work></rdf:RDF></metadata><defs
   id="defs42"><linearGradient
     id="linearGradient4088"><stop
       style="stop-color:#d6d6d6;stop-opacity:1;"
       offset="0"
       id="stop4090" /><stop
       style="stop-color:#b1b1b1;stop-opacity:1;"
       offset="1"
       id="stop4092" /></linearGradient><inkscape:perspective
     sodipodi:type="inkscape:persp3d"
     inkscape:vp_x="0 : 8.7674999 : 1"
     inkscape:vp_y="0 : 1000 : 0"
     inkscape:vp_z="15.207 : 8.7674999 : 1"
     inkscape:persp3d-origin="7.6034999 : 5.8449999 : 1"
     id="perspective46" /><linearGradient
     gradientUnits="userSpaceOnUse"
     xlink:href="#linearGradient4081"
     id="linearGradient3818"
     y2="23.729059"
     x2="49"
     y1="70"
     x1="49" /><linearGradient
     id="linearGradient4081"><stop
       offset="0"
       style="stop-color:#aaaaaa;stop-opacity:1"
       id="stop4083" /><stop
       offset="1"
       style="stop-color:#f0f0f0;stop-opacity:1"
       id="stop4085" /></linearGradient><filter
     id="filter3657"
     color-interpolation-filters="sRGB"><feGaussianBlur
       stdDeviation="1.14"
       id="feGaussianBlur3659" /></filter><clipPath
     id="clipPath3649"><rect
       style="fill:#ffffff;fill-opacity:1;fill-rule:nonzero;stroke:none"
       id="rect3651"
       y="10"
       x="10"
       ry="4"
       rx="4"
       height="76"
       width="76" /></clipPath><linearGradient
     gradientUnits="userSpaceOnUse"
     xlink:href="#linearGradient3637"
     id="linearGradient3643"
     y2="90.015434"
     x2="44.512066"
     y1="6"
     x1="44.512066" /><clipPath
     id="clipPath3625"><path
       style="fill:#ffffff;fill-opacity:1;stroke:none"
       id="path3627"
       inkscape:connector-curvature="0"
       d="M 0,0 0,96 96,96 96,0 0,0 z m 12,6 72,0 c 3.324,0 6,2.676 6,6 l 0,72 c 0,3.324 -2.676,6 -6,6 L 12,90 C 8.676,90 6,87.324 6,84 L 6,12 C 6,8.676 8.676,6 12,6 z" /></clipPath><linearGradient
     gradientTransform="translate(0,100)"
     gradientUnits="userSpaceOnUse"
     xlink:href="#linearGradient3700"
     id="linearGradient2843"
     y2="5.9877172"
     x2="48"
     y1="90"
     x1="48" /><radialGradient
     gradientTransform="matrix(1.1573129,0,0,0.99590774,-7.5510206,0.19713193)"
     gradientUnits="userSpaceOnUse"
     xlink:href="#linearGradient3737"
     id="radialGradient3619"
     fy="90.171875"
     fx="48"
     r="42"
     cy="90.171875"
     cx="48" /><linearGradient
     gradientUnits="userSpaceOnUse"
     xlink:href="#linearGradient3737"
     id="linearGradient3188"
     y2="63.893143"
     x2="36.357143"
     y1="6"
     x1="36.357143" /><filter
     id="filter3174"
     color-interpolation-filters="sRGB"><feGaussianBlur
       stdDeviation="1.71"
       id="feGaussianBlur3176" /></filter><linearGradient
     id="linearGradient3700"><stop
       offset="0"
       style="stop-color:#2276c5;stop-opacity:1"
       id="stop3702" /><stop
       offset="1"
       style="stop-color:#68baf4;stop-opacity:1"
       id="stop3704" /></linearGradient><linearGradient
     id="linearGradient3737"><stop
       offset="0"
       style="stop-color:#ffffff;stop-opacity:1"
       id="stop3739" /><stop
       offset="1"
       style="stop-color:#ffffff;stop-opacity:0"
       id="stop3741" /></linearGradient><linearGradient
     gradientTransform="scale(1.0058652,0.994169)"
     gradientUnits="userSpaceOnUse"
     id="ButtonShadow"
     y2="7.0165396"
     x2="45.447727"
     y1="92.539597"
     x1="45.447727"><stop
       offset="0"
       style="stop-color:#000000;stop-opacity:1"
       id="stop3750" /><stop
       offset="1"
       style="stop-color:#000000;stop-opacity:0.58823532"
       id="stop3752" /></linearGradient><linearGradient
     id="linearGradient3637"><stop
       offset="0"
       style="stop-color:#f0f0f0;stop-opacity:1"
       id="stop3639" /><stop
       offset="1"
       style="stop-color:#dcdcdc;stop-opacity:1"
       id="stop3641" /></linearGradient><inkscape:perspective
     id="perspective2905"
     inkscape:persp3d-origin="48 : 32 : 1"
     inkscape:vp_z="96 : 48 : 1"
     inkscape:vp_y="0 : 1000 : 0"
     inkscape:vp_x="0 : 48 : 1"
     sodipodi:type="inkscape:persp3d" /><linearGradient
     gradientTransform="matrix(2.219335,0,0,2.6093033,4.655865,19.194341)"
     gradientUnits="userSpaceOnUse"
     xlink:href="#linearGradient4081-7"
     id="linearGradient2862"
     y2="1.8417403"
     x2="19.530235"
     y1="20.237455"
     x1="19.530235" /><linearGradient
     id="linearGradient4081-7"><stop
       offset="0"
       style="stop-color:#aaaaaa;stop-opacity:1"
       id="stop4083-2" /><stop
       offset="1"
       style="stop-color:#f0f0f0;stop-opacity:1"
       id="stop4085-8" /></linearGradient><filter
     id="filter3657-9"
     color-interpolation-filters="sRGB"><feGaussianBlur
       stdDeviation="1.14"
       id="feGaussianBlur3659-8" /></filter><clipPath
     id="clipPath3649-5"><rect
       style="fill:#ffffff;fill-opacity:1;fill-rule:nonzero;stroke:none"
       id="rect3651-6"
       y="10"
       x="10"
       ry="4"
       rx="4"
       height="76"
       width="76" /></clipPath><linearGradient
     gradientUnits="userSpaceOnUse"
     xlink:href="#linearGradient3637-9"
     id="linearGradient3643-7"
     y2="90.015434"
     x2="44.512066"
     y1="6"
     x1="44.512066" /><clipPath
     id="clipPath3625-2"><path
       style="fill:#ffffff;fill-opacity:1;stroke:none"
       id="path3627-6"
       inkscape:connector-curvature="0"
       d="M 0,0 0,96 96,96 96,0 0,0 z m 12,6 72,0 c 3.324,0 6,2.676 6,6 l 0,72 c 0,3.324 -2.676,6 -6,6 L 12,90 C 8.676,90 6,87.324 6,84 L 6,12 C 6,8.676 8.676,6 12,6 z" /></clipPath><linearGradient
     gradientTransform="translate(0,100)"
     gradientUnits="userSpaceOnUse"
     xlink:href="#linearGradient3700-5"
     id="linearGradient2843-6"
     y2="5.9877172"
     x2="48"
     y1="90"
     x1="48" /><radialGradient
     gradientTransform="matrix(1.1573129,0,0,0.99590774,-7.5510206,0.19713193)"
     gradientUnits="userSpaceOnUse"
     xlink:href="#linearGradient3737-3"
     id="radialGradient3619-4"
     fy="90.171875"
     fx="48"
     r="42"
     cy="90.171875"
     cx="48" /><linearGradient
     gradientUnits="userSpaceOnUse"
     xlink:href="#linearGradient3737-3"
     id="linearGradient3188-0"
     y2="63.893143"
     x2="36.357143"
     y1="6"
     x1="36.357143" /><filter
     id="filter3174-4"
     color-interpolation-filters="sRGB"><feGaussianBlur
       stdDeviation="1.71"
       id="feGaussianBlur3176-0" /></filter><linearGradient
     id="linearGradient3700-5"><stop
       offset="0"
       style="stop-color:#2276c5;stop-opacity:1"
       id="stop3702-6" /><stop
       offset="1"
       style="stop-color:#68baf4;stop-opacity:1"
       id="stop3704-6" /></linearGradient><linearGradient
     id="linearGradient3737-3"><stop
       offset="0"
       style="stop-color:#ffffff;stop-opacity:1"
       id="stop3739-8" /><stop
       offset="1"
       style="stop-color:#ffffff;stop-opacity:0"
       id="stop3741-0" /></linearGradient><linearGradient
     gradientTransform="scale(1.0058652,0.994169)"
     gradientUnits="userSpaceOnUse"
     id="ButtonShadow-6"
     y2="7.0165396"
     x2="45.447727"
     y1="92.539597"
     x1="45.447727"><stop
       offset="0"
       style="stop-color:#000000;stop-opacity:1"
       id="stop3750-9" /><stop
       offset="1"
       style="stop-color:#000000;stop-opacity:0.58823532"
       id="stop3752-3" /></linearGradient><linearGradient
     id="linearGradient3637-9"><stop
       offset="0"
       style="stop-color:#f0f0f0;stop-opacity:1"
       id="stop3639-1" /><stop
       offset="1"
       style="stop-color:#dcdcdc;stop-opacity:1"
       id="stop3641-9" /></linearGradient><inkscape:perspective
     id="perspective3057"
     inkscape:persp3d-origin="48 : 32 : 1"
     inkscape:vp_z="96 : 48 : 1"
     inkscape:vp_y="0 : 1000 : 0"
     inkscape:vp_x="0 : 48 : 1"
     sodipodi:type="inkscape:persp3d" /><linearGradient
     inkscape:collect="always"
     xlink:href="#ButtonShadow-6"
     id="linearGradient3133"
     gradientUnits="userSpaceOnUse"
     gradientTransform="scale(1.0058652,0.994169)"
     x1="45.447727"
     y1="92.539597"
     x2="45.447727"
     y2="7.0165396" /><linearGradient
     inkscape:collect="always"
     xlink:href="#ButtonShadow-6"
     id="linearGradient3166"
     gradientUnits="userSpaceOnUse"
     gradientTransform="scale(1.0058652,0.994169)"
     x1="45.447727"
     y1="92.539597"
     x2="45.447727"
     y2="7.0165396" /><linearGradient
     inkscape:collect="always"
     xlink:href="#linearGradient4081-7"
     id="linearGradient3203"
     gradientUnits="userSpaceOnUse"
     gradientTransform="matrix(0.41549791,0,0,0.48850672,13.639818,26.409781)"
     x1="19.530235"
     y1="20.237455"
     x2="19.530235"
     y2="1.8417403" /><radialGradient
     inkscape:collect="always"
     xlink:href="#linearGradient3737-3"
     id="radialGradient3224"
     gradientUnits="userSpaceOnUse"
     gradientTransform="matrix(0.216669,0,0,0.18645116,11.354478,22.853174)"
     cx="48"
     cy="90.171875"
     fx="48"
     fy="90.171875"
     r="42" /><linearGradient
     inkscape:collect="always"
     xlink:href="#linearGradient3737-3"
     id="linearGradient3227"
     gradientUnits="userSpaceOnUse"
     x1="36.357143"
     y1="6"
     x2="36.357143"
     y2="63.893143"
     gradientTransform="matrix(0.1872173,0,0,0.1872173,12.76816,22.816268)" /><linearGradient
     inkscape:collect="always"
     xlink:href="#linearGradient3637-9"
     id="linearGradient3230"
     gradientUnits="userSpaceOnUse"
     x1="44.512066"
     y1="6"
     x2="44.512066"
     y2="90.015434"
     gradientTransform="matrix(0.1872173,0,0,0.1872173,12.76816,22.816268)" /><linearGradient
     inkscape:collect="always"
     xlink:href="#ButtonShadow-6"
     id="linearGradient3234"
     gradientUnits="userSpaceOnUse"
     gradientTransform="scale(1.0058652,0.994169)"
     x1="45.447727"
     y1="92.539597"
     x2="45.447727"
     y2="7.0165396" /><linearGradient
     inkscape:collect="always"
     xlink:href="#ButtonShadow-6"
     id="linearGradient3237"
     gradientUnits="userSpaceOnUse"
     gradientTransform="scale(1.0058652,0.994169)"
     x1="45.447727"
     y1="92.539597"
     x2="45.447727"
     y2="7.0165396" /><linearGradient
     inkscape:collect="always"
     xlink:href="#ButtonShadow"
     id="linearGradient3241"
     gradientUnits="userSpaceOnUse"
     gradientTransform="scale(1.0058652,0.994169)"
     x1="45.447727"
     y1="92.539597"
     x2="45.447727"
     y2="7.0165396" /><linearGradient
     inkscape:collect="always"
     xlink:href="#linearGradient4081-7"
     id="linearGradient3251"
     gradientUnits="userSpaceOnUse"
     gradientTransform="matrix(0.41549791,0,0,0.48850672,13.639818,26.409781)"
     x1="19.530235"
     y1="20.237455"
     x2="19.530235"
     y2="1.8417403" /><inkscape:perspective
     id="perspective4074"
     inkscape:persp3d-origin="0.5 : 0.33333333 : 1"
     inkscape:vp_z="1 : 0.5 : 1"
     inkscape:vp_y="0 : 1000 : 0"
     inkscape:vp_x="0 : 0.5 : 1"
     sodipodi:type="inkscape:persp3d" /><linearGradient
     inkscape:collect="always"
     xlink:href="#linearGradient4088"
     id="linearGradient4094"
     x1="38.84621"
     y1="17.15625"
     x2="38.769268"
     y2="22.34375"
     gradientUnits="userSpaceOnUse" /><inkscape:perspective
     id="perspective4112"
     inkscape:persp3d-origin="0.5 : 0.33333333 : 1"
     inkscape:vp_z="1 : 0.5 : 1"
     inkscape:vp_y="0 : 1000 : 0"
     inkscape:vp_x="0 : 0.5 : 1"
     sodipodi:type="inkscape:persp3d" /><linearGradient
     id="linearGradient4088-3"><stop
       style="stop-color:#d6d6d6;stop-opacity:1;"
       offset="0"
       id="stop4090-1" /><stop
       style="stop-color:#b1b1b1;stop-opacity:1;"
       offset="1"
       id="stop4092-2" /></linearGradient><linearGradient
     inkscape:collect="always"
     xlink:href="#linearGradient4088-3"
     id="linearGradient4094-8"
     x1="38.84621"
     y1="17.15625"
     x2="38.769268"
     y2="22.34375"
     gradientUnits="userSpaceOnUse" /><linearGradient
     id="linearGradient4121"><stop
       style="stop-color:#d6d6d6;stop-opacity:1;"
       offset="0"
       id="stop4123" /><stop
       style="stop-color:#b1b1b1;stop-opacity:1;"
       offset="1"
       id="stop4125" /></linearGradient><inkscape:perspective
     id="perspective4168"
     inkscape:persp3d-origin="0.5 : 0.33333333 : 1"
     inkscape:vp_z="1 : 0.5 : 1"
     inkscape:vp_y="0 : 1000 : 0"
     inkscape:vp_x="0 : 0.5 : 1"
     sodipodi:type="inkscape:persp3d" /><linearGradient
     id="linearGradient4088-5"><stop
       style="stop-color:#d6d6d6;stop-opacity:1;"
       offset="0"
       id="stop4090-16" /><stop
       style="stop-color:#b1b1b1;stop-opacity:1;"
       offset="1"
       id="stop4092-7" /></linearGradient><linearGradient
     inkscape:collect="always"
     xlink:href="#linearGradient4088-5"
     id="linearGradient4094-9"
     x1="38.84621"
     y1="17.15625"
     x2="38.769268"
     y2="22.34375"
     gradientUnits="userSpaceOnUse" /><linearGradient
     id="linearGradient4177"><stop
       style="stop-color:#d6d6d6;stop-opacity:1;"
       offset="0"
       id="stop4179" /><stop
       style="stop-color:#b1b1b1;stop-opacity:1;"
       offset="1"
       id="stop4181" /></linearGradient><inkscape:perspective
     id="perspective4224"
     inkscape:persp3d-origin="0.5 : 0.33333333 : 1"
     inkscape:vp_z="1 : 0.5 : 1"
     inkscape:vp_y="0 : 1000 : 0"
     inkscape:vp_x="0 : 0.5 : 1"
     sodipodi:type="inkscape:persp3d" /><linearGradient
     id="linearGradient4088-5-4"><stop
       style="stop-color:#d6d6d6;stop-opacity:1;"
       offset="0"
       id="stop4090-16-1" /><stop
       style="stop-color:#b1b1b1;stop-opacity:1;"
       offset="1"
       id="stop4092-7-6" /></linearGradient><linearGradient
     gradientTransform="translate(-1.18e-6,-9.5945383)"
     y2="22.34375"
     x2="38.769268"
     y1="17.15625"
     x1="38.84621"
     gradientUnits="userSpaceOnUse"
     id="linearGradient4185-2"
     xlink:href="#linearGradient4088-5-4"
     inkscape:collect="always" /><linearGradient
     id="linearGradient4233"><stop
       style="stop-color:#d6d6d6;stop-opacity:1;"
       offset="0"
       id="stop4235" /><stop
       style="stop-color:#b1b1b1;stop-opacity:1;"
       offset="1"
       id="stop4237" /></linearGradient><inkscape:perspective
     id="perspective4292"
     inkscape:persp3d-origin="0.5 : 0.33333333 : 1"
     inkscape:vp_z="1 : 0.5 : 1"
     inkscape:vp_y="0 : 1000 : 0"
     inkscape:vp_x="0 : 0.5 : 1"
     sodipodi:type="inkscape:persp3d" /><linearGradient
     id="linearGradient4088-5-4-8"><stop
       style="stop-color:#d6d6d6;stop-opacity:1;"
       offset="0"
       id="stop4090-16-1-6" /><stop
       style="stop-color:#b1b1b1;stop-opacity:1;"
       offset="1"
       id="stop4092-7-6-8" /></linearGradient><linearGradient
     y2="22.34375"
     x2="38.769268"
     y1="17.15625"
     x1="38.84621"
     gradientTransform="translate(-2.07e-6,-15.388381)"
     gradientUnits="userSpaceOnUse"
     id="linearGradient4241-3"
     xlink:href="#linearGradient4088-5-4-8"
     inkscape:collect="always" /><linearGradient
     id="linearGradient4301"><stop
       style="stop-color:#d6d6d6;stop-opacity:1;"
       offset="0"
       id="stop4303" /><stop
       style="stop-color:#b1b1b1;stop-opacity:1;"
       offset="1"
       id="stop4305" /></linearGradient><inkscape:perspective
     id="perspective4362"
     inkscape:persp3d-origin="0.5 : 0.33333333 : 1"
     inkscape:vp_z="1 : 0.5 : 1"
     inkscape:vp_y="0 : 1000 : 0"
     inkscape:vp_x="0 : 0.5 : 1"
     sodipodi:type="inkscape:persp3d" /><inkscape:perspective
     id="perspective4389"
     inkscape:persp3d-origin="0.5 : 0.33333333 : 1"
     inkscape:vp_z="1 : 0.5 : 1"
     inkscape:vp_y="0 : 1000 : 0"
     inkscape:vp_x="0 : 0.5 : 1"
     sodipodi:type="inkscape:persp3d" /><inkscape:perspective
     id="perspective4413"
     inkscape:persp3d-origin="0.5 : 0.33333333 : 1"
     inkscape:vp_z="1 : 0.5 : 1"
     inkscape:vp_y="0 : 1000 : 0"
     inkscape:vp_x="0 : 0.5 : 1"
     sodipodi:type="inkscape:persp3d" /><inkscape:perspective
     id="perspective4413-5"
     inkscape:persp3d-origin="0.5 : 0.33333333 : 1"
     inkscape:vp_z="1 : 0.5 : 1"
     inkscape:vp_y="0 : 1000 : 0"
     inkscape:vp_x="0 : 0.5 : 1"
     sodipodi:type="inkscape:persp3d" /><inkscape:perspective
     id="perspective4444"
     inkscape:persp3d-origin="0.5 : 0.33333333 : 1"
     inkscape:vp_z="1 : 0.5 : 1"
     inkscape:vp_y="0 : 1000 : 0"
     inkscape:vp_x="0 : 0.5 : 1"
     sodipodi:type="inkscape:persp3d" /><inkscape:perspective
     id="perspective4488"
     inkscape:persp3d-origin="0.5 : 0.33333333 : 1"
     inkscape:vp_z="1 : 0.5 : 1"
     inkscape:vp_y="0 : 1000 : 0"
     inkscape:vp_x="0 : 0.5 : 1"
     sodipodi:type="inkscape:persp3d" /><inkscape:perspective
     id="perspective4510"
     inkscape:persp3d-origin="0.5 : 0.33333333 : 1"
     inkscape:vp_z="1 : 0.5 : 1"
     inkscape:vp_y="0 : 1000 : 0"
     inkscape:vp_x="0 : 0.5 : 1"
     sodipodi:type="inkscape:persp3d" /><inkscape:perspective
     id="perspective4532"
     inkscape:persp3d-origin="0.5 : 0.33333333 : 1"
     inkscape:vp_z="1 : 0.5 : 1"
     inkscape:vp_y="0 : 1000 : 0"
     inkscape:vp_x="0 : 0.5 : 1"
     sodipodi:type="inkscape:persp3d" /><inkscape:perspective
     id="perspective4557"
     inkscape:persp3d-origin="0.5 : 0.33333333 : 1"
     inkscape:vp_z="1 : 0.5 : 1"
     inkscape:vp_y="0 : 1000 : 0"
     inkscape:vp_x="0 : 0.5 : 1"
     sodipodi:type="inkscape:persp3d" /><inkscape:perspective
     id="perspective4594"
     inkscape:persp3d-origin="0.5 : 0.33333333 : 1"
     inkscape:vp_z="1 : 0.5 : 1"
     inkscape:vp_y="0 : 1000 : 0"
     inkscape:vp_x="0 : 0.5 : 1"
     sodipodi:type="inkscape:persp3d" /><linearGradient
     id="linearGradient4088-2"><stop
       style="stop-color:#d6d6d6;stop-opacity:1;"
       offset="0"
       id="stop4090-5" /><stop
       style="stop-color:#b1b1b1;stop-opacity:1;"
       offset="1"
       id="stop4092-24" /></linearGradient><linearGradient
     inkscape:collect="always"
     xlink:href="#ButtonShadow"
     id="linearGradient4685"
     gradientUnits="userSpaceOnUse"
     gradientTransform="scale(1.0058652,0.994169)"
     x1="45.447727"
     y1="92.539597"
     x2="45.447727"
     y2="7.0165396" /><linearGradient
     inkscape:collect="always"
     xlink:href="#ButtonShadow"
     id="linearGradient4712"
     gradientUnits="userSpaceOnUse"
     gradientTransform="scale(1.0058652,0.994169)"
     x1="45.447727"
     y1="92.539597"
     x2="45.447727"
     y2="7.0165396" /><linearGradient
     inkscape:collect="always"
     xlink:href="#linearGradient3637"
     id="linearGradient4714"
     gradientUnits="userSpaceOnUse"
     gradientTransform="matrix(0.1872173,0,0,0.1872173,-9.4679963,22.522573)"
     x1="44.512066"
     y1="6"
     x2="44.512066"
     y2="90.015434" /><linearGradient
     inkscape:collect="always"
     xlink:href="#linearGradient3737"
     id="linearGradient4716"
     gradientUnits="userSpaceOnUse"
     gradientTransform="matrix(0.1872173,0,0,0.1872173,-9.4679963,22.522573)"
     x1="36.357143"
     y1="6"
     x2="36.357143"
     y2="63.893143" /><radialGradient
     inkscape:collect="always"
     xlink:href="#linearGradient3737"
     id="radialGradient4718"
     gradientUnits="userSpaceOnUse"
     gradientTransform="matrix(0.216669,0,0,0.18645116,-10.881678,22.55948)"
     cx="48"
     cy="90.171875"
     fx="48"
     fy="90.171875"
     r="42" /><linearGradient
     inkscape:collect="always"
     xlink:href="#linearGradient4081"
     id="linearGradient4720"
     gradientUnits="userSpaceOnUse"
     x1="49"
     y1="70"
     x2="49"
     y2="23.729059" /><linearGradient
     inkscape:collect="always"
     xlink:href="#ButtonShadow"
     id="linearGradient3001"
     gradientUnits="userSpaceOnUse"
     gradientTransform="scale(1.0058652,0.994169)"
     x1="45.447727"
     y1="92.539597"
     x2="45.447727"
     y2="7.0165396" /><linearGradient
     inkscape:collect="always"
     xlink:href="#linearGradient3637"
     id="linearGradient3003"
     gradientUnits="userSpaceOnUse"
     gradientTransform="matrix(0.1872173,0,0,0.1872173,-9.4679963,22.522573)"
     x1="44.512066"
     y1="6"
     x2="44.512066"
     y2="90.015434" /><linearGradient
     inkscape:collect="always"
     xlink:href="#linearGradient3737"
     id="linearGradient3005"
     gradientUnits="userSpaceOnUse"
     gradientTransform="matrix(0.1872173,0,0,0.1872173,-9.4679963,22.522573)"
     x1="36.357143"
     y1="6"
     x2="36.357143"
     y2="63.893143" /><radialGradient
     inkscape:collect="always"
     xlink:href="#linearGradient3737"
     id="radialGradient3007"
     gradientUnits="userSpaceOnUse"
     gradientTransform="matrix(0.216669,0,0,0.18645116,-10.881678,22.55948)"
     cx="48"
     cy="90.171875"
     fx="48"
     fy="90.171875"
     r="42" /><linearGradient
     inkscape:collect="always"
     xlink:href="#linearGradient4081"
     id="linearGradient3009"
     gradientUnits="userSpaceOnUse"
     x1="49"
     y1="70"
     x2="49"
     y2="23.729059" /><linearGradient
     inkscape:collect="always"
     xlink:href="#linearGradient4088"
     id="linearGradient3011"
     gradientUnits="userSpaceOnUse"
     x1="38.84621"
     y1="17.15625"
     x2="38.769268"
     y2="22.34375" /><linearGradient
     inkscape:collect="always"
     xlink:href="#ButtonShadow"
     id="linearGradient3006"
     gradientUnits="userSpaceOnUse"
     gradientTransform="scale(1.0058652,0.994169)"
     x1="45.447727"
     y1="92.539597"
     x2="45.447727"
     y2="7.0165396" /><linearGradient
     inkscape:collect="always"
     xlink:href="#linearGradient3637"
     id="linearGradient3008"
     gradientUnits="userSpaceOnUse"
     gradientTransform="matrix(0.1872173,0,0,0.1872173,-9.4679963,22.522573)"
     x1="44.512066"
     y1="6"
     x2="44.512066"
     y2="90.015434" /><linearGradient
     inkscape:collect="always"
     xlink:href="#linearGradient3737"
     id="linearGradient3010"
     gradientUnits="userSpaceOnUse"
     gradientTransform="matrix(0.1872173,0,0,0.1872173,-9.4679963,22.522573)"
     x1="36.357143"
     y1="6"
     x2="36.357143"
     y2="63.893143" /><radialGradient
     inkscape:collect="always"
     xlink:href="#linearGradient3737"
     id="radialGradient3012"
     gradientUnits="userSpaceOnUse"
     gradientTransform="matrix(0.216669,0,0,0.18645116,-10.881678,22.55948)"
     cx="48"
     cy="90.171875"
     fx="48"
     fy="90.171875"
     r="42" /><linearGradient
     inkscape:collect="always"
     xlink:href="#linearGradient4081"
     id="linearGradient3014"
     gradientUnits="userSpaceOnUse"
     x1="49"
     y1="70"
     x2="49"
     y2="23.729059" /><linearGradient
     inkscape:collect="always"
     xlink:href="#linearGradient4088"
     id="linearGradient3016"
     gradientUnits="userSpaceOnUse"
     x1="38.84621"
     y1="17.15625"
     x2="38.769268"
     y2="22.34375" /><linearGradient
     inkscape:collect="always"
     xlink:href="#ButtonShadow"
     id="linearGradient3013"
     gradientUnits="userSpaceOnUse"
     gradientTransform="scale(1.0058652,0.994169)"
     x1="45.447727"
     y1="92.539597"
     x2="45.447727"
     y2="7.0165396" /><linearGradient
     inkscape:collect="always"
     xlink:href="#linearGradient3637"
     id="linearGradient3015"
     gradientUnits="userSpaceOnUse"
     gradientTransform="matrix(0.1872173,0,0,0.1872173,-9.4679963,22.522573)"
     x1="44.512066"
     y1="6"
     x2="44.512066"
     y2="90.015434" /><linearGradient
     inkscape:collect="always"
     xlink:href="#linearGradient3737"
     id="linearGradient3017"
     gradientUnits="userSpaceOnUse"
     gradientTransform="matrix(0.1872173,0,0,0.1872173,-9.4679963,22.522573)"
     x1="36.357143"
     y1="6"
     x2="36.357143"
     y2="63.893143" /><radialGradient
     inkscape:collect="always"
     xlink:href="#linearGradient3737"
     id="radialGradient3019"
     gradientUnits="userSpaceOnUse"
     gradientTransform="matrix(0.216669,0,0,0.18645116,-10.881678,22.55948)"
     cx="48"
     cy="90.171875"
     fx="48"
     fy="90.171875"
     r="42" /><linearGradient
     inkscape:collect="always"
     xlink:href="#linearGradient4081"
     id="linearGradient3021"
     gradientUnits="userSpaceOnUse"
     x1="49"
     y1="70"
     x2="49"
     y2="23.729059" /><linearGradient
     inkscape:collect="always"
     xlink:href="#linearGradient4088"
     id="linearGradient3023"
     gradientUnits="userSpaceOnUse"
     x1="38.84621"
     y1="17.15625"
     x2="38.769268"
     y2="22.34375" /><linearGradient
     inkscape:collect="always"
     xlink:href="#ButtonShadow"
     id="linearGradient3020"
     gradientUnits="userSpaceOnUse"
     gradientTransform="scale(1.0058652,0.994169)"
     x1="45.447727"
     y1="92.539597"
     x2="45.447727"
     y2="7.0165396" /><linearGradient
     inkscape:collect="always"
     xlink:href="#ButtonShadow"
     id="linearGradient3031"
     gradientUnits="userSpaceOnUse"
     gradientTransform="scale(1.0058652,0.994169)"
     x1="45.447727"
     y1="92.539597"
     x2="45.447727"
     y2="7.0165396" /><linearGradient
     inkscape:collect="always"
     xlink:href="#ButtonShadow"
     id="linearGradient3064"
     gradientUnits="userSpaceOnUse"
     gradientTransform="scale(1.0058652,0.994169)"
     x1="45.447727"
     y1="92.539597"
     x2="45.447727"
     y2="7.0165396" /><linearGradient
     inkscape:collect="always"
     xlink:href="#ButtonShadow"
     id="linearGradient3090"
     gradientUnits="userSpaceOnUse"
     gradientTransform="scale(1.0058652,0.994169)"
     x1="45.447727"
     y1="92.539597"
     x2="45.447727"
     y2="7.0165396" /><linearGradient
     inkscape:collect="always"
     xlink:href="#linearGradient3637"
     id="linearGradient3092"
     gradientUnits="userSpaceOnUse"
     gradientTransform="matrix(0.62910918,0,0,0.62910918,-75.761559,13.106703)"
     x1="44.512066"
     y1="6"
     x2="44.512066"
     y2="90.015434" /><linearGradient
     inkscape:collect="always"
     xlink:href="#linearGradient3737"
     id="linearGradient3094"
     gradientUnits="userSpaceOnUse"
     gradientTransform="matrix(0.62910918,0,0,0.62910918,-75.761559,13.106703)"
     x1="36.357143"
     y1="6"
     x2="36.357143"
     y2="63.893143" /><radialGradient
     inkscape:collect="always"
     xlink:href="#linearGradient3737"
     id="radialGradient3096"
     gradientUnits="userSpaceOnUse"
     gradientTransform="matrix(0.72807618,0,0,0.6265347,-80.511975,13.230722)"
     cx="48"
     cy="90.171875"
     fx="48"
     fy="90.171875"
     r="42" /><linearGradient
     inkscape:collect="always"
     xlink:href="#linearGradient4081"
     id="linearGradient3098"
     gradientUnits="userSpaceOnUse"
     x1="49"
     y1="70"
     x2="49"
     y2="23.729059" /><linearGradient
     inkscape:collect="always"
     xlink:href="#linearGradient4088"
     id="linearGradient3914"
     gradientUnits="userSpaceOnUse"
     gradientTransform="matrix(8.8405523,0,0,-8.8405523,-248.78387,202.7751)"
     x1="38.84621"
     y1="17.15625"
     x2="38.769268"
     y2="22.34375" /><linearGradient
     y2="-26.244387"
     x2="211.25182"
     y1="20.653517"
     x1="164.49475"
     gradientTransform="translate(-270.84585,27.237957)"
     gradientUnits="userSpaceOnUse"
     id="linearGradient3757"
     xlink:href="#linearGradient3691"
     inkscape:collect="always" /><filter
     id="filter3749"
     inkscape:collect="always"><feGaussianBlur
       id="feGaussianBlur3751"
       stdDeviation="1.0723524"
       inkscape:collect="always" /></filter><linearGradient
     id="linearGradient3691-1"><stop
       id="stop3693-4"
       offset="0"
       style="stop-color:#b9b9b9;stop-opacity:1;" /><stop
       id="stop3695-5"
       offset="1"
       style="stop-color:#eeeeee;stop-opacity:1;" /></linearGradient><linearGradient
     gradientTransform="translate(-231.23172,56.89752)"
     gradientUnits="userSpaceOnUse"
     y2="-26.244387"
     x2="211.25182"
     y1="20.653517"
     x1="164.49475"
     id="linearGradient3697-0"
     xlink:href="#linearGradient3691-1"
     inkscape:collect="always" /><inkscape:perspective
     sodipodi:type="inkscape:persp3d"
     inkscape:vp_x="0 : 0.5 : 1"
     inkscape:vp_y="0 : 1000 : 0"
     inkscape:vp_z="1 : 0.5 : 1"
     inkscape:persp3d-origin="0.5 : 0.33333333 : 1"
     id="perspective3707" /><linearGradient
     gradientTransform="translate(-270.84585,27.237957)"
     gradientUnits="userSpaceOnUse"
     y2="-26.244387"
     x2="211.25182"
     y1="20.653517"
     x1="164.49475"
     id="linearGradient3697"
     xlink:href="#linearGradient3691"
     inkscape:collect="always" /><linearGradient
     y2="90.015434"
     x2="44.512066"
     y1="6"
     x1="44.512066"
     gradientUnits="userSpaceOnUse"
     id="linearGradient2913"
     xlink:href="#linearGradient3637-6"
     inkscape:collect="always" /><linearGradient
     y2="63.893143"
     x2="36.357143"
     y1="6"
     x1="36.357143"
     gradientUnits="userSpaceOnUse"
     id="linearGradient2910"
     xlink:href="#linearGradient3737-7"
     inkscape:collect="always" /><radialGradient
     r="42"
     fy="90.171875"
     fx="48"
     cy="90.171875"
     cx="48"
     gradientTransform="matrix(1.1573129,0,0,0.99590774,-7.5510206,0.19713193)"
     gradientUnits="userSpaceOnUse"
     id="radialGradient2907"
     xlink:href="#linearGradient3737-7"
     inkscape:collect="always" /><linearGradient
     y2="5.9877172"
     x2="48"
     y1="90"
     x1="48"
     gradientTransform="translate(0,100)"
     gradientUnits="userSpaceOnUse"
     id="linearGradient2904"
     xlink:href="#linearGradient3700-2"
     inkscape:collect="always" /><linearGradient
     y2="5.9877172"
     x2="48"
     y1="90"
     x1="48"
     gradientTransform="translate(0,100)"
     gradientUnits="userSpaceOnUse"
     id="linearGradient2897"
     xlink:href="#linearGradient3700-2"
     inkscape:collect="always" /><radialGradient
     r="42"
     fy="90.171875"
     fx="48"
     cy="90.171875"
     cx="48"
     gradientTransform="matrix(1.1573129,0,0,0.99590774,-7.5510206,0.19713193)"
     gradientUnits="userSpaceOnUse"
     id="radialGradient2895"
     xlink:href="#linearGradient3737-7"
     inkscape:collect="always" /><linearGradient
     y2="63.893143"
     x2="36.357143"
     y1="6"
     x1="36.357143"
     gradientUnits="userSpaceOnUse"
     id="linearGradient2893"
     xlink:href="#linearGradient3737-7"
     inkscape:collect="always" /><linearGradient
     y2="90.015434"
     x2="44.512066"
     y1="6"
     x1="44.512066"
     gradientUnits="userSpaceOnUse"
     id="linearGradient2891"
     xlink:href="#linearGradient3637-6"
     inkscape:collect="always" /><inkscape:perspective
     sodipodi:type="inkscape:persp3d"
     inkscape:vp_x="0 : 0.5 : 1"
     inkscape:vp_y="0 : 1000 : 0"
     inkscape:vp_z="1 : 0.5 : 1"
     inkscape:persp3d-origin="0.5 : 0.33333333 : 1"
     id="perspective2885" /><linearGradient
     gradientUnits="userSpaceOnUse"
     xlink:href="#linearGradient4081-71"
     id="linearGradient3728"
     y2="24"
     x2="56"
     y1="72"
     x1="56" /><linearGradient
     gradientTransform="matrix(0,1,-1,0,183,0)"
     gradientUnits="userSpaceOnUse"
     xlink:href="#StandardGradient-8"
     id="linearGradient2947"
     y2="51.954468"
     x2="65.693901"
     y1="51.954468"
     x1="29.826593" /><linearGradient
     gradientTransform="translate(-3,-2.9995677)"
     gradientUnits="userSpaceOnUse"
     id="StandardGradient-8"
     y2="16.013096"
     x2="11.347495"
     y1="5.999567"
     x1="11.347495"><stop
       offset="0"
       style="stop-color:#000000;stop-opacity:0.86274511"
       id="stop3177-6" /><stop
       offset="1"
       style="stop-color:#000000;stop-opacity:0.47058824"
       id="stop3179-8" /></linearGradient><linearGradient
     gradientTransform="matrix(0,-1,-1,0,36,16)"
     gradientUnits="userSpaceOnUse"
     xlink:href="#linearGradient4081-71"
     id="linearGradient3705"
     y2="51.954468"
     x2="65.693901"
     y1="51.954468"
     x1="29.826593" /><linearGradient
     gradientTransform="matrix(0,-1,-1,0,96,16)"
     gradientUnits="userSpaceOnUse"
     xlink:href="#linearGradient4081-71"
     id="linearGradient3034"
     y2="51.954468"
     x2="65.693901"
     y1="51.954468"
     x1="29.826593" /><linearGradient
     id="linearGradient4081-71"><stop
       offset="0"
       style="stop-color:#aaaaaa;stop-opacity:1"
       id="stop4083-1" /><stop
       offset="1"
       style="stop-color:#f0f0f0;stop-opacity:1"
       id="stop4085-5" /></linearGradient><filter
     id="filter3657-91"
     color-interpolation-filters="sRGB"><feGaussianBlur
       stdDeviation="1.14"
       id="feGaussianBlur3659-7" /></filter><clipPath
     id="clipPath3649-9"><rect
       style="fill:#ffffff;fill-opacity:1;fill-rule:nonzero;stroke:none"
       id="rect3651-0"
       y="10"
       x="10"
       ry="4"
       rx="4"
       height="76"
       width="76" /></clipPath><linearGradient
     gradientUnits="userSpaceOnUse"
     xlink:href="#linearGradient3637-6"
     id="linearGradient3643-4"
     y2="90.015434"
     x2="44.512066"
     y1="6"
     x1="44.512066" /><clipPath
     id="clipPath3625-5"><path
       style="fill:#ffffff;fill-opacity:1;stroke:none"
       id="path3627-9"
       inkscape:connector-curvature="0"
       d="M 0,0 0,96 96,96 96,0 0,0 z m 12,6 72,0 c 3.324,0 6,2.676 6,6 l 0,72 c 0,3.324 -2.676,6 -6,6 L 12,90 C 8.676,90 6,87.324 6,84 L 6,12 C 6,8.676 8.676,6 12,6 z" /></clipPath><linearGradient
     gradientTransform="translate(0,100)"
     gradientUnits="userSpaceOnUse"
     xlink:href="#linearGradient3700-2"
     id="linearGradient2843-61"
     y2="5.9877172"
     x2="48"
     y1="90"
     x1="48" /><radialGradient
     gradientTransform="matrix(1.1573129,0,0,0.99590774,-7.5510206,0.19713193)"
     gradientUnits="userSpaceOnUse"
     xlink:href="#linearGradient3737-7"
     id="radialGradient3619-0"
     fy="90.171875"
     fx="48"
     r="42"
     cy="90.171875"
     cx="48" /><linearGradient
     gradientUnits="userSpaceOnUse"
     xlink:href="#linearGradient3737-7"
     id="linearGradient3188-1"
     y2="63.893143"
     x2="36.357143"
     y1="6"
     x1="36.357143" /><filter
     id="filter3174-2"
     color-interpolation-filters="sRGB"><feGaussianBlur
       stdDeviation="1.71"
       id="feGaussianBlur3176-6" /></filter><linearGradient
     id="linearGradient3700-2"><stop
       offset="0"
       style="stop-color:#2276c5;stop-opacity:1"
       id="stop3702-7" /><stop
       offset="1"
       style="stop-color:#68baf4;stop-opacity:1"
       id="stop3704-2" /></linearGradient><linearGradient
     id="linearGradient3737-7"><stop
       offset="0"
       style="stop-color:#ffffff;stop-opacity:1"
       id="stop3739-1" /><stop
       offset="1"
       style="stop-color:#ffffff;stop-opacity:0"
       id="stop3741-7" /></linearGradient><linearGradient
     gradientTransform="scale(1.0058652,0.994169)"
     gradientUnits="userSpaceOnUse"
     id="ButtonShadow-0"
     y2="7.0165396"
     x2="45.447727"
     y1="92.539597"
     x1="45.447727"><stop
       offset="0"
       style="stop-color:#000000;stop-opacity:1"
       id="stop3750-4" /><stop
       offset="1"
       style="stop-color:#000000;stop-opacity:0.58823532"
       id="stop3752-8" /></linearGradient><linearGradient
     id="linearGradient3637-6"><stop
       offset="0"
       style="stop-color:#f0f0f0;stop-opacity:1"
       id="stop3639-4" /><stop
       offset="1"
       style="stop-color:#dcdcdc;stop-opacity:1"
       id="stop3641-95" /></linearGradient><inkscape:perspective
     id="perspective73"
     inkscape:persp3d-origin="48 : 32 : 1"
     inkscape:vp_z="96 : 48 : 1"
     inkscape:vp_y="0 : 1000 : 0"
     inkscape:vp_x="0 : 48 : 1"
     sodipodi:type="inkscape:persp3d" /><linearGradient
     id="linearGradient3691"><stop
       id="stop3693"
       offset="0"
       style="stop-color:#b9b9b9;stop-opacity:1;" /><stop
       id="stop3695"
       offset="1"
       style="stop-color:#eeeeee;stop-opacity:1;" /></linearGradient><radialGradient
     inkscape:collect="always"
     xlink:href="#linearGradient3737-7"
     id="radialGradient3281"
     gradientUnits="userSpaceOnUse"
     gradientTransform="matrix(1.1573129,0,0,0.99590774,-128.97655,-34.042358)"
     cx="48"
     cy="90.171875"
     fx="48"
     fy="90.171875"
     r="42" /><linearGradient
     inkscape:collect="always"
     xlink:href="#linearGradient3737-7"
     id="linearGradient3284"
     gradientUnits="userSpaceOnUse"
     x1="36.357143"
     y1="6"
     x2="36.357143"
     y2="63.893143"
     gradientTransform="translate(-121.42553,-34.23949)" /><linearGradient
     inkscape:collect="always"
     xlink:href="#linearGradient3637-6"
     id="linearGradient3287"
     gradientUnits="userSpaceOnUse"
     x1="44.512066"
     y1="6"
     x2="44.512066"
     y2="90.015434"
     gradientTransform="translate(-121.42553,-34.23949)" /></defs><sodipodi:namedview
   pagecolor="#ffffff"
   bordercolor="#666666"
   borderopacity="1"
   objecttolerance="10"
   gridtolerance="10"
   guidetolerance="10"
   inkscape:pageopacity="0"
   inkscape:pageshadow="2"
   inkscape:window-width="1366"
   inkscape:window-height="709"
   id="namedview40"
   showgrid="false"
   showguides="true"
   inkscape:guide-bbox="true"
   inkscape:showpageshadow="false"
   borderlayer="true"
   inkscape:zoom="2.8284271"
   inkscape:cx="-6.7810637"
   inkscape:cy="41.217531"
   inkscape:window-x="0"
   inkscape:window-y="25"
   inkscape:window-maximized="1"
   inkscape:current-layer="Í_xBC__xB2_ã_x5F_1" />

<rect
   style="opacity:0.7;fill:#000000;fill-opacity:1;fill-rule:nonzero;stroke:none"
   id="rect2419"
   y="22.136141"
   x="5.392993"
   ry="3.630851"
   rx="3.630851"
   height="50.831909"
   width="50.831909" /><g
   id="g3072"
   transform="matrix(1.0396641,0,0,1.0396641,24.217542,6.5849051)"><g
     transform="translate(51.904256,-4.8106384)"
     id="g3054"><g
       id="layer2"
       style="display:inline"
       transform="matrix(0.62910918,0,0,0.62910918,-75.761559,13.106703)"><rect
         width="86"
         height="85"
         rx="6"
         ry="6"
         x="5"
         y="7"
         clip-path="url(#clipPath3625)"
         id="rect3745"
         style="opacity:0.9;fill:url(#linearGradient3090);fill-opacity:1;fill-rule:nonzero;stroke:none;filter:url(#filter3174)" /></g><path
       style="opacity:0.07999998;fill:#000000;fill-opacity:1;fill-rule:nonzero;stroke:none"
       id="rect3726"
       inkscape:connector-curvature="0"
       d="m -66.954031,19.397798 c -1.394104,0 -2.516436,1.122329 -2.516436,2.516436 l 0,42.779423 c 0,1.394107 1.122332,2.516436 2.516436,2.516436 l 42.779425,0 c 1.394107,0 2.516437,-1.122329 2.516437,-2.516436 l 0,-42.779423 c 0,-1.394107 -1.12233,-2.516436 -2.516437,-2.516436 l -42.779425,0 z m 0,1.926647 42.779425,0 c 0.364109,0 0.58979,0.225679 0.58979,0.589789 l 0,42.779423 c 0,0.36411 -0.225682,0.589789 -0.58979,0.589789 l -42.779425,0 c -0.364107,0 -0.589789,-0.225679 -0.589789,-0.589789 l 0,-42.779423 c 0,-0.36411 0.225679,-0.589789 0.589789,-0.589789 z" /><path
       style="fill:url(#linearGradient3092);fill-opacity:1;fill-rule:nonzero;stroke:none"
       id="rect3629"
       inkscape:connector-curvature="0"
       d="m -68.212247,16.881359 c -2.091158,0 -3.774656,1.683497 -3.774656,3.774655 l 0,45.295862 c 0,2.091158 1.683498,3.774656 3.774656,3.774656 l 45.29586,0 c 2.091159,0 3.774655,-1.683498 3.774655,-3.774656 l 0,-45.295862 c 0,-2.091158 -1.683496,-3.774655 -3.774655,-3.774655 l -45.29586,0 z m 1.258216,2.516439 42.779425,0 c 1.394107,0 2.516437,1.122329 2.516437,2.516436 l 0,42.779423 c 0,1.394107 -1.12233,2.516436 -2.516437,2.516436 l -42.779425,0 c -1.394104,0 -2.516436,-1.122329 -2.516436,-2.516436 l 0,-42.779423 c 0,-1.394107 1.122332,-2.516436 2.516436,-2.516436 z" /><path
       style="fill:url(#linearGradient3094);fill-opacity:1;fill-rule:nonzero;stroke:none"
       id="rect3728"
       inkscape:connector-curvature="0"
       d="m -68.212247,16.881359 c -2.091158,0 -3.774656,1.683497 -3.774656,3.774655 l 0,1.25822 0,42.779423 0,1.258219 c 0,0.210591 0.02587,0.409361 0.05897,0.609451 0.03058,0.18596 0.06106,0.375522 0.117948,0.55047 0.0064,0.01915 0.01311,0.04002 0.01949,0.05897 0.0622,0.181054 0.147753,0.344406 0.235928,0.511151 0.09096,0.172082 0.198561,0.336959 0.314559,0.49149 0.115998,0.154541 0.235155,0.297859 0.373533,0.432513 0.276789,0.269296 0.593193,0.512428 0.943664,0.688088 0.17524,0.08784 0.360777,0.155348 0.55047,0.21627 -0.161194,-0.06304 -0.306192,-0.148626 -0.452174,-0.235927 -0.0047,-0.0028 -0.01512,0.0028 -0.01983,0 -0.02016,-0.0121 -0.03918,-0.02688 -0.05897,-0.03932 -0.07574,-0.04825 -0.145333,-0.102859 -0.216269,-0.157263 -0.0668,-0.05084 -0.134178,-0.101347 -0.196613,-0.157263 -0.111932,-0.101548 -0.218588,-0.217278 -0.314559,-0.334217 -0.06768,-0.08196 -0.137403,-0.166906 -0.196612,-0.255585 -0.01579,-0.02419 -0.02419,-0.05403 -0.03932,-0.07863 -0.04073,-0.06482 -0.08192,-0.128666 -0.117947,-0.196612 -0.06354,-0.122483 -0.129406,-0.261533 -0.176955,-0.393193 -0.005,-0.01378 -0.01479,-0.02554 -0.01983,-0.03932 -0.02016,-0.05786 -0.02251,-0.117544 -0.03932,-0.176954 -0.01915,-0.06707 -0.04429,-0.127726 -0.05897,-0.196579 -0.04583,-0.214858 -0.07863,-0.439247 -0.07863,-0.668427 l 0,-1.25822 0,-42.779422 0,-1.25822 c 0,-1.750086 1.395462,-3.145544 3.145547,-3.145544 l 1.258217,0 42.779425,0 1.258218,0 c 1.750087,0 3.145547,1.395458 3.145547,3.145544 l 0,1.25822 0,42.779422 0,1.25822 c 0,0.229174 -0.0328,0.453579 -0.07864,0.668427 -0.02779,0.130145 -0.0556,0.250176 -0.0983,0.373536 -0.0048,0.01378 -0.01465,0.02554 -0.01966,0.03932 -0.03947,0.109311 -0.08706,0.231156 -0.137618,0.334217 -0.02614,0.05209 -0.04973,0.106925 -0.07864,0.157263 -0.03435,0.06116 -0.07975,0.118484 -0.117957,0.176954 -0.05921,0.08868 -0.128919,0.173627 -0.196595,0.255585 -0.09007,0.109748 -0.190708,0.218287 -0.294895,0.31456 -0.007,0.0064 -0.01257,0.01344 -0.01966,0.01982 -0.08706,0.079 -0.179353,0.147485 -0.275237,0.21627 -0.06453,0.046 -0.128538,0.09647 -0.196595,0.137605 -0.0046,0.0028 -0.01499,-0.0028 -0.01966,0 -0.145979,0.08727 -0.290993,0.172855 -0.452172,0.235928 0.189693,-0.06089 0.375235,-0.128431 0.550471,-0.21627 0.35047,-0.175677 0.666888,-0.418796 0.943663,-0.688088 0.138388,-0.134648 0.257535,-0.277966 0.373534,-0.432513 0.115998,-0.154541 0.223592,-0.319432 0.314556,-0.491493 0.08815,-0.166739 0.173718,-0.330118 0.235917,-0.511151 0.0066,-0.01949 0.01341,-0.03948 0.01966,-0.05897 0.05691,-0.174938 0.08732,-0.364507 0.117957,-0.55047 0.03297,-0.200073 0.05898,-0.398873 0.05898,-0.60945 l 0,-1.258217 0,-42.779426 0,-1.258216 c 0,-2.091161 -1.683497,-3.774656 -3.774656,-3.774656 l -45.29586,0 z" /><path
       style="opacity:0.6;fill:url(#radialGradient3096);fill-opacity:1;fill-rule:nonzero;stroke:none"
       id="path3615"
       inkscape:connector-curvature="0"
       d="m -68.212247,69.726532 c -2.091158,0 -3.774656,-1.683498 -3.774656,-3.774656 l 0,-1.258219 0,-42.779423 0,-1.25822 c 0,-0.210557 0.02587,-0.40936 0.05897,-0.60945 0.03058,-0.18596 0.06106,-0.375522 0.117948,-0.55047 0.0064,-0.01915 0.01311,-0.04002 0.01949,-0.05897 0.0622,-0.181053 0.147753,-0.344405 0.235928,-0.511151 0.09096,-0.172048 0.198561,-0.336959 0.314559,-0.491489 0.115998,-0.154541 0.235155,-0.297859 0.373533,-0.432513 0.276789,-0.269296 0.593193,-0.512428 0.943664,-0.688089 0.17524,-0.08784 0.360777,-0.155347 0.55047,-0.21627 -0.161194,0.06304 -0.306192,0.148627 -0.452174,0.235928 -0.0047,0.0028 -0.01512,-0.0028 -0.01983,0 -0.02016,0.0121 -0.03918,0.02688 -0.05897,0.03932 -0.07574,0.04825 -0.145333,0.102859 -0.216269,0.157263 -0.0668,0.05084 -0.134178,0.101347 -0.196613,0.157262 -0.111932,0.101549 -0.218588,0.217278 -0.314559,0.334217 -0.06768,0.08196 -0.137403,0.166907 -0.196612,0.255586 -0.01579,0.02419 -0.02419,0.05403 -0.03932,0.07863 -0.04073,0.06482 -0.08192,0.128667 -0.117947,0.196612 -0.06354,0.122484 -0.129406,0.261534 -0.176955,0.393194 -0.005,0.01378 -0.01479,0.02554 -0.01983,0.03932 -0.02016,0.05786 -0.02251,0.117544 -0.03932,0.176954 -0.01915,0.06707 -0.04429,0.127726 -0.05897,0.196612 -0.04583,0.214859 -0.07863,0.439247 -0.07863,0.668427 l 0,1.25822 0,42.779423 0,1.258219 c 0,1.750086 1.395462,3.145545 3.145547,3.145545 l 1.258217,0 42.779425,0 1.258218,0 c 1.750087,0 3.145547,-1.395459 3.145547,-3.145545 l 0,-1.258219 0,-42.779423 0,-1.25822 c 0,-0.229173 -0.0328,-0.453578 -0.07864,-0.668427 -0.02779,-0.130145 -0.0556,-0.250175 -0.0983,-0.373536 -0.0048,-0.01378 -0.01465,-0.02554 -0.01966,-0.03932 -0.03947,-0.109311 -0.08706,-0.231156 -0.137618,-0.334217 -0.02614,-0.05208 -0.04973,-0.106925 -0.07864,-0.157262 -0.03435,-0.06116 -0.07975,-0.118485 -0.117957,-0.176921 -0.05921,-0.08868 -0.128919,-0.173627 -0.196595,-0.255586 -0.09007,-0.109747 -0.190708,-0.218286 -0.294895,-0.314559 -0.007,-0.0064 -0.01257,-0.01344 -0.01966,-0.01949 -0.08706,-0.079 -0.179353,-0.147485 -0.275237,-0.21627 -0.06453,-0.046 -0.128538,-0.09648 -0.196595,-0.137605 -0.0046,-0.0028 -0.01499,0.0028 -0.01966,0 -0.145979,-0.08727 -0.290993,-0.172855 -0.452172,-0.235928 0.189693,0.06089 0.375235,0.128431 0.550471,0.21627 0.35047,0.175677 0.666888,0.418796 0.943663,0.688088 0.138388,0.134648 0.257535,0.277966 0.373534,0.432513 0.115998,0.154541 0.223592,0.319432 0.314556,0.491493 0.08815,0.166739 0.173718,0.330118 0.235917,0.511151 0.0066,0.01949 0.01341,0.03948 0.01966,0.05897 0.05691,0.174938 0.08732,0.364507 0.117957,0.55047 0.03297,0.200073 0.05898,0.398873 0.05898,0.60945 l 0,1.258217 0,42.779426 0,1.258216 c 0,2.091161 -1.683497,3.774656 -3.774656,3.774656 l -45.29586,0 z" /><path
       style="opacity:0.16000001;fill:#000000;fill-opacity:1;fill-rule:nonzero;stroke:none"
       id="path3709"
       inkscape:connector-curvature="0"
       d="m -66.89786,19.397798 c -1.394104,0 -2.516436,1.122329 -2.516436,2.516436 l 0,42.779423 c 0,1.394107 1.122332,2.516436 2.516436,2.516436 l 42.779425,0 c 1.394106,0 2.516437,-1.122329 2.516437,-2.516436 l 0,-42.779423 c 0,-1.394107 -1.122331,-2.516436 -2.516437,-2.516436 l -42.779425,0 z m 0,1.258216 42.779425,0 c 0.717374,0 1.258218,0.540846 1.258218,1.25822 l 0,42.779423 c 0,0.717373 -0.540844,1.258219 -1.258218,1.258219 l -42.779425,0 c -0.717374,0 -1.258216,-0.540846 -1.258216,-1.258219 l 0,-42.779423 c 0,-0.717374 0.540842,-1.25822 1.258216,-1.25822 z" /><path
       style="opacity:0.36000001;fill:#000000;fill-opacity:1;fill-rule:nonzero;stroke:none"
       id="path3707"
       inkscape:connector-curvature="0"
       d="m -66.954031,19.397798 c -1.394104,0 -2.516436,1.122329 -2.516436,2.516436 l 0,42.779423 c 0,1.394107 1.122332,2.516436 2.516436,2.516436 l 42.779425,0 c 1.394107,0 2.516437,-1.122329 2.516437,-2.516436 l 0,-42.779423 c 0,-1.394107 -1.12233,-2.516436 -2.516437,-2.516436 l -42.779425,0 z m 0,0.629108 42.779425,0 c 1.053033,0 1.887328,0.834293 1.887328,1.887328 l 0,42.779423 c 0,1.053035 -0.834295,1.887328 -1.887328,1.887328 l -42.779425,0 c -1.053032,0 -1.887324,-0.834293 -1.887324,-1.887328 l 0,-42.779423 c 0,-1.053035 0.834292,-1.887328 1.887324,-1.887328 z" /></g><g
     transform="matrix(0.83692518,0,0,0.83692518,-33.832471,-0.76688769)"
     style="display:inline"
     id="layer3"><path
       style="opacity:0.1;fill:#000000;fill-opacity:1;stroke:none"
       id="path3849"
       d="m 23.625,22.96875 c -5.81e-4,1.02e-4 -0.15568,0.06235 -0.15625,0.0625 -5.7e-4,1.54e-4 -0.186946,0.03105 -0.1875,0.03125 -5.54e-4,2.03e-4 -0.155716,0.0935 -0.15625,0.09375 -5.34e-4,2.52e-4 -0.155741,0.0622 -0.15625,0.0625 -5.09e-4,2.98e-4 -0.155769,0.09341 -0.15625,0.09375 -4.81e-4,3.42e-4 -0.124551,0.124616 -0.125,0.125 -4.49e-4,3.84e-4 -0.155837,0.124578 -0.15625,0.125 -4.13e-4,4.22e-4 -0.09338,0.124543 -0.09375,0.125 -3.74e-4,4.57e-4 -0.124668,0.155762 -0.125,0.15625 -3.32e-4,4.88e-4 -0.09346,0.155734 -0.09375,0.15625 -2.87e-4,5.16e-4 -0.06226,0.155711 -0.0625,0.15625 -2.4e-4,5.39e-4 -0.09356,0.155692 -0.09375,0.15625 -1.91e-4,5.58e-4 -0.03111,0.186927 -0.03125,0.1875 -1.41e-4,5.73e-4 -0.03116,0.155667 -0.03125,0.15625 -9e-5,5.83e-4 -0.03121,0.186911 -0.03125,0.1875 -3.1e-5,4.91e-4 7.93e-4,0.114597 0,0.15625 l 0,0.03125 0,5.96875 c -7e-6,6.6e-4 -5.9e-5,0.186842 0,0.1875 5.9e-5,6.58e-4 0.03113,0.186851 0.03125,0.1875 1.24e-4,6.49e-4 0.06231,0.218117 0.0625,0.21875 1.88e-4,6.33e-4 0.06225,0.186889 0.0625,0.1875 2.5e-4,6.11e-4 0.06219,0.186916 0.0625,0.1875 3.09e-4,5.84e-4 0.124634,0.1557 0.125,0.15625 3.66e-4,5.5e-4 0.124582,0.155739 0.125,0.15625 4.18e-4,5.11e-4 0.124533,0.155783 0.125,0.15625 4.67e-4,4.67e-4 0.155739,0.124582 0.15625,0.125 5.11e-4,4.18e-4 0.1557,0.124634 0.15625,0.125 5.5e-4,3.66e-4 0.155666,0.124691 0.15625,0.125 5.84e-4,3.09e-4 0.186889,0.06225 0.1875,0.0625 6.11e-4,2.5e-4 0.186867,0.06231 0.1875,0.0625 5.5e-4,1.63e-4 0.148464,0.05303 0.1875,0.0625 -0.04867,0.01081 -0.124568,0.03113 -0.125,0.03125 -5.7e-4,1.54e-4 -0.186946,0.03105 -0.1875,0.03125 -5.54e-4,2.03e-4 -0.155716,0.0935 -0.15625,0.09375 -5.34e-4,2.52e-4 -0.155741,0.0622 -0.15625,0.0625 -5.09e-4,2.98e-4 -0.155769,0.09341 -0.15625,0.09375 -4.81e-4,3.42e-4 -0.124551,0.124616 -0.125,0.125 -4.49e-4,3.84e-4 -0.155837,0.124578 -0.15625,0.125 -4.13e-4,4.22e-4 -0.09338,0.124543 -0.09375,0.125 -3.74e-4,4.57e-4 -0.124668,0.155762 -0.125,0.15625 -3.32e-4,4.88e-4 -0.09346,0.155734 -0.09375,0.15625 -2.87e-4,5.16e-4 -0.06226,0.155711 -0.0625,0.15625 -2.4e-4,5.39e-4 -0.09356,0.155692 -0.09375,0.15625 -1.91e-4,5.58e-4 -0.03111,0.186927 -0.03125,0.1875 -1.41e-4,5.73e-4 -0.03116,0.155667 -0.03125,0.15625 -9e-5,5.83e-4 -0.03121,0.186911 -0.03125,0.1875 -3.1e-5,4.91e-4 7.93e-4,0.114597 0,0.15625 l 0,0.03125 0,5.96875 c -7e-6,6.6e-4 -5.9e-5,0.186842 0,0.1875 5.9e-5,6.58e-4 0.03113,0.186851 0.03125,0.1875 1.24e-4,6.49e-4 0.06231,0.218117 0.0625,0.21875 1.88e-4,6.33e-4 0.06225,0.186889 0.0625,0.1875 2.5e-4,6.11e-4 0.06219,0.186916 0.0625,0.1875 3.09e-4,5.84e-4 0.124634,0.1557 0.125,0.15625 3.66e-4,5.5e-4 0.124582,0.155739 0.125,0.15625 4.18e-4,5.11e-4 0.124533,0.155783 0.125,0.15625 4.67e-4,4.67e-4 0.155739,0.124582 0.15625,0.125 5.11e-4,4.18e-4 0.1557,0.124634 0.15625,0.125 5.5e-4,3.66e-4 0.155666,0.124691 0.15625,0.125 5.84e-4,3.09e-4 0.186889,0.06225 0.1875,0.0625 6.11e-4,2.5e-4 0.186867,0.06231 0.1875,0.0625 5.5e-4,1.63e-4 0.148464,0.05303 0.1875,0.0625 -0.04867,0.01081 -0.124568,0.03113 -0.125,0.03125 -5.7e-4,1.54e-4 -0.186946,0.03105 -0.1875,0.03125 -5.54e-4,2.03e-4 -0.155716,0.0935 -0.15625,0.09375 -5.34e-4,2.52e-4 -0.155741,0.0622 -0.15625,0.0625 -5.09e-4,2.98e-4 -0.155769,0.09341 -0.15625,0.09375 -4.81e-4,3.42e-4 -0.124551,0.124616 -0.125,0.125 -4.49e-4,3.84e-4 -0.155837,0.124578 -0.15625,0.125 -4.13e-4,4.22e-4 -0.09338,0.124543 -0.09375,0.125 -3.74e-4,4.57e-4 -0.124668,0.155762 -0.125,0.15625 -3.32e-4,4.88e-4 -0.09346,0.155734 -0.09375,0.15625 -2.87e-4,5.16e-4 -0.06226,0.155711 -0.0625,0.15625 -2.4e-4,5.39e-4 -0.09356,0.155692 -0.09375,0.15625 -1.91e-4,5.58e-4 -0.03111,0.186927 -0.03125,0.1875 -1.41e-4,5.73e-4 -0.03116,0.155667 -0.03125,0.15625 -9e-5,5.83e-4 -0.03121,0.186911 -0.03125,0.1875 -3.1e-5,4.91e-4 7.93e-4,0.114597 0,0.15625 l 0,0.03125 0,5.96875 c -7e-6,6.6e-4 -5.9e-5,0.186842 0,0.1875 5.9e-5,6.58e-4 0.03113,0.186851 0.03125,0.1875 1.24e-4,6.49e-4 0.06231,0.218117 0.0625,0.21875 1.88e-4,6.33e-4 0.06225,0.186889 0.0625,0.1875 2.5e-4,6.11e-4 0.06219,0.186916 0.0625,0.1875 3.09e-4,5.84e-4 0.124634,0.1557 0.125,0.15625 3.66e-4,5.5e-4 0.124582,0.155739 0.125,0.15625 4.18e-4,5.11e-4 0.124533,0.155783 0.125,0.15625 4.67e-4,4.67e-4 0.155739,0.124582 0.15625,0.125 5.11e-4,4.18e-4 0.1557,0.124634 0.15625,0.125 5.5e-4,3.66e-4 0.155666,0.124691 0.15625,0.125 5.84e-4,3.09e-4 0.186889,0.06225 0.1875,0.0625 6.11e-4,2.5e-4 0.186867,0.06231 0.1875,0.0625 5.5e-4,1.63e-4 0.148464,0.05303 0.1875,0.0625 -0.04867,0.01081 -0.124568,0.03113 -0.125,0.03125 -5.7e-4,1.54e-4 -0.186946,0.03105 -0.1875,0.03125 -5.54e-4,2.03e-4 -0.155716,0.0935 -0.15625,0.09375 -5.34e-4,2.52e-4 -0.155741,0.0622 -0.15625,0.0625 -5.09e-4,2.98e-4 -0.155769,0.09341 -0.15625,0.09375 -4.81e-4,3.42e-4 -0.124551,0.124616 -0.125,0.125 -4.49e-4,3.84e-4 -0.155837,0.124578 -0.15625,0.125 -4.13e-4,4.22e-4 -0.09338,0.124543 -0.09375,0.125 -3.74e-4,4.57e-4 -0.124668,0.155762 -0.125,0.15625 -3.32e-4,4.88e-4 -0.09346,0.155734 -0.09375,0.15625 -2.87e-4,5.16e-4 -0.06226,0.155711 -0.0625,0.15625 -2.4e-4,5.39e-4 -0.09356,0.155692 -0.09375,0.15625 -1.91e-4,5.58e-4 -0.03111,0.186927 -0.03125,0.1875 -1.41e-4,5.73e-4 -0.03116,0.155667 -0.03125,0.15625 -9e-5,5.83e-4 -0.03121,0.186911 -0.03125,0.1875 -3.1e-5,4.91e-4 7.93e-4,0.114597 0,0.15625 l 0,0.03125 0,5.96875 c -7e-6,6.6e-4 -5.9e-5,0.186842 0,0.1875 5.9e-5,6.58e-4 0.03113,0.186851 0.03125,0.1875 1.24e-4,6.49e-4 0.06231,0.218117 0.0625,0.21875 1.88e-4,6.33e-4 0.06225,0.186889 0.0625,0.1875 2.5e-4,6.11e-4 0.06219,0.186916 0.0625,0.1875 3.09e-4,5.84e-4 0.124634,0.1557 0.125,0.15625 3.66e-4,5.5e-4 0.124582,0.155739 0.125,0.15625 4.18e-4,5.11e-4 0.124533,0.155783 0.125,0.15625 4.67e-4,4.67e-4 0.155739,0.124582 0.15625,0.125 5.11e-4,4.18e-4 0.1557,0.124634 0.15625,0.125 5.5e-4,3.66e-4 0.155666,0.124691 0.15625,0.125 5.84e-4,3.09e-4 0.186889,0.06225 0.1875,0.0625 6.11e-4,2.5e-4 0.186867,0.06231 0.1875,0.0625 5.5e-4,1.63e-4 0.148464,0.05303 0.1875,0.0625 -0.04867,0.01081 -0.124568,0.03113 -0.125,0.03125 -5.7e-4,1.54e-4 -0.186946,0.03105 -0.1875,0.03125 -5.54e-4,2.03e-4 -0.155716,0.0935 -0.15625,0.09375 -5.34e-4,2.52e-4 -0.155741,0.0622 -0.15625,0.0625 -5.09e-4,2.98e-4 -0.155769,0.09341 -0.15625,0.09375 -4.81e-4,3.42e-4 -0.124551,0.124616 -0.125,0.125 -4.49e-4,3.84e-4 -0.155837,0.124578 -0.15625,0.125 -4.13e-4,4.22e-4 -0.09338,0.124543 -0.09375,0.125 -3.74e-4,4.57e-4 -0.124668,0.155762 -0.125,0.15625 -3.32e-4,4.88e-4 -0.09346,0.155734 -0.09375,0.15625 -2.87e-4,5.16e-4 -0.06226,0.155711 -0.0625,0.15625 -2.4e-4,5.39e-4 -0.09356,0.155692 -0.09375,0.15625 -1.91e-4,5.58e-4 -0.03111,0.186927 -0.03125,0.1875 -1.41e-4,5.73e-4 -0.03116,0.155667 -0.03125,0.15625 -9e-5,5.83e-4 -0.03121,0.186911 -0.03125,0.1875 -3.1e-5,4.91e-4 7.93e-4,0.114597 0,0.15625 l 0,0.03125 0,5.96875 c -7e-6,6.6e-4 -5.9e-5,0.186842 0,0.1875 5.9e-5,6.58e-4 0.03113,0.186851 0.03125,0.1875 1.24e-4,6.49e-4 0.06231,0.218117 0.0625,0.21875 1.88e-4,6.33e-4 0.06225,0.186889 0.0625,0.1875 2.5e-4,6.11e-4 0.06219,0.186916 0.0625,0.1875 3.09e-4,5.84e-4 0.124634,0.1557 0.125,0.15625 3.66e-4,5.5e-4 0.124582,0.155739 0.125,0.15625 4.18e-4,5.11e-4 0.124533,0.155783 0.125,0.15625 4.67e-4,4.67e-4 0.155739,0.124582 0.15625,0.125 5.11e-4,4.18e-4 0.1557,0.124634 0.15625,0.125 5.5e-4,3.66e-4 0.155666,0.124691 0.15625,0.125 5.84e-4,3.09e-4 0.186889,0.06225 0.1875,0.0625 6.11e-4,2.5e-4 0.186867,0.06231 0.1875,0.0625 6.33e-4,1.88e-4 0.218101,0.06238 0.21875,0.0625 6.49e-4,1.24e-4 0.186842,0.03119 0.1875,0.03125 6.58e-4,5.9e-5 0.18684,7e-6 0.1875,0 l 6,0 c 6.6e-4,7e-6 0.186842,5.9e-5 0.1875,0 6.58e-4,-5.9e-5 0.186851,-0.03113 0.1875,-0.03125 6.49e-4,-1.24e-4 0.218117,-0.06231 0.21875,-0.0625 6.33e-4,-1.88e-4 0.186889,-0.06225 0.1875,-0.0625 6.11e-4,-2.5e-4 0.186916,-0.06219 0.1875,-0.0625 5.84e-4,-3.09e-4 0.1557,-0.124634 0.15625,-0.125 5.5e-4,-3.66e-4 0.155739,-0.124582 0.15625,-0.125 5.11e-4,-4.18e-4 0.155783,-0.124533 0.15625,-0.125 4.67e-4,-4.67e-4 0.124582,-0.155739 0.125,-0.15625 4.18e-4,-5.11e-4 0.124634,-0.1557 0.125,-0.15625 3.66e-4,-5.5e-4 0.124691,-0.155666 0.125,-0.15625 3.09e-4,-5.84e-4 0.06225,-0.186889 0.0625,-0.1875 2.5e-4,-6.11e-4 0.06231,-0.186867 0.0625,-0.1875 1.88e-4,-6.33e-4 0.06238,-0.218101 0.0625,-0.21875 1.24e-4,6.49e-4 0.06231,0.218117 0.0625,0.21875 1.88e-4,6.33e-4 0.06225,0.186889 0.0625,0.1875 2.5e-4,6.11e-4 0.06219,0.186916 0.0625,0.1875 3.09e-4,5.84e-4 0.124634,0.1557 0.125,0.15625 3.66e-4,5.5e-4 0.124582,0.155739 0.125,0.15625 4.18e-4,5.11e-4 0.124533,0.155783 0.125,0.15625 4.67e-4,4.67e-4 0.155739,0.124582 0.15625,0.125 5.11e-4,4.18e-4 0.1557,0.124634 0.15625,0.125 5.5e-4,3.66e-4 0.155666,0.124691 0.15625,0.125 5.84e-4,3.09e-4 0.186889,0.06225 0.1875,0.0625 6.11e-4,2.5e-4 0.186867,0.06231 0.1875,0.0625 6.33e-4,1.88e-4 0.218101,0.06238 0.21875,0.0625 6.49e-4,1.24e-4 0.186842,0.03119 0.1875,0.03125 6.58e-4,5.9e-5 0.18684,7e-6 0.1875,0 l 38,0 c 6.6e-4,7e-6 0.186842,5.9e-5 0.1875,0 6.58e-4,-5.9e-5 0.186851,-0.03113 0.1875,-0.03125 6.49e-4,-1.24e-4 0.218117,-0.06231 0.21875,-0.0625 6.33e-4,-1.88e-4 0.186889,-0.06225 0.1875,-0.0625 6.11e-4,-2.5e-4 0.186916,-0.06219 0.1875,-0.0625 5.84e-4,-3.09e-4 0.1557,-0.124634 0.15625,-0.125 5.5e-4,-3.66e-4 0.155739,-0.124582 0.15625,-0.125 5.11e-4,-4.18e-4 0.155783,-0.124533 0.15625,-0.125 4.67e-4,-4.67e-4 0.124582,-0.155739 0.125,-0.15625 4.18e-4,-5.11e-4 0.124634,-0.1557 0.125,-0.15625 3.66e-4,-5.5e-4 0.124691,-0.155666 0.125,-0.15625 3.09e-4,-5.84e-4 0.06225,-0.186889 0.0625,-0.1875 2.5e-4,-6.11e-4 0.06231,-0.186867 0.0625,-0.1875 1.88e-4,-6.33e-4 0.06238,-0.218101 0.0625,-0.21875 1.24e-4,-6.49e-4 0.03119,-0.186842 0.03125,-0.1875 5.9e-5,-6.58e-4 7e-6,-0.18684 0,-0.1875 l 0,-6 c 7e-6,-6.6e-4 5.9e-5,-0.186842 0,-0.1875 -5.9e-5,-6.58e-4 -0.03113,-0.186851 -0.03125,-0.1875 -1.24e-4,-6.49e-4 -0.06231,-0.218117 -0.0625,-0.21875 -1.88e-4,-6.33e-4 -0.06225,-0.186889 -0.0625,-0.1875 -2.5e-4,-6.11e-4 -0.06219,-0.186916 -0.0625,-0.1875 -3.09e-4,-5.84e-4 -0.124634,-0.1557 -0.125,-0.15625 -3.66e-4,-5.5e-4 -0.124582,-0.155739 -0.125,-0.15625 -4.18e-4,-5.11e-4 -0.124533,-0.155783 -0.125,-0.15625 -4.67e-4,-4.67e-4 -0.155739,-0.124582 -0.15625,-0.125 -5.11e-4,-4.18e-4 -0.1557,-0.124634 -0.15625,-0.125 -5.5e-4,-3.66e-4 -0.155666,-0.124691 -0.15625,-0.125 -5.84e-4,-3.09e-4 -0.186889,-0.06225 -0.1875,-0.0625 -6.11e-4,-2.5e-4 -0.186867,-0.06231 -0.1875,-0.0625 C 72.593117,63.062312 72.375649,63.00012 72.375,63 c 6.49e-4,-1.24e-4 0.218117,-0.06231 0.21875,-0.0625 6.33e-4,-1.88e-4 0.186889,-0.06225 0.1875,-0.0625 6.11e-4,-2.5e-4 0.186916,-0.06219 0.1875,-0.0625 5.84e-4,-3.09e-4 0.1557,-0.124634 0.15625,-0.125 5.5e-4,-3.66e-4 0.155739,-0.124582 0.15625,-0.125 5.11e-4,-4.18e-4 0.155783,-0.124533 0.15625,-0.125 4.67e-4,-4.67e-4 0.124582,-0.155739 0.125,-0.15625 4.18e-4,-5.11e-4 0.124634,-0.1557 0.125,-0.15625 3.66e-4,-5.5e-4 0.124691,-0.155666 0.125,-0.15625 3.09e-4,-5.84e-4 0.06225,-0.186889 0.0625,-0.1875 2.5e-4,-6.11e-4 0.06231,-0.186867 0.0625,-0.1875 1.88e-4,-6.33e-4 0.06238,-0.218101 0.0625,-0.21875 1.24e-4,-6.49e-4 0.03119,-0.186842 0.03125,-0.1875 5.9e-5,-6.58e-4 7e-6,-0.18684 0,-0.1875 l 0,-6 c 7e-6,-6.6e-4 5.9e-5,-0.186842 0,-0.1875 -5.9e-5,-6.58e-4 -0.03113,-0.186851 -0.03125,-0.1875 -1.24e-4,-6.49e-4 -0.06231,-0.218117 -0.0625,-0.21875 -1.88e-4,-6.33e-4 -0.06225,-0.186889 -0.0625,-0.1875 -2.5e-4,-6.11e-4 -0.06219,-0.186916 -0.0625,-0.1875 -3.09e-4,-5.84e-4 -0.124634,-0.1557 -0.125,-0.15625 -3.66e-4,-5.5e-4 -0.124582,-0.155739 -0.125,-0.15625 -4.18e-4,-5.11e-4 -0.124533,-0.155783 -0.125,-0.15625 -4.67e-4,-4.67e-4 -0.155739,-0.124582 -0.15625,-0.125 -5.11e-4,-4.18e-4 -0.1557,-0.124634 -0.15625,-0.125 -5.5e-4,-3.66e-4 -0.155666,-0.124691 -0.15625,-0.125 -5.84e-4,-3.09e-4 -0.186889,-0.06225 -0.1875,-0.0625 -6.11e-4,-2.5e-4 -0.186867,-0.06231 -0.1875,-0.0625 C 72.593117,53.062312 72.375649,53.00012 72.375,53 c 6.49e-4,-1.24e-4 0.218117,-0.06231 0.21875,-0.0625 6.33e-4,-1.88e-4 0.186889,-0.06225 0.1875,-0.0625 6.11e-4,-2.5e-4 0.186916,-0.06219 0.1875,-0.0625 5.84e-4,-3.09e-4 0.1557,-0.124634 0.15625,-0.125 5.5e-4,-3.66e-4 0.155739,-0.124582 0.15625,-0.125 5.11e-4,-4.18e-4 0.155783,-0.124533 0.15625,-0.125 4.67e-4,-4.67e-4 0.124582,-0.155739 0.125,-0.15625 4.18e-4,-5.11e-4 0.124634,-0.1557 0.125,-0.15625 3.66e-4,-5.5e-4 0.124691,-0.155666 0.125,-0.15625 3.09e-4,-5.84e-4 0.06225,-0.186889 0.0625,-0.1875 2.5e-4,-6.11e-4 0.06231,-0.186867 0.0625,-0.1875 1.88e-4,-6.33e-4 0.06238,-0.218101 0.0625,-0.21875 1.24e-4,-6.49e-4 0.03119,-0.186842 0.03125,-0.1875 5.9e-5,-6.58e-4 7e-6,-0.18684 0,-0.1875 l 0,-6 c 7e-6,-6.6e-4 5.9e-5,-0.186842 0,-0.1875 -5.9e-5,-6.58e-4 -0.03113,-0.186851 -0.03125,-0.1875 -1.24e-4,-6.49e-4 -0.06231,-0.218117 -0.0625,-0.21875 -1.88e-4,-6.33e-4 -0.06225,-0.186889 -0.0625,-0.1875 -2.5e-4,-6.11e-4 -0.06219,-0.186916 -0.0625,-0.1875 -3.09e-4,-5.84e-4 -0.124634,-0.1557 -0.125,-0.15625 -3.66e-4,-5.5e-4 -0.124582,-0.155739 -0.125,-0.15625 -4.18e-4,-5.11e-4 -0.124533,-0.155783 -0.125,-0.15625 -4.67e-4,-4.67e-4 -0.155739,-0.124582 -0.15625,-0.125 -5.11e-4,-4.18e-4 -0.1557,-0.124634 -0.15625,-0.125 -5.5e-4,-3.66e-4 -0.155666,-0.124691 -0.15625,-0.125 -5.84e-4,-3.09e-4 -0.186889,-0.06225 -0.1875,-0.0625 -6.11e-4,-2.5e-4 -0.186867,-0.06231 -0.1875,-0.0625 C 72.593117,43.062312 72.375649,43.00012 72.375,43 c 6.49e-4,-1.24e-4 0.218117,-0.06231 0.21875,-0.0625 6.33e-4,-1.88e-4 0.186889,-0.06225 0.1875,-0.0625 6.11e-4,-2.5e-4 0.186916,-0.06219 0.1875,-0.0625 5.84e-4,-3.09e-4 0.1557,-0.124634 0.15625,-0.125 5.5e-4,-3.66e-4 0.155739,-0.124582 0.15625,-0.125 5.11e-4,-4.18e-4 0.155783,-0.124533 0.15625,-0.125 4.67e-4,-4.67e-4 0.124582,-0.155739 0.125,-0.15625 4.18e-4,-5.11e-4 0.124634,-0.1557 0.125,-0.15625 3.66e-4,-5.5e-4 0.124691,-0.155666 0.125,-0.15625 3.09e-4,-5.84e-4 0.06225,-0.186889 0.0625,-0.1875 2.5e-4,-6.11e-4 0.06231,-0.186867 0.0625,-0.1875 1.88e-4,-6.33e-4 0.06238,-0.218101 0.0625,-0.21875 1.24e-4,-6.49e-4 0.03119,-0.186842 0.03125,-0.1875 5.9e-5,-6.58e-4 7e-6,-0.18684 0,-0.1875 l 0,-6 c 7e-6,-6.6e-4 5.9e-5,-0.186842 0,-0.1875 -5.9e-5,-6.58e-4 -0.03113,-0.186851 -0.03125,-0.1875 -1.24e-4,-6.49e-4 -0.06231,-0.218117 -0.0625,-0.21875 -1.88e-4,-6.33e-4 -0.06225,-0.186889 -0.0625,-0.1875 -2.5e-4,-6.11e-4 -0.06219,-0.186916 -0.0625,-0.1875 -3.09e-4,-5.84e-4 -0.124634,-0.1557 -0.125,-0.15625 -3.66e-4,-5.5e-4 -0.124582,-0.155739 -0.125,-0.15625 -4.18e-4,-5.11e-4 -0.124533,-0.155783 -0.125,-0.15625 -4.67e-4,-4.67e-4 -0.155739,-0.124582 -0.15625,-0.125 -5.11e-4,-4.18e-4 -0.1557,-0.124634 -0.15625,-0.125 -5.5e-4,-3.66e-4 -0.155666,-0.124691 -0.15625,-0.125 -5.84e-4,-3.09e-4 -0.186889,-0.06225 -0.1875,-0.0625 -6.11e-4,-2.5e-4 -0.186867,-0.06231 -0.1875,-0.0625 C 72.593117,33.062312 72.375649,33.00012 72.375,33 c 6.49e-4,-1.24e-4 0.218117,-0.06231 0.21875,-0.0625 6.33e-4,-1.88e-4 0.186889,-0.06225 0.1875,-0.0625 6.11e-4,-2.5e-4 0.186916,-0.06219 0.1875,-0.0625 5.84e-4,-3.09e-4 0.1557,-0.124634 0.15625,-0.125 5.5e-4,-3.66e-4 0.155739,-0.124582 0.15625,-0.125 5.11e-4,-4.18e-4 0.155783,-0.124533 0.15625,-0.125 4.67e-4,-4.67e-4 0.124582,-0.155739 0.125,-0.15625 4.18e-4,-5.11e-4 0.124634,-0.1557 0.125,-0.15625 3.66e-4,-5.5e-4 0.124691,-0.155666 0.125,-0.15625 3.09e-4,-5.84e-4 0.06225,-0.186889 0.0625,-0.1875 2.5e-4,-6.11e-4 0.06231,-0.186867 0.0625,-0.1875 1.88e-4,-6.33e-4 0.06238,-0.218101 0.0625,-0.21875 1.24e-4,-6.49e-4 0.03119,-0.186842 0.03125,-0.1875 5.9e-5,-6.58e-4 7e-6,-0.18684 0,-0.1875 l 0,-6 c 7e-6,-6.6e-4 5.9e-5,-0.186842 0,-0.1875 -5.9e-5,-6.58e-4 -0.03113,-0.186851 -0.03125,-0.1875 -1.24e-4,-6.49e-4 -0.06231,-0.218117 -0.0625,-0.21875 -1.88e-4,-6.33e-4 -0.06225,-0.186889 -0.0625,-0.1875 -2.5e-4,-6.11e-4 -0.06219,-0.186916 -0.0625,-0.1875 -3.09e-4,-5.84e-4 -0.124634,-0.1557 -0.125,-0.15625 -3.66e-4,-5.5e-4 -0.124582,-0.155739 -0.125,-0.15625 -4.18e-4,-5.11e-4 -0.124533,-0.155783 -0.125,-0.15625 -4.67e-4,-4.67e-4 -0.155739,-0.124582 -0.15625,-0.125 -5.11e-4,-4.18e-4 -0.1557,-0.124634 -0.15625,-0.125 -5.5e-4,-3.66e-4 -0.155666,-0.124691 -0.15625,-0.125 -5.84e-4,-3.09e-4 -0.186889,-0.06225 -0.1875,-0.0625 -6.11e-4,-2.5e-4 -0.186867,-0.06231 -0.1875,-0.0625 C 72.593117,23.062312 72.375649,23.00012 72.375,23 c -6.49e-4,-1.24e-4 -0.186842,-0.03119 -0.1875,-0.03125 -6.58e-4,-5.9e-5 -0.18684,-7e-6 -0.1875,0 l -37.96875,0 c -1.22e-4,-6e-6 -0.01936,3e-6 -0.03125,0 -0.02378,-7e-6 -0.02696,-2e-6 -0.0625,0 -2.44e-4,-1.1e-5 -0.02696,2e-6 -0.0625,0 -0.05331,-3e-6 -0.09338,-1.7e-5 -0.09375,0 a 1.0013279,1.0013279 0 0 0 -0.15625,0 c -5.81e-4,1.02e-4 -0.15568,0.06235 -0.15625,0.0625 -5.7e-4,1.54e-4 -0.186946,0.03105 -0.1875,0.03125 -5.54e-4,2.03e-4 -0.155716,0.0935 -0.15625,0.09375 -5.34e-4,2.52e-4 -0.155741,0.0622 -0.15625,0.0625 -5.09e-4,2.98e-4 -0.155769,0.09341 -0.15625,0.09375 -4.81e-4,3.42e-4 -0.124551,0.124616 -0.125,0.125 -4.49e-4,3.84e-4 -0.155837,0.124578 -0.15625,0.125 -4.13e-4,4.22e-4 -0.09338,0.124543 -0.09375,0.125 -3.74e-4,4.57e-4 -0.124668,0.155762 -0.125,0.15625 -3.32e-4,4.88e-4 -0.09346,0.155734 -0.09375,0.15625 -2.87e-4,5.16e-4 -0.06226,0.155711 -0.0625,0.15625 -2.4e-4,5.39e-4 -0.09356,0.155692 -0.09375,0.15625 -1.91e-4,5.58e-4 -0.03111,0.186927 -0.03125,0.1875 -1.14e-4,4.63e-4 -0.02243,0.08077 -0.03125,0.125 -1.24e-4,-6.49e-4 -0.06231,-0.218117 -0.0625,-0.21875 -1.88e-4,-6.33e-4 -0.06225,-0.186889 -0.0625,-0.1875 -2.5e-4,-6.11e-4 -0.06219,-0.186916 -0.0625,-0.1875 -3.09e-4,-5.84e-4 -0.124634,-0.1557 -0.125,-0.15625 -3.66e-4,-5.5e-4 -0.124582,-0.155739 -0.125,-0.15625 -4.18e-4,-5.11e-4 -0.124533,-0.155783 -0.125,-0.15625 -4.67e-4,-4.67e-4 -0.155739,-0.124582 -0.15625,-0.125 -5.11e-4,-4.18e-4 -0.1557,-0.124634 -0.15625,-0.125 -5.5e-4,-3.66e-4 -0.155666,-0.124691 -0.15625,-0.125 -5.84e-4,-3.09e-4 -0.186889,-0.06225 -0.1875,-0.0625 -6.11e-4,-2.5e-4 -0.186867,-0.06231 -0.1875,-0.0625 C 30.593117,23.062312 30.375649,23.00012 30.375,23 c -6.49e-4,-1.24e-4 -0.186842,-0.03119 -0.1875,-0.03125 -6.58e-4,-5.9e-5 -0.18684,-7e-6 -0.1875,0 l -5.96875,0 c -1.22e-4,-6e-6 -0.01936,3e-6 -0.03125,0 -0.02378,-7e-6 -0.02696,-2e-6 -0.0625,0 -2.44e-4,-1.1e-5 -0.02696,2e-6 -0.0625,0 -0.05331,-3e-6 -0.09338,-1.7e-5 -0.09375,0 a 1.0013279,1.0013279 0 0 0 -0.15625,0 z M 32,31.375 c 1.24e-4,6.49e-4 0.06231,0.218117 0.0625,0.21875 1.88e-4,6.33e-4 0.06225,0.186889 0.0625,0.1875 2.5e-4,6.11e-4 0.06219,0.186916 0.0625,0.1875 3.09e-4,5.84e-4 0.124634,0.1557 0.125,0.15625 3.66e-4,5.5e-4 0.124582,0.155739 0.125,0.15625 4.18e-4,5.11e-4 0.124533,0.155783 0.125,0.15625 4.67e-4,4.67e-4 0.155739,0.124582 0.15625,0.125 5.11e-4,4.18e-4 0.1557,0.124634 0.15625,0.125 5.5e-4,3.66e-4 0.155666,0.124691 0.15625,0.125 5.84e-4,3.09e-4 0.186889,0.06225 0.1875,0.0625 6.11e-4,2.5e-4 0.186867,0.06231 0.1875,0.0625 5.5e-4,1.63e-4 0.148464,0.05303 0.1875,0.0625 -0.04867,0.01081 -0.124568,0.03113 -0.125,0.03125 -5.7e-4,1.54e-4 -0.186946,0.03105 -0.1875,0.03125 -5.54e-4,2.03e-4 -0.155716,0.0935 -0.15625,0.09375 -5.34e-4,2.52e-4 -0.155741,0.0622 -0.15625,0.0625 -5.09e-4,2.98e-4 -0.155769,0.09341 -0.15625,0.09375 -4.81e-4,3.42e-4 -0.124551,0.124616 -0.125,0.125 -4.49e-4,3.84e-4 -0.155837,0.124578 -0.15625,0.125 -4.13e-4,4.22e-4 -0.09338,0.124543 -0.09375,0.125 -3.74e-4,4.57e-4 -0.124668,0.155762 -0.125,0.15625 -3.32e-4,4.88e-4 -0.09346,0.155734 -0.09375,0.15625 -2.87e-4,5.16e-4 -0.06226,0.155711 -0.0625,0.15625 -2.4e-4,5.39e-4 -0.09356,0.155692 -0.09375,0.15625 -1.91e-4,5.58e-4 -0.03111,0.186927 -0.03125,0.1875 -1.14e-4,4.63e-4 -0.02243,0.08077 -0.03125,0.125 -1.24e-4,-6.49e-4 -0.06231,-0.218117 -0.0625,-0.21875 -1.88e-4,-6.33e-4 -0.06225,-0.186889 -0.0625,-0.1875 -2.5e-4,-6.11e-4 -0.06219,-0.186916 -0.0625,-0.1875 -3.09e-4,-5.84e-4 -0.124634,-0.1557 -0.125,-0.15625 -3.66e-4,-5.5e-4 -0.124582,-0.155739 -0.125,-0.15625 -4.18e-4,-5.11e-4 -0.124533,-0.155783 -0.125,-0.15625 -4.67e-4,-4.67e-4 -0.155739,-0.124582 -0.15625,-0.125 -5.11e-4,-4.18e-4 -0.1557,-0.124634 -0.15625,-0.125 -5.5e-4,-3.66e-4 -0.155666,-0.124691 -0.15625,-0.125 -5.84e-4,-3.09e-4 -0.186889,-0.06225 -0.1875,-0.0625 -6.11e-4,-2.5e-4 -0.186867,-0.06231 -0.1875,-0.0625 C 30.593117,33.062312 30.375649,33.00012 30.375,33 c 6.49e-4,-1.24e-4 0.218117,-0.06231 0.21875,-0.0625 6.33e-4,-1.88e-4 0.186889,-0.06225 0.1875,-0.0625 6.11e-4,-2.5e-4 0.186916,-0.06219 0.1875,-0.0625 5.84e-4,-3.09e-4 0.1557,-0.124634 0.15625,-0.125 5.5e-4,-3.66e-4 0.155739,-0.124582 0.15625,-0.125 5.11e-4,-4.18e-4 0.155783,-0.124533 0.15625,-0.125 4.67e-4,-4.67e-4 0.124582,-0.155739 0.125,-0.15625 4.18e-4,-5.11e-4 0.124634,-0.1557 0.125,-0.15625 3.66e-4,-5.5e-4 0.124691,-0.155666 0.125,-0.15625 3.09e-4,-5.84e-4 0.06225,-0.186889 0.0625,-0.1875 2.5e-4,-6.11e-4 0.06231,-0.186867 0.0625,-0.1875 1.88e-4,-6.33e-4 0.06238,-0.218101 0.0625,-0.21875 z m 0,10 c 1.24e-4,6.49e-4 0.06231,0.218117 0.0625,0.21875 1.88e-4,6.33e-4 0.06225,0.186889 0.0625,0.1875 2.5e-4,6.11e-4 0.06219,0.186916 0.0625,0.1875 3.09e-4,5.84e-4 0.124634,0.1557 0.125,0.15625 3.66e-4,5.5e-4 0.124582,0.155739 0.125,0.15625 4.18e-4,5.11e-4 0.124533,0.155783 0.125,0.15625 4.67e-4,4.67e-4 0.155739,0.124582 0.15625,0.125 5.11e-4,4.18e-4 0.1557,0.124634 0.15625,0.125 5.5e-4,3.66e-4 0.155666,0.124691 0.15625,0.125 5.84e-4,3.09e-4 0.186889,0.06225 0.1875,0.0625 6.11e-4,2.5e-4 0.186867,0.06231 0.1875,0.0625 5.5e-4,1.63e-4 0.148464,0.05303 0.1875,0.0625 -0.04867,0.01081 -0.124568,0.03113 -0.125,0.03125 -5.7e-4,1.54e-4 -0.186946,0.03105 -0.1875,0.03125 -5.54e-4,2.03e-4 -0.155716,0.0935 -0.15625,0.09375 -5.34e-4,2.52e-4 -0.155741,0.0622 -0.15625,0.0625 -5.09e-4,2.98e-4 -0.155769,0.09341 -0.15625,0.09375 -4.81e-4,3.42e-4 -0.124551,0.124616 -0.125,0.125 -4.49e-4,3.84e-4 -0.155837,0.124578 -0.15625,0.125 -4.13e-4,4.22e-4 -0.09338,0.124543 -0.09375,0.125 -3.74e-4,4.57e-4 -0.124668,0.155762 -0.125,0.15625 -3.32e-4,4.88e-4 -0.09346,0.155734 -0.09375,0.15625 -2.87e-4,5.16e-4 -0.06226,0.155711 -0.0625,0.15625 -2.4e-4,5.39e-4 -0.09356,0.155692 -0.09375,0.15625 -1.91e-4,5.58e-4 -0.03111,0.186927 -0.03125,0.1875 -1.14e-4,4.63e-4 -0.02243,0.08077 -0.03125,0.125 -1.24e-4,-6.49e-4 -0.06231,-0.218117 -0.0625,-0.21875 -1.88e-4,-6.33e-4 -0.06225,-0.186889 -0.0625,-0.1875 -2.5e-4,-6.11e-4 -0.06219,-0.186916 -0.0625,-0.1875 -3.09e-4,-5.84e-4 -0.124634,-0.1557 -0.125,-0.15625 -3.66e-4,-5.5e-4 -0.124582,-0.155739 -0.125,-0.15625 -4.18e-4,-5.11e-4 -0.124533,-0.155783 -0.125,-0.15625 -4.67e-4,-4.67e-4 -0.155739,-0.124582 -0.15625,-0.125 -5.11e-4,-4.18e-4 -0.1557,-0.124634 -0.15625,-0.125 -5.5e-4,-3.66e-4 -0.155666,-0.124691 -0.15625,-0.125 -5.84e-4,-3.09e-4 -0.186889,-0.06225 -0.1875,-0.0625 -6.11e-4,-2.5e-4 -0.186867,-0.06231 -0.1875,-0.0625 C 30.593117,43.062312 30.375649,43.00012 30.375,43 c 6.49e-4,-1.24e-4 0.218117,-0.06231 0.21875,-0.0625 6.33e-4,-1.88e-4 0.186889,-0.06225 0.1875,-0.0625 6.11e-4,-2.5e-4 0.186916,-0.06219 0.1875,-0.0625 5.84e-4,-3.09e-4 0.1557,-0.124634 0.15625,-0.125 5.5e-4,-3.66e-4 0.155739,-0.124582 0.15625,-0.125 5.11e-4,-4.18e-4 0.155783,-0.124533 0.15625,-0.125 4.67e-4,-4.67e-4 0.124582,-0.155739 0.125,-0.15625 4.18e-4,-5.11e-4 0.124634,-0.1557 0.125,-0.15625 3.66e-4,-5.5e-4 0.124691,-0.155666 0.125,-0.15625 3.09e-4,-5.84e-4 0.06225,-0.186889 0.0625,-0.1875 2.5e-4,-6.11e-4 0.06231,-0.186867 0.0625,-0.1875 1.88e-4,-6.33e-4 0.06238,-0.218101 0.0625,-0.21875 z m 0,10 c 1.24e-4,6.49e-4 0.06231,0.218117 0.0625,0.21875 1.88e-4,6.33e-4 0.06225,0.186889 0.0625,0.1875 2.5e-4,6.11e-4 0.06219,0.186916 0.0625,0.1875 3.09e-4,5.84e-4 0.124634,0.1557 0.125,0.15625 3.66e-4,5.5e-4 0.124582,0.155739 0.125,0.15625 4.18e-4,5.11e-4 0.124533,0.155783 0.125,0.15625 4.67e-4,4.67e-4 0.155739,0.124582 0.15625,0.125 5.11e-4,4.18e-4 0.1557,0.124634 0.15625,0.125 5.5e-4,3.66e-4 0.155666,0.124691 0.15625,0.125 5.84e-4,3.09e-4 0.186889,0.06225 0.1875,0.0625 6.11e-4,2.5e-4 0.186867,0.06231 0.1875,0.0625 5.5e-4,1.63e-4 0.148464,0.05303 0.1875,0.0625 -0.04867,0.01081 -0.124568,0.03113 -0.125,0.03125 -5.7e-4,1.54e-4 -0.186946,0.03105 -0.1875,0.03125 -5.54e-4,2.03e-4 -0.155716,0.0935 -0.15625,0.09375 -5.34e-4,2.52e-4 -0.155741,0.0622 -0.15625,0.0625 -5.09e-4,2.98e-4 -0.155769,0.09341 -0.15625,0.09375 -4.81e-4,3.42e-4 -0.124551,0.124616 -0.125,0.125 -4.49e-4,3.84e-4 -0.155837,0.124578 -0.15625,0.125 -4.13e-4,4.22e-4 -0.09338,0.124543 -0.09375,0.125 -3.74e-4,4.57e-4 -0.124668,0.155762 -0.125,0.15625 -3.32e-4,4.88e-4 -0.09346,0.155734 -0.09375,0.15625 -2.87e-4,5.16e-4 -0.06226,0.155711 -0.0625,0.15625 -2.4e-4,5.39e-4 -0.09356,0.155692 -0.09375,0.15625 -1.91e-4,5.58e-4 -0.03111,0.186927 -0.03125,0.1875 -1.14e-4,4.63e-4 -0.02243,0.08077 -0.03125,0.125 -1.24e-4,-6.49e-4 -0.06231,-0.218117 -0.0625,-0.21875 -1.88e-4,-6.33e-4 -0.06225,-0.186889 -0.0625,-0.1875 -2.5e-4,-6.11e-4 -0.06219,-0.186916 -0.0625,-0.1875 -3.09e-4,-5.84e-4 -0.124634,-0.1557 -0.125,-0.15625 -3.66e-4,-5.5e-4 -0.124582,-0.155739 -0.125,-0.15625 -4.18e-4,-5.11e-4 -0.124533,-0.155783 -0.125,-0.15625 -4.67e-4,-4.67e-4 -0.155739,-0.124582 -0.15625,-0.125 -5.11e-4,-4.18e-4 -0.1557,-0.124634 -0.15625,-0.125 -5.5e-4,-3.66e-4 -0.155666,-0.124691 -0.15625,-0.125 -5.84e-4,-3.09e-4 -0.186889,-0.06225 -0.1875,-0.0625 -6.11e-4,-2.5e-4 -0.186867,-0.06231 -0.1875,-0.0625 C 30.593117,53.062312 30.375649,53.00012 30.375,53 c 6.49e-4,-1.24e-4 0.218117,-0.06231 0.21875,-0.0625 6.33e-4,-1.88e-4 0.186889,-0.06225 0.1875,-0.0625 6.11e-4,-2.5e-4 0.186916,-0.06219 0.1875,-0.0625 5.84e-4,-3.09e-4 0.1557,-0.124634 0.15625,-0.125 5.5e-4,-3.66e-4 0.155739,-0.124582 0.15625,-0.125 5.11e-4,-4.18e-4 0.155783,-0.124533 0.15625,-0.125 4.67e-4,-4.67e-4 0.124582,-0.155739 0.125,-0.15625 4.18e-4,-5.11e-4 0.124634,-0.1557 0.125,-0.15625 3.66e-4,-5.5e-4 0.124691,-0.155666 0.125,-0.15625 3.09e-4,-5.84e-4 0.06225,-0.186889 0.0625,-0.1875 2.5e-4,-6.11e-4 0.06231,-0.186867 0.0625,-0.1875 1.88e-4,-6.33e-4 0.06238,-0.218101 0.0625,-0.21875 z m 0,10 c 1.24e-4,6.49e-4 0.06231,0.218117 0.0625,0.21875 1.88e-4,6.33e-4 0.06225,0.186889 0.0625,0.1875 2.5e-4,6.11e-4 0.06219,0.186916 0.0625,0.1875 3.09e-4,5.84e-4 0.124634,0.1557 0.125,0.15625 3.66e-4,5.5e-4 0.124582,0.155739 0.125,0.15625 4.18e-4,5.11e-4 0.124533,0.155783 0.125,0.15625 4.67e-4,4.67e-4 0.155739,0.124582 0.15625,0.125 5.11e-4,4.18e-4 0.1557,0.124634 0.15625,0.125 5.5e-4,3.66e-4 0.155666,0.124691 0.15625,0.125 5.84e-4,3.09e-4 0.186889,0.06225 0.1875,0.0625 6.11e-4,2.5e-4 0.186867,0.06231 0.1875,0.0625 5.5e-4,1.63e-4 0.148464,0.05303 0.1875,0.0625 -0.04867,0.01081 -0.124568,0.03113 -0.125,0.03125 -5.7e-4,1.54e-4 -0.186946,0.03105 -0.1875,0.03125 -5.54e-4,2.03e-4 -0.155716,0.0935 -0.15625,0.09375 -5.34e-4,2.52e-4 -0.155741,0.0622 -0.15625,0.0625 -5.09e-4,2.98e-4 -0.155769,0.09341 -0.15625,0.09375 -4.81e-4,3.42e-4 -0.124551,0.124616 -0.125,0.125 -4.49e-4,3.84e-4 -0.155837,0.124578 -0.15625,0.125 -4.13e-4,4.22e-4 -0.09338,0.124543 -0.09375,0.125 -3.74e-4,4.57e-4 -0.124668,0.155762 -0.125,0.15625 -3.32e-4,4.88e-4 -0.09346,0.155734 -0.09375,0.15625 -2.87e-4,5.16e-4 -0.06226,0.155711 -0.0625,0.15625 -2.4e-4,5.39e-4 -0.09356,0.155692 -0.09375,0.15625 -1.91e-4,5.58e-4 -0.03111,0.186927 -0.03125,0.1875 -1.14e-4,4.63e-4 -0.02243,0.08077 -0.03125,0.125 -1.24e-4,-6.49e-4 -0.06231,-0.218117 -0.0625,-0.21875 -1.88e-4,-6.33e-4 -0.06225,-0.186889 -0.0625,-0.1875 -2.5e-4,-6.11e-4 -0.06219,-0.186916 -0.0625,-0.1875 -3.09e-4,-5.84e-4 -0.124634,-0.1557 -0.125,-0.15625 -3.66e-4,-5.5e-4 -0.124582,-0.155739 -0.125,-0.15625 -4.18e-4,-5.11e-4 -0.124533,-0.155783 -0.125,-0.15625 -4.67e-4,-4.67e-4 -0.155739,-0.124582 -0.15625,-0.125 -5.11e-4,-4.18e-4 -0.1557,-0.124634 -0.15625,-0.125 -5.5e-4,-3.66e-4 -0.155666,-0.124691 -0.15625,-0.125 -5.84e-4,-3.09e-4 -0.186889,-0.06225 -0.1875,-0.0625 -6.11e-4,-2.5e-4 -0.186867,-0.06231 -0.1875,-0.0625 C 30.593117,63.062312 30.375649,63.00012 30.375,63 c 6.49e-4,-1.24e-4 0.218117,-0.06231 0.21875,-0.0625 6.33e-4,-1.88e-4 0.186889,-0.06225 0.1875,-0.0625 6.11e-4,-2.5e-4 0.186916,-0.06219 0.1875,-0.0625 5.84e-4,-3.09e-4 0.1557,-0.124634 0.15625,-0.125 5.5e-4,-3.66e-4 0.155739,-0.124582 0.15625,-0.125 5.11e-4,-4.18e-4 0.155783,-0.124533 0.15625,-0.125 4.67e-4,-4.67e-4 0.124582,-0.155739 0.125,-0.15625 4.18e-4,-5.11e-4 0.124634,-0.1557 0.125,-0.15625 3.66e-4,-5.5e-4 0.124691,-0.155666 0.125,-0.15625 3.09e-4,-5.84e-4 0.06225,-0.186889 0.0625,-0.1875 2.5e-4,-6.11e-4 0.06231,-0.186867 0.0625,-0.1875 1.88e-4,-6.33e-4 0.06238,-0.218101 0.0625,-0.21875 z" /><path
       style="opacity:0.15;fill:#000000;fill-opacity:1;stroke:none"
       id="path3845"
       d="M 23.90625,23.96875 A 1.021158,1.021158 0 0 0 22.96875,25 l 0,6 A 1.021158,1.021158 0 0 0 24,32.03125 l 6,0 A 1.021158,1.021158 0 0 0 31.03125,31 l 0,-6 A 1.021158,1.021158 0 0 0 30,23.96875 l -6,0 a 1.021158,1.021158 0 0 0 -0.09375,0 z m 10,0 A 1.021158,1.021158 0 0 0 32.96875,25 l 0,6 A 1.021158,1.021158 0 0 0 34,32.03125 l 38,0 A 1.021158,1.021158 0 0 0 73.03125,31 l 0,-6 A 1.021158,1.021158 0 0 0 72,23.96875 l -38,0 a 1.021158,1.021158 0 0 0 -0.09375,0 z m -10,10 A 1.021158,1.021158 0 0 0 22.96875,35 l 0,6 A 1.021158,1.021158 0 0 0 24,42.03125 l 6,0 A 1.021158,1.021158 0 0 0 31.03125,41 l 0,-6 A 1.021158,1.021158 0 0 0 30,33.96875 l -6,0 a 1.021158,1.021158 0 0 0 -0.09375,0 z m 10,0 A 1.021158,1.021158 0 0 0 32.96875,35 l 0,6 A 1.021158,1.021158 0 0 0 34,42.03125 l 38,0 A 1.021158,1.021158 0 0 0 73.03125,41 l 0,-6 A 1.021158,1.021158 0 0 0 72,33.96875 l -38,0 a 1.021158,1.021158 0 0 0 -0.09375,0 z m -10,10 A 1.021158,1.021158 0 0 0 22.96875,45 l 0,6 A 1.021158,1.021158 0 0 0 24,52.03125 l 6,0 A 1.021158,1.021158 0 0 0 31.03125,51 l 0,-6 A 1.021158,1.021158 0 0 0 30,43.96875 l -6,0 a 1.021158,1.021158 0 0 0 -0.09375,0 z m 10,0 A 1.021158,1.021158 0 0 0 32.96875,45 l 0,6 A 1.021158,1.021158 0 0 0 34,52.03125 l 38,0 A 1.021158,1.021158 0 0 0 73.03125,51 l 0,-6 A 1.021158,1.021158 0 0 0 72,43.96875 l -38,0 a 1.021158,1.021158 0 0 0 -0.09375,0 z m -10,10 A 1.021158,1.021158 0 0 0 22.96875,55 l 0,6 A 1.021158,1.021158 0 0 0 24,62.03125 l 6,0 A 1.021158,1.021158 0 0 0 31.03125,61 l 0,-6 A 1.021158,1.021158 0 0 0 30,53.96875 l -6,0 a 1.021158,1.021158 0 0 0 -0.09375,0 z m 10,0 A 1.021158,1.021158 0 0 0 32.96875,55 l 0,6 A 1.021158,1.021158 0 0 0 34,62.03125 l 38,0 A 1.021158,1.021158 0 0 0 73.03125,61 l 0,-6 A 1.021158,1.021158 0 0 0 72,53.96875 l -38,0 a 1.021158,1.021158 0 0 0 -0.09375,0 z m -10,10 A 1.021158,1.021158 0 0 0 22.96875,65 l 0,6 A 1.021158,1.021158 0 0 0 24,72.03125 l 6,0 A 1.021158,1.021158 0 0 0 31.03125,71 l 0,-6 A 1.021158,1.021158 0 0 0 30,63.96875 l -6,0 a 1.021158,1.021158 0 0 0 -0.09375,0 z m 10,0 A 1.021158,1.021158 0 0 0 32.96875,65 l 0,6 A 1.021158,1.021158 0 0 0 34,72.03125 l 38,0 A 1.021158,1.021158 0 0 0 73.03125,71 l 0,-6 A 1.021158,1.021158 0 0 0 72,63.96875 l -38,0 a 1.021158,1.021158 0 0 0 -0.09375,0 z" /><path
       style="opacity:0.3;fill:#000000;fill-opacity:1;stroke:none"
       id="path3839"
       inkscape:connector-curvature="0"
       d="m 24,25 0,6 6,0 0,-6 -6,0 z m 10,0 0,6 38,0 0,-6 -38,0 z m -8,2 2,0 0,2 -2,0 0,-2 z m -2,8 0,6 6,0 0,-6 -6,0 z m 10,0 0,6 38,0 0,-6 -38,0 z m -8,2 2,0 0,2 -2,0 0,-2 z m -2,8 0,6 6,0 0,-6 -6,0 z m 10,0 0,6 38,0 0,-6 -38,0 z m -8,2 2,0 0,2 -2,0 0,-2 z m -2,8 0,6 6,0 0,-6 -6,0 z m 10,0 0,6 38,0 0,-6 -38,0 z m -8,2 2,0 0,2 -2,0 0,-2 z m -2,8 0,6 6,0 0,-6 -6,0 z m 10,0 0,6 38,0 0,-6 -38,0 z m -8,2 2,0 0,2 -2,0 0,-2 z" /><path
       style="fill:url(#linearGradient3098);fill-opacity:1;stroke:none"
       id="path3794"
       inkscape:connector-curvature="0"
       d="m 24,24 0,6 6,0 0,-6 -6,0 z m 10,0 0,6 38,0 0,-6 -38,0 z m -8,2 2,0 0,2 -2,0 0,-2 z m -2,8 0,6 6,0 0,-6 -6,0 z m 10,0 0,6 38,0 0,-6 -38,0 z m -8,2 2,0 0,2 -2,0 0,-2 z m -2,8 0,6 6,0 0,-6 -6,0 z m 10,0 0,6 38,0 0,-6 -38,0 z m -8,2 2,0 0,2 -2,0 0,-2 z m -2,8 0,6 6,0 0,-6 -6,0 z m 10,0 0,6 38,0 0,-6 -38,0 z m -8,2 2,0 0,2 -2,0 0,-2 z m -2,8 0,6 6,0 0,-6 -6,0 z m 10,0 0,6 38,0 0,-6 -38,0 z m -8,2 2,0 0,2 -2,0 0,-2 z" /><path
       style="opacity:0.75;fill:#ffffff;fill-opacity:1;stroke:none"
       id="path3821"
       inkscape:connector-curvature="0"
       d="m 24,24 0,1 6,0 0,-1 -6,0 z m 10,0 0,1 38,0 0,-1 -38,0 z m -8,4 0,1 2,0 0,-1 -2,0 z m -2,6 0,1 6,0 0,-1 -6,0 z m 10,0 0,1 38,0 0,-1 -38,0 z m -8,4 0,1 2,0 0,-1 -2,0 z m -2,6 0,1 6,0 0,-1 -6,0 z m 10,0 0,1 38,0 0,-1 -38,0 z m -8,4 0,1 2,0 0,-1 -2,0 z m -2,6 0,1 6,0 0,-1 -6,0 z m 10,0 0,1 38,0 0,-1 -38,0 z m -8,4 0,1 2,0 0,-1 -2,0 z m -2,6 0,1 6,0 0,-1 -6,0 z m 10,0 0,1 38,0 0,-1 -38,0 z m -8,4 0,1 2,0 0,-1 -2,0 z" /><path
       style="opacity:0.15;fill:#000000;fill-opacity:1;stroke:none"
       id="path3830"
       inkscape:connector-curvature="0"
       d="m 26,25 0,1 2,0 0,-1 -2,0 z m -2,4 0,1 6,0 0,-1 -6,0 z m 10,0 0,1 38,0 0,-1 -38,0 z m -8,6 0,1 2,0 0,-1 -2,0 z m -2,4 0,1 6,0 0,-1 -6,0 z m 10,0 0,1 38,0 0,-1 -38,0 z m -8,6 0,1 2,0 0,-1 -2,0 z m -2,4 0,1 6,0 0,-1 -6,0 z m 10,0 0,1 38,0 0,-1 -38,0 z m -8,6 0,1 2,0 0,-1 -2,0 z m -2,4 0,1 6,0 0,-1 -6,0 z m 10,0 0,1 38,0 0,-1 -38,0 z m -8,6 0,1 2,0 0,-1 -2,0 z m -2,4 0,1 6,0 0,-1 -6,0 z m 10,0 0,1 38,0 0,-1 -38,0 z" /></g></g><g
   id="g3919"
   transform="matrix(1,0,0,-1,-24,52.476873)"><path
     sodipodi:nodetypes="cccccccc"
     id="path3277-7-7"
     d="m 69.217577,52.476873 0,-28.239933 -9.335358,0 L 81.104354,0 102,24.23694 l -9.982639,0 0,28.239933 -22.799784,0 z"
     style="fill:#000000;fill-opacity:0.63203466;stroke:none;overflow:visible" /><path
     id="path3277-7"
     d="m 71.914591,49.499658 0,-3.170125 17.461134,0 0,3.170125 -17.461134,0 z m 0,-6.916645 0,-6.62846 17.461134,0 0,6.62846 -17.461134,0 z m 0,-10.374971 0,-10.086779 -10.062343,0 19.236838,-20.4617499 18.940884,20.4617499 -10.654245,0 0,10.086779 -17.461134,0 z"
     style="fill:#000000;fill-opacity:0.14901961;stroke:none;overflow:visible" /><path
     id="path3277-0"
     d="m 72.514953,49.16781 0,-3.038939 16.299768,0 0,3.038939 -16.299768,0 z m 0,-6.630414 0,-6.354147 16.299768,0 0,6.354147 -16.299768,0 z m 0,-9.945621 0,-9.669354 -9.393087,0 17.957372,-19.6149759 17.681104,19.6149759 -9.945621,0 0,9.669354 -16.299768,0 z"
     style="fill:#000000;fill-opacity:0.30196078;stroke:none;overflow:visible" /><path
     id="path3277"
     d="m 72.514953,51.104378 0,-3.03894 16.299768,0 0,3.03894 -16.299768,0 z m 0,-6.630415 0,-6.354147 16.299768,0 0,6.354147 -16.299768,0 z m 0,-9.945621 0,-9.669354 -9.393087,0 17.957372,-19.6149757 17.681104,19.6149757 -9.945621,0 0,9.669354 -16.299768,0 z"
     style="fill:url(#linearGradient3914);fill-opacity:1;stroke:none" /><path
     id="path4379"
     d="M 64.193792,24.645657 81.091606,5.7943366 98.282449,24.547977"
     style="fill:none;stroke:#000000;stroke-width:0.88405526;stroke-linecap:butt;stroke-linejoin:miter;stroke-miterlimit:4;stroke-opacity:0.14901961;stroke-dasharray:none" /><path
     id="path4403"
     d="m 72.546398,50.386958 16.496383,0"
     style="fill:none;stroke:#f3f3f3;stroke-width:1.53809118;stroke-linecap:butt;stroke-linejoin:miter;stroke-miterlimit:4;stroke-opacity:1;stroke-dasharray:none" /><path
     id="path4403-4"
     d="m 72.546398,43.652446 16.496383,0"
     style="fill:none;stroke:#f3f3f3;stroke-width:1.53809118;stroke-linecap:butt;stroke-linejoin:miter;stroke-miterlimit:4;stroke-opacity:1;stroke-dasharray:none;overflow:visible" /><path
     id="path4403-8"
     d="m 72.546398,33.697065 16.496383,0"
     style="fill:none;stroke:#f3f3f3;stroke-width:1.53809118;stroke-linecap:butt;stroke-linejoin:miter;stroke-miterlimit:4;stroke-opacity:1;stroke-dasharray:none;overflow:visible" /><path
     id="path4403-5"
     d="m 64.245924,24.216289 8.634037,0"
     style="fill:none;stroke:#f3f3f3;stroke-width:1.11274219;stroke-linecap:butt;stroke-linejoin:miter;stroke-miterlimit:4;stroke-opacity:1;stroke-dasharray:none;overflow:visible" /><path
     id="path4403-5-6"
     d="m 88.469391,24.118618 8.634037,0"
     style="fill:none;stroke:#f3f3f3;stroke-width:1.11274219;stroke-linecap:butt;stroke-linejoin:miter;stroke-miterlimit:4;stroke-opacity:1;stroke-dasharray:none;overflow:visible" /><path
     id="path4403-0"
     d="m 72.546398,48.974423 16.496383,0"
     style="fill:none;stroke:#d9d9d9;stroke-width:1.53809118;stroke-linecap:butt;stroke-linejoin:miter;stroke-miterlimit:4;stroke-opacity:1;stroke-dasharray:none;overflow:visible" /><path
     id="path4403-4-7"
     d="m 72.546398,38.918949 16.496383,0"
     style="fill:none;stroke:#d9d9d9;stroke-width:1.53809118;stroke-linecap:butt;stroke-linejoin:miter;stroke-miterlimit:4;stroke-opacity:1;stroke-dasharray:none;overflow:visible" /><path
     sodipodi:nodetypes="ccc"
     id="path4379-6"
     d="M 64.905456,24.770582 80.918861,7.0742806 97.226515,24.770582"
     style="fill:none;stroke:#c1c1c1;stroke-width:0.88405526;stroke-linecap:butt;stroke-linejoin:miter;stroke-miterlimit:4;stroke-opacity:1;stroke-dasharray:none;overflow:visible" /></g></svg>