<?xml version="1.0" encoding="UTF-8" standalone="no"?>
<!-- Created with Inkscape (http://www.inkscape.org/) -->

<svg
   xmlns:dc="http://purl.org/dc/elements/1.1/"
   xmlns:cc="http://creativecommons.org/ns#"
   xmlns:rdf="http://www.w3.org/1999/02/22-rdf-syntax-ns#"
   xmlns:svg="http://www.w3.org/2000/svg"
   xmlns="http://www.w3.org/2000/svg"
   xmlns:xlink="http://www.w3.org/1999/xlink"
   xmlns:sodipodi="http://sodipodi.sourceforge.net/DTD/sodipodi-0.dtd"
   xmlns:inkscape="http://www.inkscape.org/namespaces/inkscape"
   version="1.0"
   width="96"
   height="96"
   id="svg2408"
   inkscape:version="0.47 r22583"
   sodipodi:docname="AppServices.svg"
   inkscape:export-filename="/home/francesco/neo_freerunner/qtmoko/faenqomod/svg/faenqomod_pics/appservices/AppServices.png"
   inkscape:export-xdpi="90"
   inkscape:export-ydpi="90">
  <sodipodi:namedview
     pagecolor="#ffffff"
     bordercolor="#666666"
     borderopacity="1"
     objecttolerance="10"
     gridtolerance="10"
     guidetolerance="10"
     inkscape:pageopacity="0"
     inkscape:pageshadow="2"
     inkscape:window-width="1366"
     inkscape:window-height="709"
     id="namedview76"
     showgrid="false"
     showguides="true"
     inkscape:guide-bbox="true"
     borderlayer="true"
     inkscape:showpageshadow="false"
     inkscape:zoom="2.8284271"
     inkscape:cx="0.28303363"
     inkscape:cy="51.43852"
     inkscape:window-x="0"
     inkscape:window-y="25"
     inkscape:window-maximized="1"
     inkscape:current-layer="svg2408" />
  <defs
     id="defs2410">
    <inkscape:perspective
       sodipodi:type="inkscape:persp3d"
       inkscape:vp_x="0 : 48 : 1"
       inkscape:vp_y="0 : 1000 : 0"
       inkscape:vp_z="96 : 48 : 1"
       inkscape:persp3d-origin="48 : 32 : 1"
       id="perspective78" />
    <linearGradient
       id="linearGradient3687">
      <stop
         id="stop3689"
         style="stop-color:#ffffff;stop-opacity:1"
         offset="0" />
      <stop
         id="stop3691"
         style="stop-color:#ffffff;stop-opacity:0"
         offset="1" />
    </linearGradient>
    <linearGradient
       x1="58.650177"
       y1="122"
       x2="58.650177"
       y2="5.4252338"
       id="linearGradient3677"
       gradientUnits="userSpaceOnUse"
       gradientTransform="matrix(1.0172414,0,0,1.0172414,-1.1034483,-1.1034483)">
      <stop
         id="stop3679"
         style="stop-color:#2782e9;stop-opacity:1"
         offset="0" />
      <stop
         id="stop3681"
         style="stop-color:#193693;stop-opacity:1"
         offset="1" />
    </linearGradient>
    <linearGradient
       x1="45.447727"
       y1="92.539597"
       x2="45.447727"
       y2="7.0165396"
       id="ButtonShadow"
       gradientUnits="userSpaceOnUse"
       gradientTransform="scale(1.0058652,0.994169)">
      <stop
         id="stop3750"
         style="stop-color:#000000;stop-opacity:1"
         offset="0" />
      <stop
         id="stop3752"
         style="stop-color:#000000;stop-opacity:0.58823532"
         offset="1" />
    </linearGradient>
    <linearGradient
       id="linearGradient3737">
      <stop
         id="stop3739"
         style="stop-color:#ffffff;stop-opacity:1"
         offset="0" />
      <stop
         id="stop3741"
         style="stop-color:#ffffff;stop-opacity:0"
         offset="1" />
    </linearGradient>
    <filter
       color-interpolation-filters="sRGB"
       id="filter3174">
      <feGaussianBlur
         id="feGaussianBlur3176"
         stdDeviation="1.71" />
    </filter>
    <linearGradient
       x1="36.357143"
       y1="6"
       x2="36.357143"
       y2="63.893143"
       id="linearGradient3188"
       xlink:href="#linearGradient3737"
       gradientUnits="userSpaceOnUse" />
    <filter
       x="-0.192"
       y="-0.192"
       width="1.3839999"
       height="1.3839999"
       color-interpolation-filters="sRGB"
       id="filter3794">
      <feGaussianBlur
         id="feGaussianBlur3796"
         stdDeviation="5.28" />
    </filter>
    <linearGradient
       x1="48"
       y1="20.220806"
       x2="48"
       y2="138.66119"
       id="linearGradient3613"
       xlink:href="#linearGradient3737"
       gradientUnits="userSpaceOnUse" />
    <radialGradient
       cx="48"
       cy="90.171875"
       r="42"
       fx="48"
       fy="90.171875"
       id="radialGradient3619"
       xlink:href="#linearGradient3737"
       gradientUnits="userSpaceOnUse"
       gradientTransform="matrix(1.1573129,0,0,0.99590774,-7.5510206,0.19713193)" />
    <clipPath
       id="clipPath3613">
      <rect
         width="84"
         height="84"
         rx="6"
         ry="6"
         x="6"
         y="6"
         id="rect3615"
         style="fill:#ffffff;fill-opacity:1;fill-rule:nonzero;stroke:none" />
    </clipPath>
    <linearGradient
       x1="48"
       y1="90"
       x2="48"
       y2="5.9877172"
       id="linearGradient3617"
       xlink:href="#ButtonColor"
       gradientUnits="userSpaceOnUse" />
    <linearGradient
       x1="58.650177"
       y1="122"
       x2="58.650177"
       y2="5.4252338"
       id="ButtonColor"
       gradientUnits="userSpaceOnUse"
       gradientTransform="matrix(1.0172414,0,0,1.0172414,-1.1034483,-1.1034483)">
      <stop
         id="stop3189"
         style="stop-color:#2a8818;stop-opacity:1;"
         offset="0" />
      <stop
         id="stop3191"
         style="stop-color:#6ce150;stop-opacity:1;"
         offset="1" />
    </linearGradient>
    <linearGradient
       id="linearGradient3374">
      <stop
         id="stop3376"
         style="stop-color:#000000;stop-opacity:1"
         offset="0" />
      <stop
         id="stop3378"
         style="stop-color:#000000;stop-opacity:0"
         offset="1" />
    </linearGradient>
    <linearGradient
       id="linearGradient8650">
      <stop
         id="stop8652"
         style="stop-color:#ffffff;stop-opacity:1"
         offset="0" />
      <stop
         id="stop8654"
         style="stop-color:#ffffff;stop-opacity:0"
         offset="1" />
    </linearGradient>
    <linearGradient
       x1="48"
       y1="90"
       x2="48"
       y2="5.9877172"
       id="linearGradient3839"
       xlink:href="#ButtonColor"
       gradientUnits="userSpaceOnUse"
       gradientTransform="translate(0,-100)" />
    <linearGradient
       x1="48.800022"
       y1="16"
       x2="59.752357"
       y2="56.874668"
       id="linearGradient2943"
       xlink:href="#linearGradient3374"
       gradientUnits="userSpaceOnUse"
       gradientTransform="matrix(-0.67083322,0,0,-0.7083333,90.936318,93.33333)" />
    <linearGradient
       x1="48.800022"
       y1="16"
       x2="59.752357"
       y2="56.874668"
       id="linearGradient2947"
       xlink:href="#linearGradient8650"
       gradientUnits="userSpaceOnUse"
       gradientTransform="matrix(0.67083322,0,0,0.7083333,5.0666738,2.6666673)" />
    <radialGradient
       cx="48"
       cy="66.450142"
       r="23"
       fx="48"
       fy="66.450142"
       id="radialGradient3683"
       xlink:href="#linearGradient3677"
       gradientUnits="userSpaceOnUse"
       gradientTransform="matrix(1.3301229,-7.4935036e-8,9.5652174e-8,1.6978593,-15.845903,-37.548861)" />
    <linearGradient
       x1="35.102802"
       y1="6.8540382"
       x2="35.102802"
       y2="34.885773"
       id="linearGradient3703"
       xlink:href="#linearGradient3687"
       gradientUnits="userSpaceOnUse" />
    <linearGradient
       x1="62.339497"
       y1="48"
       x2="62.339497"
       y2="-6.5482373"
       id="linearGradient3725"
       xlink:href="#linearGradient3687"
       gradientUnits="userSpaceOnUse" />
    <linearGradient
       x1="45.447727"
       y1="92.539597"
       x2="45.447727"
       y2="7.0165396"
       id="ButtonShadow-0"
       gradientUnits="userSpaceOnUse"
       gradientTransform="matrix(1.0058652,0,0,0.994169,100,0)">
      <stop
         id="stop3750-8"
         style="stop-color:#000000;stop-opacity:1"
         offset="0" />
      <stop
         id="stop3752-5"
         style="stop-color:#000000;stop-opacity:0.58823532"
         offset="1" />
    </linearGradient>
    <linearGradient
       x1="32.251034"
       y1="6.1317081"
       x2="32.251034"
       y2="90.238609"
       id="linearGradient3780"
       xlink:href="#ButtonShadow-0"
       gradientUnits="userSpaceOnUse"
       gradientTransform="matrix(1.0238095,0,0,1.0119048,-1.1428571,-98.071429)" />
    <linearGradient
       x1="32.251034"
       y1="6.1317081"
       x2="32.251034"
       y2="90.238609"
       id="linearGradient3772"
       xlink:href="#ButtonShadow-0"
       gradientUnits="userSpaceOnUse"
       gradientTransform="matrix(1.0238095,0,0,1.0119048,-1.1428571,-98.071429)" />
    <linearGradient
       x1="32.251034"
       y1="6.1317081"
       x2="32.251034"
       y2="90.238609"
       id="linearGradient3725-0"
       xlink:href="#ButtonShadow-0"
       gradientUnits="userSpaceOnUse"
       gradientTransform="matrix(1.0238095,0,0,1.0119048,-1.1428571,-98.071429)" />
    <linearGradient
       x1="32.251034"
       y1="6.1317081"
       x2="32.251034"
       y2="90.238609"
       id="linearGradient3721"
       xlink:href="#ButtonShadow-0"
       gradientUnits="userSpaceOnUse"
       gradientTransform="translate(0,-97)" />
    <linearGradient
       x1="32.251034"
       y1="6.1317081"
       x2="32.251034"
       y2="90.238609"
       id="linearGradient3122"
       xlink:href="#ButtonShadow-0"
       gradientUnits="userSpaceOnUse"
       gradientTransform="matrix(1.0238095,0,0,1.0119048,-1.1428571,-98.071429)" />
    <linearGradient
       inkscape:collect="always"
       xlink:href="#linearGradient3737"
       id="linearGradient2908"
       gradientUnits="userSpaceOnUse"
       x1="48"
       y1="20.220806"
       x2="48"
       y2="138.66119" />
    <radialGradient
       inkscape:collect="always"
       xlink:href="#linearGradient3737"
       id="radialGradient2911"
       gradientUnits="userSpaceOnUse"
       gradientTransform="matrix(1.1573129,0,0,0.99590774,-7.5510206,0.19713193)"
       cx="48"
       cy="90.171875"
       fx="48"
       fy="90.171875"
       r="42" />
    <linearGradient
       inkscape:collect="always"
       xlink:href="#linearGradient3737"
       id="linearGradient2914"
       gradientUnits="userSpaceOnUse"
       x1="36.357143"
       y1="6"
       x2="36.357143"
       y2="63.893143" />
    <linearGradient
       inkscape:collect="always"
       xlink:href="#ButtonColor"
       id="linearGradient2917"
       gradientUnits="userSpaceOnUse"
       x1="48"
       y1="90"
       x2="48"
       y2="5.9877172" />
    <linearGradient
       gradientTransform="matrix(0.850143,0,0,0.850143,213.7343,73.58636)"
       gradientUnits="userSpaceOnUse"
       xlink:href="#linearGradient2775"
       id="linearGradient2785"
       y2="145.55296"
       x2="-18.985842"
       y1="75.734787"
       x1="-67.620949" />
    <linearGradient
       gradientTransform="matrix(0.850143,0,0,0.850143,213.7344,-11.68034)"
       gradientUnits="userSpaceOnUse"
       xlink:href="#linearGradient2775"
       id="linearGradient2781"
       y2="145.55296"
       x2="-18.985842"
       y1="75.734787"
       x1="-67.620949" />
    <linearGradient
       gradientUnits="userSpaceOnUse"
       xlink:href="#linearGradient2760"
       id="linearGradient2766"
       y2="210.75931"
       x2="224.20909"
       y1="71.490204"
       x1="61.243324" />
    <linearGradient
       id="linearGradient2760">
      <stop
         id="stop2762"
         offset="0"
         style="stop-color:#5df15c;stop-opacity:1;" />
      <stop
         id="stop2764"
         offset="1"
         style="stop-color:#298019;stop-opacity:1;" />
    </linearGradient>
    <linearGradient
       id="linearGradient2775">
      <stop
         id="stop2777"
         offset="0"
         style="stop-color:#e2e2e2;stop-opacity:1" />
      <stop
         id="stop2779"
         offset="1"
         style="stop-color:white;stop-opacity:1" />
    </linearGradient>
    <inkscape:perspective
       id="perspective3735"
       inkscape:persp3d-origin="128 : 85.333333 : 1"
       inkscape:vp_z="256 : 128 : 1"
       inkscape:vp_y="0 : 1000 : 0"
       inkscape:vp_x="0 : 128 : 1"
       sodipodi:type="inkscape:persp3d" />
    <linearGradient
       inkscape:collect="always"
       xlink:href="#linearGradient2775"
       id="linearGradient3786"
       gradientUnits="userSpaceOnUse"
       gradientTransform="matrix(0.25824613,0,0,0.25824613,-68.562507,11.155515)"
       x1="-67.620949"
       y1="75.734787"
       x2="-18.985842"
       y2="145.55296" />
    <linearGradient
       inkscape:collect="always"
       xlink:href="#linearGradient2775"
       id="linearGradient3790"
       gradientUnits="userSpaceOnUse"
       gradientTransform="matrix(0.25824613,0,0,0.25824613,-68.562477,-14.745769)"
       x1="-67.620949"
       y1="75.734787"
       x2="-18.985842"
       y2="145.55296" />
    <linearGradient
       inkscape:collect="always"
       xlink:href="#linearGradient2760"
       id="linearGradient3796"
       gradientUnits="userSpaceOnUse"
       x1="257.90762"
       y1="254.85545"
       x2="257.90762"
       y2="25.94335"
       gradientTransform="matrix(0.3195477,0,0,0.3195477,-140.44543,-17.179654)" />
    <inkscape:perspective
       id="perspective3806"
       inkscape:persp3d-origin="0.5 : 0.33333333 : 1"
       inkscape:vp_z="1 : 0.5 : 1"
       inkscape:vp_y="0 : 1000 : 0"
       inkscape:vp_x="0 : 0.5 : 1"
       sodipodi:type="inkscape:persp3d" />
    <linearGradient
       inkscape:collect="always"
       xlink:href="#linearGradient2760-6"
       id="linearGradient3796-8"
       gradientUnits="userSpaceOnUse"
       x1="257.90762"
       y1="254.85545"
       x2="257.90762"
       y2="25.94335"
       gradientTransform="matrix(0.3195477,0,0,0.3195477,-140.44543,-17.179654)" />
    <linearGradient
       id="linearGradient2760-6">
      <stop
         id="stop2762-8"
         offset="0"
         style="stop-color:#5df15c;stop-opacity:1;" />
      <stop
         id="stop2764-2"
         offset="1"
         style="stop-color:#298019;stop-opacity:1;" />
    </linearGradient>
    <inkscape:perspective
       id="perspective3857"
       inkscape:persp3d-origin="0.5 : 0.33333333 : 1"
       inkscape:vp_z="1 : 0.5 : 1"
       inkscape:vp_y="0 : 1000 : 0"
       inkscape:vp_x="0 : 0.5 : 1"
       sodipodi:type="inkscape:persp3d" />
    <linearGradient
       inkscape:collect="always"
       xlink:href="#linearGradient8650"
       id="linearGradient3882"
       gradientUnits="userSpaceOnUse"
       gradientTransform="matrix(0.67083322,0,0,0.7083333,109.03348,-27.208851)"
       x1="48.800022"
       y1="16"
       x2="59.752357"
       y2="56.874668" />
    <linearGradient
       inkscape:collect="always"
       xlink:href="#linearGradient3687"
       id="linearGradient3886"
       gradientUnits="userSpaceOnUse"
       gradientTransform="matrix(1.7343212,0,0,1.517438,-155.48536,-20.66557)"
       x1="35.102802"
       y1="6.8540382"
       x2="35.102802"
       y2="34.885773" />
    <linearGradient
       inkscape:collect="always"
       xlink:href="#linearGradient3687"
       id="linearGradient3889"
       gradientUnits="userSpaceOnUse"
       gradientTransform="translate(103.9668,-29.875519)"
       x1="62.339497"
       y1="48"
       x2="62.339497"
       y2="-6.5482373" />
    <linearGradient
       inkscape:collect="always"
       xlink:href="#linearGradient3374"
       id="linearGradient3892"
       gradientUnits="userSpaceOnUse"
       gradientTransform="matrix(-0.67083322,0,0,-0.7083333,194.90312,63.457811)"
       x1="48.800022"
       y1="16"
       x2="59.752357"
       y2="56.874668" />
    <radialGradient
       inkscape:collect="always"
       xlink:href="#linearGradient3677"
       id="radialGradient3896"
       gradientUnits="userSpaceOnUse"
       gradientTransform="matrix(1.3301229,-7.4935036e-8,9.5652174e-8,1.6978593,88.120902,-67.42438)"
       cx="48"
       cy="66.450142"
       fx="48"
       fy="66.450142"
       r="23" />
    <inkscape:perspective
       id="perspective3950"
       inkscape:persp3d-origin="0.5 : 0.33333333 : 1"
       inkscape:vp_z="1 : 0.5 : 1"
       inkscape:vp_y="0 : 1000 : 0"
       inkscape:vp_x="0 : 0.5 : 1"
       sodipodi:type="inkscape:persp3d" />
    <inkscape:perspective
       id="perspective3950-2"
       inkscape:persp3d-origin="0.5 : 0.33333333 : 1"
       inkscape:vp_z="1 : 0.5 : 1"
       inkscape:vp_y="0 : 1000 : 0"
       inkscape:vp_x="0 : 0.5 : 1"
       sodipodi:type="inkscape:persp3d" />
    <linearGradient
       inkscape:collect="always"
       xlink:href="#linearGradient2760"
       id="linearGradient4005"
       gradientUnits="userSpaceOnUse"
       gradientTransform="matrix(0.3195477,0,0,0.3195477,-140.44543,-17.179654)"
       x1="257.90762"
       y1="254.85545"
       x2="257.90762"
       y2="25.94335" />
    <linearGradient
       inkscape:collect="always"
       xlink:href="#linearGradient2775"
       id="linearGradient4007"
       gradientUnits="userSpaceOnUse"
       gradientTransform="matrix(0.25824613,0,0,0.25824613,-68.562477,-14.745769)"
       x1="-67.620949"
       y1="75.734787"
       x2="-18.985842"
       y2="145.55296" />
    <linearGradient
       inkscape:collect="always"
       xlink:href="#linearGradient2775"
       id="linearGradient4009"
       gradientUnits="userSpaceOnUse"
       gradientTransform="matrix(0.25824613,0,0,0.25824613,-68.562507,11.155515)"
       x1="-67.620949"
       y1="75.734787"
       x2="-18.985842"
       y2="145.55296" />
    <linearGradient
       inkscape:collect="always"
       xlink:href="#linearGradient3687"
       id="linearGradient4011"
       gradientUnits="userSpaceOnUse"
       gradientTransform="matrix(1.7343212,0,0,1.517438,-155.48536,-20.66557)"
       x1="35.102802"
       y1="6.8540382"
       x2="35.102802"
       y2="34.885773" />
    <linearGradient
       inkscape:collect="always"
       xlink:href="#ButtonShadow-0"
       id="linearGradient4052"
       gradientUnits="userSpaceOnUse"
       gradientTransform="matrix(1.0238095,0,0,1.0119048,-1.1428571,-98.071429)"
       x1="32.251034"
       y1="6.1317081"
       x2="32.251034"
       y2="90.238609" />
    <linearGradient
       inkscape:collect="always"
       xlink:href="#ButtonShadow-0"
       id="linearGradient4054"
       gradientUnits="userSpaceOnUse"
       gradientTransform="matrix(1.0238095,0,0,1.0119048,-1.1428571,-98.071429)"
       x1="32.251034"
       y1="6.1317081"
       x2="32.251034"
       y2="90.238609" />
    <linearGradient
       inkscape:collect="always"
       xlink:href="#ButtonShadow-0"
       id="linearGradient4056"
       gradientUnits="userSpaceOnUse"
       gradientTransform="matrix(1.0238095,0,0,1.0119048,-1.1428571,-98.071429)"
       x1="32.251034"
       y1="6.1317081"
       x2="32.251034"
       y2="90.238609" />
    <linearGradient
       inkscape:collect="always"
       xlink:href="#ButtonShadow-0"
       id="linearGradient4058"
       gradientUnits="userSpaceOnUse"
       gradientTransform="matrix(1.0238095,0,0,1.0119048,-1.1428571,-98.071429)"
       x1="32.251034"
       y1="6.1317081"
       x2="32.251034"
       y2="90.238609" />
    <linearGradient
       inkscape:collect="always"
       xlink:href="#ButtonShadow-0"
       id="linearGradient4060"
       gradientUnits="userSpaceOnUse"
       gradientTransform="translate(0,-97)"
       x1="32.251034"
       y1="6.1317081"
       x2="32.251034"
       y2="90.238609" />
    <linearGradient
       inkscape:collect="always"
       xlink:href="#ButtonColor"
       id="linearGradient4062"
       gradientUnits="userSpaceOnUse"
       x1="48"
       y1="90"
       x2="48"
       y2="5.9877172" />
    <linearGradient
       inkscape:collect="always"
       xlink:href="#linearGradient3737"
       id="linearGradient4064"
       gradientUnits="userSpaceOnUse"
       x1="36.357143"
       y1="6"
       x2="36.357143"
       y2="63.893143" />
    <radialGradient
       inkscape:collect="always"
       xlink:href="#linearGradient3737"
       id="radialGradient4066"
       gradientUnits="userSpaceOnUse"
       gradientTransform="matrix(1.1573129,0,0,0.99590774,-7.5510206,0.19713193)"
       cx="48"
       cy="90.171875"
       fx="48"
       fy="90.171875"
       r="42" />
    <linearGradient
       inkscape:collect="always"
       xlink:href="#linearGradient3737"
       id="linearGradient4068"
       gradientUnits="userSpaceOnUse"
       x1="48"
       y1="20.220806"
       x2="48"
       y2="138.66119" />
    <linearGradient
       inkscape:collect="always"
       xlink:href="#linearGradient2760"
       id="linearGradient4070"
       gradientUnits="userSpaceOnUse"
       gradientTransform="matrix(0.3195477,0,0,0.3195477,-140.44543,-17.179654)"
       x1="257.90762"
       y1="254.85545"
       x2="257.90762"
       y2="25.94335" />
    <linearGradient
       inkscape:collect="always"
       xlink:href="#linearGradient2775"
       id="linearGradient4072"
       gradientUnits="userSpaceOnUse"
       gradientTransform="matrix(0.25824613,0,0,0.25824613,-68.562477,-14.745769)"
       x1="-67.620949"
       y1="75.734787"
       x2="-18.985842"
       y2="145.55296" />
    <linearGradient
       inkscape:collect="always"
       xlink:href="#linearGradient2775"
       id="linearGradient4074"
       gradientUnits="userSpaceOnUse"
       gradientTransform="matrix(0.25824613,0,0,0.25824613,-68.562507,11.155515)"
       x1="-67.620949"
       y1="75.734787"
       x2="-18.985842"
       y2="145.55296" />
    <linearGradient
       inkscape:collect="always"
       xlink:href="#linearGradient3687"
       id="linearGradient4076"
       gradientUnits="userSpaceOnUse"
       gradientTransform="matrix(1.7343212,0,0,1.517438,-155.48536,-20.66557)"
       x1="35.102802"
       y1="6.8540382"
       x2="35.102802"
       y2="34.885773" />
    <linearGradient
       inkscape:collect="always"
       xlink:href="#linearGradient2760"
       id="linearGradient3032"
       gradientUnits="userSpaceOnUse"
       gradientTransform="matrix(0.3195477,0,0,0.3195477,-140.44543,-17.179654)"
       x1="257.90762"
       y1="254.85545"
       x2="257.90762"
       y2="25.94335" />
    <linearGradient
       inkscape:collect="always"
       xlink:href="#linearGradient2775"
       id="linearGradient3034"
       gradientUnits="userSpaceOnUse"
       gradientTransform="matrix(0.25824613,0,0,0.25824613,-68.562477,-14.745769)"
       x1="-67.620949"
       y1="75.734787"
       x2="-18.985842"
       y2="145.55296" />
    <linearGradient
       inkscape:collect="always"
       xlink:href="#linearGradient2775"
       id="linearGradient3036"
       gradientUnits="userSpaceOnUse"
       gradientTransform="matrix(0.25824613,0,0,0.25824613,-68.562507,11.155515)"
       x1="-67.620949"
       y1="75.734787"
       x2="-18.985842"
       y2="145.55296" />
    <linearGradient
       inkscape:collect="always"
       xlink:href="#linearGradient3687"
       id="linearGradient3038"
       gradientUnits="userSpaceOnUse"
       gradientTransform="matrix(1.7343212,0,0,1.517438,-155.48536,-20.66557)"
       x1="35.102802"
       y1="6.8540382"
       x2="35.102802"
       y2="34.885773" />
  </defs>
  <metadata
     id="metadata2413">
    <rdf:RDF>
      <cc:Work
         rdf:about="">
        <dc:format>image/svg+xml</dc:format>
        <dc:type
           rdf:resource="http://purl.org/dc/dcmitype/StillImage" />
        <dc:title></dc:title>
      </cc:Work>
    </rdf:RDF>
  </metadata>
  <g
     id="layer2"
     style="display:none">
    <rect
       width="86"
       height="85"
       rx="6"
       ry="6"
       x="5"
       y="7"
       id="rect3745"
       style="opacity:0.9;fill:url(#ButtonShadow);fill-opacity:1;fill-rule:nonzero;stroke:none;filter:url(#filter3174)" />
  </g>
  <g
     id="g3691"
     transform="matrix(1.0427699,0,0,1.0427699,-2.0529552,-3.61711)">
    <g
       style="display:inline"
       id="layer4">
      <path
         style="opacity:0.07999998;fill:url(#linearGradient4052);fill-opacity:1;fill-rule:nonzero;stroke:none;display:inline"
         id="path3786"
         transform="scale(1,-1)"
         d="m 12,-95.03125 c -5.5110903,0 -10.03125,4.52016 -10.03125,10.03125 l 0,71 c 0,5.5110902 4.5201598,10.03125 10.03125,10.03125 l 72,0 c 5.51109,0 10.03125,-4.5201597 10.03125,-10.03125 l 0,-71 c 0,-5.51109 -4.52016,-10.03125 -10.03125,-10.03125 l -72,0 z" />
      <path
         style="opacity:0.1;fill:url(#linearGradient4054);fill-opacity:1;fill-rule:nonzero;stroke:none;display:inline"
         id="path3778"
         transform="scale(1,-1)"
         d="m 12,-94.03125 c -4.971633,0 -9.03125,4.059617 -9.03125,9.03125 l 0,71 c 0,4.9716329 4.0596171,9.03125 9.03125,9.03125 l 72,0 c 4.971633,0 9.03125,-4.059617 9.03125,-9.03125 l 0,-71 c 0,-4.971633 -4.059617,-9.03125 -9.03125,-9.03125 l -72,0 z" />
      <path
         style="opacity:0.2;fill:url(#linearGradient4056);fill-opacity:1;fill-rule:nonzero;stroke:none;display:inline"
         id="path3770"
         transform="scale(1,-1)"
         d="m 12,-93 c -4.4091333,0 -8,3.590867 -8,8 l 0,71 c 0,4.4091333 3.5908667,8 8,8 l 72,0 c 4.409133,0 8,-3.5908667 8,-8 l 0,-71 c 0,-4.409133 -3.590867,-8 -8,-8 l -72,0 z" />
      <rect
         style="opacity:0.3;fill:url(#linearGradient4058);fill-opacity:1;fill-rule:nonzero;stroke:none;display:inline"
         id="rect3723"
         transform="scale(1,-1)"
         y="-92"
         x="5"
         ry="7"
         rx="7"
         height="85"
         width="86" />
      <rect
         style="opacity:0.45;fill:url(#linearGradient4060);fill-opacity:1;fill-rule:nonzero;stroke:none;display:inline"
         id="rect3716"
         transform="scale(1,-1)"
         y="-91"
         x="6"
         ry="6"
         rx="6"
         height="84"
         width="84" />
    </g>
    <rect
       width="84"
       height="84"
       rx="6"
       ry="6"
       x="6"
       y="6"
       id="rect2419"
       style="fill:url(#linearGradient4062);fill-opacity:1;fill-rule:nonzero;stroke:none" />
    <path
       d="M 12,6 C 8.676,6 6,8.676 6,12 l 0,2 0,68 0,2 c 0,0.334721 0.04135,0.6507 0.09375,0.96875 0.0487,0.295596 0.09704,0.596915 0.1875,0.875 0.00988,0.03038 0.020892,0.0636 0.03125,0.09375 0.098865,0.287771 0.2348802,0.547452 0.375,0.8125 0.1445918,0.273507 0.3156161,0.535615 0.5,0.78125 0.1843839,0.245635 0.3737765,0.473472 0.59375,0.6875 0.439947,0.428056 0.94291,0.814526 1.5,1.09375 0.278545,0.139612 0.5734731,0.246947 0.875,0.34375 -0.2562018,-0.100222 -0.4867109,-0.236272 -0.71875,-0.375 -0.00741,-0.0044 -0.023866,0.0045 -0.03125,0 -0.031933,-0.0193 -0.062293,-0.04251 -0.09375,-0.0625 -0.120395,-0.0767 -0.2310226,-0.163513 -0.34375,-0.25 -0.1061728,-0.0808 -0.2132809,-0.161112 -0.3125,-0.25 C 8.4783201,88.557317 8.3087904,88.373362 8.15625,88.1875 8.0486711,88.057245 7.9378561,87.922215 7.84375,87.78125 7.818661,87.74287 7.805304,87.69538 7.78125,87.65625 7.716487,87.553218 7.6510225,87.451733 7.59375,87.34375 7.4927417,87.149044 7.3880752,86.928049 7.3125,86.71875 7.30454,86.69694 7.288911,86.6782 7.28125,86.65625 7.2494249,86.5643 7.2454455,86.469419 7.21875,86.375 7.1884177,86.268382 7.1483606,86.171969 7.125,86.0625 7.0521214,85.720988 7,85.364295 7,85 L 7,83 7,15 7,13 C 7,10.218152 9.2181517,8 12,8 l 2,0 68,0 2,0 c 2.781848,0 5,2.218152 5,5 l 0,2 0,68 0,2 c 0,0.364295 -0.05212,0.720988 -0.125,1.0625 -0.04415,0.206893 -0.08838,0.397658 -0.15625,0.59375 -0.0077,0.02195 -0.0233,0.04069 -0.03125,0.0625 -0.06274,0.173739 -0.138383,0.367449 -0.21875,0.53125 -0.04158,0.0828 -0.07904,0.169954 -0.125,0.25 -0.0546,0.09721 -0.126774,0.18835 -0.1875,0.28125 -0.09411,0.140965 -0.204921,0.275995 -0.3125,0.40625 -0.143174,0.17445 -0.303141,0.346998 -0.46875,0.5 -0.01117,0.0102 -0.01998,0.02115 -0.03125,0.03125 -0.138386,0.125556 -0.285091,0.234436 -0.4375,0.34375 -0.102571,0.07315 -0.204318,0.153364 -0.3125,0.21875 -0.0074,0.0045 -0.02384,-0.0044 -0.03125,0 -0.232039,0.138728 -0.462548,0.274778 -0.71875,0.375 0.301527,-0.0968 0.596455,-0.204138 0.875,-0.34375 0.55709,-0.279224 1.060053,-0.665694 1.5,-1.09375 0.219973,-0.214028 0.409366,-0.441865 0.59375,-0.6875 0.184384,-0.245635 0.355408,-0.507743 0.5,-0.78125 0.14012,-0.265048 0.276135,-0.524729 0.375,-0.8125 0.01041,-0.03078 0.02133,-0.06274 0.03125,-0.09375 0.09046,-0.278085 0.1388,-0.579404 0.1875,-0.875 C 89.95865,84.6507 90,84.334721 90,84 l 0,-2 0,-68 0,-2 C 90,8.676 87.324,6 84,6 L 12,6 z"
       inkscape:connector-curvature="0"
       id="rect3728"
       style="opacity:0.3;fill:url(#linearGradient4064);fill-opacity:1;fill-rule:nonzero;stroke:none" />
    <path
       d="M 12,90 C 8.676,90 6,87.324 6,84 L 6,82 6,14 6,12 c 0,-0.334721 0.04135,-0.6507 0.09375,-0.96875 0.0487,-0.295596 0.09704,-0.596915 0.1875,-0.875 C 6.29113,10.12587 6.302142,10.09265 6.3125,10.0625 6.411365,9.774729 6.5473802,9.515048 6.6875,9.25 6.8320918,8.976493 7.0031161,8.714385 7.1875,8.46875 7.3718839,8.223115 7.5612765,7.995278 7.78125,7.78125 8.221197,7.353194 8.72416,6.966724 9.28125,6.6875 9.559795,6.547888 9.8547231,6.440553 10.15625,6.34375 9.9000482,6.443972 9.6695391,6.580022 9.4375,6.71875 c -0.00741,0.0044 -0.023866,-0.0045 -0.03125,0 -0.031933,0.0193 -0.062293,0.04251 -0.09375,0.0625 -0.120395,0.0767 -0.2310226,0.163513 -0.34375,0.25 -0.1061728,0.0808 -0.2132809,0.161112 -0.3125,0.25 C 8.4783201,7.442683 8.3087904,7.626638 8.15625,7.8125 8.0486711,7.942755 7.9378561,8.077785 7.84375,8.21875 7.818661,8.25713 7.805304,8.30462 7.78125,8.34375 7.716487,8.446782 7.6510225,8.548267 7.59375,8.65625 7.4927417,8.850956 7.3880752,9.071951 7.3125,9.28125 7.30454,9.30306 7.288911,9.3218 7.28125,9.34375 7.2494249,9.4357 7.2454455,9.530581 7.21875,9.625 7.1884177,9.731618 7.1483606,9.828031 7.125,9.9375 7.0521214,10.279012 7,10.635705 7,11 l 0,2 0,68 0,2 c 0,2.781848 2.2181517,5 5,5 l 2,0 68,0 2,0 c 2.781848,0 5,-2.218152 5,-5 l 0,-2 0,-68 0,-2 C 89,10.635705 88.94788,10.279012 88.875,9.9375 88.83085,9.730607 88.78662,9.539842 88.71875,9.34375 88.71105,9.3218 88.69545,9.30306 88.6875,9.28125 88.62476,9.107511 88.549117,8.913801 88.46875,8.75 88.42717,8.6672 88.38971,8.580046 88.34375,8.5 88.28915,8.40279 88.216976,8.31165 88.15625,8.21875 88.06214,8.077785 87.951329,7.942755 87.84375,7.8125 87.700576,7.63805 87.540609,7.465502 87.375,7.3125 87.36383,7.3023 87.35502,7.29135 87.34375,7.28125 87.205364,7.155694 87.058659,7.046814 86.90625,6.9375 86.803679,6.86435 86.701932,6.784136 86.59375,6.71875 c -0.0074,-0.0045 -0.02384,0.0044 -0.03125,0 -0.232039,-0.138728 -0.462548,-0.274778 -0.71875,-0.375 0.301527,0.0968 0.596455,0.204138 0.875,0.34375 0.55709,0.279224 1.060053,0.665694 1.5,1.09375 0.219973,0.214028 0.409366,0.441865 0.59375,0.6875 0.184384,0.245635 0.355408,0.507743 0.5,0.78125 0.14012,0.265048 0.276135,0.524729 0.375,0.8125 0.01041,0.03078 0.02133,0.06274 0.03125,0.09375 0.09046,0.278085 0.1388,0.579404 0.1875,0.875 C 89.95865,11.3493 90,11.665279 90,12 l 0,2 0,68 0,2 c 0,3.324 -2.676,6 -6,6 l -72,0 z"
       inkscape:connector-curvature="0"
       id="path3615"
       style="opacity:0.2;fill:url(#radialGradient4066);fill-opacity:1;fill-rule:nonzero;stroke:none" />
    <rect
       width="66"
       height="66"
       rx="12"
       ry="12"
       x="15"
       y="15"
       clip-path="url(#clipPath3613)"
       id="rect3171"
       style="opacity:0.1;fill:url(#linearGradient4068);fill-opacity:1;fill-rule:nonzero;stroke:#ffffff;stroke-width:0.5;stroke-linecap:round;stroke-linejoin:miter;stroke-miterlimit:4;stroke-opacity:1;stroke-dasharray:none;stroke-dashoffset:0;filter:url(#filter3794)" />
  </g>
  <g
     id="g3978"
     transform="matrix(0.93091451,0,0,0.93091451,129.48736,5.4309312)">
    <g
       transform="translate(94.051166,89.628803)"
       id="g3973">
      <path
         d="m -138.61741,-44.97479 a 42.9685,42.9685 0 0 1 -85.937,0 42.9685,42.9685 0 1 1 85.937,0 z"
         style="opacity:0.4;fill:#afafaf;fill-opacity:1;stroke:none"
         id="path1872-3-4" />
      <path
         d="m -140.61741,-44.950357 a 40.9685,40.9685 0 0 1 -81.93699,0 40.9685,40.9685 0 1 1 81.93698,0 z"
         style="opacity:0.4;fill:#7e7e7e;fill-opacity:1;stroke:none"
         id="path1872-3-4-8" />
      <path
         d="m -142.61741,-44.97479 a 38.9685,38.9685 0 0 1 -77.937,0 38.9685,38.9685 0 1 1 77.937,0 z"
         style="opacity:0.4;fill:#212121;fill-opacity:1;stroke:none"
         id="path1872-3-4-1" />
    </g>
    <g
       transform="translate(7.0710679,16.970563)"
       id="g3920">
      <g
         id="g3901">
        <path
           id="path1872-3"
           style="fill:#298019;fill-opacity:1;stroke:none"
           d="m -56.637453,27.695324 a 37.96836,37.96836 0 0 1 -75.936717,0 37.96836,37.96836 0 1 1 75.936717,0 z" />
        <path
           id="path1872"
           style="fill:url(#linearGradient3032);fill-opacity:1;stroke:none"
           d="m -58.031646,27.684651 a 36.574167,36.574167 0 0 1 -73.148334,0 36.574167,36.574167 0 1 1 73.148334,0 z" />
        <rect
           id="rect2813"
           style="fill:none;stroke:#696969;stroke-width:1.21507144;stroke-linejoin:round;stroke-miterlimit:3.9000001;stroke-opacity:1;stroke-dasharray:none;stroke-dashoffset:0"
           y="9.0257692"
           x="-119.05937"
           height="16.109203"
           width="16.340992" />
        <rect
           id="rect2768"
           style="fill:#f0e365;fill-opacity:1;stroke:#000000;stroke-width:1.21507144;stroke-linejoin:round;stroke-miterlimit:3.9000001;stroke-opacity:1;stroke-dasharray:none;stroke-dashoffset:0"
           y="7.8088851"
           x="-120.16036"
           height="16.109203"
           width="16.340992" />
        <path
           id="path2815"
           style="fill:#737373;fill-opacity:1;stroke:none"
           d="m -86.035508,6.704485 0,19.245154 15.657226,0 0,-13.298488 -6.447094,-5.946666 -9.210132,0 z" />
        <path
           id="rect2770"
           style="fill:url(#linearGradient3034);fill-opacity:1;stroke:#000000;stroke-width:1.21507144;stroke-linejoin:round;stroke-miterlimit:3.9000001;stroke-opacity:1;stroke-dasharray:none;stroke-dashoffset:0"
           d="m -86.986736,3.7753253 0,20.0060127 14.679683,0 0,-13.8242442 -6.044577,-6.1817685 -8.635106,0 z" />
        <path
           id="path2819"
           style="fill:#737373;fill-opacity:1;stroke:none"
           d="m -86.151402,32.72259 0,19.129259 15.657226,0 0,-13.218404 -6.447093,-5.910855 -9.210133,0 z" />
        <path
           id="path2783"
           style="fill:url(#linearGradient3036);fill-opacity:1;stroke:#000000;stroke-width:1.21507144;stroke-linejoin:round;stroke-miterlimit:3.9000001;stroke-opacity:1;stroke-dasharray:none;stroke-dashoffset:0"
           d="m -86.986736,29.676609 0,20.00601 14.679683,0 0,-13.824242 -6.044577,-6.181768 -8.635106,0 z" />
        <path
           id="path2787"
           style="fill:#ffffff;fill-opacity:1;stroke:#000000;stroke-width:1.21507144;stroke-linejoin:round;stroke-miterlimit:3.9000001;stroke-opacity:1;stroke-dasharray:none;stroke-dashoffset:0"
           d="m -93.968406,15.833611 a 1.1589356,1.1589356 0 1 1 -2.317871,0 1.1589356,1.1589356 0 1 1 2.317871,0 z" />
        <path
           id="path2797"
           style="fill:#ffffff;fill-opacity:1;stroke:#000000;stroke-width:1.21507144;stroke-linejoin:round;stroke-miterlimit:3.9000001;stroke-opacity:1;stroke-dasharray:none;stroke-dashoffset:0"
           d="m -89.448583,15.805543 a 1.1589356,1.1589356 0 1 1 -2.317871,0 1.1589356,1.1589356 0 1 1 2.317871,0 z" />
        <path
           id="path2799"
           style="fill:#ffffff;fill-opacity:1;stroke:#000000;stroke-width:1.21507144;stroke-linejoin:round;stroke-miterlimit:3.9000001;stroke-opacity:1;stroke-dasharray:none;stroke-dashoffset:0"
           d="m -98.604146,15.805543 a 1.158937,1.158937 0 1 1 -2.317874,0 1.158937,1.158937 0 1 1 2.317874,0 z" />
        <path
           id="path2801"
           style="fill:#ffffff;fill-opacity:1;stroke:#000000;stroke-width:1.21507144;stroke-linejoin:round;stroke-miterlimit:3.9000001;stroke-opacity:1;stroke-dasharray:none;stroke-dashoffset:0"
           d="m -93.940337,20.32539 a 1.1589356,1.1589356 0 1 1 -2.317871,0 1.1589356,1.1589356 0 1 1 2.317871,0 z" />
        <path
           id="path2803"
           style="fill:#ffffff;fill-opacity:1;stroke:#000000;stroke-width:1.21507144;stroke-linejoin:round;stroke-miterlimit:3.9000001;stroke-opacity:1;stroke-dasharray:none;stroke-dashoffset:0"
           d="m -93.940337,24.729344 a 1.1589356,1.1589356 0 1 1 -2.317871,0 1.1589356,1.1589356 0 1 1 2.317871,0 z" />
        <path
           id="path2805"
           style="fill:#ffffff;fill-opacity:1;stroke:#000000;stroke-width:1.21507144;stroke-linejoin:round;stroke-miterlimit:3.9000001;stroke-opacity:1;stroke-dasharray:none;stroke-dashoffset:0"
           d="m -93.940337,29.017407 a 1.1589356,1.1589356 0 1 1 -2.317871,0 1.1589356,1.1589356 0 1 1 2.317871,0 z" />
        <path
           id="path2807"
           style="fill:#ffffff;fill-opacity:1;stroke:#000000;stroke-width:1.21507144;stroke-linejoin:round;stroke-miterlimit:3.9000001;stroke-opacity:1;stroke-dasharray:none;stroke-dashoffset:0"
           d="m -93.852518,33.537257 a 1.1589356,1.1589356 0 1 1 -2.317871,0 1.1589356,1.1589356 0 1 1 2.317871,0 z" />
        <path
           id="path2809"
           style="fill:#ffffff;fill-opacity:1;stroke:#000000;stroke-width:1.21507144;stroke-linejoin:round;stroke-miterlimit:3.9000001;stroke-opacity:1;stroke-dasharray:none;stroke-dashoffset:0"
           d="m -93.940337,38.172998 a 1.1589356,1.1589356 0 1 1 -2.317871,0 1.1589356,1.1589356 0 1 1 2.317871,0 z" />
        <path
           id="path2811"
           style="fill:#ffffff;fill-opacity:1;stroke:#000000;stroke-width:1.21507144;stroke-linejoin:round;stroke-miterlimit:3.9000001;stroke-opacity:1;stroke-dasharray:none;stroke-dashoffset:0"
           d="m -89.56447,38.260817 a 1.1589356,1.1589356 0 1 1 -2.317871,0 1.1589356,1.1589356 0 1 1 2.317871,0 z" />
      </g>
      <path
         style="opacity:0.9;fill:url(#linearGradient3038);fill-opacity:1;stroke:none"
         id="path3695"
         d="m -63.947061,16.559773 a 30.658759,26.824767 0 1 1 -61.317499,0 30.658759,26.824767 0 1 1 61.317499,0 z" />
      <path
         style="opacity:0.25;fill:#ffffff;fill-opacity:1;stroke:none;display:inline"
         id="path3714"
         inkscape:connector-curvature="0"
         d="m -126.95288,33.378047 c -0.004,0.29282 0,0.57076 0,0.869999 0,12.420238 4.10382,19.28284 9.71394,22.891846 5.61014,3.609006 13.12062,8.513119 22.632972,8.513119 9.512361,0 17.022841,-4.904113 22.632979,-8.513119 5.61014,-3.609006 9.713938,-10.471609 9.713938,-22.891846 0,-0.299239 0.0047,-0.577179 0,-0.869999 -0.19151,11.860956 -4.238962,18.499792 -9.713938,22.021847 -5.610138,3.609006 -13.120618,8.513119 -22.632979,8.513119 -9.512352,0 -17.022832,-4.904113 -22.632972,-8.513119 -5.47496,-3.522055 -9.52243,-10.16089 -9.71394,-22.021847 z"
         sodipodi:nodetypes="cssssscsssc" />
    </g>
  </g>
</svg>
