<?xml version="1.0" encoding="UTF-8" standalone="no"?>
<!-- Created with Inkscape (http://www.inkscape.org/) -->

<svg
   xmlns:dc="http://purl.org/dc/elements/1.1/"
   xmlns:cc="http://creativecommons.org/ns#"
   xmlns:rdf="http://www.w3.org/1999/02/22-rdf-syntax-ns#"
   xmlns:svg="http://www.w3.org/2000/svg"
   xmlns="http://www.w3.org/2000/svg"
   xmlns:xlink="http://www.w3.org/1999/xlink"
   xmlns:sodipodi="http://sodipodi.sourceforge.net/DTD/sodipodi-0.dtd"
   xmlns:inkscape="http://www.inkscape.org/namespaces/inkscape"
   version="1.0"
   width="78"
   height="78"
   id="svg2408"
   inkscape:version="0.47 r22583"
   sodipodi:docname="contactgroup.svg"
   inkscape:export-filename="/home/francesco/neo_freerunner/qtmoko/faenqomod/svg/faenqomod_pics/addressbook/contactgroup.png"
   inkscape:export-xdpi="90"
   inkscape:export-ydpi="90">
  <sodipodi:namedview
     pagecolor="#ffffff"
     bordercolor="#666666"
     borderopacity="1"
     objecttolerance="10"
     gridtolerance="10"
     guidetolerance="10"
     inkscape:pageopacity="0"
     inkscape:pageshadow="2"
     inkscape:window-width="1366"
     inkscape:window-height="709"
     id="namedview62"
     showgrid="false"
     borderlayer="true"
     inkscape:showpageshadow="false"
     inkscape:zoom="2.5104167"
     inkscape:cx="-3.5850622"
     inkscape:cy="48"
     inkscape:window-x="0"
     inkscape:window-y="25"
     inkscape:window-maximized="1"
     inkscape:current-layer="svg2408" />
  <defs
     id="defs2410">
    <inkscape:perspective
       sodipodi:type="inkscape:persp3d"
       inkscape:vp_x="0 : 48 : 1"
       inkscape:vp_y="0 : 1000 : 0"
       inkscape:vp_z="96 : 48 : 1"
       inkscape:persp3d-origin="48 : 32 : 1"
       id="perspective64" />
    <linearGradient
       x1="45.447727"
       y1="92.539597"
       x2="45.447727"
       y2="7.0165396"
       id="ButtonShadow"
       gradientUnits="userSpaceOnUse"
       gradientTransform="scale(1.0058652,0.994169)">
      <stop
         id="stop3750"
         style="stop-color:#000000;stop-opacity:1"
         offset="0" />
      <stop
         id="stop3752"
         style="stop-color:#000000;stop-opacity:0.58823532"
         offset="1" />
    </linearGradient>
    <linearGradient
       id="linearGradient3737">
      <stop
         id="stop3739"
         style="stop-color:#ffffff;stop-opacity:1"
         offset="0" />
      <stop
         id="stop3741"
         style="stop-color:#ffffff;stop-opacity:0"
         offset="1" />
    </linearGradient>
    <linearGradient
       id="linearGradient3700">
      <stop
         id="stop3702"
         style="stop-color:#bebebe;stop-opacity:1"
         offset="0" />
      <stop
         id="stop3704"
         style="stop-color:#dcdcdc;stop-opacity:1"
         offset="1" />
    </linearGradient>
    <filter
       color-interpolation-filters="sRGB"
       id="filter3174">
      <feGaussianBlur
         id="feGaussianBlur3176"
         stdDeviation="1.71" />
    </filter>
    <linearGradient
       x1="36.357143"
       y1="6"
       x2="36.357143"
       y2="63.893143"
       id="linearGradient3188"
       xlink:href="#linearGradient3737"
       gradientUnits="userSpaceOnUse" />
    <filter
       x="-0.192"
       y="-0.192"
       width="1.3839999"
       height="1.3839999"
       color-interpolation-filters="sRGB"
       id="filter3794">
      <feGaussianBlur
         id="feGaussianBlur3796"
         stdDeviation="5.28" />
    </filter>
    <linearGradient
       x1="48"
       y1="20.220806"
       x2="48"
       y2="138.66119"
       id="linearGradient3613"
       xlink:href="#linearGradient3737"
       gradientUnits="userSpaceOnUse" />
    <radialGradient
       cx="48"
       cy="90.171875"
       r="42"
       fx="48"
       fy="90.171875"
       id="radialGradient3619"
       xlink:href="#linearGradient3737"
       gradientUnits="userSpaceOnUse"
       gradientTransform="matrix(1.1573129,0,0,0.99590774,-7.5510206,0.19713193)" />
    <clipPath
       id="clipPath3613">
      <rect
         width="84"
         height="84"
         rx="6"
         ry="6"
         x="6"
         y="6"
         id="rect3615"
         style="fill:#ffffff;fill-opacity:1;fill-rule:nonzero;stroke:none" />
    </clipPath>
    <linearGradient
       x1="48"
       y1="90"
       x2="48"
       y2="5.9877172"
       id="linearGradient3617"
       xlink:href="#linearGradient3700"
       gradientUnits="userSpaceOnUse" />
    <linearGradient
       x1="45.447727"
       y1="92.539597"
       x2="45.447727"
       y2="7.0165396"
       id="ButtonShadow-0"
       gradientUnits="userSpaceOnUse"
       gradientTransform="matrix(1.0058652,0,0,0.994169,100,0)">
      <stop
         id="stop3750-8"
         style="stop-color:#000000;stop-opacity:1"
         offset="0" />
      <stop
         id="stop3752-5"
         style="stop-color:#000000;stop-opacity:0.58823532"
         offset="1" />
    </linearGradient>
    <linearGradient
       x1="32.251034"
       y1="6.1317081"
       x2="32.251034"
       y2="90.238609"
       id="linearGradient3780"
       xlink:href="#ButtonShadow-0"
       gradientUnits="userSpaceOnUse"
       gradientTransform="matrix(1.0238095,0,0,1.0119048,-1.1428571,-98.071429)" />
    <linearGradient
       x1="32.251034"
       y1="6.1317081"
       x2="32.251034"
       y2="90.238609"
       id="linearGradient3772"
       xlink:href="#ButtonShadow-0"
       gradientUnits="userSpaceOnUse"
       gradientTransform="matrix(1.0238095,0,0,1.0119048,-1.1428571,-98.071429)" />
    <linearGradient
       x1="32.251034"
       y1="6.1317081"
       x2="32.251034"
       y2="90.238609"
       id="linearGradient3725"
       xlink:href="#ButtonShadow-0"
       gradientUnits="userSpaceOnUse"
       gradientTransform="matrix(1.0238095,0,0,1.0119048,-1.1428571,-98.071429)" />
    <linearGradient
       x1="32.251034"
       y1="6.1317081"
       x2="32.251034"
       y2="90.238609"
       id="linearGradient3721"
       xlink:href="#ButtonShadow-0"
       gradientUnits="userSpaceOnUse"
       gradientTransform="translate(0,-97)" />
    <linearGradient
       x1="32.251034"
       y1="6.1317081"
       x2="32.251034"
       y2="90.238609"
       id="linearGradient3026"
       xlink:href="#ButtonShadow-0"
       gradientUnits="userSpaceOnUse"
       gradientTransform="matrix(1.0238095,0,0,1.0119048,-1.1428571,-98.071429)" />
    <linearGradient
       x1="11.998966"
       y1="0.92195445"
       x2="11.998966"
       y2="19.387045"
       id="StandardGradient-3"
       gradientUnits="userSpaceOnUse"
       gradientTransform="scale(0.9219544,1.0846523)">
      <stop
         id="stop3283-5"
         style="stop-color:#000000;stop-opacity:0.86274511"
         offset="0" />
      <stop
         id="stop2651-2"
         style="stop-color:#000000;stop-opacity:0.47058824"
         offset="1" />
    </linearGradient>
    <linearGradient
       x1="56"
       y1="16"
       x2="56"
       y2="80"
       id="linearGradient3736"
       xlink:href="#StandardGradient-3"
       gradientUnits="userSpaceOnUse"
       gradientTransform="matrix(0.94249199,0,0,0.94249199,11.760384,0.875402)" />
    <linearGradient
       x1="56"
       y1="16"
       x2="56"
       y2="80"
       id="linearGradient2902"
       xlink:href="#StandardGradient-3"
       gradientUnits="userSpaceOnUse"
       gradientTransform="matrix(0.706869,0,0,0.706869,-1.6264818,12.656549)" />
    <linearGradient
       inkscape:collect="always"
       xlink:href="#ButtonShadow-0"
       id="linearGradient2895"
       gradientUnits="userSpaceOnUse"
       gradientTransform="matrix(1.0238095,0,0,1.0119048,-1.1428571,-98.071429)"
       x1="32.251034"
       y1="6.1317081"
       x2="32.251034"
       y2="90.238609" />
    <linearGradient
       inkscape:collect="always"
       xlink:href="#ButtonShadow-0"
       id="linearGradient2897"
       gradientUnits="userSpaceOnUse"
       gradientTransform="matrix(1.0238095,0,0,1.0119048,-1.1428571,-98.071429)"
       x1="32.251034"
       y1="6.1317081"
       x2="32.251034"
       y2="90.238609" />
    <linearGradient
       inkscape:collect="always"
       xlink:href="#ButtonShadow-0"
       id="linearGradient2899"
       gradientUnits="userSpaceOnUse"
       gradientTransform="matrix(1.0238095,0,0,1.0119048,-1.1428571,-98.071429)"
       x1="32.251034"
       y1="6.1317081"
       x2="32.251034"
       y2="90.238609" />
    <linearGradient
       inkscape:collect="always"
       xlink:href="#ButtonShadow-0"
       id="linearGradient2901"
       gradientUnits="userSpaceOnUse"
       gradientTransform="matrix(1.0238095,0,0,1.0119048,-1.1428571,-98.071429)"
       x1="32.251034"
       y1="6.1317081"
       x2="32.251034"
       y2="90.238609" />
    <linearGradient
       inkscape:collect="always"
       xlink:href="#ButtonShadow-0"
       id="linearGradient2903"
       gradientUnits="userSpaceOnUse"
       gradientTransform="translate(0,-97)"
       x1="32.251034"
       y1="6.1317081"
       x2="32.251034"
       y2="90.238609" />
    <linearGradient
       inkscape:collect="always"
       xlink:href="#linearGradient3700"
       id="linearGradient2905"
       gradientUnits="userSpaceOnUse"
       x1="48"
       y1="90"
       x2="48"
       y2="5.9877172" />
    <linearGradient
       inkscape:collect="always"
       xlink:href="#linearGradient3737"
       id="linearGradient2907"
       gradientUnits="userSpaceOnUse"
       x1="36.357143"
       y1="6"
       x2="36.357143"
       y2="63.893143" />
    <radialGradient
       inkscape:collect="always"
       xlink:href="#linearGradient3737"
       id="radialGradient2909"
       gradientUnits="userSpaceOnUse"
       gradientTransform="matrix(1.1573129,0,0,0.99590774,-7.5510206,0.19713193)"
       cx="48"
       cy="90.171875"
       fx="48"
       fy="90.171875"
       r="42" />
    <linearGradient
       inkscape:collect="always"
       xlink:href="#linearGradient3737"
       id="linearGradient2911"
       gradientUnits="userSpaceOnUse"
       x1="48"
       y1="20.220806"
       x2="48"
       y2="138.66119" />
    <linearGradient
       inkscape:collect="always"
       xlink:href="#StandardGradient-3"
       id="linearGradient2913"
       gradientUnits="userSpaceOnUse"
       gradientTransform="matrix(0.94249199,0,0,0.94249199,11.760384,0.875402)"
       x1="56"
       y1="16"
       x2="56"
       y2="80" />
    <linearGradient
       inkscape:collect="always"
       xlink:href="#StandardGradient-3"
       id="linearGradient2915"
       gradientUnits="userSpaceOnUse"
       gradientTransform="matrix(0.706869,0,0,0.706869,-1.6264818,12.656549)"
       x1="56"
       y1="16"
       x2="56"
       y2="80" />
  </defs>
  <metadata
     id="metadata2413">
    <rdf:RDF>
      <cc:Work
         rdf:about="">
        <dc:format>image/svg+xml</dc:format>
        <dc:type
           rdf:resource="http://purl.org/dc/dcmitype/StillImage" />
        <dc:title></dc:title>
      </cc:Work>
    </rdf:RDF>
  </metadata>
  <g
     id="layer2"
     style="display:none"
     transform="translate(0,-18)">
    <rect
       width="86"
       height="85"
       rx="6"
       ry="6"
       x="5"
       y="7"
       id="rect3745"
       style="opacity:0.9;fill:url(#ButtonShadow);fill-opacity:1;fill-rule:nonzero;stroke:none;filter:url(#filter3174)" />
  </g>
  <g
     id="g2870"
     transform="matrix(0.84725051,0,0,0.84725051,-1.6680245,12.311609)">
    <g
       transform="translate(0,-18)"
       id="layer3">
      <path
         style="opacity:0.07999998;fill:url(#linearGradient2895);fill-opacity:1;fill-rule:nonzero;stroke:none;display:inline"
         id="path3786"
         transform="scale(1,-1)"
         d="m 12,-95.03125 c -5.5110903,0 -10.03125,4.52016 -10.03125,10.03125 l 0,71 c 0,5.5110902 4.5201598,10.03125 10.03125,10.03125 l 72,0 c 5.51109,0 10.03125,-4.5201597 10.03125,-10.03125 l 0,-71 c 0,-5.51109 -4.52016,-10.03125 -10.03125,-10.03125 l -72,0 z" />
      <path
         style="opacity:0.1;fill:url(#linearGradient2897);fill-opacity:1;fill-rule:nonzero;stroke:none;display:inline"
         id="path3778"
         transform="scale(1,-1)"
         d="m 12,-94.03125 c -4.971633,0 -9.03125,4.059617 -9.03125,9.03125 l 0,71 c 0,4.9716329 4.0596171,9.03125 9.03125,9.03125 l 72,0 c 4.971633,0 9.03125,-4.059617 9.03125,-9.03125 l 0,-71 c 0,-4.971633 -4.059617,-9.03125 -9.03125,-9.03125 l -72,0 z" />
      <path
         style="opacity:0.2;fill:url(#linearGradient2899);fill-opacity:1;fill-rule:nonzero;stroke:none;display:inline"
         id="path3770"
         transform="scale(1,-1)"
         d="m 12,-93 c -4.4091333,0 -8,3.590867 -8,8 l 0,71 c 0,4.4091333 3.5908667,8 8,8 l 72,0 c 4.409133,0 8,-3.5908667 8,-8 l 0,-71 c 0,-4.409133 -3.590867,-8 -8,-8 l -72,0 z" />
      <rect
         style="opacity:0.3;fill:url(#linearGradient2901);fill-opacity:1;fill-rule:nonzero;stroke:none;display:inline"
         id="rect3723"
         transform="scale(1,-1)"
         y="-92"
         x="5"
         ry="7"
         rx="7"
         height="85"
         width="86" />
      <rect
         style="opacity:0.45;fill:url(#linearGradient2903);fill-opacity:1;fill-rule:nonzero;stroke:none;display:inline"
         id="rect3716"
         transform="scale(1,-1)"
         y="-91"
         x="6"
         ry="6"
         rx="6"
         height="84"
         width="84" />
    </g>
    <g
       transform="translate(0,-18)"
       id="layer1">
      <rect
         style="fill:url(#linearGradient2905);fill-opacity:1;fill-rule:nonzero;stroke:none"
         id="rect2419"
         y="6"
         x="6"
         ry="6"
         rx="6"
         height="84"
         width="84" />
      <path
         style="opacity:0.5;fill:url(#linearGradient2907);fill-opacity:1;fill-rule:nonzero;stroke:none"
         id="rect3728"
         inkscape:connector-curvature="0"
         d="M 12,6 C 8.676,6 6,8.676 6,12 l 0,2 0,68 0,2 c 0,0.334721 0.04135,0.6507 0.09375,0.96875 0.0487,0.295596 0.09704,0.596915 0.1875,0.875 0.00988,0.03038 0.020892,0.0636 0.03125,0.09375 0.098865,0.287771 0.2348802,0.547452 0.375,0.8125 0.1445918,0.273507 0.3156161,0.535615 0.5,0.78125 0.1843839,0.245635 0.3737765,0.473472 0.59375,0.6875 0.439947,0.428056 0.94291,0.814526 1.5,1.09375 0.278545,0.139612 0.5734731,0.246947 0.875,0.34375 -0.2562018,-0.100222 -0.4867109,-0.236272 -0.71875,-0.375 -0.00741,-0.0044 -0.023866,0.0045 -0.03125,0 -0.031933,-0.0193 -0.062293,-0.04251 -0.09375,-0.0625 -0.120395,-0.0767 -0.2310226,-0.163513 -0.34375,-0.25 -0.1061728,-0.0808 -0.2132809,-0.161112 -0.3125,-0.25 C 8.4783201,88.557317 8.3087904,88.373362 8.15625,88.1875 8.0486711,88.057245 7.9378561,87.922215 7.84375,87.78125 7.818661,87.74287 7.805304,87.69538 7.78125,87.65625 7.716487,87.553218 7.6510225,87.451733 7.59375,87.34375 7.4927417,87.149044 7.3880752,86.928049 7.3125,86.71875 7.30454,86.69694 7.288911,86.6782 7.28125,86.65625 7.2494249,86.5643 7.2454455,86.469419 7.21875,86.375 7.1884177,86.268382 7.1483606,86.171969 7.125,86.0625 7.0521214,85.720988 7,85.364295 7,85 L 7,83 7,15 7,13 C 7,10.218152 9.2181517,8 12,8 l 2,0 68,0 2,0 c 2.781848,0 5,2.218152 5,5 l 0,2 0,68 0,2 c 0,0.364295 -0.05212,0.720988 -0.125,1.0625 -0.04415,0.206893 -0.08838,0.397658 -0.15625,0.59375 -0.0077,0.02195 -0.0233,0.04069 -0.03125,0.0625 -0.06274,0.173739 -0.138383,0.367449 -0.21875,0.53125 -0.04158,0.0828 -0.07904,0.169954 -0.125,0.25 -0.0546,0.09721 -0.126774,0.18835 -0.1875,0.28125 -0.09411,0.140965 -0.204921,0.275995 -0.3125,0.40625 -0.143174,0.17445 -0.303141,0.346998 -0.46875,0.5 -0.01117,0.0102 -0.01998,0.02115 -0.03125,0.03125 -0.138386,0.125556 -0.285091,0.234436 -0.4375,0.34375 -0.102571,0.07315 -0.204318,0.153364 -0.3125,0.21875 -0.0074,0.0045 -0.02384,-0.0044 -0.03125,0 -0.232039,0.138728 -0.462548,0.274778 -0.71875,0.375 0.301527,-0.0968 0.596455,-0.204138 0.875,-0.34375 0.55709,-0.279224 1.060053,-0.665694 1.5,-1.09375 0.219973,-0.214028 0.409366,-0.441865 0.59375,-0.6875 0.184384,-0.245635 0.355408,-0.507743 0.5,-0.78125 0.14012,-0.265048 0.276135,-0.524729 0.375,-0.8125 0.01041,-0.03078 0.02133,-0.06274 0.03125,-0.09375 0.09046,-0.278085 0.1388,-0.579404 0.1875,-0.875 C 89.95865,84.6507 90,84.334721 90,84 l 0,-2 0,-68 0,-2 C 90,8.676 87.324,6 84,6 L 12,6 z" />
      <path
         style="opacity:0.2;fill:url(#radialGradient2909);fill-opacity:1;fill-rule:nonzero;stroke:none"
         id="path3615"
         inkscape:connector-curvature="0"
         d="M 12,90 C 8.676,90 6,87.324 6,84 L 6,82 6,14 6,12 c 0,-0.334721 0.04135,-0.6507 0.09375,-0.96875 0.0487,-0.295596 0.09704,-0.596915 0.1875,-0.875 C 6.29113,10.12587 6.302142,10.09265 6.3125,10.0625 6.411365,9.774729 6.5473802,9.515048 6.6875,9.25 6.8320918,8.976493 7.0031161,8.714385 7.1875,8.46875 7.3718839,8.223115 7.5612765,7.995278 7.78125,7.78125 8.221197,7.353194 8.72416,6.966724 9.28125,6.6875 9.559795,6.547888 9.8547231,6.440553 10.15625,6.34375 9.9000482,6.443972 9.6695391,6.580022 9.4375,6.71875 c -0.00741,0.0044 -0.023866,-0.0045 -0.03125,0 -0.031933,0.0193 -0.062293,0.04251 -0.09375,0.0625 -0.120395,0.0767 -0.2310226,0.163513 -0.34375,0.25 -0.1061728,0.0808 -0.2132809,0.161112 -0.3125,0.25 C 8.4783201,7.442683 8.3087904,7.626638 8.15625,7.8125 8.0486711,7.942755 7.9378561,8.077785 7.84375,8.21875 7.818661,8.25713 7.805304,8.30462 7.78125,8.34375 7.716487,8.446782 7.6510225,8.548267 7.59375,8.65625 7.4927417,8.850956 7.3880752,9.071951 7.3125,9.28125 7.30454,9.30306 7.288911,9.3218 7.28125,9.34375 7.2494249,9.4357 7.2454455,9.530581 7.21875,9.625 7.1884177,9.731618 7.1483606,9.828031 7.125,9.9375 7.0521214,10.279012 7,10.635705 7,11 l 0,2 0,68 0,2 c 0,2.781848 2.2181517,5 5,5 l 2,0 68,0 2,0 c 2.781848,0 5,-2.218152 5,-5 l 0,-2 0,-68 0,-2 C 89,10.635705 88.94788,10.279012 88.875,9.9375 88.83085,9.730607 88.78662,9.539842 88.71875,9.34375 88.71105,9.3218 88.69545,9.30306 88.6875,9.28125 88.62476,9.107511 88.549117,8.913801 88.46875,8.75 88.42717,8.6672 88.38971,8.580046 88.34375,8.5 88.28915,8.40279 88.216976,8.31165 88.15625,8.21875 88.06214,8.077785 87.951329,7.942755 87.84375,7.8125 87.700576,7.63805 87.540609,7.465502 87.375,7.3125 87.36383,7.3023 87.35502,7.29135 87.34375,7.28125 87.205364,7.155694 87.058659,7.046814 86.90625,6.9375 86.803679,6.86435 86.701932,6.784136 86.59375,6.71875 c -0.0074,-0.0045 -0.02384,0.0044 -0.03125,0 -0.232039,-0.138728 -0.462548,-0.274778 -0.71875,-0.375 0.301527,0.0968 0.596455,0.204138 0.875,0.34375 0.55709,0.279224 1.060053,0.665694 1.5,1.09375 0.219973,0.214028 0.409366,0.441865 0.59375,0.6875 0.184384,0.245635 0.355408,0.507743 0.5,0.78125 0.14012,0.265048 0.276135,0.524729 0.375,0.8125 0.01041,0.03078 0.02133,0.06274 0.03125,0.09375 0.09046,0.278085 0.1388,0.579404 0.1875,0.875 C 89.95865,11.3493 90,11.665279 90,12 l 0,2 0,68 0,2 c 0,3.324 -2.676,6 -6,6 l -72,0 z" />
    </g>
    <g
       transform="translate(0,-18)"
       id="layer5">
      <rect
         style="opacity:0.1;fill:url(#linearGradient2911);fill-opacity:1;fill-rule:nonzero;stroke:#ffffff;stroke-width:0.5;stroke-linecap:round;stroke-linejoin:miter;stroke-miterlimit:4;stroke-opacity:1;stroke-dasharray:none;stroke-dashoffset:0;filter:url(#filter3794)"
         id="rect3171"
         clip-path="url(#clipPath3613)"
         y="15"
         x="15"
         ry="12"
         rx="12"
         height="66"
         width="66" />
    </g>
    <g
       transform="translate(0,-18)"
       id="layer4">
      <path
         style="fill:url(#linearGradient2913);fill-opacity:1;stroke:none;display:inline;enable-background:new"
         id="path3798"
         inkscape:connector-curvature="0"
         d="m 56.999987,16.000055 c -6.578084,0 -11.910673,4.933473 -11.910673,11.019222 0.01598,0.697437 0.0261,1.493764 0.09926,2.36126 -1.041033,0.550102 -1.176728,2.701364 -0.24814,4.870099 0.358069,0.836275 0.846451,1.515776 1.339951,2.066101 0.01645,0.0184 0.03308,0.0312 0.04963,0.04913 0.117798,0.573005 0.204935,1.026217 0.347397,1.672559 0.441331,1.3124 2.265031,3.781004 3.870968,5.903154 0.160151,1.637089 0.173325,3.253913 -0.148893,5.116069 -4.622431,3.801433 -16.444509,5.509609 -16.42679,9.445046 l -1.588084,10.232128 c 0,2.09638 3.159367,4.015841 8.188586,5.312838 l 0.694789,2.804 a 1.7295878,1.7144325 0 0 0 1.091813,1.131438 c 0.223226,0.08562 0.380762,0.266676 0.992554,0.442732 C 46.575103,79.353274 51.482292,80 57,80 c 5.517709,0 10.474525,-0.646726 13.697272,-1.574169 0.611792,-0.176056 0.769331,-0.357156 0.992554,-0.442732 a 1.7295878,1.7144325 0 0 0 1.042187,-1.082247 l 0.843671,-2.951578 c 4.906344,-1.294943 8.039703,-3.147592 8.039703,-5.214451 l -1.588095,-10.23212 c -0.01886,-3.368207 -11.910674,-5.509608 -16.47643,-9.445053 -0.18486,-1.507492 -0.193385,-2.991749 -0.09928,-4.476547 1.460096,-2.232553 3.382384,-5.08976 3.870967,-6.542667 0.179567,-0.752422 0.257562,-1.272434 0.397022,-1.918525 0.431165,-0.522382 0.823158,-1.125974 1.141439,-1.86933 0.881833,-2.059528 0.799501,-4.053827 -0.09926,-4.722522 0.0628,-0.894886 0.122622,-1.744011 0.148877,-2.50884 C 68.910636,20.933471 63.578049,16 56.999966,16 z" />
      <path
         style="opacity:0.1;fill:#000000;fill-opacity:1;stroke:none;display:inline;enable-background:new"
         id="path3698"
         inkscape:connector-curvature="0"
         d="m 57,16 c -6.578084,0 -11.90625,4.945501 -11.90625,11.03125 0.01598,0.697437 0.02059,1.476254 0.09375,2.34375 -1.041033,0.550102 -1.178588,2.706265 -0.25,4.875 0.358069,0.836275 0.85025,1.512175 1.34375,2.0625 0.01645,0.0184 0.04595,0.04457 0.0625,0.0625 0.117798,0.573005 0.201288,1.009908 0.34375,1.65625 0.441331,1.3124 2.269063,3.7841 3.875,5.90625 0.160151,1.637089 0.165968,3.262844 -0.15625,5.125 -4.622431,3.801433 -16.455219,5.502063 -16.4375,9.4375 L 32.375,68.75 c 0,2.09638 3.158281,4.015503 8.1875,5.3125 l 0.71875,2.78125 a 1.7295878,1.7144325 0 0 0 1.09375,1.125 c 0.223226,0.08562 0.356958,0.292694 0.96875,0.46875 C 46.566498,79.364943 51.482292,80 57,80 c 5.517709,0 10.464753,-0.635057 13.6875,-1.5625 0.611792,-0.176056 0.776777,-0.383174 1,-0.46875 a 1.7295878,1.7144325 0 0 0 1.03125,-1.0625 L 73.5625,73.9375 C 78.468844,72.642557 81.625,70.816859 81.625,68.75 L 80.03125,58.5 C 80.01239,55.131793 68.128256,52.997945 63.5625,49.0625 c -0.18486,-1.507492 -0.219105,-2.983952 -0.125,-4.46875 1.460096,-2.232553 3.386417,-5.109593 3.875,-6.5625 0.179567,-0.752422 0.26679,-1.260159 0.40625,-1.90625 0.431165,-0.522382 0.837969,-1.131644 1.15625,-1.875 0.881833,-2.059528 0.773761,-4.050055 -0.125,-4.71875 0.0628,-0.894886 0.129995,-1.735171 0.15625,-2.5 C 68.906259,20.945502 63.578083,16 57,16 z m 0,1.9375 c 5.589056,0 9.931987,4.097552 9.96875,9.03125 1.56e-4,0.02098 0,0.04149 0,0.0625 -0.02545,0.688779 -0.063,1.491583 -0.125,2.375 a 1.9260586,1.9260586 0 0 0 0.625,1.5625 c -0.04866,-0.03591 0.081,0.101771 0.09375,0.46875 0.017,0.489306 -0.127404,1.265284 -0.46875,2.0625 -0.234439,0.54754 -0.533235,0.992182 -0.875,1.40625 a 1.9260586,1.9260586 0 0 0 -0.375,0.8125 c -0.13846,0.641458 -0.229377,1.123605 -0.375,1.75 -0.140365,0.390152 -0.691849,1.41967 -1.375,2.53125 -0.699714,1.13853 -1.546271,2.407434 -2.28125,3.53125 A 1.9260586,1.9260586 0 0 0 61.5,44.46875 c -0.101068,1.594663 -0.0436,3.21399 0.15625,4.84375 a 1.9260586,1.9260586 0 0 0 0.65625,1.21875 c 2.778403,2.394839 6.970946,3.82248 10.46875,5.25 1.748902,0.71376 3.325784,1.389438 4.3125,2 0.493358,0.305281 0.830394,0.621172 0.96875,0.78125 0.02661,0.03078 0.02025,0.01685 0.03125,0.03125 0.0028,0.0078 -0.0026,0.02524 0,0.03125 A 1.9260586,1.9260586 0 0 0 78.125,58.78125 L 79.6875,68.75 c 0,0.05314 -0.146787,0.540805 -1.28125,1.25 -1.134463,0.709195 -3.007984,1.446016 -5.34375,2.0625 a 1.9260586,1.9260586 0 0 0 -1.34375,1.34375 L 70.9375,76.1875 c -0.668375,0.271611 -0.489908,0.32241 -0.78125,0.40625 C 67.21233,77.440952 62.369938,78.0625 57,78.0625 c -5.369937,0 -10.177899,-0.620633 -13.125,-1.46875 -0.28413,-0.08176 0.01006,-0.09166 -0.78125,-0.40625 L 42.4375,73.59375 A 1.9260586,1.9260586 0 0 0 41.03125,72.1875 C 38.644659,71.572017 36.771455,70.824483 35.625,70.09375 34.478545,69.363017 34.3125,68.831058 34.3125,68.75 L 35.875,58.78125 A 1.9260586,1.9260586 0 0 0 35.90625,58.5 c -8.2e-5,-0.01817 0.08294,-0.37888 1.03125,-1 0.948312,-0.62112 2.487742,-1.286755 4.21875,-1.96875 3.462017,-1.36399 7.643678,-2.645444 10.46875,-4.96875 a 1.9260586,1.9260586 0 0 0 0.6875,-1.15625 c 0.354991,-2.051555 0.32799,-3.900697 0.15625,-5.65625 a 1.9260586,1.9260586 0 0 0 -0.375,-0.96875 c -0.798009,-1.054521 -1.635807,-2.193362 -2.3125,-3.1875 -0.66528,-0.97737 -1.15615,-1.896071 -1.25,-2.15625 C 48.52965,37.433 48.50137,37.41032 48.5,37.40625 48.393384,36.910433 48.322818,36.506216 48.21875,36 A 1.9260586,1.9260586 0 0 0 47.75,35.0625 c -0.156701,-0.169767 -0.172559,-0.18931 -0.03125,-0.03125 -0.395143,-0.440643 -0.745486,-0.936828 -1,-1.53125 -0.359852,-0.840442 -0.496566,-1.682848 -0.46875,-2.1875 0.01391,-0.252326 0.05994,-0.355372 0.0625,-0.375 a 1.9260586,1.9260586 0 0 0 0.78125,-1.71875 c -0.06469,-0.767115 -0.04649,-1.475745 -0.0625,-2.1875 0,-0.0105 -3.9e-5,-0.02075 0,-0.03125 C 47.04969,22.052308 51.399061,17.9375 57,17.9375 z" />
      <path
         style="opacity:0.15;fill:#000000;fill-opacity:1;stroke:none;display:inline;enable-background:new"
         id="path3691"
         inkscape:connector-curvature="0"
         d="m 57,16 c -6.578084,0 -11.90625,4.945501 -11.90625,11.03125 0.01598,0.697437 0.02059,1.476254 0.09375,2.34375 -1.041033,0.550102 -1.178588,2.706265 -0.25,4.875 0.358069,0.836275 0.85025,1.512175 1.34375,2.0625 0.01645,0.0184 0.04595,0.04457 0.0625,0.0625 0.117798,0.573005 0.201288,1.009908 0.34375,1.65625 0.441331,1.3124 2.269063,3.7841 3.875,5.90625 0.160151,1.637089 0.165968,3.262844 -0.15625,5.125 -4.622431,3.801433 -16.455219,5.502063 -16.4375,9.4375 L 32.375,68.75 c 0,2.09638 3.158281,4.015503 8.1875,5.3125 l 0.71875,2.78125 a 1.7295878,1.7144325 0 0 0 1.09375,1.125 c 0.223226,0.08562 0.356958,0.292694 0.96875,0.46875 C 46.566498,79.364943 51.482292,80 57,80 c 5.517709,0 10.464753,-0.635057 13.6875,-1.5625 0.611792,-0.176056 0.776777,-0.383174 1,-0.46875 a 1.7295878,1.7144325 0 0 0 1.03125,-1.0625 L 73.5625,73.9375 C 78.468844,72.642557 81.625,70.816859 81.625,68.75 L 80.03125,58.5 C 80.01239,55.131793 68.128256,52.997945 63.5625,49.0625 c -0.18486,-1.507492 -0.219105,-2.983952 -0.125,-4.46875 1.460096,-2.232553 3.386417,-5.109593 3.875,-6.5625 0.179567,-0.752422 0.26679,-1.260159 0.40625,-1.90625 0.431165,-0.522382 0.837969,-1.131644 1.15625,-1.875 0.881833,-2.059528 0.773761,-4.050055 -0.125,-4.71875 0.0628,-0.894886 0.129995,-1.735171 0.15625,-2.5 C 68.906259,20.945502 63.578083,16 57,16 z m 0,1.0625 c 6.039419,0 10.825314,4.479735 10.84375,9.9375 3.6e-5,0.01053 0,0.02072 0,0.03125 -0.02575,0.723069 -0.0938,1.54758 -0.15625,2.4375 A 1.0515944,1.0515944 0 0 0 68.125,30.375 c 0.0647,0.04813 0.289992,0.383332 0.3125,1.03125 0.02251,0.647918 -0.144697,1.534703 -0.53125,2.4375 -0.272505,0.636444 -0.617646,1.161756 -1,1.625 a 1.0515944,1.0515944 0 0 0 -0.21875,0.4375 c -0.136962,0.634517 -0.219439,1.116441 -0.375,1.78125 -0.0084,0.03588 -0.02241,0.05671 -0.03125,0.09375 -0.196607,0.546091 -0.748278,1.566042 -1.4375,2.6875 -0.711269,1.157332 -1.54851,2.442107 -2.28125,3.5625 a 1.0515944,1.0515944 0 0 0 -0.1875,0.5 c -0.09791,1.544782 -0.0368,3.082002 0.15625,4.65625 a 1.0515944,1.0515944 0 0 0 0.34375,0.65625 c 2.553426,2.200921 6.699922,3.6889 10.21875,5.125 1.759414,0.71805 3.359339,1.426603 4.4375,2.09375 0.539081,0.333574 0.959556,0.642518 1.1875,0.90625 0.227944,0.263732 0.249372,0.419065 0.25,0.53125 A 1.0515944,1.0515944 0 0 0 79,58.65625 L 80.5625,68.75 c 0,0.498211 -0.43142,1.214778 -1.6875,2 -1.25608,0.785222 -3.20468,1.525697 -5.59375,2.15625 a 1.0515944,1.0515944 0 0 0 -0.71875,0.75 L 71.75,76.5625 71.71875,76.59375 c -0.0095,0.02386 -0.0015,0.03464 0,0.03125 0.0015,-0.0034 -0.0204,-0.02329 -0.03125,0 -0.0217,0.04658 0.02427,0.01721 0,0.0625 -0.02427,0.04529 -0.0045,-0.01261 -0.03125,0.03125 -0.02676,0.04386 -0.0021,-0.01105 -0.03125,0.03125 -0.03147,0.04061 0.0024,-0.0075 -0.03125,0.03125 -0.03367,0.03879 0.0045,-0.0056 -0.03125,0.03125 -0.03578,0.03686 0.0065,-0.0036 -0.03125,0.03125 -0.03776,0.03481 0.0084,-0.0014 -0.03125,0.03125 -0.01982,0.01633 -0.01013,0.03132 0,0.03125 -0.04138,0.03042 0.01175,-0.02808 -0.03125,0 -0.043,0.02808 0.01323,0.0056 -0.03125,0.03125 -0.04448,0.02565 -0.01667,0.0081 -0.0625,0.03125 -0.04583,0.02315 0.01579,-0.02059 -0.03125,0 -0.04704,0.02059 0.01685,-0.01796 -0.03125,0 a 1.0515944,1.0515944 0 0 0 0,0.03125 c -0.591024,0.226578 -0.456797,0.30816 -0.90625,0.4375 -3.070512,0.883633 -7.969221,1.5 -13.40625,1.5 -5.437028,0 -10.302751,-0.615868 -13.375,-1.5 C 43.184648,77.310779 43.371397,77.238341 42.75,77 a 1.0515944,1.0515944 0 0 0 -0.03125,-0.03125 c -0.05173,-0.01761 0.01936,0.02062 -0.03125,0 -0.05061,-0.02062 -0.01318,-0.0077 -0.0625,-0.03125 -0.04932,-0.02356 0.0166,0.02642 -0.03125,0 -0.04785,-0.02642 0.01496,-0.0021 -0.03125,-0.03125 -0.04621,-0.02919 0.01317,6.13e-4 -0.03125,-0.03125 -0.04442,-0.03186 0.01121,0.0032 -0.03125,-0.03125 -0.02123,-0.01721 -0.03379,-0.0089 -0.03125,0 -0.04036,-0.03688 0.0069,0.008 -0.03125,-0.03125 -0.03811,-0.0392 0.0045,0.01014 -0.03125,-0.03125 0.0086,0.0028 0.01661,-0.0095 0,-0.03125 -0.03322,-0.04344 -6.63e-4,0.01408 -0.03125,-0.03125 -0.03059,-0.04533 -0.0034,0.01582 -0.03125,-0.03125 -0.02785,-0.04707 0.025,0.01739 0,-0.03125 -0.025,-0.04864 -0.0092,0.0188 -0.03125,-0.03125 -0.01103,-0.02502 -0.0015,-0.0349 0,-0.03125 l 0,-0.03125 c -0.01905,-0.05127 -0.01528,0.02107 -0.03125,-0.03125 L 41.59375,73.8125 A 1.0515944,1.0515944 0 0 0 40.8125,73.03125 C 38.367786,72.400777 36.426092,71.621878 35.15625,70.8125 33.886408,70.003122 33.4375,69.270153 33.4375,68.75 L 35,58.65625 A 1.0515944,1.0515944 0 0 0 35.03125,58.5 c -0.0021,-0.456611 0.384425,-1.029013 1.4375,-1.71875 1.053075,-0.689737 2.627699,-1.374086 4.375,-2.0625 3.494601,-1.376828 7.626978,-2.712307 10.21875,-4.84375 a 1.0515944,1.0515944 0 0 0 0.375,-0.625 c 0.340111,-1.965565 0.322728,-3.704481 0.15625,-5.40625 A 1.0515944,1.0515944 0 0 0 51.40625,43.3125 C 50.605989,42.255003 49.755605,41.111999 49.0625,40.09375 48.369395,39.075501 47.831953,38.117065 47.6875,37.6875 47.566143,37.12928 47.485214,36.692366 47.375,36.15625 a 1.0515944,1.0515944 0 0 0 -0.25,-0.5 C 47.10173,35.63104 47.07817,35.63875 47.0625,35.625 46.622701,35.13456 46.20778,34.547977 45.90625,33.84375 45.498979,32.892561 45.337818,31.924565 45.375,31.25 c 0.03718,-0.674565 0.27681,-0.918641 0.3125,-0.9375 A 1.0515944,1.0515944 0 0 0 46.25,29.28125 c -0.0681,-0.807473 -0.07798,-1.547924 -0.09375,-2.25 0,-0.01053 -3.6e-5,-0.02072 0,-0.03125 C 46.17469,21.542232 50.96058,17.0625 57,17.0625 z" />
      <path
         style="opacity:0.5;fill:#000000;fill-opacity:1;stroke:none;display:inline;enable-background:new"
         id="path3682"
         inkscape:connector-curvature="0"
         d="m 57,16 c -6.578084,0 -11.90625,4.945501 -11.90625,11.03125 0.0048,0.209345 0.02565,0.429835 0.03125,0.65625 C 45.323701,21.76281 50.547785,17 57,17 c 6.383903,0 11.57293,4.663117 11.875,10.5 0.0071,-0.149119 0.02633,-0.325307 0.03125,-0.46875 C 68.906259,20.945502 63.578083,16 57,16 z M 45.125,29.40625 c -0.609597,0.370124 -0.873775,1.329002 -0.78125,2.5 0.09528,-0.722115 0.387821,-1.290328 0.84375,-1.53125 -0.02837,-0.336398 -0.04907,-0.655372 -0.0625,-0.96875 z m 23.6875,0.1875 c -0.0211,0.320759 -0.03894,0.601831 -0.0625,0.9375 0.407828,0.303432 0.629688,0.893433 0.6875,1.625 0.13658,-1.15474 -0.0914,-2.105822 -0.625,-2.5625 z M 50.625,46.75 c -0.02908,0.735547 -0.0793,1.506579 -0.21875,2.3125 -4.622431,3.801433 -16.455219,5.502063 -16.4375,9.4375 L 32.375,68.75 c 0,0.173606 0.0199,0.329073 0.0625,0.5 l 1.53125,-9.75 c -0.01772,-3.935437 11.815069,-5.636067 16.4375,-9.4375 0.203424,-1.175624 0.23527,-2.265609 0.21875,-3.3125 z m 12.78125,0.40625 c -0.0082,0.963601 0.03649,1.929609 0.15625,2.90625 4.565756,3.935445 16.44989,6.069293 16.46875,9.4375 l 1.53125,9.75 c 0.0422,-0.168029 0.0625,-0.328838 0.0625,-0.5 L 80.03125,58.5 C 80.01239,55.131793 68.128256,52.997945 63.5625,49.0625 63.48418,48.423821 63.426872,47.788396 63.40625,47.15625 z" />
      <path
         style="opacity:0.5;fill:#ffffff;fill-opacity:1;stroke:none;display:inline;enable-background:new"
         id="path3705"
         inkscape:connector-curvature="0"
         d="m 68.875,27.5 c -0.03069,0.645974 -0.07398,1.304199 -0.125,2.03125 0.02247,0.01672 0.04105,0.04415 0.0625,0.0625 0.03516,-0.534376 0.07734,-1.084556 0.09375,-1.5625 0,-0.179647 -0.02206,-0.353709 -0.03125,-0.53125 z m -23.75,0.1875 c -0.0039,0.115578 -0.03125,0.227302 -0.03125,0.34375 0.0098,0.426984 0.01005,0.880246 0.03125,1.375 0.0193,-0.01172 0.04253,-0.0207 0.0625,-0.03125 -0.0512,-0.607106 -0.04943,-1.159609 -0.0625,-1.6875 z m -0.78125,4.28125 c -0.106491,0.91862 0.0832,2.088843 0.59375,3.28125 0.358069,0.836275 0.85025,1.512175 1.34375,2.0625 0.01645,0.0184 0.04595,0.04457 0.0625,0.0625 0.117798,0.573005 0.201288,1.009908 0.34375,1.65625 0.441331,1.3124 2.269063,3.7841 3.875,5.90625 0.05904,0.603555 0.05285,1.201144 0.0625,1.8125 0.03812,-0.964003 0.02834,-1.883926 -0.0625,-2.8125 -1.605937,-2.12215 -3.433669,-4.59385 -3.875,-5.90625 C 46.545038,37.384908 46.461548,36.948005 46.34375,36.375 46.3272,36.35707 46.2977,36.3309 46.28125,36.3125 45.78775,35.762175 45.295569,35.086275 44.9375,34.25 44.598803,33.458968 44.406979,32.678285 44.34375,31.96875 z m 25.09375,0.1875 c -0.07751,0.65529 -0.251229,1.366774 -0.5625,2.09375 -0.318281,0.743356 -0.725085,1.352618 -1.15625,1.875 -0.13946,0.646091 -0.226683,1.153828 -0.40625,1.90625 -0.488583,1.452907 -2.414904,4.329947 -3.875,6.5625 -0.0212,0.334536 0.0099,0.665247 0,1 1.460096,-2.232553 3.386417,-5.109593 3.875,-6.5625 0.179567,-0.752422 0.26679,-1.260159 0.40625,-1.90625 0.431165,-0.522382 0.837969,-1.131644 1.15625,-1.875 0.481686,-1.124982 0.632092,-2.213108 0.5625,-3.09375 z m -37,37.09375 -0.0625,0.5 c 0,2.09638 3.158281,4.015503 8.1875,5.3125 l 0.71875,2.78125 a 1.7295878,1.7144325 0 0 0 1.09375,1.125 c 0.223226,0.08562 0.356958,0.292694 0.96875,0.46875 C 46.566498,80.364943 51.482292,81 57,81 c 5.517709,0 10.464753,-0.635057 13.6875,-1.5625 0.611792,-0.176056 0.776777,-0.383174 1,-0.46875 a 1.7295878,1.7144325 0 0 0 1.03125,-1.0625 L 73.5625,74.9375 C 78.468844,73.642557 81.625,71.816859 81.625,69.75 l -0.0625,-0.5 c -0.467429,1.860996 -3.499963,3.499794 -8,4.6875 l -0.84375,2.96875 a 1.7295878,1.7144325 0 0 1 -1.03125,1.0625 c -0.223223,0.08558 -0.388208,0.292694 -1,0.46875 C 67.464753,79.364943 62.517709,80 57,80 51.482292,80 46.566498,79.364943 43.34375,78.4375 42.731958,78.261444 42.598226,78.05437 42.375,77.96875 a 1.7295878,1.7144325 0 0 1 -1.09375,-1.125 L 40.5625,74.0625 C 35.949763,72.872911 32.909326,71.143095 32.4375,69.25 z" />
      <path
         style="fill:url(#linearGradient2915);fill-opacity:1;stroke:none;display:inline;enable-background:new"
         id="path2889"
         inkscape:connector-curvature="0"
         d="m 32.3125,24 c -4.933563,0 -8.9375,3.685688 -8.9375,8.25 0.01199,0.523077 0.0076,1.130628 0.0625,1.78125 -0.780775,0.412576 -0.88394,2.029698 -0.1875,3.65625 0.268552,0.627206 0.629875,1.149757 1,1.5625 0.01233,0.0138 0.05009,0.01781 0.0625,0.03125 0.08835,0.429754 0.143153,0.765245 0.25,1.25 0.330998,0.984301 1.701797,2.845887 2.90625,4.4375 0.120114,1.227817 0.116663,2.415883 -0.125,3.8125 -3.466823,2.851074 -12.325789,4.142171 -12.3125,7.09375 l -1.1875,7.6875 c 0,1.572284 2.353085,2.996001 6.125,3.96875 L 20.5,69.625 a 1.2971909,1.2858244 0 0 0 0.8125,0.875 c 0.16742,0.06421 0.291156,0.180459 0.75,0.3125 2.303676,0.662953 5.785982,1.113453 9.6875,1.15625 C 30.927135,71.082944 30.375,70.026441 30.375,68.75 a 2.008154,2.008154 0 0 1 0.03125,-0.3125 L 31.96875,58.5 32,58.1875 l 0.0625,0 c 0.148658,-1.799076 1.385508,-3.095511 2.71875,-3.96875 1.419638,-0.929826 3.133193,-1.632876 4.9375,-2.34375 0.590547,-0.232668 1.18935,-0.48327 1.78125,-0.71875 -1.660729,-0.715005 -3.235377,-1.473512 -4.28125,-2.375 -0.138644,-1.130618 -0.133079,-2.230152 -0.0625,-3.34375 1.095073,-1.674415 2.508563,-3.816571 2.875,-4.90625 0.134675,-0.564317 0.207904,-0.952931 0.3125,-1.4375 0.323373,-0.391786 0.605039,-0.848734 0.84375,-1.40625 0.661375,-1.544647 0.611565,-3.029728 -0.0625,-3.53125 0.0471,-0.671165 0.105312,-1.332628 0.125,-1.90625 3e-6,-4.564313 -4.003938,-8.25 -8.9375,-8.25 z" />
      <path
         style="opacity:0.5;fill:#000000;fill-opacity:1;stroke:none;display:inline;enable-background:new"
         id="path2904"
         inkscape:connector-curvature="0"
         d="m 32.3125,24 c -4.933563,0 -8.9375,3.685688 -8.9375,8.25 0.0034,0.14697 0.02879,0.340611 0.03125,0.5 0.281793,-4.32866 4.155584,-7.75 8.90625,-7.75 4.705047,0 8.55881,3.355466 8.90625,7.625 0.0065,-0.119192 0.02737,-0.262025 0.03125,-0.375 3e-6,-4.564313 -4.003938,-8.25 -8.9375,-8.25 z m -8.90625,10.0625 c -0.482133,0.287543 -0.692531,1.061727 -0.59375,2 0.08435,-0.489691 0.305786,-0.862571 0.625,-1.03125 -0.02986,-0.353812 -0.02429,-0.647071 -0.03125,-0.96875 z m 17.78125,0.15625 c -0.02264,0.316114 -0.03933,0.607395 -0.0625,0.9375 0.240933,0.17926 0.422544,0.486619 0.5,0.875 0.08262,-0.807343 -0.06663,-1.476255 -0.4375,-1.8125 z M 27.53125,46.875 c -0.01837,0.606334 -0.07055,1.230374 -0.1875,1.90625 -3.466823,2.851074 -12.325789,4.142171 -12.3125,7.09375 l -1.1875,7.6875 c 0,0.166299 0.01096,0.337383 0.0625,0.5 l 1.125,-7.1875 c -0.01329,-2.951579 8.845677,-4.242676 12.3125,-7.09375 0.181247,-1.047463 0.225875,-1.988655 0.1875,-2.90625 z m 9.59375,0.5625 c -0.01684,0.774444 -0.003,1.554367 0.09375,2.34375 0.790039,0.680972 1.891078,1.283072 3.09375,1.84375 0.395047,-0.160164 0.794101,-0.312241 1.1875,-0.46875 -1.660729,-0.715005 -3.235377,-1.473512 -4.28125,-2.375 C 37.16357,48.331239 37.13949,47.880509 37.125,47.4375 z M 30.4375,69.34375 30.40625,69.4375 A 2.008154,2.008154 0 0 0 30.375,69.75 c 0,0.817793 0.245731,1.537315 0.625,2.1875 0.253452,0.0063 0.492683,0.02843 0.75,0.03125 -0.690178,-0.74297 -1.169286,-1.612804 -1.3125,-2.625 z" />
      <path
         style="opacity:0.1;fill:#000000;fill-opacity:1;stroke:none;display:inline;enable-background:new"
         id="path3699"
         inkscape:connector-curvature="0"
         d="m 32.3125,24 c -4.933563,0 -8.9375,3.685688 -8.9375,8.25 0.01199,0.523077 0.0076,1.130628 0.0625,1.78125 -0.780775,0.412576 -0.88394,2.029698 -0.1875,3.65625 0.268552,0.627206 0.629875,1.149757 1,1.5625 0.01233,0.0138 0.05009,0.01781 0.0625,0.03125 0.08835,0.429754 0.143153,0.765245 0.25,1.25 0.330998,0.984301 1.701797,2.845887 2.90625,4.4375 0.120114,1.227817 0.116663,2.415883 -0.125,3.8125 -3.466823,2.851074 -12.325789,4.142171 -12.3125,7.09375 l -1.1875,7.6875 c 0,1.572284 2.353085,2.996001 6.125,3.96875 L 20.5,69.625 a 1.2971909,1.2858244 0 0 0 0.8125,0.875 c 0.16742,0.06421 0.291156,0.180459 0.75,0.3125 2.303676,0.662953 5.785982,1.113453 9.6875,1.15625 C 30.927135,71.082944 30.375,70.026441 30.375,68.75 a 2.008154,2.008154 0 0 1 0.03125,-0.3125 L 31.96875,58.5 32,58.1875 l 0.0625,0 c 0.148658,-1.799076 1.385508,-3.095511 2.71875,-3.96875 1.419638,-0.929826 3.133193,-1.632876 4.9375,-2.34375 0.590547,-0.232668 1.18935,-0.48327 1.78125,-0.71875 -1.660729,-0.715005 -3.235377,-1.473512 -4.28125,-2.375 -0.138644,-1.130618 -0.133079,-2.230152 -0.0625,-3.34375 1.095073,-1.674415 2.508563,-3.816571 2.875,-4.90625 0.134675,-0.564317 0.207904,-0.952931 0.3125,-1.4375 0.323373,-0.391786 0.605039,-0.848734 0.84375,-1.40625 0.661375,-1.544647 0.611565,-3.029728 -0.0625,-3.53125 0.0471,-0.671165 0.105312,-1.332628 0.125,-1.90625 3e-6,-4.564313 -4.003938,-8.25 -8.9375,-8.25 z m 0,1.9375 c 3.946255,0 6.963182,2.844282 7,6.25 2.27e-4,0.02097 0,0.04149 0,0.0625 -0.01886,0.487324 -0.07796,1.111008 -0.125,1.78125 a 1.933781,1.933781 0 0 0 0.5,1.4375 c 0.0018,-0.0028 0.02887,-0.01259 0.03125,0.09375 0.0062,0.278131 -0.07698,0.824944 -0.3125,1.375 -0.172558,0.403015 -0.358084,0.689837 -0.5625,0.9375 a 1.933781,1.933781 0 0 0 -0.375,0.8125 c -0.09578,0.443704 -0.184337,0.796576 -0.28125,1.21875 -0.06582,0.195728 -0.458557,1.005216 -0.96875,1.84375 -0.510193,0.838534 -1.138117,1.784969 -1.6875,2.625 a 1.933781,1.933781 0 0 0 -0.3125,0.9375 c -0.07525,1.187379 -0.06409,2.431604 0.09375,3.71875 A 1.933781,1.933781 0 0 0 35.96875,50.25 c 0.335076,0.288818 0.723067,0.504486 1.09375,0.75 -1.137595,0.488669 -2.304892,0.913325 -3.34375,1.59375 -1.435231,0.940039 -2.934553,2.493946 -3.40625,4.65625 A 1.933781,1.933781 0 0 0 30.0625,58 L 30.03125,58.3125 28.5,68.125 a 1.933781,1.933781 0 0 0 0,0.625 l -0.0625,0 c 0,0.385986 0.181393,0.701585 0.25,1.0625 -2.435886,-0.18384 -4.662273,-0.431799 -6.09375,-0.84375 -0.137054,-0.03944 -0.262384,-0.124763 -0.3125,-0.15625 l -0.4375,-1.75 A 1.933781,1.933781 0 0 0 20.4375,65.65625 C 18.678275,65.202559 17.317111,64.624845 16.53125,64.125 15.941854,63.750116 15.808001,63.515956 15.78125,63.5 l 1.15625,-7.34375 a 1.933781,1.933781 0 0 0 0.03125,-0.1875 c 0.0056,0.0361 0.07383,-0.116091 0.5625,-0.4375 0.651561,-0.428545 1.775464,-0.927776 3.0625,-1.4375 2.574071,-1.019447 5.721861,-1.964685 7.96875,-3.8125 A 1.933781,1.933781 0 0 0 29.25,49.125 c 0.272547,-1.5751 0.288481,-2.99207 0.15625,-4.34375 A 1.933781,1.933781 0 0 0 29,43.8125 c -0.596329,-0.788013 -1.220398,-1.641045 -1.71875,-2.375 -0.498352,-0.733955 -0.849156,-1.454395 -0.875,-1.53125 -0.06836,-0.331003 -0.10816,-0.614074 -0.1875,-1 a 1.933781,1.933781 0 0 0 -0.5,-0.9375 c -0.01653,-0.0179 -0.01533,0.01675 -0.03125,0 -0.0087,-0.0097 -0.02258,-0.02137 -0.03125,-0.03125 -0.237063,-0.269966 -0.456661,-0.606844 -0.625,-1 C 24.78789,36.369127 24.703128,35.783428 24.71875,35.5 A 1.933781,1.933781 0 0 0 25.375,33.875 c -0.04483,-0.531318 -0.05027,-1.068075 -0.0625,-1.625 0,-0.01051 -5.7e-5,-0.02076 0,-0.03125 0.01849,-3.419629 3.041595,-6.28125 7,-6.28125 z" />
      <path
         style="opacity:0.5;fill:#ffffff;fill-opacity:1;stroke:none;display:inline;enable-background:new"
         id="path3685"
         inkscape:connector-curvature="0"
         d="m 41.21875,32.625 c -0.02645,0.485999 -0.05593,0.992271 -0.09375,1.53125 0.02407,0.01791 0.04002,0.04212 0.0625,0.0625 0.02339,-0.326605 0.0525,-0.677257 0.0625,-0.96875 0,-0.211412 -0.01438,-0.417637 -0.03125,-0.625 z m -17.8125,0.125 c -0.01085,0.16665 -0.03125,0.330792 -0.03125,0.5 0.0055,0.238625 0.02541,0.542646 0.03125,0.8125 0.01258,-0.0075 0.01829,-0.0244 0.03125,-0.03125 C 23.39803,33.563434 23.41255,33.157889 23.40625,32.75 z m -0.59375,3.3125 c -0.121962,0.708058 0.02579,1.663452 0.4375,2.625 0.268552,0.627206 0.629875,1.149757 1,1.5625 0.01233,0.0138 0.05009,0.01781 0.0625,0.03125 0.08835,0.429754 0.143153,0.765245 0.25,1.25 0.330998,0.984301 1.701797,2.845887 2.90625,4.4375 0.02797,0.285885 0.04938,0.559041 0.0625,0.84375 0.01606,-0.625071 -0.0024,-1.229841 -0.0625,-1.84375 -1.204453,-1.591613 -2.575252,-3.453199 -2.90625,-4.4375 -0.106847,-0.484755 -0.16165,-0.820246 -0.25,-1.25 C 24.30009,39.26781 24.26233,39.2638 24.25,39.25 c -0.370125,-0.412743 -0.731448,-0.935294 -1,-1.5625 -0.242055,-0.565326 -0.383505,-1.112129 -0.4375,-1.625 z m 18.8125,0.03125 c -0.05765,0.498068 -0.199078,1.036913 -0.4375,1.59375 -0.238711,0.557516 -0.520377,1.014464 -0.84375,1.40625 -0.104596,0.484569 -0.177825,0.873183 -0.3125,1.4375 -0.366437,1.089679 -1.779927,3.231835 -2.875,4.90625 -0.04249,0.670362 -0.05316,1.329983 -0.03125,2 0.0073,-0.334777 0.0099,-0.663902 0.03125,-1 1.095073,-1.674415 2.508563,-3.816571 2.875,-4.90625 0.134675,-0.564317 0.207904,-0.952931 0.3125,-1.4375 0.323373,-0.391786 0.605039,-0.848734 0.84375,-1.40625 0.413359,-0.965404 0.558531,-1.900466 0.4375,-2.59375 z M 40.3125,51.625 c -0.199333,0.08082 -0.395703,0.171972 -0.59375,0.25 -1.804307,0.710874 -3.517862,1.413924 -4.9375,2.34375 -1.333242,0.873239 -2.570092,2.169674 -2.71875,3.96875 l -0.0625,0 -0.03125,0.3125 -1.5625,9.9375 A 2.008154,2.008154 0 0 0 30.375,68.75 c 0,0.205826 0.03497,0.399155 0.0625,0.59375 L 31.96875,59.5 32,59.1875 l 0.0625,0 c 0.148658,-1.799076 1.385508,-3.095511 2.71875,-3.96875 1.419638,-0.929826 3.133193,-1.632876 4.9375,-2.34375 C 40.309297,52.642332 40.9081,52.39173 41.5,52.15625 41.093764,51.98135 40.701955,51.806562 40.3125,51.625 z m -26.40625,12.4375 -0.0625,0.5 c 0,1.572284 2.353085,2.996001 6.125,3.96875 L 20.5,70.625 a 1.2971909,1.2858244 0 0 0 0.8125,0.875 c 0.16742,0.06421 0.291156,0.180459 0.75,0.3125 2.303676,0.662953 5.785982,1.113453 9.6875,1.15625 C 31.45433,72.650464 31.212708,72.302147 31,71.9375 27.410534,71.848087 24.214242,71.431729 22.0625,70.8125 21.603656,70.680459 21.47992,70.56421 21.3125,70.5 A 1.2971909,1.2858244 0 0 1 20.5,69.625 l -0.53125,-2.09375 c -3.372962,-0.869862 -5.626727,-2.093894 -6.0625,-3.46875 z" />
      <path
         style="opacity:0.15;fill:#000000;fill-opacity:1;stroke:none;display:inline;enable-background:new"
         id="path3694"
         inkscape:connector-curvature="0"
         d="m 32.3125,24 c -4.933563,0 -8.9375,3.685688 -8.9375,8.25 0.01199,0.523077 0.0076,1.130628 0.0625,1.78125 -0.780775,0.412576 -0.88394,2.029698 -0.1875,3.65625 0.268552,0.627206 0.629875,1.149757 1,1.5625 0.01233,0.0138 0.05009,0.01781 0.0625,0.03125 0.08835,0.429754 0.143153,0.765245 0.25,1.25 0.330998,0.984301 1.701797,2.845887 2.90625,4.4375 0.120114,1.227817 0.116663,2.415883 -0.125,3.8125 -3.466823,2.851074 -12.325789,4.142171 -12.3125,7.09375 l -1.1875,7.6875 c 0,1.572284 2.353085,2.996001 6.125,3.96875 L 20.5,69.625 a 1.2971909,1.2858244 0 0 0 0.8125,0.875 c 0.16742,0.06421 0.291156,0.180459 0.75,0.3125 2.303676,0.662953 5.785982,1.113453 9.6875,1.15625 C 30.927135,71.082944 30.375,70.026441 30.375,68.75 a 2.008154,2.008154 0 0 1 0.03125,-0.3125 L 31.96875,58.5 32,58.1875 l 0.0625,0 c 0.148658,-1.799076 1.385508,-3.095511 2.71875,-3.96875 1.419638,-0.929826 3.133193,-1.632876 4.9375,-2.34375 0.590547,-0.232668 1.18935,-0.48327 1.78125,-0.71875 -1.660729,-0.715005 -3.235377,-1.473512 -4.28125,-2.375 -0.138644,-1.130618 -0.133079,-2.230152 -0.0625,-3.34375 1.095073,-1.674415 2.508563,-3.816571 2.875,-4.90625 0.134675,-0.564317 0.207904,-0.952931 0.3125,-1.4375 0.323373,-0.391786 0.605039,-0.848734 0.84375,-1.40625 0.661375,-1.544647 0.611565,-3.029728 -0.0625,-3.53125 0.0471,-0.671165 0.105312,-1.332628 0.125,-1.90625 3e-6,-4.564313 -4.003938,-8.25 -8.9375,-8.25 z m 0,1 c 4.421507,0 7.919042,3.256214 7.9375,7.21875 4.9e-5,0.01052 0,0.02072 0,0.03125 -0.01921,0.527397 -0.07787,1.172234 -0.125,1.84375 a 1.0046731,1.0046731 0 0 0 0.40625,0.875 c -0.03445,-0.02563 0.11502,0.147981 0.125,0.59375 0.01,0.445769 -0.125006,1.061903 -0.40625,1.71875 -0.204342,0.477247 -0.425929,0.870591 -0.6875,1.1875 A 1.0046731,1.0046731 0 0 0 39.375,38.875 c -0.100381,0.465041 -0.167279,0.856748 -0.28125,1.34375 -0.0031,0.01319 -0.0281,0.01787 -0.03125,0.03125 -0.0032,0.0091 0.0035,0.05295 0,0.0625 -0.141228,0.383503 -0.561934,1.114788 -1.0625,1.9375 -0.522622,0.858962 -1.139004,1.786326 -1.6875,2.625 a 1.0046731,1.0046731 0 0 0 -0.15625,0.5 c -0.07301,1.15193 -0.08612,2.31931 0.0625,3.53125 a 1.0046731,1.0046731 0 0 0 0.34375,0.625 c 0.700607,0.603887 1.712128,1.005191 2.625,1.46875 -1.756489,0.693502 -3.47876,1.399095 -4.96875,2.375 -1.311609,0.85907 -2.495642,2.257456 -2.90625,4.09375 A 1.0046731,1.0046731 0 0 0 31,58.09375 l -0.03125,0.25 0,0.0625 -1.5625,9.875 a 1.0046731,1.0046731 0 0 0 0.0625,0.46875 l -0.09375,0 c 0,0.761393 0.190031,1.454949 0.46875,2.09375 -3.002163,-0.149133 -5.726445,-0.489606 -7.5,-1 -0.354383,-0.10198 -0.26484,-0.131134 -0.65625,-0.28125 a 1.0046731,1.0046731 0 0 0 -0.03125,0 c -0.04326,-0.01546 0.01102,0.01802 -0.03125,0 0.01042,-0.003 0.02056,-0.02099 0,-0.03125 -0.04112,-0.02051 0.0086,0.02294 -0.03125,0 -0.03839,-0.02528 0.0056,-0.0037 -0.03125,-0.03125 -0.0351,-0.0297 0.002,0.03176 -0.03125,0 -0.03326,-0.03176 0.0313,0.0025 0,-0.03125 -0.02922,-0.03553 -0.0042,0.006 -0.03125,-0.03125 -0.02236,-0.04023 0.0199,0.01026 0,-0.03125 -0.0099,-0.02076 -0.02809,-0.01052 -0.03125,0 -0.01735,-0.04264 0.01475,0.01237 0,-0.03125 L 20.9375,67.28125 A 1.0046731,1.0046731 0 0 0 20.21875,66.5625 c -1.820115,-0.469394 -3.270041,-1.041452 -4.1875,-1.625 -0.895201,-0.569391 -1.143475,-1.05589 -1.15625,-1.34375 l 1.15625,-7.5625 a 1.0046731,1.0046731 0 0 0 0,-0.15625 C 16.030192,55.639946 16.237324,55.251628 17,54.75 c 0.762676,-0.501628 1.945581,-1.014642 3.25,-1.53125 2.608838,-1.033217 5.718567,-2.011324 7.71875,-3.65625 a 1.0046731,1.0046731 0 0 0 0.375,-0.625 c 0.257708,-1.489346 0.251409,-2.770331 0.125,-4.0625 a 1.0046731,1.0046731 0 0 0 -0.1875,-0.5 c -0.599162,-0.791758 -1.234217,-1.646624 -1.75,-2.40625 -0.491245,-0.723488 -0.88443,-1.354468 -1,-1.65625 -0.005,-0.02264 0.0048,-0.04048 0,-0.0625 -0.0022,-0.0062 -0.02929,-0.02543 -0.03125,-0.03125 -0.08689,-0.405755 -0.133438,-0.710025 -0.21875,-1.125 a 1.0046731,1.0046731 0 0 0 -0.21875,-0.5 c -0.06865,-0.07435 -0.04352,-0.02163 -0.09375,-0.0625 -0.291215,-0.333471 -0.571467,-0.760049 -0.78125,-1.25 -0.293741,-0.68604 -0.431823,-1.348542 -0.40625,-1.8125 0.02557,-0.463958 0.197807,-0.600972 0.125,-0.5625 A 1.0046731,1.0046731 0 0 0 24.4375,33.9375 C 24.38829,33.354345 24.38675,32.787751 24.375,32.25 c 0,-0.01053 -4.9e-5,-0.02073 0,-0.03125 C 24.393461,28.256214 27.890992,25 32.3125,25 z" />
    </g>
  </g>
</svg>
