<?xml version="1.0" encoding="UTF-8" standalone="no"?>
<!-- Created with Inkscape (http://www.inkscape.org/) -->

<svg
   xmlns:dc="http://purl.org/dc/elements/1.1/"
   xmlns:cc="http://creativecommons.org/ns#"
   xmlns:rdf="http://www.w3.org/1999/02/22-rdf-syntax-ns#"
   xmlns:svg="http://www.w3.org/2000/svg"
   xmlns="http://www.w3.org/2000/svg"
   xmlns:xlink="http://www.w3.org/1999/xlink"
   xmlns:sodipodi="http://sodipodi.sourceforge.net/DTD/sodipodi-0.dtd"
   xmlns:inkscape="http://www.inkscape.org/namespaces/inkscape"
   version="1.0"
   width="78"
   height="78"
   id="svg2408"
   inkscape:version="0.47 r22583"
   sodipodi:docname="alert_warning.svg"
   inkscape:export-filename="/home/francesco/neo_freerunner/qtmoko/faenqomod/svg/faenqomod_pics/alert_warning.png"
   inkscape:export-xdpi="90"
   inkscape:export-ydpi="90">
  <sodipodi:namedview
     pagecolor="#ffffff"
     bordercolor="#666666"
     borderopacity="1"
     objecttolerance="10"
     gridtolerance="10"
     guidetolerance="10"
     inkscape:pageopacity="0"
     inkscape:pageshadow="2"
     inkscape:window-width="1366"
     inkscape:window-height="709"
     id="namedview65"
     showgrid="false"
     borderlayer="true"
     inkscape:showpageshadow="false"
     inkscape:zoom="2.5104167"
     inkscape:cx="-3.5850622"
     inkscape:cy="48"
     inkscape:window-x="0"
     inkscape:window-y="25"
     inkscape:window-maximized="1"
     inkscape:current-layer="svg2408" />
  <defs
     id="defs2410">
    <inkscape:perspective
       sodipodi:type="inkscape:persp3d"
       inkscape:vp_x="0 : 48 : 1"
       inkscape:vp_y="0 : 1000 : 0"
       inkscape:vp_z="96 : 48 : 1"
       inkscape:persp3d-origin="48 : 32 : 1"
       id="perspective67" />
    <linearGradient
       id="linearGradient3731">
      <stop
         id="stop3733"
         style="stop-color:#dcdcdc;stop-opacity:1"
         offset="0" />
      <stop
         id="stop3757"
         style="stop-color:#ebebeb;stop-opacity:1"
         offset="0.30654153" />
      <stop
         id="stop3737"
         style="stop-color:#ffffff;stop-opacity:1"
         offset="0.70706075" />
      <stop
         id="stop3759"
         style="stop-color:#fafafa;stop-opacity:1"
         offset="0.84501493" />
      <stop
         id="stop3735"
         style="stop-color:#f0f0f0;stop-opacity:1"
         offset="1" />
    </linearGradient>
    <linearGradient
       id="linearGradient2881">
      <stop
         id="stop2883"
         style="stop-color:#df880b;stop-opacity:1"
         offset="0" />
      <stop
         id="stop2885"
         style="stop-color:#f7c15a;stop-opacity:1"
         offset="1" />
    </linearGradient>
    <linearGradient
       x1="45.447727"
       y1="92.539597"
       x2="45.447727"
       y2="7.0165396"
       id="ButtonShadow"
       gradientUnits="userSpaceOnUse"
       gradientTransform="scale(1.0058652,0.994169)">
      <stop
         id="stop3750"
         style="stop-color:#000000;stop-opacity:1"
         offset="0" />
      <stop
         id="stop3752"
         style="stop-color:#000000;stop-opacity:0.58823532"
         offset="1" />
    </linearGradient>
    <linearGradient
       id="linearGradient3737">
      <stop
         id="stop3739"
         style="stop-color:#ffffff;stop-opacity:1"
         offset="0" />
      <stop
         id="stop3741"
         style="stop-color:#ffffff;stop-opacity:0"
         offset="1" />
    </linearGradient>
    <filter
       color-interpolation-filters="sRGB"
       id="filter3174">
      <feGaussianBlur
         id="feGaussianBlur3176"
         stdDeviation="1.71" />
    </filter>
    <linearGradient
       x1="36.357143"
       y1="6"
       x2="36.357143"
       y2="63.893143"
       id="linearGradient3188"
       xlink:href="#linearGradient3737"
       gradientUnits="userSpaceOnUse" />
    <filter
       x="-0.192"
       y="-0.192"
       width="1.3839999"
       height="1.3839999"
       color-interpolation-filters="sRGB"
       id="filter3794">
      <feGaussianBlur
         id="feGaussianBlur3796"
         stdDeviation="5.28" />
    </filter>
    <linearGradient
       x1="48"
       y1="20.220806"
       x2="48"
       y2="138.66119"
       id="linearGradient3613"
       xlink:href="#linearGradient3737"
       gradientUnits="userSpaceOnUse" />
    <radialGradient
       cx="48"
       cy="90.171875"
       r="42"
       fx="48"
       fy="90.171875"
       id="radialGradient3619"
       xlink:href="#linearGradient3737"
       gradientUnits="userSpaceOnUse"
       gradientTransform="matrix(1.1573129,0,0,0.99590774,-7.5510206,0.19713193)" />
    <clipPath
       id="clipPath3613">
      <rect
         width="84"
         height="84"
         rx="6"
         ry="6"
         x="6"
         y="6"
         id="rect3615"
         style="fill:#ffffff;fill-opacity:1;fill-rule:nonzero;stroke:none" />
    </clipPath>
    <linearGradient
       x1="48"
       y1="90"
       x2="48"
       y2="5.9877172"
       id="linearGradient3617"
       xlink:href="#linearGradient2881"
       gradientUnits="userSpaceOnUse" />
    <linearGradient
       x1="48.082497"
       y1="75.561722"
       x2="46.654823"
       y2="16.972879"
       id="linearGradient3707"
       xlink:href="#linearGradient3731"
       gradientUnits="userSpaceOnUse"
       gradientTransform="translate(0,1)" />
    <linearGradient
       x1="45.447727"
       y1="92.539597"
       x2="45.447727"
       y2="7.0165396"
       id="ButtonShadow-0"
       gradientUnits="userSpaceOnUse"
       gradientTransform="matrix(1.0058652,0,0,0.994169,100,0)">
      <stop
         id="stop3750-8"
         style="stop-color:#000000;stop-opacity:1"
         offset="0" />
      <stop
         id="stop3752-5"
         style="stop-color:#000000;stop-opacity:0.58823532"
         offset="1" />
    </linearGradient>
    <linearGradient
       x1="32.251034"
       y1="6.1317081"
       x2="32.251034"
       y2="90.238609"
       id="linearGradient3780"
       xlink:href="#ButtonShadow-0"
       gradientUnits="userSpaceOnUse"
       gradientTransform="matrix(1.0238095,0,0,1.0119048,-1.1428571,-98.071429)" />
    <linearGradient
       x1="32.251034"
       y1="6.1317081"
       x2="32.251034"
       y2="90.238609"
       id="linearGradient3772"
       xlink:href="#ButtonShadow-0"
       gradientUnits="userSpaceOnUse"
       gradientTransform="matrix(1.0238095,0,0,1.0119048,-1.1428571,-98.071429)" />
    <linearGradient
       x1="32.251034"
       y1="6.1317081"
       x2="32.251034"
       y2="90.238609"
       id="linearGradient3725"
       xlink:href="#ButtonShadow-0"
       gradientUnits="userSpaceOnUse"
       gradientTransform="matrix(1.0238095,0,0,1.0119048,-1.1428571,-98.071429)" />
    <linearGradient
       x1="32.251034"
       y1="6.1317081"
       x2="32.251034"
       y2="90.238609"
       id="linearGradient3721"
       xlink:href="#ButtonShadow-0"
       gradientUnits="userSpaceOnUse"
       gradientTransform="translate(0,-97)" />
    <linearGradient
       x1="32.251034"
       y1="6.1317081"
       x2="32.251034"
       y2="90.238609"
       id="linearGradient2918"
       xlink:href="#ButtonShadow-0"
       gradientUnits="userSpaceOnUse"
       gradientTransform="matrix(1.0238095,0,0,1.0119048,-1.1428571,-98.071429)" />
    <linearGradient
       inkscape:collect="always"
       xlink:href="#linearGradient3731"
       id="linearGradient2880"
       gradientUnits="userSpaceOnUse"
       gradientTransform="translate(0,1)"
       x1="48.082497"
       y1="75.561722"
       x2="46.654823"
       y2="16.972879" />
    <linearGradient
       inkscape:collect="always"
       xlink:href="#ButtonShadow-0"
       id="linearGradient2906"
       gradientUnits="userSpaceOnUse"
       gradientTransform="matrix(1.0238095,0,0,1.0119048,-1.1428571,-98.071429)"
       x1="32.251034"
       y1="6.1317081"
       x2="32.251034"
       y2="90.238609" />
    <linearGradient
       inkscape:collect="always"
       xlink:href="#ButtonShadow-0"
       id="linearGradient2908"
       gradientUnits="userSpaceOnUse"
       gradientTransform="matrix(1.0238095,0,0,1.0119048,-1.1428571,-98.071429)"
       x1="32.251034"
       y1="6.1317081"
       x2="32.251034"
       y2="90.238609" />
    <linearGradient
       inkscape:collect="always"
       xlink:href="#ButtonShadow-0"
       id="linearGradient2910"
       gradientUnits="userSpaceOnUse"
       gradientTransform="matrix(1.0238095,0,0,1.0119048,-1.1428571,-98.071429)"
       x1="32.251034"
       y1="6.1317081"
       x2="32.251034"
       y2="90.238609" />
    <linearGradient
       inkscape:collect="always"
       xlink:href="#ButtonShadow-0"
       id="linearGradient2912"
       gradientUnits="userSpaceOnUse"
       gradientTransform="matrix(1.0238095,0,0,1.0119048,-1.1428571,-98.071429)"
       x1="32.251034"
       y1="6.1317081"
       x2="32.251034"
       y2="90.238609" />
    <linearGradient
       inkscape:collect="always"
       xlink:href="#ButtonShadow-0"
       id="linearGradient2914"
       gradientUnits="userSpaceOnUse"
       gradientTransform="translate(0,-97)"
       x1="32.251034"
       y1="6.1317081"
       x2="32.251034"
       y2="90.238609" />
    <linearGradient
       inkscape:collect="always"
       xlink:href="#linearGradient2881"
       id="linearGradient2916"
       gradientUnits="userSpaceOnUse"
       x1="48"
       y1="90"
       x2="48"
       y2="5.9877172" />
    <linearGradient
       inkscape:collect="always"
       xlink:href="#linearGradient3737"
       id="linearGradient2919"
       gradientUnits="userSpaceOnUse"
       x1="36.357143"
       y1="6"
       x2="36.357143"
       y2="63.893143" />
    <radialGradient
       inkscape:collect="always"
       xlink:href="#linearGradient3737"
       id="radialGradient2921"
       gradientUnits="userSpaceOnUse"
       gradientTransform="matrix(1.1573129,0,0,0.99590774,-7.5510206,0.19713193)"
       cx="48"
       cy="90.171875"
       fx="48"
       fy="90.171875"
       r="42" />
    <linearGradient
       inkscape:collect="always"
       xlink:href="#linearGradient3737"
       id="linearGradient2923"
       gradientUnits="userSpaceOnUse"
       x1="48"
       y1="20.220806"
       x2="48"
       y2="138.66119" />
    <linearGradient
       inkscape:collect="always"
       xlink:href="#linearGradient3731"
       id="linearGradient2925"
       gradientUnits="userSpaceOnUse"
       gradientTransform="translate(0,1)"
       x1="48.082497"
       y1="75.561722"
       x2="46.654823"
       y2="16.972879" />
    <linearGradient
       inkscape:collect="always"
       xlink:href="#linearGradient3731"
       id="linearGradient2929"
       gradientUnits="userSpaceOnUse"
       gradientTransform="matrix(0.84725051,0,0,0.84725051,-1.6680245,-2.0916497)"
       x1="48.082497"
       y1="75.561722"
       x2="46.654823"
       y2="16.972879" />
    <linearGradient
       inkscape:collect="always"
       xlink:href="#linearGradient3731"
       id="linearGradient2957"
       gradientUnits="userSpaceOnUse"
       gradientTransform="matrix(0.84725051,0,0,0.84725051,-1.6680245,-2.0916497)"
       x1="48.082497"
       y1="75.561722"
       x2="46.654823"
       y2="16.972879" />
  </defs>
  <metadata
     id="metadata2413">
    <rdf:RDF>
      <cc:Work
         rdf:about="">
        <dc:format>image/svg+xml</dc:format>
        <dc:type
           rdf:resource="http://purl.org/dc/dcmitype/StillImage" />
        <dc:title></dc:title>
      </cc:Work>
    </rdf:RDF>
  </metadata>
  <g
     id="layer2"
     style="display:none"
     transform="translate(0,-18)">
    <rect
       width="86"
       height="85"
       rx="6"
       ry="6"
       x="5"
       y="7"
       id="rect3745"
       style="opacity:0.9;fill:url(#ButtonShadow);fill-opacity:1;fill-rule:nonzero;stroke:none;filter:url(#filter3174)" />
  </g>
  <g
     id="g2959">
    <g
       transform="matrix(0.84725051,0,0,0.84725051,-1.6680245,-2.9389002)"
       style="display:inline"
       id="layer4">
      <path
         style="opacity:0.07999998;fill:url(#linearGradient2906);fill-opacity:1;fill-rule:nonzero;stroke:none;display:inline"
         id="path3786"
         transform="scale(1,-1)"
         d="m 12,-95.03125 c -5.5110903,0 -10.03125,4.52016 -10.03125,10.03125 l 0,71 c 0,5.5110902 4.5201598,10.03125 10.03125,10.03125 l 72,0 c 5.51109,0 10.03125,-4.5201597 10.03125,-10.03125 l 0,-71 c 0,-5.51109 -4.52016,-10.03125 -10.03125,-10.03125 l -72,0 z" />
      <path
         style="opacity:0.1;fill:url(#linearGradient2908);fill-opacity:1;fill-rule:nonzero;stroke:none;display:inline"
         id="path3778"
         transform="scale(1,-1)"
         d="m 12,-94.03125 c -4.971633,0 -9.03125,4.059617 -9.03125,9.03125 l 0,71 c 0,4.9716329 4.0596171,9.03125 9.03125,9.03125 l 72,0 c 4.971633,0 9.03125,-4.059617 9.03125,-9.03125 l 0,-71 c 0,-4.971633 -4.059617,-9.03125 -9.03125,-9.03125 l -72,0 z" />
      <path
         style="opacity:0.2;fill:url(#linearGradient2910);fill-opacity:1;fill-rule:nonzero;stroke:none;display:inline"
         id="path3770"
         transform="scale(1,-1)"
         d="m 12,-93 c -4.4091333,0 -8,3.590867 -8,8 l 0,71 c 0,4.4091333 3.5908667,8 8,8 l 72,0 c 4.409133,0 8,-3.5908667 8,-8 l 0,-71 c 0,-4.409133 -3.590867,-8 -8,-8 l -72,0 z" />
      <rect
         style="opacity:0.3;fill:url(#linearGradient2912);fill-opacity:1;fill-rule:nonzero;stroke:none;display:inline"
         id="rect3723"
         transform="scale(1,-1)"
         y="-92"
         x="5"
         ry="7"
         rx="7"
         height="85"
         width="86" />
      <rect
         style="opacity:0.45;fill:url(#linearGradient2914);fill-opacity:1;fill-rule:nonzero;stroke:none;display:inline"
         id="rect3716"
         transform="scale(1,-1)"
         y="-91"
         x="6"
         ry="6"
         rx="6"
         height="84"
         width="84" />
    </g>
    <g
       transform="matrix(0.84725051,0,0,0.84725051,-1.6680245,-2.9389002)"
       style="display:inline"
       id="layer1">
      <rect
         style="fill:url(#linearGradient2916);fill-opacity:1;fill-rule:nonzero;stroke:none"
         id="rect2419"
         y="6"
         x="6"
         ry="6"
         rx="6"
         height="84"
         width="84" />
      <path
         style="opacity:0.5;fill:url(#linearGradient2919);fill-opacity:1;fill-rule:nonzero;stroke:none"
         id="rect3728"
         inkscape:connector-curvature="0"
         d="M 12,6 C 8.676,6 6,8.676 6,12 l 0,2 0,68 0,2 c 0,0.334721 0.04135,0.6507 0.09375,0.96875 0.0487,0.295596 0.09704,0.596915 0.1875,0.875 0.00988,0.03038 0.020892,0.0636 0.03125,0.09375 0.098865,0.287771 0.2348802,0.547452 0.375,0.8125 0.1445918,0.273507 0.3156161,0.535615 0.5,0.78125 0.1843839,0.245635 0.3737765,0.473472 0.59375,0.6875 0.439947,0.428056 0.94291,0.814526 1.5,1.09375 0.278545,0.139612 0.5734731,0.246947 0.875,0.34375 -0.2562018,-0.100222 -0.4867109,-0.236272 -0.71875,-0.375 -0.00741,-0.0044 -0.023866,0.0045 -0.03125,0 -0.031933,-0.0193 -0.062293,-0.04251 -0.09375,-0.0625 -0.120395,-0.0767 -0.2310226,-0.163513 -0.34375,-0.25 -0.1061728,-0.0808 -0.2132809,-0.161112 -0.3125,-0.25 C 8.4783201,88.557317 8.3087904,88.373362 8.15625,88.1875 8.0486711,88.057245 7.9378561,87.922215 7.84375,87.78125 7.818661,87.74287 7.805304,87.69538 7.78125,87.65625 7.716487,87.553218 7.6510225,87.451733 7.59375,87.34375 7.4927417,87.149044 7.3880752,86.928049 7.3125,86.71875 7.30454,86.69694 7.288911,86.6782 7.28125,86.65625 7.2494249,86.5643 7.2454455,86.469419 7.21875,86.375 7.1884177,86.268382 7.1483606,86.171969 7.125,86.0625 7.0521214,85.720988 7,85.364295 7,85 L 7,83 7,15 7,13 C 7,10.218152 9.2181517,8 12,8 l 2,0 68,0 2,0 c 2.781848,0 5,2.218152 5,5 l 0,2 0,68 0,2 c 0,0.364295 -0.05212,0.720988 -0.125,1.0625 -0.04415,0.206893 -0.08838,0.397658 -0.15625,0.59375 -0.0077,0.02195 -0.0233,0.04069 -0.03125,0.0625 -0.06274,0.173739 -0.138383,0.367449 -0.21875,0.53125 -0.04158,0.0828 -0.07904,0.169954 -0.125,0.25 -0.0546,0.09721 -0.126774,0.18835 -0.1875,0.28125 -0.09411,0.140965 -0.204921,0.275995 -0.3125,0.40625 -0.143174,0.17445 -0.303141,0.346998 -0.46875,0.5 -0.01117,0.0102 -0.01998,0.02115 -0.03125,0.03125 -0.138386,0.125556 -0.285091,0.234436 -0.4375,0.34375 -0.102571,0.07315 -0.204318,0.153364 -0.3125,0.21875 -0.0074,0.0045 -0.02384,-0.0044 -0.03125,0 -0.232039,0.138728 -0.462548,0.274778 -0.71875,0.375 0.301527,-0.0968 0.596455,-0.204138 0.875,-0.34375 0.55709,-0.279224 1.060053,-0.665694 1.5,-1.09375 0.219973,-0.214028 0.409366,-0.441865 0.59375,-0.6875 0.184384,-0.245635 0.355408,-0.507743 0.5,-0.78125 0.14012,-0.265048 0.276135,-0.524729 0.375,-0.8125 0.01041,-0.03078 0.02133,-0.06274 0.03125,-0.09375 0.09046,-0.278085 0.1388,-0.579404 0.1875,-0.875 C 89.95865,84.6507 90,84.334721 90,84 l 0,-2 0,-68 0,-2 C 90,8.676 87.324,6 84,6 L 12,6 z" />
      <path
         style="opacity:0.2;fill:url(#radialGradient2921);fill-opacity:1;fill-rule:nonzero;stroke:none"
         id="path3615"
         inkscape:connector-curvature="0"
         d="M 12,90 C 8.676,90 6,87.324 6,84 L 6,82 6,14 6,12 c 0,-0.334721 0.04135,-0.6507 0.09375,-0.96875 0.0487,-0.295596 0.09704,-0.596915 0.1875,-0.875 C 6.29113,10.12587 6.302142,10.09265 6.3125,10.0625 6.411365,9.774729 6.5473802,9.515048 6.6875,9.25 6.8320918,8.976493 7.0031161,8.714385 7.1875,8.46875 7.3718839,8.223115 7.5612765,7.995278 7.78125,7.78125 8.221197,7.353194 8.72416,6.966724 9.28125,6.6875 9.559795,6.547888 9.8547231,6.440553 10.15625,6.34375 9.9000482,6.443972 9.6695391,6.580022 9.4375,6.71875 c -0.00741,0.0044 -0.023866,-0.0045 -0.03125,0 -0.031933,0.0193 -0.062293,0.04251 -0.09375,0.0625 -0.120395,0.0767 -0.2310226,0.163513 -0.34375,0.25 -0.1061728,0.0808 -0.2132809,0.161112 -0.3125,0.25 C 8.4783201,7.442683 8.3087904,7.626638 8.15625,7.8125 8.0486711,7.942755 7.9378561,8.077785 7.84375,8.21875 7.818661,8.25713 7.805304,8.30462 7.78125,8.34375 7.716487,8.446782 7.6510225,8.548267 7.59375,8.65625 7.4927417,8.850956 7.3880752,9.071951 7.3125,9.28125 7.30454,9.30306 7.288911,9.3218 7.28125,9.34375 7.2494249,9.4357 7.2454455,9.530581 7.21875,9.625 7.1884177,9.731618 7.1483606,9.828031 7.125,9.9375 7.0521214,10.279012 7,10.635705 7,11 l 0,2 0,68 0,2 c 0,2.781848 2.2181517,5 5,5 l 2,0 68,0 2,0 c 2.781848,0 5,-2.218152 5,-5 l 0,-2 0,-68 0,-2 C 89,10.635705 88.94788,10.279012 88.875,9.9375 88.83085,9.730607 88.78662,9.539842 88.71875,9.34375 88.71105,9.3218 88.69545,9.30306 88.6875,9.28125 88.62476,9.107511 88.549117,8.913801 88.46875,8.75 88.42717,8.6672 88.38971,8.580046 88.34375,8.5 88.28915,8.40279 88.216976,8.31165 88.15625,8.21875 88.06214,8.077785 87.951329,7.942755 87.84375,7.8125 87.700576,7.63805 87.540609,7.465502 87.375,7.3125 87.36383,7.3023 87.35502,7.29135 87.34375,7.28125 87.205364,7.155694 87.058659,7.046814 86.90625,6.9375 86.803679,6.86435 86.701932,6.784136 86.59375,6.71875 c -0.0074,-0.0045 -0.02384,0.0044 -0.03125,0 -0.232039,-0.138728 -0.462548,-0.274778 -0.71875,-0.375 0.301527,0.0968 0.596455,0.204138 0.875,0.34375 0.55709,0.279224 1.060053,0.665694 1.5,1.09375 0.219973,0.214028 0.409366,0.441865 0.59375,0.6875 0.184384,0.245635 0.355408,0.507743 0.5,0.78125 0.14012,0.265048 0.276135,0.524729 0.375,0.8125 0.01041,0.03078 0.02133,0.06274 0.03125,0.09375 0.09046,0.278085 0.1388,0.579404 0.1875,0.875 C 89.95865,11.3493 90,11.665279 90,12 l 0,2 0,68 0,2 c 0,3.324 -2.676,6 -6,6 l -72,0 z" />
    </g>
    <g
       transform="matrix(0.84725051,0,0,0.84725051,-1.6680245,-2.9389002)"
       style="display:inline"
       id="layer5">
      <rect
         style="opacity:0.1;fill:url(#linearGradient2923);fill-opacity:1;fill-rule:nonzero;stroke:#ffffff;stroke-width:0.5;stroke-linecap:round;stroke-linejoin:miter;stroke-miterlimit:4;stroke-opacity:1;stroke-dasharray:none;stroke-dashoffset:0;filter:url(#filter3794)"
         id="rect3171"
         clip-path="url(#clipPath3613)"
         y="15"
         x="15"
         ry="12"
         rx="12"
         height="66"
         width="66" />
    </g>
    <g
       transform="matrix(1.1069363,0,0,1.1069363,-4.1705149,-5.1999448)"
       id="g2947">
      <path
         style="opacity:0.05;fill:#000000;fill-opacity:1;stroke:none;display:inline"
         id="path3724"
         inkscape:connector-curvature="0"
         d="m 39,9.5580448 c -17.044057,0 -31.5600815,11.4849872 -31.5600815,26.4765782 0,8.542214 5.0140155,15.841515 12.1527495,20.572302 -0.132943,0.445082 -0.225867,0.880301 -0.529532,1.350305 -0.77937,1.206288 -1.806385,2.242754 -4.103869,2.912424 -0.0094,0.0027 -0.01699,-0.0027 -0.02648,0 -0.01445,0.0035 -0.01153,-0.0043 -0.02648,0 -0.05099,0.01448 -0.107863,0.02713 -0.105907,0.02648 0.0023,-7.71e-4 -0.09022,0.0368 -0.132383,0.05295 -0.01054,0.0041 -0.02704,0.02672 -0.02648,0.02648 l -0.105906,0.02648 a 1.0176796,1.0176796 0 0 0 -0.02648,0 l 0,0.02648 a 1.0176796,1.0176796 0 0 0 -0.05295,0 1.0176796,1.0176796 0 0 0 0,0.02648 1.0176796,1.0176796 0 0 0 -0.02648,0 1.0176796,1.0176796 0 0 0 -0.105906,0.05295 1.0176796,1.0176796 0 0 0 -0.07943,0.02648 c 0,0 -0.03647,0.05274 -0.07943,0.07943 a 1.0176796,1.0176796 0 0 0 -0.02648,0 c -0.01019,0.0064 -0.01644,0.02022 -0.02648,0.02648 -0.006,0.0037 -0.02066,-0.0036 -0.02648,0 2.63e-4,-0.0014 -0.02494,3.84e-4 -0.02648,0 -0.0096,0.0047 0.0054,0.02374 0,0.02648 -0.0054,0.0027 -0.02166,-0.0025 -0.02648,0 -0.01466,0.0066 -0.01169,-0.0019 -0.05295,0.02648 a 1.0176796,1.0176796 0 0 0 -0.05295,0.02648 c -0.01914,0.01322 -0.0027,0.0086 -0.02648,0.02648 -0.07065,0.04239 -0.01572,0.0252 -0.05295,0.05295 2.17e-4,-0.0014 -0.02489,3.51e-4 -0.02648,0 a 1.0176796,1.0176796 0 0 0 -0.05295,0.05295 c -0.01806,0.01128 0.0031,0.0053 -0.02648,0.02648 -0.01887,0.01345 -0.0021,-0.0183 -0.02648,0 a 1.0176796,1.0176796 0 0 0 -0.05295,0.02648 c -1.69e-4,8.36e-4 -0.003,0.02815 0,0.02648 0.0031,-0.0017 -0.02965,0.002 -0.02648,0 a 1.0176796,1.0176796 0 0 0 -0.185336,0.15886 c 0,0 -0.03325,0.05331 -0.07943,0.105906 -0.02309,0.0263 -0.0603,0.03102 -0.07943,0.05295 -0.0047,0.0055 0.0043,0.02155 0,0.02648 -0.0043,0.0049 -0.0225,-0.0046 -0.02648,0 -9.32e-4,5.62e-4 0.0022,0.02475 0,0.02648 -0.0064,0.006 0.0062,0.02075 0,0.02648 a 1.0176796,1.0176796 0 0 0 -0.02648,0.02648 1.0176796,1.0176796 0 0 0 -0.02648,0 c -0.0044,0.0041 0.0036,0.02317 0,0.02648 a 1.0176796,1.0176796 0 0 0 -0.02648,0 c -0.0025,0.0023 0.0014,0.02519 0,0.02648 -0.0015,0.0014 -0.02648,-5e-6 -0.02648,0 a 1.0176796,1.0176796 0 0 0 -0.05295,0.05295 c 0,0 -0.0462,0.05964 -0.07943,0.105906 -0.01661,0.02314 -0.01185,0.03237 -0.02648,0.05295 -0.0041,0.0058 -0.0286,0.03144 -0.02648,0.02648 a 1.0176796,1.0176796 0 0 0 -0.02648,0.02648 1.0176796,1.0176796 0 0 0 0,0.02648 c -0.0098,0.01543 0.0047,-0.02562 -0.02648,0.02648 a 1.0176796,1.0176796 0 0 0 -0.02648,0.02648 c 0.0032,-0.0046 0.0044,0.01271 0,0.02648 -0.0056,0.0085 -0.02046,-0.0095 -0.02648,0 -0.0051,0.0077 0.0047,0.01862 0,0.02648 a 1.0176796,1.0176796 0 0 0 -0.05295,0.05295 1.0176796,1.0176796 0 0 0 -0.05295,0.105906 c -0.0018,0.0033 1.2e-5,0.02644 0,0.02648 -0.0066,0.01486 -0.03132,0.05737 -0.05295,0.105907 -0.01307,0.02933 -0.01581,0.05538 -0.02648,0.07943 -0.01067,0.02405 -0.0052,-0.03996 -0.05295,0.07943 0.08801,-0.220044 0.04962,-0.137259 -0.02648,0.05295 -0.0086,0.01796 -0.01888,0.0075 -0.02648,0.02648 -0.0068,0.01698 0.0058,0.01002 0,0.02648 l -0.05295,0.132382 a 1.0176796,1.0176796 0 0 0 -0.05295,0.264766 1.0176796,1.0176796 0 0 0 0,0.02648 c -0.0069,0.0093 -0.05295,0.05294 -0.05295,0.05295 -0.0047,0.02335 0.0034,0.0066 0,0.02648 -0.0023,0.0095 0.0019,0.01678 0,0.02648 -0.0036,0.01373 -0.0237,0.01258 -0.02648,0.02648 -0.0036,0.01782 0.0027,0.0099 0,0.02648 l -0.02648,0.132383 a 1.0176796,1.0176796 0 0 0 0,0.02648 c -0.0047,0.02322 0.0034,0.0067 0,0.02648 -0.0023,0.0095 0.0019,0.01678 0,0.02648 -0.0039,0.01963 0.0028,0.0097 0,0.02648 -0.0012,0.0055 -0.02537,-0.0055 -0.02648,0 -0.02148,0.107378 -8.47e-4,0.09663 0,0.15886 a 1.0176796,1.0176796 0 0 0 -0.02648,0.264766 l 0,0.158859 a 1.0176796,1.0176796 0 0 0 0,0.07943 1.0176796,1.0176796 0 0 0 0,0.02648 l 0,0.02648 a 1.0176796,1.0176796 0 0 0 0,0.07943 1.0176796,1.0176796 0 0 0 0,0.05295 c 0,0 -0.0065,0.05296 0,0.105906 0.0032,0.02648 0.02353,0.02977 0.02648,0.05295 0.003,0.02318 -0.04167,-0.07595 0,0.132383 0.0028,0.01395 0.02294,0.01269 0.02648,0.02648 0.0021,0.0083 -0.0024,0.0182 0,0.02648 0.0034,0.01982 -0.0047,0.0032 0,0.02648 a 1.0176796,1.0176796 0 0 0 0,0.02648 l 0.02648,0.132383 a 1.0176796,1.0176796 0 0 0 0.105906,0.238289 1.0176796,1.0176796 0 0 0 0,0.02648 c -6.02e-4,0.01403 -2e-6,0.07942 0,0.07943 0.0076,0.01905 0.01783,0.0085 0.02648,0.02648 0.0086,0.01801 0.01699,0.0095 0.02648,0.02648 -1.13e-4,-9.32e-4 -0.0027,0.01732 0,0.02648 a 1.0176796,1.0176796 0 0 0 0,0.02648 l 0.05295,0.132383 a 1.0176796,1.0176796 0 0 0 0,0.02648 c 0.0076,0.01897 0.01786,0.0085 0.02648,0.02648 0.0086,0.01795 0.017,0.0095 0.02648,0.02648 0.0037,0.0076 -0.0041,0.01893 0,0.02648 a 1.0176796,1.0176796 0 0 0 0,0.02648 1.0176796,1.0176796 0 0 0 0.02648,0.02648 1.0176796,1.0176796 0 0 0 0,0.02648 1.0176796,1.0176796 0 0 0 0.02648,0.02648 1.0176796,1.0176796 0 0 0 0.05295,0.105906 1.0176796,1.0176796 0 0 0 0,0.02648 1.0176796,1.0176796 0 0 0 0.02648,0.07943 l 0.07943,0.132382 c -0.0018,-0.003 0.107983,0.161648 0.105906,0.15886 l 0.07943,0.105906 a 1.0176796,1.0176796 0 0 0 0.211813,0.211813 1.0176796,1.0176796 0 0 0 0.05295,0.02648 c 0.02877,0.03283 -0.01348,0.013 0.02648,0.05295 a 1.0176796,1.0176796 0 0 0 0.07943,0.07943 c 0,0 0.02044,0.02688 0.05295,0.05295 0.0052,0.0042 0.0248,-0.0015 0.02648,0 l 0.02648,0.02648 c 0.0014,0.0015 0.01468,0.01734 0.02648,0.02648 a 1.0176796,1.0176796 0 0 0 0.02648,0.02648 c 3.7e-5,3.2e-5 0.02349,-0.002 0.02648,0 0.0019,0.0013 -0.0028,0.02459 0,0.02648 a 1.0176796,1.0176796 0 0 0 0.07943,0.07943 c 0.0028,0.0023 0.02275,-0.003 0.02648,0 0.01726,0.01198 0.0064,0.0247 0.07943,0.07943 0.01469,0.01112 0.0096,0.01384 0.02648,0.02648 0.03911,0.02933 0.02594,0.009 0.05295,0.02648 a 1.0176796,1.0176796 0 0 0 0.185336,0.132383 c 0,0 0.07373,0.02682 0.132383,0.05295 0.02933,0.01307 0.05538,0.01581 0.07943,0.02648 0.02405,0.01067 -0.04012,0.0052 0.07943,0.05295 -0.220328,-0.08812 -0.137159,-0.04959 0.05295,0.02648 0.01794,0.0086 0.0075,0.01889 0.02648,0.02648 0.01696,0.0068 0.01004,-0.0058 0.02648,0 l 0.132383,0.05295 0.132383,0.05295 a 1.0176796,1.0176796 0 0 0 0.264765,0.05295 c 0.0033,0.0024 0.02386,-0.0019 0.02648,0 0.0093,0.0068 0.05295,0.05295 0.05295,0.05295 0.02332,0.0047 0.0066,-0.0034 0.02648,0 0.0082,0.0024 0.01816,-0.0021 0.02648,0 0.01374,0.0036 0.01257,0.0237 0.02648,0.02648 0.01783,0.0036 0.0099,-0.0027 0.02648,0 l 0.132383,0.02648 a 1.0176796,1.0176796 0 0 0 0.15886,0 c -0.0019,-1.11e-4 0.107834,0 0.105906,0 -0.0014,0 0.04784,9.32e-4 0.07943,0 0.0095,0.001 0.01698,-9.32e-4 0.02648,0 -1.8e-5,6.96e-4 1.6e-5,0.02648 0,0.02648 l 0.02648,0 0.05295,0 0,-0.02648 c 8.263887,0.811925 14.163581,-2.660626 17.712831,-5.8778 1.771825,0.283602 3.588888,0.503055 5.533605,0.503055 17.044057,0 31.560081,-11.484988 31.560081,-26.476579 C 70.560081,21.043032 56.044057,9.5580448 39,9.5580448 z M 15.647658,67.594705 a 1.0176796,1.0176796 0 0 0 0.02648,0 l 0,0.132383 -0.02648,-0.132383 z" />
      <path
         style="opacity:0.05;fill:#000000;fill-opacity:1;stroke:none;display:inline"
         id="path3720"
         inkscape:connector-curvature="0"
         d="m 39,10.564155 c -16.588488,0 -30.5539715,11.139983 -30.5539715,25.470468 0,8.425869 5.0635305,15.666306 12.3645625,20.228106 -0.186379,0.706233 -0.369807,1.429575 -0.900204,2.250509 -0.873819,1.352472 -2.158789,2.605921 -4.686354,3.336049 -0.0091,0.0026 -0.01732,-0.0026 -0.02648,0 a 0.91739912,0.91739912 0 0 0 -0.15886,0.05295 l -0.132382,0.05295 0.344195,0.84725 c -0.178626,-0.422475 -0.364463,-0.849735 -0.370672,-0.84725 -0.01242,0.005 -0.0099,0.01986 -0.02648,0.02648 -0.01655,0.0066 -0.04058,0.02153 -0.05295,0.02648 -0.01237,0.0049 -0.02648,0 -0.02648,0 0,0 -0.201931,0.124971 -0.211813,0.132383 -0.0099,0.0074 -0.03971,0.01655 -0.05295,0.02648 0.01242,-0.0075 -0.05295,0.02648 -0.05295,0.02648 -0.0095,0.0057 -0.01905,0.02202 -0.02648,0.02648 -0.01238,0.0075 -0.02648,0 -0.02648,0 0,0 -0.0695,0.07198 -0.07943,0.07943 -0.0099,0.0075 -0.03971,0.01655 -0.05295,0.02648 -0.01324,0.0099 -0.01658,0.01905 -0.02648,0.02648 -0.0099,0.0075 -0.02648,0 -0.02648,0 0,0 -0.177933,0.201942 -0.185336,0.211813 -0.0074,0.0099 -0.01655,0.01323 -0.02648,0.02648 -0.0051,0.0051 0.0053,0.02118 0,0.02648 -0.0019,0.0025 -0.02466,-0.0024 -0.02648,0 -0.01125,0.01317 -0.02648,0.02648 -0.02648,0.02648 l -0.02648,0.02648 c 0,0 -0.124956,0.172958 -0.132383,0.185336 -0.0075,0.01238 -0.01655,0.0364 -0.02648,0.05295 -0.0099,0.01656 -0.01902,0.01406 -0.02648,0.02648 -0.0075,0.01242 -0.02648,0.02648 -0.02648,0.02648 -0.0036,0.0048 0.003,0.02252 0,0.02648 -0.0074,0.0099 -0.02648,0 -0.02648,0 0,0 -0.100958,0.225916 -0.105906,0.238289 -0.0049,0.01237 -0.01985,0.0364 -0.02648,0.05295 -0.0066,0.01656 -0.0215,0.01406 -0.02648,0.02648 -0.005,0.01242 0,0.02648 0,0.02648 l -0.05295,0.132383 0.847251,0.344195 0.873727,0.291242 c 0,0 -1.771459,-0.462465 -1.773931,-0.450101 -0.0025,0.01236 0.0033,0.03641 0,0.05295 -0.0033,0.01655 -0.02399,0.01406 -0.02648,0.02648 -0.0025,0.01242 0,0.02648 0,0.02648 l -0.02648,0.132383 0.608961,0.132383 c -0.274832,-0.04568 -0.608119,-0.110117 -0.608961,-0.105907 -0.0025,0.01243 0.0033,0.0364 0,0.05295 -0.0033,0.01656 -0.024,0.01412 -0.02648,0.02648 -0.0025,0.01236 0,0.02648 0,0.02648 l 0.900204,0.185336 -0.92668,0 0,0.158859 0.92668,0 c -0.458616,0.0078 -0.92668,0.02027 -0.92668,0.02648 l 0,0.05295 0,0.02648 0,0.02648 c 0,0 0.024,0.199438 0.02648,0.211813 0.0025,0.01238 0.02316,0.0099 0.02648,0.02648 0.0033,0.01656 -0.0025,0.04054 0,0.05295 0.0025,0.01241 0,0.02648 0,0.02648 l 0.02648,0.132383 0.900203,-0.185336 0.873727,-0.238289 c 0,0 -1.725927,0.596589 -1.720977,0.608961 0.0049,0.01237 0.01986,0.0099 0.02648,0.02648 0.0066,0.01655 0.02151,0.04053 0.02648,0.05295 0.005,0.01242 0,0.02648 0,0.02648 l 0.05295,0.132383 0.688391,-0.291242 c -0.338506,0.149473 -0.690456,0.312558 -0.688391,0.317719 0.005,0.01243 0.01985,0.0099 0.02648,0.02648 0.0066,0.01655 0.02153,0.04059 0.02648,0.05295 0.0049,0.01236 0,0.02648 0,0.02648 l 0.847251,-0.344195 -0.794298,0.476578 0.07943,0.132383 a 0.91739912,0.91739912 0 0 0 0.05295,0.07943 l 0.07943,0.105906 0.741344,-0.556008 0.714868,-0.582485 c 0,0 -1.360211,1.234494 -1.350306,1.244399 0.0099,0.0099 0.03971,0.01323 0.05295,0.02648 0.01324,0.01324 0.01655,0.04302 0.02648,0.05295 0,0 0.122502,0.0985 0.132383,0.105906 0.0099,0.0074 0.01323,0.01655 0.02648,0.02648 l 0.02648,0.02648 c 0.0066,0.0056 0.02229,-0.0036 0.02648,0 0.0062,0.0062 -0.0049,0.02153 0,0.02648 l 0.02648,0.02648 0.105907,0.07943 c 0.0099,0.0075 0.01323,0.01655 0.02648,0.02648 0.01324,0.0099 0.04306,0.01906 0.05295,0.02648 0.0099,0.0075 0,0.02648 0,0.02648 0,0 0.225933,0.100964 0.23829,0.105906 0.01235,0.0049 0.03641,0.01985 0.05295,0.02648 0.01655,0.0066 0.01404,0.0215 0.02648,0.02648 0.01244,0.005 0.02648,0 0.02648,0 l 0.132383,0.05295 0.132383,0.05295 0.344195,-0.847251 0.264766,-0.873727 c 0,0 -0.435999,1.771456 -0.423625,1.773931 0.01237,0.0025 0.03641,-0.0033 0.05295,0 0.01655,0.0033 0.01406,0.02399 0.02648,0.02648 0.01241,0.0025 0.02648,0 0.02648,0 l 0.132383,0.02648 a 0.91739912,0.91739912 0 0 0 0.105906,0 0.91739912,0.91739912 0 0 0 0.05295,0.02648 c -8.47e-4,-1.4e-5 0.08029,-1.4e-5 0.07943,0 l 0,-0.02648 c 8.257472,0.848673 14.047403,-2.751914 17.421589,-5.930753 1.876574,0.313108 3.80306,0.556008 5.824847,0.556008 16.588488,0 30.553971,-11.139984 30.553971,-25.470469 C 69.553971,21.704138 55.588488,10.564155 39,10.564155 z m 0,15.329939 c 0.422398,1.2e-5 0.518265,0.06297 0.688391,0.211812 a 2.5784366,2.5784366 0 0 0 0.105906,0.105907 c 0.01651,0.01296 0.0209,0.0084 0.02648,0 -0.0028,0.0095 -2e-6,0.04725 0,0.238289 l 0,12.338085 c -3e-6,0.424592 0.01886,0.262501 -0.07943,0.344196 a 2.5784366,2.5784366 0 0 0 -0.05295,0.05295 C 39.518276,39.334179 39.422344,39.397152 39,39.397149 c -0.369313,3e-6 -0.503461,-0.06703 -0.741344,-0.264766 -0.09829,-0.0817 -0.07943,0.08039 -0.07943,-0.344196 l 0,-12.338085 c 0,-0.191036 0.0028,-0.228809 0,-0.238289 0.0056,0.0084 0.01,0.01296 0.02648,0 a 2.5784366,2.5784366 0 0 0 0.05295,-0.05295 C 38.496554,25.961126 38.630629,25.894105 39,25.894094 z m 0.02648,21.181262 c 0.310726,2e-6 0.29303,-0.0076 0.503055,0.211813 a 2.5784366,2.5784366 0 0 0 0.02648,0.05295 c 0.252866,0.251012 0.264763,0.247707 0.264766,0.556008 -3e-6,0.308311 -0.01191,0.305012 -0.264766,0.556009 a 2.5784366,2.5784366 0 0 0 -0.02648,0.05295 c -0.210027,0.219451 -0.192343,0.211812 -0.503055,0.211812 -0.310731,0 -0.330878,-0.015 -0.582485,-0.264765 -0.252857,-0.250996 -0.264767,-0.247718 -0.264766,-0.556009 -10e-7,-0.308282 0.0119,-0.304997 0.264766,-0.556008 0.251605,-0.249755 0.271739,-0.264764 0.582485,-0.264766 z" />
      <path
         style="opacity:0.12000002;fill:#000000;fill-opacity:1;stroke:none;display:inline"
         id="path3716"
         inkscape:connector-curvature="0"
         d="m 39,11.490835 c -16.179827,0 -29.6272913,10.812187 -29.6272913,24.543788 0,8.313747 5.0964093,15.513329 12.5498983,19.910387 -0.192994,0.887438 -0.519541,1.949366 -1.244399,3.071283 -0.973519,1.506786 -2.496892,2.949645 -5.268839,3.733198 a 0.83560739,0.83560739 0 0 0 -0.02648,0 l -0.132383,0.05295 c 8.6e-5,-3.6e-5 -0.132465,0.053 -0.132383,0.05295 8.2e-5,-4.4e-5 -0.105984,0.07948 -0.105906,0.07943 7.8e-5,-5.1e-5 -0.132457,0.07949 -0.132383,0.07943 l -0.105906,0.07943 c 6.8e-5,-6.2e-5 -0.07949,0.105975 -0.07943,0.105907 6.3e-5,-6.9e-5 -0.105963,0.10598 -0.105906,0.105906 5.6e-5,-7.4e-5 -0.07948,0.132461 -0.07943,0.132383 5.1e-5,-7.8e-5 -0.07947,0.105988 -0.07943,0.105906 4.4e-5,-8.2e-5 -0.05299,0.132469 -0.05295,0.132383 l -0.05295,0.132383 c 3e-5,-8.8e-5 -0.0265,0.132474 -0.02648,0.132383 l -0.02648,0.132383 c 1.4e-5,-9.3e-5 -0.02648,0.132476 -0.02648,0.132383 l 0,0.158859 c -2e-6,-9.3e-5 9e-6,0.132475 0,0.132383 -9e-6,-9.2e-5 0.02649,0.132474 0.02648,0.132383 l 0.02648,0.132383 c -2.4e-5,-9e-5 0.05299,0.13247 0.05295,0.132383 l 0.05295,0.132383 c -3.9e-5,-8.5e-5 0.05299,0.132463 0.05295,0.132383 l 0.07943,0.132382 0.07943,0.105907 c -5.9e-5,-7.2e-5 0.105972,0.105973 0.105907,0.105906 -6.6e-5,-6.7e-5 0.105976,0.07949 0.105906,0.07943 -7e-5,-6.1e-5 0.105982,0.105961 0.105906,0.105906 l 0.105906,0.07943 c -7.9e-5,-4.8e-5 0.132466,0.05299 0.132383,0.05295 l 0.132383,0.05295 0.132383,0.05295 c -8.9e-5,-2.7e-5 0.132475,0.02649 0.132383,0.02648 l 0.132383,0.02648 a 0.83560739,0.83560739 0 0 0 0.02648,0 c 8.264612,0.898202 13.93909,-2.846102 17.156822,-5.983706 1.974725,0.347704 4.005776,0.582484 6.11609,0.582484 16.179827,0 29.627291,-10.812187 29.627291,-24.543788 C 68.627291,22.303022 55.179827,11.490835 39,11.490835 z m 0,13.556008 c 0.593349,1.6e-5 0.920098,0.139894 1.244399,0.423625 a 1.7336835,1.7336835 0 0 0 0.07943,0.05295 c 0.265357,0.208324 0.34419,0.314732 0.344195,0.92668 l 0,12.338085 c -5e-6,0.611997 -0.110108,0.767522 -0.397148,1.00611 a 1.7336835,1.7336835 0 0 0 -0.02648,0.02648 C 39.920106,40.104516 39.593313,40.244404 39,40.244399 c -0.546612,5e-6 -0.889971,-0.133487 -1.270876,-0.450102 -0.287046,-0.238588 -0.397149,-0.394121 -0.397148,-1.00611 l 0,-12.338085 c -10e-7,-0.61194 0.07883,-0.718354 0.344195,-0.92668 a 1.7336835,1.7336835 0 0 0 0.05295,-0.02648 C 38.110038,25.180341 38.453349,25.046859 39,25.046843 z m 0.02648,21.181263 c 0.515973,3e-6 0.762443,0.11132 1.112016,0.476578 a 1.7336835,1.7336835 0 0 0 0.02648,0.02648 c 0.389341,0.386484 0.50305,0.652884 0.503055,1.164969 -5e-6,0.512093 -0.113723,0.778498 -0.503055,1.16497 a 1.7336835,1.7336835 0 0 0 -0.02648,0.02648 c -0.349574,0.365262 -0.596053,0.476579 -1.112016,0.476579 -0.515979,0 -0.802952,-0.117416 -1.191446,-0.503055 -0.389337,-0.386471 -0.503056,-0.65289 -0.503055,-1.16497 -10e-7,-0.512072 0.113709,-0.778485 0.503055,-1.164969 0.388493,-0.385635 0.675456,-0.503052 1.191446,-0.503055 z" />
      <path
         style="opacity:0.23999999;fill:#000000;fill-opacity:1;stroke:none;display:inline"
         id="path3712"
         inkscape:connector-curvature="0"
         d="m 39,12.338086 c -15.809423,0 -28.780041,10.512954 -28.780041,23.696537 0,8.19012 5.081847,15.326177 12.655805,19.566192 -0.178362,1.010459 -0.551834,2.424828 -1.482689,3.86558 -1.063362,1.645844 -2.78753,3.24128 -5.745417,4.077393 a 0.83220426,0.83220426 0 0 0 0.158859,1.615072 c 8.210267,0.892295 13.764163,-2.961919 16.812628,-6.03666 2.057852,0.385046 4.180641,0.608961 6.380855,0.608961 15.809423,0 28.780041,-10.512955 28.780041,-23.696538 C 67.780041,22.85104 54.809423,12.338086 39,12.338086 z m 0,11.83503 c 0.774985,2.1e-5 1.338773,0.208389 1.826884,0.635438 a 0.83613325,0.83613325 0 0 0 0.05295,0.02648 c 0.477134,0.374584 0.661908,0.803997 0.661915,1.615071 l 0,12.338085 c -7e-6,0.811116 -0.2008,1.289215 -0.688392,1.694501 a 0.83613325,0.83613325 0 0 0 -0.02648,0 C 40.338776,40.909761 39.774968,41.118133 39,41.118126 c -0.734993,7e-6 -1.320498,-0.192511 -1.853361,-0.635438 -0.4876,-0.405286 -0.688392,-0.88339 -0.688391,-1.694501 l 0,-12.338085 c -10e-7,-0.811071 0.184772,-1.240486 0.661915,-1.615071 a 0.83613325,0.83613325 0 0 0 0.02648,-0.02648 C 37.679508,24.36565 38.264988,24.173137 39,24.173116 z m 0.02648,21.181263 c 0.734046,4e-6 1.249611,0.221163 1.747454,0.741344 a 0.83613325,0.83613325 0 0 0 0.02648,0 c 0.534343,0.530425 0.741337,1.071802 0.741345,1.800407 -8e-6,0.728612 -0.207006,1.269993 -0.741345,1.800408 a 0.83613325,0.83613325 0 0 0 -0.02648,0 c -0.497844,0.520184 -1.013412,0.741344 -1.747454,0.741344 -0.734057,0 -1.292947,-0.211331 -1.826884,-0.741344 -0.534348,-0.530414 -0.741346,-1.071802 -0.741345,-1.800408 -10e-7,-0.728599 0.206993,-1.269983 0.741345,-1.800407 0.533936,-0.530009 1.092823,-0.74134 1.826884,-0.741344 z" />
      <path
         style="fill:url(#linearGradient2957);fill-opacity:1;stroke:none;display:inline"
         id="path3620"
         inkscape:connector-curvature="0"
         d="m 39,12.311609 c -15.441477,0 -27.959267,10.241828 -27.959267,22.875764 0,8.047556 5.0833,15.117882 12.761711,19.195519 -0.291984,2.125543 -1.621649,7.328562 -7.916497,9.107943 8.15302,0.886074 13.567532,-3.089335 16.441955,-6.089613 2.138043,0.428286 4.372717,0.661915 6.672098,0.661915 15.441477,0 27.959267,-10.241829 27.959267,-22.875764 C 66.959267,22.553437 54.441477,12.311609 39,12.311609 z m 0,10.167006 c 0.944193,2.6e-5 1.742179,0.28669 2.382892,0.847251 0.67442,0.529468 1.006102,1.280411 1.00611,2.276985 l 0,12.338086 c -8e-6,0.996609 -0.33169,1.769361 -1.00611,2.329939 -0.640713,0.560595 -1.438699,0.847259 -2.382892,0.84725 -0.910483,9e-6 -1.708468,-0.286655 -2.382892,-0.84725 -0.674431,-0.560578 -1.006112,-1.33333 -1.00611,-2.329939 l 0,-12.338086 c -2e-6,-0.996574 0.331679,-1.747517 1.00611,-2.276985 C 37.291532,22.765305 38.089517,22.478641 39,22.478615 z m 0.02648,21.181263 c 0.937198,6e-6 1.720448,0.341606 2.356415,1.00611 0.669425,0.664515 1.006101,1.452582 1.00611,2.382892 -9e-6,0.930317 -0.336685,1.718384 -1.00611,2.382892 -0.635967,0.66451 -1.419217,1.00611 -2.356415,1.00611 -0.93721,0 -1.739941,-0.3416 -2.409369,-1.00611 -0.669435,-0.664508 -1.006112,-1.452575 -1.00611,-2.382892 -2e-6,-0.93031 0.336675,-1.718377 1.00611,-2.382892 0.669428,-0.664504 1.472159,-1.006104 2.409369,-1.00611 z" />
      <path
         style="opacity:0.8;fill:#ffffff;fill-opacity:1;stroke:none;display:inline"
         id="path3711"
         inkscape:connector-curvature="0"
         d="m 39,12.311609 c -15.441477,0 -27.959267,10.241828 -27.959267,22.875764 0,0.176574 0.02161,0.35392 0.02648,0.529531 C 11.816046,23.63004 24.04107,14.00611 39,14.00611 c 15.090466,0 27.381471,9.792014 27.93279,22.028513 0.01282,-0.284626 0.02648,-0.560059 0.02648,-0.84725 C 66.959267,22.553437 54.441477,12.311609 39,12.311609 z m -3.389002,25.629328 0,1.694501 c -2e-6,0.996609 0.331679,1.769361 1.00611,2.329939 0.674424,0.560595 1.472409,0.847259 2.382892,0.84725 0.944193,9e-6 1.742179,-0.286655 2.382892,-0.84725 0.67442,-0.560578 1.006102,-1.33333 1.00611,-2.329939 l 0,-1.694501 c -8e-6,0.996609 -0.33169,1.769361 -1.00611,2.329939 -0.640713,0.560595 -1.438699,0.847259 -2.382892,0.84725 -0.910483,9e-6 -1.708468,-0.286655 -2.382892,-0.84725 -0.674431,-0.560578 -1.006112,-1.33333 -1.00611,-2.329939 z m 0.105906,9.955193 c -0.06963,0.270594 -0.105907,0.547807 -0.105906,0.847251 -2e-6,0.930317 0.336675,1.718384 1.00611,2.382892 0.669428,0.66451 1.472159,1.00611 2.409369,1.00611 0.937198,0 1.720448,-0.3416 2.356415,-1.00611 0.669425,-0.664508 1.006101,-1.452575 1.00611,-2.382892 -3e-6,-0.299444 -0.03627,-0.576657 -0.105906,-0.847251 -0.146701,0.570086 -0.446251,1.085022 -0.900204,1.535642 -0.635967,0.66451 -1.419217,1.00611 -2.356415,1.00611 -0.93721,0 -1.739941,-0.3416 -2.409369,-1.00611 -0.45396,-0.45062 -0.753506,-0.965556 -0.900204,-1.535642 z m -12.232179,7.995927 c -0.668375,2.478914 -2.492702,6.15543 -7.598778,7.598778 1.218853,0.132466 2.371324,0.144766 3.468432,0.07943 3.347385,-2.317564 4.220504,-5.836303 4.448065,-7.492872 -0.109462,-0.05813 -0.209318,-0.125995 -0.317719,-0.185336 z" />
    </g>
  </g>
</svg>
