<?xml version="1.0" encoding="UTF-8" standalone="no"?>
<!-- Created with Inkscape (http://www.inkscape.org/) -->

<svg
   xmlns:dc="http://purl.org/dc/elements/1.1/"
   xmlns:cc="http://creativecommons.org/ns#"
   xmlns:rdf="http://www.w3.org/1999/02/22-rdf-syntax-ns#"
   xmlns:svg="http://www.w3.org/2000/svg"
   xmlns="http://www.w3.org/2000/svg"
   xmlns:xlink="http://www.w3.org/1999/xlink"
   xmlns:sodipodi="http://sodipodi.sourceforge.net/DTD/sodipodi-0.dtd"
   xmlns:inkscape="http://www.inkscape.org/namespaces/inkscape"
   version="1.0"
   width="128"
   height="128"
   id="svg2408"
   inkscape:version="0.47 r22583"
   sodipodi:docname="outbox.svg"
   inkscape:export-filename="/home/francesco/neo_freerunner/qtmoko/faenqomod/svg/faenqomod_pics/qtmail/icons/outbox.png"
   inkscape:export-xdpi="90"
   inkscape:export-ydpi="90">
  <sodipodi:namedview
     pagecolor="#ffffff"
     bordercolor="#666666"
     borderopacity="1"
     objecttolerance="10"
     gridtolerance="10"
     guidetolerance="10"
     inkscape:pageopacity="0"
     inkscape:pageshadow="2"
     inkscape:window-width="1280"
     inkscape:window-height="940"
     id="namedview107"
     showgrid="false"
     borderlayer="true"
     inkscape:showpageshadow="false"
     inkscape:zoom="2.5104167"
     inkscape:cx="22.553758"
     inkscape:cy="48"
     inkscape:window-x="0"
     inkscape:window-y="25"
     inkscape:window-maximized="1"
     inkscape:current-layer="svg2408" />
  <defs
     id="defs2410">
    <inkscape:perspective
       sodipodi:type="inkscape:persp3d"
       inkscape:vp_x="0 : 48 : 1"
       inkscape:vp_y="0 : 1000 : 0"
       inkscape:vp_z="96 : 48 : 1"
       inkscape:persp3d-origin="48 : 32 : 1"
       id="perspective109" />
    <linearGradient
       id="linearGradient4304">
      <stop
         id="stop4306"
         style="stop-color:#ffbb2f;stop-opacity:1;"
         offset="0" />
      <stop
         id="stop4308"
         style="stop-color:#de9b08;stop-opacity:1;"
         offset="0.68841588" />
      <stop
         id="stop4310"
         style="stop-color:#cc9110;stop-opacity:0"
         offset="1" />
    </linearGradient>
    <linearGradient
       id="linearGradient4226">
      <stop
         id="stop4228"
         style="stop-color:#000000;stop-opacity:1"
         offset="0" />
      <stop
         id="stop4230"
         style="stop-color:#000000;stop-opacity:0"
         offset="1" />
    </linearGradient>
    <linearGradient
       id="linearGradient4213">
      <stop
         id="stop4215"
         style="stop-color:#ffffff;stop-opacity:1"
         offset="0" />
      <stop
         id="stop4217"
         style="stop-color:#ffffff;stop-opacity:0"
         offset="1" />
    </linearGradient>
    <linearGradient
       id="linearGradient4081">
      <stop
         id="stop4083"
         style="stop-color:#000000;stop-opacity:1"
         offset="0" />
      <stop
         id="stop4085"
         style="stop-color:#000000;stop-opacity:0"
         offset="1" />
    </linearGradient>
    <linearGradient
       id="linearGradient4064">
      <stop
         id="stop4066"
         style="stop-color:#ffffff;stop-opacity:1"
         offset="0" />
      <stop
         id="stop4068"
         style="stop-color:#ffffff;stop-opacity:0"
         offset="1" />
    </linearGradient>
    <linearGradient
       id="linearGradient4052">
      <stop
         id="stop4054"
         style="stop-color:#969696;stop-opacity:0"
         offset="0" />
      <stop
         id="stop4056"
         style="stop-color:#acacac;stop-opacity:1"
         offset="0.125" />
      <stop
         id="stop4060"
         style="stop-color:#dedede;stop-opacity:0"
         offset="1" />
    </linearGradient>
    <linearGradient
       id="linearGradient4012">
      <stop
         id="stop4014"
         style="stop-color:#000000;stop-opacity:1"
         offset="0" />
      <stop
         id="stop4016"
         style="stop-color:#000000;stop-opacity:0"
         offset="1" />
    </linearGradient>
    <linearGradient
       id="linearGradient3999">
      <stop
         id="stop4001"
         style="stop-color:#000000;stop-opacity:1"
         offset="0" />
      <stop
         id="stop4003"
         style="stop-color:#000000;stop-opacity:0"
         offset="1" />
    </linearGradient>
    <linearGradient
       id="linearGradient4327">
      <stop
         id="stop4329"
         style="stop-color:#f0f0f0;stop-opacity:1"
         offset="0" />
      <stop
         id="stop4331"
         style="stop-color:#b4b4b4;stop-opacity:1"
         offset="1" />
    </linearGradient>
    <linearGradient
       id="linearGradient3322">
      <stop
         id="stop3324"
         style="stop-color:#7a7a7a;stop-opacity:1"
         offset="0" />
      <stop
         id="stop3326"
         style="stop-color:#f9f9f9;stop-opacity:1"
         offset="0.2032043" />
      <stop
         id="stop3328"
         style="stop-color:#c9c9c9;stop-opacity:1"
         offset="0.42969123" />
      <stop
         id="stop3330"
         style="stop-color:#dedede;stop-opacity:0"
         offset="1" />
    </linearGradient>
    <linearGradient
       id="linearGradient3273">
      <stop
         id="stop3275"
         style="stop-color:#7a7a7a;stop-opacity:1"
         offset="0" />
      <stop
         id="stop3281"
         style="stop-color:#f9f9f9;stop-opacity:1"
         offset="0.14636412" />
      <stop
         id="stop3283"
         style="stop-color:#c9c9c9;stop-opacity:1"
         offset="0.37253973" />
      <stop
         id="stop3277"
         style="stop-color:#dedede;stop-opacity:0"
         offset="1" />
    </linearGradient>
    <linearGradient
       x1="45.447727"
       y1="92.539597"
       x2="45.447727"
       y2="7.0165396"
       id="ButtonShadow"
       gradientUnits="userSpaceOnUse"
       gradientTransform="scale(1.0058652,0.994169)">
      <stop
         id="stop3750"
         style="stop-color:#000000;stop-opacity:1"
         offset="0" />
      <stop
         id="stop3752"
         style="stop-color:#000000;stop-opacity:0.58823532"
         offset="1" />
    </linearGradient>
    <linearGradient
       id="linearGradient3737">
      <stop
         id="stop3739"
         style="stop-color:#ffffff;stop-opacity:1"
         offset="0" />
      <stop
         id="stop3741"
         style="stop-color:#ffffff;stop-opacity:0"
         offset="1" />
    </linearGradient>
    <filter
       color-interpolation-filters="sRGB"
       id="filter3174">
      <feGaussianBlur
         id="feGaussianBlur3176"
         stdDeviation="1.71" />
    </filter>
    <linearGradient
       x1="36.357143"
       y1="6"
       x2="36.357143"
       y2="63.893143"
       id="linearGradient3188"
       xlink:href="#linearGradient3737"
       gradientUnits="userSpaceOnUse" />
    <linearGradient
       x1="6"
       y1="77.09375"
       x2="32"
       y2="77.09375"
       id="linearGradient3279"
       xlink:href="#linearGradient3322"
       gradientUnits="userSpaceOnUse" />
    <linearGradient
       x1="6"
       y1="77.09375"
       x2="32.030617"
       y2="77.09375"
       id="linearGradient3287"
       xlink:href="#linearGradient3273"
       gradientUnits="userSpaceOnUse"
       gradientTransform="matrix(-1,0,0,1,96.030615,0)" />
    <linearGradient
       x1="45.447727"
       y1="92.539597"
       x2="45.447727"
       y2="7.0165396"
       id="ButtonShadow-0"
       gradientUnits="userSpaceOnUse"
       gradientTransform="matrix(1.0058652,0,0,0.994169,100,0)">
      <stop
         id="stop3750-8"
         style="stop-color:#000000;stop-opacity:1"
         offset="0" />
      <stop
         id="stop3752-5"
         style="stop-color:#000000;stop-opacity:0.58823532"
         offset="1" />
    </linearGradient>
    <linearGradient
       x1="32.251034"
       y1="6.1317081"
       x2="32.251034"
       y2="90.238609"
       id="linearGradient3780"
       xlink:href="#ButtonShadow-0"
       gradientUnits="userSpaceOnUse"
       gradientTransform="matrix(1.0238095,0,0,1.0119048,-1.1428571,-98.071429)" />
    <linearGradient
       x1="32.251034"
       y1="6.1317081"
       x2="32.251034"
       y2="90.238609"
       id="linearGradient3772"
       xlink:href="#ButtonShadow-0"
       gradientUnits="userSpaceOnUse"
       gradientTransform="matrix(1.0238095,0,0,1.0119048,-1.1428571,-98.071429)" />
    <linearGradient
       x1="32.251034"
       y1="6.1317081"
       x2="32.251034"
       y2="90.238609"
       id="linearGradient3725"
       xlink:href="#ButtonShadow-0"
       gradientUnits="userSpaceOnUse"
       gradientTransform="matrix(1.0238095,0,0,1.0119048,-1.1428571,-98.071429)" />
    <linearGradient
       x1="32.251034"
       y1="6.1317081"
       x2="32.251034"
       y2="90.238609"
       id="linearGradient3721"
       xlink:href="#ButtonShadow-0"
       gradientUnits="userSpaceOnUse"
       gradientTransform="translate(0,-97)" />
    <linearGradient
       x1="32.251034"
       y1="6.1317081"
       x2="32.251034"
       y2="90.238609"
       id="linearGradient2918"
       xlink:href="#ButtonShadow-0"
       gradientUnits="userSpaceOnUse"
       gradientTransform="matrix(1.0238095,0,0,1.0119048,-1.1428571,-98.071429)" />
    <linearGradient
       x1="48"
       y1="8"
       x2="48"
       y2="64"
       id="linearGradient3964"
       xlink:href="#linearGradient4327"
       gradientUnits="userSpaceOnUse" />
    <linearGradient
       x1="6"
       y1="72.5"
       x2="48"
       y2="72.5"
       id="linearGradient4005"
       xlink:href="#linearGradient3999"
       gradientUnits="userSpaceOnUse"
       gradientTransform="matrix(-1,0,0,1,96,-1)" />
    <linearGradient
       x1="48"
       y1="80"
       x2="48"
       y2="-15"
       id="linearGradient4018"
       xlink:href="#linearGradient4012"
       gradientUnits="userSpaceOnUse"
       gradientTransform="translate(0,-1)" />
    <linearGradient
       x1="32.420471"
       y1="12"
       x2="64.306427"
       y2="131"
       id="linearGradient4029"
       xlink:href="#linearGradient4064"
       gradientUnits="userSpaceOnUse"
       gradientTransform="matrix(1,0,0,-1,0,83)" />
    <linearGradient
       x1="7"
       y1="77"
       x2="32"
       y2="77.09375"
       id="linearGradient4062"
       xlink:href="#linearGradient4052"
       gradientUnits="userSpaceOnUse"
       gradientTransform="matrix(1,0,0,-1,0,95)" />
    <linearGradient
       x1="7"
       y1="77"
       x2="32"
       y2="77.09375"
       id="linearGradient4072"
       xlink:href="#linearGradient4052"
       gradientUnits="userSpaceOnUse"
       gradientTransform="matrix(-1,0,0,-1,96,95)" />
    <linearGradient
       x1="43"
       y1="23"
       x2="43"
       y2="79"
       id="linearGradient4087"
       xlink:href="#linearGradient4081"
       gradientUnits="userSpaceOnUse" />
    <linearGradient
       x1="49"
       y1="62"
       x2="49"
       y2="21.222195"
       id="linearGradient4219"
       xlink:href="#linearGradient4213"
       gradientUnits="userSpaceOnUse"
       gradientTransform="matrix(1,0,0,-1,0,73.963499)" />
    <linearGradient
       x1="12.788539"
       y1="14.001868"
       x2="37.835972"
       y2="14.001868"
       id="linearGradient4264"
       xlink:href="#linearGradient4304"
       gradientUnits="userSpaceOnUse"
       gradientTransform="matrix(0,1.724646,-1.61437,0,86.387461,-3.9914657)" />
    <linearGradient
       x1="52"
       y1="65"
       x2="52"
       y2="26"
       id="linearGradient3219"
       xlink:href="#linearGradient4226"
       gradientUnits="userSpaceOnUse" />
    <linearGradient
       x1="52"
       y1="43.705379"
       x2="52"
       y2="23.914003"
       id="linearGradient3221"
       xlink:href="#linearGradient4226"
       gradientUnits="userSpaceOnUse"
       gradientTransform="matrix(1,0,0,-1,0,75.963499)" />
    <linearGradient
       x1="52"
       y1="40.430462"
       x2="52"
       y2="24.144228"
       id="linearGradient3223"
       xlink:href="#linearGradient4226"
       gradientUnits="userSpaceOnUse" />
    <linearGradient
       x1="52"
       y1="43.62896"
       x2="52"
       y2="22.522953"
       id="linearGradient3225"
       xlink:href="#linearGradient4226"
       gradientUnits="userSpaceOnUse"
       gradientTransform="matrix(1,0,0,-1,0,75.963499)" />
    <linearGradient
       inkscape:collect="always"
       xlink:href="#ButtonShadow-0"
       id="linearGradient2988"
       gradientUnits="userSpaceOnUse"
       gradientTransform="matrix(1.0238095,0,0,1.0119048,-1.1428571,-98.071429)"
       x1="32.251034"
       y1="6.1317081"
       x2="32.251034"
       y2="90.238609" />
    <linearGradient
       inkscape:collect="always"
       xlink:href="#ButtonShadow-0"
       id="linearGradient2990"
       gradientUnits="userSpaceOnUse"
       gradientTransform="matrix(1.0238095,0,0,1.0119048,-1.1428571,-98.071429)"
       x1="32.251034"
       y1="6.1317081"
       x2="32.251034"
       y2="90.238609" />
    <linearGradient
       inkscape:collect="always"
       xlink:href="#ButtonShadow-0"
       id="linearGradient2992"
       gradientUnits="userSpaceOnUse"
       gradientTransform="matrix(1.0238095,0,0,1.0119048,-1.1428571,-98.071429)"
       x1="32.251034"
       y1="6.1317081"
       x2="32.251034"
       y2="90.238609" />
    <linearGradient
       inkscape:collect="always"
       xlink:href="#ButtonShadow-0"
       id="linearGradient2994"
       gradientUnits="userSpaceOnUse"
       gradientTransform="matrix(1.0238095,0,0,1.0119048,-1.1428571,-98.071429)"
       x1="32.251034"
       y1="6.1317081"
       x2="32.251034"
       y2="90.238609" />
    <linearGradient
       inkscape:collect="always"
       xlink:href="#ButtonShadow-0"
       id="linearGradient2996"
       gradientUnits="userSpaceOnUse"
       gradientTransform="translate(0,-97)"
       x1="32.251034"
       y1="6.1317081"
       x2="32.251034"
       y2="90.238609" />
    <linearGradient
       inkscape:collect="always"
       xlink:href="#linearGradient3737"
       id="linearGradient2998"
       gradientUnits="userSpaceOnUse"
       x1="36.357143"
       y1="6"
       x2="36.357143"
       y2="63.893143" />
    <linearGradient
       inkscape:collect="always"
       xlink:href="#linearGradient3273"
       id="linearGradient3000"
       gradientUnits="userSpaceOnUse"
       gradientTransform="matrix(-1,0,0,1,96.030615,0)"
       x1="6"
       y1="77.09375"
       x2="32.030617"
       y2="77.09375" />
    <linearGradient
       inkscape:collect="always"
       xlink:href="#linearGradient3322"
       id="linearGradient3002"
       gradientUnits="userSpaceOnUse"
       x1="6"
       y1="77.09375"
       x2="32"
       y2="77.09375" />
    <linearGradient
       inkscape:collect="always"
       xlink:href="#linearGradient4327"
       id="linearGradient3004"
       gradientUnits="userSpaceOnUse"
       x1="48"
       y1="8"
       x2="48"
       y2="64" />
    <linearGradient
       inkscape:collect="always"
       xlink:href="#linearGradient4012"
       id="linearGradient3006"
       gradientUnits="userSpaceOnUse"
       gradientTransform="translate(0,-1)"
       x1="48"
       y1="80"
       x2="48"
       y2="-15" />
    <linearGradient
       inkscape:collect="always"
       xlink:href="#linearGradient4052"
       id="linearGradient3008"
       gradientUnits="userSpaceOnUse"
       gradientTransform="matrix(1,0,0,-1,0,95)"
       x1="7"
       y1="77"
       x2="32"
       y2="77.09375" />
    <linearGradient
       inkscape:collect="always"
       xlink:href="#linearGradient4052"
       id="linearGradient3010"
       gradientUnits="userSpaceOnUse"
       gradientTransform="matrix(-1,0,0,-1,96,95)"
       x1="7"
       y1="77"
       x2="32"
       y2="77.09375" />
    <linearGradient
       inkscape:collect="always"
       xlink:href="#linearGradient4081"
       id="linearGradient3012"
       gradientUnits="userSpaceOnUse"
       x1="43"
       y1="23"
       x2="43"
       y2="79" />
    <linearGradient
       inkscape:collect="always"
       xlink:href="#linearGradient3999"
       id="linearGradient3014"
       gradientUnits="userSpaceOnUse"
       gradientTransform="matrix(-1,0,0,1,96,-1)"
       x1="6"
       y1="72.5"
       x2="48"
       y2="72.5" />
    <linearGradient
       inkscape:collect="always"
       xlink:href="#linearGradient4064"
       id="linearGradient3016"
       gradientUnits="userSpaceOnUse"
       gradientTransform="matrix(1,0,0,-1,0,83)"
       x1="32.420471"
       y1="12"
       x2="64.306427"
       y2="131" />
    <linearGradient
       inkscape:collect="always"
       xlink:href="#linearGradient4226"
       id="linearGradient3018"
       gradientUnits="userSpaceOnUse"
       x1="52"
       y1="65"
       x2="52"
       y2="26" />
    <linearGradient
       inkscape:collect="always"
       xlink:href="#linearGradient4226"
       id="linearGradient3020"
       gradientUnits="userSpaceOnUse"
       gradientTransform="matrix(1,0,0,-1,0,75.963499)"
       x1="52"
       y1="43.705379"
       x2="52"
       y2="23.914003" />
    <linearGradient
       inkscape:collect="always"
       xlink:href="#linearGradient4226"
       id="linearGradient3022"
       gradientUnits="userSpaceOnUse"
       x1="52"
       y1="40.430462"
       x2="52"
       y2="24.144228" />
    <linearGradient
       inkscape:collect="always"
       xlink:href="#linearGradient4226"
       id="linearGradient3024"
       gradientUnits="userSpaceOnUse"
       gradientTransform="matrix(1,0,0,-1,0,75.963499)"
       x1="52"
       y1="43.62896"
       x2="52"
       y2="22.522953" />
    <linearGradient
       inkscape:collect="always"
       xlink:href="#linearGradient4304"
       id="linearGradient3026"
       gradientUnits="userSpaceOnUse"
       gradientTransform="matrix(0,1.724646,-1.61437,0,86.387461,-3.9914657)"
       x1="12.788539"
       y1="14.001868"
       x2="37.835972"
       y2="14.001868" />
    <linearGradient
       inkscape:collect="always"
       xlink:href="#linearGradient4213"
       id="linearGradient3028"
       gradientUnits="userSpaceOnUse"
       gradientTransform="matrix(1,0,0,-1,0,73.963499)"
       x1="49"
       y1="62"
       x2="49"
       y2="21.222195" />
    <linearGradient
       inkscape:collect="always"
       xlink:href="#linearGradient4226"
       id="linearGradient2964"
       gradientUnits="userSpaceOnUse"
       x1="52"
       y1="65"
       x2="52"
       y2="26" />
    <linearGradient
       inkscape:collect="always"
       xlink:href="#linearGradient4226"
       id="linearGradient2966"
       gradientUnits="userSpaceOnUse"
       gradientTransform="matrix(1,0,0,-1,0,75.963499)"
       x1="52"
       y1="43.705379"
       x2="52"
       y2="23.914003" />
    <linearGradient
       inkscape:collect="always"
       xlink:href="#linearGradient4226"
       id="linearGradient2968"
       gradientUnits="userSpaceOnUse"
       x1="52"
       y1="40.430462"
       x2="52"
       y2="24.144228" />
    <linearGradient
       inkscape:collect="always"
       xlink:href="#linearGradient4226"
       id="linearGradient2970"
       gradientUnits="userSpaceOnUse"
       gradientTransform="matrix(1,0,0,-1,0,75.963499)"
       x1="52"
       y1="43.62896"
       x2="52"
       y2="22.522953" />
    <linearGradient
       inkscape:collect="always"
       xlink:href="#linearGradient4304"
       id="linearGradient2972"
       gradientUnits="userSpaceOnUse"
       gradientTransform="matrix(0,1.724646,-1.61437,0,86.387461,-3.9914657)"
       x1="12.788539"
       y1="14.001868"
       x2="37.835972"
       y2="14.001868" />
    <linearGradient
       inkscape:collect="always"
       xlink:href="#linearGradient4213"
       id="linearGradient2974"
       gradientUnits="userSpaceOnUse"
       gradientTransform="matrix(1,0,0,-1,0,73.963499)"
       x1="49"
       y1="62"
       x2="49"
       y2="21.222195" />
    <linearGradient
       inkscape:collect="always"
       xlink:href="#linearGradient4213"
       id="linearGradient2977"
       gradientUnits="userSpaceOnUse"
       gradientTransform="matrix(1.3903598,0,0,-1.3903598,-2.7372704,98.013065)"
       x1="49"
       y1="62"
       x2="49"
       y2="21.222195" />
    <linearGradient
       inkscape:collect="always"
       xlink:href="#linearGradient4304"
       id="linearGradient2981"
       gradientUnits="userSpaceOnUse"
       gradientTransform="matrix(0,2.3978785,-2.2445552,0,117.37238,-10.372384)"
       x1="12.788539"
       y1="14.001868"
       x2="37.835972"
       y2="14.001868" />
    <linearGradient
       inkscape:collect="always"
       xlink:href="#linearGradient3999"
       id="linearGradient2989"
       gradientUnits="userSpaceOnUse"
       gradientTransform="matrix(-1,0,0,1,96,-1)"
       x1="6"
       y1="72.5"
       x2="48"
       y2="72.5" />
    <linearGradient
       inkscape:collect="always"
       xlink:href="#linearGradient4064"
       id="linearGradient2991"
       gradientUnits="userSpaceOnUse"
       gradientTransform="matrix(1,0,0,-1,0,83)"
       x1="32.420471"
       y1="12"
       x2="64.306427"
       y2="131" />
    <linearGradient
       inkscape:collect="always"
       xlink:href="#linearGradient4064"
       id="linearGradient2995"
       gradientUnits="userSpaceOnUse"
       gradientTransform="matrix(1.3903598,0,0,-1.3903598,-2.7372704,110.57705)"
       x1="32.420471"
       y1="12"
       x2="64.306427"
       y2="131" />
    <linearGradient
       inkscape:collect="always"
       xlink:href="#linearGradient3999"
       id="linearGradient2999"
       gradientUnits="userSpaceOnUse"
       gradientTransform="matrix(-1.3903598,0,0,1.3903598,130.73727,-6.2131702)"
       x1="6"
       y1="72.5"
       x2="48"
       y2="72.5" />
    <linearGradient
       inkscape:collect="always"
       xlink:href="#linearGradient3737"
       id="linearGradient3001"
       gradientUnits="userSpaceOnUse"
       x1="36.357143"
       y1="6"
       x2="36.357143"
       y2="63.893143" />
    <linearGradient
       inkscape:collect="always"
       xlink:href="#linearGradient3273"
       id="linearGradient3003"
       gradientUnits="userSpaceOnUse"
       gradientTransform="matrix(-1,0,0,1,96.030615,0)"
       x1="6"
       y1="77.09375"
       x2="32.030617"
       y2="77.09375" />
    <linearGradient
       inkscape:collect="always"
       xlink:href="#linearGradient3322"
       id="linearGradient3005"
       gradientUnits="userSpaceOnUse"
       x1="6"
       y1="77.09375"
       x2="32"
       y2="77.09375" />
    <linearGradient
       inkscape:collect="always"
       xlink:href="#linearGradient4327"
       id="linearGradient3007"
       gradientUnits="userSpaceOnUse"
       x1="48"
       y1="8"
       x2="48"
       y2="64" />
    <linearGradient
       inkscape:collect="always"
       xlink:href="#linearGradient4012"
       id="linearGradient3009"
       gradientUnits="userSpaceOnUse"
       gradientTransform="translate(0,-1)"
       x1="48"
       y1="80"
       x2="48"
       y2="-15" />
    <linearGradient
       inkscape:collect="always"
       xlink:href="#linearGradient4052"
       id="linearGradient3011"
       gradientUnits="userSpaceOnUse"
       gradientTransform="matrix(1,0,0,-1,0,95)"
       x1="7"
       y1="77"
       x2="32"
       y2="77.09375" />
    <linearGradient
       inkscape:collect="always"
       xlink:href="#linearGradient4052"
       id="linearGradient3013"
       gradientUnits="userSpaceOnUse"
       gradientTransform="matrix(-1,0,0,-1,96,95)"
       x1="7"
       y1="77"
       x2="32"
       y2="77.09375" />
    <linearGradient
       inkscape:collect="always"
       xlink:href="#linearGradient4081"
       id="linearGradient3015"
       gradientUnits="userSpaceOnUse"
       x1="43"
       y1="23"
       x2="43"
       y2="79" />
    <linearGradient
       inkscape:collect="always"
       xlink:href="#linearGradient4081"
       id="linearGradient3019"
       gradientUnits="userSpaceOnUse"
       x1="43"
       y1="23"
       x2="43"
       y2="79"
       gradientTransform="matrix(1.3903598,0,0,1.3903598,-2.7372704,-4.8228104)" />
    <linearGradient
       inkscape:collect="always"
       xlink:href="#linearGradient4052"
       id="linearGradient3023"
       gradientUnits="userSpaceOnUse"
       gradientTransform="matrix(-1.3903598,0,0,-1.3903598,130.73727,127.26137)"
       x1="7"
       y1="77"
       x2="32"
       y2="77.09375" />
    <linearGradient
       inkscape:collect="always"
       xlink:href="#linearGradient4052"
       id="linearGradient3027"
       gradientUnits="userSpaceOnUse"
       gradientTransform="matrix(1.3903598,0,0,-1.3903598,-2.7372704,127.26137)"
       x1="7"
       y1="77"
       x2="32"
       y2="77.09375" />
    <linearGradient
       inkscape:collect="always"
       xlink:href="#linearGradient4012"
       id="linearGradient3030"
       gradientUnits="userSpaceOnUse"
       gradientTransform="matrix(1.3903598,0,0,1.3903598,-2.7372704,-6.2131702)"
       x1="48"
       y1="80"
       x2="48"
       y2="-15" />
    <linearGradient
       inkscape:collect="always"
       xlink:href="#linearGradient4327"
       id="linearGradient3033"
       gradientUnits="userSpaceOnUse"
       x1="48"
       y1="8"
       x2="48"
       y2="64"
       gradientTransform="matrix(1.3903598,0,0,1.3903598,-2.7372704,-4.8228104)" />
    <linearGradient
       inkscape:collect="always"
       xlink:href="#linearGradient3322"
       id="linearGradient3036"
       gradientUnits="userSpaceOnUse"
       x1="6"
       y1="77.09375"
       x2="32"
       y2="77.09375"
       gradientTransform="matrix(1.3903598,0,0,1.3903598,-2.7372704,-4.8228104)" />
    <linearGradient
       inkscape:collect="always"
       xlink:href="#linearGradient3273"
       id="linearGradient3039"
       gradientUnits="userSpaceOnUse"
       gradientTransform="matrix(-1.3903598,0,0,1.3903598,130.77984,-4.8228104)"
       x1="6"
       y1="77.09375"
       x2="32.030617"
       y2="77.09375" />
    <linearGradient
       inkscape:collect="always"
       xlink:href="#linearGradient3737"
       id="linearGradient3043"
       gradientUnits="userSpaceOnUse"
       x1="36.357143"
       y1="6"
       x2="36.357143"
       y2="63.893143"
       gradientTransform="matrix(1.3903598,0,0,1.3903598,-2.7372704,-4.8228104)" />
    <linearGradient
       inkscape:collect="always"
       xlink:href="#ButtonShadow-0"
       id="linearGradient3045"
       gradientUnits="userSpaceOnUse"
       gradientTransform="matrix(1.0238095,0,0,1.0119048,-1.1428571,-98.071429)"
       x1="32.251034"
       y1="6.1317081"
       x2="32.251034"
       y2="90.238609" />
    <linearGradient
       inkscape:collect="always"
       xlink:href="#ButtonShadow-0"
       id="linearGradient3047"
       gradientUnits="userSpaceOnUse"
       gradientTransform="matrix(1.0238095,0,0,1.0119048,-1.1428571,-98.071429)"
       x1="32.251034"
       y1="6.1317081"
       x2="32.251034"
       y2="90.238609" />
    <linearGradient
       inkscape:collect="always"
       xlink:href="#ButtonShadow-0"
       id="linearGradient3049"
       gradientUnits="userSpaceOnUse"
       gradientTransform="matrix(1.0238095,0,0,1.0119048,-1.1428571,-98.071429)"
       x1="32.251034"
       y1="6.1317081"
       x2="32.251034"
       y2="90.238609" />
    <linearGradient
       inkscape:collect="always"
       xlink:href="#ButtonShadow-0"
       id="linearGradient3051"
       gradientUnits="userSpaceOnUse"
       gradientTransform="matrix(1.0238095,0,0,1.0119048,-1.1428571,-98.071429)"
       x1="32.251034"
       y1="6.1317081"
       x2="32.251034"
       y2="90.238609" />
    <linearGradient
       inkscape:collect="always"
       xlink:href="#ButtonShadow-0"
       id="linearGradient3053"
       gradientUnits="userSpaceOnUse"
       gradientTransform="translate(0,-97)"
       x1="32.251034"
       y1="6.1317081"
       x2="32.251034"
       y2="90.238609" />
    <linearGradient
       inkscape:collect="always"
       xlink:href="#ButtonShadow-0"
       id="linearGradient3056"
       gradientUnits="userSpaceOnUse"
       gradientTransform="matrix(1.3903598,0,0,1.3903598,-2.7372704,-130.04209)"
       x1="32.251034"
       y1="6.1317081"
       x2="32.251034"
       y2="90.238609" />
    <linearGradient
       inkscape:collect="always"
       xlink:href="#ButtonShadow-0"
       id="linearGradient3059"
       gradientUnits="userSpaceOnUse"
       gradientTransform="matrix(1.4234636,0,0,1.4069118,-4.326253,-131.53176)"
       x1="32.251034"
       y1="6.1317081"
       x2="32.251034"
       y2="90.238609" />
    <linearGradient
       inkscape:collect="always"
       xlink:href="#ButtonShadow-0"
       id="linearGradient3062"
       gradientUnits="userSpaceOnUse"
       gradientTransform="matrix(1.4234636,0,0,-1.4069118,-4.326253,131.53176)"
       x1="32.251034"
       y1="6.1317081"
       x2="32.251034"
       y2="90.238609" />
    <linearGradient
       inkscape:collect="always"
       xlink:href="#ButtonShadow-0"
       id="linearGradient3065"
       gradientUnits="userSpaceOnUse"
       gradientTransform="matrix(1.4234636,0,0,-1.4069118,-4.326253,131.53176)"
       x1="32.251034"
       y1="6.1317081"
       x2="32.251034"
       y2="90.238609" />
    <linearGradient
       inkscape:collect="always"
       xlink:href="#ButtonShadow-0"
       id="linearGradient3068"
       gradientUnits="userSpaceOnUse"
       gradientTransform="matrix(1.4234636,0,0,-1.4069118,-4.326253,131.53176)"
       x1="32.251034"
       y1="6.1317081"
       x2="32.251034"
       y2="90.238609" />
  </defs>
  <metadata
     id="metadata2413">
    <rdf:RDF>
      <cc:Work
         rdf:about="">
        <dc:format>image/svg+xml</dc:format>
        <dc:type
           rdf:resource="http://purl.org/dc/dcmitype/StillImage" />
        <dc:title></dc:title>
      </cc:Work>
    </rdf:RDF>
  </metadata>
  <g
     id="layer2"
     style="display:none"
     transform="translate(0,32)">
    <rect
       width="86"
       height="85"
       rx="6"
       ry="6"
       x="5"
       y="7"
       id="rect3745"
       style="opacity:0.9;fill:url(#ButtonShadow);fill-opacity:1;fill-rule:nonzero;stroke:none;filter:url(#filter3174)" />
  </g>
  <path
     style="opacity:0.07999998;fill:url(#linearGradient3068);fill-opacity:1;fill-rule:nonzero;stroke:none;display:inline"
     id="path3786"
     d="M 13.947047,127.30482 C 6.2846488,127.30482 4.5625e-7,121.02017 4.5625e-7,113.35777 l 0,-98.715543 C 4.5625e-7,6.9798285 6.2846489,0.69518006 13.947047,0.69518006 l 100.105903,0 C 121.71535,0.69518006 128,6.9798284 128,14.642227 l 0,98.715543 c 0,7.6624 -6.28465,13.94705 -13.94705,13.94705 l -100.105903,0 z" />
  <path
     style="opacity:0.1;fill:url(#linearGradient3065);fill-opacity:1;fill-rule:nonzero;stroke:none;display:inline"
     id="path3778"
     d="m 13.947047,125.91446 c -6.9123585,0 -12.5566867,-5.64433 -12.5566867,-12.55669 l 0,-98.715543 c 0,-6.9123587 5.6443284,-12.5566871 12.5566867,-12.5566871 l 100.105903,0 c 6.91236,0 12.55669,5.6443282 12.55669,12.5566871 l 0,98.715543 c 0,6.91236 -5.64433,12.55669 -12.55669,12.55669 l -100.105903,0 z" />
  <path
     style="opacity:0.2;fill:url(#linearGradient3062);fill-opacity:1;fill-rule:nonzero;stroke:none;display:inline"
     id="path3770"
     d="m 13.947047,124.48065 c -6.1302815,0 -11.1228782,-4.9926 -11.1228782,-11.12288 l 0,-98.715543 c 0,-6.1302819 4.9925967,-11.1228786 11.1228782,-11.1228786 l 100.105903,0 c 6.13028,0 11.12288,4.9925967 11.12288,11.1228786 l 0,98.715543 c 0,6.13028 -4.9926,11.12288 -11.12288,11.12288 l -100.105903,0 z" />
  <rect
     style="opacity:0.3;fill:url(#linearGradient3059);fill-opacity:1;fill-rule:nonzero;stroke:none;display:inline"
     id="rect3723"
     transform="scale(1,-1)"
     y="-123.09029"
     x="4.2145286"
     ry="9.7325182"
     rx="9.7325182"
     height="118.18058"
     width="119.57095" />
  <rect
     style="opacity:0.45;fill:url(#linearGradient3056);fill-opacity:1;fill-rule:nonzero;stroke:none;display:inline"
     id="rect3716"
     transform="scale(1,-1)"
     y="-121.69993"
     x="5.6048884"
     ry="8.3421593"
     rx="8.3421593"
     height="116.79022"
     width="116.79022" />
  <path
     style="opacity:0.5;fill:url(#linearGradient3043);fill-opacity:1;fill-rule:nonzero;stroke:none"
     id="rect3728"
     inkscape:connector-curvature="0"
     d="m 13.947047,3.5193484 c -4.6215558,0 -8.3421586,3.7206028 -8.3421586,8.3421586 l 0,2.78072 0,94.544463 0,2.78072 c 0,0.46539 0.057491,0.90471 0.1303462,1.34691 0.067711,0.41099 0.1349205,0.82993 0.2606925,1.21657 0.013737,0.0422 0.029047,0.0884 0.043449,0.13034 0.137458,0.40011 0.326568,0.76116 0.521385,1.12967 0.2010346,0.38028 0.4388199,0.7447 0.6951799,1.08622 0.2563599,0.34152 0.5196838,0.6583 0.8255261,0.95587 0.6116846,0.59516 1.3109842,1.13249 2.0855392,1.52071 0.387278,0.19411 0.797334,0.34334 1.216565,0.47794 -0.356212,-0.13935 -0.676703,-0.32851 -0.999321,-0.52139 -0.0103,-0.006 -0.03318,0.006 -0.04345,0 -0.0444,-0.0268 -0.08661,-0.0591 -0.130346,-0.0869 -0.167392,-0.10664 -0.3212043,-0.22734 -0.4779359,-0.34759 -0.1476184,-0.11234 -0.2965372,-0.224 -0.4344875,-0.34759 -0.2473866,-0.22445 -0.4830938,-0.48021 -0.6951799,-0.73863 -0.1495734,-0.1811 -0.3036461,-0.36884 -0.4344874,-0.56483 -0.034883,-0.0534 -0.053454,-0.11939 -0.086898,-0.17379 -0.090044,-0.14326 -0.1810631,-0.28436 -0.2606925,-0.43449 -0.1404378,-0.27071 -0.2859619,-0.57798 -0.3910387,-0.86898 -0.011067,-0.0303 -0.032797,-0.0564 -0.043449,-0.0869 -0.044248,-0.12785 -0.049781,-0.25977 -0.086898,-0.39104 -0.042173,-0.14824 -0.097867,-0.28229 -0.1303462,-0.43449 -0.1013275,-0.47482 -0.173795,-0.97076 -0.173795,-1.47726 l 0,-2.78072 0,-94.544463 0,-2.78072 c 0,-3.8677696 3.0840288,-6.951799 6.9517988,-6.951799 l 2.78072,0 94.544463,0 2.78072,0 c 3.86777,0 6.9518,3.0840294 6.9518,6.951799 l 0,2.78072 0,94.544463 0,2.78072 c 0,0.5065 -0.0725,1.00244 -0.17379,1.47726 -0.0614,0.28766 -0.12288,0.55289 -0.21725,0.82553 -0.0107,0.0305 -0.0324,0.0566 -0.0434,0.0869 -0.0872,0.24156 -0.1924,0.51089 -0.30414,0.73863 -0.0578,0.11512 -0.10989,0.2363 -0.17379,0.34759 -0.0759,0.13516 -0.17626,0.26188 -0.26069,0.39104 -0.13085,0.19599 -0.28492,0.38373 -0.43449,0.56483 -0.19907,0.24255 -0.42148,0.48246 -0.65173,0.69518 -0.0155,0.0142 -0.0278,0.0294 -0.0434,0.0435 -0.19241,0.17457 -0.39638,0.32595 -0.60828,0.47794 -0.14261,0.1017 -0.28408,0.21323 -0.43449,0.30414 -0.0103,0.006 -0.0331,-0.006 -0.0434,0 -0.32262,0.19288 -0.64311,0.38204 -0.99932,0.52139 0.41923,-0.13459 0.82929,-0.28383 1.21656,-0.47794 0.77456,-0.38822 1.47386,-0.92555 2.08554,-1.52071 0.30584,-0.29757 0.56917,-0.61435 0.82553,-0.95587 0.25636,-0.34152 0.49414,-0.70594 0.69518,-1.08622 0.19482,-0.36851 0.38393,-0.72956 0.52138,-1.12967 0.0145,-0.0428 0.0297,-0.0872 0.0434,-0.13034 0.12577,-0.38664 0.19298,-0.80558 0.2607,-1.21657 0.0729,-0.4422 0.13034,-0.88152 0.13034,-1.34691 l 0,-2.78072 0,-94.544463 0,-2.78072 c 0,-4.6215558 -3.7206,-8.3421586 -8.34216,-8.3421586 l -100.105903,0 z" />
  <path
     style="fill:#cacaca;fill-opacity:1;fill-rule:nonzero;stroke:none"
     id="rect3243"
     inkscape:connector-curvature="0"
     d="m 122.39511,84.420909 0,27.546501 c 0,4.62156 -3.7206,8.34216 -8.34216,8.34216 l -100.105903,0 c -4.6215558,0 -8.3421586,-3.7206 -8.3421586,-8.34216 l 0,-27.546501 116.7902216,0 z" />
  <path
     style="opacity:0.8;fill:url(#linearGradient3039);fill-opacity:1;fill-rule:nonzero;stroke:none"
     id="path3285"
     inkscape:connector-curvature="0"
     d="m 122.43768,84.420909 0,27.546501 c 0,4.62156 -3.72061,8.34216 -8.34216,8.34216 l -27.849763,0 0,-35.888661 36.191923,0 z" />
  <path
     style="opacity:0.8;fill:url(#linearGradient3036);fill-opacity:1;fill-rule:nonzero;stroke:none"
     id="path3263"
     inkscape:connector-curvature="0"
     d="m 5.6048884,84.420909 0,27.546501 c 0,4.62156 3.7206028,8.34216 8.3421586,8.34216 l 27.807196,0 0,-35.888661 -36.1493546,0 z" />
  <path
     style="fill:url(#linearGradient3033);fill-opacity:1;stroke:none"
     id="path3182"
     inkscape:connector-curvature="0"
     d="m 13.947047,3.5193484 c -4.6215558,0 -8.3421586,3.7206028 -8.3421586,8.3421586 l 0,73.68907 c 0,4.621556 3.7206028,8.342158 8.3421586,8.342158 l 30.587916,0 5.561439,5.56144 27.807196,0 5.561439,-5.56144 30.587913,0 c 4.62156,0 8.34216,-3.720602 8.34216,-8.342158 l 0,-73.68907 c 0,-4.6215558 -3.7206,-8.3421586 -8.34216,-8.3421586 z" />
  <path
     style="opacity:0.4;fill:url(#linearGradient3030);fill-opacity:1;stroke:none"
     id="path4007"
     inkscape:connector-curvature="0"
     d="m 16.727767,28.545825 c -4.621556,0 -8.342159,3.720603 -8.342159,8.342159 l 0,48.662593 c 0,1.341135 0.3112484,2.616102 0.8689749,3.736592 1.2354851,1.123976 2.8623351,1.824847 4.6924641,1.824847 l 27.807196,0 2.78072,2.780719 5.561439,5.56144 27.807196,0 5.561439,-5.56144 2.78072,-2.780719 27.807193,0 c 1.83013,0 3.45698,-0.700871 4.69247,-1.824847 0.55772,-1.12049 0.86897,-2.395457 0.86897,-3.736592 l 0,-48.662593 c 0,-4.621556 -3.7206,-8.342159 -8.34216,-8.342159 z" />
  <path
     style="opacity:0.4;fill:url(#linearGradient3027);fill-opacity:1;fill-rule:nonzero;stroke:none"
     id="path4040"
     inkscape:connector-curvature="0"
     d="m 13.947047,3.5193484 c -4.6215558,0 -8.3421586,3.7206028 -8.3421586,8.3421586 l 0,27.546504 2.7807196,0 0,-1.129668 0,-1.390359 c 0,-4.621556 3.727719,-8.085802 8.342159,-8.342159 l 25.026476,0 0,-25.0264766 z" />
  <path
     style="opacity:0.4;fill:url(#linearGradient3023);fill-opacity:1;fill-rule:nonzero;stroke:none"
     id="path4070"
     inkscape:connector-curvature="0"
     d="m 114.05295,3.5193484 c 4.62156,0 8.34216,3.7206028 8.34216,8.3421586 l 0,27.546504 -2.78072,0 0,-1.129668 0,-1.390359 c 0,0 -3.7206,-8.342159 -8.34216,-8.342159 l -25.026473,0 0,-25.0264766 z" />
  <path
     style="opacity:0.15;fill:url(#linearGradient3019);fill-opacity:1;stroke:none"
     id="path4074"
     inkscape:connector-curvature="0"
     d="m 16.727767,28.545825 c -4.621556,0 -8.342159,3.720603 -8.342159,8.342159 l 0,48.662593 c 0,1.341135 0.3112487,2.616102 0.8689749,3.736592 1.2354851,1.123976 2.8623351,1.824847 4.6924641,1.824847 l 27.807196,0 2.78072,2.780719 5.561439,5.56144 27.807196,0 5.561439,-5.56144 2.78072,-2.780719 27.807193,0 c 1.83013,0 3.45698,-0.700871 4.69247,-1.824847 0.55772,-1.12049 0.86897,-2.395457 0.86897,-3.736592 l 0,-48.662593 c 0,-4.621556 -3.7206,-8.342159 -8.34216,-8.342159 z m 0,1.477257 94.544463,0 c 3.83039,0 6.8649,3.034515 6.8649,6.864902 l 0,48.662593 c 0,1.005263 -0.2747,1.929908 -0.65173,2.780719 -0.94923,0.780087 -2.08663,1.303463 -3.43245,1.303463 l -27.807193,0 c -0.386435,6.22e-4 -0.770222,0.160535 -1.04277,0.434487 l -2.78072,2.78072 -5.126951,5.126951 -26.590632,0 -5.126951,-5.126951 -2.78072,-2.78072 c -0.272548,-0.273952 -0.656335,-0.433865 -1.04277,-0.434487 l -27.807196,0 c -1.345818,0 -2.483219,-0.523376 -3.432451,-1.303463 -0.37703,-0.850811 -0.6517307,-1.775456 -0.6517307,-2.780719 l 0,-48.662593 c 0,-3.830387 3.0345147,-6.864902 6.8649017,-6.864902 z" />
  <path
     style="opacity:0.05;fill:#000000;fill-opacity:1;stroke:none"
     id="path4089"
     inkscape:connector-curvature="0"
     d="m 16.727767,29.936185 c -4.621556,0 -8.342159,3.720602 -8.342159,8.342158 l 0,1.39036 c 0,-4.621556 3.720603,-8.342159 8.342159,-8.342159 l 94.544463,0 c 4.62156,0 8.34216,3.720603 8.34216,8.342159 l 0,-1.39036 c 0,-4.621556 -3.7206,-8.342158 -8.34216,-8.342158 l -94.544463,0 z" />
  <path
     style="opacity:0.1;fill:url(#linearGradient2999);fill-opacity:1;fill-rule:nonzero;stroke:none"
     id="path3990"
     inkscape:connector-curvature="0"
     d="m 122.39511,85.550577 0,1.390359 c 0,4.621556 -3.7206,8.342159 -8.34216,8.342159 l -26.416833,0 -8.342159,8.342155 -30.587916,0 -8.342159,-8.342155 -26.416836,0 c -4.6215558,0 -8.3421586,-3.720603 -8.3421586,-8.342159 l 0,-1.390359 c 0,4.621556 3.7206028,8.342158 8.3421586,8.342158 l 26.416836,0 8.342159,8.342155 30.587916,0 8.342159,-8.342155 26.416833,0 c 4.62156,0 8.34216,-3.720602 8.34216,-8.342158 z" />
  <path
     style="opacity:0.7;fill:url(#linearGradient2995);fill-opacity:1;fill-rule:nonzero;stroke:none"
     id="rect3213"
     inkscape:connector-curvature="0"
     d="m 13.947047,3.5193484 c -4.6215558,0 -8.3421586,3.7206028 -8.3421586,8.3421586 l 0,73.68907 c 0,4.621556 3.7206028,8.342158 8.3421586,8.342158 l 26.416836,0 8.342159,8.342155 30.587916,0 8.342159,-8.342155 26.416833,0 c 4.62156,0 8.34216,-3.720602 8.34216,-8.342158 l 0,-73.68907 c 0,-4.6215558 -3.7206,-8.3421586 -8.34216,-8.3421586 z m 0,2.7807196 100.105903,0 c 3.86777,0 6.9518,3.0523862 6.9518,6.864902 l 0,71.082144 c 0,3.812517 -3.08403,6.864902 -6.9518,6.864902 l -27.807193,0 -2.78072,2.780719 -5.561439,5.56144 -27.807196,0 -5.561439,-5.56144 -2.78072,-2.780719 -27.807196,0 c -3.867769,0 -6.9517988,-3.052385 -6.9517988,-6.864902 l 0,-71.082144 c 0,-3.8125214 3.0840298,-6.864902 6.9517988,-6.864902 z" />
  <g
     id="g3213"
     transform="matrix(1.3903598,0,0,1.3903598,-2.7372704,-4.8228104)">
    <path
       style="opacity:0.05;fill:url(#linearGradient2964);fill-opacity:1;fill-rule:nonzero;stroke:none;stroke-width:0.99829447;marker:none;visibility:visible;display:inline;overflow:visible"
       id="path4260"
       transform="matrix(1,0,0,-1,0,75.963499)"
       d="m 31.5625,8.09375 c -1.193798,0.1844018 -1.989634,1.0955966 -2.28125,2 -0.281131,0.871884 -0.256431,1.760919 -0.1875,2.5 0.0026,0.02757 -0.0027,0.06663 0,0.09375 l 0,17.40625 c -4.493937,0.02132 -9.031723,-0.07618 -13.5625,0.0625 a 0.91914188,0.91914188 0 0 0 -0.125,0 c -1.297488,0.219288 -2.121002,1.308878 -2.28125,2.40625 -0.150995,1.034007 0.255159,2.17484 1.1875,2.875 l -0.03125,0.03125 c 10.616579,10.616068 21.19748,21.282333 31.84375,31.875 a 0.91914188,0.91914188 0 0 0 0.125,0.09375 c 0.952706,0.649898 2.125145,0.565647 2.9375,0.15625 C 49.970772,67.19901 50.542793,66.614858 51,66.0625 51.016976,66.041991 51.045882,66.020329 51.0625,66 61.424034,55.658126 71.858609,45.33108 82.1875,34.96875 a 0.91914188,0.91914188 0 0 0 0.03125,-0.03125 c 1.77919,-1.918049 -0.0518,-5.113309 -2.5625,-4.8125 l 0,-0.03125 -0.1875,0 -12.5625,0 c -0.01321,-6.493395 0.03853,-12.993273 -0.03125,-19.5 a 0.91914188,0.91914188 0 0 0 0,-0.1875 c -0.257527,-1.2018645 -1.237014,-1.943984 -2.15625,-2.1875 -0.896869,-0.2375907 -1.795415,-0.1674648 -2.5,-0.125 l -0.0625,0 -30.46875,0 a 0.91914188,0.91914188 0 0 0 -0.125,0 z" />
    <path
       style="opacity:0.07999998;fill:url(#linearGradient2966);fill-opacity:1;fill-rule:nonzero;stroke:none;stroke-width:0.99829447;marker:none;visibility:visible;display:inline;overflow:visible"
       id="path4246"
       inkscape:connector-curvature="0"
       d="M 31.6875,66.963499 C 29.961561,66.6969 29.862752,64.735295 30,63.35436 c 0,-6.130287 0,-12.260574 0,-18.390861 -4.810105,-0.04243 -9.638994,0.08437 -14.4375,-0.0625 C 13.78871,44.601211 13.500658,42.067267 14.941406,41.14635 25.559737,30.52853 36.137823,19.865837 46.78125,9.2759993 c 1.380154,-0.941486 2.729512,0.255349 3.575879,1.2906817 10.383919,10.364571 20.827411,20.704112 31.174121,31.084318 1.241807,1.338725 -0.117911,3.655536 -1.888836,3.3125 -4.547472,0 -9.094943,0 -13.642414,0 -0.02081,6.801223 0.04164,13.609337 -0.03125,20.40625 -0.376605,1.757598 -2.348824,1.677959 -3.756682,1.59375 -10.174856,0 -20.349712,0 -30.524568,0 z" />
    <path
       style="opacity:0.12000002;fill:url(#linearGradient2968);fill-opacity:1;fill-rule:nonzero;stroke:none;stroke-width:0.99829447;marker:none;visibility:visible;display:inline;overflow:visible"
       id="path4238"
       transform="matrix(1,0,0,-1,0,75.963499)"
       d="M 31.8125,10.09375 A 0.91914188,0.91914188 0 0 0 31.09375,11 l 0,21.09375 -15.09375,0 a 0.91914188,0.91914188 0 0 0 -0.65625,1.5625 l 31.90625,32 a 0.91914188,0.91914188 0 0 0 1.3125,0 l 32.09375,-32 A 0.91914188,0.91914188 0 0 0 80,32.09375 l -15.09375,0 0,-21.09375 A 0.91914188,0.91914188 0 0 0 64,10.09375 l -32,0 a 0.91914188,0.91914188 0 0 0 -0.1875,0 z" />
    <path
       style="opacity:0.3;fill:url(#linearGradient2970);fill-opacity:1;fill-rule:nonzero;stroke:none;stroke-width:0.99829447;marker:none;visibility:visible;display:inline;overflow:visible"
       id="path4221"
       inkscape:connector-curvature="0"
       d="m 80,42.963499 -32.079925,-32 -31.920075,32 16,0 0,22 32,0 0,-22 z" />
  </g>
  <path
     style="fill:url(#linearGradient2981);fill-opacity:1;fill-rule:nonzero;stroke:none;stroke-width:0.99829447;marker:none;visibility:visible;display:inline;overflow:visible"
     id="path3288-2"
     inkscape:connector-curvature="0"
     d="M 108.49151,53.521552 63.888875,9.0300381 19.508486,53.521552 l 22.245757,0 0,30.587915 44.491514,0 0,-30.587915 z" />
  <path
     style="fill:#cc9110;fill-opacity:1;fill-rule:nonzero;stroke:none;stroke-width:0.99829447;marker:none;visibility:visible;display:inline;overflow:visible"
     id="path4185"
     inkscape:connector-curvature="0"
     d="M 19.508486,53.521552 63.869654,9.0300381 108.49151,53.521552 l -1.39036,0 -43.231496,-43.101154 -42.970808,43.101154 -1.39036,0 z" />
  <path
     style="fill:url(#linearGradient2977);fill-opacity:1;fill-rule:nonzero;stroke:none;stroke-width:0.99829447;marker:none;visibility:visible;display:inline;overflow:visible"
     id="path4200"
     inkscape:connector-curvature="0"
     d="m 43.144603,82.719107 0,-31.978275 1.520706,0 0,30.457569 38.669382,0 0,-30.457569 1.520706,0 0,31.978275 z M 22.897488,52.131192 63.869654,11.02868 l 41.232856,41.102512 -21.637473,0 0,-1.520706 17.944333,0 -37.539716,-37.409369 -37.279022,37.409369 17.944331,0 0,1.520706 z" />
</svg>
