<?xml version="1.0" encoding="UTF-8" standalone="no"?>
<!-- Created with Inkscape (http://www.inkscape.org/) -->

<svg
   xmlns:dc="http://purl.org/dc/elements/1.1/"
   xmlns:cc="http://creativecommons.org/ns#"
   xmlns:rdf="http://www.w3.org/1999/02/22-rdf-syntax-ns#"
   xmlns:svg="http://www.w3.org/2000/svg"
   xmlns="http://www.w3.org/2000/svg"
   xmlns:xlink="http://www.w3.org/1999/xlink"
   xmlns:sodipodi="http://sodipodi.sourceforge.net/DTD/sodipodi-0.dtd"
   xmlns:inkscape="http://www.inkscape.org/namespaces/inkscape"
   version="1.0"
   width="78"
   height="78"
   id="svg2408"
   inkscape:version="0.47 r22583"
   sodipodi:docname="WLAN-online.svg"
   inkscape:export-filename="/home/francesco/neo_freerunner/qtmoko/faenqomod/svg/faenqomod_pics/Network/icons/lan/WLAN-online.png"
   inkscape:export-xdpi="90"
   inkscape:export-ydpi="90">
  <sodipodi:namedview
     pagecolor="#ffffff"
     bordercolor="#666666"
     borderopacity="1"
     objecttolerance="10"
     gridtolerance="10"
     guidetolerance="10"
     inkscape:pageopacity="0"
     inkscape:pageshadow="2"
     inkscape:window-width="1366"
     inkscape:window-height="709"
     id="namedview85"
     showgrid="false"
     borderlayer="true"
     inkscape:showpageshadow="false"
     inkscape:zoom="2.5104167"
     inkscape:cx="33.440082"
     inkscape:cy="55.809977"
     inkscape:window-x="0"
     inkscape:window-y="25"
     inkscape:window-maximized="1"
     inkscape:current-layer="svg2408" />
  <defs
     id="defs2410">
    <inkscape:perspective
       sodipodi:type="inkscape:persp3d"
       inkscape:vp_x="0 : 48 : 1"
       inkscape:vp_y="0 : 1000 : 0"
       inkscape:vp_z="96 : 48 : 1"
       inkscape:persp3d-origin="48 : 32 : 1"
       id="perspective87" />
    <linearGradient
       id="linearGradient3916">
      <stop
         id="stop3918"
         style="stop-color:#ffffff;stop-opacity:1"
         offset="0" />
      <stop
         id="stop3920"
         style="stop-color:#ffffff;stop-opacity:0"
         offset="1" />
    </linearGradient>
    <linearGradient
       id="linearGradient3905">
      <stop
         id="stop3907"
         style="stop-color:#47bbee;stop-opacity:1"
         offset="0" />
      <stop
         id="stop3909"
         style="stop-color:#175f7f;stop-opacity:1"
         offset="1" />
    </linearGradient>
    <linearGradient
       id="linearGradient3847">
      <stop
         id="stop3849"
         style="stop-color:#ffffff;stop-opacity:1"
         offset="0" />
      <stop
         id="stop3851"
         style="stop-color:#ffffff;stop-opacity:0"
         offset="1" />
    </linearGradient>
    <linearGradient
       id="linearGradient3790">
      <stop
         id="stop3792"
         style="stop-color:#e6e6e6;stop-opacity:1"
         offset="0" />
      <stop
         id="stop3794"
         style="stop-color:#b4b4b4;stop-opacity:1"
         offset="1" />
    </linearGradient>
    <linearGradient
       id="linearGradient3701">
      <stop
         id="stop3703"
         style="stop-color:#216d89;stop-opacity:1;"
         offset="0" />
      <stop
         id="stop3705"
         style="stop-color:#1cabe6;stop-opacity:1;"
         offset="1" />
    </linearGradient>
    <linearGradient
       x1="45.447727"
       y1="92.539597"
       x2="45.447727"
       y2="7.0165396"
       id="ButtonShadow"
       gradientUnits="userSpaceOnUse"
       gradientTransform="scale(1.0058652,0.994169)">
      <stop
         id="stop3750"
         style="stop-color:#000000;stop-opacity:1"
         offset="0" />
      <stop
         id="stop3752"
         style="stop-color:#000000;stop-opacity:0.58823532"
         offset="1" />
    </linearGradient>
    <linearGradient
       id="linearGradient3737">
      <stop
         id="stop3739"
         style="stop-color:#ffffff;stop-opacity:1"
         offset="0" />
      <stop
         id="stop3741"
         style="stop-color:#ffffff;stop-opacity:0"
         offset="1" />
    </linearGradient>
    <linearGradient
       id="linearGradient3700">
      <stop
         id="stop3702"
         style="stop-color:#3181a0;stop-opacity:1"
         offset="0" />
      <stop
         id="stop3704"
         style="stop-color:#47b1dd;stop-opacity:1"
         offset="1" />
    </linearGradient>
    <filter
       color-interpolation-filters="sRGB"
       id="filter3174">
      <feGaussianBlur
         id="feGaussianBlur3176"
         stdDeviation="1.71" />
    </filter>
    <linearGradient
       x1="36.357143"
       y1="6"
       x2="36.357143"
       y2="63.893143"
       id="linearGradient3188"
       xlink:href="#linearGradient3737"
       gradientUnits="userSpaceOnUse" />
    <filter
       x="-0.192"
       y="-0.192"
       width="1.3839999"
       height="1.3839999"
       color-interpolation-filters="sRGB"
       id="filter3794">
      <feGaussianBlur
         id="feGaussianBlur3796"
         stdDeviation="5.28" />
    </filter>
    <linearGradient
       x1="48"
       y1="20.220806"
       x2="48"
       y2="138.66119"
       id="linearGradient3613"
       xlink:href="#linearGradient3737"
       gradientUnits="userSpaceOnUse" />
    <radialGradient
       cx="48"
       cy="90.171875"
       r="42"
       fx="48"
       fy="90.171875"
       id="radialGradient3619"
       xlink:href="#linearGradient3737"
       gradientUnits="userSpaceOnUse"
       gradientTransform="matrix(1.1573129,0,0,0.99590774,-7.5510206,0.19713193)" />
    <clipPath
       id="clipPath3613">
      <rect
         width="84"
         height="84"
         rx="6"
         ry="6"
         x="6"
         y="6"
         id="rect3615"
         style="fill:#ffffff;fill-opacity:1;fill-rule:nonzero;stroke:none" />
    </clipPath>
    <linearGradient
       x1="48"
       y1="90"
       x2="48"
       y2="5.9877172"
       id="linearGradient3617"
       xlink:href="#linearGradient3700"
       gradientUnits="userSpaceOnUse" />
    <linearGradient
       x1="45.447727"
       y1="92.539597"
       x2="45.447727"
       y2="7.0165396"
       id="ButtonShadow-0"
       gradientUnits="userSpaceOnUse"
       gradientTransform="matrix(1.0058652,0,0,0.994169,100,0)">
      <stop
         id="stop3750-8"
         style="stop-color:#000000;stop-opacity:1"
         offset="0" />
      <stop
         id="stop3752-5"
         style="stop-color:#000000;stop-opacity:0.58823532"
         offset="1" />
    </linearGradient>
    <linearGradient
       x1="32.251034"
       y1="6.1317081"
       x2="32.251034"
       y2="90.238609"
       id="linearGradient3780"
       xlink:href="#ButtonShadow-0"
       gradientUnits="userSpaceOnUse"
       gradientTransform="matrix(1.0238095,0,0,1.0119048,-1.1428571,-98.071429)" />
    <linearGradient
       x1="32.251034"
       y1="6.1317081"
       x2="32.251034"
       y2="90.238609"
       id="linearGradient3772"
       xlink:href="#ButtonShadow-0"
       gradientUnits="userSpaceOnUse"
       gradientTransform="matrix(1.0238095,0,0,1.0119048,-1.1428571,-98.071429)" />
    <linearGradient
       x1="32.251034"
       y1="6.1317081"
       x2="32.251034"
       y2="90.238609"
       id="linearGradient3725"
       xlink:href="#ButtonShadow-0"
       gradientUnits="userSpaceOnUse"
       gradientTransform="matrix(1.0238095,0,0,1.0119048,-1.1428571,-98.071429)" />
    <linearGradient
       x1="32.251034"
       y1="6.1317081"
       x2="32.251034"
       y2="90.238609"
       id="linearGradient3721"
       xlink:href="#ButtonShadow-0"
       gradientUnits="userSpaceOnUse"
       gradientTransform="translate(0,-97)" />
    <linearGradient
       x1="32.251034"
       y1="6.1317081"
       x2="32.251034"
       y2="90.238609"
       id="linearGradient3026"
       xlink:href="#ButtonShadow-0"
       gradientUnits="userSpaceOnUse"
       gradientTransform="matrix(1.0238095,0,0,1.0119048,-1.1428571,-98.071429)" />
    <linearGradient
       x1="56"
       y1="64"
       x2="56"
       y2="16"
       id="linearGradient3699"
       xlink:href="#linearGradient3701"
       gradientUnits="userSpaceOnUse" />
    <linearGradient
       x1="44"
       y1="66"
       x2="52"
       y2="66"
       id="linearGradient3796"
       xlink:href="#linearGradient3790"
       gradientUnits="userSpaceOnUse" />
    <linearGradient
       x1="49"
       y1="52"
       x2="49"
       y2="77.079872"
       id="linearGradient3853"
       xlink:href="#linearGradient3847"
       gradientUnits="userSpaceOnUse" />
    <radialGradient
       cx="48"
       cy="45.167473"
       r="7"
       fx="48"
       fy="45.167473"
       id="radialGradient3861"
       xlink:href="#linearGradient3905"
       gradientUnits="userSpaceOnUse"
       gradientTransform="matrix(1.1428569,1.5630328e-7,-1.9842221e-7,1.4508217,-6.8571221,-20.529956)" />
    <radialGradient
       cx="48"
       cy="47.930149"
       r="6"
       fx="48"
       fy="47.930149"
       id="radialGradient3891"
       xlink:href="#linearGradient3847"
       gradientUnits="userSpaceOnUse"
       gradientTransform="matrix(1,0,0,0.83333345,0,6.0582042)" />
    <linearGradient
       x1="49.400002"
       y1="34"
       x2="49.400002"
       y2="51.5"
       id="linearGradient3903"
       xlink:href="#linearGradient3847"
       gradientUnits="userSpaceOnUse" />
    <linearGradient
       x1="56"
       y1="48"
       x2="56"
       y2="8"
       id="linearGradient3922"
       xlink:href="#linearGradient3916"
       gradientUnits="userSpaceOnUse" />
    <linearGradient
       inkscape:collect="always"
       xlink:href="#linearGradient3701"
       id="linearGradient2959"
       gradientUnits="userSpaceOnUse"
       gradientTransform="translate(106.75519,-12.746888)"
       x1="56"
       y1="64"
       x2="56"
       y2="16" />
    <linearGradient
       inkscape:collect="always"
       xlink:href="#linearGradient3790"
       id="linearGradient2961"
       gradientUnits="userSpaceOnUse"
       x1="44"
       y1="66"
       x2="52"
       y2="66" />
    <radialGradient
       inkscape:collect="always"
       xlink:href="#linearGradient3905"
       id="radialGradient2963"
       gradientUnits="userSpaceOnUse"
       gradientTransform="matrix(1.1428569,1.5630328e-7,-1.9842221e-7,1.4508217,-6.8571221,-20.529956)"
       cx="48"
       cy="45.167473"
       fx="48"
       fy="45.167473"
       r="7" />
    <linearGradient
       inkscape:collect="always"
       xlink:href="#linearGradient3847"
       id="linearGradient2965"
       gradientUnits="userSpaceOnUse"
       x1="49"
       y1="52"
       x2="49"
       y2="77.079872" />
    <radialGradient
       inkscape:collect="always"
       xlink:href="#linearGradient3847"
       id="radialGradient2967"
       gradientUnits="userSpaceOnUse"
       gradientTransform="matrix(1,0,0,0.83333345,0,6.0582042)"
       cx="48"
       cy="47.930149"
       fx="48"
       fy="47.930149"
       r="6" />
    <linearGradient
       inkscape:collect="always"
       xlink:href="#linearGradient3847"
       id="linearGradient2969"
       gradientUnits="userSpaceOnUse"
       x1="49.400002"
       y1="34"
       x2="49.400002"
       y2="51.5" />
    <linearGradient
       inkscape:collect="always"
       xlink:href="#linearGradient3701"
       id="linearGradient3008"
       gradientUnits="userSpaceOnUse"
       gradientTransform="matrix(1.1402284,0,0,1.1402284,-15.736021,-17.886081)"
       x1="56"
       y1="64"
       x2="56"
       y2="16" />
  </defs>
  <metadata
     id="metadata2413">
    <rdf:RDF>
      <cc:Work
         rdf:about="">
        <dc:format>image/svg+xml</dc:format>
        <dc:type
           rdf:resource="http://purl.org/dc/dcmitype/StillImage" />
        <dc:title></dc:title>
      </cc:Work>
    </rdf:RDF>
  </metadata>
  <g
     id="layer2"
     style="display:none"
     transform="translate(0,-18)">
    <rect
       width="86"
       height="85"
       rx="6"
       ry="6"
       x="5"
       y="7"
       id="rect3745"
       style="opacity:0.9;fill:url(#ButtonShadow);fill-opacity:1;fill-rule:nonzero;stroke:none;filter:url(#filter3174)" />
  </g>
  <g
     id="g3782">
    <path
       d="M 14.836353,0.00125192 A 4.5613698,4.5613698 0 0 0 11.558197,1.4265374 c -15.1015614,15.1015566 -15.1015614,39.7719356 0,54.8734916 A 4.5856221,4.5856221 0 1 0 18.043246,49.81498 C 6.4275795,38.199321 6.4275795,19.527245 18.043246,7.9115864 A 4.5613698,4.5613698 0 0 0 18.684624,2.0679159 4.5613698,4.5613698 0 0 0 14.836353,0.00125192 z m 48.317179,0 A 4.5613698,4.5613698 0 0 0 59.305261,2.0679159 4.5613698,4.5613698 0 0 0 59.94664,7.9115864 c 11.615654,11.6156586 11.615654,30.2877346 0,41.9033936 a 4.5856221,4.5856221 0 0 0 6.485049,6.485049 c 15.101549,-15.101556 15.101549,-39.771935 0,-54.8734916 A 4.5613698,4.5613698 0 0 0 63.153532,0.00125192 z M 25.632891,11.4748 a 4.5613698,4.5613698 0 0 0 -2.814939,1.389654 c -8.867545,8.867538 -8.867545,23.379547 0,32.247084 a 4.5613698,4.5613698 0 1 0 6.449417,-6.449417 c -5.38165,-5.381642 -5.38165,-13.966609 0,-19.348251 a 4.5613698,4.5613698 0 0 0 0.10684,-6.449416 4.5613698,4.5613698 0 0 0 -3.741375,-1.389654 z m 25.797668,0 a 4.5613698,4.5613698 0 0 0 -2.814939,1.389654 4.5613698,4.5613698 0 0 0 0.106839,6.449416 c 5.381639,5.381642 5.381639,13.966609 0,19.348251 a 4.5613698,4.5613698 0 1 0 6.449417,6.449417 c 8.867534,-8.867537 8.867534,-23.379546 0,-32.247084 A 4.5613698,4.5613698 0 0 0 51.430502,11.4748 z"
       inkscape:connector-curvature="0"
       id="path3665"
       style="font-size:medium;font-style:normal;font-variant:normal;font-weight:normal;font-stretch:normal;text-indent:0;text-align:start;text-decoration:none;line-height:normal;letter-spacing:normal;word-spacing:normal;text-transform:none;direction:ltr;block-progression:tb;writing-mode:lr-tb;text-anchor:start;opacity:1;color:#000000;fill:url(#linearGradient3008);fill-opacity:1;stroke:none;stroke-width:3.50000000000000000;marker:none;visibility:visible;display:inline;overflow:visible;enable-background:accumulate;font-family:Abandoned Bitplane;-inkscape-font-specification:Abandoned Bitplane" />
    <path
       d="m 14.765089,0.00125192 c -1.00445,0.05066034 -1.843818,0.43287403 -2.601146,0.96206771 -0.133726,0.0934417 -0.263906,0.18148677 -0.391953,0.28505707 -0.0512,0.043523 -0.0919,0.098413 -0.142529,0.1425286 -0.333585,0.2905792 -0.649599,0.5768917 -0.962068,0.8908034 -0.173052,0.189392 -0.332809,0.3716461 -0.49885,0.5701142 C 9.4213518,3.7449296 8.7170555,4.7230255 7.9949831,5.5242332 7.7546001,5.8548447 7.5137041,6.1855566 7.2823403,6.5219331 7.2382135,6.583551 7.1835965,6.638217 7.1398118,6.7000938 6.7770823,7.2319533 6.4182638,7.7686326 6.0708476,8.30354 5.9923999,8.4242571 5.8992775,8.5393666 5.8214227,8.6598613 5.7305465,8.8084502 5.6606391,8.9732611 5.5719977,9.1230791 5.4142699,9.3860728 5.2594155,9.6403494 5.1087799,9.9069861 5.0228067,10.060907 4.9430021,10.215108 4.859355,10.370204 3.9455417,12.064527 3.1502438,13.831869 2.5076339,15.64376 c -0.3125138,0.881156 -0.5714711,1.770742 -0.8195392,2.672411 -0.010262,0.03652 -0.025655,0.07034 -0.035575,0.106896 -0.2493223,0.916622 -0.4587709,1.846683 -0.6413785,2.779307 -0.16871957,0.861641 -0.31599147,1.729953 -0.42758563,2.601146 -0.0197259,0.15444 -0.0532487,0.308549 -0.0712643,0.463218 -0.069896,0.60142 -0.09977,1.213196 -0.14252855,1.817239 -0.0285057,0.426541 -0.0564413,0.85547 -0.0712643,1.282757 -0.0193839,0.498743 -0.034891,0.997443 -0.0355751,1.496549 0.00114,0.487226 0.0167614,0.974045 0.0355751,1.460918 0.0144809,0.415458 0.0438988,0.832366 0.0712643,1.247125 0.0454951,0.648329 0.1013663,1.278861 0.17816068,1.924135 0.009122,0.07236 0.0266813,0.14148 0.0355751,0.213793 0.23181984,1.861502 0.57700114,3.714307 1.06896414,5.522981 0.010262,0.03656 0.025541,0.07037 0.035575,0.106897 0.2480681,0.901668 0.5070254,1.791254 0.8195392,2.67241 0.3213049,0.905946 0.6797471,1.828896 1.0689641,2.708042 0.3892056,0.879147 0.8258446,1.718353 1.2827569,2.565514 0.1754698,0.321448 0.3488643,0.645725 0.5344821,0.962068 0.081982,0.141822 0.1654472,0.286834 0.249425,0.427586 0.064081,0.105699 0.1129966,0.215603 0.1781607,0.320689 0.063055,0.09749 0.1504417,0.18741 0.2137928,0.285057 0.3984186,0.637968 0.8077378,1.275323 1.2471248,1.888503 0.1411717,0.205248 0.2831871,0.402423 0.4275856,0.605747 0.096691,0.129175 0.1864502,0.264015 0.2850571,0.391953 0.010262,0.01188 0.024971,0.02368 0.035575,0.03563 0.8705872,0.972998 1.6965572,2.142246 2.6367778,3.171261 0.477197,0.479396 0.968556,0.931508 1.49655,1.354021 0.773075,0.538589 1.640743,0.889257 2.67241,0.926435 0.168184,0.0052 0.336995,-0.02238 0.49885,-0.03563 1.673992,-0.253249 3.20622,-1.483761 3.812639,-3.064364 0.07742,-0.201879 0.132552,-0.393522 0.178161,-0.605746 0.04561,-0.212224 0.09646,-0.421374 0.106839,-0.641378 0.02098,-0.44001 -0.039,-0.898257 -0.178161,-1.354022 -0.467151,-1.000336 -1.097937,-1.905799 -1.781606,-2.779306 -0.986173,-1.022607 -1.895391,-2.123014 -2.708043,-3.278157 -0.0846,-0.105711 -0.166473,-0.213836 -0.249425,-0.320689 -0.851374,-1.09656 -1.61462,-2.265082 -2.102296,-3.598846 C 12.175015,41.513206 11.981598,41.024444 11.771819,40.550624 10.819044,38.398688 10.1577,36.15641 9.7764189,33.851783 9.5358079,32.397451 9.3693688,30.943396 9.3488333,29.46903 c -0.0057,-0.20276 0.00114,-0.402939 0,-0.605747 0.00114,-0.213502 -0.0057,-0.427926 0,-0.641378 0.020524,-1.474367 0.1869746,-2.964054 0.4275856,-4.418385 0.4652241,-2.812067 1.3168841,-5.559972 2.6367781,-8.124128 0.487676,-1.333764 1.250922,-2.466653 2.102296,-3.563213 0.07617,-0.111674 0.171616,-0.210089 0.249425,-0.32069 0.807886,-1.148376 1.693011,-2.2606871 2.67241,-3.2781562 C 18.127771,7.6371209 18.783505,6.7467211 19.254567,5.7380261 19.39371,5.2822619 19.453686,4.8240144 19.432728,4.3840048 19.422466,4.164 19.371384,3.9192181 19.325889,3.7069942 19.294076,3.5589789 19.266483,3.4225813 19.219049,3.2794086 19.19978,3.2184862 19.169335,3.1613938 19.147785,3.1012479 18.528162,1.4862067 16.944624,0.25211471 15.22825,0.03688405 15.07311,0.01743176 14.921665,0.00342975 14.765032,0.00125192 z m 48.245914,0 C 61.513245,0.11291448 60.045862,1.01433 59.233997,2.2817087 c -0.07628,0.1318195 -0.149439,0.2538479 -0.213793,0.3919535 -0.0293,0.057867 -0.04458,0.1190558 -0.07126,0.1781607 -0.05975,0.141784 -0.131366,0.2812282 -0.178161,0.4275857 -0.03854,0.1177981 -0.07913,0.2349167 -0.106839,0.3563213 -0.035,0.1529229 -0.0545,0.3053669 -0.07126,0.4632178 -0.04664,0.4380359 -0.0057,0.8909118 0.10684,1.3540213 0.436091,1.1097557 1.085714,2.0850387 1.817239,3.0287316 0.944827,0.9778576 1.815084,2.0356874 2.601146,3.1356284 0.02121,0.02586 0.05006,0.04535 0.07126,0.07126 0.987575,1.210333 1.859131,2.487554 2.387353,3.990799 0.238205,0.462744 0.431565,0.951429 0.641379,1.425286 1.554188,3.510192 2.370044,7.306295 2.422985,11.117227 0.0023,0.08206 -0.0011,0.167347 0,0.249425 0.0011,0.250889 0.0046,0.497392 0,0.748275 -4.67e-4,0.08363 0.0011,0.165806 0,0.249425 -0.05291,3.810931 -0.868797,7.571402 -2.422985,11.081594 -0.209814,0.473858 -0.403174,0.962542 -0.641379,1.425286 -0.499135,1.420478 -1.322357,2.625949 -2.244824,3.777006 -0.05371,0.06707 -0.08814,0.147154 -0.142529,0.213793 -0.834693,1.179344 -1.763261,2.309615 -2.779307,3.349421 -0.689165,0.903578 -1.294763,1.828647 -1.710342,2.886203 -0.112313,0.46311 -0.153509,0.915986 -0.10684,1.354022 0.01676,0.157851 0.03626,0.310294 0.07126,0.463217 0.01357,0.05926 0.0195,0.119736 0.03558,0.178161 0.01676,0.05991 0.05234,0.118853 0.07126,0.178161 0.06237,0.192081 0.160624,0.389127 0.249425,0.570114 0.0046,0.0099 -0.0046,0.02571 0,0.03563 0.07126,0.142554 0.127637,0.257474 0.213793,0.391954 0.818193,1.27724 2.302372,2.180119 3.812638,2.280456 0.03694,-0.0011 0.06978,0.0021 0.10684,0 0.230201,-0.0013 0.449888,9.14e-4 0.677011,-0.03563 0.655654,-0.105505 1.303315,-0.374763 1.852871,-0.748275 0.01904,-0.01697 0.05222,-0.01862 0.07126,-0.03563 0.382319,-0.351545 0.739119,-0.701243 1.104596,-1.068964 0.145892,-0.143703 0.284442,-0.281241 0.427586,-0.427586 0.06408,-0.06677 0.114627,-0.146536 0.178161,-0.213792 0.432135,-0.457487 0.876014,-0.910347 1.282756,-1.389654 0.466525,-0.54977 0.921465,-1.133964 1.354022,-1.710342 1.297648,-1.729136 2.439484,-3.559069 3.420685,-5.48735 0.327063,-0.64276 0.635711,-1.299362 0.926435,-1.959767 0.06864,-0.156047 0.147147,-0.306263 0.213793,-0.463218 0.209084,-0.496602 0.417358,-1.027199 0.605747,-1.532182 0.507572,-1.351622 0.926447,-2.733529 1.282757,-4.133328 0.178149,-0.699899 0.323756,-1.429346 0.463217,-2.137928 0.04435,-0.225466 0.102165,-0.450814 0.142529,-0.677011 0.08575,-0.486163 0.18206,-0.972632 0.249425,-1.460917 0.01334,-0.09557 0.02292,-0.189392 0.03558,-0.285057 0.07617,-0.583244 0.128378,-1.196876 0.178161,-1.781607 0.0023,-0.02384 -0.0023,-0.04742 0,-0.07126 0.05735,-0.684008 0.121799,-1.380834 0.142528,-2.066664 0.001,-0.03545 -9.46e-4,-0.07144 0,-0.106897 0.01916,-0.697149 0.01927,-1.369741 0,-2.066664 -6.5e-4,-0.02355 6.84e-4,-0.04772 0,-0.07126 -0.02052,-0.697374 -0.08301,-1.407246 -0.142528,-2.102296 -0.0023,-0.02374 0.0023,-0.04754 0,-0.07126 -0.05884,-0.69124 -0.118128,-1.377684 -0.213793,-2.066664 -0.0667,-0.47598 -0.165299,-0.951997 -0.249425,-1.425286 -0.04185,-0.237559 -0.09635,-0.475739 -0.142529,-0.712643 -0.139461,-0.708582 -0.285068,-1.402396 -0.463217,-2.102296 -0.492374,-1.93432 -1.109009,-3.82972 -1.888504,-5.66551 C 74.597149,13.421715 74.516239,13.26837 74.448805,13.113879 73.867357,11.793066 73.214668,10.475723 72.489038,9.2299755 71.763397,7.9842281 70.966776,6.7838869 70.101685,5.6311296 69.669128,5.054751 69.214188,4.5061894 68.747663,3.9564192 68.281128,3.4066489 67.786668,2.8738943 67.286746,2.352973 67.141412,2.2015427 67.007276,2.0386257 66.85916,1.8897552 66.493671,1.529776 66.137259,1.163538 65.754564,0.82079108 65.733242,0.80577427 65.70485,0.79978807 65.6833,0.78515894 65.514466,0.67041206 65.331562,0.55517487 65.148818,0.4644697 64.942756,0.36220262 64.7265,0.28524974 64.507439,0.21504474 64.069295,0.07463359 63.613819,0.00383795 63.153418,0.00125192 c -0.04766,0.00193838 -0.09498,-0.00353471 -0.142529,0 z M 15.014514,2.2460766 c 1.899301,0.062097 2.994172,2.7919108 1.425286,4.0620637 -0.585884,0.5691849 -1.14146,1.1679553 -1.674711,1.7816068 -0.483229,0.5560803 -0.950278,1.1212961 -1.389653,1.7103426 -0.127934,0.1715155 -0.232139,0.3603563 -0.356322,0.5344823 -0.05359,0.0751 -0.125185,0.138238 -0.17816,0.213793 -0.332879,0.475876 -0.657125,0.967192 -0.962068,1.460917 -0.851112,1.377967 -1.580049,2.819127 -2.2091925,4.311489 -1.258299,2.984722 -2.0917946,6.146579 -2.4229853,9.371252 -0.066931,0.651885 -0.079132,1.305205 -0.1068394,1.959768 -0.011858,0.392955 -0.038084,0.78266 -0.035575,1.17586 -0.00228,0.387501 0.024173,0.788589 0.035575,1.175861 0.027821,0.654563 0.039908,1.307883 0.1068394,1.959767 0.3311907,3.224673 1.1646863,6.422162 2.4229853,9.406885 0.6148565,1.458466 1.3466325,2.854989 2.1735605,4.204592 0.03307,0.05398 0.03786,0.124383 0.07126,0.17816 0.399285,0.637556 0.839448,1.245051 1.282757,1.852872 0.03512,0.04811 0.07149,0.09463 0.10684,0.142528 0.45527,0.616876 0.927028,1.234503 1.425285,1.817239 0.02189,0.0253 0.04926,0.04603 0.07126,0.07126 0.523228,0.600011 1.065396,1.153011 1.639079,1.710343 1.673479,1.35483 0.313984,4.357438 -1.817239,4.026432 -0.307999,-0.04434 -0.618403,-0.131942 -0.890804,-0.285058 -0.168731,-0.151811 -0.333847,-0.307442 -0.49885,-0.463217 l -0.07126,0.07126 C 10.955871,52.546779 9.1082793,50.09964 7.5673404,47.463259 6.9068859,46.333304 6.2839563,45.166375 5.7501014,43.97131 5.539296,43.499412 5.3351267,43.026489 5.144355,42.546024 5.0916765,42.417601 5.0531368,42.282898 5.0018265,42.154071 4.9736629,42.084083 4.9582698,42.010434 4.9305622,41.940278 4.7968818,41.585804 4.6614113,41.229772 4.5386087,40.871314 4.3043032,40.212295 4.0901569,39.546687 3.8972302,38.875914 3.4109912,37.185373 3.056232,35.449962 2.8282661,33.709254 2.7167518,32.858281 2.6297181,32.000461 2.5788411,31.14374 c -0.00798,-0.118629 0.00684,-0.237626 0,-0.356321 -0.032497,-0.654373 -0.073659,-1.304483 -0.071264,-1.959768 -0.00228,-0.655285 0.038768,-1.305395 0.071264,-1.959767 0.00684,-0.118696 -0.00798,-0.237692 0,-0.356322 0.050854,-0.856721 0.1379677,-1.714541 0.249425,-2.565514 0.2260275,-1.725827 0.589099,-3.418734 1.0689641,-5.095395 0.013227,-0.0475 0.02212,-0.09508 0.035575,-0.142529 0.1631438,-0.560895 0.3423649,-1.121998 0.534482,-1.67471 0.147614,-0.440796 0.2992302,-0.88353 0.4632178,-1.318389 0.027366,-0.06928 0.043443,-0.144671 0.071264,-0.213793 0.038084,-0.09565 0.068072,-0.189626 0.1068394,-0.285057 C 5.7694397,13.536985 6.5577936,11.932177 7.46033,10.370204 7.5213322,10.265006 7.576485,10.154093 7.6384907,10.049515 7.9483477,9.5258534 8.299424,9.0244642 8.6361905,8.5173328 9.358662,7.4293656 10.14355,6.3830019 10.987912,5.3817047 11.684169,4.5560242 12.383973,3.7165014 13.161472,2.9587193 l 0.07126,0.071264 c 0.165003,-0.1557757 0.330119,-0.3114066 0.49885,-0.4632178 0.272401,-0.1531156 0.582805,-0.2407125 0.890804,-0.2850571 0.133201,-0.020684 0.265331,-0.039771 0.391953,-0.035632 z m 47.853961,0.035632 c 0.759734,-0.01626 1.378798,0.2868028 1.924135,0.7126428 l 0.03558,-0.035632 c 0.04732,0.047342 0.09544,0.094924 0.142529,0.1425286 0.210908,0.1802461 0.377746,0.3917038 0.570114,0.6057463 0.06351,0.067159 0.115152,0.1461545 0.178161,0.2137928 1.286052,1.3807288 2.470544,2.8554204 3.527581,4.4183851 0.395352,0.5845814 0.77986,1.1747899 1.140229,1.7816069 0.09783,0.164719 0.189882,0.332576 0.285057,0.49885 0.008,0.01411 0.02759,0.02152 0.03557,0.03563 0.452477,0.773468 0.859516,1.583262 1.247125,2.387353 0.0046,0.0095 -0.0046,0.02612 0,0.03563 1.57022,3.2655 2.621955,6.757339 3.135628,10.33332 0.0011,0.01155 -0.0011,0.02408 0,0.03563 0.254225,1.781928 0.396264,3.57936 0.391953,5.380453 3.5e-5,0.01176 -3.4e-5,0.02388 0,0.03563 -0.0034,0.894537 -0.04059,1.780288 -0.106839,2.672411 -8.21e-4,0.01188 8.21e-4,0.02375 0,0.03563 -0.06716,0.892171 -0.154889,1.787414 -0.285057,2.67241 -0.0011,0.01168 0.0011,0.02397 0,0.03563 -0.513673,3.575981 -1.565408,7.06782 -3.135628,10.33332 -0.0046,0.0098 0.0046,0.02586 0,0.03563 -0.383744,0.808511 -0.80174,1.574273 -1.247125,2.351721 -0.008,0.01401 -0.02737,0.02163 -0.03557,0.03563 -0.09521,0.166274 -0.187237,0.334132 -0.285057,0.49885 -0.360369,0.606817 -0.744877,1.197026 -1.140229,1.781607 -0.511814,0.756785 -1.071712,1.493084 -1.639078,2.209193 -0.580422,0.73259 -1.182371,1.45198 -1.817239,2.137928 -0.29102,0.349238 -0.557971,0.687235 -0.890803,0.962068 -0.02566,0.02123 -0.04515,0.05071 -0.07126,0.07126 -0.54967,0.433898 -1.191607,0.69345 -1.959767,0.677011 -1.649888,-0.169445 -2.622959,-2.127572 -1.745975,-3.527582 2.062331,-2.122315 3.947608,-4.430794 5.451717,-6.983899 0.245354,-0.416485 0.488656,-0.818107 0.712643,-1.247125 0.0046,-0.0096 -0.0046,-0.0261 0,-0.03563 0.228342,-0.438602 0.437323,-0.902013 0.641378,-1.354021 0.190977,-0.397045 0.362411,-0.807305 0.534482,-1.211493 0.557629,-1.372005 1.058942,-2.768567 1.425286,-4.204592 0.394793,-1.547555 0.688561,-3.114991 0.855171,-4.703442 0.0023,-0.02358 -0.0023,-0.04769 0,-0.07126 0.05245,-0.51011 0.07845,-1.020273 0.10684,-1.532182 0.0057,-0.130834 -0.0046,-0.261049 0,-0.391954 0.01482,-0.428592 0.03786,-0.853827 0.03558,-1.282757 0.0023,-0.410976 -0.02178,-0.836458 -0.03558,-1.247125 -0.0057,-0.14235 0.008,-0.285319 0,-0.427585 -0.02383,-0.506988 -0.05895,-0.991353 -0.10684,-1.49655 -0.0023,-0.02322 0.0023,-0.04806 0,-0.07126 C 70.576578,23.996339 70.282878,22.39393 69.888006,20.846052 69.521662,19.410027 69.020349,18.013465 68.46272,16.64146 68.290649,16.237272 68.119215,15.827012 67.928238,15.429967 67.719919,14.968504 67.52047,14.52344 67.28686,14.075946 67.064048,13.643023 66.816995,13.215276 66.574217,12.793189 65.070108,10.240084 63.184831,7.9316054 61.1225,5.8092903 60.245516,4.4092803 61.218621,2.4511535 62.868475,2.2817087 z M 26.131741,11.439168 c -3.351006,0.119279 -5.120754,3.520168 -6.805738,5.950567 -1.013139,1.664751 -1.797205,3.44644 -2.316089,5.309189 -0.166759,0.598627 -0.311032,1.206638 -0.427586,1.817239 -0.0091,0.04569 0.008,0.09678 0,0.142528 -0.08666,0.469823 -0.156508,0.950727 -0.213793,1.425286 -0.02862,0.237305 -0.04994,0.474503 -0.07126,0.712642 -0.03728,0.416622 -0.05621,0.82894 -0.07126,1.247125 -0.01403,0.389648 -0.04093,0.785905 -0.03557,1.175861 0.0023,0.131748 0.0309,0.260277 0.03557,0.391953 0.01585,0.442006 0.03044,0.878171 0.07126,1.318389 0.01642,0.177688 0.01505,0.357255 0.03558,0.534482 0.06191,0.534632 0.15018,1.074785 0.249425,1.603447 0.11896,0.633713 0.254625,1.267587 0.427586,1.888503 0.518884,1.862749 1.30295,3.644438 2.316089,5.309188 1.684984,2.430399 3.454732,5.831288 6.805738,5.950567 2.536564,0.02914 4.417576,-2.145165 4.525281,-4.454017 -0.01026,-0.120783 -0.0138,-0.233576 -0.03557,-0.356321 -0.374701,-1.34301 -1.144413,-2.514276 -1.995399,-3.634478 -0.0057,-0.0075 0.0057,-0.02811 0,-0.03563 -1.413952,-1.858922 -3.007775,-3.614932 -3.135628,-6.128728 -0.139861,-0.651748 -0.217567,-1.30487 -0.249425,-1.959768 -0.01859,-0.236561 -0.03022,-0.475026 -0.03558,-0.712642 1.94e-4,-0.02373 -3.42e-4,-0.04754 0,-0.07127 -0.0046,-0.273279 0.02235,-0.545594 0.03558,-0.819539 0.03181,-0.654898 0.109576,-1.30802 0.249425,-1.959767 0.127853,-2.513883 1.721642,-4.305372 3.135628,-6.16436 0.0057,-0.0065 -0.0057,-0.0291 0,-0.03563 0.850986,-1.120203 1.620698,-2.255836 1.995399,-3.598846 0.01961,-0.110602 0.02531,-0.211671 0.03557,-0.320689 -0.08985,-2.321834 -1.975639,-4.554581 -4.525281,-4.525282 z m 25.797668,0 c -2.597589,-0.12366 -4.511622,2.229385 -4.596546,4.596546 -8.55e-4,0.02384 4.79e-4,0.04742 0,0.07126 5.93e-4,0.01181 -6.96e-4,0.02383 0,0.03563 0.06214,1.063865 0.502795,2.084335 1.389653,2.850571 2.717928,2.55246 4.034869,6.201051 3.9908,9.83447 0.04401,3.633419 -1.272872,7.282011 -3.9908,9.83447 -0.886858,0.766236 -1.327533,1.786706 -1.389653,2.850571 -0.0011,0.0231 9.92e-4,0.04814 0,0.07126 3.08e-4,0.01129 -3.99e-4,0.02438 0,0.03563 0.08404,2.367778 1.998284,4.720237 4.596546,4.596545 0.756496,-0.01083 1.514702,-0.198155 2.17356,-0.570114 4.568793,-3.686321 7.150338,-9.281095 7.625277,-15.072394 0.0057,-0.0956 0.03067,-0.189381 0.03558,-0.285057 0.0091,-0.128563 -0.0068,-0.263254 0,-0.391954 0.01881,-0.351208 0.03238,-0.717258 0.03558,-1.068964 -0.0034,-0.358099 -0.01596,-0.711395 -0.03558,-1.068964 -0.0046,-0.118887 0.0057,-0.237526 0,-0.356321 -0.0057,-0.08364 -0.02896,-0.165867 -0.03558,-0.249425 -0.467299,-5.803805 -3.047203,-11.449857 -7.625277,-15.143659 -0.658858,-0.371958 -1.417064,-0.559266 -2.17356,-0.570114 z m -0.03558,1.959768 c 0.363916,-0.0065 0.748173,0.06955 1.104597,0.285057 4.0017,3.473934 6.182546,8.600883 6.485049,13.825269 0.0068,0.108048 0.0301,0.212536 0.03557,0.320689 0.0034,0.07041 -0.0023,0.143354 0,0.213793 0.02178,0.529855 0.01756,1.073324 0,1.603446 -0.0023,0.06005 0.0034,0.118142 0,0.178161 -0.0046,0.09647 -0.03033,0.188651 -0.03557,0.285057 -0.28874,5.245665 -2.467728,10.373405 -6.485049,13.860902 -1.721072,1.040626 -3.852889,-0.829855 -3.385053,-2.601146 0.03067,-0.292584 0.119051,-0.588361 0.285057,-0.855172 1.898834,-2.12518 3.713781,-4.479738 4.454017,-7.304588 0.224944,-0.711205 0.387222,-1.4115 0.49885,-2.137928 0.0011,-0.01164 -0.0011,-0.02398 0,-0.03563 0.05405,-0.357317 0.114832,-0.710037 0.142528,-1.068964 8.44e-4,-0.01192 -8.21e-4,-0.02372 0,-0.03563 0.026,-0.347573 0.03364,-0.721154 0.03558,-1.068964 -3.5e-5,-0.02391 1.36e-4,-0.04735 0,-0.07126 3.64e-4,-0.347038 -0.01266,-0.687348 -0.03558,-1.033332 -0.0011,-0.02352 0.0023,-0.04774 0,-0.07126 -0.02451,-0.346234 -0.09532,-0.689446 -0.142528,-1.033332 -0.0034,-0.02295 0.0034,-0.04832 0,-0.07127 -0.111628,-0.714805 -0.277463,-1.437954 -0.49885,-2.137928 -0.740236,-2.824849 -2.555183,-5.179407 -4.454017,-7.304588 -0.166006,-0.266811 -0.254362,-0.562587 -0.285057,-0.855171 -0.370951,-1.40447 0.887109,-2.861459 2.280456,-2.886203 z m -25.583874,0.03563 c 1.409755,0.04426 2.164826,1.405879 2.031032,2.636778 0.01642,0.60255 -0.157888,1.203161 -0.677011,1.639078 -3.012974,2.866962 -4.562236,6.93045 -4.632178,11.010331 -8.21e-4,0.04759 4.11e-4,0.09493 0,0.142528 1.26e-4,0.01193 -1.6e-4,0.02371 0,0.03563 -8e-5,0.01193 4.6e-5,0.02371 0,0.03563 0.06157,4.091893 1.610436,8.135026 4.632178,11.01033 0.523365,0.439476 0.697329,1.067199 0.677011,1.674711 0.133794,1.230899 -0.621277,2.556886 -2.031032,2.601146 -2.366601,-0.0044 -3.46813,-2.756981 -4.774707,-4.347121 -1.980975,-3.06973 -2.978789,-6.673609 -3.064364,-10.297688 -0.02303,-0.504003 -0.01266,-0.992293 0,-1.49655 0.09042,-3.61384 1.088907,-7.200869 3.064364,-10.262055 1.306577,-1.59014 2.408106,-4.378306 4.774707,-4.382753 z"
       inkscape:connector-curvature="0"
       id="path3767"
       style="font-size:medium;font-style:normal;font-variant:normal;font-weight:normal;font-stretch:normal;text-indent:0;text-align:start;text-decoration:none;line-height:normal;letter-spacing:normal;word-spacing:normal;text-transform:none;direction:ltr;block-progression:tb;writing-mode:lr-tb;text-anchor:start;opacity:0.05;color:#000000;fill:#000000;fill-opacity:1;stroke:none;stroke-width:3.5;marker:none;visibility:visible;display:inline;overflow:visible;enable-background:accumulate;font-family:Abandoned Bitplane;-inkscape-font-specification:Abandoned Bitplane" />
    <path
       d="M 19.397267,5.203544 A 4.5613698,4.5613698 0 0 1 18.043246,7.9115864 C 12.308011,13.646818 9.4206904,21.101214 9.3490043,28.578226 9.6893055,21.485999 12.598404,14.496655 18.043246,9.0518148 A 4.5613698,4.5613698 0 0 0 19.397267,5.203544 z m 39.195351,0 A 4.5613698,4.5613698 0 0 0 59.94664,9.0518148 C 65.391481,14.496655 68.30058,21.485999 68.640881,28.578226 68.569161,21.101214 65.681863,13.646818 59.94664,7.9115864 A 4.5613698,4.5613698 0 0 1 58.592618,5.203544 z M 30.62139,16.605828 a 4.5613698,4.5613698 0 0 1 -1.354021,2.708042 c -2.840195,2.840197 -4.184102,6.579178 -4.026431,10.262056 0.137488,-3.300841 1.480951,-6.576349 4.026431,-9.121827 a 4.5613698,4.5613698 0 0 0 1.354021,-3.848271 z m 16.747105,0.03563 a 4.5613698,4.5613698 0 0 0 1.354021,3.812639 c 2.545469,2.545478 3.888932,5.820986 4.026432,9.121827 0.157659,-3.682878 -1.186237,-7.421859 -4.026432,-10.262056 A 4.5613698,4.5613698 0 0 1 47.368495,16.64146 z M 0.22717709,29.433397 C 0.07923245,39.566621 3.8622594,49.744326 11.558197,57.440258 a 4.5856221,4.5856221 0 0 0 7.767806,-3.812639 4.5856221,4.5856221 0 0 1 -7.767806,2.67241 C 4.152573,48.894404 0.3695346,39.184374 0.22717709,29.433397 z m 77.53553091,0 c -0.142369,9.750977 -3.925396,19.461007 -11.331019,26.866632 a 4.5856221,4.5856221 0 0 1 -7.803439,-2.601146 4.5856221,4.5856221 0 0 0 7.803439,3.741375 C 74.127615,49.744326 77.910653,39.566621 77.762708,29.433397 z m -61.572333,0.142529 c -0.147751,6.032042 2.050678,12.09895 6.627577,16.67584 a 4.5613698,4.5613698 0 0 0 7.803438,-3.705742 4.5613698,4.5613698 0 0 1 -7.803438,2.565514 C 18.529644,40.823234 16.331067,35.227583 16.190375,29.575926 z m 45.609136,0 c -0.140693,5.651657 -2.339281,11.247308 -6.627578,15.535612 a 4.5613698,4.5613698 0 0 1 -7.803438,-2.636778 4.5613698,4.5613698 0 0 0 7.803438,3.777006 c 4.576888,-4.57689 6.775317,-10.643798 6.627578,-16.67584 z"
       inkscape:connector-curvature="0"
       id="path3745"
       style="font-size:medium;font-style:normal;font-variant:normal;font-weight:normal;font-stretch:normal;text-indent:0;text-align:start;text-decoration:none;line-height:normal;letter-spacing:normal;word-spacing:normal;text-transform:none;direction:ltr;block-progression:tb;writing-mode:lr-tb;text-anchor:start;opacity:0.2;color:#000000;fill:#ffffff;fill-opacity:1;stroke:none;stroke-width:3.5;marker:none;visibility:visible;display:inline;overflow:visible;enable-background:accumulate;font-family:Abandoned Bitplane;-inkscape-font-specification:Abandoned Bitplane" />
    <path
       d="M 14.836353,0.00125192 A 4.5613698,4.5613698 0 0 0 11.558197,1.4265374 C 3.8622594,9.1224691 0.07923245,19.300174 0.22717709,29.433397 0.3695346,19.682421 4.152573,9.9723908 11.558197,2.5667658 a 4.5613698,4.5613698 0 0 1 3.278156,-1.4252855 4.5613698,4.5613698 0 0 1 3.848271,2.066664 4.5613698,4.5613698 0 0 1 0.712643,1.9953997 4.5613698,4.5613698 0 0 0 -0.712643,-3.1356281 4.5613698,4.5613698 0 0 0 -3.848271,-2.06666398 z m 48.317179,0 A 4.5613698,4.5613698 0 0 0 59.305261,2.0679159 4.5613698,4.5613698 0 0 0 58.592618,5.203544 4.5613698,4.5613698 0 0 1 59.305261,3.2081443 4.5613698,4.5613698 0 0 1 63.153532,1.1414803 4.5613698,4.5613698 0 0 1 66.431689,2.5667658 C 73.837312,9.9723908 77.620339,19.682421 77.762708,29.433397 77.910653,19.300174 74.127615,9.1224691 66.431689,1.4265374 A 4.5613698,4.5613698 0 0 0 63.153532,0.00125192 z M 26.131741,11.439168 a 4.5613698,4.5613698 0 0 0 -0.49885,0.03563 4.5613698,4.5613698 0 0 0 -2.814939,1.389654 c -4.579237,4.579233 -6.777814,10.676394 -6.627577,16.711472 0.138503,-5.654791 2.336932,-11.280598 6.627577,-15.571244 a 4.5613698,4.5613698 0 0 1 2.814939,-1.389653 4.5613698,4.5613698 0 0 1 3.741375,1.389653 4.5613698,4.5613698 0 0 1 1.247124,2.601146 4.5613698,4.5613698 0 0 0 -1.247124,-3.741374 4.5613698,4.5613698 0 0 0 -3.242525,-1.425286 z m 25.797668,0 a 4.5613698,4.5613698 0 0 0 -0.49885,0.03563 4.5613698,4.5613698 0 0 0 -2.814939,1.389654 4.5613698,4.5613698 0 0 0 -1.247125,3.777006 4.5613698,4.5613698 0 0 1 1.247125,-2.636778 4.5613698,4.5613698 0 0 1 2.814939,-1.389653 4.5613698,4.5613698 0 0 1 3.741374,1.389653 c 4.290645,4.290646 6.489074,9.916453 6.627578,15.571244 0.150236,-6.035078 -2.048352,-12.132239 -6.627578,-16.711472 A 4.5613698,4.5613698 0 0 0 51.929409,11.439168 z M 25.240938,29.575926 c -0.153201,3.67779 1.190261,7.390259 4.026431,10.226424 a 4.5613698,4.5613698 0 0 1 1.354021,2.743674 4.5613698,4.5613698 0 0 0 -1.354021,-3.883903 c -2.541455,-2.541446 -3.885351,-5.790705 -4.026431,-9.086195 z m 27.50801,0 c -0.141092,3.29549 -1.484988,6.544749 -4.026432,9.086195 a 4.5613698,4.5613698 0 0 0 -1.354021,3.812639 4.5613698,4.5613698 0 0 1 1.354021,-2.67241 c 2.836159,-2.836165 4.179621,-6.548634 4.026432,-10.226424 z M 9.3490043,30.288569 c 0.07172,7.477012 2.9590067,14.931408 8.6942417,20.66664 a 4.5856221,4.5856221 0 0 1 1.282757,2.601146 4.5856221,4.5856221 0 0 0 -1.282757,-3.741375 C 12.598404,44.37014 9.6893055,37.380796 9.3490043,30.288569 z m 59.2918767,0 C 68.30058,37.380796 65.391481,44.37014 59.94664,49.81498 a 4.5856221,4.5856221 0 0 0 -1.31839,3.883903 4.5856221,4.5856221 0 0 1 1.31839,-2.743674 c 5.735223,-5.735232 8.622544,-13.189628 8.694241,-20.66664 z"
       inkscape:connector-curvature="0"
       id="path3754"
       style="font-size:medium;font-style:normal;font-variant:normal;font-weight:normal;font-stretch:normal;text-indent:0;text-align:start;text-decoration:none;line-height:normal;letter-spacing:normal;word-spacing:normal;text-transform:none;direction:ltr;block-progression:tb;writing-mode:lr-tb;text-anchor:start;opacity:0.3;color:#000000;fill:#000000;fill-opacity:1;stroke:none;stroke-width:3.5;marker:none;visibility:visible;display:inline;overflow:visible;enable-background:accumulate;font-family:Abandoned Bitplane;-inkscape-font-specification:Abandoned Bitplane" />
    <path
       d="m 14.836353,0.00125192 a 4.5613698,4.5613698 0 0 0 -1.354021,0.21379282 4.5856221,4.5856221 0 0 0 -0.391953,0.10689641 4.5613698,4.5613698 0 0 0 -0.03557,0.0356321 4.5613698,4.5613698 0 0 0 -1.49655,1.06896411 C 7.3109372,5.6738506 4.2589905,10.664712 2.4007945,16.000082 1.9955117,17.16373 1.6234552,18.336927 1.3318304,19.527663 c -0.0057,0.0225 0.0057,0.04876 0,0.07127 -0.1474772,0.606835 -0.2739741,1.240779 -0.39195355,1.852871 -0.109804,0.578051 -0.23716751,1.16431 -0.32068924,1.745974 -0.003421,0.02343 0.003421,0.04783 0,0.07126 -0.0840348,0.59292 -0.15704366,1.186005 -0.21379283,1.781607 -0.00228,0.0235 0.00228,0.04776 0,0.07126 -0.0556431,0.595514 -0.11415966,1.184493 -0.14252855,1.781607 -0.00114,0.03494 0.00228,0.07195 0,0.106896 -0.0262252,0.585783 -0.0355751,1.195333 -0.0355751,1.781607 -4.561e-5,0.02389 0,0.04738 0,0.07126 0.001083,0.597544 0.006841,1.184625 0.0355751,1.781607 0.001083,0.02388 -0.00114,0.04739 0,0.07126 0.0294179,0.597071 0.0857452,1.186179 0.14252855,1.781607 0.003421,0.03486 -0.003421,0.07205 0,0.106897 0.0572395,0.583725 0.13033951,1.164876 0.21379283,1.745974 0.004561,0.0351 -0.004561,0.07181 0,0.106897 0.085061,0.581478 0.20931173,1.168168 0.32068924,1.745975 0.004561,0.02328 -0.004561,0.04798 0,0.07126 0.23370125,1.200902 0.54348985,2.38489 0.89080345,3.563214 0.00684,0.02228 -0.00684,0.049 0,0.07126 1.7739559,5.979785 5.025454,11.617406 9.7275737,16.319519 a 4.5613698,4.5613698 0 0 0 1.49655,1.033332 4.5856221,4.5856221 0 0 0 0.285057,0.106896 4.5613698,4.5613698 0 0 0 0.142528,0.07126 4.5856221,4.5856221 0 0 0 0.463218,0.106896 4.5613698,4.5613698 0 0 0 0.427586,0.07126 4.5856221,4.5856221 0 0 0 0.49885,0.03563 4.5613698,4.5613698 0 0 0 0.855171,-0.106896 4.5856221,4.5856221 0 0 0 0.03557,0 4.5613698,4.5613698 0 0 0 0.106839,-0.03563 4.5856221,4.5856221 0 0 0 0.356322,-0.106897 4.5856221,4.5856221 0 0 0 0.427585,-0.142528 4.5856221,4.5856221 0 0 0 1.745975,-1.318389 4.5613698,4.5613698 0 0 0 0.03558,-0.07126 4.5856221,4.5856221 0 0 0 -0.391953,-6.057464 c -3.629894,-3.629893 -6.121544,-7.965102 -7.482749,-12.542512 -0.0068,-0.02222 0.0068,-0.04902 0,-0.07127 -0.273313,-0.927069 -0.496661,-1.834804 -0.6770107,-2.779306 -0.086201,-0.443185 -0.1836794,-0.872462 -0.2494249,-1.318389 -0.00342,-0.02368 0.00342,-0.04758 0,-0.07126 -0.063055,-0.434708 -0.1345926,-0.881806 -0.1781607,-1.318389 -0.00342,-0.03516 0.00342,-0.07172 0,-0.106896 -0.043101,-0.447485 -0.084263,-0.869721 -0.1068394,-1.318389 -0.00114,-0.02364 0.00107,-0.04762 0,-0.07126 -0.022691,-0.472816 0,-0.95204 0,-1.425286 0.00113,-0.473113 -0.023831,-0.952646 0,-1.425285 0.02155,-0.449307 0.064879,-0.905863 0.1068394,-1.354022 0.00228,-0.02379 -0.00228,-0.04748 0,-0.07126 0.042074,-0.436703 0.1166681,-0.883506 0.1781607,-1.318389 0.00456,-0.03416 -0.00456,-0.07276 0,-0.106896 0.064651,-0.446051 0.1642499,-0.875043 0.2494249,-1.31839 0.00456,-0.02295 -0.00456,-0.04832 0,-0.07126 0.086315,-0.443405 0.1782637,-0.878469 0.2850567,-1.318389 0.0057,-0.02246 -0.0057,-0.04881 0,-0.07126 0.221433,-0.902824 0.511644,-1.789204 0.81954,-2.672411 1.427041,-4.09352 3.770883,-7.939847 7.055163,-11.2241228 A 4.5856221,4.5856221 0 0 0 18.435085,1.7828588 4.5856221,4.5856221 0 0 0 18.39951,1.7115945 4.5613698,4.5613698 0 0 0 18.150085,1.4265374 4.5856221,4.5856221 0 0 0 16.653535,0.39320543 4.5856221,4.5856221 0 0 0 16.22595,0.21504474 4.5856221,4.5856221 0 0 0 15.370779,0.03688405 a 4.5613698,4.5613698 0 0 0 -0.03558,0 4.5856221,4.5856221 0 0 0 -0.49885,-0.03563213 z m 48.103386,0 A 4.5856221,4.5856221 0 0 0 62.690314,0.03688405 4.5613698,4.5613698 0 0 0 62.476521,0.07251619 4.5856221,4.5856221 0 0 0 62.013304,0.14378047 4.5856221,4.5856221 0 0 0 61.585718,0.28630902 4.5856221,4.5856221 0 0 0 61.158132,0.4644697 4.5613698,4.5613698 0 0 0 60.979972,0.53573398 4.5856221,4.5856221 0 0 0 60.766179,0.67826253 4.5613698,4.5613698 0 0 0 60.588018,0.78515894 4.5856221,4.5856221 0 0 0 60.374225,0.96331963 4.5856221,4.5856221 0 0 0 59.94664,7.8403222 c 3.284279,3.2842758 5.628121,7.1306028 7.055163,11.2241228 0.307896,0.883207 0.598095,1.769587 0.819539,2.672411 0.0057,0.02245 -0.0057,0.0488 0,0.07126 0.106839,0.43992 0.198776,0.874984 0.285057,1.318389 0.0046,0.02294 -0.0046,0.04831 0,0.07126 0.08518,0.443347 0.184751,0.872339 0.249425,1.31839 0.0046,0.03414 -0.0046,0.07274 0,0.106896 0.06146,0.434883 0.136143,0.881686 0.178161,1.318389 0.0023,0.02379 -0.0023,0.04748 0,0.07126 0.04207,0.448159 0.08529,0.904715 0.106839,1.354022 0.0011,0.0235 -0.0011,0.04775 0,0.07126 0.02052,0.449214 0,0.904437 0,1.354021 5.7e-5,0.02366 0,0.04761 0,0.07126 -0.0011,0.449583 0.02155,0.904847 0,1.354022 -0.0011,0.02365 0.0011,0.04763 0,0.07126 -0.02258,0.448668 -0.06385,0.870904 -0.106839,1.318389 -0.0034,0.03518 0.0034,0.07173 0,0.106896 -0.04356,0.436583 -0.115129,0.883681 -0.178161,1.318389 -0.0034,0.02368 0.0034,0.04758 0,0.07126 -0.06579,0.445927 -0.16319,0.875204 -0.249425,1.318389 -0.18035,0.944502 -0.403698,1.852237 -0.677011,2.779306 -0.0068,0.02225 0.0068,0.04904 0,0.07127 -1.361204,4.57741 -3.852854,8.912619 -7.482748,12.542512 a 4.5856221,4.5856221 0 0 0 0.106839,6.591946 4.5856221,4.5856221 0 0 0 0.320689,0.285057 4.5856221,4.5856221 0 0 0 0.391954,0.249425 4.5613698,4.5613698 0 0 0 0.285057,0.17816 4.5856221,4.5856221 0 0 0 0.534539,0.249425 4.5613698,4.5613698 0 0 0 0.213793,0.07126 4.5856221,4.5856221 0 0 0 0.67701,0.142528 4.5613698,4.5613698 0 0 0 0.213793,0.03563 4.5856221,4.5856221 0 0 0 0.712643,0.03563 4.5613698,4.5613698 0 0 0 0.213793,-0.03563 4.5856221,4.5856221 0 0 0 0.463217,-0.07126 4.5613698,4.5613698 0 0 0 0.855172,-0.285057 4.5613698,4.5613698 0 0 0 1.49655,-1.033332 c 4.702119,-4.702113 7.953617,-10.339734 9.727573,-16.319519 0.0068,-0.02227 -0.0068,-0.04898 0,-0.07126 0.347314,-1.178324 0.657091,-2.362312 0.890804,-3.563214 0.0046,-0.02328 -0.0046,-0.04798 0,-0.07126 0.1114,-0.577807 0.235605,-1.164497 0.320689,-1.745975 0.0046,-0.03509 -0.0046,-0.0718 0,-0.106897 0.08346,-0.581098 0.156576,-1.162249 0.213793,-1.745974 0.0034,-0.03485 -0.0034,-0.07204 0,-0.106897 0.05678,-0.595428 0.11311,-1.184536 0.142528,-1.781607 0.0011,-0.02388 -0.0011,-0.04739 0,-0.07126 0.02896,-0.608917 0.03512,-1.207749 0.03558,-1.817239 -5.93e-4,-0.644466 -0.0034,-1.280344 -0.03558,-1.924135 -0.02839,-0.597114 -0.08688,-1.186093 -0.142528,-1.781607 -0.0023,-0.0235 0.0023,-0.04776 0,-0.07126 -0.05678,-0.595602 -0.129747,-1.188687 -0.213793,-1.781607 -0.0034,-0.02343 0.0034,-0.04783 0,-0.07126 -0.08358,-0.581664 -0.210874,-1.167923 -0.320689,-1.745974 -0.11798,-0.612092 -0.244477,-1.246036 -0.391954,-1.852871 -0.0057,-0.02251 0.0057,-0.04877 0,-0.07127 C 76.366487,18.336927 75.994419,17.16373 75.589148,16.000082 73.730952,10.664712 70.679005,5.6738506 66.431689,1.4265374 A 4.5613698,4.5613698 0 0 0 65.754678,0.82079108 4.5613698,4.5613698 0 0 0 65.362724,0.57136612 4.5613698,4.5613698 0 0 0 64.721346,0.28630902 4.5613698,4.5613698 0 0 0 64.079967,0.10814833 4.5613698,4.5613698 0 0 0 63.61675,0.03688405 4.5613698,4.5613698 0 0 0 63.189164,0.00125192 a 4.5856221,4.5856221 0 0 0 -0.03558,0 4.5613698,4.5613698 0 0 0 -0.213793,0 z M 14.480032,1.1058482 c 0.09441,-0.010262 0.08335,0.00547 0.178161,0 0.09475,-0.00547 0.08324,7.126e-4 0.17816,0 0.117752,-7.617e-4 0.09624,-0.00661 0.213793,0 0.117569,0.00661 0.09681,0.021733 0.213793,0.035632 0.116931,0.013899 0.09795,-0.021174 0.213793,0 0.115836,0.021174 0.09954,0.042907 0.213793,0.071264 0.114285,0.028358 0.10148,2.03e-4 0.213793,0.035632 0.112312,0.035427 0.103874,0.028905 0.213792,0.071264 0.109918,0.042359 0.07115,0.057764 0.178161,0.1068964 0.107068,0.049133 0.110032,0.015553 0.213793,0.071264 0.103761,0.055712 0.07811,0.044822 0.178161,0.1068964 0.100112,0.062074 0.0821,0.074331 0.17816,0.1425286 0.09601,0.068197 0.08666,0.032838 0.178161,0.1068964 0.09156,0.074058 0.09145,0.062906 0.178161,0.1425285 0.08677,0.079622 0.06089,0.093282 0.142528,0.1781607 0.08164,0.084879 0.06636,0.052724 0.142529,0.1425286 0.07617,0.089804 0.07206,0.083784 0.142528,0.1781606 0.07047,0.094377 0.04253,0.079577 0.10684,0.1781607 0.09202,0.1371456 0.09851,0.1047642 0.17816,0.249425 0.0797,0.1446642 0.07583,0.1339814 0.142529,0.2850571 0.0667,0.1510757 0.05359,0.1287284 0.106839,0.2850571 0.05325,0.1563287 0.03193,0.1246703 0.07127,0.2850571 0.03934,0.1603868 0.04607,0.1218414 0.07126,0.2850571 0.0252,0.1632157 0.02474,0.1558943 0.03558,0.3206892 0.0114,0.164795 0.0034,0.1199441 0,0.2850571 -0.0034,0.1651131 -0.01756,0.1565237 -0.03558,0.3206893 -0.01802,0.1641655 -0.0034,0.1230945 -0.03557,0.2850571 -0.03227,0.1619626 -0.02497,0.1621712 -0.07126,0.3206892 -0.04629,0.158518 -0.04686,0.1311958 -0.10684,0.2850571 -0.05998,0.1538613 -0.03364,0.1014005 -0.106839,0.249425 -0.0732,0.1480256 -0.05667,0.1440006 -0.142529,0.2850571 -0.08586,0.1410565 -0.08027,0.1164173 -0.178161,0.2494249 -0.09794,0.1330077 -0.06898,0.1254844 -0.17816,0.249425 -0.10912,0.1239405 -0.09418,0.099873 -0.213793,0.2137928 a 1.099076,1.099076 0 0 0 -0.03557,0 c -3.384016,3.3840116 -5.824082,7.3578236 -7.3045884,11.5804446 -0.3290015,0.93836 -0.6201702,1.890604 -0.8551713,2.850571 -0.1076375,0.446444 -0.1976814,0.904104 -0.2850571,1.354021 -0.00456,0.02326 0.00456,0.04799 0,0.07127 -0.088482,0.461253 -0.1822655,0.925559 -0.2494249,1.389653 -0.00342,0.02309 0.00342,0.04818 0,0.07126 -0.066019,0.463892 -0.1334181,0.923743 -0.1781607,1.389654 -0.00228,0.02352 0.00228,0.04774 0,0.07126 -0.043671,0.465771 -0.084491,0.92268 -0.1068394,1.389653 -0.025769,0.501671 -0.034435,0.994352 -0.035575,1.49655 0,0.491237 0.012086,0.970131 0.035575,1.460918 0.00108,0.02393 -0.00114,0.04734 0,0.07126 0.023489,0.46693 0.062142,0.923965 0.1068394,1.389653 0.00342,0.03479 -0.00342,0.07212 0,0.106897 0.045153,0.454026 0.1127686,0.90196 0.1781607,1.354021 0.00456,0.03514 -0.0057,0.07177 0,0.106896 0.067045,0.452368 0.1621063,0.904401 0.2494249,1.354022 0.00684,0.03443 -0.00684,0.07248 0,0.106896 0.088938,0.449679 0.1758347,0.90787 0.2850571,1.354021 0.0057,0.02309 -0.0057,0.04819 0,0.07126 0.1131107,0.457472 0.2574978,0.901072 0.3919536,1.354022 0.00684,0.0221 -0.00684,0.04918 0,0.07126 0.1356301,0.453315 0.3061513,0.906059 0.4632177,1.354021 1.4805064,4.222622 3.9205724,8.196433 7.3045884,11.580445 a 1.099076,1.099076 0 0 0 0.03557,0 c 0.119564,0.11392 0.104673,0.08985 0.213793,0.213793 0.10912,0.12394 0.08027,0.116417 0.17816,0.249425 0.09795,0.133007 0.09225,0.108367 0.178161,0.249425 0.08586,0.141056 0.06933,0.137031 0.142529,0.285057 0.0732,0.148024 0.04686,0.09556 0.106839,0.249425 0.05998,0.153861 0.06055,0.126539 0.10684,0.285057 0.04629,0.158518 0.03899,0.158726 0.07126,0.320689 0.03227,0.161963 0.01756,0.120892 0.03557,0.285057 0.01802,0.164166 0.03204,0.155576 0.03558,0.320689 0.0034,0.165113 0.0114,0.120263 0,0.285057 -0.0114,0.164795 -0.01026,0.157474 -0.03558,0.32069 -0.0252,0.163215 -0.03193,0.12467 -0.07126,0.285057 -0.03934,0.160387 -0.01802,0.128728 -0.07127,0.285057 -0.05325,0.156329 -0.04014,0.133981 -0.106839,0.285057 -0.0667,0.151076 -0.06283,0.140393 -0.142529,0.285057 -0.0797,0.144661 -0.08609,0.112278 -0.17816,0.249425 -0.06442,0.09858 -0.03649,0.08378 -0.10684,0.178161 -0.07047,0.09438 -0.06636,0.08836 -0.142528,0.17816 -0.07617,0.0898 -0.06089,0.05765 -0.142529,0.142529 -0.08164,0.08488 -0.05576,0.09854 -0.142528,0.178161 -0.08677,0.07962 -0.08666,0.06847 -0.178161,0.142528 -0.09156,0.07406 -0.0821,0.0387 -0.178161,0.106897 -0.09601,0.0682 -0.0781,0.08045 -0.17816,0.142528 -0.100112,0.06207 -0.07446,0.05118 -0.178161,0.106897 -0.103761,0.05571 -0.106725,0.02213 -0.213793,0.07126 -0.107067,0.04913 -0.0683,0.06454 -0.178161,0.106896 -0.109918,0.04236 -0.10148,0.03584 -0.213792,0.07126 -0.112313,0.03543 -0.09954,0.0073 -0.213793,0.03563 -0.114297,0.02836 -0.09795,0.05009 -0.213793,0.07126 -0.115836,0.02117 -0.0968,-0.0139 -0.213793,0 -0.116942,0.0139 -0.09624,0.02902 -0.213793,0.03563 -0.11758,0.0066 -0.09601,7.62e-4 -0.213793,0 -0.09498,-7.13e-4 -0.08335,0.0055 -0.17816,0 -0.09475,-0.0055 -0.08381,0.01026 -0.178161,0 -0.09441,-0.01026 -0.0488,-0.02065 -0.142528,-0.03563 -0.09373,-0.01498 -0.08529,-0.01595 -0.178161,-0.03563 -0.09293,-0.01968 -0.08631,-0.01129 -0.178161,-0.03563 -0.09179,-0.02434 -0.08768,-0.0067 -0.178161,-0.03563 -0.09042,-0.02892 -0.0537,-0.03783 -0.142528,-0.07126 -0.08882,-0.03343 -0.0911,-0.0334 -0.178161,-0.07126 -0.08711,-0.03787 -0.05747,-0.02906 -0.142528,-0.07126 -0.08506,-0.0422 -0.09532,-0.02485 -0.178161,-0.07127 -0.0829,-0.04642 -0.06214,-0.05636 -0.142529,-0.106896 -0.08039,-0.05054 -0.06476,-0.01675 -0.142528,-0.07126 -0.07776,-0.05452 -0.06762,-0.04854 -0.142529,-0.106897 -0.07491,-0.05836 -0.07069,-0.04484 -0.142528,-0.106896 -0.07184,-0.06205 -0.0382,-0.07694 -0.10684,-0.142529 -0.05769,-0.0551 -0.06476,-0.07085 -0.106839,-0.106896 l -0.03557,0 C 8.2067349,51.339258 5.2355163,46.461796 3.4342405,41.263267 3.2409604,40.708679 3.0308049,40.149987 2.8641263,39.588557 c -0.00684,-0.02224 0.00684,-0.04902 0,-0.07127 -0.1654585,-0.560943 -0.3242924,-1.107988 -0.4632178,-1.67471 -0.0057,-0.02249 0.0057,-0.04877 0,-0.07126 C 2.2630321,37.2044 2.1202983,36.632624 2.008955,36.060975 c -0.00456,-0.02319 0.00456,-0.04807 0,-0.07126 -0.1101461,-0.571312 -0.2013301,-1.135353 -0.2850571,-1.710343 -0.00342,-0.0236 0.00342,-0.04766 0,-0.07126 -0.080956,-0.563736 -0.1582181,-1.144068 -0.2137928,-1.710343 -0.00342,-0.03515 0.00342,-0.07173 0,-0.106896 -0.053933,-0.566135 -0.1139088,-1.142674 -0.1425286,-1.710343 -0.00114,-0.03546 0.00114,-0.07144 0,-0.106896 -0.02862,-0.602986 -0.035575,-1.178056 -0.035575,-1.781607 0.00112,-0.603415 0.0057,-1.214434 0.035575,-1.817239 0.027594,-0.579483 0.088482,-1.168039 0.1425286,-1.745975 0.00228,-0.0237 -0.00228,-0.04756 0,-0.07126 0.055073,-0.577578 0.1322551,-1.135355 0.2137928,-1.710343 0.00342,-0.02334 -0.00342,-0.04792 0,-0.07126 0.08107,-0.564101 0.1785142,-1.149732 0.2850571,-1.710342 0.1151175,-0.605791 0.2470761,-1.181043 0.3919535,-1.781607 0.0057,-0.02247 -0.0057,-0.0488 0,-0.07127 C 3.9757464,13.337213 7.3070149,7.2170049 12.342275,2.1748123 l 0.03557,0 c 0.04207,-0.036043 0.04926,-0.051801 0.106839,-0.1068964 0.06864,-0.065586 0.035,-0.080477 0.10684,-0.1425286 0.07183,-0.062051 0.06761,-0.048539 0.142528,-0.1068964 0.07491,-0.058357 0.06476,-0.052382 0.142529,-0.1068964 0.07776,-0.054514 0.06214,-0.020729 0.142528,-0.071264 0.08039,-0.050535 0.05963,-0.060478 0.142529,-0.1068964 0.0829,-0.046419 0.09304,-0.029064 0.178161,-0.071264 0.08506,-0.0422 0.05541,-0.033397 0.142528,-0.071264 0.08711,-0.037867 0.08928,-0.037833 0.178161,-0.071264 0.08882,-0.033432 0.05211,-0.042348 0.142528,-0.071264 0.09042,-0.028916 0.08632,-0.011288 0.178161,-0.035632 0.09179,-0.024332 0.08529,-0.015952 0.178161,-0.035632 0.09293,-0.01968 0.08438,-0.02065 0.178161,-0.035632 0.09373,-0.014983 0.04812,-0.025381 0.142528,-0.035632 z m 48.459707,0 c 0.11758,-0.00661 0.09601,-7.617e-4 0.213793,0 0.09498,7.126e-4 0.08335,-0.00547 0.178161,0 0.09475,0.00547 0.08381,-0.010262 0.17816,0 0.09441,0.010262 0.0488,0.020649 0.142529,0.035632 0.09373,0.014983 0.08529,0.015952 0.178161,0.035632 0.09293,0.01968 0.08631,0.011288 0.17816,0.035632 0.09179,0.024333 0.08768,0.00673 0.178161,0.035632 0.09042,0.028916 0.05359,0.037833 0.142528,0.071264 0.08894,0.033431 0.0911,0.033397 0.178161,0.071264 0.08711,0.037867 0.05747,0.029064 0.142529,0.071264 0.08506,0.0422 0.09532,0.024846 0.17816,0.071264 0.08278,0.046419 0.06214,0.056361 0.142529,0.1068964 0.08039,0.050535 0.06476,0.01675 0.142528,0.071264 0.07776,0.054514 0.06762,0.04854 0.142529,0.1068964 0.07491,0.058357 0.07069,0.044845 0.142529,0.1068964 0.07183,0.062051 0.0382,0.076943 0.106839,0.1425286 0.0577,0.055096 0.06477,0.070854 0.106839,0.1068964 0.008,0.00684 0.0252,-0.01106 0.03558,0 5.03526,5.0421926 8.366517,11.1624007 9.941366,17.6379077 0.0057,0.02246 -0.0057,0.04879 0,0.07127 0.144866,0.600564 0.276825,1.175816 0.391953,1.781607 0.106498,0.56061 0.203987,1.146241 0.285057,1.710342 0.0034,0.02334 -0.0034,0.04792 0,0.07126 0.08153,0.574988 0.15872,1.132765 0.213793,1.710343 0.0023,0.02371 -0.0023,0.04756 0,0.07126 0.05405,0.577936 0.114981,1.166492 0.142529,1.745975 0.03033,0.614623 0.03512,1.237626 0.03557,1.852871 -5.59e-4,0.591485 -0.008,1.155045 -0.03557,1.745975 -0.0011,0.03546 0.0011,0.07143 0,0.106896 -0.02862,0.567669 -0.0886,1.144208 -0.142529,1.710343 -0.0034,0.03516 0.0034,0.07174 0,0.106896 -0.05553,0.566275 -0.132779,1.146607 -0.213793,1.710343 -0.0034,0.0236 0.0034,0.04766 0,0.07126 -0.08369,0.57499 -0.174854,1.139031 -0.285057,1.710343 -0.0046,0.02319 0.0046,0.04807 0,0.07126 -0.1114,0.571649 -0.254077,1.143425 -0.391953,1.710343 -0.0057,0.0225 0.0057,0.04878 0,0.07126 -0.138926,0.566722 -0.297759,1.113767 -0.463218,1.67471 -0.0068,0.02225 0.0068,0.04903 0,0.07127 -0.16669,0.56143 -0.376834,1.120122 -0.570114,1.67471 -1.801287,5.198529 -4.772495,10.075991 -8.908034,14.217223 l -0.03558,0 c -0.04207,0.03604 -0.04926,0.0518 -0.106839,0.106896 -0.06864,0.06559 -0.03512,0.08048 -0.106839,0.142529 -0.07184,0.06205 -0.06762,0.04854 -0.142529,0.106896 -0.07491,0.05836 -0.06476,0.05238 -0.142529,0.106897 -0.07776,0.05451 -0.06214,0.02073 -0.142528,0.07126 -0.08039,0.05053 -0.05975,0.06048 -0.142529,0.106896 -0.08289,0.04642 -0.09304,0.02907 -0.17816,0.07127 -0.08506,0.0422 -0.05541,0.0334 -0.142529,0.07126 -0.087,0.03787 -0.08917,0.03783 -0.178161,0.07126 -0.08894,0.03343 -0.05211,0.04235 -0.142528,0.07126 -0.09053,0.0289 -0.08631,0.01129 -0.178161,0.03563 -0.09179,0.02434 -0.08517,0.01595 -0.17816,0.03563 -0.09282,0.01968 -0.08438,0.02065 -0.178161,0.03563 -0.09373,0.01498 -0.04812,0.02537 -0.142529,0.03563 -0.09441,0.01026 -0.08335,-0.0055 -0.17816,0 -0.09475,0.0055 -0.08312,-7.13e-4 -0.178161,0 -0.117786,7.62e-4 -0.09624,0.0066 -0.213793,0 -0.117557,-0.0066 -0.09681,-0.02173 -0.213793,-0.03563 -0.116873,-0.0139 -0.09795,0.02117 -0.213793,0 -0.115847,-0.02117 -0.09954,-0.04291 -0.213792,-0.07126 -0.114251,-0.02833 -0.101481,-2.06e-4 -0.213793,-0.03563 -0.112313,-0.03543 -0.103875,-0.02891 -0.213793,-0.07126 -0.109918,-0.04236 -0.07115,-0.05776 -0.178161,-0.106896 -0.107067,-0.04913 -0.110032,-0.01555 -0.213793,-0.07126 -0.10376,-0.05571 -0.07799,-0.04482 -0.17816,-0.106897 -0.1,-0.06207 -0.08221,-0.07433 -0.178161,-0.142528 -0.09589,-0.0682 -0.08666,-0.03284 -0.178161,-0.106897 -0.09156,-0.07406 -0.09145,-0.06291 -0.17816,-0.142528 -0.08677,-0.07962 -0.06089,-0.09328 -0.142529,-0.178161 -0.08164,-0.08488 -0.06636,-0.05272 -0.142528,-0.142529 -0.07617,-0.0898 -0.07206,-0.08378 -0.142529,-0.17816 -0.07035,-0.09438 -0.04253,-0.07958 -0.106839,-0.178161 -0.09202,-0.137147 -0.0984,-0.104764 -0.178161,-0.249425 -0.0797,-0.144664 -0.07583,-0.133981 -0.142529,-0.285057 -0.0667,-0.151076 -0.05359,-0.128728 -0.106839,-0.285057 -0.05325,-0.156329 -0.03193,-0.12467 -0.07126,-0.285057 -0.03934,-0.160387 -0.04607,-0.121842 -0.07127,-0.285057 -0.02531,-0.163216 -0.02417,-0.155895 -0.03558,-0.32069 -0.0114,-0.164794 -0.0034,-0.119944 0,-0.285057 0.0034,-0.165113 0.01767,-0.156523 0.03558,-0.320689 0.0179,-0.164165 0.0034,-0.123094 0.03558,-0.285057 0.03227,-0.161963 0.02497,-0.162171 0.07126,-0.320689 0.04629,-0.158518 0.04698,-0.131196 0.106839,-0.285057 0.05998,-0.153863 0.03375,-0.101401 0.10684,-0.249425 0.0732,-0.148026 0.05667,-0.144001 0.142528,-0.285057 0.08597,-0.141058 0.08027,-0.116418 0.178161,-0.249425 0.09783,-0.133008 0.0691,-0.125485 0.178161,-0.249425 0.109119,-0.123943 0.0943,-0.09987 0.213792,-0.213793 a 1.099076,1.099076 0 0 0 0.03558,0 c 3.384015,-3.384012 5.824081,-7.357823 7.304588,-11.580445 0.157066,-0.447962 0.327576,-0.900706 0.463218,-1.354021 0.0068,-0.02209 -0.0068,-0.04917 0,-0.07126 0.134444,-0.45295 0.278877,-0.89655 0.391953,-1.354022 0.0057,-0.02308 -0.0057,-0.04817 0,-0.07126 0.109234,-0.446151 0.196142,-0.904342 0.285057,-1.354021 0.0068,-0.03441 -0.0068,-0.07246 0,-0.106896 0.08734,-0.449621 0.18238,-0.901654 0.249425,-1.354022 0.0046,-0.03513 -0.0046,-0.07175 0,-0.106896 0.06545,-0.452061 0.132974,-0.899995 0.178161,-1.354021 0.0034,-0.03478 -0.0034,-0.07211 0,-0.106897 0.0447,-0.465688 0.08346,-0.922723 0.106839,-1.389653 0.0011,-0.02392 -0.0011,-0.04733 0,-0.07126 0.02349,-0.490787 0.03557,-0.969681 0.03557,-1.460918 -0.0011,-0.502198 -0.01026,-0.994879 -0.03557,-1.49655 -0.02235,-0.466973 -0.06328,-0.923882 -0.106839,-1.389653 -0.0023,-0.02352 0.0023,-0.04774 0,-0.07126 -0.0447,-0.465911 -0.112085,-0.925762 -0.178161,-1.389654 -0.0034,-0.02309 0.0034,-0.04817 0,-0.07126 -0.06716,-0.464094 -0.160943,-0.9284 -0.249425,-1.389653 -0.0046,-0.02327 0.0046,-0.048 0,-0.07127 -0.08734,-0.449917 -0.177374,-0.907577 -0.285057,-1.354021 -0.235001,-0.959967 -0.52617,-1.912211 -0.855171,-2.850571 -1.480507,-4.222621 -3.920573,-8.196433 -7.304588,-11.5804446 a 1.099076,1.099076 0 0 0 -0.03558,0 C 60.57535,7.0137592 60.590184,7.0378294 60.481065,6.9138866 60.371945,6.789946 60.400793,6.7974693 60.302904,6.6644616 60.204958,6.531454 60.210659,6.5560943 60.124743,6.4150367 60.038884,6.2739802 60.055417,6.2780052 59.982215,6.1299796 c -0.0732,-0.1480256 -0.04698,-0.095563 -0.10684,-0.249425 -0.05998,-0.1538613 -0.06066,-0.1265391 -0.106839,-0.2850571 -0.04629,-0.158518 -0.039,-0.1587266 -0.07126,-0.3206892 -0.03227,-0.1619626 -0.01779,-0.1208916 -0.03558,-0.2850571 -0.01801,-0.1641656 -0.03204,-0.1555762 -0.03558,-0.3206893 -0.0034,-0.165113 -0.0114,-0.1202621 0,-0.2850571 0.0114,-0.1647949 0.01026,-0.1574735 0.03558,-0.3206892 0.0252,-0.1632157 0.03193,-0.1246703 0.07127,-0.2850571 0.03934,-0.1603868 0.01801,-0.1287284 0.07126,-0.2850571 0.05325,-0.1563287 0.04025,-0.1339814 0.106839,-0.2850571 0.0667,-0.1510757 0.06283,-0.1403929 0.142529,-0.2850571 0.0797,-0.1446642 0.0862,-0.1122783 0.178161,-0.249425 0.06442,-0.098584 0.03649,-0.083784 0.106839,-0.1781607 0.07047,-0.094377 0.06636,-0.088356 0.142529,-0.1781606 0.07617,-0.089804 0.06089,-0.05765 0.142528,-0.1425286 0.08164,-0.084879 0.05576,-0.098539 0.142529,-0.1781607 0.08677,-0.079622 0.08666,-0.068471 0.17816,-0.1425285 0.09156,-0.074058 0.08221,-0.038699 0.178161,-0.1068964 0.09601,-0.068197 0.07811,-0.080455 0.178161,-0.1425286 0.100112,-0.062074 0.07446,-0.051185 0.17816,-0.1068964 0.103761,-0.055712 0.106726,-0.022132 0.213793,-0.071264 0.107068,-0.049132 0.0683,-0.064537 0.178161,-0.1068964 0.109918,-0.04236 0.10148,-0.035837 0.213793,-0.071264 0.112312,-0.035427 0.09954,-0.0073 0.213793,-0.035632 0.114296,-0.028358 0.09795,-0.05009 0.213792,-0.071264 0.115836,-0.021174 0.09692,0.013899 0.213793,0 0.116931,-0.013899 0.09624,-0.029053 0.213793,-0.035632 z M 26.131741,11.439168 a 4.5613698,4.5613698 0 0 0 -0.49885,0.03563 4.5613698,4.5613698 0 0 0 -2.814939,1.389654 c -3.879547,3.879548 -6.071374,8.837182 -6.556313,13.932165 -0.05519,0.679988 -0.112084,1.34919 -0.106839,2.031032 -4.57e-4,0.05878 0,0.119379 0,0.178161 0.0091,0.612985 0.0488,1.242138 0.106839,1.852871 0.484939,5.094983 2.676766,10.052617 6.556313,13.932166 a 4.5613698,4.5613698 0 0 0 2.814939,1.389653 4.5613698,4.5613698 0 0 0 0.49885,0.03563 4.5613698,4.5613698 0 0 0 3.242525,-1.425285 4.5613698,4.5613698 0 0 0 1.282757,-2.957468 4.5613698,4.5613698 0 0 0 0,-0.106896 4.5613698,4.5613698 0 0 0 -1.389654,-3.064364 C 26.828877,36.22363 25.505243,33.125724 25.27657,29.96788 c -0.03637,-0.376166 -0.03067,-0.762735 -0.03557,-1.140229 0.0046,-0.377494 -7.3e-4,-0.764062 0.03557,-1.140228 0.223108,-3.167012 1.545488,-6.248934 3.990799,-8.694242 a 4.5613698,4.5613698 0 0 0 1.354021,-2.743674 4.5613698,4.5613698 0 0 0 0.03557,-0.213793 4.5613698,4.5613698 0 0 0 0,-0.249425 4.5613698,4.5613698 0 0 0 -1.282756,-2.921835 4.5613698,4.5613698 0 0 0 -3.242525,-1.425286 z m 25.797668,0 a 4.5613698,4.5613698 0 0 0 -0.49885,0.03563 4.5613698,4.5613698 0 0 0 -2.814939,1.389654 4.5613698,4.5613698 0 0 0 -1.282757,2.850571 4.5613698,4.5613698 0 0 0 0,0.463217 4.5613698,4.5613698 0 0 0 1.389653,2.814939 c 2.445311,2.445308 3.767691,5.52723 3.9908,8.694242 0.03067,0.317439 0.02737,0.64357 0.03558,0.962067 0,0.436457 0.0068,0.883497 -0.03558,1.31839 -0.228673,3.157844 -1.552307,6.25575 -3.9908,8.694241 a 4.5613698,4.5613698 0 0 0 -1.389653,2.814939 4.5613698,4.5613698 0 0 0 0,0.427586 4.5613698,4.5613698 0 0 0 0,0.03563 4.5613698,4.5613698 0 0 0 1.282757,2.850571 4.5613698,4.5613698 0 0 0 2.814939,1.389653 4.5613698,4.5613698 0 0 0 0.49885,0.03563 4.5613698,4.5613698 0 0 0 3.242524,-1.425285 c 3.879547,-3.879549 6.071374,-8.837183 6.556313,-13.932166 0.06933,-0.727855 0.10684,-1.478582 0.10684,-2.209193 -0.0091,-0.612985 -0.0488,-1.242138 -0.10684,-1.852871 C 61.243307,21.701636 59.05148,16.744002 55.171933,12.864454 a 4.5613698,4.5613698 0 0 0 -3.242524,-1.425286 z m -25.868932,0.783907 c 0.09373,-9.58e-4 0.08438,0.03187 0.17816,0.03563 0.09373,0.0038 0.08472,-0.0083 0.178161,0 0.0935,0.0083 0.08517,-0.013 0.178161,0 0.09281,0.013 0.08597,0.01803 0.178161,0.03563 0.09213,0.0176 0.05142,0.01348 0.142528,0.03563 0.0911,0.02215 0.08814,0.009 0.178161,0.03563 0.08985,0.02666 0.08974,0.04016 0.17816,0.07126 0.08848,0.03111 0.05564,0.0358 0.142529,0.07126 0.08689,0.03546 0.05758,0.03153 0.142529,0.07126 0.08495,0.03974 0.09532,0.02736 0.17816,0.07127 0.0829,0.04391 0.06191,0.0233 0.142529,0.07126 0.08061,0.04797 0.06442,0.05497 0.142528,0.106896 0.07811,0.05193 0.06705,0.05115 0.142529,0.106897 0.07548,0.05575 0.0699,0.01183 0.142528,0.07126 0.07263,0.05943 0.07297,0.07956 0.142529,0.142529 0.06955,0.06296 0.04059,0.04056 0.106839,0.106896 0.06625,0.06634 0.04401,0.03734 0.10684,0.106896 0.06294,0.06955 0.08312,0.06993 0.142528,0.142529 0.05941,0.0726 0.01551,0.06707 0.07127,0.142529 0.05564,0.07546 0.05496,0.06439 0.106839,0.142528 0.05188,0.07814 0.05884,0.0619 0.106839,0.142529 0.048,0.08062 0.02737,0.05962 0.07127,0.142528 0.0439,0.08291 0.03147,0.09318 0.07126,0.178161 0.03979,0.08498 0.0358,0.05568 0.07126,0.142528 0.03546,0.08685 0.04014,0.05401 0.07127,0.142529 0.03113,0.08852 0.04458,0.08821 0.07126,0.178161 0.02645,0.08995 0.01357,0.087 0.03557,0.17816 0.02212,0.09116 0.01813,0.05038 0.03558,0.142529 0.01756,0.09215 0.02258,0.08524 0.03557,0.178161 0.013,0.09292 -0.008,0.08472 0,0.17816 0.008,0.09344 -0.0034,0.08442 0,0.178161 0.0034,0.09374 0.0366,0.08435 0.03558,0.178161 -9.12e-4,0.09381 -0.02999,0.04888 -0.03558,0.142528 -0.0057,0.09365 0.01026,0.0849 0,0.178161 -4.67e-4,0.01494 3.42e-4,0.01712 0,0.03563 -0.0034,0.185193 0.02121,0.13669 0,0.320689 -0.02121,0.184 -0.03215,0.175286 -0.07126,0.356322 -0.03911,0.181035 -0.05017,0.144361 -0.10684,0.320689 -0.05667,0.176328 -0.03318,0.150765 -0.106839,0.320689 -0.07366,0.169924 -0.05256,0.123176 -0.142528,0.285057 -0.08996,0.161882 -0.07275,0.132775 -0.178161,0.285057 -0.105471,0.152282 -0.09395,0.143842 -0.213793,0.285057 -0.119849,0.141215 -0.08073,0.120635 -0.213793,0.249425 a 1.099076,1.099076 0 0 0 -0.03558,0 c -2.535252,2.535248 -3.958953,5.754869 -4.275856,9.050563 -0.03968,0.412109 -0.06636,0.833531 -0.07126,1.247125 0.0046,0.413594 0.03158,0.835017 0.07126,1.247125 0.316903,3.295694 1.740604,6.515315 4.275856,9.050563 a 1.099076,1.099076 0 0 0 0.03558,0 c 0.133065,0.12879 0.09395,0.108208 0.213793,0.249425 0.119838,0.141215 0.108322,0.132775 0.213793,0.285057 0.105471,0.152282 0.08814,0.123175 0.178161,0.285057 0.08996,0.161882 0.06887,0.115133 0.142528,0.285057 0.07366,0.169924 0.05017,0.144361 0.106839,0.320689 0.05667,0.176329 0.06773,0.139654 0.10684,0.32069 0.03911,0.181035 0.05006,0.172321 0.07126,0.356321 0.02121,0.184 -0.0034,0.135497 0,0.320689 0.0023,0.01189 -0.0023,0.0177 0,0.03563 0.01026,0.09326 -0.0057,0.08451 0,0.178161 0.0057,0.09365 0.03478,0.04872 0.03558,0.142529 9.58e-4,0.09381 -0.03204,0.08442 -0.03558,0.17816 -0.0034,0.09374 0.008,0.08472 0,0.178161 -0.008,0.09344 0.013,0.08524 0,0.178161 -0.013,0.09292 -0.01813,0.08601 -0.03557,0.17816 -0.01756,0.09215 -0.01357,0.05137 -0.03558,0.142529 -0.02212,0.09116 -0.0091,0.08821 -0.03557,0.178161 -0.02668,0.08995 -0.04014,0.08964 -0.07126,0.17816 -0.03113,0.08852 -0.0358,0.05568 -0.07127,0.142529 -0.03546,0.08685 -0.03147,0.05755 -0.07126,0.142528 -0.03979,0.08498 -0.02737,0.09526 -0.07126,0.178161 -0.0439,0.08291 -0.02326,0.0619 -0.07127,0.142529 -0.048,0.08062 -0.05496,0.06439 -0.106839,0.142528 -0.05188,0.07814 -0.05131,0.06707 -0.106839,0.142529 -0.05576,0.07546 -0.01186,0.06993 -0.07127,0.142528 -0.05941,0.0726 -0.07959,0.07297 -0.142528,0.142529 -0.06294,0.06955 -0.04071,0.04056 -0.10684,0.106896 -0.06636,0.06634 -0.03729,0.04393 -0.106839,0.106897 -0.06955,0.06296 -0.0699,0.0831 -0.142529,0.142528 -0.07263,0.05943 -0.06705,0.01552 -0.142528,0.07126 -0.07548,0.05575 -0.06442,0.05497 -0.142529,0.106897 -0.07811,0.05193 -0.06191,0.05893 -0.142528,0.106896 -0.08061,0.04797 -0.05963,0.02735 -0.142529,0.07126 -0.08289,0.04391 -0.09316,0.03153 -0.17816,0.07126 -0.08495,0.03974 -0.05564,0.0358 -0.142529,0.07126 -0.08688,0.03546 -0.05405,0.04016 -0.142529,0.07126 -0.08848,0.03111 -0.08825,0.04461 -0.17816,0.07126 -0.08996,0.02666 -0.087,0.01348 -0.178161,0.03563 -0.0911,0.02215 -0.0504,0.01803 -0.142528,0.03563 -0.09213,0.01761 -0.08529,0.02263 -0.178161,0.03563 -0.09293,0.013 -0.08472,-0.0083 -0.178161,0 -0.0935,0.0083 -0.08438,-0.0038 -0.178161,0 -0.09373,0.0038 -0.08438,0.03659 -0.17816,0.03563 -0.09384,-9.54e-4 -0.04892,-0.03001 -0.142529,-0.03563 -0.09361,-0.0056 -0.08495,0.01026 -0.17816,0 -0.09327,-0.01026 -0.08552,-0.02074 -0.178161,-0.03563 -0.09259,-0.01489 -0.08643,-0.01616 -0.178161,-0.03563 -0.09179,-0.01947 -0.08745,-0.01163 -0.178161,-0.03563 -0.09065,-0.024 -0.05313,-0.0072 -0.142528,-0.03563 -0.08939,-0.02848 -0.09031,-0.03837 -0.178161,-0.07126 -0.08791,-0.0329 -0.05644,0.0016 -0.142528,-0.03563 -0.08609,-0.03722 -0.09395,-0.02981 -0.178161,-0.07126 -0.08415,-0.04146 -0.06055,-0.06131 -0.142529,-0.106897 -0.08198,-0.04559 -0.06294,-0.02166 -0.142528,-0.07126 -0.07959,-0.0496 -0.06545,-0.0534 -0.142529,-0.106896 -0.07708,-0.0535 -0.06819,-0.04963 -0.142528,-0.106897 -0.07434,-0.05726 -0.07115,-0.04601 -0.142529,-0.106896 -0.07138,-0.06089 -0.03877,-0.04254 -0.106839,-0.106896 -0.0683,-0.06435 -0.07754,-0.03922 -0.142529,-0.106897 a 1.099076,1.099076 0 0 0 0,-0.03563 c -3.775752,-3.775758 -5.836703,-8.617611 -6.235624,-13.575844 -0.06602,-0.692252 -0.106839,-1.407432 -0.106839,-2.102297 0.0091,-0.577331 0.05211,-1.170751 0.106839,-1.745974 0.398921,-4.958233 2.459872,-9.800087 6.235624,-13.575845 a 1.099076,1.099076 0 0 0 0,-0.03563 c 0.06499,-0.06767 0.07423,-0.04254 0.142529,-0.106896 0.06819,-0.06436 0.03546,-0.04601 0.106839,-0.106897 0.07138,-0.06089 0.06819,-0.04963 0.142529,-0.106896 0.07434,-0.05726 0.06545,-0.0534 0.142528,-0.106896 0.07708,-0.0535 0.06294,-0.0573 0.142529,-0.106897 0.07959,-0.0496 0.06055,-0.02568 0.142528,-0.07126 0.08198,-0.04559 0.05838,-0.06544 0.142529,-0.106897 0.08415,-0.04146 0.09202,-0.03405 0.178161,-0.07126 0.08609,-0.03723 0.05462,-0.0027 0.142528,-0.03563 0.08791,-0.0329 0.08882,-0.04278 0.178161,-0.07126 0.08939,-0.02845 0.05188,-0.01163 0.142528,-0.03563 0.09076,-0.024 0.08632,-0.01616 0.178161,-0.03563 0.09179,-0.01947 0.08563,-0.02074 0.178161,-0.03563 0.0927,-0.01489 0.08495,-0.02537 0.178161,-0.03563 0.09316,-0.01026 0.0846,0.0056 0.17816,0 0.09361,-0.0056 0.04869,-0.03467 0.142529,-0.03563 z m 25.868932,0 c 0.09384,9.58e-4 0.04892,0.03004 0.142528,0.03563 0.09361,0.0056 0.08483,-0.01026 0.178161,0 0.09316,0.01026 0.08563,0.02074 0.178161,0.03563 0.09259,0.01489 0.08632,0.01616 0.17816,0.03563 0.09167,0.01948 0.08757,0.01163 0.178161,0.03563 0.09065,0.024 0.05314,0.0072 0.142528,0.03563 0.08939,0.02848 0.09019,0.03837 0.178161,0.07126 0.08791,0.0329 0.05644,-0.0016 0.142529,0.03563 0.0862,0.03722 0.09395,0.02981 0.17816,0.07126 0.08415,0.04146 0.06055,0.06131 0.142529,0.106897 0.08198,0.04559 0.06294,0.02166 0.142528,0.07126 0.07959,0.0496 0.06545,0.0534 0.142529,0.106897 0.07708,0.0535 0.06819,0.04963 0.142529,0.106896 0.07434,0.05726 0.07115,0.04601 0.142528,0.106896 0.07138,0.06089 0.03865,0.04254 0.10684,0.106897 0.0683,0.06435 0.07753,0.03922 0.142528,0.106896 a 1.099076,1.099076 0 0 0 0,0.03563 c 3.775764,3.775758 5.836692,8.617612 6.235624,13.575845 0.05485,0.575223 0.0976,1.168643 0.10684,1.745974 0,0.694865 -0.04093,1.410045 -0.10684,2.102297 -0.398932,4.958233 -2.45986,9.800086 -6.235624,13.575844 a 1.099076,1.099076 0 0 0 0,0.03563 c -0.06499,0.06767 -0.07423,0.04254 -0.142528,0.106897 -0.0683,0.06435 -0.03546,0.04601 -0.10684,0.106896 -0.07138,0.06089 -0.06819,0.04963 -0.142528,0.106896 -0.07434,0.05726 -0.06545,0.0534 -0.142529,0.106897 -0.07708,0.0535 -0.06294,0.0573 -0.142529,0.106896 -0.07959,0.0496 -0.06055,0.02568 -0.142528,0.07126 -0.08198,0.04559 -0.05838,0.06544 -0.142529,0.106897 -0.08415,0.04146 -0.09202,0.03405 -0.17816,0.07126 -0.08609,0.03722 -0.05462,0.0027 -0.142529,0.03563 -0.08791,0.0329 -0.08882,0.04278 -0.178161,0.07126 -0.08939,0.02848 -0.05188,0.01163 -0.142528,0.03563 -0.09065,0.024 -0.08643,0.01616 -0.178161,0.03563 -0.09179,0.01947 -0.08552,0.02074 -0.17816,0.03563 -0.09259,0.01489 -0.08495,0.02537 -0.178161,0.03563 -0.09327,0.01026 -0.08449,-0.0056 -0.178161,0 -0.09361,0.0056 -0.04869,0.03467 -0.142528,0.03563 -0.09384,9.55e-4 -0.08438,-0.03193 -0.178161,-0.03563 -0.09373,-0.0038 -0.08472,0.0083 -0.178161,0 -0.0935,-0.0083 -0.08529,0.013 -0.17816,0 -0.09293,-0.013 -0.08597,-0.01803 -0.178161,-0.03563 -0.09213,-0.0176 -0.05142,-0.01348 -0.142529,-0.03563 -0.0911,-0.02215 -0.08825,-0.009 -0.17816,-0.03563 -0.08996,-0.02666 -0.08962,-0.04016 -0.178161,-0.07126 -0.08848,-0.03111 -0.05564,-0.0358 -0.142529,-0.07126 -0.08689,-0.03546 -0.05758,-0.03153 -0.142528,-0.07126 -0.08495,-0.03974 -0.09521,-0.02735 -0.178161,-0.07126 -0.08289,-0.04391 -0.06191,-0.02329 -0.142528,-0.07126 -0.08062,-0.04797 -0.06442,-0.05497 -0.142529,-0.106896 -0.07811,-0.05193 -0.06705,-0.05115 -0.142529,-0.106897 -0.07548,-0.05574 -0.0699,-0.01183 -0.142528,-0.07126 -0.07263,-0.05943 -0.07297,-0.07956 -0.142529,-0.142528 -0.06955,-0.06296 -0.04071,-0.04056 -0.106839,-0.106897 -0.06636,-0.06634 -0.04401,-0.03734 -0.106839,-0.106896 -0.06294,-0.06955 -0.08312,-0.06993 -0.142529,-0.142529 -0.05941,-0.0726 -0.01551,-0.06707 -0.07126,-0.142528 -0.05576,-0.07546 -0.05496,-0.06439 -0.10684,-0.142529 -0.05188,-0.07814 -0.05895,-0.0619 -0.106839,-0.142528 -0.048,-0.08063 -0.02737,-0.05962 -0.07126,-0.142529 -0.0439,-0.08291 -0.03147,-0.09318 -0.07127,-0.178161 -0.03979,-0.08498 -0.0358,-0.05568 -0.07126,-0.142528 -0.03546,-0.08685 -0.04014,-0.05401 -0.07126,-0.142529 -0.03113,-0.08852 -0.04458,-0.08821 -0.07126,-0.17816 -0.02668,-0.08995 -0.01346,-0.087 -0.03558,-0.178161 -0.02212,-0.09116 -0.01813,-0.05037 -0.03558,-0.142529 -0.01756,-0.09215 -0.02269,-0.08524 -0.03558,-0.17816 -0.013,-0.09292 0.008,-0.08472 0,-0.178161 -0.008,-0.09344 0.0034,-0.08442 0,-0.178161 -0.0034,-0.09374 -0.03672,-0.08435 -0.03558,-0.17816 9.58e-4,-0.09381 0.02999,-0.04888 0.03558,-0.142529 0.0057,-0.09365 -0.01026,-0.0849 0,-0.178161 0.0023,-0.01794 -0.0023,-0.02374 0,-0.03563 0.0034,-0.185192 -0.02121,-0.136689 0,-0.320689 0.02121,-0.184 0.03216,-0.175286 0.07126,-0.356321 0.03911,-0.181036 0.05017,-0.144361 0.10684,-0.32069 0.05667,-0.176328 0.03329,-0.150765 0.106839,-0.320689 0.07366,-0.169924 0.05257,-0.123175 0.142529,-0.285057 0.09008,-0.161882 0.07263,-0.132775 0.178161,-0.285057 0.105471,-0.152282 0.09395,-0.143842 0.213792,-0.285057 0.119838,-0.141217 0.08073,-0.120635 0.213793,-0.249425 a 1.099076,1.099076 0 0 0 0.03558,0 c 2.535253,-2.535248 3.958953,-5.754869 4.275857,-9.050563 0.04527,-0.470814 0.07126,-0.952748 0.07126,-1.425286 -0.008,-0.354617 -0.03728,-0.71556 -0.07126,-1.068964 -0.316904,-3.295694 -1.740604,-6.515315 -4.275857,-9.050563 a 1.099076,1.099076 0 0 0 -0.03558,0 c -0.13311,-0.12879 -0.09395,-0.108207 -0.213793,-0.249425 -0.119849,-0.141215 -0.108321,-0.132775 -0.213792,-0.285057 -0.105472,-0.152282 -0.08814,-0.123175 -0.178161,-0.285057 -0.08996,-0.161881 -0.06887,-0.115133 -0.142529,-0.285057 -0.07366,-0.169924 -0.05017,-0.144361 -0.106839,-0.320689 -0.05667,-0.176328 -0.06773,-0.139654 -0.10684,-0.320689 -0.03911,-0.181036 -0.05006,-0.172322 -0.07126,-0.356322 -0.02121,-0.183999 0.0034,-0.135496 0,-0.320689 -3.42e-4,-0.01852 4.68e-4,-0.02069 0,-0.03563 -0.01026,-0.09326 0.0057,-0.08451 0,-0.178161 -0.0057,-0.09365 -0.03466,-0.04872 -0.03558,-0.142528 -0.001,-0.09381 0.03216,-0.08442 0.03558,-0.178161 0.0034,-0.09374 -0.008,-0.08472 0,-0.178161 0.008,-0.09344 -0.013,-0.08524 0,-0.17816 0.01289,-0.09292 0.01813,-0.08601 0.03558,-0.178161 0.01756,-0.09215 0.01346,-0.05137 0.03558,-0.142529 0.02212,-0.09116 0.0091,-0.08821 0.03558,-0.17816 0.02668,-0.08995 0.04014,-0.08965 0.07126,-0.178161 0.03113,-0.08852 0.0358,-0.05568 0.07126,-0.142529 0.03546,-0.08685 0.03147,-0.05755 0.07126,-0.142528 0.03979,-0.08498 0.02737,-0.09525 0.07127,-0.178161 0.0439,-0.08291 0.02326,-0.0619 0.07126,-0.142528 0.04789,-0.08063 0.05496,-0.06439 0.106839,-0.142529 0.05188,-0.07814 0.05108,-0.06707 0.10684,-0.142528 0.05576,-0.07546 0.01186,-0.06993 0.07126,-0.142529 0.05941,-0.0726 0.07959,-0.07297 0.142529,-0.142529 0.06294,-0.06955 0.04059,-0.04056 0.106839,-0.106896 0.06625,-0.06634 0.03729,-0.04393 0.106839,-0.106896 0.06955,-0.06296 0.0699,-0.0831 0.142529,-0.142529 0.07263,-0.05943 0.06705,-0.01552 0.142528,-0.07126 0.07548,-0.05575 0.06442,-0.05497 0.142529,-0.106897 0.07811,-0.05193 0.06191,-0.05893 0.142529,-0.106896 0.08061,-0.04797 0.05963,-0.02735 0.142528,-0.07126 0.0829,-0.04391 0.09316,-0.03153 0.178161,-0.07127 0.08495,-0.03974 0.05564,-0.0358 0.142528,-0.07126 0.08689,-0.03546 0.05405,-0.04016 0.142529,-0.07126 0.0886,-0.03111 0.08814,-0.04461 0.178161,-0.07126 0.08996,-0.02662 0.08711,-0.01348 0.17816,-0.03563 0.09111,-0.02215 0.0504,-0.01803 0.142529,-0.03563 0.09213,-0.01761 0.08517,-0.02263 0.178161,-0.03563 0.09293,-0.013 0.08472,0.0083 0.17816,0 0.0935,-0.0083 0.08438,0.0038 0.178161,0 0.09384,-0.0038 0.08426,-0.03659 0.178161,-0.03563 z"
       inkscape:connector-curvature="0"
       id="path3763"
       style="font-size:medium;font-style:normal;font-variant:normal;font-weight:normal;font-stretch:normal;text-indent:0;text-align:start;text-decoration:none;line-height:normal;letter-spacing:normal;word-spacing:normal;text-transform:none;direction:ltr;block-progression:tb;writing-mode:lr-tb;text-anchor:start;opacity:0.1;color:#000000;fill:#000000;fill-opacity:1;stroke:none;stroke-width:3.5;marker:none;visibility:visible;display:inline;overflow:visible;enable-background:accumulate;font-family:Abandoned Bitplane;-inkscape-font-specification:Abandoned Bitplane" />
    <g
       transform="matrix(1.1402284,0,0,1.1402284,-15.736021,-17.886081)"
       id="layer4">
      <path
         style="opacity:0.05;color:#000000;fill:#000000;fill-opacity:1;fill-rule:nonzero;stroke:none;stroke-width:1;marker:none;visibility:visible;display:inline;overflow:visible;enable-background:accumulate"
         id="path3838"
         d="m 48,31.90625 c -5.545268,0 -10.09375,4.548482 -10.09375,10.09375 0,4.143487 2.558494,7.732127 6.15625,9.28125 C 42.210175,52.566594 40.90625,54.594096 40.90625,57 l 0,20 c 0,3.894112 3.199638,7.09375 7.09375,7.09375 3.894112,0 7.09375,-3.199638 7.09375,-7.09375 l 0,-20 c 0,-2.405904 -1.303925,-4.433406 -3.15625,-5.71875 C 55.535256,49.732127 58.09375,46.143487 58.09375,42 58.09375,36.454732 53.545268,31.90625 48,31.90625 z" />
      <path
         style="opacity:0.1;color:#000000;fill:#000000;fill-opacity:1;fill-rule:nonzero;stroke:none;stroke-width:1;marker:none;visibility:visible;display:inline;overflow:visible;enable-background:accumulate"
         id="path3833"
         inkscape:connector-curvature="0"
         d="m 48,33.03125 c -4.930068,0 -8.96875,4.038682 -8.96875,8.96875 0,4.930068 4.038682,8.96875 8.96875,8.96875 4.930068,0 8.96875,-4.038682 8.96875,-8.96875 0,-4.930068 -4.038682,-8.96875 -8.96875,-8.96875 z m 0,18 c -3.277428,0 -5.96875,2.691322 -5.96875,5.96875 l 0,20 c 0,3.277428 2.691322,5.96875 5.96875,5.96875 3.277428,0 5.96875,-2.691322 5.96875,-5.96875 l 0,-20 c 0,-3.277428 -2.691322,-5.96875 -5.96875,-5.96875 z" />
      <path
         style="opacity:0.15;color:#000000;fill:#000000;fill-opacity:1;fill-rule:nonzero;stroke:none;stroke-width:1;marker:none;visibility:visible;display:inline;overflow:visible;enable-background:accumulate"
         id="path3829"
         d="m 48,34.0625 c -4.369998,0 -7.9375,3.567502 -7.9375,7.9375 0,4.369998 3.567502,7.9375 7.9375,7.9375 4.369998,0 7.9375,-3.567502 7.9375,-7.9375 0,-4.369998 -3.567502,-7.9375 -7.9375,-7.9375 z m 0,18 c -2.71652,0 -4.9375,2.22098 -4.9375,4.9375 l 0,20 c 0,2.71652 2.22098,4.9375 4.9375,4.9375 2.71652,0 4.9375,-2.22098 4.9375,-4.9375 l 0,-20 c 0,-2.71652 -2.22098,-4.9375 -4.9375,-4.9375 z" />
      <path
         style="opacity:0.3;color:#000000;fill:#000000;fill-opacity:1;fill-rule:nonzero;stroke:none;stroke-width:1;marker:none;visibility:visible;display:inline;overflow:visible;enable-background:accumulate"
         id="rect3816"
         inkscape:connector-curvature="0"
         d="m 48,35 c -3.865993,0 -7,3.134007 -7,7 0,3.865993 3.134007,7 7,7 3.865993,0 7,-3.134007 7,-7 0,-3.865993 -3.134007,-7 -7,-7 z m 0,18 c -2.216,0 -4,1.784 -4,4 l 0,20 c 0,2.216 1.784,4 4,4 2.216,0 4,-1.784 4,-4 l 0,-20 c 0,-2.216 -1.784,-4 -4,-4 z" />
      <rect
         style="color:#000000;fill:url(#linearGradient2961);fill-opacity:1;fill-rule:nonzero;stroke:none;stroke-width:1;marker:none;visibility:visible;display:inline;overflow:visible;enable-background:accumulate"
         id="rect3661"
         y="52"
         x="44"
         ry="4"
         rx="4"
         height="28.000004"
         width="7.9999986" />
      <path
         style="color:#000000;fill:url(#radialGradient2963);fill-opacity:1;fill-rule:nonzero;stroke:none;stroke-width:1;marker:none;visibility:visible;display:inline;overflow:visible;enable-background:accumulate"
         id="path3663"
         d="m 55,41 a 7,7 0 1 1 -14,0 7,7 0 1 1 14,0 z" />
      <path
         style="opacity:0.2;color:#000000;fill:#000000;fill-opacity:1;fill-rule:nonzero;stroke:none;stroke-width:1;marker:none;visibility:visible;display:inline;overflow:visible;enable-background:accumulate"
         id="rect3807"
         inkscape:connector-curvature="0"
         d="m 44,75 0,1 c 0,2.216 1.784,4 4,4 2.216,0 4,-1.784 4,-4 l 0,-1 c 0,2.216 -1.784,4 -4,4 -2.216,0 -4,-1.784 -4,-4 z" />
      <path
         style="opacity:0.6;color:#000000;fill:url(#linearGradient2965);fill-opacity:1;fill-rule:nonzero;stroke:none;stroke-width:1;marker:none;visibility:visible;display:inline;overflow:visible;enable-background:accumulate"
         id="rect3844"
         inkscape:connector-curvature="0"
         d="m 48,52 c -2.216,0 -4,1.784 -4,4 l 0,20 c 0,2.216 1.784,4 4,4 2.216,0 4,-1.784 4,-4 l 0,-20 c 0,-2.216 -1.784,-4 -4,-4 z m 0,1 c 1.674207,0 3,1.325793 3,3 l 0,20 c 0,1.674207 -1.325793,3 -3,3 -1.674207,0 -3,-1.325793 -3,-3 l 0,-20 c 0,-1.674207 1.325793,-3 3,-3 z" />
      <path
         style="opacity:0.3;color:#000000;fill:url(#radialGradient2967);fill-opacity:1;fill-rule:nonzero;stroke:none;stroke-width:1;marker:none;visibility:visible;display:inline;overflow:visible;enable-background:accumulate"
         id="path3868"
         inkscape:connector-curvature="0"
         d="M 42.03125,40.625 C 42.023779,40.747591 42,40.875529 42,41 c 0,3.313709 2.686291,6 6,6 3.313709,0 6,-2.686291 6,-6 0,-0.124471 -0.02378,-0.252409 -0.03125,-0.375 C 53.66149,43.650536 51.106602,46 48,46 44.893398,46 42.33851,43.650536 42.03125,40.625 z" />
      <path
         style="color:#000000;fill:url(#linearGradient2969);fill-opacity:1;fill-rule:nonzero;stroke:none;stroke-width:1;marker:none;visibility:visible;display:inline;overflow:visible;enable-background:accumulate"
         id="path3893"
         transform="matrix(0.71428569,0,0,0.5,13.714287,18)"
         d="m 55,41 a 7,7 0 1 1 -14,0 7,7 0 1 1 14,0 z" />
    </g>
  </g>
</svg>
