<?xml version="1.0" encoding="UTF-8" standalone="no"?>
<!-- Created with Inkscape (http://www.inkscape.org/) -->

<svg
   xmlns:dc="http://purl.org/dc/elements/1.1/"
   xmlns:cc="http://creativecommons.org/ns#"
   xmlns:rdf="http://www.w3.org/1999/02/22-rdf-syntax-ns#"
   xmlns:svg="http://www.w3.org/2000/svg"
   xmlns="http://www.w3.org/2000/svg"
   xmlns:xlink="http://www.w3.org/1999/xlink"
   xmlns:sodipodi="http://sodipodi.sourceforge.net/DTD/sodipodi-0.dtd"
   xmlns:inkscape="http://www.inkscape.org/namespaces/inkscape"
   version="1.0"
   width="78"
   height="78"
   id="svg2408"
   inkscape:version="0.47 r22583"
   sodipodi:docname="account.svg">
  <sodipodi:namedview
     pagecolor="#ffffff"
     bordercolor="#666666"
     borderopacity="1"
     objecttolerance="10"
     gridtolerance="10"
     guidetolerance="10"
     inkscape:pageopacity="0"
     inkscape:pageshadow="2"
     inkscape:window-width="1366"
     inkscape:window-height="709"
     id="namedview62"
     showgrid="false"
     borderlayer="true"
     inkscape:showpageshadow="false"
     inkscape:zoom="2.5104167"
     inkscape:cx="54.803737"
     inkscape:cy="48"
     inkscape:window-x="0"
     inkscape:window-y="25"
     inkscape:window-maximized="1"
     inkscape:current-layer="svg2408" />
  <defs
     id="defs2410">
    <inkscape:perspective
       sodipodi:type="inkscape:persp3d"
       inkscape:vp_x="0 : 48 : 1"
       inkscape:vp_y="0 : 1000 : 0"
       inkscape:vp_z="96 : 48 : 1"
       inkscape:persp3d-origin="48 : 32 : 1"
       id="perspective64" />
    <linearGradient
       x1="45.447727"
       y1="92.539597"
       x2="45.447727"
       y2="7.0165396"
       id="ButtonShadow"
       gradientUnits="userSpaceOnUse"
       gradientTransform="scale(1.0058652,0.994169)">
      <stop
         id="stop3750"
         style="stop-color:#000000;stop-opacity:1"
         offset="0" />
      <stop
         id="stop3752"
         style="stop-color:#000000;stop-opacity:0.58823532"
         offset="1" />
    </linearGradient>
    <linearGradient
       id="linearGradient3737">
      <stop
         id="stop3739"
         style="stop-color:#ffffff;stop-opacity:1"
         offset="0" />
      <stop
         id="stop3741"
         style="stop-color:#ffffff;stop-opacity:0"
         offset="1" />
    </linearGradient>
    <filter
       color-interpolation-filters="sRGB"
       id="filter3174">
      <feGaussianBlur
         id="feGaussianBlur3176"
         stdDeviation="1.71" />
    </filter>
    <linearGradient
       x1="36.357143"
       y1="6"
       x2="36.357143"
       y2="63.893143"
       id="linearGradient3188"
       xlink:href="#linearGradient3737"
       gradientUnits="userSpaceOnUse" />
    <filter
       x="-0.192"
       y="-0.192"
       width="1.3839999"
       height="1.3839999"
       color-interpolation-filters="sRGB"
       id="filter3794">
      <feGaussianBlur
         id="feGaussianBlur3796"
         stdDeviation="5.28" />
    </filter>
    <linearGradient
       x1="48"
       y1="20.220806"
       x2="48"
       y2="138.66119"
       id="linearGradient3613"
       xlink:href="#linearGradient3737"
       gradientUnits="userSpaceOnUse" />
    <radialGradient
       cx="48"
       cy="90.171875"
       r="42"
       fx="48"
       fy="90.171875"
       id="radialGradient3619"
       xlink:href="#linearGradient3737"
       gradientUnits="userSpaceOnUse"
       gradientTransform="matrix(1.1573129,0,0,0.99590774,-7.5510206,0.19713193)" />
    <clipPath
       id="clipPath3613">
      <rect
         width="84"
         height="84"
         rx="6"
         ry="6"
         x="6"
         y="6"
         id="rect3615"
         style="fill:#ffffff;fill-opacity:1;fill-rule:nonzero;stroke:none" />
    </clipPath>
    <linearGradient
       id="linearGradient4081">
      <stop
         id="stop4083"
         style="stop-color:#aaaaaa;stop-opacity:1"
         offset="0" />
      <stop
         id="stop4085-9"
         style="stop-color:#f0f0f0;stop-opacity:1"
         offset="1" />
    </linearGradient>
    <linearGradient
       x1="45.447727"
       y1="92.539597"
       x2="45.447727"
       y2="7.0165396"
       id="ButtonShadow-0"
       gradientUnits="userSpaceOnUse"
       gradientTransform="matrix(1.0058652,0,0,0.994169,100,0)">
      <stop
         id="stop3750-8"
         style="stop-color:#000000;stop-opacity:1"
         offset="0" />
      <stop
         id="stop3752-5"
         style="stop-color:#000000;stop-opacity:0.58823532"
         offset="1" />
    </linearGradient>
    <linearGradient
       x1="32.251034"
       y1="6.1317081"
       x2="32.251034"
       y2="90.238609"
       id="linearGradient3780"
       xlink:href="#ButtonShadow-0"
       gradientUnits="userSpaceOnUse"
       gradientTransform="matrix(1.0238095,0,0,-1.0119048,-1.1428571,98.071429)" />
    <linearGradient
       x1="32.251034"
       y1="6.1317081"
       x2="32.251034"
       y2="90.238609"
       id="linearGradient3772"
       xlink:href="#ButtonShadow-0"
       gradientUnits="userSpaceOnUse"
       gradientTransform="matrix(1.0238095,0,0,-1.0119048,-1.1428571,98.071429)" />
    <linearGradient
       x1="32.251034"
       y1="6.1317081"
       x2="32.251034"
       y2="90.238609"
       id="linearGradient3725"
       xlink:href="#ButtonShadow-0"
       gradientUnits="userSpaceOnUse"
       gradientTransform="matrix(1.0238095,0,0,-1.0119048,-1.1428571,98.071429)" />
    <linearGradient
       x1="32.251034"
       y1="6.1317081"
       x2="32.251034"
       y2="90.238609"
       id="linearGradient3721"
       xlink:href="#ButtonShadow-0"
       gradientUnits="userSpaceOnUse"
       gradientTransform="matrix(1,0,0,-1,0,97)" />
    <linearGradient
       x1="32.251034"
       y1="6.1317081"
       x2="32.251034"
       y2="90.238609"
       id="linearGradient3016"
       xlink:href="#ButtonShadow-0"
       gradientUnits="userSpaceOnUse"
       gradientTransform="matrix(1.0238095,0,0,-1.0119048,-1.1428571,98.071429)" />
    <linearGradient
       x1="16"
       y1="48"
       x2="80"
       y2="48"
       id="linearGradient3773"
       xlink:href="#linearGradient4081"
       gradientUnits="userSpaceOnUse"
       gradientTransform="matrix(0.875,0,0,0.875,-90,-84)" />
    <linearGradient
       x1="31.725"
       y1="79.814171"
       x2="31.725"
       y2="10.985223"
       id="linearGradient3832"
       xlink:href="#linearGradient4081"
       gradientUnits="userSpaceOnUse"
       gradientTransform="matrix(0.9009009,0,0,0.9009009,3.4189189,6.0953392)" />
    <linearGradient
       y2="7.0165396"
       x2="45.447727"
       y1="92.539597"
       x1="45.447727"
       gradientTransform="scale(1.0058652,0.994169)"
       gradientUnits="userSpaceOnUse"
       id="linearGradient3053"
       xlink:href="#ButtonShadow-9"
       inkscape:collect="always" />
    <linearGradient
       y2="24"
       x2="56"
       y1="72"
       x1="56"
       gradientTransform="translate(-12.29112,-9.154328)"
       gradientUnits="userSpaceOnUse"
       id="linearGradient3005"
       xlink:href="#linearGradient3697"
       inkscape:collect="always" />
    <linearGradient
       y2="24"
       x2="56"
       y1="72"
       x1="56"
       gradientTransform="translate(-12.29112,-9.154328)"
       gradientUnits="userSpaceOnUse"
       id="linearGradient3006"
       xlink:href="#linearGradient3697"
       inkscape:collect="always" />
    <linearGradient
       y2="23.729059"
       x2="49"
       y1="70"
       x1="49"
       gradientTransform="translate(92.250561,-0.44800685)"
       gradientUnits="userSpaceOnUse"
       id="linearGradient3004"
       xlink:href="#linearGradient4081-1-5"
       inkscape:collect="always" />
    <radialGradient
       r="42"
       fy="90.171875"
       fx="48"
       cy="90.171875"
       cx="48"
       gradientTransform="matrix(1.1573129,0,0,0.99590774,-7.5510206,-11.802868)"
       gradientUnits="userSpaceOnUse"
       id="radialGradient4535"
       xlink:href="#linearGradient3737-5"
       inkscape:collect="always" />
    <linearGradient
       y2="63.893143"
       x2="36.357143"
       y1="6"
       x1="36.357143"
       gradientTransform="translate(0,-12)"
       gradientUnits="userSpaceOnUse"
       id="linearGradient4533"
       xlink:href="#linearGradient3737-5"
       inkscape:collect="always" />
    <linearGradient
       y2="90.015434"
       x2="44.512066"
       y1="6"
       x1="44.512066"
       gradientTransform="translate(0,-12)"
       gradientUnits="userSpaceOnUse"
       id="linearGradient4531"
       xlink:href="#linearGradient3637"
       inkscape:collect="always" />
    <linearGradient
       y2="7.0165396"
       x2="45.447727"
       y1="92.539597"
       x1="45.447727"
       gradientTransform="scale(1.0058652,0.994169)"
       gradientUnits="userSpaceOnUse"
       id="linearGradient4529"
       xlink:href="#ButtonShadow-9"
       inkscape:collect="always" />
    <linearGradient
       y2="90.015434"
       x2="44.512066"
       y1="6"
       x1="44.512066"
       gradientTransform="translate(0,-12)"
       gradientUnits="userSpaceOnUse"
       id="linearGradient4504"
       xlink:href="#linearGradient3637"
       inkscape:collect="always" />
    <linearGradient
       y2="63.893143"
       x2="36.357143"
       y1="6"
       x1="36.357143"
       gradientTransform="translate(0,-12)"
       gradientUnits="userSpaceOnUse"
       id="linearGradient4501"
       xlink:href="#linearGradient3737-5"
       inkscape:collect="always" />
    <radialGradient
       r="42"
       fy="90.171875"
       fx="48"
       cy="90.171875"
       cx="48"
       gradientTransform="matrix(1.1573129,0,0,0.99590774,-7.5510206,-11.802868)"
       gradientUnits="userSpaceOnUse"
       id="radialGradient4498"
       xlink:href="#linearGradient3737-5"
       inkscape:collect="always" />
    <radialGradient
       r="42"
       fy="90.171875"
       fx="48"
       cy="90.171875"
       cx="48"
       gradientTransform="matrix(1.1573129,0,0,0.99590774,-7.5510206,-11.802868)"
       gradientUnits="userSpaceOnUse"
       id="radialGradient4493"
       xlink:href="#linearGradient3737-5"
       inkscape:collect="always" />
    <linearGradient
       y2="63.893143"
       x2="36.357143"
       y1="6"
       x1="36.357143"
       gradientTransform="translate(0,-12)"
       gradientUnits="userSpaceOnUse"
       id="linearGradient4491"
       xlink:href="#linearGradient3737-5"
       inkscape:collect="always" />
    <linearGradient
       y2="90.015434"
       x2="44.512066"
       y1="6"
       x1="44.512066"
       gradientTransform="translate(0,-12)"
       gradientUnits="userSpaceOnUse"
       id="linearGradient4489"
       xlink:href="#linearGradient3637"
       inkscape:collect="always" />
    <linearGradient
       y2="7.0165396"
       x2="45.447727"
       y1="92.539597"
       x1="45.447727"
       gradientTransform="scale(1.0058652,0.994169)"
       gradientUnits="userSpaceOnUse"
       id="linearGradient4487"
       xlink:href="#ButtonShadow-9"
       inkscape:collect="always" />
    <inkscape:perspective
       sodipodi:type="inkscape:persp3d"
       inkscape:vp_x="0 : 0.5 : 1"
       inkscape:vp_y="0 : 1000 : 0"
       inkscape:vp_z="1 : 0.5 : 1"
       inkscape:persp3d-origin="0.5 : 0.33333333 : 1"
       id="perspective4465" />
    <linearGradient
       y2="7.0165396"
       x2="45.447727"
       y1="92.539597"
       x1="45.447727"
       gradientTransform="scale(1.0058652,0.994169)"
       gradientUnits="userSpaceOnUse"
       id="linearGradient4440"
       xlink:href="#ButtonShadow-9"
       inkscape:collect="always" />
    <linearGradient
       y2="90.015434"
       x2="44.512066"
       y1="6"
       x1="44.512066"
       gradientTransform="translate(0,-12)"
       gradientUnits="userSpaceOnUse"
       id="linearGradient4434"
       xlink:href="#linearGradient3637"
       inkscape:collect="always" />
    <linearGradient
       y2="63.893143"
       x2="36.357143"
       y1="6"
       x1="36.357143"
       gradientTransform="translate(0,-12)"
       gradientUnits="userSpaceOnUse"
       id="linearGradient4431"
       xlink:href="#linearGradient3737-5"
       inkscape:collect="always" />
    <radialGradient
       r="42"
       fy="90.171875"
       fx="48"
       cy="90.171875"
       cx="48"
       gradientTransform="matrix(1.1573129,0,0,0.99590774,-7.5510206,-11.802868)"
       gradientUnits="userSpaceOnUse"
       id="radialGradient4428"
       xlink:href="#linearGradient3737-5"
       inkscape:collect="always" />
    <radialGradient
       r="42"
       fy="90.171875"
       fx="48"
       cy="90.171875"
       cx="48"
       gradientTransform="matrix(1.1573129,0,0,0.99590774,-7.5510206,-11.802868)"
       gradientUnits="userSpaceOnUse"
       id="radialGradient4423"
       xlink:href="#linearGradient3737-5"
       inkscape:collect="always" />
    <linearGradient
       y2="63.893143"
       x2="36.357143"
       y1="6"
       x1="36.357143"
       gradientTransform="translate(0,-12)"
       gradientUnits="userSpaceOnUse"
       id="linearGradient4421"
       xlink:href="#linearGradient3737-5"
       inkscape:collect="always" />
    <linearGradient
       y2="90.015434"
       x2="44.512066"
       y1="6"
       x1="44.512066"
       gradientTransform="translate(0,-12)"
       gradientUnits="userSpaceOnUse"
       id="linearGradient4419"
       xlink:href="#linearGradient3637"
       inkscape:collect="always" />
    <linearGradient
       y2="7.0165396"
       x2="45.447727"
       y1="92.539597"
       x1="45.447727"
       gradientTransform="scale(1.0058652,0.994169)"
       gradientUnits="userSpaceOnUse"
       id="linearGradient4417"
       xlink:href="#ButtonShadow-9"
       inkscape:collect="always" />
    <radialGradient
       r="42"
       fy="90.171875"
       fx="48"
       cy="90.171875"
       cx="48"
       gradientTransform="matrix(1.1573129,0,0,0.99590774,-7.5510206,-11.802868)"
       gradientUnits="userSpaceOnUse"
       id="radialGradient4405"
       xlink:href="#linearGradient3737-5"
       inkscape:collect="always" />
    <linearGradient
       y2="63.893143"
       x2="36.357143"
       y1="6"
       x1="36.357143"
       gradientTransform="translate(0,-12)"
       gradientUnits="userSpaceOnUse"
       id="linearGradient4403"
       xlink:href="#linearGradient3737-5"
       inkscape:collect="always" />
    <linearGradient
       y2="90.015434"
       x2="44.512066"
       y1="6"
       x1="44.512066"
       gradientTransform="translate(0,-12)"
       gradientUnits="userSpaceOnUse"
       id="linearGradient4401"
       xlink:href="#linearGradient3637"
       inkscape:collect="always" />
    <linearGradient
       y2="7.0165396"
       x2="45.447727"
       y1="92.539597"
       x1="45.447727"
       gradientTransform="scale(1.0058652,0.994169)"
       gradientUnits="userSpaceOnUse"
       id="linearGradient4399"
       xlink:href="#ButtonShadow-9"
       inkscape:collect="always" />
    <linearGradient
       y2="23.729059"
       x2="49"
       y1="70"
       x1="49"
       gradientTransform="translate(100.02874,37.028653)"
       gradientUnits="userSpaceOnUse"
       id="linearGradient4355"
       xlink:href="#linearGradient4081-1"
       inkscape:collect="always" />
    <linearGradient
       id="linearGradient4081-1-5">
      <stop
         id="stop4083-0-8"
         style="stop-color:#aaaaaa;stop-opacity:1"
         offset="0" />
      <stop
         id="stop4085-1-6"
         style="stop-color:#f0f0f0;stop-opacity:1"
         offset="1" />
    </linearGradient>
    <linearGradient
       y2="23.729059"
       x2="49"
       y1="70"
       x1="49"
       gradientTransform="translate(92.250561,-0.44800685)"
       gradientUnits="userSpaceOnUse"
       id="linearGradient4296-8"
       xlink:href="#linearGradient4081-1-5"
       inkscape:collect="always" />
    <inkscape:perspective
       sodipodi:type="inkscape:persp3d"
       inkscape:vp_x="0 : 0.5 : 1"
       inkscape:vp_y="0 : 1000 : 0"
       inkscape:vp_z="1 : 0.5 : 1"
       inkscape:persp3d-origin="0.5 : 0.33333333 : 1"
       id="perspective4306" />
    <linearGradient
       y2="23.729059"
       x2="49"
       y1="70"
       x1="49"
       gradientTransform="translate(92.250561,-0.44800685)"
       gradientUnits="userSpaceOnUse"
       id="linearGradient4296"
       xlink:href="#linearGradient4081-1"
       inkscape:collect="always" />
    <linearGradient
       gradientTransform="translate(92.250561,-0.44800685)"
       y2="23.729059"
       x2="49"
       y1="70"
       x1="49"
       gradientUnits="userSpaceOnUse"
       id="linearGradient4283"
       xlink:href="#linearGradient4081-1"
       inkscape:collect="always" />
    <linearGradient
       y2="24"
       x2="56"
       y1="72"
       x1="56"
       gradientTransform="translate(-12.29112,-9.154328)"
       gradientUnits="userSpaceOnUse"
       id="linearGradient4278"
       xlink:href="#linearGradient3697"
       inkscape:collect="always" />
    <linearGradient
       y2="24"
       x2="56"
       y1="72"
       x1="56"
       gradientTransform="translate(-12.29112,-9.154328)"
       gradientUnits="userSpaceOnUse"
       id="linearGradient4270"
       xlink:href="#linearGradient3697"
       inkscape:collect="always" />
    <linearGradient
       y2="24"
       x2="56"
       y1="72"
       x1="56"
       gradientTransform="translate(-12.29112,-9.154328)"
       gradientUnits="userSpaceOnUse"
       id="linearGradient4262"
       xlink:href="#linearGradient3697"
       inkscape:collect="always" />
    <linearGradient
       y2="23.729059"
       x2="49"
       y1="70"
       x1="49"
       gradientUnits="userSpaceOnUse"
       id="linearGradient4240"
       xlink:href="#linearGradient4081-1"
       inkscape:collect="always" />
    <linearGradient
       gradientTransform="translate(176.74982,-96.260969)"
       y2="90.015434"
       x2="44.512066"
       y1="6"
       x1="44.512066"
       gradientUnits="userSpaceOnUse"
       id="linearGradient4236"
       xlink:href="#linearGradient3637-5"
       inkscape:collect="always" />
    <linearGradient
       gradientTransform="translate(176.74982,-96.260969)"
       y2="63.893143"
       x2="36.357143"
       y1="6"
       x1="36.357143"
       gradientUnits="userSpaceOnUse"
       id="linearGradient4233"
       xlink:href="#linearGradient3737-7"
       inkscape:collect="always" />
    <radialGradient
       r="42"
       fy="90.171875"
       fx="48"
       cy="90.171875"
       cx="48"
       gradientTransform="matrix(1.1573129,0,0,0.99590774,169.1988,-96.063837)"
       gradientUnits="userSpaceOnUse"
       id="radialGradient4230"
       xlink:href="#linearGradient3737-7"
       inkscape:collect="always" />
    <inkscape:perspective
       sodipodi:type="inkscape:persp3d"
       inkscape:vp_x="0 : 48 : 1"
       inkscape:vp_y="0 : 1000 : 0"
       inkscape:vp_z="96 : 48 : 1"
       inkscape:persp3d-origin="48 : 32 : 1"
       id="perspective4141" />
    <linearGradient
       id="linearGradient3637-5">
      <stop
         id="stop3639-8"
         style="stop-color:#f0f0f0;stop-opacity:1"
         offset="0" />
      <stop
         id="stop3641-0"
         style="stop-color:#dcdcdc;stop-opacity:1"
         offset="1" />
    </linearGradient>
    <linearGradient
       x1="45.447727"
       y1="92.539597"
       x2="45.447727"
       y2="7.0165396"
       id="ButtonShadow-7"
       gradientUnits="userSpaceOnUse"
       gradientTransform="scale(1.0058652,0.994169)">
      <stop
         id="stop3750-73"
         style="stop-color:#000000;stop-opacity:1"
         offset="0" />
      <stop
         id="stop3752-7"
         style="stop-color:#000000;stop-opacity:0.58823532"
         offset="1" />
    </linearGradient>
    <linearGradient
       id="linearGradient3737-7">
      <stop
         id="stop3739-93"
         style="stop-color:#ffffff;stop-opacity:1"
         offset="0" />
      <stop
         id="stop3741-2"
         style="stop-color:#ffffff;stop-opacity:0"
         offset="1" />
    </linearGradient>
    <linearGradient
       id="linearGradient3700-0">
      <stop
         id="stop3702-7"
         style="stop-color:#2276c5;stop-opacity:1"
         offset="0" />
      <stop
         id="stop3704-8"
         style="stop-color:#68baf4;stop-opacity:1"
         offset="1" />
    </linearGradient>
    <filter
       color-interpolation-filters="sRGB"
       id="filter3174-2">
      <feGaussianBlur
         id="feGaussianBlur3176-0"
         stdDeviation="1.71" />
    </filter>
    <linearGradient
       x1="36.357143"
       y1="6"
       x2="36.357143"
       y2="63.893143"
       id="linearGradient3188-7"
       xlink:href="#linearGradient3737-7"
       gradientUnits="userSpaceOnUse" />
    <radialGradient
       cx="48"
       cy="90.171875"
       r="42"
       fx="48"
       fy="90.171875"
       id="radialGradient3619-1"
       xlink:href="#linearGradient3737-7"
       gradientUnits="userSpaceOnUse"
       gradientTransform="matrix(1.1573129,0,0,0.99590774,-7.5510206,0.19713193)" />
    <linearGradient
       x1="48"
       y1="90"
       x2="48"
       y2="5.9877172"
       id="linearGradient2843-4"
       xlink:href="#linearGradient3700-0"
       gradientUnits="userSpaceOnUse"
       gradientTransform="translate(0,100)" />
    <clipPath
       id="clipPath3625-6">
      <path
         d="M 0,0 0,96 96,96 96,0 0,0 z m 12,6 72,0 c 3.324,0 6,2.676 6,6 l 0,72 c 0,3.324 -2.676,6 -6,6 L 12,90 C 8.676,90 6,87.324 6,84 L 6,12 C 6,8.676 8.676,6 12,6 z"
         inkscape:connector-curvature="0"
         id="path3627-1"
         style="fill:#ffffff;fill-opacity:1;stroke:none" />
    </clipPath>
    <linearGradient
       x1="44.512066"
       y1="6"
       x2="44.512066"
       y2="90.015434"
       id="linearGradient3643-1"
       xlink:href="#linearGradient3637-5"
       gradientUnits="userSpaceOnUse" />
    <clipPath
       id="clipPath3649-2">
      <rect
         width="76"
         height="76"
         rx="4"
         ry="4"
         x="10"
         y="10"
         id="rect3651-8"
         style="fill:#ffffff;fill-opacity:1;fill-rule:nonzero;stroke:none" />
    </clipPath>
    <filter
       color-interpolation-filters="sRGB"
       id="filter3657-8">
      <feGaussianBlur
         id="feGaussianBlur3659-7"
         stdDeviation="1.14" />
    </filter>
    <linearGradient
       id="linearGradient4081-1">
      <stop
         id="stop4083-0"
         style="stop-color:#aaaaaa;stop-opacity:1"
         offset="0" />
      <stop
         id="stop4085-1"
         style="stop-color:#f0f0f0;stop-opacity:1"
         offset="1" />
    </linearGradient>
    <linearGradient
       x1="49"
       y1="70"
       x2="49"
       y2="23.729059"
       id="linearGradient3818"
       xlink:href="#linearGradient4081-1"
       gradientUnits="userSpaceOnUse" />
    <filter
       color-interpolation-filters="sRGB"
       id="filter4054"
       inkscape:collect="always">
      <feGaussianBlur
         id="feGaussianBlur4056"
         stdDeviation="0.92000017"
         inkscape:collect="always" />
    </filter>
    <linearGradient
       id="linearGradient3697-2">
      <stop
         id="stop3699-3"
         style="stop-color:#bababa;stop-opacity:1"
         offset="0" />
      <stop
         id="stop3701-1"
         style="stop-color:#d2d2d2;stop-opacity:1"
         offset="1" />
    </linearGradient>
    <inkscape:perspective
       sodipodi:type="inkscape:persp3d"
       inkscape:vp_x="0 : 0.5 : 1"
       inkscape:vp_y="0 : 1000 : 0"
       inkscape:vp_z="1 : 0.5 : 1"
       inkscape:persp3d-origin="0.5 : 0.33333333 : 1"
       id="perspective4002" />
    <linearGradient
       id="linearGradient3697-1">
      <stop
         id="stop3699-8"
         style="stop-color:#bababa;stop-opacity:1"
         offset="0" />
      <stop
         id="stop3701-5"
         style="stop-color:#d2d2d2;stop-opacity:1"
         offset="1" />
    </linearGradient>
    <inkscape:perspective
       sodipodi:type="inkscape:persp3d"
       inkscape:vp_x="0 : 0.5 : 1"
       inkscape:vp_y="0 : 1000 : 0"
       inkscape:vp_z="1 : 0.5 : 1"
       inkscape:persp3d-origin="0.5 : 0.33333333 : 1"
       id="perspective3141" />
    <linearGradient
       gradientTransform="translate(0,-12)"
       y2="90.015434"
       x2="44.512066"
       y1="6"
       x1="44.512066"
       gradientUnits="userSpaceOnUse"
       id="linearGradient3129"
       xlink:href="#linearGradient3637"
       inkscape:collect="always" />
    <linearGradient
       gradientTransform="translate(0,-12)"
       y2="63.893143"
       x2="36.357143"
       y1="6"
       x1="36.357143"
       gradientUnits="userSpaceOnUse"
       id="linearGradient3126"
       xlink:href="#linearGradient3737-5"
       inkscape:collect="always" />
    <radialGradient
       r="42"
       fy="90.171875"
       fx="48"
       cy="90.171875"
       cx="48"
       gradientTransform="matrix(1.1573129,0,0,0.99590774,-7.5510206,-11.802868)"
       gradientUnits="userSpaceOnUse"
       id="radialGradient3123"
       xlink:href="#linearGradient3737-5"
       inkscape:collect="always" />
    <linearGradient
       y2="138.66119"
       x2="48"
       y1="20.220806"
       x1="48"
       gradientUnits="userSpaceOnUse"
       id="linearGradient3066"
       xlink:href="#linearGradient3737-9"
       inkscape:collect="always" />
    <inkscape:perspective
       sodipodi:type="inkscape:persp3d"
       inkscape:vp_x="0 : 48 : 1"
       inkscape:vp_y="0 : 1000 : 0"
       inkscape:vp_z="96 : 48 : 1"
       inkscape:persp3d-origin="48 : 32 : 1"
       id="perspective2943" />
    <linearGradient
       x1="45.447727"
       y1="92.539597"
       x2="45.447727"
       y2="7.0165396"
       id="ButtonShadow-4"
       gradientUnits="userSpaceOnUse"
       gradientTransform="scale(1.0058652,0.994169)">
      <stop
         id="stop3750-7"
         style="stop-color:#000000;stop-opacity:1"
         offset="0" />
      <stop
         id="stop3752-6"
         style="stop-color:#000000;stop-opacity:0.58823532"
         offset="1" />
    </linearGradient>
    <linearGradient
       id="linearGradient3700-5">
      <stop
         id="stop3702-6"
         style="stop-color:#e6e6e6;stop-opacity:1"
         offset="0" />
      <stop
         id="stop3704-9"
         style="stop-color:#f5f5f5;stop-opacity:1"
         offset="1" />
    </linearGradient>
    <linearGradient
       x1="48"
       y1="90"
       x2="48"
       y2="5.9877172"
       id="linearGradient3706"
       xlink:href="#linearGradient3700-5"
       gradientUnits="userSpaceOnUse" />
    <filter
       color-interpolation-filters="sRGB"
       id="filter3174-3">
      <feGaussianBlur
         id="feGaussianBlur3176-7"
         stdDeviation="1.71" />
    </filter>
    <linearGradient
       x1="45.447727"
       y1="92.539597"
       x2="45.447727"
       y2="7.0165396"
       id="ButtonShadow-0-0"
       gradientUnits="userSpaceOnUse"
       gradientTransform="matrix(1.0058652,0,0,0.994169,100,0)">
      <stop
         id="stop3750-8-5"
         style="stop-color:#000000;stop-opacity:1"
         offset="0" />
      <stop
         id="stop3752-5-6"
         style="stop-color:#000000;stop-opacity:0.58823532"
         offset="1" />
    </linearGradient>
    <linearGradient
       x1="32.251034"
       y1="6.1317081"
       x2="32.251034"
       y2="90.238609"
       id="linearGradient3780-9"
       xlink:href="#ButtonShadow-0-0"
       gradientUnits="userSpaceOnUse"
       gradientTransform="matrix(1.0238095,0,0,1.0119048,-1.1428571,-98.071429)" />
    <linearGradient
       x1="32.251034"
       y1="6.1317081"
       x2="32.251034"
       y2="90.238609"
       id="linearGradient3772-1"
       xlink:href="#ButtonShadow-0-0"
       gradientUnits="userSpaceOnUse"
       gradientTransform="matrix(1.0238095,0,0,1.0119048,-1.1428571,-98.071429)" />
    <linearGradient
       x1="32.251034"
       y1="6.1317081"
       x2="32.251034"
       y2="90.238609"
       id="linearGradient3725-1"
       xlink:href="#ButtonShadow-0-0"
       gradientUnits="userSpaceOnUse"
       gradientTransform="matrix(1.0238095,0,0,1.0119048,-1.1428571,-98.071429)" />
    <linearGradient
       x1="32.251034"
       y1="6.1317081"
       x2="32.251034"
       y2="90.238609"
       id="linearGradient3721-3"
       xlink:href="#ButtonShadow-0-0"
       gradientUnits="userSpaceOnUse"
       gradientTransform="translate(0,-97)" />
    <linearGradient
       x1="32.251034"
       y1="6.1317081"
       x2="32.251034"
       y2="90.238609"
       id="linearGradient3760"
       xlink:href="#ButtonShadow-0-0"
       gradientUnits="userSpaceOnUse"
       gradientTransform="matrix(1.0238095,0,0,1.0119048,-1.1428571,-98.071429)" />
    <linearGradient
       id="linearGradient3737-1">
      <stop
         id="stop3739-9"
         style="stop-color:#ffffff;stop-opacity:1"
         offset="0" />
      <stop
         id="stop3741-3"
         style="stop-color:#ffffff;stop-opacity:0"
         offset="1" />
    </linearGradient>
    <radialGradient
       cx="48"
       cy="90.171875"
       r="42"
       fx="48"
       fy="90.171875"
       id="radialGradient2886"
       xlink:href="#linearGradient3737-0"
       gradientUnits="userSpaceOnUse"
       gradientTransform="matrix(1.1573129,0,0,0.99590774,-7.551021,0.1971319)" />
    <linearGradient
       id="linearGradient3737-0">
      <stop
         id="stop3739-6"
         style="stop-color:#ffffff;stop-opacity:1"
         offset="0" />
      <stop
         id="stop3741-0"
         style="stop-color:#ffffff;stop-opacity:0"
         offset="1" />
    </linearGradient>
    <linearGradient
       x1="36.357143"
       y1="6"
       x2="36.357143"
       y2="63.893143"
       id="linearGradient3923"
       xlink:href="#linearGradient3737-1"
       gradientUnits="userSpaceOnUse" />
    <linearGradient
       id="linearGradient3697">
      <stop
         id="stop3699"
         style="stop-color:#bcbcbc;stop-opacity:1;"
         offset="0" />
      <stop
         id="stop3701"
         style="stop-color:#f3f3f3;stop-opacity:1;"
         offset="1" />
    </linearGradient>
    <linearGradient
       x1="56"
       y1="72"
       x2="56"
       y2="24"
       id="linearGradient3713"
       xlink:href="#linearGradient3697"
       gradientUnits="userSpaceOnUse" />
    <clipPath
       id="clipPath3743">
      <path
         d="m -88,6 c -3.324,0 -6,2.676 -6,6 l 0,72 c 0,3.324 2.676,6 6,6 l 72,0 c 3.324,0 6,-2.676 6,-6 l 0,-72 c 0,-3.324 -2.676,-6 -6,-6 l -72,0 z m 36,18 c 5.344692,0 9.687507,3.992831 9.6875,8.9375 -0.02133,0.621424 -0.07398,1.335406 -0.125,2.0625 0.730245,0.543315 0.778989,2.170384 0.0625,3.84375 -0.258603,0.603976 -0.555928,1.075565 -0.90625,1.5 -0.113311,0.524949 -0.197851,0.951157 -0.34375,1.5625 -0.396974,1.180487 -1.938671,3.498551 -3.125,5.3125 -0.07646,1.206398 -0.0877,2.400163 0.0625,3.625 3.709677,3.197549 13.39093,4.950832 13.40625,7.6875 L -32,66.84375 c 0,1.679322 -2.544846,3.197858 -6.53125,4.25 l -0.6875,2.375 A 1.4052899,1.3929762 0 0 1 -40.0625,74.375 c -0.18137,0.06953 -0.315419,0.200704 -0.8125,0.34375 C -43.493482,75.472297 -47.516862,76 -52,76 c -4.483138,0 -8.475268,-0.527703 -11.09375,-1.28125 -0.497081,-0.143046 -0.631128,-0.27418 -0.8125,-0.34375 a 1.4052899,1.3929762 0 0 1 -0.875,-0.9375 l -0.5625,-2.28125 C -69.429991,70.102441 -72,68.547059 -72,66.84375 l 1.28125,-8.3125 c -0.0144,-3.197542 9.588017,-4.598837 13.34375,-7.6875 0.261803,-1.513002 0.255123,-2.826115 0.125,-4.15625 -1.304823,-1.724246 -2.766418,-3.714925 -3.125,-4.78125 -0.11575,-0.525153 -0.18554,-0.878183 -0.28125,-1.34375 -0.01345,-0.01457 -0.04914,-0.04755 -0.0625,-0.0625 -0.400969,-0.447139 -0.802819,-0.976777 -1.09375,-1.65625 -0.754478,-1.762097 -0.627089,-3.521792 0.21875,-3.96875 -0.05944,-0.70484 -0.08077,-1.339582 -0.09375,-1.90625 C -61.6875,28.02408 -57.344692,24 -52,24 z"
         inkscape:connector-curvature="0"
         id="path3745"
         style="fill:#ff00ff;fill-opacity:1;fill-rule:nonzero;stroke:none" />
    </clipPath>
    <filter
       x="-0.16559999"
       y="-0.12738462"
       width="1.3312"
       height="1.2547692"
       color-interpolation-filters="sRGB"
       id="filter3747">
      <feGaussianBlur
         id="feGaussianBlur3749"
         stdDeviation="2.7599998" />
    </filter>
    <linearGradient
       id="linearGradient3737-9">
      <stop
         id="stop3739-2"
         style="stop-color:#ffffff;stop-opacity:1"
         offset="0" />
      <stop
         id="stop3741-1"
         style="stop-color:#ffffff;stop-opacity:0"
         offset="1" />
    </linearGradient>
    <clipPath
       id="clipPath3613-0">
      <rect
         width="84"
         height="84"
         rx="6"
         ry="6"
         x="6"
         y="6"
         id="rect3615-7"
         style="fill:#ffffff;fill-opacity:1;fill-rule:nonzero;stroke:none" />
    </clipPath>
    <filter
       x="-0.192"
       y="-0.192"
       width="1.3839999"
       height="1.3839999"
       color-interpolation-filters="sRGB"
       id="filter3794-1">
      <feGaussianBlur
         id="feGaussianBlur3796-2"
         stdDeviation="5.28" />
    </filter>
    <linearGradient
       x1="48"
       y1="20.220806"
       x2="48"
       y2="138.66119"
       id="linearGradient4052"
       xlink:href="#linearGradient3737-9"
       gradientUnits="userSpaceOnUse" />
    <linearGradient
       gradientTransform="matrix(0,-1,1,0,0,96)"
       gradientUnits="userSpaceOnUse"
       xlink:href="#linearGradient4081-6"
       id="linearGradient3702"
       y2="48"
       x2="69"
       y1="48"
       x1="27" />
    <linearGradient
       gradientTransform="matrix(0,-1,-1,0,36,16)"
       gradientUnits="userSpaceOnUse"
       xlink:href="#linearGradient4081-6"
       id="linearGradient3705"
       y2="51.954468"
       x2="65.693901"
       y1="51.954468"
       x1="29.826593" />
    <linearGradient
       gradientTransform="matrix(0,-1,-1,0,96,16)"
       gradientUnits="userSpaceOnUse"
       xlink:href="#linearGradient4081-6"
       id="linearGradient3034"
       y2="51.954468"
       x2="65.693901"
       y1="51.954468"
       x1="29.826593" />
    <linearGradient
       id="linearGradient4081-6">
      <stop
         offset="0"
         style="stop-color:#aaaaaa;stop-opacity:1"
         id="stop4083-2" />
      <stop
         offset="1"
         style="stop-color:#f0f0f0;stop-opacity:1"
         id="stop4085" />
    </linearGradient>
    <filter
       id="filter3657"
       color-interpolation-filters="sRGB">
      <feGaussianBlur
         stdDeviation="1.14"
         id="feGaussianBlur3659" />
    </filter>
    <clipPath
       id="clipPath3649">
      <rect
         style="fill:#ffffff;fill-opacity:1;fill-rule:nonzero;stroke:none"
         id="rect3651"
         y="10"
         x="10"
         ry="4"
         rx="4"
         height="76"
         width="76" />
    </clipPath>
    <linearGradient
       gradientUnits="userSpaceOnUse"
       xlink:href="#linearGradient3637"
       id="linearGradient3643"
       y2="90.015434"
       x2="44.512066"
       y1="6"
       x1="44.512066" />
    <clipPath
       id="clipPath3625">
      <path
         style="fill:#ffffff;fill-opacity:1;stroke:none"
         id="path3627"
         inkscape:connector-curvature="0"
         d="M 0,0 0,96 96,96 96,0 0,0 z m 12,6 72,0 c 3.324,0 6,2.676 6,6 l 0,72 c 0,3.324 -2.676,6 -6,6 L 12,90 C 8.676,90 6,87.324 6,84 L 6,12 C 6,8.676 8.676,6 12,6 z" />
    </clipPath>
    <linearGradient
       gradientTransform="translate(0,100)"
       gradientUnits="userSpaceOnUse"
       xlink:href="#linearGradient3700"
       id="linearGradient2843"
       y2="5.9877172"
       x2="48"
       y1="90"
       x1="48" />
    <radialGradient
       gradientTransform="matrix(1.1573129,0,0,0.99590774,-7.5510206,0.19713193)"
       gradientUnits="userSpaceOnUse"
       xlink:href="#linearGradient3737-5"
       id="radialGradient3619-19"
       fy="90.171875"
       fx="48"
       r="42"
       cy="90.171875"
       cx="48" />
    <linearGradient
       gradientUnits="userSpaceOnUse"
       xlink:href="#linearGradient3737-5"
       id="linearGradient3188-0"
       y2="63.893143"
       x2="36.357143"
       y1="6"
       x1="36.357143" />
    <filter
       id="filter3174-9"
       color-interpolation-filters="sRGB">
      <feGaussianBlur
         stdDeviation="1.71"
         id="feGaussianBlur3176-02" />
    </filter>
    <linearGradient
       id="linearGradient3700">
      <stop
         offset="0"
         style="stop-color:#2276c5;stop-opacity:1"
         id="stop3702" />
      <stop
         offset="1"
         style="stop-color:#68baf4;stop-opacity:1"
         id="stop3704" />
    </linearGradient>
    <linearGradient
       id="linearGradient3737-5">
      <stop
         offset="0"
         style="stop-color:#ffffff;stop-opacity:1"
         id="stop3739-3" />
      <stop
         offset="1"
         style="stop-color:#ffffff;stop-opacity:0"
         id="stop3741-4" />
    </linearGradient>
    <linearGradient
       gradientTransform="scale(1.0058652,0.994169)"
       gradientUnits="userSpaceOnUse"
       id="ButtonShadow-9"
       y2="7.0165396"
       x2="45.447727"
       y1="92.539597"
       x1="45.447727">
      <stop
         offset="0"
         style="stop-color:#000000;stop-opacity:1"
         id="stop3750-78" />
      <stop
         offset="1"
         style="stop-color:#000000;stop-opacity:0.58823532"
         id="stop3752-2" />
    </linearGradient>
    <linearGradient
       id="linearGradient3637">
      <stop
         offset="0"
         style="stop-color:#f0f0f0;stop-opacity:1"
         id="stop3639" />
      <stop
         offset="1"
         style="stop-color:#dcdcdc;stop-opacity:1"
         id="stop3641" />
    </linearGradient>
    <inkscape:perspective
       id="perspective67"
       inkscape:persp3d-origin="48 : 32 : 1"
       inkscape:vp_z="96 : 48 : 1"
       inkscape:vp_y="0 : 1000 : 0"
       inkscape:vp_x="0 : 48 : 1"
       sodipodi:type="inkscape:persp3d" />
    <linearGradient
       inkscape:collect="always"
       xlink:href="#ButtonShadow-9"
       id="linearGradient3354"
       gradientUnits="userSpaceOnUse"
       gradientTransform="scale(1.0058652,0.994169)"
       x1="45.447727"
       y1="92.539597"
       x2="45.447727"
       y2="7.0165396" />
    <linearGradient
       inkscape:collect="always"
       xlink:href="#linearGradient3697"
       id="linearGradient3380"
       gradientUnits="userSpaceOnUse"
       gradientTransform="translate(-12.29112,-9.154328)"
       x1="56"
       y1="72"
       x2="56"
       y2="24" />
    <linearGradient
       inkscape:collect="always"
       xlink:href="#ButtonShadow-0"
       id="linearGradient3382"
       gradientUnits="userSpaceOnUse"
       gradientTransform="matrix(1.0238095,0,0,-1.0119048,-1.1428571,98.071429)"
       x1="32.251034"
       y1="6.1317081"
       x2="32.251034"
       y2="90.238609" />
    <linearGradient
       inkscape:collect="always"
       xlink:href="#ButtonShadow-0"
       id="linearGradient3384"
       gradientUnits="userSpaceOnUse"
       gradientTransform="matrix(1.0238095,0,0,-1.0119048,-1.1428571,98.071429)"
       x1="32.251034"
       y1="6.1317081"
       x2="32.251034"
       y2="90.238609" />
    <linearGradient
       inkscape:collect="always"
       xlink:href="#ButtonShadow-0"
       id="linearGradient3386"
       gradientUnits="userSpaceOnUse"
       gradientTransform="matrix(1.0238095,0,0,-1.0119048,-1.1428571,98.071429)"
       x1="32.251034"
       y1="6.1317081"
       x2="32.251034"
       y2="90.238609" />
    <linearGradient
       inkscape:collect="always"
       xlink:href="#ButtonShadow-0"
       id="linearGradient3388"
       gradientUnits="userSpaceOnUse"
       gradientTransform="matrix(1.0238095,0,0,-1.0119048,-1.1428571,98.071429)"
       x1="32.251034"
       y1="6.1317081"
       x2="32.251034"
       y2="90.238609" />
    <linearGradient
       inkscape:collect="always"
       xlink:href="#ButtonShadow-0"
       id="linearGradient3390"
       gradientUnits="userSpaceOnUse"
       gradientTransform="matrix(1,0,0,-1,0,97)"
       x1="32.251034"
       y1="6.1317081"
       x2="32.251034"
       y2="90.238609" />
    <linearGradient
       inkscape:collect="always"
       xlink:href="#linearGradient3737"
       id="linearGradient3392"
       gradientUnits="userSpaceOnUse"
       x1="36.357143"
       y1="6"
       x2="36.357143"
       y2="63.893143" />
    <radialGradient
       inkscape:collect="always"
       xlink:href="#linearGradient3737"
       id="radialGradient3394"
       gradientUnits="userSpaceOnUse"
       gradientTransform="matrix(1.1573129,0,0,0.99590774,-7.5510206,0.19713193)"
       cx="48"
       cy="90.171875"
       fx="48"
       fy="90.171875"
       r="42" />
  </defs>
  <metadata
     id="metadata2413">
    <rdf:RDF>
      <cc:Work
         rdf:about="">
        <dc:format>image/svg+xml</dc:format>
        <dc:type
           rdf:resource="http://purl.org/dc/dcmitype/StillImage" />
        <dc:title></dc:title>
      </cc:Work>
    </rdf:RDF>
  </metadata>
  <g
     id="layer2"
     style="display:none"
     transform="translate(0,-18)">
    <rect
       width="86"
       height="85"
       rx="6"
       ry="6"
       x="5"
       y="7"
       id="rect3745"
       style="opacity:0.9;fill:url(#ButtonShadow);fill-opacity:1;fill-rule:nonzero;stroke:none;filter:url(#filter3174)" />
  </g>
  <g
     id="layer5"
     style="display:none"
     transform="translate(0,-18)">
    <rect
       width="66"
       height="66"
       rx="12"
       ry="12"
       x="15"
       y="15"
       clip-path="url(#clipPath3613)"
       id="rect3171"
       style="opacity:0.1;fill:url(#linearGradient3613);fill-opacity:1;fill-rule:nonzero;stroke:#ffffff;stroke-width:0.5;stroke-linecap:round;stroke-linejoin:miter;stroke-miterlimit:4;stroke-opacity:1;stroke-dasharray:none;stroke-dashoffset:0;filter:url(#filter3794)" />
  </g>
  <g
     id="layer2-5"
     style="display:none"
     transform="translate(366.03324,-48.529045)">
    <rect
       width="86"
       height="85"
       rx="6"
       ry="6"
       x="5"
       y="7"
       id="rect3745-2"
       style="opacity:0.9;fill:url(#ButtonShadow-4);fill-opacity:1;fill-rule:nonzero;stroke:none;filter:url(#filter3174-3)" />
  </g>
  <g
     id="g3017"
     transform="matrix(3.3090636,0,0,3.3090636,-0.70875793,-186.01632)">
    <g
       transform="matrix(0.39087289,0,0,0.39087289,-1.4504819,51.550854)"
       id="g4264">
      <g
         transform="matrix(1.0689359,0,0,1.0689359,-3.7591223,-1.578296)"
         id="g4272">
        <path
           d="m 35.70887,14.845719 c -5.34469,0 -9.67742,4.008446 -9.67742,8.953116 0.013,0.566668 0.0212,1.213684 0.0807,1.918524 -0.84584,0.446958 -0.95609,2.194858 -0.20161,3.956955 0.29093,0.679473 0.68774,1.231568 1.08871,1.678707 0.0134,0.01495 0.0269,0.02535 0.0403,0.03992 0.0957,0.465567 0.16651,0.833802 0.28226,1.358955 0.35858,1.066325 1.84033,3.072065 3.14516,4.796311 0.13012,1.330135 0.14082,2.643804 -0.12098,4.156806 -3.75573,3.088663 -13.36117,4.476556 -13.34677,7.674098 l -1.29032,8.313603 c 0,1.703309 2.56698,3.262871 6.65323,4.31668 l 0.56451,2.27825 a 1.4052899,1.3929762 0 0 0 0.8871,0.919293 c 0.18137,0.06957 0.30937,0.216674 0.80645,0.35972 2.61848,0.753547 6.60557,1.279012 11.08871,1.279012 4.48314,0 8.51055,-0.525465 11.12903,-1.279012 0.49708,-0.143046 0.62508,-0.290189 0.80645,-0.35972 a 1.4052899,1.3929762 0 0 0 0.84678,-0.879325 l 0.68548,-2.398156 c 3.98641,-1.052142 6.53226,-2.55742 6.53226,-4.236742 l -1.29033,-8.313598 c -0.0153,-2.736668 -9.67742,-4.476556 -13.3871,-7.674105 -0.15019,-1.224837 -0.15712,-2.430796 -0.0807,-3.637194 1.18633,-1.813949 2.74819,-4.135429 3.14517,-5.315916 0.14589,-0.611343 0.20926,-1.033853 0.32258,-1.558802 0.35032,-0.424435 0.66881,-0.914854 0.92741,-1.51883 0.71649,-1.673366 0.6496,-3.293734 -0.0806,-3.837049 0.051,-0.727094 0.0996,-1.417008 0.12097,-2.038432 0,-4.944669 -4.33272,-8.953114 -9.67741,-8.953114 z"
           inkscape:connector-curvature="0"
           id="path3798-1"
           style="fill:#000000;fill-opacity:1;stroke:none;display:inline;filter:url(#filter4054);enable-background:new" />
        <path
           d="m 35.70888,14.845672 c -5.34469,0 -9.6875,4.02408 -9.6875,8.96875 0.004,0.167266 0.0268,0.381812 0.0312,0.5625 0.2427,-4.74483 4.46749,-8.53125 9.65625,-8.53125 5.17194,0 9.38858,3.745577 9.65625,8.46875 0.009,-0.168598 0.0258,-0.371203 0.0312,-0.53125 1e-5,-4.944669 -4.34281,-8.9375 -9.6875,-8.9375 z m -9.65625,10.90625 c -0.51761,0.324949 -0.71249,1.161626 -0.59375,2.1875 0.078,-0.584405 0.28679,-1.023522 0.65625,-1.21875 -0.0302,-0.358467 -0.0514,-0.643159 -0.0625,-0.96875 z m 19.28125,0.15625 c -0.0199,0.3123 -0.0393,0.606882 -0.0625,0.9375 0.30226,0.224884 0.4648,0.634938 0.53125,1.15625 0.11661,-0.941191 -0.0405,-1.714619 -0.46875,-2.09375 z m -14.78125,13.65625 c -0.0138,0.683809 -0.0879,1.368499 -0.21875,2.125 -3.75573,3.088663 -13.35815,4.489958 -13.34375,7.6875 l -1.28125,8.3125 c 0,0.16115 0.0487,0.31048 0.0937,0.46875 l 1.1875,-7.78125 c -0.0144,-3.197542 9.58802,-4.598837 13.34375,-7.6875 0.19437,-1.123289 0.26214,-2.133144 0.21875,-3.125 z m 10.375,0.65625 c -0.0117,0.822845 -0.009,1.634493 0.0937,2.46875 3.70968,3.197549 13.39093,4.950832 13.40625,7.6875 l 1.1875,7.78125 c 0.0446,-0.155529 0.0937,-0.309869 0.0937,-0.46875 l -1.28125,-8.3125 c -0.0153,-2.736668 -9.69657,-4.489951 -13.40625,-7.6875 -0.0608,-0.496095 -0.0759,-0.977565 -0.0937,-1.46875 z"
           inkscape:connector-curvature="0"
           id="path3725-3"
           style="opacity:0.2;fill:#000000;fill-opacity:1;stroke:none;display:inline;filter:url(#filter4054);enable-background:new" />
        <path
           d="m 35.70887,14.845719 c -5.34469,0 -9.67742,4.008446 -9.67742,8.953116 0.013,0.566668 0.0212,1.213684 0.0807,1.918524 -0.84584,0.446958 -0.95609,2.194858 -0.20161,3.956955 0.29093,0.679473 0.68774,1.231568 1.08871,1.678707 0.0134,0.01495 0.0269,0.02535 0.0403,0.03992 0.0957,0.465567 0.16651,0.833802 0.28226,1.358955 0.35858,1.066325 1.84033,3.072065 3.14516,4.796311 0.13012,1.330135 0.14082,2.643804 -0.12098,4.156806 -3.75573,3.088663 -13.36117,4.476556 -13.34677,7.674098 l -1.29032,8.313603 c 0,1.703309 2.56698,3.262871 6.65323,4.31668 l 0.56451,2.27825 a 1.4052899,1.3929762 0 0 0 0.8871,0.919293 c 0.18137,0.06957 0.30937,0.216674 0.80645,0.35972 2.61848,0.753547 6.60557,1.279012 11.08871,1.279012 4.48314,0 8.51055,-0.525465 11.12903,-1.279012 0.49708,-0.143046 0.62508,-0.290189 0.80645,-0.35972 a 1.4052899,1.3929762 0 0 0 0.84678,-0.879325 l 0.68548,-2.398156 c 3.98641,-1.052142 6.53226,-2.55742 6.53226,-4.236742 l -1.29033,-8.313598 c -0.0153,-2.736668 -9.67742,-4.476556 -13.3871,-7.674105 -0.15019,-1.224837 -0.15712,-2.430796 -0.0807,-3.637194 1.18633,-1.813949 2.74819,-4.135429 3.14517,-5.315916 0.14589,-0.611343 0.20926,-1.033853 0.32258,-1.558802 0.35032,-0.424435 0.66881,-0.914854 0.92741,-1.51883 0.71649,-1.673366 0.6496,-3.293734 -0.0806,-3.837049 0.051,-0.727094 0.0996,-1.417008 0.12097,-2.038432 0,-4.944669 -4.33272,-8.953114 -9.67741,-8.953114 z"
           inkscape:connector-curvature="0"
           id="path3798"
           style="fill:url(#linearGradient3380);fill-opacity:1;stroke:none;display:inline;enable-background:new" />
        <path
           d="m 35.70888,14.845672 c -5.34469,0 -9.6875,4.02408 -9.6875,8.96875 0.004,0.167266 0.0268,0.381812 0.0312,0.5625 0.2427,-4.74483 4.46749,-8.53125 9.65625,-8.53125 5.17194,0 9.38858,3.745577 9.65625,8.46875 0.009,-0.168598 0.0258,-0.371203 0.0312,-0.53125 1e-5,-4.944669 -4.34281,-8.9375 -9.6875,-8.9375 z m -9.65625,10.90625 c -0.51761,0.324949 -0.71249,1.161626 -0.59375,2.1875 0.078,-0.584405 0.28679,-1.023522 0.65625,-1.21875 -0.0302,-0.358467 -0.0514,-0.643159 -0.0625,-0.96875 z m 19.28125,0.15625 c -0.0199,0.3123 -0.0393,0.606882 -0.0625,0.9375 0.30226,0.224884 0.4648,0.634938 0.53125,1.15625 0.11661,-0.941191 -0.0405,-1.714619 -0.46875,-2.09375 z m -14.78125,13.65625 c -0.0138,0.683809 -0.0879,1.368499 -0.21875,2.125 -3.75573,3.088663 -13.35815,4.489958 -13.34375,7.6875 l -1.28125,8.3125 c 0,0.16115 0.0487,0.31048 0.0937,0.46875 l 1.1875,-7.78125 c -0.0144,-3.197542 9.58802,-4.598837 13.34375,-7.6875 0.19437,-1.123289 0.26214,-2.133144 0.21875,-3.125 z m 10.375,0.65625 c -0.0117,0.822845 -0.009,1.634493 0.0937,2.46875 3.70968,3.197549 13.39093,4.950832 13.40625,7.6875 l 1.1875,7.78125 c 0.0446,-0.155529 0.0937,-0.309869 0.0937,-0.46875 l -1.28125,-8.3125 c -0.0153,-2.736668 -9.69657,-4.489951 -13.40625,-7.6875 -0.0608,-0.496095 -0.0759,-0.977565 -0.0937,-1.46875 z"
           inkscape:connector-curvature="0"
           id="path3725"
           style="opacity:0.2;fill:#000000;fill-opacity:1;stroke:none;display:inline;enable-background:new" />
      </g>
    </g>
  </g>
</svg>
