<?xml version="1.0" encoding="UTF-8" standalone="no"?>
<!-- Created with Inkscape (http://www.inkscape.org/) -->

<svg
   xmlns:dc="http://purl.org/dc/elements/1.1/"
   xmlns:cc="http://creativecommons.org/ns#"
   xmlns:rdf="http://www.w3.org/1999/02/22-rdf-syntax-ns#"
   xmlns:svg="http://www.w3.org/2000/svg"
   xmlns="http://www.w3.org/2000/svg"
   xmlns:xlink="http://www.w3.org/1999/xlink"
   xmlns:sodipodi="http://sodipodi.sourceforge.net/DTD/sodipodi-0.dtd"
   xmlns:inkscape="http://www.inkscape.org/namespaces/inkscape"
   version="1.0"
   width="78"
   height="78"
   id="svg2408"
   inkscape:version="0.47 r22583"
   sodipodi:docname="gtalk.svg"
   inkscape:export-filename="/home/francesco/neo_freerunner/qtmoko/faenqomod/svg/faenqomod_pics/gtalksettings/gtalk.png"
   inkscape:export-xdpi="90"
   inkscape:export-ydpi="90">
  <sodipodi:namedview
     pagecolor="#ffffff"
     bordercolor="#666666"
     borderopacity="1"
     objecttolerance="10"
     gridtolerance="10"
     guidetolerance="10"
     inkscape:pageopacity="0"
     inkscape:pageshadow="2"
     inkscape:window-width="1366"
     inkscape:window-height="709"
     id="namedview67"
     showgrid="false"
     borderlayer="true"
     inkscape:showpageshadow="false"
     inkscape:zoom="2"
     inkscape:cx="8.990864"
     inkscape:cy="37.786506"
     inkscape:window-x="0"
     inkscape:window-y="25"
     inkscape:window-maximized="1"
     inkscape:current-layer="svg2408" />
  <defs
     id="defs2410">
    <inkscape:perspective
       sodipodi:type="inkscape:persp3d"
       inkscape:vp_x="0 : 48 : 1"
       inkscape:vp_y="0 : 1000 : 0"
       inkscape:vp_z="96 : 48 : 1"
       inkscape:persp3d-origin="48 : 32 : 1"
       id="perspective69" />
    <linearGradient
       id="linearGradient3731">
      <stop
         id="stop3733"
         style="stop-color:#dcdcdc;stop-opacity:1"
         offset="0" />
      <stop
         id="stop3757"
         style="stop-color:#ebebeb;stop-opacity:1"
         offset="0.30654153" />
      <stop
         id="stop3737"
         style="stop-color:#ffffff;stop-opacity:1"
         offset="0.70706075" />
      <stop
         id="stop3759"
         style="stop-color:#fafafa;stop-opacity:1"
         offset="0.84501493" />
      <stop
         id="stop3735"
         style="stop-color:#f0f0f0;stop-opacity:1"
         offset="1" />
    </linearGradient>
    <linearGradient
       id="linearGradient2881">
      <stop
         id="stop2883"
         style="stop-color:#1e57ae;stop-opacity:1"
         offset="0" />
      <stop
         id="stop2885"
         style="stop-color:#7da8e9;stop-opacity:1"
         offset="1" />
    </linearGradient>
    <linearGradient
       x1="45.447727"
       y1="92.539597"
       x2="45.447727"
       y2="7.0165396"
       id="ButtonShadow"
       gradientUnits="userSpaceOnUse"
       gradientTransform="scale(1.0058652,0.994169)">
      <stop
         id="stop3750"
         style="stop-color:#000000;stop-opacity:1"
         offset="0" />
      <stop
         id="stop3752"
         style="stop-color:#000000;stop-opacity:0.58823532"
         offset="1" />
    </linearGradient>
    <linearGradient
       id="linearGradient3737">
      <stop
         id="stop3739"
         style="stop-color:#ffffff;stop-opacity:1"
         offset="0" />
      <stop
         id="stop3741"
         style="stop-color:#ffffff;stop-opacity:0"
         offset="1" />
    </linearGradient>
    <filter
       color-interpolation-filters="sRGB"
       id="filter3174">
      <feGaussianBlur
         id="feGaussianBlur3176"
         stdDeviation="1.71" />
    </filter>
    <linearGradient
       x1="36.357143"
       y1="6"
       x2="36.357143"
       y2="63.893143"
       id="linearGradient3188"
       xlink:href="#linearGradient3737"
       gradientUnits="userSpaceOnUse" />
    <filter
       x="-0.192"
       y="-0.192"
       width="1.3839999"
       height="1.3839999"
       color-interpolation-filters="sRGB"
       id="filter3794">
      <feGaussianBlur
         id="feGaussianBlur3796"
         stdDeviation="5.28" />
    </filter>
    <linearGradient
       x1="48"
       y1="20.220806"
       x2="48"
       y2="138.66119"
       id="linearGradient3613"
       xlink:href="#linearGradient3737"
       gradientUnits="userSpaceOnUse" />
    <radialGradient
       cx="48"
       cy="90.171875"
       r="42"
       fx="48"
       fy="90.171875"
       id="radialGradient3619"
       xlink:href="#linearGradient3737"
       gradientUnits="userSpaceOnUse"
       gradientTransform="matrix(1.1573129,0,0,0.99590774,-7.5510206,0.19713193)" />
    <clipPath
       id="clipPath3613">
      <rect
         width="84"
         height="84"
         rx="6"
         ry="6"
         x="6"
         y="6"
         id="rect3615"
         style="fill:#ffffff;fill-opacity:1;fill-rule:nonzero;stroke:none" />
    </clipPath>
    <linearGradient
       x1="48"
       y1="90"
       x2="48"
       y2="5.9877172"
       id="linearGradient3617"
       xlink:href="#linearGradient2881"
       gradientUnits="userSpaceOnUse" />
    <linearGradient
       x1="48.082497"
       y1="75.561722"
       x2="46.654823"
       y2="16.972879"
       id="linearGradient4886"
       xlink:href="#linearGradient3731"
       gradientUnits="userSpaceOnUse"
       gradientTransform="translate(0,1)" />
    <linearGradient
       x1="45.447727"
       y1="92.539597"
       x2="45.447727"
       y2="7.0165396"
       id="ButtonShadow-0"
       gradientUnits="userSpaceOnUse"
       gradientTransform="matrix(1.0058652,0,0,0.994169,100,0)">
      <stop
         id="stop3750-8"
         style="stop-color:#000000;stop-opacity:1"
         offset="0" />
      <stop
         id="stop3752-5"
         style="stop-color:#000000;stop-opacity:0.58823532"
         offset="1" />
    </linearGradient>
    <linearGradient
       x1="32.251034"
       y1="6.1317081"
       x2="32.251034"
       y2="90.238609"
       id="linearGradient3780"
       xlink:href="#ButtonShadow-0"
       gradientUnits="userSpaceOnUse"
       gradientTransform="matrix(1.0238095,0,0,1.0119048,-1.1428571,-98.071429)" />
    <linearGradient
       x1="32.251034"
       y1="6.1317081"
       x2="32.251034"
       y2="90.238609"
       id="linearGradient3772"
       xlink:href="#ButtonShadow-0"
       gradientUnits="userSpaceOnUse"
       gradientTransform="matrix(1.0238095,0,0,1.0119048,-1.1428571,-98.071429)" />
    <linearGradient
       x1="32.251034"
       y1="6.1317081"
       x2="32.251034"
       y2="90.238609"
       id="linearGradient3725"
       xlink:href="#ButtonShadow-0"
       gradientUnits="userSpaceOnUse"
       gradientTransform="matrix(1.0238095,0,0,1.0119048,-1.1428571,-98.071429)" />
    <linearGradient
       x1="32.251034"
       y1="6.1317081"
       x2="32.251034"
       y2="90.238609"
       id="linearGradient3721"
       xlink:href="#ButtonShadow-0"
       gradientUnits="userSpaceOnUse"
       gradientTransform="translate(0,-97)" />
    <linearGradient
       x1="32.251034"
       y1="6.1317081"
       x2="32.251034"
       y2="90.238609"
       id="linearGradient2918"
       xlink:href="#ButtonShadow-0"
       gradientUnits="userSpaceOnUse"
       gradientTransform="matrix(1.0238095,0,0,1.0119048,-1.1428571,-98.071429)" />
    <linearGradient
       inkscape:collect="always"
       xlink:href="#linearGradient3731"
       id="linearGradient2883"
       gradientUnits="userSpaceOnUse"
       gradientTransform="translate(0,1)"
       x1="48.082497"
       y1="75.561722"
       x2="46.654823"
       y2="16.972879" />
    <linearGradient
       inkscape:collect="always"
       xlink:href="#linearGradient3731"
       id="linearGradient2898"
       gradientUnits="userSpaceOnUse"
       gradientTransform="translate(0,1)"
       x1="48.082497"
       y1="75.561722"
       x2="46.654823"
       y2="16.972879" />
    <linearGradient
       gradientTransform="matrix(1.0238095,0,0,1.0119048,-1.1428571,-98.071429)"
       gradientUnits="userSpaceOnUse"
       xlink:href="#ButtonShadow-0-0"
       id="linearGradient2918-7"
       y2="90.238609"
       x2="32.251034"
       y1="6.1317081"
       x1="32.251034" />
    <linearGradient
       gradientTransform="translate(0,-97)"
       gradientUnits="userSpaceOnUse"
       xlink:href="#ButtonShadow-0-0"
       id="linearGradient3721-2"
       y2="90.238609"
       x2="32.251034"
       y1="6.1317081"
       x1="32.251034" />
    <linearGradient
       gradientTransform="matrix(1.0238095,0,0,1.0119048,-1.1428571,-98.071429)"
       gradientUnits="userSpaceOnUse"
       xlink:href="#ButtonShadow-0-0"
       id="linearGradient3725-7"
       y2="90.238609"
       x2="32.251034"
       y1="6.1317081"
       x1="32.251034" />
    <linearGradient
       gradientTransform="matrix(1.0238095,0,0,1.0119048,-1.1428571,-98.071429)"
       gradientUnits="userSpaceOnUse"
       xlink:href="#ButtonShadow-0-0"
       id="linearGradient3772-1"
       y2="90.238609"
       x2="32.251034"
       y1="6.1317081"
       x1="32.251034" />
    <linearGradient
       gradientTransform="matrix(1.0238095,0,0,1.0119048,-1.1428571,-98.071429)"
       gradientUnits="userSpaceOnUse"
       xlink:href="#ButtonShadow-0-0"
       id="linearGradient3780-7"
       y2="90.238609"
       x2="32.251034"
       y1="6.1317081"
       x1="32.251034" />
    <linearGradient
       gradientTransform="matrix(1.0058652,0,0,0.994169,100,0)"
       gradientUnits="userSpaceOnUse"
       id="ButtonShadow-0-0"
       y2="7.0165396"
       x2="45.447727"
       y1="92.539597"
       x1="45.447727">
      <stop
         offset="0"
         style="stop-color:#000000;stop-opacity:1"
         id="stop3750-8-4" />
      <stop
         offset="1"
         style="stop-color:#000000;stop-opacity:0.58823532"
         id="stop3752-5-8" />
    </linearGradient>
    <linearGradient
       gradientTransform="translate(100,0)"
       gradientUnits="userSpaceOnUse"
       xlink:href="#linearGradient2881-6"
       id="linearGradient3662"
       y2="5.9877172"
       x2="48"
       y1="90"
       x1="48" />
    <linearGradient
       gradientUnits="userSpaceOnUse"
       xlink:href="#linearGradient3739"
       id="linearGradient3746"
       y2="48.272732"
       x2="81"
       y1="48.272732"
       x1="15" />
    <linearGradient
       gradientTransform="translate(0,1)"
       gradientUnits="userSpaceOnUse"
       xlink:href="#linearGradient3731-4"
       id="linearGradient3664"
       y2="16.972879"
       x2="46.654823"
       y1="75.561722"
       x1="48.082497" />
    <linearGradient
       gradientTransform="translate(-125,0.65261)"
       gradientUnits="userSpaceOnUse"
       xlink:href="#linearGradient3697"
       id="linearGradient3661"
       y2="26.413651"
       x2="71.671646"
       y1="62.025059"
       x1="71.671646" />
    <linearGradient
       gradientUnits="userSpaceOnUse"
       xlink:href="#linearGradient3614"
       id="linearGradient3617-5"
       y2="5.9877172"
       x2="48"
       y1="90"
       x1="48" />
    <clipPath
       id="clipPath3613-4">
      <rect
         style="fill:#ffffff;fill-opacity:1;fill-rule:nonzero;stroke:none"
         id="rect3615-9"
         y="6"
         x="6"
         ry="6"
         rx="6"
         height="84"
         width="84" />
    </clipPath>
    <radialGradient
       gradientTransform="matrix(1.1573129,0,0,0.99590774,-7.5510206,0.19713193)"
       gradientUnits="userSpaceOnUse"
       xlink:href="#linearGradient3737-4"
       id="radialGradient3619-6"
       fy="90.171875"
       fx="48"
       r="42"
       cy="90.171875"
       cx="48" />
    <linearGradient
       gradientUnits="userSpaceOnUse"
       xlink:href="#linearGradient3737-4"
       id="linearGradient3613-6"
       y2="138.66119"
       x2="48"
       y1="20.220806"
       x1="48" />
    <filter
       id="filter3794-9"
       color-interpolation-filters="sRGB"
       height="1.3839999"
       width="1.3839999"
       y="-0.192"
       x="-0.192">
      <feGaussianBlur
         stdDeviation="5.28"
         id="feGaussianBlur3796-2" />
    </filter>
    <linearGradient
       gradientUnits="userSpaceOnUse"
       xlink:href="#linearGradient3737-4"
       id="linearGradient3188-8"
       y2="63.893143"
       x2="36.357143"
       y1="6"
       x1="36.357143" />
    <filter
       id="filter3174-0"
       color-interpolation-filters="sRGB">
      <feGaussianBlur
         stdDeviation="1.71"
         id="feGaussianBlur3176-6" />
    </filter>
    <linearGradient
       id="linearGradient3737-4">
      <stop
         offset="0"
         style="stop-color:#ffffff;stop-opacity:1"
         id="stop3739-9" />
      <stop
         offset="1"
         style="stop-color:#ffffff;stop-opacity:0"
         id="stop3741-2" />
    </linearGradient>
    <linearGradient
       gradientTransform="scale(1.0058652,0.994169)"
       gradientUnits="userSpaceOnUse"
       id="ButtonShadow-4"
       y2="7.0165396"
       x2="45.447727"
       y1="92.539597"
       x1="45.447727">
      <stop
         offset="0"
         style="stop-color:#000000;stop-opacity:1"
         id="stop3750-3" />
      <stop
         offset="1"
         style="stop-color:#000000;stop-opacity:0.58823532"
         id="stop3752-1" />
    </linearGradient>
    <linearGradient
       id="linearGradient3614">
      <stop
         offset="0"
         style="stop-color:#65a31b;stop-opacity:1"
         id="stop3616" />
      <stop
         offset="1"
         style="stop-color:#a0de42;stop-opacity:1"
         id="stop3618" />
    </linearGradient>
    <linearGradient
       id="linearGradient3697">
      <stop
         offset="0"
         style="stop-color:#dcdcdc;stop-opacity:1"
         id="stop3699" />
      <stop
         offset="1"
         style="stop-color:#f0f0f0;stop-opacity:1"
         id="stop3701" />
    </linearGradient>
    <linearGradient
       id="linearGradient2881-6">
      <stop
         offset="0"
         style="stop-color:#3e5e8e;stop-opacity:1"
         id="stop2883-8" />
      <stop
         offset="1"
         style="stop-color:#89a4cb;stop-opacity:1"
         id="stop2885-8" />
    </linearGradient>
    <linearGradient
       id="linearGradient3731-4">
      <stop
         offset="0"
         style="stop-color:#dcdcdc;stop-opacity:1"
         id="stop3733-4" />
      <stop
         offset="0.30654153"
         style="stop-color:#ebebeb;stop-opacity:1"
         id="stop3757-3" />
      <stop
         offset="0.70706075"
         style="stop-color:#ffffff;stop-opacity:1"
         id="stop3737-0" />
      <stop
         offset="0.84501493"
         style="stop-color:#fafafa;stop-opacity:1"
         id="stop3759-7" />
      <stop
         offset="1"
         style="stop-color:#f0f0f0;stop-opacity:1"
         id="stop3735-8" />
    </linearGradient>
    <linearGradient
       id="linearGradient3739">
      <stop
         offset="0"
         style="stop-color:#ffffff;stop-opacity:1"
         id="stop3742" />
      <stop
         offset="1"
         style="stop-color:#ffffff;stop-opacity:0"
         id="stop3744" />
    </linearGradient>
    <inkscape:perspective
       id="perspective2978"
       inkscape:persp3d-origin="48 : 32 : 1"
       inkscape:vp_z="96 : 48 : 1"
       inkscape:vp_y="0 : 1000 : 0"
       inkscape:vp_x="0 : 48 : 1"
       sodipodi:type="inkscape:persp3d" />
    <linearGradient
       inkscape:collect="always"
       xlink:href="#linearGradient3731-4"
       id="linearGradient3083"
       gradientUnits="userSpaceOnUse"
       gradientTransform="translate(0,1)"
       x1="48.082497"
       y1="75.561722"
       x2="46.654823"
       y2="16.972879" />
    <linearGradient
       inkscape:collect="always"
       xlink:href="#linearGradient3739"
       id="linearGradient3085"
       gradientUnits="userSpaceOnUse"
       x1="15"
       y1="48.272732"
       x2="81"
       y2="48.272732" />
    <linearGradient
       inkscape:collect="always"
       xlink:href="#linearGradient3697"
       id="linearGradient3087"
       gradientUnits="userSpaceOnUse"
       gradientTransform="translate(-125,0.65261)"
       x1="71.671646"
       y1="62.025059"
       x2="71.671646"
       y2="26.413651" />
    <linearGradient
       inkscape:collect="always"
       xlink:href="#linearGradient3697"
       id="linearGradient3090"
       gradientUnits="userSpaceOnUse"
       gradientTransform="translate(-108.18879,-108.59843)"
       x1="71.671646"
       y1="62.025059"
       x2="71.671646"
       y2="26.413651" />
    <linearGradient
       inkscape:collect="always"
       xlink:href="#linearGradient3739"
       id="linearGradient3093"
       gradientUnits="userSpaceOnUse"
       x1="15"
       y1="48.272732"
       x2="81"
       y2="48.272732"
       gradientTransform="translate(16.811209,-109.25104)" />
    <linearGradient
       inkscape:collect="always"
       xlink:href="#linearGradient3731-4"
       id="linearGradient3100"
       gradientUnits="userSpaceOnUse"
       gradientTransform="translate(16.811209,-108.25104)"
       x1="48.082497"
       y1="75.561722"
       x2="46.654823"
       y2="16.972879" />
    <linearGradient
       inkscape:collect="always"
       xlink:href="#linearGradient3731-4"
       id="linearGradient3114"
       gradientUnits="userSpaceOnUse"
       gradientTransform="translate(16.811209,-108.25104)"
       x1="48.082497"
       y1="75.561722"
       x2="46.654823"
       y2="16.972879" />
    <linearGradient
       inkscape:collect="always"
       xlink:href="#linearGradient3739"
       id="linearGradient3116"
       gradientUnits="userSpaceOnUse"
       gradientTransform="translate(16.811209,-109.25104)"
       x1="15"
       y1="48.272732"
       x2="81"
       y2="48.272732" />
    <linearGradient
       inkscape:collect="always"
       xlink:href="#ButtonShadow-0"
       id="linearGradient3139"
       gradientUnits="userSpaceOnUse"
       gradientTransform="matrix(1.0238095,0,0,1.0119048,-1.1428571,-98.071429)"
       x1="32.251034"
       y1="6.1317081"
       x2="32.251034"
       y2="90.238609" />
    <linearGradient
       inkscape:collect="always"
       xlink:href="#ButtonShadow-0"
       id="linearGradient3141"
       gradientUnits="userSpaceOnUse"
       gradientTransform="matrix(1.0238095,0,0,1.0119048,-1.1428571,-98.071429)"
       x1="32.251034"
       y1="6.1317081"
       x2="32.251034"
       y2="90.238609" />
    <linearGradient
       inkscape:collect="always"
       xlink:href="#ButtonShadow-0"
       id="linearGradient3143"
       gradientUnits="userSpaceOnUse"
       gradientTransform="matrix(1.0238095,0,0,1.0119048,-1.1428571,-98.071429)"
       x1="32.251034"
       y1="6.1317081"
       x2="32.251034"
       y2="90.238609" />
    <linearGradient
       inkscape:collect="always"
       xlink:href="#ButtonShadow-0"
       id="linearGradient3145"
       gradientUnits="userSpaceOnUse"
       gradientTransform="matrix(1.0238095,0,0,1.0119048,-1.1428571,-98.071429)"
       x1="32.251034"
       y1="6.1317081"
       x2="32.251034"
       y2="90.238609" />
    <linearGradient
       inkscape:collect="always"
       xlink:href="#ButtonShadow-0"
       id="linearGradient3147"
       gradientUnits="userSpaceOnUse"
       gradientTransform="translate(0,-97)"
       x1="32.251034"
       y1="6.1317081"
       x2="32.251034"
       y2="90.238609" />
    <linearGradient
       inkscape:collect="always"
       xlink:href="#linearGradient2881"
       id="linearGradient3149"
       gradientUnits="userSpaceOnUse"
       x1="48"
       y1="90"
       x2="48"
       y2="5.9877172" />
    <linearGradient
       inkscape:collect="always"
       xlink:href="#linearGradient3737"
       id="linearGradient3151"
       gradientUnits="userSpaceOnUse"
       x1="36.357143"
       y1="6"
       x2="36.357143"
       y2="63.893143" />
    <radialGradient
       inkscape:collect="always"
       xlink:href="#linearGradient3737"
       id="radialGradient3153"
       gradientUnits="userSpaceOnUse"
       gradientTransform="matrix(1.1573129,0,0,0.99590774,-7.5510206,0.19713193)"
       cx="48"
       cy="90.171875"
       fx="48"
       fy="90.171875"
       r="42" />
    <linearGradient
       inkscape:collect="always"
       xlink:href="#linearGradient3737"
       id="linearGradient3155"
       gradientUnits="userSpaceOnUse"
       x1="48"
       y1="20.220806"
       x2="48"
       y2="138.66119" />
    <linearGradient
       inkscape:collect="always"
       xlink:href="#ButtonShadow-4"
       id="linearGradient3161"
       gradientUnits="userSpaceOnUse"
       gradientTransform="scale(1.0058652,0.994169)"
       x1="45.447727"
       y1="92.539597"
       x2="45.447727"
       y2="7.0165396" />
    <inkscape:perspective
       id="perspective2952"
       inkscape:persp3d-origin="128 : 85.333333 : 1"
       inkscape:vp_z="256 : 128 : 1"
       inkscape:vp_y="0 : 1000 : 0"
       inkscape:vp_x="0 : 128 : 1"
       sodipodi:type="inkscape:persp3d" />
    <linearGradient
       inkscape:collect="always"
       xlink:href="#linearGradient3731-4"
       id="linearGradient2984"
       gradientUnits="userSpaceOnUse"
       gradientTransform="translate(16.811209,-108.25104)"
       x1="48.082497"
       y1="75.561722"
       x2="46.654823"
       y2="16.972879" />
    <linearGradient
       inkscape:collect="always"
       xlink:href="#linearGradient3739"
       id="linearGradient2986"
       gradientUnits="userSpaceOnUse"
       gradientTransform="translate(16.811209,-109.25104)"
       x1="15"
       y1="48.272732"
       x2="81"
       y2="48.272732" />
    <inkscape:perspective
       id="perspective3005"
       inkscape:persp3d-origin="0.5 : 0.33333333 : 1"
       inkscape:vp_z="1 : 0.5 : 1"
       inkscape:vp_y="0 : 1000 : 0"
       inkscape:vp_x="0 : 0.5 : 1"
       sodipodi:type="inkscape:persp3d" />
    <inkscape:perspective
       id="perspective3808"
       inkscape:persp3d-origin="0.5 : 0.33333333 : 1"
       inkscape:vp_z="1 : 0.5 : 1"
       inkscape:vp_y="0 : 1000 : 0"
       inkscape:vp_x="0 : 0.5 : 1"
       sodipodi:type="inkscape:persp3d" />
    <inkscape:perspective
       id="perspective3808-2"
       inkscape:persp3d-origin="0.5 : 0.33333333 : 1"
       inkscape:vp_z="1 : 0.5 : 1"
       inkscape:vp_y="0 : 1000 : 0"
       inkscape:vp_x="0 : 0.5 : 1"
       sodipodi:type="inkscape:persp3d" />
    <inkscape:perspective
       id="perspective3808-3"
       inkscape:persp3d-origin="0.5 : 0.33333333 : 1"
       inkscape:vp_z="1 : 0.5 : 1"
       inkscape:vp_y="0 : 1000 : 0"
       inkscape:vp_x="0 : 0.5 : 1"
       sodipodi:type="inkscape:persp3d" />
    <inkscape:perspective
       id="perspective3859"
       inkscape:persp3d-origin="0.5 : 0.33333333 : 1"
       inkscape:vp_z="1 : 0.5 : 1"
       inkscape:vp_y="0 : 1000 : 0"
       inkscape:vp_x="0 : 0.5 : 1"
       sodipodi:type="inkscape:persp3d" />
    <inkscape:perspective
       id="perspective3859-5"
       inkscape:persp3d-origin="0.5 : 0.33333333 : 1"
       inkscape:vp_z="1 : 0.5 : 1"
       inkscape:vp_y="0 : 1000 : 0"
       inkscape:vp_x="0 : 0.5 : 1"
       sodipodi:type="inkscape:persp3d" />
  </defs>
  <metadata
     id="metadata2413">
    <rdf:RDF>
      <cc:Work
         rdf:about="">
        <dc:format>image/svg+xml</dc:format>
        <dc:type
           rdf:resource="http://purl.org/dc/dcmitype/StillImage" />
        <dc:title></dc:title>
      </cc:Work>
    </rdf:RDF>
  </metadata>
  <g
     id="layer2"
     style="display:none"
     transform="translate(0,-18)">
    <rect
       width="86"
       height="85"
       rx="6"
       ry="6"
       x="5"
       y="7"
       id="rect3745"
       style="opacity:0.9;fill:url(#ButtonShadow);fill-opacity:1;fill-rule:nonzero;stroke:none;filter:url(#filter3174)" />
  </g>
  <g
     id="layer2-2"
     style="display:none"
     transform="translate(145.87345,-124.46266)">
    <rect
       width="86"
       height="85"
       rx="6"
       ry="6"
       x="5"
       y="7"
       id="rect3745-6"
       style="opacity:0.9;fill:url(#linearGradient3161);fill-opacity:1;fill-rule:nonzero;stroke:none;filter:url(#filter3174-0)" />
  </g>
  <g
     id="layer6"
     style="display:inline"
     transform="matrix(0.84725051,0,0,0.84725051,-1.6680245,-2.9389002)">
    <path
       d="m 12,-95.03125 c -5.5110903,0 -10.03125,4.52016 -10.03125,10.03125 l 0,71 c 0,5.5110902 4.5201598,10.03125 10.03125,10.03125 l 72,0 c 5.51109,0 10.03125,-4.5201597 10.03125,-10.03125 l 0,-71 c 0,-5.51109 -4.52016,-10.03125 -10.03125,-10.03125 l -72,0 z"
       transform="scale(1,-1)"
       id="path3786"
       style="opacity:0.07999998;fill:url(#linearGradient3139);fill-opacity:1;fill-rule:nonzero;stroke:none;display:inline" />
    <path
       d="m 12,-94.03125 c -4.971633,0 -9.03125,4.059617 -9.03125,9.03125 l 0,71 c 0,4.9716329 4.0596171,9.03125 9.03125,9.03125 l 72,0 c 4.971633,0 9.03125,-4.059617 9.03125,-9.03125 l 0,-71 c 0,-4.971633 -4.059617,-9.03125 -9.03125,-9.03125 l -72,0 z"
       transform="scale(1,-1)"
       id="path3778"
       style="opacity:0.1;fill:url(#linearGradient3141);fill-opacity:1;fill-rule:nonzero;stroke:none;display:inline" />
    <path
       d="m 12,-93 c -4.4091333,0 -8,3.590867 -8,8 l 0,71 c 0,4.4091333 3.5908667,8 8,8 l 72,0 c 4.409133,0 8,-3.5908667 8,-8 l 0,-71 c 0,-4.409133 -3.590867,-8 -8,-8 l -72,0 z"
       transform="scale(1,-1)"
       id="path3770"
       style="opacity:0.2;fill:url(#linearGradient3143);fill-opacity:1;fill-rule:nonzero;stroke:none;display:inline" />
    <rect
       width="86"
       height="85"
       rx="7"
       ry="7"
       x="5"
       y="-92"
       transform="scale(1,-1)"
       id="rect3723"
       style="opacity:0.3;fill:url(#linearGradient3145);fill-opacity:1;fill-rule:nonzero;stroke:none;display:inline" />
    <rect
       width="84"
       height="84"
       rx="6"
       ry="6"
       x="6"
       y="-91"
       transform="scale(1,-1)"
       id="rect3716"
       style="opacity:0.45;fill:url(#linearGradient3147);fill-opacity:1;fill-rule:nonzero;stroke:none;display:inline" />
  </g>
  <g
     id="layer1"
     style="display:inline"
     transform="matrix(0.84725051,0,0,0.84725051,-1.6680245,-2.9389002)">
    <rect
       width="84"
       height="84"
       rx="6"
       ry="6"
       x="6"
       y="6"
       id="rect2419"
       style="fill:url(#linearGradient3149);fill-opacity:1;fill-rule:nonzero;stroke:none" />
    <path
       d="M 12,6 C 8.676,6 6,8.676 6,12 l 0,2 0,68 0,2 c 0,0.334721 0.04135,0.6507 0.09375,0.96875 0.0487,0.295596 0.09704,0.596915 0.1875,0.875 0.00988,0.03038 0.020892,0.0636 0.03125,0.09375 0.098865,0.287771 0.2348802,0.547452 0.375,0.8125 0.1445918,0.273507 0.3156161,0.535615 0.5,0.78125 0.1843839,0.245635 0.3737765,0.473472 0.59375,0.6875 0.439947,0.428056 0.94291,0.814526 1.5,1.09375 0.278545,0.139612 0.5734731,0.246947 0.875,0.34375 -0.2562018,-0.100222 -0.4867109,-0.236272 -0.71875,-0.375 -0.00741,-0.0044 -0.023866,0.0045 -0.03125,0 -0.031933,-0.0193 -0.062293,-0.04251 -0.09375,-0.0625 -0.120395,-0.0767 -0.2310226,-0.163513 -0.34375,-0.25 -0.1061728,-0.0808 -0.2132809,-0.161112 -0.3125,-0.25 C 8.4783201,88.557317 8.3087904,88.373362 8.15625,88.1875 8.0486711,88.057245 7.9378561,87.922215 7.84375,87.78125 7.818661,87.74287 7.805304,87.69538 7.78125,87.65625 7.716487,87.553218 7.6510225,87.451733 7.59375,87.34375 7.4927417,87.149044 7.3880752,86.928049 7.3125,86.71875 7.30454,86.69694 7.288911,86.6782 7.28125,86.65625 7.2494249,86.5643 7.2454455,86.469419 7.21875,86.375 7.1884177,86.268382 7.1483606,86.171969 7.125,86.0625 7.0521214,85.720988 7,85.364295 7,85 L 7,83 7,15 7,13 C 7,10.218152 9.2181517,8 12,8 l 2,0 68,0 2,0 c 2.781848,0 5,2.218152 5,5 l 0,2 0,68 0,2 c 0,0.364295 -0.05212,0.720988 -0.125,1.0625 -0.04415,0.206893 -0.08838,0.397658 -0.15625,0.59375 -0.0077,0.02195 -0.0233,0.04069 -0.03125,0.0625 -0.06274,0.173739 -0.138383,0.367449 -0.21875,0.53125 -0.04158,0.0828 -0.07904,0.169954 -0.125,0.25 -0.0546,0.09721 -0.126774,0.18835 -0.1875,0.28125 -0.09411,0.140965 -0.204921,0.275995 -0.3125,0.40625 -0.143174,0.17445 -0.303141,0.346998 -0.46875,0.5 -0.01117,0.0102 -0.01998,0.02115 -0.03125,0.03125 -0.138386,0.125556 -0.285091,0.234436 -0.4375,0.34375 -0.102571,0.07315 -0.204318,0.153364 -0.3125,0.21875 -0.0074,0.0045 -0.02384,-0.0044 -0.03125,0 -0.232039,0.138728 -0.462548,0.274778 -0.71875,0.375 0.301527,-0.0968 0.596455,-0.204138 0.875,-0.34375 0.55709,-0.279224 1.060053,-0.665694 1.5,-1.09375 0.219973,-0.214028 0.409366,-0.441865 0.59375,-0.6875 0.184384,-0.245635 0.355408,-0.507743 0.5,-0.78125 0.14012,-0.265048 0.276135,-0.524729 0.375,-0.8125 0.01041,-0.03078 0.02133,-0.06274 0.03125,-0.09375 0.09046,-0.278085 0.1388,-0.579404 0.1875,-0.875 C 89.95865,84.6507 90,84.334721 90,84 l 0,-2 0,-68 0,-2 C 90,8.676 87.324,6 84,6 L 12,6 z"
       inkscape:connector-curvature="0"
       id="rect3728"
       style="opacity:0.3;fill:url(#linearGradient3151);fill-opacity:1;fill-rule:nonzero;stroke:none" />
    <path
       d="M 12,90 C 8.676,90 6,87.324 6,84 L 6,82 6,14 6,12 c 0,-0.334721 0.04135,-0.6507 0.09375,-0.96875 0.0487,-0.295596 0.09704,-0.596915 0.1875,-0.875 C 6.29113,10.12587 6.302142,10.09265 6.3125,10.0625 6.411365,9.774729 6.5473802,9.515048 6.6875,9.25 6.8320918,8.976493 7.0031161,8.714385 7.1875,8.46875 7.3718839,8.223115 7.5612765,7.995278 7.78125,7.78125 8.221197,7.353194 8.72416,6.966724 9.28125,6.6875 9.559795,6.547888 9.8547231,6.440553 10.15625,6.34375 9.9000482,6.443972 9.6695391,6.580022 9.4375,6.71875 c -0.00741,0.0044 -0.023866,-0.0045 -0.03125,0 -0.031933,0.0193 -0.062293,0.04251 -0.09375,0.0625 -0.120395,0.0767 -0.2310226,0.163513 -0.34375,0.25 -0.1061728,0.0808 -0.2132809,0.161112 -0.3125,0.25 C 8.4783201,7.442683 8.3087904,7.626638 8.15625,7.8125 8.0486711,7.942755 7.9378561,8.077785 7.84375,8.21875 7.818661,8.25713 7.805304,8.30462 7.78125,8.34375 7.716487,8.446782 7.6510225,8.548267 7.59375,8.65625 7.4927417,8.850956 7.3880752,9.071951 7.3125,9.28125 7.30454,9.30306 7.288911,9.3218 7.28125,9.34375 7.2494249,9.4357 7.2454455,9.530581 7.21875,9.625 7.1884177,9.731618 7.1483606,9.828031 7.125,9.9375 7.0521214,10.279012 7,10.635705 7,11 l 0,2 0,68 0,2 c 0,2.781848 2.2181517,5 5,5 l 2,0 68,0 2,0 c 2.781848,0 5,-2.218152 5,-5 l 0,-2 0,-68 0,-2 C 89,10.635705 88.94788,10.279012 88.875,9.9375 88.83085,9.730607 88.78662,9.539842 88.71875,9.34375 88.71105,9.3218 88.69545,9.30306 88.6875,9.28125 88.62476,9.107511 88.549117,8.913801 88.46875,8.75 88.42717,8.6672 88.38971,8.580046 88.34375,8.5 88.28915,8.40279 88.216976,8.31165 88.15625,8.21875 88.06214,8.077785 87.951329,7.942755 87.84375,7.8125 87.700576,7.63805 87.540609,7.465502 87.375,7.3125 87.36383,7.3023 87.35502,7.29135 87.34375,7.28125 87.205364,7.155694 87.058659,7.046814 86.90625,6.9375 86.803679,6.86435 86.701932,6.784136 86.59375,6.71875 c -0.0074,-0.0045 -0.02384,0.0044 -0.03125,0 -0.232039,-0.138728 -0.462548,-0.274778 -0.71875,-0.375 0.301527,0.0968 0.596455,0.204138 0.875,0.34375 0.55709,0.279224 1.060053,0.665694 1.5,1.09375 0.219973,0.214028 0.409366,0.441865 0.59375,0.6875 0.184384,0.245635 0.355408,0.507743 0.5,0.78125 0.14012,0.265048 0.276135,0.524729 0.375,0.8125 0.01041,0.03078 0.02133,0.06274 0.03125,0.09375 0.09046,0.278085 0.1388,0.579404 0.1875,0.875 C 89.95865,11.3493 90,11.665279 90,12 l 0,2 0,68 0,2 c 0,3.324 -2.676,6 -6,6 l -72,0 z"
       inkscape:connector-curvature="0"
       id="path3615"
       style="opacity:0.2;fill:url(#radialGradient3153);fill-opacity:1;fill-rule:nonzero;stroke:none" />
  </g>
  <g
     id="layer5"
     style="display:inline"
     transform="matrix(0.84725051,0,0,0.84725051,-1.6680245,-2.9389002)">
    <rect
       width="66"
       height="66"
       rx="12"
       ry="12"
       x="15"
       y="15"
       clip-path="url(#clipPath3613)"
       id="rect3171"
       style="opacity:0.1;fill:url(#linearGradient3155);fill-opacity:1;fill-rule:nonzero;stroke:#ffffff;stroke-width:0.5;stroke-linecap:round;stroke-linejoin:miter;stroke-miterlimit:4;stroke-opacity:1;stroke-dasharray:none;stroke-dashoffset:0;filter:url(#filter3794)" />
  </g>
  <g
     id="g3882"
     transform="matrix(1.0484915,0,0,1.0484915,148.00831,87.273262)">
    <path
       sodipodi:nodetypes="csccscsc"
       id="path1872-6-8-0"
       d="m -103.96681,-74.356095 c -15.62691,0 -28.30965,9.878215 -28.30965,22.052218 0,9.419222 7.59196,17.464761 18.26599,20.623887 l -0.0378,0 c 0,0 -1.92843,6.009391 -10.50709,12.157453 -3.35739,2.40614 22.59743,-3.946913 24.38938,-11.389662 15.123505,-2.837999 24.508835,-11.922902 24.508835,-21.391678 0,-12.174003 -12.68275,-22.052218 -28.309685,-22.052218 z"
       style="opacity:0.1;fill:none;stroke:#7a7a7a;stroke-width:9;stroke-linejoin:round;stroke-miterlimit:4;stroke-opacity:1;stroke-dasharray:none;stroke-dashoffset:0" />
    <path
       sodipodi:nodetypes="csccscsc"
       id="path1872-6-8-6"
       d="m -103.9668,-74.358197 c -15.62691,0 -28.30966,9.878215 -28.30966,22.052218 0,9.419222 7.59196,17.464761 18.266,20.623887 l -0.0378,0 c 0,0 -1.92843,6.009391 -10.5071,12.157453 -3.35739,2.40614 22.59744,-3.946913 24.38939,-11.389662 15.123496,-2.837999 24.508826,-11.922902 24.508826,-21.391678 0,-12.174003 -12.68275,-22.052218 -28.309676,-22.052218 z"
       style="opacity:0.2;fill:none;stroke:#7a7a7a;stroke-width:7;stroke-linejoin:round;stroke-miterlimit:4;stroke-opacity:1;stroke-dasharray:none;stroke-dashoffset:0" />
    <path
       sodipodi:nodetypes="csccscsc"
       id="path1872-6-8"
       d="m -104.06934,-74.557049 c -15.62691,0 -28.30966,9.878215 -28.30966,22.052218 0,9.419222 7.59196,17.464762 18.266,20.623888 l -0.0378,0 c 0,0 -1.92843,6.009391 -10.5071,12.157453 -3.35739,2.406139 22.59744,-3.946913 24.38939,-11.389662 15.123504,-2.837999 24.508834,-11.922903 24.508834,-21.391679 0,-12.174003 -12.682755,-22.052218 -28.309684,-22.052218 z"
       style="opacity:0.25;fill:none;stroke:#7a7a7a;stroke-width:5.5;stroke-linejoin:round;stroke-miterlimit:4;stroke-opacity:1;stroke-dasharray:none;stroke-dashoffset:0" />
    <path
       sodipodi:nodetypes="csccscsc"
       id="path1872-6"
       d="m -104.36514,-75.056196 c -15.62691,0 -28.30966,9.878215 -28.30966,22.052218 0,9.419221 7.59196,17.46476 18.266,20.623886 l -0.0378,0 c 0,0 -1.92843,6.009391 -10.5071,12.157453 -3.35739,2.40614 22.59743,-3.946912 24.38938,-11.389662 15.123501,-2.837999 24.508831,-11.922902 24.508831,-21.391677 0,-12.174003 -12.68275,-22.052218 -28.309671,-22.052218 z"
       style="opacity:0.25;fill:none;stroke:#7a7a7a;stroke-width:4;stroke-linejoin:round;stroke-miterlimit:4;stroke-opacity:1;stroke-dasharray:none;stroke-dashoffset:0" />
    <g
       transform="translate(-282.02489,-45.809128)"
       id="g3840">
      <path
         style="fill:#ffffff;fill-opacity:1;stroke:#a0bdf0;stroke-width:2.45122719;stroke-linejoin:round;stroke-miterlimit:4;stroke-opacity:1;stroke-dasharray:none;stroke-dashoffset:0"
         d="m 177.08112,-29.956196 c -15.62691,0 -28.30966,9.878215 -28.30966,22.0522182 0,9.4192225 7.59196,17.4647616 18.266,20.6238868 l -0.0378,0 c 0,0 -1.92843,6.009391 -10.5071,12.157453 -3.35739,2.40614 22.59743,-3.946913 24.38938,-11.389662 15.1235,-2.837999 24.50883,-11.9229011 24.50883,-21.3916778 0,-12.1740032 -12.68275,-22.0522182 -28.30967,-22.0522182 z"
         id="path1872"
         sodipodi:nodetypes="csccscsc" />
      <path
         style="fill:#c2cee9;fill-opacity:1;stroke:none"
         d="M 202.9131,-8.5807497 C 201.99185,7.1981693 181.46934,14.211673 168.91559,6.8413774 156.82915,1.398589 155.67623,-17.442964 167.96483,-23.301027 c 12.46347,-7.766439 34.30398,-1.994762 34.94827,14.7202773 z"
         id="path2820" />
      <path
         sodipodi:type="arc"
         style="fill:#ffffff;fill-opacity:1;stroke:none"
         id="path3707"
         sodipodi:cx="137.60739"
         sodipodi:cy="114.25404"
         sodipodi:rx="88.535797"
         sodipodi:ry="63.704388"
         d="m 226.14319,114.25404 c 0,35.18297 -39.63883,63.70439 -88.5358,63.70439 -48.896969,0 -88.535796,-28.52142 -88.535796,-63.70439 0,-35.182958 39.638827,-63.704384 88.535796,-63.704384 48.89697,0 88.5358,28.521426 88.5358,63.704384 z"
         transform="matrix(0.24494086,0,0,0.29833413,143.98269,-41.951703)" />
      <path
         style="font-size:80px;font-style:normal;font-variant:normal;font-weight:bold;font-stretch:normal;text-align:start;line-height:100%;writing-mode:lr-tb;text-anchor:start;fill:#3074c1;fill-opacity:1;font-family:Bitstream Vera Sans"
         d="m 159.02606,-15.751878 c 0,1.254735 0,2.50947 0,3.764204 1.17975,0 2.3595,0 3.53925,0 0,1.010102 0,2.0202035 0,3.0303045 -1.17975,0 -2.3595,0 -3.53925,0 0.007,1.982621 -0.0135,3.9658128 0.0104,5.9480614 -0.0468,0.6764962 0.4469,1.2918906 1.15629,1.2376739 0.69125,0.023264 1.3835,0.00583 2.07518,0.011245 0,1.01010104 0,2.02020205 0,3.0303031 -1.25909,-0.019298 -2.52184,0.046326 -3.77775,-0.049844 -1.03845,-0.094018 -2.10272,-0.66934512 -2.46189,-1.69958847 -0.60901,-1.58109233 -0.39485,-3.30037093 -0.43603,-4.95701213 0,-1.1736096 0,-2.3472193 0,-3.5208289 -0.5691,0 -1.13819,0 -1.70728,0 0,-1.010101 0,-2.0202034 0,-3.0303044 0.56909,0 1.13818,0 1.70728,0 0,-1.254735 0,-2.50947 0,-3.764205 1.14458,0 2.28916,0 3.43375,0 z"
         id="path4629" />
      <path
         style="font-size:80px;font-style:normal;font-variant:normal;font-weight:bold;font-stretch:normal;text-align:start;line-height:100%;writing-mode:lr-tb;text-anchor:start;font-family:Bitstream Vera Sans"
         d="m 169.49036,-4.6960044 c -0.71617,4.9e-6 -1.25649,0.1499418 -1.62096,0.4498084 -0.35809,0.2998788 -0.53713,0.7417961 -0.53712,1.325757 -1e-5,0.5366219 0.14387,0.9588105 0.43161,1.266573 0.29414,0.2998763 0.70018,0.4498132 1.21812,0.4498084 0.64582,4.8e-6 1.18934,-0.284087 1.63055,-0.8522706 0.4412,-0.5760674 0.66181,-1.2941856 0.66181,-2.1543569 l 0,-0.4853193 -1.78401,0"
         id="path4627" />
      <path
         style="font-size:80px;font-style:normal;font-variant:normal;font-weight:bold;font-stretch:normal;text-align:start;line-height:100%;writing-mode:lr-tb;text-anchor:start;fill:#ee1b1e;fill-opacity:1;font-family:Bitstream Vera Sans"
         d="m 174.7369,-6.2940178 c 0,2.5213082 0,5.042614 0,7.5639222 -1.15418,0 -2.30835,0 -3.46253,0 -0.0775,-0.50700938 0.15516,-1.65456145 -0.12159,-1.74690326 -0.70662,1.2673396 -2.09222,2.20136936 -3.57726,2.10463586 -1.51917,0.0036 -2.97622,-1.03934597 -3.40668,-2.50657811 -0.49852,-1.42048329 -0.38883,-3.04384569 0.27138,-4.39296379 0.80197,-1.3613622 2.46472,-1.8535592 3.95525,-1.9151519 0.95849,-0.064925 1.91937,-0.0126 2.8789,-0.030258 0.12105,-0.8542851 -0.30255,-1.9029005 -1.23194,-2.0736376 -1.38113,-0.4133568 -2.8737,-0.1596683 -4.20184,0.3196656 -0.39167,0.1872639 -1.23198,0.8596102 -1.03087,-0.019879 0,-0.880466 0,-1.7609322 0,-2.6413992 2.32548,-0.654676 4.86916,-1.023662 7.2087,-0.231335 1.3506,0.5253 2.27364,1.840544 2.49932,3.2487205 0.16706,0.7614088 0.21482,1.5434315 0.21916,2.3211568 z"
         id="path4625" />
      <path
         style="font-size:80px;font-style:normal;font-variant:normal;font-weight:bold;font-stretch:normal;text-align:start;line-height:100%;writing-mode:lr-tb;text-anchor:start;fill:#ffd634;fill-opacity:1;font-family:Bitstream Vera Sans"
         d="m 177.95004,-17.148659 c 1.09601,0.09653 2.57777,-0.192675 3.43375,0.143895 0,6.091556 0,12.1831125 0,18.2746684 -1.09602,-0.096533 -2.57777,0.1926762 -3.43375,-0.143896 0,-6.0915559 0,-12.1831124 0,-18.2746674 z"
         id="path4623" />
      <path
         style="font-size:80px;font-style:normal;font-variant:normal;font-weight:bold;font-stretch:normal;text-align:start;line-height:100%;writing-mode:lr-tb;text-anchor:start;fill:#279e12;fill-opacity:1;font-family:Bitstream Vera Sans"
         d="m 184.70244,-17.148659 c 1.09215,0.10465 2.60278,-0.209172 3.43375,0.156657 0,3.289795 0,6.579589 0,9.8693843 1.31723,-1.6216866 2.63446,-3.2433723 3.95169,-4.8650563 1.33002,0 2.66004,0 3.99006,0 -1.74885,2.0280945 -3.4977,4.0561876 -5.24655,6.0842806 1.88633,2.3911001 3.77265,4.7821977 5.65898,7.1732978 -1.42687,-0.211844 -3.28051,0.4354846 -4.42467,-0.34549585 -1.30984,-1.72747915 -2.61967,-3.45496075 -3.92951,-5.18243985 0,1.8426452 0,3.68529045 0,5.5279357 -1.09601,-0.096533 -2.57777,0.1926762 -3.43375,-0.143896 0,-6.0915559 -1e-5,-12.1831134 0,-18.2746674 z"
         id="flowRoot4612" />
      <path
         style="fill:#ffffff;fill-opacity:1;stroke:none"
         inkscape:transform-center-x="-8.3275602"
         inkscape:transform-center-y="-2.3294291"
         d="m 170.95389,-4.9183923 c 0.27152,0.2629434 0.20999,2.4395756 -0.20599,2.7517153 -1.1165,0.8377775 -2.05696,1.76771548 -4.23132,1.0758363 -1.00323,-0.3192278 -0.43359,-2.3312776 0.28527,-3.1806511 1.02042,-1.2056865 3.72194,-1.1243142 4.15204,-0.6469005 z"
         id="path5516"
         sodipodi:nodetypes="csssc" />
    </g>
  </g>
</svg>
